<?xml version="1.0" encoding="UTF-8"?> <svg xmlns="http://www.w3.org/2000/svg" width="57" height="85" viewBox="0 0 57 85" fill="none"><g clip-path="url(#clip0_3334_15427)"><path d="M38.6298 41.59C38.4698 41.59 38.3198 41.52 38.2198 41.38C38.0598 41.15 38.1198 40.84 38.3398 40.68L47.9398 33.94C49.4798 32.86 50.3598 31.24 50.4198 29.37L51.5898 21.61L55.3898 18.73C55.6098 18.56 55.9198 18.61 56.0898 18.83C56.2598 19.05 56.2098 19.36 55.9898 19.53L52.5098 22.17L51.4098 29.47C51.3498 31.57 50.2898 33.52 48.5098 34.76L38.9098 41.5C38.8198 41.56 38.7198 41.59 38.6198 41.59H38.6298Z" fill="#FFD441"></path><path d="M3.87017 77.92C3.87017 77.92 3.83017 77.92 3.81017 77.92C3.54017 77.89 3.34017 77.64 3.37017 77.36L4.29017 69.73L5.04017 71.03C5.12017 71.18 7.15017 74.61 10.6102 73.74C13.5002 73.02 14.8402 63.12 15.1202 59.37C15.1402 59.1 15.3702 58.89 15.6602 58.91C15.9402 58.93 16.1402 59.17 16.1202 59.45C16.0102 60.91 14.9602 73.7 10.8602 74.72C8.04017 75.42 6.01017 73.76 4.97017 72.58L4.38017 77.49C4.35017 77.74 4.13017 77.93 3.88017 77.93L3.87017 77.92Z" fill="#FFD441"></path><path d="M17.6701 84.0201C17.4401 84.0201 17.2401 83.8701 17.1801 83.6401L15.3501 76.1701L16.5101 77.1201C16.6401 77.2301 19.7501 79.7201 22.6701 77.7001C25.1401 76.0001 23.5201 65.3001 22.6801 61.3301C22.6201 61.0601 22.8001 60.7901 23.0701 60.7401C23.3401 60.6801 23.6101 60.8601 23.6601 61.1301C23.9801 62.6601 26.6901 76.1401 23.2401 78.5301C20.8501 80.1801 18.3601 79.3401 16.9701 78.6001L18.1501 83.4101C18.2201 83.6801 18.0501 83.9501 17.7801 84.0101C17.7401 84.0101 17.7001 84.0201 17.6601 84.0201H17.6701Z" fill="#FFD441"></path><path d="M6.59055 28.4287L2.06958 53.5552C1.64121 55.936 3.22395 58.2132 5.60472 58.6416L30.7312 63.1626C33.112 63.5909 35.3893 62.0082 35.8176 59.6274L40.3386 34.5009C40.767 32.1201 39.1842 29.8429 36.8035 29.4145L11.677 24.8935C9.29618 24.4652 7.01892 26.0479 6.59055 28.4287Z" fill="#FFD441"></path><path d="M31.4098 60.5699C31.1898 60.5699 30.9598 60.5499 30.7298 60.5099L11.6798 57.0799C10.6698 56.8999 9.79979 56.3399 9.21979 55.4999C8.63979 54.6599 8.41979 53.6499 8.59979 52.6399L12.0298 33.5899C12.2098 32.5799 12.7698 31.7099 13.6098 31.1299C14.4498 30.5499 15.4698 30.3299 16.4698 30.5099L35.5198 33.9399C37.5998 34.3099 38.9798 36.3099 38.6098 38.3799L35.1798 57.4299C34.8498 59.2799 33.2298 60.5799 31.4198 60.5799L31.4098 60.5699ZM30.9098 59.5299C32.4398 59.7999 33.9098 58.7799 34.1898 57.2499L37.6198 38.1999C37.7498 37.4599 37.5898 36.7099 37.1598 36.0899C36.7298 35.4699 36.0798 35.0599 35.3398 34.9199L16.2898 31.4899C15.5498 31.3599 14.7998 31.5199 14.1798 31.9499C13.5598 32.3799 13.1498 33.0299 13.0098 33.7699L9.57979 52.8199C9.44979 53.5599 9.60979 54.3099 10.0398 54.9299C10.4698 55.5499 11.1198 55.9599 11.8598 56.0999L30.9098 59.5299Z" fill="#6553A3"></path><path d="M24.4204 20.7498C24.5804 31.6298 7.49044 31.6298 7.66044 20.7498C7.50044 9.86984 24.5904 9.86984 24.4204 20.7498Z" fill="white"></path><path d="M16.0302 29.4099C14.3102 29.4099 12.6002 28.9799 11.1302 28.1299C8.51021 26.5999 7.10021 23.9799 7.15021 20.7499C7.10021 17.5299 8.52021 14.9099 11.1302 13.3799C14.0602 11.6699 18.0002 11.6699 20.9302 13.3799C23.5402 14.9099 24.9602 17.5299 24.9102 20.7599C24.9502 23.9899 23.5402 26.6099 20.9302 28.1399C19.4702 28.9999 17.7502 29.4199 16.0302 29.4199V29.4099ZM16.0302 13.0899C14.4902 13.0899 12.9502 13.4699 11.6402 14.2399C9.35021 15.5799 8.11021 17.8899 8.15021 20.7499C8.11021 23.6199 9.35021 25.9299 11.6402 27.2699C14.2702 28.8099 17.8002 28.8099 20.4302 27.2699C22.7202 25.9299 23.9602 23.6199 23.9202 20.7599C23.9602 17.8899 22.7202 15.5799 20.4302 14.2399C19.1202 13.4699 17.5802 13.0899 16.0302 13.0899Z" fill="#6553A3"></path><path d="M41.71 20.7498C41.87 31.6298 24.78 31.6298 24.95 20.7498C24.79 9.86984 41.88 9.86984 41.71 20.7498Z" fill="white"></path><path d="M33.33 29.4099C31.61 29.4099 29.9 28.9799 28.43 28.1299C25.81 26.5999 24.4 23.9799 24.45 20.7499C24.4 17.5299 25.82 14.9099 28.43 13.3799C31.36 11.6699 35.3 11.6699 38.23 13.3799C40.84 14.9099 42.26 17.5299 42.21 20.7599C42.25 23.9899 40.84 26.6099 38.23 28.1399C36.77 28.9899 35.05 29.4199 33.33 29.4199V29.4099ZM33.33 13.0899C31.79 13.0899 30.25 13.4699 28.94 14.2399C26.65 15.5799 25.41 17.8899 25.45 20.7499C25.41 23.6199 26.65 25.9299 28.94 27.2699C31.57 28.8099 35.1 28.8099 37.73 27.2699C40.02 25.9299 41.26 23.6199 41.22 20.7599C41.26 17.8899 40.02 15.5799 37.73 14.2399C36.42 13.4699 34.88 13.0899 33.34 13.0899H33.33Z" fill="#6553A3"></path><path d="M18.3803 21.34C18.1603 21.34 17.9603 21.2 17.9003 20.97C17.1103 18.13 16.3503 17.89 16.1303 17.88C15.3403 17.82 14.3103 19.73 13.8503 21.01C13.7503 21.27 13.4703 21.4 13.2103 21.31C12.9503 21.22 12.8203 20.93 12.9103 20.67C13.1403 20.03 14.4003 16.86 16.1703 16.88C17.2903 16.92 18.1403 18.14 18.8603 20.7C18.9303 20.97 18.7803 21.24 18.5103 21.32C18.4703 21.33 18.4203 21.34 18.3703 21.34H18.3803Z" fill="#613182"></path><path d="M31.3804 21.34C31.3304 21.34 31.2704 21.34 31.2204 21.31C30.9604 21.22 30.8204 20.94 30.9004 20.68C31.7304 18.2 32.6704 16.99 33.7904 16.99C35.5404 16.99 36.6504 20.07 36.8504 20.68C36.9404 20.94 36.7904 21.22 36.5304 21.31C36.2704 21.4 35.9904 21.25 35.9004 20.99C35.5004 19.78 34.5504 17.98 33.7904 17.98C33.5104 17.98 32.7604 18.27 31.8504 20.99C31.7804 21.2 31.5804 21.33 31.3804 21.33V21.34Z" fill="#613182"></path><path d="M19.9201 36.29L22.8801 36.82L20.4701 50.24L28.7901 51.73L28.3401 54.23L17.0601 52.21L19.9201 36.29Z" fill="#613182"></path><path d="M8.35003 41.4601C8.19003 41.4601 8.03003 41.3801 7.93003 41.2401L0.960028 30.7201C-0.0799717 29.1501 -0.279972 27.2701 0.410028 25.5701L3.34003 18.3501L1.44003 14.4401C1.32003 14.1901 1.42003 13.8901 1.67003 13.7701C1.92003 13.6501 2.22003 13.7501 2.34003 14.0001L4.44003 18.3101L1.34003 25.9401C0.780028 27.3301 0.940028 28.8701 1.80003 30.1601L8.78003 40.6801C8.93003 40.9101 8.87003 41.2201 8.64003 41.3701C8.56003 41.4301 8.46003 41.4501 8.36003 41.4501L8.35003 41.4601Z" fill="#FFD441"></path><path d="M31.6098 6.25998L29.2398 7.08998L28.3298 9.53998L27.4698 7.13998L25.0498 6.25998L27.4998 5.34998L28.3298 2.97998L29.2098 5.39998L31.6098 6.25998Z" fill="#FFD441"></path><path d="M40.8399 1.87L39.4899 2.34L38.9699 3.74L38.4899 2.37L37.1099 1.87L38.4999 1.35L38.9699 0L39.4799 1.38L40.8399 1.87Z" fill="#FFD441"></path><path d="M48.3298 16.9999L46.6298 12.2299L41.8398 10.4799L46.6698 8.68994L48.3398 3.93994L50.0998 8.76994L54.9098 10.4899L50.1398 12.1599L48.3398 16.9999H48.3298ZM44.7298 10.4799L47.4098 11.4599L48.3498 14.0799L49.3598 11.3699L51.8998 10.4799L49.3098 9.55994L48.3498 6.91994L47.4498 9.47994L44.7298 10.4899V10.4799Z" fill="#FFD441"></path><path d="M12.18 30.85L33.46 31.44C33.75 31.44 33.95 31.81 33.82 32.1C33.13 33.63 27.63 36.97 24.55 37.31C19 37.92 15.7 33.84 12.02 31.69C11.65 31.47 11.76 30.84 12.17 30.85H12.18Z" fill="#613182"></path></g><defs><clipPath id="clip0_3334_15427"><rect width="56.19" height="84.02" fill="white"></rect></clipPath></defs></svg> 