<svg width="97" height="146" viewBox="0 0 97 146" fill="none" xmlns="http://www.w3.org/2000/svg">
<g clip-path="url(#clip0_420_72325)">
<path d="M66.6861 72.2702C66.4099 72.2702 66.1509 72.1485 65.9783 71.9053C65.7021 71.5056 65.8057 70.9669 66.1855 70.6889L82.7578 58.9769C85.4163 57.1002 86.9354 54.2852 87.039 51.0357L89.0588 37.5513L95.6186 32.5468C95.9984 32.2514 96.5336 32.3383 96.827 32.7206C97.1205 33.1028 97.0342 33.6415 96.6544 33.9369L90.6469 38.5244L88.748 51.1921C88.6444 54.8412 86.8146 58.2297 83.7418 60.3844L67.1695 72.0964C67.0141 72.2007 66.8415 72.2528 66.6688 72.2528L66.6861 72.2702Z" fill="#2D2E83"/>
<path d="M6.68079 135.4C6.68079 135.4 6.61174 135.4 6.57721 135.4C6.11111 135.348 5.76586 134.914 5.81765 134.427L7.40583 121.169L8.70054 123.428C8.83865 123.688 12.343 129.631 18.316 128.137C23.3049 126.886 25.6181 109.682 26.1015 103.166C26.136 102.697 26.5503 102.332 27.0337 102.367C27.5171 102.402 27.8623 102.819 27.8278 103.305C27.6379 105.842 25.8253 128.067 18.7475 129.84C13.8794 131.056 10.375 128.171 8.5797 126.121L7.56119 134.653C7.50941 135.087 7.12962 135.418 6.69805 135.418L6.68079 135.4Z" fill="#2D2E83"/>
<path d="M30.503 146C30.106 146 29.7607 145.739 29.6571 145.34L26.498 132.359L28.5005 134.01C28.725 134.201 34.0937 138.528 39.1345 135.018C43.3984 132.064 40.6018 113.471 39.1517 106.572C39.0481 106.103 39.3589 105.634 39.825 105.547C40.2911 105.443 40.7572 105.755 40.8435 106.224C41.3959 108.883 46.0741 132.307 40.1184 136.46C35.9926 139.327 31.6942 137.868 29.2946 136.582L31.3316 144.94C31.4525 145.409 31.159 145.878 30.6929 145.983C30.6239 145.983 30.5548 146 30.4858 146H30.503Z" fill="#2D2E83"/>
<path d="M11.3778 49.4L3.57334 93.0619C2.83385 97.1989 5.56611 101.156 9.67601 101.9L53.0516 109.756C57.1615 110.501 61.0927 107.751 61.8322 103.613L69.6366 59.9516C70.3761 55.8146 67.6439 51.8574 63.534 51.1131L20.1584 43.2571C16.0485 42.5127 12.1173 45.263 11.3778 49.4Z" fill="#2D2E83"/>
<path d="M54.2393 105.251C53.8422 105.251 53.4452 105.217 53.0481 105.147L20.1624 99.1869C16.5717 98.5439 14.1894 95.0686 14.8281 91.4716L20.7493 58.3687C21.06 56.6137 22.0268 55.1019 23.4768 54.094C24.9269 53.0862 26.6705 52.7039 28.414 53.0167L61.2998 58.9769C63.0433 59.2897 64.5452 60.2628 65.5464 61.7224C66.5477 63.1821 66.9275 64.9372 66.6167 66.6922L60.6956 99.7951C60.3848 101.55 59.4181 103.062 57.968 104.07C56.8459 104.852 55.5512 105.251 54.222 105.251H54.2393ZM27.2401 54.6327C26.2562 54.6327 25.2894 54.9281 24.4608 55.5189C23.3905 56.2661 22.6827 57.3956 22.4411 58.6815L16.5199 91.7843C16.0365 94.443 17.8146 96.9974 20.4558 97.4839L53.3416 103.444C54.619 103.687 55.9137 103.392 56.984 102.645C58.0543 101.898 58.7621 100.768 59.0038 99.4823L64.925 66.3794C65.4083 63.7208 63.6302 61.1664 60.989 60.6798L28.1033 54.7196C27.8098 54.6675 27.5163 54.6327 27.2229 54.6327H27.2401Z" fill="#374C92"/>
<path d="M42.1554 36.0569C42.4316 54.9629 12.9294 54.9629 13.2229 36.0569C12.9467 17.1509 42.4489 17.1509 42.1554 36.0569Z" fill="white"/>
<path d="M27.6715 51.1052C24.7023 51.1052 21.7503 50.358 19.2127 48.881C14.6898 46.2223 12.2557 41.6696 12.3421 36.0569C12.2557 30.4616 14.7071 25.9088 19.2127 23.2502C24.2707 20.2787 31.0723 20.2787 36.1303 23.2502C40.6359 25.9088 43.0872 30.4616 43.0009 36.0743C43.07 41.687 40.6359 46.2397 36.1303 48.8984C33.6099 50.3928 30.6407 51.1226 27.6715 51.1226V51.1052ZM27.6715 22.7463C25.013 22.7463 22.3545 23.4066 20.0931 24.7446C16.1399 27.0731 13.9993 31.0871 14.0683 36.0395C13.9993 41.0267 16.1399 45.0407 20.0931 47.3692C24.6332 50.0452 30.727 50.0452 35.2671 47.3692C39.2203 45.0407 41.3609 41.0267 41.2919 36.0569C41.3609 31.0698 39.2203 27.0557 35.2671 24.7272C33.0057 23.3892 30.3472 22.7289 27.6887 22.7289L27.6715 22.7463Z" fill="#374C92"/>
<path d="M72.0031 36.0569C72.2793 54.9629 42.7771 54.9629 43.0705 36.0569C42.7943 17.1509 72.2966 17.1509 72.0031 36.0569Z" fill="white"/>
<path d="M57.5367 51.1052C54.5675 51.1052 51.6156 50.358 49.0779 48.881C44.555 46.2223 42.121 41.6696 42.2073 36.0569C42.121 30.4616 44.5723 25.9088 49.0779 23.2502C54.1359 20.2787 60.9375 20.2787 65.9955 23.2502C70.5011 25.9088 72.9524 30.4616 72.8661 36.0743C72.9352 41.687 70.5011 46.2397 65.9955 48.8984C63.4751 50.3754 60.5059 51.1226 57.5367 51.1226V51.1052ZM57.5367 22.7463C54.8782 22.7463 52.2198 23.4066 49.9583 24.7446C46.0051 27.0731 43.8645 31.0871 43.9336 36.0395C43.8645 41.0267 46.0051 45.0407 49.9583 47.3692C54.4985 50.0279 60.5922 50.0279 65.1324 47.3692C69.0856 45.0407 71.2262 41.0267 71.1571 36.0569C71.2262 31.0698 69.0856 27.0557 65.1324 24.7272C62.8709 23.3892 60.2125 22.7289 57.554 22.7289L57.5367 22.7463Z" fill="#374C92"/>
<path d="M31.7282 37.0821C31.3484 37.0821 31.0032 36.8389 30.8996 36.4392C29.5358 31.5042 28.2238 31.0871 27.8441 31.0698C26.5666 31.0176 24.7022 34.2845 23.9081 36.5087C23.7528 36.9605 23.2521 37.1864 22.8033 37.03C22.3545 36.8736 22.1301 36.3697 22.2854 35.9179C22.6825 34.8058 24.8576 29.2626 27.9131 29.3321C29.8465 29.4016 31.3139 31.5216 32.5568 35.97C32.6777 36.4392 32.4187 36.9084 31.9526 37.0474C31.8836 37.0648 31.7973 37.0821 31.7109 37.0821H31.7282Z" fill="#2D2E83"/>
<path d="M54.1701 37.0821C54.0838 37.0821 53.9802 37.0821 53.8939 37.03C53.4451 36.8736 53.2034 36.3871 53.3415 35.9353C54.7743 31.6258 56.397 29.5232 58.3305 29.5232C61.3515 29.5232 63.2676 34.8753 63.6129 35.9353C63.7683 36.3871 63.5093 36.8736 63.0605 37.03C62.6117 37.1864 62.1283 36.9257 61.9729 36.4739C61.2824 34.3713 59.6425 31.2435 58.3305 31.2435C57.8471 31.2435 56.5524 31.7474 54.9815 36.4739C54.8606 36.8388 54.5154 37.0647 54.1701 37.0647V37.0821Z" fill="#2D2E83"/>
<path d="M34.3884 63.0605L39.4982 63.9814L35.3378 87.3011L49.7005 89.8903L48.9237 94.2345L29.4512 90.7244L34.3884 63.0605Z" fill="white"/>
<path d="M14.4142 72.0443C14.138 72.0443 13.8618 71.9053 13.6891 71.662L1.65693 53.3816C-0.138403 50.6534 -0.48366 47.3866 0.707477 44.4325L5.76549 31.8865L2.48555 25.0921C2.2784 24.6577 2.45103 24.1364 2.8826 23.9279C3.31417 23.7194 3.83205 23.8931 4.03921 24.3275L7.66441 31.817L2.31292 45.0755C1.3462 47.4908 1.62241 50.1669 3.10701 52.4085L15.1565 70.6889C15.4154 71.0886 15.3119 71.6272 14.9148 71.8879C14.7767 71.9921 14.6041 72.0269 14.4314 72.0269L14.4142 72.0443Z" fill="#2D2E83"/>
<path d="M54.5686 10.8779L50.4773 12.3202L48.9064 16.5775L47.4218 12.407L43.2441 10.8779L47.4735 9.29659L48.9064 5.17828L50.4255 9.38347L54.5686 10.8779Z" fill="#2D2E83"/>
<path d="M70.5015 3.24946L68.1711 4.06617L67.2734 6.49893L66.4448 4.11831L64.0625 3.24946L66.462 2.34587L67.2734 0L68.1538 2.398L70.5015 3.24946Z" fill="#2D2E83"/>
<path d="M83.4321 29.5406L80.4974 21.2518L72.2285 18.2109L80.5665 15.1005L83.4494 6.84647L86.4876 15.2395L94.7911 18.2283L86.5567 21.1302L83.4494 29.5406H83.4321ZM77.2175 18.2109L81.8439 19.9138L83.4666 24.4666L85.2102 19.7574L89.595 18.2109L85.1239 16.6122L83.4666 12.0248L81.913 16.4732L77.2175 18.2283V18.2109Z" fill="#2D2E83"/>
<path d="M21.0269 53.6075L57.7622 54.6327C58.2628 54.6327 58.6081 55.2756 58.3837 55.7796C57.1925 58.4382 47.698 64.2421 42.381 64.8329C32.8001 65.8929 27.1034 58.8031 20.7506 55.0671C20.1119 54.6848 20.3018 53.5901 21.0096 53.6075H21.0269Z" fill="#FFD441"/>
</g>
<defs>
<clipPath id="clip0_420_72325">
<rect width="97" height="146" fill="white"/>
</clipPath>
</defs>
</svg>
