<svg width="64" height="64" viewBox="0 0 64 64" fill="none" xmlns="http://www.w3.org/2000/svg">
<rect width="64" height="64" rx="32" fill="#DDF0FB"/>
<mask id="mask0_428_83847" style="mask-type:luminance" maskUnits="userSpaceOnUse" x="16" y="16" width="32" height="32">
<path d="M32 47C33.9702 47.0024 35.9214 46.6156 37.7416 45.8616C39.5618 45.1076 41.2151 44.0014 42.6065 42.6065C44.0014 41.2151 45.1076 39.5618 45.8616 37.7416C46.6156 35.9214 47.0024 33.9702 47 32C47.0024 30.0298 46.6156 28.0786 45.8616 26.2584C45.1076 24.4382 44.0014 22.7849 42.6065 21.3935C41.2151 19.9986 39.5618 18.8924 37.7416 18.1384C35.9214 17.3845 33.9702 16.9976 32 17C30.0298 16.9976 28.0786 17.3845 26.2584 18.1384C24.4382 18.8924 22.7849 19.9986 21.3935 21.3935C19.9986 22.7849 18.8924 24.4382 18.1384 26.2584C17.3845 28.0786 16.9976 30.0298 17 32C16.9976 33.9702 17.3845 35.9214 18.1384 37.7416C18.8924 39.5618 19.9986 41.2151 21.3935 42.6065C22.7849 44.0014 24.4382 45.1076 26.2584 45.8616C28.0786 46.6156 30.0298 47.0024 32 47Z" fill="white" stroke="white" stroke-width="2" stroke-linejoin="round"/>
<path d="M26 32L30.5 36.5L39.5 27.5" stroke="black" stroke-width="2" stroke-linecap="round" stroke-linejoin="round"/>
</mask>
<g mask="url(#mask0_428_83847)">
<path d="M14 14H50V50H14V14Z" fill="#374C92"/>
</g>
</svg>
