<svg width="20" height="20" viewBox="0 0 20 20" fill="none" xmlns="http://www.w3.org/2000/svg">
<path fill-rule="evenodd" clip-rule="evenodd" d="M15.4166 10.1781C15.4166 9.95705 15.3288 9.74508 15.1726 9.5888C15.0163 9.43252 14.8043 9.34473 14.5833 9.34473H4.16665C3.94563 9.34473 3.73367 9.43252 3.57739 9.5888C3.42111 9.74508 3.33331 9.95705 3.33331 10.1781C3.33331 10.3991 3.42111 10.611 3.57739 10.7673C3.73367 10.9236 3.94563 11.0114 4.16665 11.0114H14.5833C14.8043 11.0114 15.0163 10.9236 15.1726 10.7673C15.3288 10.611 15.4166 10.3991 15.4166 10.1781Z" fill="currentcolor"/>
<path fill-rule="evenodd" clip-rule="evenodd" d="M16.6667 10.1785C16.6666 9.95754 16.5788 9.74561 16.4225 9.58937L12.6725 5.83937C12.5956 5.75978 12.5037 5.69629 12.402 5.65262C12.3003 5.60894 12.191 5.58595 12.0803 5.58499C11.9697 5.58403 11.8599 5.60512 11.7575 5.64702C11.6551 5.68892 11.5621 5.75079 11.4838 5.82904C11.4056 5.90728 11.3437 6.00033 11.3018 6.10274C11.2599 6.20515 11.2388 6.31489 11.2398 6.42554C11.2407 6.53618 11.2637 6.64553 11.3074 6.7472C11.3511 6.84887 11.4146 6.94083 11.4942 7.0177L14.655 10.1785L11.4942 13.3394C11.3378 13.4956 11.2499 13.7076 11.2498 13.9287C11.2497 14.1497 11.3375 14.3617 11.4937 14.5181C11.65 14.6745 11.862 14.7624 12.083 14.7625C12.3041 14.7625 12.5161 14.6748 12.6725 14.5185L16.4225 10.7685C16.5 10.6911 16.5614 10.5991 16.6033 10.4978C16.6452 10.3966 16.6667 10.2881 16.6667 10.1785Z" fill="currentcolor"/>
</svg>
