<svg width="123" height="24" viewBox="0 0 123 24" fill="none" xmlns="http://www.w3.org/2000/svg">
<path d="M12.0245 3.08156C12.1741 2.6209 12.8259 2.62091 12.9755 3.08156L14.4941 7.75532C14.6949 8.37336 15.2709 8.7918 15.9207 8.7918H20.835C21.3194 8.7918 21.5207 9.4116 21.1289 9.6963L17.1531 12.5848C16.6274 12.9668 16.4074 13.6439 16.6082 14.2619L18.1268 18.9357C18.2765 19.3963 17.7493 19.7794 17.3574 19.4947L13.3817 16.6061C12.8559 16.2242 12.1441 16.2242 11.6183 16.6061L7.64258 19.4947C7.25073 19.7794 6.72349 19.3963 6.87316 18.9357L8.39176 14.2619C8.59257 13.6439 8.37258 12.9668 7.84685 12.5848L3.87111 9.6963C3.47926 9.4116 3.68064 8.7918 4.16501 8.7918H9.07929C9.72913 8.7918 10.3051 8.37336 10.5059 7.75532L12.0245 3.08156Z" stroke="#43B94B"/>
<path d="M36.477 3.22764C36.6225 2.75846 37.2866 2.75846 37.4321 3.22764L38.8304 7.73614C39.0251 8.3639 39.6058 8.7918 40.2631 8.7918H44.8836C45.3623 8.7918 45.5673 9.39972 45.1864 9.68966L41.3695 12.5948C40.8681 12.9765 40.6587 13.6309 40.8453 14.2327L42.2842 18.8719C42.4283 19.3366 41.891 19.7126 41.5038 19.4178L37.863 16.6467C37.3263 16.2382 36.5828 16.2382 36.0461 16.6467L32.4053 19.4178C32.0181 19.7126 31.4808 19.3366 31.6249 18.8719L33.0637 14.2327C33.2504 13.6309 33.041 12.9765 32.5396 12.5948L28.7227 9.68966C28.3418 9.39972 28.5468 8.7918 29.0255 8.7918H33.646C34.3033 8.7918 34.884 8.3639 35.0787 7.73614L36.477 3.22764Z" stroke="#43B94B"/>
<path d="M60.9337 3.08156C61.0833 2.6209 61.735 2.62091 61.8847 3.08156L63.4033 7.75532C63.6041 8.37336 64.1801 8.7918 64.8299 8.7918H69.7442C70.2285 8.7918 70.4299 9.4116 70.0381 9.6963L66.0623 12.5848C65.5366 12.9668 65.3166 13.6439 65.5174 14.2619L67.036 18.9357C67.1857 19.3963 66.6585 19.7794 66.2666 19.4947L62.2909 16.6061C61.7651 16.2242 61.0532 16.2242 60.5275 16.6061L56.5518 19.4947C56.1599 19.7794 55.6327 19.3963 55.7823 18.9357L57.3009 14.2619C57.5017 13.6439 57.2818 12.9668 56.756 12.5848L52.7803 9.6963C52.3884 9.4116 52.5898 8.7918 53.0742 8.7918H57.9885C58.6383 8.7918 59.2142 8.37336 59.4151 7.75532L60.9337 3.08156Z" stroke="#43B94B"/>
<path d="M85.3862 3.22764C85.5317 2.75846 86.1958 2.75846 86.3413 3.22764L87.7396 7.73614C87.9343 8.3639 88.515 8.7918 89.1723 8.7918H93.7927C94.2714 8.7918 94.4765 9.39972 94.0956 9.68966L90.2787 12.5948C89.7773 12.9765 89.5679 13.6309 89.7545 14.2327L91.1933 18.8719C91.3375 19.3366 90.8002 19.7126 90.413 19.4178L86.7722 16.6467C86.2355 16.2382 85.492 16.2382 84.9552 16.6467L81.3145 19.4178C80.9273 19.7126 80.3899 19.3366 80.5341 18.8719L81.9729 14.2327C82.1596 13.6309 81.9502 12.9765 81.4487 12.5948L77.6319 9.68966C77.251 9.39972 77.456 8.7918 77.9347 8.7918H82.5552C83.2124 8.7918 83.7932 8.3639 83.9879 7.73614L85.3862 3.22764Z" stroke="#43B94B"/>
<path d="M109.843 3.08156C109.993 2.6209 110.644 2.62091 110.794 3.08156L112.312 7.75532C112.513 8.37336 113.089 8.7918 113.739 8.7918H118.653C119.138 8.7918 119.339 9.4116 118.947 9.6963L114.972 12.5848C114.446 12.9668 114.226 13.6439 114.427 14.2619L115.945 18.9357C116.095 19.3963 115.568 19.7794 115.176 19.4947L111.2 16.6061C110.674 16.2242 109.962 16.2242 109.437 16.6061L105.461 19.4947C105.069 19.7794 104.542 19.3963 104.692 18.9357L106.21 14.2619C106.411 13.6439 106.191 12.9668 105.665 12.5848L101.689 9.6963C101.298 9.4116 101.499 8.7918 101.983 8.7918H106.898C107.547 8.7918 108.123 8.37336 108.324 7.75532L109.843 3.08156Z" stroke="#43B94B"/>
</svg>
