<svg width="46" height="46" viewBox="0 0 46 46" fill="none" xmlns="http://www.w3.org/2000/svg">
<rect width="46" height="46" rx="12" fill="white"/>
<path d="M23 8.06006C14.75 8.06006 8 14.7951 8 23.0901C8 30.5901 13.49 36.8151 20.66 37.9401V27.4401H16.85V23.0901H20.66V19.7751C20.66 16.0101 22.895 13.9401 26.33 13.9401C27.965 13.9401 29.675 14.2251 29.675 14.2251V17.9301H27.785C25.925 17.9301 25.34 19.0851 25.34 20.2701V23.0901H29.51L28.835 27.4401H25.34V37.9401C28.8747 37.3818 32.0933 35.5783 34.4149 32.8551C36.7365 30.132 38.008 26.6685 38 23.0901C38 14.7951 31.25 8.06006 23 8.06006Z" fill="#602B7A"/>
</svg>
