<svg width="19" height="19" viewBox="0 0 19 19" fill="none" xmlns="http://www.w3.org/2000/svg">
<path d="M8.90861 1.07953C9.19964 0.141165 10.5278 0.141165 10.8188 1.07952L12.2172 5.58803C12.347 6.00654 12.7341 6.2918 13.1723 6.2918H17.7927C18.7502 6.2918 19.1602 7.50765 18.3984 8.08752L14.5815 10.9927C14.2472 11.2471 14.1076 11.6834 14.2321 12.0846L15.6709 16.7237C15.9592 17.6533 14.8846 18.4052 14.1101 17.8157L10.4694 15.0446C10.1115 14.7722 9.61591 14.7722 9.25807 15.0446L5.61732 17.8157C4.84289 18.4052 3.76824 17.6533 4.05654 16.7237L5.49537 12.0846C5.61982 11.6834 5.4802 11.2471 5.14591 10.9927L1.32906 8.08752C0.567216 7.50765 0.977296 6.2918 1.93472 6.2918H6.55518C6.99335 6.2918 7.38049 6.00653 7.51029 5.58803L8.90861 1.07953Z" fill="#43B94B"/>
</svg>
