<svg width="20" height="20" viewBox="0 0 20 20" fill="none" xmlns="http://www.w3.org/2000/svg">
<path d="M5.00033 11.4584C5.80574 11.4584 6.45866 10.8055 6.45866 10.0001C6.45866 9.19467 5.80574 8.54175 5.00033 8.54175C4.19491 8.54175 3.54199 9.19467 3.54199 10.0001C3.54199 10.8055 4.19491 11.4584 5.00033 11.4584Z" fill="#95C11F"/>
<path d="M10.0003 11.4584C10.8057 11.4584 11.4587 10.8055 11.4587 10.0001C11.4587 9.19467 10.8057 8.54175 10.0003 8.54175C9.19491 8.54175 8.54199 9.19467 8.54199 10.0001C8.54199 10.8055 9.19491 11.4584 10.0003 11.4584Z" fill="#95C11F"/>
<path d="M15.0003 11.4584C15.8057 11.4584 16.4587 10.8055 16.4587 10.0001C16.4587 9.19467 15.8057 8.54175 15.0003 8.54175C14.1949 8.54175 13.542 9.19467 13.542 10.0001C13.542 10.8055 14.1949 11.4584 15.0003 11.4584Z" fill="#95C11F"/>
</svg>
