<svg width="25" height="25" viewBox="0 0 25 25" fill="none" xmlns="http://www.w3.org/2000/svg">
<path fill-rule="evenodd" clip-rule="evenodd" d="M5.72915 12.2772C5.72915 12.5534 5.83889 12.8184 6.03424 13.0138C6.22959 13.2091 6.49454 13.3188 6.77081 13.3188L19.7916 13.3188C20.0679 13.3188 20.3329 13.2091 20.5282 13.0138C20.7236 12.8184 20.8333 12.5534 20.8333 12.2772C20.8333 12.0009 20.7236 11.736 20.5282 11.5406C20.3329 11.3453 20.0679 11.2355 19.7916 11.2355L6.77081 11.2355C6.49454 11.2355 6.22959 11.3453 6.03424 11.5406C5.83889 11.736 5.72915 12.0009 5.72915 12.2772Z"/>
<path fill-rule="evenodd" clip-rule="evenodd" d="M4.16668 12.2771C4.16674 12.5533 4.27653 12.8182 4.47189 13.0135L9.15939 17.701C9.25548 17.8005 9.37042 17.8799 9.49751 17.9345C9.6246 17.9891 9.76129 18.0178 9.8996 18.019C10.0379 18.0202 10.1751 17.9938 10.3031 17.9415C10.4311 17.8891 10.5474 17.8118 10.6452 17.7139C10.743 17.6161 10.8204 17.4998 10.8727 17.3718C10.9251 17.2438 10.9515 17.1066 10.9503 16.9683C10.9491 16.83 10.9203 16.6933 10.8657 16.5662C10.8112 16.4392 10.7318 16.3242 10.6323 16.2281L6.68127 12.2771L10.6323 8.32603C10.8278 8.13071 10.9376 7.86575 10.9377 7.58943C10.9378 7.3131 10.8282 7.04806 10.6328 6.8526C10.4375 6.65714 10.1725 6.54728 9.89622 6.54718C9.6199 6.54708 9.35485 6.65675 9.15939 6.85208L4.47189 11.5396C4.37503 11.6364 4.29822 11.7514 4.24585 11.8779C4.19348 12.0045 4.16658 12.1401 4.16668 12.2771Z"/>
</svg>
