<svg width="16" height="16" viewBox="0 0 16 16" fill="none" xmlns="http://www.w3.org/2000/svg">
<path d="M11.9994 9.14286C12.4541 9.14286 12.8901 9.32347 13.2116 9.64496C13.5331 9.96645 13.7137 10.4025 13.7137 10.8571V11.2657C13.7137 13.3097 11.308 14.8571 7.99944 14.8571C4.69087 14.8571 2.28516 13.3903 2.28516 11.2657V10.8571C2.28516 10.4025 2.46577 9.96645 2.78726 9.64496C3.10875 9.32347 3.54479 9.14286 3.99944 9.14286H11.9994ZM7.99944 1.14286C8.44969 1.14286 8.89553 1.23154 9.3115 1.40384C9.72747 1.57615 10.1054 1.82869 10.4238 2.14707C10.7422 2.46544 10.9947 2.8434 11.167 3.25937C11.3393 3.67535 11.428 4.12119 11.428 4.57143C11.428 5.02168 11.3393 5.46752 11.167 5.88349C10.9947 6.29946 10.7422 6.67743 10.4238 6.9958C10.1054 7.31417 9.72747 7.56672 9.3115 7.73902C8.89553 7.91132 8.44969 8 7.99944 8C7.09013 8 6.21806 7.63878 5.57508 6.9958C4.93209 6.35282 4.57087 5.48075 4.57087 4.57143C4.57087 3.66212 4.93209 2.79005 5.57508 2.14707C6.21806 1.50408 7.09013 1.14286 7.99944 1.14286Z" fill="#2F2535"/>
</svg>
