<svg width="40" height="40" viewBox="0 0 40 40" fill="none" xmlns="http://www.w3.org/2000/svg">
<rect width="40" height="40" rx="8" fill="#602B7A"/>
<path d="M20 15.9856C17.5006 15.9856 15.4856 18.02 15.4856 20.5C15.4856 22.98 17.52 25.0144 20 25.0144C22.48 25.0144 24.5144 22.98 24.5144 20.5C24.5144 18.02 22.48 15.9856 20 15.9856ZM33.5625 20.5C33.5625 18.6206 33.5625 16.78 33.4656 14.9006C33.3687 12.7306 32.865 10.7931 31.2762 9.22375C29.6875 7.635 27.7694 7.13125 25.5994 7.03437C23.72 6.9375 21.8794 6.9375 20 6.9375C18.1206 6.9375 16.28 6.9375 14.4006 7.03437C12.2306 7.13125 10.2931 7.635 8.72375 9.22375C7.135 10.8125 6.63125 12.7306 6.53437 14.9006C6.4375 16.78 6.4375 18.6206 6.4375 20.5C6.4375 22.3794 6.4375 24.22 6.53437 26.0994C6.63125 28.2694 7.135 30.2069 8.72375 31.7762C10.3125 33.365 12.2306 33.8687 14.4006 33.9656C16.28 34.0625 18.1206 34.0625 20 34.0625C21.8794 34.0625 23.72 34.0625 25.5994 33.9656C27.7694 33.8687 29.7069 33.365 31.2762 31.7762C32.865 30.1875 33.3687 28.2694 33.4656 26.0994C33.5819 24.2394 33.5625 22.3794 33.5625 20.5ZM20 27.4556C16.1444 27.4556 13.0444 24.3556 13.0444 20.5C13.0444 16.6444 16.1444 13.5444 20 13.5444C23.8556 13.5444 26.9556 16.6444 26.9556 20.5C26.9556 24.3556 23.8556 27.4556 20 27.4556ZM27.2462 14.8812C26.355 14.8812 25.6187 14.1644 25.6187 13.2538C25.6187 12.3431 26.3356 11.6263 27.2462 11.6263C28.1569 11.6263 28.8737 12.3431 28.8737 13.2538C28.8787 13.466 28.8399 13.6769 28.7599 13.8736C28.6799 14.0702 28.5604 14.2483 28.4087 14.3969C28.2602 14.5485 28.0821 14.6681 27.8855 14.748C27.6888 14.828 27.4778 14.8668 27.2656 14.8619L27.2462 14.8812Z" fill="white"/>
</svg>
