<svg xmlns="http://www.w3.org/2000/svg" xmlns:xlink="http://www.w3.org/1999/xlink"><defs>
<radialGradient id="paint0_radial_2392_245" cx="0" cy="0" r="1" gradientUnits="userSpaceOnUse" gradientTransform="translate(7.78125 22.3864) rotate(-90) scale(17.8393 16.592)">
<stop stop-color="#FFDD55"/>
<stop offset="0.1" stop-color="#FFDD55"/>
<stop offset="0.5" stop-color="#FF543E"/>
<stop offset="1" stop-color="#C837AB"/>
</radialGradient>
<radialGradient id="paint1_radial_2392_245" cx="0" cy="0" r="1" gradientUnits="userSpaceOnUse" gradientTransform="translate(-0.0150599 4.29667) rotate(78.68) scale(7.97428 32.8703)">
<stop stop-color="#3771C8"/>
<stop offset="0.128" stop-color="#3771C8"/>
<stop offset="1" stop-color="#6600FF" stop-opacity="0"/>
</radialGradient>
</defs><symbol id="Facebook" viewBox="0 0 46 46">
<rect width="46" height="46" rx="12" fill="white"/>
<path d="M23 8.06006C14.75 8.06006 8 14.7951 8 23.0901C8 30.5901 13.49 36.8151 20.66 37.9401V27.4401H16.85V23.0901H20.66V19.7751C20.66 16.0101 22.895 13.9401 26.33 13.9401C27.965 13.9401 29.675 14.2251 29.675 14.2251V17.9301H27.785C25.925 17.9301 25.34 19.0851 25.34 20.2701V23.0901H29.51L28.835 27.4401H25.34V37.9401C28.8747 37.3818 32.0933 35.5783 34.4149 32.8551C36.7365 30.132 38.008 26.6685 38 23.0901C38 14.7951 31.25 8.06006 23 8.06006Z" fill="#602B7A"/>
</symbol><symbol id="Instagram" viewBox="0 0 46 46">
<rect width="46" height="46" rx="12" fill="white"/>
<path d="M23 17.7575C20.0975 17.7575 17.7575 20.12 17.7575 23C17.7575 25.88 20.12 28.2425 23 28.2425C25.88 28.2425 28.2425 25.88 28.2425 23C28.2425 20.12 25.88 17.7575 23 17.7575ZM38.75 23C38.75 20.8175 38.75 18.68 38.6375 16.4975C38.525 13.9775 37.94 11.7275 36.095 9.905C34.25 8.06 32.0225 7.475 29.5025 7.3625C27.32 7.25 25.1825 7.25 23 7.25C20.8175 7.25 18.68 7.25 16.4975 7.3625C13.9775 7.475 11.7275 8.06 9.905 9.905C8.06 11.75 7.475 13.9775 7.3625 16.4975C7.25 18.68 7.25 20.8175 7.25 23C7.25 25.1825 7.25 27.32 7.3625 29.5025C7.475 32.0225 8.06 34.2725 9.905 36.095C11.75 37.94 13.9775 38.525 16.4975 38.6375C18.68 38.75 20.8175 38.75 23 38.75C25.1825 38.75 27.32 38.75 29.5025 38.6375C32.0225 38.525 34.2725 37.94 36.095 36.095C37.94 34.25 38.525 32.0225 38.6375 29.5025C38.7725 27.3425 38.75 25.1825 38.75 23ZM23 31.0775C18.5225 31.0775 14.9225 27.4775 14.9225 23C14.9225 18.5225 18.5225 14.9225 23 14.9225C27.4775 14.9225 31.0775 18.5225 31.0775 23C31.0775 27.4775 27.4775 31.0775 23 31.0775ZM31.415 16.475C30.38 16.475 29.525 15.6425 29.525 14.585C29.525 13.5275 30.3575 12.695 31.415 12.695C32.4725 12.695 33.305 13.5275 33.305 14.585C33.3107 14.8315 33.2657 15.0765 33.1728 15.3048C33.0799 15.5332 32.9411 15.74 32.765 15.9125C32.5925 16.0886 32.3857 16.2274 32.1573 16.3203C31.929 16.4132 31.684 16.4582 31.4375 16.4525L31.415 16.475Z" fill="#602B7A"/>
</symbol><symbol id="arrow-agile" viewBox="0 0 24 24">
<mask id="mask0_478_1883" style="mask-type:alpha" maskUnits="userSpaceOnUse" x="0" y="0" width="24" height="24">
<rect x="24" width="24" height="24" transform="rotate(90 24 0)" fill="#D9D9D9"/>
</mask>
<g mask="url(#mask0_478_1883)">
<path d="M2 8.025L3.775 6.25L12 14.475L20.225 6.25L22 8.025L12 18.025L2 8.025Z" fill="#1C1B1F"/>
</g>
</symbol><symbol id="arrow-right" viewBox="0 0 20 20">
<path fill-rule="evenodd" clip-rule="evenodd" d="M15.4166 10.1781C15.4166 9.95705 15.3288 9.74508 15.1726 9.5888C15.0163 9.43252 14.8043 9.34473 14.5833 9.34473H4.16665C3.94563 9.34473 3.73367 9.43252 3.57739 9.5888C3.42111 9.74508 3.33331 9.95705 3.33331 10.1781C3.33331 10.3991 3.42111 10.611 3.57739 10.7673C3.73367 10.9236 3.94563 11.0114 4.16665 11.0114H14.5833C14.8043 11.0114 15.0163 10.9236 15.1726 10.7673C15.3288 10.611 15.4166 10.3991 15.4166 10.1781Z" fill="currentcolor"/>
<path fill-rule="evenodd" clip-rule="evenodd" d="M16.6667 10.1785C16.6666 9.95754 16.5788 9.74561 16.4225 9.58937L12.6725 5.83937C12.5956 5.75978 12.5037 5.69629 12.402 5.65262C12.3003 5.60894 12.191 5.58595 12.0803 5.58499C11.9697 5.58403 11.8599 5.60512 11.7575 5.64702C11.6551 5.68892 11.5621 5.75079 11.4838 5.82904C11.4056 5.90728 11.3437 6.00033 11.3018 6.10274C11.2599 6.20515 11.2388 6.31489 11.2398 6.42554C11.2407 6.53618 11.2637 6.64553 11.3074 6.7472C11.3511 6.84887 11.4146 6.94083 11.4942 7.0177L14.655 10.1785L11.4942 13.3394C11.3378 13.4956 11.2499 13.7076 11.2498 13.9287C11.2497 14.1497 11.3375 14.3617 11.4937 14.5181C11.65 14.6745 11.862 14.7624 12.083 14.7625C12.3041 14.7625 12.5161 14.6748 12.6725 14.5185L16.4225 10.7685C16.5 10.6911 16.5614 10.5991 16.6033 10.4978C16.6452 10.3966 16.6667 10.2881 16.6667 10.1785Z" fill="currentcolor"/>
</symbol><symbol id="close" viewBox="0 0 30 30">
<path d="M8.16291 6.83709C7.7968 6.47097 7.2032 6.47097 6.83709 6.83709C6.47097 7.2032 6.47097 7.7968 6.83709 8.16291L13.6742 15L6.83709 21.8371C6.47097 22.2032 6.47097 22.7968 6.83709 23.1629C7.2032 23.529 7.7968 23.529 8.16291 23.1629L15 16.3258L21.8371 23.1629C22.2032 23.529 22.7968 23.529 23.1629 23.1629C23.529 22.7968 23.529 22.2032 23.1629 21.8371L16.3258 15L23.1629 8.16291C23.529 7.7968 23.529 7.2032 23.1629 6.83709C22.7968 6.47097 22.2032 6.47097 21.8371 6.83709L15 13.6742L8.16291 6.83709Z" fill="currentColor"/>
</symbol><symbol id="empty-stars" viewBox="0 0 123 24">
<path d="M12.0245 3.08156C12.1741 2.6209 12.8259 2.62091 12.9755 3.08156L14.4941 7.75532C14.6949 8.37336 15.2709 8.7918 15.9207 8.7918H20.835C21.3194 8.7918 21.5207 9.4116 21.1289 9.6963L17.1531 12.5848C16.6274 12.9668 16.4074 13.6439 16.6082 14.2619L18.1268 18.9357C18.2765 19.3963 17.7493 19.7794 17.3574 19.4947L13.3817 16.6061C12.8559 16.2242 12.1441 16.2242 11.6183 16.6061L7.64258 19.4947C7.25073 19.7794 6.72349 19.3963 6.87316 18.9357L8.39176 14.2619C8.59257 13.6439 8.37258 12.9668 7.84685 12.5848L3.87111 9.6963C3.47926 9.4116 3.68064 8.7918 4.16501 8.7918H9.07929C9.72913 8.7918 10.3051 8.37336 10.5059 7.75532L12.0245 3.08156Z" stroke="#43B94B"/>
<path d="M36.477 3.22764C36.6225 2.75846 37.2866 2.75846 37.4321 3.22764L38.8304 7.73614C39.0251 8.3639 39.6058 8.7918 40.2631 8.7918H44.8836C45.3623 8.7918 45.5673 9.39972 45.1864 9.68966L41.3695 12.5948C40.8681 12.9765 40.6587 13.6309 40.8453 14.2327L42.2842 18.8719C42.4283 19.3366 41.891 19.7126 41.5038 19.4178L37.863 16.6467C37.3263 16.2382 36.5828 16.2382 36.0461 16.6467L32.4053 19.4178C32.0181 19.7126 31.4808 19.3366 31.6249 18.8719L33.0637 14.2327C33.2504 13.6309 33.041 12.9765 32.5396 12.5948L28.7227 9.68966C28.3418 9.39972 28.5468 8.7918 29.0255 8.7918H33.646C34.3033 8.7918 34.884 8.3639 35.0787 7.73614L36.477 3.22764Z" stroke="#43B94B"/>
<path d="M60.9337 3.08156C61.0833 2.6209 61.735 2.62091 61.8847 3.08156L63.4033 7.75532C63.6041 8.37336 64.1801 8.7918 64.8299 8.7918H69.7442C70.2285 8.7918 70.4299 9.4116 70.0381 9.6963L66.0623 12.5848C65.5366 12.9668 65.3166 13.6439 65.5174 14.2619L67.036 18.9357C67.1857 19.3963 66.6585 19.7794 66.2666 19.4947L62.2909 16.6061C61.7651 16.2242 61.0532 16.2242 60.5275 16.6061L56.5518 19.4947C56.1599 19.7794 55.6327 19.3963 55.7823 18.9357L57.3009 14.2619C57.5017 13.6439 57.2818 12.9668 56.756 12.5848L52.7803 9.6963C52.3884 9.4116 52.5898 8.7918 53.0742 8.7918H57.9885C58.6383 8.7918 59.2142 8.37336 59.4151 7.75532L60.9337 3.08156Z" stroke="#43B94B"/>
<path d="M85.3862 3.22764C85.5317 2.75846 86.1958 2.75846 86.3413 3.22764L87.7396 7.73614C87.9343 8.3639 88.515 8.7918 89.1723 8.7918H93.7927C94.2714 8.7918 94.4765 9.39972 94.0956 9.68966L90.2787 12.5948C89.7773 12.9765 89.5679 13.6309 89.7545 14.2327L91.1933 18.8719C91.3375 19.3366 90.8002 19.7126 90.413 19.4178L86.7722 16.6467C86.2355 16.2382 85.492 16.2382 84.9552 16.6467L81.3145 19.4178C80.9273 19.7126 80.3899 19.3366 80.5341 18.8719L81.9729 14.2327C82.1596 13.6309 81.9502 12.9765 81.4487 12.5948L77.6319 9.68966C77.251 9.39972 77.456 8.7918 77.9347 8.7918H82.5552C83.2124 8.7918 83.7932 8.3639 83.9879 7.73614L85.3862 3.22764Z" stroke="#43B94B"/>
<path d="M109.843 3.08156C109.993 2.6209 110.644 2.62091 110.794 3.08156L112.312 7.75532C112.513 8.37336 113.089 8.7918 113.739 8.7918H118.653C119.138 8.7918 119.339 9.4116 118.947 9.6963L114.972 12.5848C114.446 12.9668 114.226 13.6439 114.427 14.2619L115.945 18.9357C116.095 19.3963 115.568 19.7794 115.176 19.4947L111.2 16.6061C110.674 16.2242 109.962 16.2242 109.437 16.6061L105.461 19.4947C105.069 19.7794 104.542 19.3963 104.692 18.9357L106.21 14.2619C106.411 13.6439 106.191 12.9668 105.665 12.5848L101.689 9.6963C101.298 9.4116 101.499 8.7918 101.983 8.7918H106.898C107.547 8.7918 108.123 8.37336 108.324 7.75532L109.843 3.08156Z" stroke="#43B94B"/>
</symbol><symbol id="facebook-color" viewBox="0 0 24 24">
<rect width="24" height="24" rx="6" fill="white"/>
<path d="M21 12C21 7.02947 16.9705 3 12 3C7.02947 3 3 7.02947 3 12C3 16.4921 6.29119 20.2155 10.5938 20.8907V14.6016H8.30859V12H10.5938V10.0172C10.5938 7.76156 11.9374 6.51562 13.9932 6.51562C14.9779 6.51562 16.0078 6.69141 16.0078 6.69141V8.90625H14.873C13.7549 8.90625 13.4062 9.60002 13.4062 10.3118V12H15.9023L15.5033 14.6016H13.4062V20.8907C17.7088 20.2155 21 16.4922 21 12Z" fill="#1877F2"/>
<path d="M15.5033 14.6016L15.9023 12H13.4062V10.3118C13.4062 9.59995 13.7549 8.90625 14.873 8.90625H16.0078V6.69141C16.0078 6.69141 14.9779 6.51562 13.9931 6.51562C11.9374 6.51562 10.5938 7.76156 10.5938 10.0172V12H8.30859V14.6016H10.5938V20.8907C11.059 20.9636 11.5291 21.0001 12 21C12.4709 21.0001 12.941 20.9636 13.4062 20.8907V14.6016H15.5033Z" fill="white"/>
</symbol><symbol id="full-star" viewBox="0 0 19 19">
<path d="M8.90861 1.07953C9.19964 0.141165 10.5278 0.141165 10.8188 1.07952L12.2172 5.58803C12.347 6.00654 12.7341 6.2918 13.1723 6.2918H17.7927C18.7502 6.2918 19.1602 7.50765 18.3984 8.08752L14.5815 10.9927C14.2472 11.2471 14.1076 11.6834 14.2321 12.0846L15.6709 16.7237C15.9592 17.6533 14.8846 18.4052 14.1101 17.8157L10.4694 15.0446C10.1115 14.7722 9.61591 14.7722 9.25807 15.0446L5.61732 17.8157C4.84289 18.4052 3.76824 17.6533 4.05654 16.7237L5.49537 12.0846C5.61982 11.6834 5.4802 11.2471 5.14591 10.9927L1.32906 8.08752C0.567216 7.50765 0.977296 6.2918 1.93472 6.2918H6.55518C6.99335 6.2918 7.38049 6.00653 7.51029 5.58803L8.90861 1.07953Z" fill="#43B94B"/>
</symbol><symbol id="icon-arrow-left" viewBox="0 0 25 25">
<path fill-rule="evenodd" clip-rule="evenodd" d="M5.72915 12.2772C5.72915 12.5534 5.83889 12.8184 6.03424 13.0138C6.22959 13.2091 6.49454 13.3188 6.77081 13.3188L19.7916 13.3188C20.0679 13.3188 20.3329 13.2091 20.5282 13.0138C20.7236 12.8184 20.8333 12.5534 20.8333 12.2772C20.8333 12.0009 20.7236 11.736 20.5282 11.5406C20.3329 11.3453 20.0679 11.2355 19.7916 11.2355L6.77081 11.2355C6.49454 11.2355 6.22959 11.3453 6.03424 11.5406C5.83889 11.736 5.72915 12.0009 5.72915 12.2772Z" fill="#29235C"/>
<path fill-rule="evenodd" clip-rule="evenodd" d="M4.16668 12.2771C4.16674 12.5533 4.27653 12.8182 4.47189 13.0135L9.15939 17.701C9.25548 17.8005 9.37042 17.8799 9.49751 17.9345C9.6246 17.9891 9.76129 18.0178 9.8996 18.019C10.0379 18.0202 10.1751 17.9938 10.3031 17.9415C10.4311 17.8891 10.5474 17.8118 10.6452 17.7139C10.743 17.6161 10.8204 17.4998 10.8727 17.3718C10.9251 17.2438 10.9515 17.1066 10.9503 16.9683C10.9491 16.83 10.9203 16.6933 10.8657 16.5662C10.8112 16.4392 10.7318 16.3242 10.6323 16.2281L6.68127 12.2771L10.6323 8.32603C10.8278 8.13071 10.9376 7.86575 10.9377 7.58943C10.9378 7.3131 10.8282 7.04806 10.6328 6.8526C10.4375 6.65714 10.1725 6.54728 9.89622 6.54718C9.6199 6.54708 9.35485 6.65675 9.15939 6.85208L4.47189 11.5396C4.37503 11.6364 4.29822 11.7514 4.24585 11.8779C4.19348 12.0045 4.16658 12.1401 4.16668 12.2771Z" fill="#29235C"/>
</symbol><symbol id="icon-arrow-right" viewBox="0 0 25 25">
<path fill-rule="evenodd" clip-rule="evenodd" d="M19.2708 12.7228C19.2708 12.4466 19.161 12.1816 18.9657 11.9862C18.7703 11.7909 18.5054 11.6812 18.2291 11.6812L5.20829 11.6812C4.93203 11.6812 4.66707 11.7909 4.47172 11.9862C4.27637 12.1816 4.16663 12.4466 4.16663 12.7228C4.16663 12.9991 4.27637 13.264 4.47172 13.4594C4.66707 13.6547 4.93203 13.7645 5.20829 13.7645L18.2291 13.7645C18.5054 13.7645 18.7703 13.6547 18.9657 13.4594C19.161 13.264 19.2708 12.9991 19.2708 12.7228Z" fill="#29235C"/>
<path fill-rule="evenodd" clip-rule="evenodd" d="M20.8333 12.7229C20.8333 12.4467 20.7235 12.1818 20.5281 11.9865L15.8406 7.29897C15.7445 7.19948 15.6296 7.12012 15.5025 7.06553C15.3754 7.01093 15.2387 6.9822 15.1004 6.981C14.9621 6.97979 14.8249 7.00615 14.6969 7.05853C14.5689 7.1109 14.4526 7.18825 14.3548 7.28605C14.257 7.38386 14.1796 7.50016 14.1273 7.62818C14.0749 7.7562 14.0485 7.89336 14.0497 8.03168C14.0509 8.16999 14.0797 8.30667 14.1343 8.43376C14.1888 8.56085 14.2682 8.67579 14.3677 8.77188L18.3187 12.7229L14.3677 16.674C14.1722 16.8693 14.0624 17.1343 14.0623 17.4106C14.0622 17.6869 14.1718 17.9519 14.3672 18.1474C14.5625 18.3429 14.8275 18.4527 15.1038 18.4528C15.3801 18.4529 15.6451 18.3432 15.8406 18.1479L20.5281 13.4604C20.625 13.3636 20.7018 13.2486 20.7542 13.1221C20.8065 12.9955 20.8334 12.8599 20.8333 12.7229Z" fill="#29235C"/>
</symbol><symbol id="icon-caret-down" viewBox="0 0 18 18">
<path d="M13.0121 6H4.98706C4.50706 6 4.24456 6.57 4.56706 6.93L8.57956 11.5125C8.80456 11.7675 9.20206 11.7675 9.42706 11.5125L13.4396 6.93C13.7546 6.57 13.4996 6 13.0196 6H13.0121Z" fill="#5F5F5F"/>
</symbol><symbol id="icon-email" viewBox="0 0 16 16">
<path d="M13.3334 2.66667H2.66671C1.93337 2.66667 1.33337 3.26667 1.33337 4V12C1.33337 12.7333 1.93337 13.3333 2.66671 13.3333H13.3334C14.0667 13.3333 14.6667 12.7333 14.6667 12V4C14.6667 3.26667 14.0667 2.66667 13.3334 2.66667ZM13.0667 5.5L8.70671 8.22667C8.27337 8.5 7.72671 8.5 7.29337 8.22667L2.93337 5.5C2.86653 5.46247 2.80799 5.41177 2.7613 5.35097C2.71461 5.29016 2.68075 5.22052 2.66176 5.14625C2.64277 5.07198 2.63904 4.99462 2.65081 4.91887C2.66258 4.84312 2.6896 4.77054 2.73023 4.70553C2.77086 4.64053 2.82426 4.58444 2.88719 4.54066C2.95013 4.49689 3.02129 4.46634 3.09637 4.45087C3.17145 4.43539 3.2489 4.43531 3.32401 4.45063C3.39912 4.46595 3.47035 4.49636 3.53337 4.54L8.00004 7.33333L12.4667 4.54C12.5297 4.49636 12.601 4.46595 12.6761 4.45063C12.7512 4.43531 12.8286 4.43539 12.9037 4.45087C12.9788 4.46634 13.05 4.49689 13.1129 4.54066C13.1758 4.58444 13.2292 4.64053 13.2699 4.70553C13.3105 4.77054 13.3375 4.84312 13.3493 4.91887C13.361 4.99462 13.3573 5.07198 13.3383 5.14625C13.3193 5.22052 13.2855 5.29016 13.2388 5.35097C13.1921 5.41177 13.1336 5.46247 13.0667 5.5Z" fill="white"/>
</symbol><symbol id="icon-location" viewBox="0 0 18 18">
<path d="M9.00007 1.5C5.69257 1.5 3.00007 4.1925 3.00007 7.5C2.97757 12.33 8.34007 16.2 8.56507 16.365C8.69257 16.455 8.85007 16.5075 9.00007 16.5075C9.15007 16.5075 9.30757 16.4625 9.43507 16.365C9.66007 16.2 15.0226 12.3375 15.0001 7.5C15.0001 4.1925 12.3076 1.5 9.00007 1.5ZM9.00007 10.5C7.34257 10.5 6.00007 9.1575 6.00007 7.5C6.00007 5.8425 7.34257 4.5 9.00007 4.5C10.6576 4.5 12.0001 5.8425 12.0001 7.5C12.0001 9.1575 10.6576 10.5 9.00007 10.5Z" fill="#602B7A"/>
</symbol><symbol id="icon-person" viewBox="0 0 16 16">
<path d="M11.9994 9.14286C12.4541 9.14286 12.8901 9.32347 13.2116 9.64496C13.5331 9.96645 13.7137 10.4025 13.7137 10.8571V11.2657C13.7137 13.3097 11.308 14.8571 7.99944 14.8571C4.69087 14.8571 2.28516 13.3903 2.28516 11.2657V10.8571C2.28516 10.4025 2.46577 9.96645 2.78726 9.64496C3.10875 9.32347 3.54479 9.14286 3.99944 9.14286H11.9994ZM7.99944 1.14286C8.44969 1.14286 8.89553 1.23154 9.3115 1.40384C9.72747 1.57615 10.1054 1.82869 10.4238 2.14707C10.7422 2.46544 10.9947 2.8434 11.167 3.25937C11.3393 3.67535 11.428 4.12119 11.428 4.57143C11.428 5.02168 11.3393 5.46752 11.167 5.88349C10.9947 6.29946 10.7422 6.67743 10.4238 6.9958C10.1054 7.31417 9.72747 7.56672 9.3115 7.73902C8.89553 7.91132 8.44969 8 7.99944 8C7.09013 8 6.21806 7.63878 5.57508 6.9958C4.93209 6.35282 4.57087 5.48075 4.57087 4.57143C4.57087 3.66212 4.93209 2.79005 5.57508 2.14707C6.21806 1.50408 7.09013 1.14286 7.99944 1.14286Z" fill="#2F2535"/>
</symbol><symbol id="icon-phone" viewBox="0 0 16 16">
<path d="M12.2187 15C11.6087 15 10.7519 14.7794 9.46873 14.0625C7.90842 13.1875 6.70155 12.3797 5.14967 10.8319C3.65342 9.33656 2.9253 8.36844 1.90623 6.51406C0.754983 4.42031 0.951233 3.32281 1.17061 2.85375C1.43186 2.29312 1.81748 1.95781 2.31592 1.625C2.59903 1.43951 2.89863 1.28051 3.21092 1.15C3.24217 1.13656 3.27123 1.12375 3.29717 1.11219C3.45186 1.0425 3.68623 0.937187 3.98311 1.04969C4.18123 1.12406 4.35811 1.27625 4.63498 1.54969C5.2028 2.10969 5.97873 3.35687 6.26498 3.96937C6.45717 4.38219 6.58436 4.65469 6.58467 4.96031C6.58467 5.31812 6.40467 5.59406 6.18623 5.89187C6.1453 5.94781 6.10467 6.00125 6.0653 6.05312C5.82748 6.36562 5.7753 6.45594 5.80967 6.61719C5.87936 6.94125 6.39905 7.90594 7.25311 8.75813C8.10717 9.61031 9.04405 10.0972 9.36936 10.1666C9.53748 10.2025 9.62967 10.1481 9.95217 9.90187C9.99842 9.86656 10.0459 9.83 10.0956 9.79344C10.4287 9.54563 10.6919 9.37031 11.0412 9.37031H11.0431C11.3472 9.37031 11.6075 9.50219 12.0387 9.71969C12.6012 10.0034 13.8859 10.7694 14.4494 11.3378C14.7234 11.6141 14.8762 11.7903 14.9509 11.9881C15.0634 12.2859 14.9575 12.5194 14.8884 12.6756C14.8769 12.7016 14.864 12.73 14.8506 12.7616C14.7191 13.0733 14.5591 13.3723 14.3728 13.6547C14.0406 14.1516 13.704 14.5363 13.1422 14.7978C12.8537 14.9343 12.5379 15.0034 12.2187 15Z" fill="white"/>
</symbol><symbol id="instagram-color" viewBox="0 0 24 24">
<rect width="24" height="24" rx="6" fill="white"/>
<path d="M16.7812 3H7.21875C4.8888 3 3 4.8888 3 7.21875V16.7812C3 19.1112 4.8888 21 7.21875 21H16.7812C19.1112 21 21 19.1112 21 16.7812V7.21875C21 4.8888 19.1112 3 16.7812 3Z" fill="url(#paint0_radial_2392_245)"/>
<path d="M16.7812 3H7.21875C4.8888 3 3 4.8888 3 7.21875V16.7812C3 19.1112 4.8888 21 7.21875 21H16.7812C19.1112 21 21 19.1112 21 16.7812V7.21875C21 4.8888 19.1112 3 16.7812 3Z" fill="url(#paint1_radial_2392_245)"/>
<path d="M12.0006 4.96875C10.0911 4.96875 9.85139 4.97712 9.10144 5.01122C8.35289 5.04553 7.84193 5.16401 7.39488 5.33789C6.93237 5.51747 6.54009 5.75773 6.1493 6.14866C5.75815 6.53953 5.51789 6.9318 5.33775 7.39411C5.16338 7.8413 5.04476 8.35247 5.01108 9.10066C4.97754 9.85069 4.96875 10.0905 4.96875 12.0001C4.96875 13.9097 4.97719 14.1486 5.01122 14.8986C5.04567 15.6471 5.16415 16.1581 5.33789 16.6051C5.51761 17.0676 5.75787 17.4599 6.1488 17.8507C6.53953 18.2419 6.9318 18.4827 7.39397 18.6622C7.84137 18.8361 8.3524 18.9546 9.1008 18.9889C9.85083 19.023 10.0903 19.0314 11.9998 19.0314C13.9095 19.0314 14.1485 19.023 14.8984 18.9889C15.647 18.9546 16.1585 18.8361 16.6059 18.6622C17.0682 18.4827 17.4599 18.2419 17.8506 17.8507C18.2417 17.4599 18.4819 17.0676 18.6621 16.6053C18.8349 16.1581 18.9536 15.647 18.9888 14.8987C19.0225 14.1488 19.0312 13.9097 19.0312 12.0001C19.0312 10.0905 19.0225 9.85083 18.9888 9.1008C18.9536 8.35226 18.8349 7.84137 18.6621 7.39432C18.4819 6.9318 18.2417 6.53953 17.8506 6.14866C17.4595 5.75759 17.0683 5.51733 16.6055 5.33796C16.1572 5.16401 15.646 5.04546 14.8974 5.01122C14.1474 4.97712 13.9086 4.96875 11.9985 4.96875H12.0006ZM11.3699 6.23585C11.5571 6.23557 11.766 6.23585 12.0006 6.23585C13.878 6.23585 14.1005 6.2426 14.8419 6.27628C15.5274 6.30764 15.8995 6.42218 16.1474 6.51844C16.4755 6.64584 16.7095 6.79821 16.9554 7.04437C17.2015 7.29047 17.3538 7.52482 17.4816 7.85297C17.5778 8.10047 17.6925 8.47256 17.7237 9.15811C17.7574 9.89934 17.7647 10.122 17.7647 11.9985C17.7647 13.875 17.7574 14.0976 17.7237 14.8388C17.6924 15.5243 17.5778 15.8964 17.4816 16.144C17.3542 16.4722 17.2015 16.7058 16.9554 16.9518C16.7093 17.1979 16.4757 17.3501 16.1474 17.4776C15.8998 17.5743 15.5274 17.6886 14.8419 17.7199C14.1007 17.7536 13.878 17.7609 12.0006 17.7609C10.1231 17.7609 9.90061 17.7536 9.15945 17.7199C8.4739 17.6883 8.1018 17.5737 7.85374 17.4775C7.52566 17.35 7.29124 17.1977 7.04515 16.9516C6.79905 16.7055 6.64676 16.4717 6.519 16.1434C6.42274 15.8959 6.30806 15.5238 6.27684 14.8382C6.24316 14.097 6.23641 13.8744 6.23641 11.9967C6.23641 10.119 6.24316 9.89759 6.27684 9.15635C6.3082 8.4708 6.42274 8.09871 6.519 7.85086C6.64648 7.52271 6.79905 7.28836 7.04522 7.04227C7.29138 6.79617 7.52566 6.6438 7.85381 6.51612C8.10166 6.41944 8.4739 6.30518 9.15945 6.27368C9.80808 6.24436 10.0594 6.23557 11.3699 6.23409V6.23585ZM15.7539 7.40332C15.2881 7.40332 14.9102 7.7809 14.9102 8.24679C14.9102 8.71261 15.2881 9.09054 15.7539 9.09054C16.2197 9.09054 16.5977 8.71261 16.5977 8.24679C16.5977 7.78097 16.2197 7.40304 15.7539 7.40304V7.40332ZM12.0006 8.38917C10.0066 8.38917 8.3898 10.0059 8.3898 12.0001C8.3898 13.9942 10.0066 15.6102 12.0006 15.6102C13.9948 15.6102 15.611 13.9942 15.611 12.0001C15.611 10.006 13.9946 8.38917 12.0005 8.38917H12.0006ZM12.0006 9.65627C13.295 9.65627 14.3444 10.7055 14.3444 12.0001C14.3444 13.2945 13.295 14.3439 12.0006 14.3439C10.7063 14.3439 9.65691 13.2945 9.65691 12.0001C9.65691 10.7055 10.7062 9.65627 12.0006 9.65627Z" fill="white"/>

</symbol><symbol id="star" viewBox="0 0 14 13">
<path d="M6.52447 0.463524C6.67415 0.00286841 7.32585 0.00286996 7.47553 0.463525L8.68386 4.18237C8.75079 4.38838 8.94277 4.52786 9.15938 4.52786H13.0696C13.554 4.52786 13.7554 5.14767 13.3635 5.43237L10.2001 7.73075C10.0248 7.85807 9.95149 8.08375 10.0184 8.28976L11.2268 12.0086C11.3764 12.4693 10.8492 12.8523 10.4573 12.5676L7.29389 10.2693C7.11865 10.1419 6.88135 10.1419 6.70611 10.2693L3.54267 12.5676C3.15081 12.8523 2.62357 12.4693 2.77325 12.0086L3.98157 8.28976C4.04851 8.08375 3.97518 7.85807 3.79994 7.73075L0.636495 5.43237C0.244639 5.14767 0.446028 4.52786 0.93039 4.52786H4.84062C5.05723 4.52786 5.24921 4.38838 5.31614 4.18237L6.52447 0.463524Z"/>
</symbol><symbol id="summary" viewBox="0 0 123 24">
<path d="M11.5489 2.92705C11.8483 2.00574 13.1517 2.00574 13.4511 2.92705L14.9697 7.60081C15.1035 8.01284 15.4875 8.2918 15.9207 8.2918H20.835C21.8037 8.2918 22.2065 9.53141 21.4228 10.1008L17.447 12.9894C17.0966 13.244 16.9499 13.6954 17.0838 14.1074L18.6024 18.7812C18.9017 19.7025 17.8472 20.4686 17.0635 19.8992L13.0878 17.0106C12.7373 16.756 12.2627 16.756 11.9122 17.0106L7.93648 19.8992C7.15276 20.4686 6.09828 19.7025 6.39763 18.7812L7.91623 14.1074C8.05011 13.6954 7.90345 13.244 7.55296 12.9894L3.57722 10.1008C2.79351 9.53141 3.19628 8.2918 4.16501 8.2918H9.07929C9.51252 8.2918 9.89647 8.01284 10.0303 7.60081L11.5489 2.92705Z" fill="#43B94B"/>
<path d="M35.9994 3.07953C36.2905 2.14117 37.6186 2.14116 37.9097 3.07952L39.308 7.58803C39.4378 8.00654 39.8249 8.2918 40.2631 8.2918H44.8836C45.841 8.2918 46.2511 9.50765 45.4892 10.0875L41.6724 12.9927C41.3381 13.2471 41.1985 13.6834 41.3229 14.0846L42.7617 18.7237C43.05 19.6533 41.9754 20.4052 41.201 19.8157L37.5602 17.0446C37.2024 16.7722 36.7067 16.7722 36.3489 17.0446L32.7081 19.8157C31.9337 20.4052 30.8591 19.6533 31.1474 18.7237L32.5862 14.0846C32.7106 13.6834 32.571 13.2471 32.2367 12.9927L28.4199 10.0875C27.658 9.50765 28.0681 8.2918 29.0255 8.2918H33.646C34.0842 8.2918 34.4713 8.00653 34.6011 7.58803L35.9994 3.07953Z" fill="#43B94B"/>
<path d="M60.4581 2.92705C60.7575 2.00574 62.0609 2.00574 62.3602 2.92705L63.8788 7.60081C64.0127 8.01284 64.3967 8.2918 64.8299 8.2918H69.7442C70.7129 8.2918 71.1157 9.53141 70.332 10.1008L66.3562 12.9894C66.0057 13.244 65.8591 13.6954 65.9929 14.1074L67.5115 18.7812C67.8109 19.7025 66.7564 20.4686 65.9727 19.8992L61.997 17.0106C61.6465 16.756 61.1719 16.756 60.8214 17.0106L56.8457 19.8992C56.0619 20.4686 55.0075 19.7025 55.3068 18.7812L56.8254 14.1074C56.9593 13.6954 56.8126 13.244 56.4621 12.9894L52.4864 10.1008C51.7027 9.53141 52.1055 8.2918 53.0742 8.2918H57.9885C58.4217 8.2918 58.8057 8.01284 58.9395 7.60081L60.4581 2.92705Z" fill="#43B94B"/>
<path d="M84.9086 3.07953C85.1996 2.14117 86.5278 2.14116 86.8188 3.07952L88.2172 7.58803C88.347 8.00654 88.7341 8.2918 89.1723 8.2918H93.7927C94.7502 8.2918 95.1602 9.50765 94.3984 10.0875L90.5815 12.9927C90.2472 13.2471 90.1076 13.6834 90.2321 14.0846L91.6709 18.7237C91.9592 19.6533 90.8846 20.4052 90.1101 19.8157L86.4694 17.0446C86.1115 16.7722 85.6159 16.7722 85.2581 17.0446L81.6173 19.8157C80.8429 20.4052 79.7682 19.6533 80.0565 18.7237L81.4954 14.0846C81.6198 13.6834 81.4802 13.2471 81.1459 12.9927L77.3291 10.0875C76.5672 9.50765 76.9773 8.2918 77.9347 8.2918H82.5552C82.9934 8.2918 83.3805 8.00653 83.5103 7.58803L84.9086 3.07953Z" fill="#43B94B"/>
<path d="M109.843 3.08156C109.993 2.6209 110.644 2.62091 110.794 3.08156L112.312 7.75532C112.513 8.37336 113.089 8.7918 113.739 8.7918H118.653C119.138 8.7918 119.339 9.4116 118.947 9.6963L114.972 12.5848C114.446 12.9668 114.226 13.6439 114.427 14.2619L115.945 18.9357C116.095 19.3963 115.568 19.7794 115.176 19.4947L111.2 16.6061C110.674 16.2242 109.962 16.2242 109.437 16.6061L105.461 19.4947C105.069 19.7794 104.542 19.3963 104.692 18.9357L106.21 14.2619C106.411 13.6439 106.191 12.9668 105.665 12.5848L101.689 9.6963C101.298 9.4116 101.499 8.7918 101.983 8.7918H106.898C107.547 8.7918 108.123 8.37336 108.324 7.75532L109.843 3.08156Z" stroke="#43B94B"/>
</symbol></svg>