<svg width="123" height="24" viewBox="0 0 123 24" fill="none" xmlns="http://www.w3.org/2000/svg">
<path d="M11.5489 2.92705C11.8483 2.00574 13.1517 2.00574 13.4511 2.92705L14.9697 7.60081C15.1035 8.01284 15.4875 8.2918 15.9207 8.2918H20.835C21.8037 8.2918 22.2065 9.53141 21.4228 10.1008L17.447 12.9894C17.0966 13.244 16.9499 13.6954 17.0838 14.1074L18.6024 18.7812C18.9017 19.7025 17.8472 20.4686 17.0635 19.8992L13.0878 17.0106C12.7373 16.756 12.2627 16.756 11.9122 17.0106L7.93648 19.8992C7.15276 20.4686 6.09828 19.7025 6.39763 18.7812L7.91623 14.1074C8.05011 13.6954 7.90345 13.244 7.55296 12.9894L3.57722 10.1008C2.79351 9.53141 3.19628 8.2918 4.16501 8.2918H9.07929C9.51252 8.2918 9.89647 8.01284 10.0303 7.60081L11.5489 2.92705Z" fill="#43B94B"/>
<path d="M35.9994 3.07953C36.2905 2.14117 37.6186 2.14116 37.9097 3.07952L39.308 7.58803C39.4378 8.00654 39.8249 8.2918 40.2631 8.2918H44.8836C45.841 8.2918 46.2511 9.50765 45.4892 10.0875L41.6724 12.9927C41.3381 13.2471 41.1985 13.6834 41.3229 14.0846L42.7617 18.7237C43.05 19.6533 41.9754 20.4052 41.201 19.8157L37.5602 17.0446C37.2024 16.7722 36.7067 16.7722 36.3489 17.0446L32.7081 19.8157C31.9337 20.4052 30.8591 19.6533 31.1474 18.7237L32.5862 14.0846C32.7106 13.6834 32.571 13.2471 32.2367 12.9927L28.4199 10.0875C27.658 9.50765 28.0681 8.2918 29.0255 8.2918H33.646C34.0842 8.2918 34.4713 8.00653 34.6011 7.58803L35.9994 3.07953Z" fill="#43B94B"/>
<path d="M60.4581 2.92705C60.7575 2.00574 62.0609 2.00574 62.3602 2.92705L63.8788 7.60081C64.0127 8.01284 64.3967 8.2918 64.8299 8.2918H69.7442C70.7129 8.2918 71.1157 9.53141 70.332 10.1008L66.3562 12.9894C66.0057 13.244 65.8591 13.6954 65.9929 14.1074L67.5115 18.7812C67.8109 19.7025 66.7564 20.4686 65.9727 19.8992L61.997 17.0106C61.6465 16.756 61.1719 16.756 60.8214 17.0106L56.8457 19.8992C56.0619 20.4686 55.0075 19.7025 55.3068 18.7812L56.8254 14.1074C56.9593 13.6954 56.8126 13.244 56.4621 12.9894L52.4864 10.1008C51.7027 9.53141 52.1055 8.2918 53.0742 8.2918H57.9885C58.4217 8.2918 58.8057 8.01284 58.9395 7.60081L60.4581 2.92705Z" fill="#43B94B"/>
<path d="M84.9086 3.07953C85.1996 2.14117 86.5278 2.14116 86.8188 3.07952L88.2172 7.58803C88.347 8.00654 88.7341 8.2918 89.1723 8.2918H93.7927C94.7502 8.2918 95.1602 9.50765 94.3984 10.0875L90.5815 12.9927C90.2472 13.2471 90.1076 13.6834 90.2321 14.0846L91.6709 18.7237C91.9592 19.6533 90.8846 20.4052 90.1101 19.8157L86.4694 17.0446C86.1115 16.7722 85.6159 16.7722 85.2581 17.0446L81.6173 19.8157C80.8429 20.4052 79.7682 19.6533 80.0565 18.7237L81.4954 14.0846C81.6198 13.6834 81.4802 13.2471 81.1459 12.9927L77.3291 10.0875C76.5672 9.50765 76.9773 8.2918 77.9347 8.2918H82.5552C82.9934 8.2918 83.3805 8.00653 83.5103 7.58803L84.9086 3.07953Z" fill="#43B94B"/>
<path d="M109.843 3.08156C109.993 2.6209 110.644 2.62091 110.794 3.08156L112.312 7.75532C112.513 8.37336 113.089 8.7918 113.739 8.7918H118.653C119.138 8.7918 119.339 9.4116 118.947 9.6963L114.972 12.5848C114.446 12.9668 114.226 13.6439 114.427 14.2619L115.945 18.9357C116.095 19.3963 115.568 19.7794 115.176 19.4947L111.2 16.6061C110.674 16.2242 109.962 16.2242 109.437 16.6061L105.461 19.4947C105.069 19.7794 104.542 19.3963 104.692 18.9357L106.21 14.2619C106.411 13.6439 106.191 12.9668 105.665 12.5848L101.689 9.6963C101.298 9.4116 101.499 8.7918 101.983 8.7918H106.898C107.547 8.7918 108.123 8.37336 108.324 7.75532L109.843 3.08156Z" stroke="#43B94B"/>
</svg>
