<svg width="40" height="40" viewBox="0 0 40 40" fill="none" xmlns="http://www.w3.org/2000/svg">
<rect width="40" height="40" rx="8" fill="#602B7A"/>
<path fill-rule="evenodd" clip-rule="evenodd" d="M30.0452 10.7221C30.3644 10.5878 30.7138 10.5414 31.057 10.5879C31.4002 10.6344 31.7246 10.772 31.9966 10.9865C32.2685 11.2009 32.478 11.4843 32.6032 11.8072C32.7285 12.1301 32.7649 12.4806 32.7087 12.8223L29.7792 30.5918C29.495 32.3059 27.6143 33.2888 26.0424 32.435C24.7275 31.7207 22.7745 30.6202 21.0178 29.4719C20.1395 28.8971 17.4489 27.0565 17.7796 25.7468C18.0638 24.6269 22.5846 20.4186 25.1679 17.9167C26.1819 16.9337 25.7195 16.3667 24.5221 17.2708C21.5487 19.5158 16.7747 22.9296 15.1963 23.8906C13.8038 24.738 13.0779 24.8826 12.2099 24.738C10.6263 24.4745 9.15771 24.0663 7.95904 23.569C6.33929 22.8974 6.41808 20.6705 7.95775 20.0221L30.0452 10.7221Z" fill="white"/>
</svg>
