<svg width="56" height="56" viewBox="0 0 56 56" fill="none" xmlns="http://www.w3.org/2000/svg">
<path d="M4.66669 38.5C4.66669 37.8812 4.91252 37.2877 5.3501 36.8501C5.78769 36.4125 6.38118 36.1667 7.00002 36.1667H14V28L28 18.6667L42 28V36.1667H49C49.6189 36.1667 50.2124 36.4125 50.6499 36.8501C51.0875 37.2877 51.3334 37.8812 51.3334 38.5V49C51.3334 49.6189 51.0875 50.2124 50.6499 50.6499C50.2124 51.0875 49.6189 51.3334 49 51.3334H4.66669V38.5Z" stroke="#602B7A" stroke-width="3" stroke-linejoin="round"/>
<path d="M28 7V18.6667" stroke="#FFD631" stroke-width="3" stroke-linecap="round"/>
<path d="M32.6667 51.3333V36.1667H23.3333V51.3333M21 51.3333H35M42 14V7.00001C42 7.00001 40.25 10.5 35 7.00001C29.75 3.50001 28 7.00001 28 7.00001V14C28 14 29.75 10.5 35 14C40.25 17.5 42 14 42 14Z" stroke="#FFD631" stroke-width="2" stroke-linecap="round" stroke-linejoin="round"/>
</svg>
