<svg width="56" height="56" viewBox="0 0 56 56" fill="none" xmlns="http://www.w3.org/2000/svg">
<path d="M44.471 53.9117L30.058 43.4303C29.4599 42.9955 28.7394 42.7613 28 42.7613C27.2606 42.7613 26.5401 42.9955 25.942 43.4303L11.529 53.9117C11.2682 54.1013 10.96 54.2151 10.6386 54.2407C10.3172 54.2662 9.99492 54.2024 9.70743 54.0564C9.41994 53.9104 9.17839 53.6877 9.00944 53.4131C8.84049 53.1384 8.75071 52.8225 8.75 52.5V5.25C8.75 4.32174 9.11875 3.4315 9.77513 2.77513C10.4315 2.11875 11.3217 1.75 12.25 1.75H43.75C44.6783 1.75 45.5685 2.11875 46.2249 2.77513C46.8812 3.4315 47.25 4.32174 47.25 5.25V52.5C47.2493 52.8225 47.1595 53.1384 46.9906 53.4131C46.8216 53.6877 46.5801 53.9104 46.2926 54.0564C46.0051 54.2024 45.6828 54.2662 45.3614 54.2407C45.04 54.2151 44.7318 54.1013 44.471 53.9117Z" stroke="#602B7A" stroke-width="3" stroke-linecap="round" stroke-linejoin="round"/>
<path d="M29.2366 13.5124L32.151 19.2477H37.114C37.3872 19.241 37.656 19.3169 37.8854 19.4655C38.1148 19.6141 38.294 19.8284 38.3996 20.0805C38.5052 20.3326 38.5323 20.6106 38.4774 20.8783C38.4224 21.146 38.288 21.3909 38.0916 21.581L33.5346 26.0657L36.0593 31.864C36.1722 32.1297 36.1985 32.4242 36.1344 32.7056C36.0702 32.987 35.919 33.241 35.7021 33.4315C35.4853 33.622 35.2138 33.7393 34.9265 33.7666C34.6391 33.7939 34.3505 33.7299 34.1016 33.5837L28 30.142L21.8983 33.5767C21.6493 33.7213 21.3612 33.784 21.0746 33.756C20.788 33.7281 20.5175 33.6108 20.3012 33.4207C20.0848 33.2307 19.9337 32.9775 19.869 32.697C19.8043 32.4164 19.8293 32.1226 19.9406 31.857L22.4653 26.0587L17.9083 21.574C17.7119 21.3839 17.5775 21.139 17.5225 20.8713C17.4676 20.6036 17.4947 20.3256 17.6003 20.0735C17.7059 19.8214 17.8851 19.6071 18.1145 19.4585C18.3439 19.3099 18.6128 19.234 18.886 19.2407H23.849L26.7633 13.5147C26.879 13.286 27.0558 13.094 27.2742 12.9598C27.4925 12.8256 27.7437 12.7545 28 12.7545C28.2562 12.7545 28.5075 12.8256 28.7258 12.9598C28.9441 13.094 29.1209 13.2837 29.2366 13.5124Z" stroke="#FFD631" stroke-width="3" stroke-linecap="round" stroke-linejoin="round"/>
</svg>
