<svg width="56" height="56" viewBox="0 0 56 56" fill="none" xmlns="http://www.w3.org/2000/svg">
<path d="M18.6667 31.5618L26.565 39.6666L37.3333 25.6666" stroke="#FFD631" stroke-width="3" stroke-linecap="round" stroke-linejoin="round"/>
<path d="M12.8368 9.99017C11.5103 10.1185 10.3635 10.2527 9.39283 10.3822C6.82733 10.724 4.86967 12.6548 4.50217 15.2168C4.02617 18.5348 3.5 23.8117 3.5 30.9167C3.5 38.0217 4.02617 43.2997 4.50217 46.6177C4.86967 49.1797 6.82733 51.1093 9.39283 51.4523C13.0445 51.9388 19.1695 52.5 28 52.5C36.8305 52.5 42.9543 51.94 46.6072 51.4523C49.1727 51.1105 51.1303 49.1797 51.4978 46.6177C51.9738 43.2997 52.5 38.0217 52.5 30.9167C52.5 23.8117 51.9738 18.5348 51.4978 15.2168C51.1303 12.6548 49.1727 10.724 46.6072 10.3822C45.4616 10.2307 44.3134 10.1 43.1632 9.99017M33.8333 9.41967C31.8894 9.36124 29.9448 9.33246 28 9.33333C25.9054 9.33489 23.961 9.36367 22.1667 9.41967" stroke="#602B7A" stroke-width="3" stroke-linecap="round" stroke-linejoin="round"/>
<path d="M33.8485 10.815C33.8987 13.2416 35.4923 15.1246 37.919 15.162C38.3063 15.1678 38.6937 15.1678 39.081 15.162C41.5077 15.1246 43.1013 13.2416 43.1515 10.815C43.1721 9.82731 43.1721 8.83931 43.1515 7.85164C43.1013 5.42498 41.5077 3.54198 39.081 3.50464C38.6937 3.49862 38.3063 3.49862 37.919 3.50464C35.4923 3.54198 33.8987 5.42498 33.8485 7.85164C33.8279 8.83931 33.8279 9.82731 33.8485 10.815ZM12.8485 10.815C12.8987 13.2416 14.4923 15.1246 16.919 15.162C17.3063 15.1678 17.6937 15.1678 18.081 15.162C20.5077 15.1246 22.1013 13.2416 22.1515 10.815C22.1721 9.82731 22.1721 8.83931 22.1515 7.85164C22.1013 5.42498 20.5077 3.54198 18.081 3.50464C17.6937 3.49862 17.3063 3.49862 16.919 3.50464C14.4923 3.54198 12.8987 5.42498 12.8485 7.85164C12.8279 8.83931 12.8279 9.82731 12.8485 10.815Z" stroke="#602B7A" stroke-width="1.5" stroke-linecap="round" stroke-linejoin="round"/>
</svg>
