<svg width="56" height="56" viewBox="0 0 56 56" fill="none" xmlns="http://www.w3.org/2000/svg">
<path d="M52.344 22.76C52.3711 18.063 51.9626 13.3736 51.124 8.75198C50.752 6.70398 50.456 4.47198 48.992 2.99598C48.576 2.57598 48.092 2.29198 47.564 2.33998C45.616 2.51998 43.528 3.05998 42.044 3.46798C40.316 3.94798 38.336 4.91998 36.404 5.84398C35.5684 6.24168 34.6191 6.33095 33.724 6.09598L19.652 2.45598C17.204 1.87998 13.444 2.83198 11.132 3.46798C9.68398 3.86798 8.06398 4.61198 6.44398 5.38798C5.85998 5.66798 5.36398 6.38398 4.98798 7.11198C4.33598 8.37198 4.06798 9.77998 3.81998 11.176L3.61998 12.288C1.99484 21.4202 1.99484 30.7677 3.61998 39.9C4.00398 42.032 4.25198 44.424 5.87198 45.86C6.26398 46.208 6.71198 46.416 7.19198 46.324C8.66398 46.044 10.172 45.44 11.78 44.888C14.144 44.08 16.508 43.168 18.7 42.568C19.3231 42.3971 19.9808 42.3971 20.604 42.568L25.252 43.772" stroke="#602B7A" stroke-width="3" stroke-linecap="round" stroke-linejoin="round"/>
<path d="M20.2559 42.544C19.9716 42.475 19.6805 42.4374 19.3879 42.432V2.95996C19.3879 2.79196 19.3973 2.62529 19.4159 2.45996L34.1119 6.13996C34.5306 6.24129 34.9506 6.27196 35.3719 6.23196V21.752M43.4279 39.128V38.52M53.5999 38.924C53.5999 46.856 44.4199 53.724 43.4319 53.724C42.4399 53.724 33.2599 46.856 33.2599 38.924C33.2599 36.2267 34.3314 33.6399 36.2387 31.7327C38.1459 29.8254 40.7327 28.754 43.4299 28.754C46.1272 28.754 48.714 29.8254 50.6212 31.7327C52.5285 33.6399 53.5999 36.2267 53.5999 38.924Z" stroke="#FFD631" stroke-width="3" stroke-linecap="round" stroke-linejoin="round"/>
</svg>
