<svg width="303" height="258" viewBox="0 0 303 258" fill="none" xmlns="http://www.w3.org/2000/svg">
<path d="M26.8537 144.106L17.1523 147.499L13.4183 157.525L9.92308 147.721L0 144.106L10.0254 140.372L13.4183 130.671L17.05 140.594L26.8537 144.106Z" fill="#612A7A"/>
<path d="M302.654 145.146L297.761 146.868L295.885 151.915L294.129 146.971L289.116 145.146L294.18 143.271L295.885 138.377L297.709 143.39L302.654 145.146Z" fill="#612A7A"/>
<path d="M135.871 27.0413L130.977 28.7633L129.102 33.8101L127.329 28.8656L122.333 27.0413L127.38 25.1658L129.102 20.2725L130.926 25.2681L135.871 27.0413Z" fill="#612A7A"/>
<path d="M271.042 78.8049H52.3256C51.1485 78.8049 50.1943 79.7591 50.1943 80.9362V222.673C50.1943 223.85 51.1485 224.804 52.3256 224.804H271.042C272.22 224.804 273.174 223.85 273.174 222.673V80.9362C273.174 79.7591 272.22 78.8049 271.042 78.8049Z" fill="#612A7A"/>
<path d="M265.742 86.1536H57.6469C56.4698 86.1536 55.5156 87.1078 55.5156 88.2848V215.358C55.5156 216.535 56.4698 217.489 57.6469 217.489H265.742C266.919 217.489 267.873 216.535 267.873 215.358V88.2848C267.873 87.1078 266.919 86.1536 265.742 86.1536Z" fill="white"/>
<path d="M177.61 220.831H145.761V247.378H177.61V220.831Z" fill="#612A7A"/>
<path d="M161.684 258C182.947 258 200.183 253.84 200.183 248.708C200.183 243.576 182.947 239.416 161.684 239.416C140.422 239.416 123.186 243.576 123.186 248.708C123.186 253.84 140.422 258 161.684 258Z" fill="#612A7A"/>
<path d="M72.6992 148.71L83.2361 119.35C83.6112 118.31 84.7535 117.764 85.7936 118.139L99.1437 122.93L102.366 129.784L118.53 135.598C119.57 135.974 120.115 137.116 119.74 138.156L115.904 148.846" fill="white"/>
<path d="M115.921 149.699C115.819 149.699 115.734 149.699 115.631 149.648C115.188 149.494 114.966 149 115.12 148.556L118.956 137.866C119.058 137.576 119.041 137.269 118.922 136.979C118.803 136.69 118.564 136.485 118.274 136.383L101.77 130.449L98.5301 123.595L85.521 118.924C85.2312 118.821 84.9243 118.838 84.6344 118.958C84.3616 119.094 84.14 119.316 84.0377 119.606L73.5008 148.966C73.3473 149.409 72.8529 149.63 72.4096 149.477C71.9663 149.324 71.7446 148.829 71.8981 148.386L82.435 119.026C82.6907 118.31 83.2193 117.73 83.9013 117.406C84.5833 117.082 85.3676 117.048 86.0837 117.304L99.7577 122.214L102.997 129.068L118.837 134.763C119.553 135.019 120.132 135.547 120.456 136.229C120.78 136.928 120.814 137.696 120.559 138.412L116.722 149.102C116.603 149.443 116.262 149.665 115.921 149.665V149.699Z" fill="#612A7A"/>
<path d="M105.775 162.452L73.9086 151.012C72.6469 150.551 72.2207 149 73.0732 147.96L86.7302 131.524C87.2417 130.893 88.0942 130.671 88.8614 130.944L120.728 142.384C121.99 142.845 122.416 144.396 121.563 145.436L107.906 161.872C107.395 162.503 106.542 162.725 105.775 162.452Z" fill="#612A7A"/>
<path d="M156.024 160.917C159.485 160.935 162.639 161.838 165.47 163.594C168.3 165.368 170.55 167.857 172.204 171.062C173.858 174.268 174.608 177.302 174.267 179.843C173.926 182.383 172.613 184.259 170.329 185.435C169.101 186.066 167.925 186.322 166.782 186.168C165.64 186.032 164.634 185.504 163.747 184.617C163.355 187.618 161.633 189.919 158.581 191.505C156.842 192.409 155.069 192.801 153.245 192.699C151.42 192.596 149.715 192 148.164 190.942C146.612 189.868 145.351 188.402 144.379 186.509C143.407 184.617 142.947 182.776 142.981 180.9C143.015 179.025 143.526 177.32 144.498 175.768C145.47 174.216 146.834 172.989 148.556 172.102C149.903 171.403 151.25 171.011 152.563 170.909C153.876 170.806 155.137 171.011 156.348 171.523L155.069 169.033L159.315 166.834L166.032 179.843C166.51 180.764 167.038 181.326 167.618 181.548C168.198 181.77 168.777 181.718 169.374 181.412C170.414 180.866 170.908 179.877 170.84 178.394C170.772 176.927 170.158 175.069 168.999 172.818C167.601 170.124 165.759 168.044 163.458 166.629C161.156 165.197 158.598 164.481 155.785 164.481C152.972 164.481 150.125 165.214 147.243 166.714C144.362 168.215 142.077 170.159 140.457 172.511C138.837 174.881 137.985 177.473 137.866 180.269C137.763 183.065 138.411 185.845 139.843 188.59C141.276 191.335 143.185 193.568 145.504 195.103C147.84 196.637 150.414 197.456 153.262 197.507C156.109 197.575 158.974 196.859 161.855 195.375C163.1 194.728 164.293 193.943 165.435 192.988C166.578 192.051 167.567 190.994 168.402 189.868L171.011 192.392C170.192 193.551 169.101 194.693 167.737 195.768C166.373 196.859 164.958 197.779 163.475 198.547C159.911 200.388 156.365 201.258 152.853 201.172C149.34 201.087 146.135 200.098 143.253 198.24C140.372 196.364 138.053 193.756 136.314 190.397C134.575 187.038 133.825 183.713 133.995 180.286C134.166 176.859 135.24 173.671 137.235 170.738C139.23 167.806 142.009 165.419 145.606 163.56C149.204 161.702 152.546 160.883 156.007 160.9L156.024 160.917ZM160.713 183.662C161.207 182.025 160.985 180.286 160.014 178.428C159.042 176.569 157.78 175.41 156.177 174.881C154.575 174.353 152.938 174.523 151.267 175.376C149.579 176.245 148.505 177.49 148.01 179.11C147.533 180.73 147.755 182.452 148.675 184.259C149.596 186.066 150.909 187.294 152.512 187.839C154.131 188.402 155.768 188.232 157.456 187.379C159.11 186.527 160.184 185.282 160.696 183.645L160.713 183.662Z" fill="#D1EDF8"/>
<path d="M93.7742 180.065C94.3539 180.065 94.9506 180.065 95.5303 180.065C95.8543 180.099 96.1782 180.133 96.5022 180.184C99.6223 180.662 102.265 182.026 104.396 184.327C106.152 186.22 107.261 188.454 107.704 190.994C107.789 191.471 107.84 191.966 107.909 192.443V194.199C107.909 194.199 107.874 194.37 107.857 194.455C107.789 194.915 107.772 195.359 107.67 195.819C107.022 199.059 105.419 201.735 102.828 203.764C99.8781 206.066 96.5022 206.953 92.8023 206.475C90.6029 206.185 88.5739 205.401 86.8178 204.037C82.6917 200.866 80.8844 196.655 81.5153 191.488C81.8904 188.368 83.3396 185.726 85.6413 183.594C87.5339 181.838 89.7674 180.73 92.3249 180.287C92.8023 180.201 93.2797 180.15 93.7571 180.082L93.7742 180.065ZM93.9617 189.374C93.9617 189.374 93.9106 189.357 93.8935 189.357C92.1203 189.357 90.3471 189.357 88.591 189.357C88.5228 189.357 88.4034 189.459 88.4034 189.528C88.2841 190.38 88.1477 191.233 88.0795 192.085C87.9431 193.739 88.0795 195.393 88.3693 197.03C88.4034 197.234 88.4716 197.302 88.6933 197.302C90.3642 197.302 92.018 197.302 93.6889 197.302C93.7742 197.302 93.8594 197.302 93.9617 197.302V189.391V189.374ZM95.3257 197.268C95.3257 197.268 95.3769 197.285 95.3939 197.285C97.1671 197.285 98.9403 197.285 100.696 197.285C100.765 197.285 100.884 197.183 100.884 197.115C101.003 196.262 101.14 195.427 101.208 194.574C101.344 192.904 101.208 191.233 100.901 189.579C100.867 189.391 100.799 189.323 100.594 189.323C98.9062 189.323 97.2353 189.323 95.5474 189.323C95.4792 189.323 95.3939 189.323 95.3087 189.323V197.234L95.3257 197.268ZM87.0565 189.357H83.4249C82.4871 191.557 82.5042 195.649 83.4249 197.285H87.0394C86.545 194.643 86.545 192 87.0394 189.357H87.0565ZM102.231 189.357C102.725 192.017 102.725 194.643 102.231 197.268C102.299 197.285 102.299 197.302 102.316 197.302C103.442 197.302 104.584 197.302 105.709 197.302C105.777 197.302 105.88 197.217 105.897 197.149C106.204 196.262 106.408 195.359 106.493 194.438C106.664 192.767 106.442 191.147 105.931 189.562C105.88 189.391 105.811 189.34 105.624 189.34C104.584 189.34 103.527 189.34 102.487 189.34C102.419 189.34 102.333 189.34 102.214 189.34L102.231 189.357ZM93.9617 181.463C92.9728 181.651 92.1885 182.179 91.5065 182.878C90.3642 184.021 89.6481 185.419 89.1025 186.902C88.9661 187.26 88.8638 187.618 88.7444 187.976H93.9617V181.446V181.463ZM100.526 187.993C100.526 187.993 100.509 187.874 100.492 187.823C100.202 186.834 99.8269 185.879 99.3325 184.992C98.7528 183.935 98.0367 182.963 97.0478 182.247C96.5363 181.872 95.9736 181.582 95.3257 181.48V188.01H100.526V187.993ZM93.9617 198.666H88.7444C88.8467 199.007 88.949 199.314 89.0513 199.621C89.5969 201.156 90.3301 202.605 91.5065 203.781C92.1885 204.48 92.9728 204.992 93.9617 205.197V198.683V198.666ZM95.3257 205.18C96.1441 205.043 97.0648 204.532 97.7809 203.781C98.9062 202.622 99.6394 201.241 100.185 199.741C100.321 199.383 100.424 199.024 100.543 198.666H95.3257V205.18ZM83.9705 188.01C84.1239 188.01 84.2091 188.01 84.2944 188.01C85.2151 188.01 86.1358 188.01 87.0565 188.01C87.2952 188.01 87.3804 187.942 87.4486 187.72C87.8578 186.22 88.4546 184.788 89.3241 183.492C89.5969 183.083 89.9038 182.708 90.2278 182.247C87.4486 183.441 85.3856 185.316 83.9875 188.01H83.9705ZM99.1108 182.316C99.4007 182.708 99.7076 183.1 99.9804 183.509C100.85 184.805 101.43 186.237 101.839 187.737C101.89 187.959 101.992 188.01 102.214 188.01C103.135 188.01 104.038 188.01 104.959 188.01C105.061 188.01 105.164 188.01 105.317 188.01C103.919 185.333 101.856 183.441 99.1279 182.316H99.1108ZM90.2107 204.395C89.8868 203.952 89.5799 203.56 89.3071 203.151C88.4375 201.838 87.8408 200.406 87.4316 198.888C87.3804 198.684 87.2952 198.615 87.0735 198.615C86.1358 198.615 85.198 198.615 84.2603 198.615C84.175 198.615 84.0898 198.615 83.9705 198.615C85.3685 201.292 87.4145 203.168 90.2107 204.361V204.395ZM99.0767 204.327C101.839 203.202 103.902 201.326 105.3 198.632C105.146 198.632 105.061 198.632 104.959 198.632C104.055 198.632 103.152 198.632 102.248 198.632C102.009 198.632 101.89 198.701 101.822 198.939C101.344 200.661 100.628 202.298 99.5541 203.73C99.4007 203.935 99.2472 204.122 99.0938 204.31L99.0767 204.327Z" fill="#8DC63F"/>
<path d="M66.5616 231.3C82.9086 231.3 96.1604 218.048 96.1604 201.701C96.1604 185.354 82.9086 172.103 66.5616 172.103C50.2147 172.103 36.9629 185.354 36.9629 201.701C36.9629 218.048 50.2147 231.3 66.5616 231.3Z" fill="white"/>
<path d="M66.5626 231.931C49.8877 231.931 36.333 218.359 36.333 201.701C36.333 185.043 49.9048 171.455 66.5626 171.455C83.2204 171.455 96.8092 185.026 96.8092 201.701C96.8092 218.376 83.2375 231.931 66.5626 231.931ZM66.5626 172.733C50.5868 172.733 37.6118 185.725 37.6118 201.701C37.6118 217.677 50.6038 230.652 66.5626 230.652C82.5214 230.652 95.5305 217.66 95.5305 201.701C95.5305 185.742 82.5384 172.733 66.5626 172.733Z" fill="#612A7A"/>
<path d="M66.566 227.754C80.9543 227.754 92.6184 216.09 92.6184 201.701C92.6184 187.313 80.9543 175.649 66.566 175.649C52.1777 175.649 40.5137 187.313 40.5137 201.701C40.5137 216.09 52.1777 227.754 66.566 227.754Z" fill="white"/>
<path d="M66.6165 228.367C57.921 228.367 49.396 224.139 44.281 216.347C40.3595 210.397 39.0126 203.27 40.4448 196.279C41.894 189.306 45.969 183.304 51.9194 179.383C57.8699 175.461 64.9967 174.097 71.9872 175.547C78.9607 176.996 84.9622 181.071 88.8837 187.021C96.9654 199.314 93.5384 215.904 81.2454 223.986C76.7442 226.952 71.6633 228.367 66.6335 228.367H66.6165ZM66.5142 176.28C61.6038 176.28 56.8128 177.712 52.6185 180.457C46.9408 184.191 43.0705 189.903 41.6894 196.535C40.3084 203.185 41.6042 209.97 45.3381 215.631C53.0277 227.344 68.8159 230.601 80.5293 222.911C92.2426 215.222 95.4991 199.434 87.8096 187.72C84.0756 182.043 78.3639 178.172 71.7315 176.791C70.0094 176.433 68.2533 176.263 66.5312 176.263L66.5142 176.28Z" fill="#612A7A"/>
<mask id="mask0_377_48106" style="mask-type:luminance" maskUnits="userSpaceOnUse" x="40" y="175" width="53" height="53">
<mask id="mask1_377_48106" style="mask-type:luminance" maskUnits="userSpaceOnUse" x="40" y="175" width="53" height="53">
<path d="M66.566 227.754C80.9543 227.754 92.6184 216.09 92.6184 201.701C92.6184 187.313 80.9543 175.649 66.566 175.649C52.1777 175.649 40.5137 187.313 40.5137 201.701C40.5137 216.09 52.1777 227.754 66.566 227.754Z" fill="white"/>
</mask>
<g mask="url(#mask1_377_48106)">
<path d="M66.6165 228.368C57.921 228.368 49.396 224.139 44.281 216.347C40.3595 210.397 39.0126 203.27 40.4448 196.28C41.894 189.306 45.969 183.305 51.9194 179.383C57.8699 175.462 64.9967 174.098 71.9872 175.547C78.9607 176.996 84.9622 181.071 88.8837 187.021C96.9654 199.314 93.5384 215.904 81.2454 223.986C76.7442 226.952 71.6633 228.368 66.6335 228.368H66.6165ZM66.5142 176.28C61.6038 176.28 56.8128 177.712 52.6185 180.457C46.9408 184.191 43.0705 189.903 41.6894 196.535C40.3084 203.185 41.6042 209.971 45.3381 215.631C53.0277 227.345 68.8159 230.601 80.5293 222.912C92.2426 215.222 95.4991 199.434 87.8096 187.72C84.0756 182.043 78.3639 178.172 71.7315 176.791C70.0094 176.433 68.2533 176.263 66.5312 176.263L66.5142 176.28Z" fill="white"/>
</g>
</mask>
<g mask="url(#mask0_377_48106)">
<path d="M74.3737 178.786C75.1921 178.786 76.0275 178.786 76.8459 178.786C77.3062 178.837 77.7666 178.888 78.2099 178.957C82.5917 179.622 86.3086 181.548 89.3265 184.805C91.7987 187.465 93.3503 190.602 93.9811 194.182C94.1005 194.864 94.1687 195.546 94.271 196.228V198.7C94.2539 198.82 94.2198 198.939 94.2028 199.041C94.1175 199.672 94.0834 200.32 93.947 200.951C93.0434 205.503 90.7757 209.271 87.127 212.136C82.9668 215.392 78.2269 216.62 73.0097 215.955C69.9066 215.563 67.0592 214.438 64.5699 212.528C58.7559 208.061 56.2154 202.127 57.102 194.847C57.6306 190.448 59.6595 186.731 62.9161 183.731C65.5929 181.258 68.7301 179.69 72.3277 179.059C72.9926 178.94 73.6746 178.871 74.3396 178.769L74.3737 178.786ZM74.6465 191.898C74.6465 191.898 74.5783 191.863 74.5612 191.863C72.0719 191.863 69.5826 191.863 67.0933 191.863C66.991 191.863 66.8376 192 66.8205 192.102C66.65 193.296 66.4625 194.506 66.3602 195.717C66.1726 198.053 66.3602 200.371 66.7864 202.673C66.8376 202.963 66.9399 203.065 67.2468 203.065C69.5997 203.065 71.9355 203.065 74.2884 203.065C74.4078 203.065 74.5271 203.065 74.6635 203.065V191.915L74.6465 191.898ZM76.5731 203.014C76.5731 203.014 76.6413 203.048 76.6754 203.048C79.1647 203.048 81.654 203.048 84.1433 203.048C84.2285 203.048 84.399 202.895 84.4161 202.809C84.5866 201.616 84.7741 200.44 84.8764 199.246C85.064 196.893 84.8764 194.54 84.4502 192.204C84.399 191.932 84.2967 191.846 84.0239 191.846C81.654 191.846 79.284 191.846 76.9141 191.846C76.8118 191.846 76.7095 191.846 76.5731 191.863V203.014ZM64.928 191.863H59.83C58.5172 194.967 58.5342 200.712 59.8471 203.031H64.928C64.2289 199.297 64.2289 195.597 64.928 191.863ZM86.2916 191.863C87.0077 195.614 86.9906 199.314 86.2916 202.997C86.3768 203.031 86.3939 203.048 86.428 203.048C88.0136 203.048 89.6163 203.048 91.202 203.048C91.2872 203.048 91.4407 202.929 91.4748 202.844C91.9181 201.599 92.1909 200.32 92.3273 199.024C92.566 196.689 92.2591 194.404 91.5259 192.17C91.4577 191.932 91.3554 191.846 91.0997 191.846C89.6334 191.846 88.15 191.846 86.6837 191.846C86.5814 191.846 86.4621 191.846 86.2916 191.863ZM74.6465 180.747C73.2654 181.02 72.1572 181.753 71.1853 182.725C69.5826 184.327 68.5767 186.288 67.8094 188.402C67.6219 188.897 67.4855 189.408 67.2979 189.92H74.6465V180.73V180.747ZM83.8875 189.937C83.8705 189.834 83.8705 189.766 83.8364 189.698C83.4272 188.317 82.8986 186.97 82.1996 185.708C81.3812 184.225 80.3752 182.861 78.9942 181.838C78.261 181.309 77.4767 180.917 76.5731 180.747V189.937H83.8875ZM74.6465 204.958H67.2979C67.4514 205.435 67.5878 205.878 67.7412 206.305C68.5255 208.47 69.5485 210.499 71.1853 212.153C72.1572 213.125 73.2654 213.858 74.6465 214.148V204.975V204.958ZM76.5731 214.114C77.7325 213.926 79.0112 213.193 80.0342 212.153C81.6199 210.533 82.6429 208.572 83.4101 206.475C83.5977 205.981 83.7341 205.469 83.9216 204.958H76.5731V214.131V214.114ZM60.5973 189.954C60.8019 189.954 60.9212 189.954 61.0406 189.954C62.3364 189.954 63.6322 189.954 64.945 189.954C65.269 189.954 65.4054 189.852 65.4906 189.545C66.0703 187.43 66.9058 185.419 68.1163 183.594C68.4914 183.014 68.9347 182.486 69.3951 181.855C65.4736 183.526 62.5751 186.169 60.5973 189.954ZM81.9097 181.94C82.3189 182.503 82.7452 183.032 83.1373 183.611C84.3479 185.436 85.1833 187.447 85.763 189.562C85.8483 189.869 85.9847 189.954 86.2916 189.954C87.5703 189.937 88.8661 189.954 90.1449 189.954C90.2813 189.954 90.4347 189.954 90.6393 189.954C88.6786 186.169 85.7801 183.526 81.9097 181.94ZM69.3951 213.039C68.9347 212.409 68.4914 211.863 68.1163 211.3C66.8887 209.459 66.0533 207.447 65.4736 205.316C65.4054 205.043 65.286 204.941 64.9791 204.941C63.6492 204.958 62.3364 204.941 61.0065 204.941C60.8871 204.941 60.7848 204.941 60.5973 204.958C62.558 208.709 65.4565 211.369 69.378 213.039H69.3951ZM81.8756 212.937C85.763 211.352 88.6615 208.709 90.6223 204.924C90.4177 204.924 90.2813 204.924 90.1449 204.924C88.8661 204.924 87.5874 204.924 86.3257 204.924C85.9847 204.924 85.8312 205.009 85.7289 205.367C85.0469 207.805 84.058 210.09 82.5235 212.119C82.3189 212.392 82.0802 212.664 81.8586 212.937H81.8756Z" fill="#8DC63F"/>
</g>
<path d="M35.5859 222.911C35.3131 222.911 35.0403 222.775 34.8698 222.519C34.614 222.127 34.7163 221.599 35.1085 221.343L40.4281 217.848C40.8202 217.592 41.3488 217.694 41.6045 218.086C41.8603 218.478 41.758 219.007 41.3658 219.263L36.0462 222.758C35.9098 222.86 35.7393 222.894 35.5859 222.894V222.911Z" fill="#612A7A"/>
<path d="M32.3511 218.514L14.4851 230.259C13.4071 230.968 13.1077 232.416 13.8163 233.494L16.4575 237.512C17.1661 238.59 18.6145 238.889 19.6924 238.18L37.5585 226.436C38.6364 225.727 38.9359 224.279 38.2272 223.201L35.5861 219.183C34.8774 218.105 33.4291 217.806 32.3511 218.514Z" fill="#8DC63F"/>
<path d="M253.535 136.253L281.577 108.21L273.162 99.7953L245.119 127.838L253.535 136.253Z" fill="#8DC63F"/>
<path d="M288.262 101.524L283.041 106.744L274.626 98.3286L279.846 93.1083C280.063 92.8913 280.413 92.9033 280.618 93.1083L288.25 100.74C288.467 100.957 288.455 101.306 288.25 101.511L288.262 101.524Z" fill="#612A7A"/>
<path d="M244.325 132.427L246.541 134.644L248.758 136.86L245.723 137.679L242.688 138.497L243.506 135.462L244.325 132.427ZM243.438 129.136L241.869 135.019L240.301 140.901L246.183 139.332L252.065 137.764L247.752 133.45L243.438 129.136Z" fill="#612A7A"/>
<path d="M112.915 110.041L74.0586 98.8558L88.3124 49.3086L117.741 57.7824L124.919 68.3534L112.915 110.041Z" fill="white"/>
<path d="M113.497 111.098L73.0029 99.4525L87.7341 48.2686L118.271 57.0493L125.841 68.2L113.497 111.098ZM75.1171 98.2761L112.337 108.983L123.982 68.4898L117.196 58.5156L88.8935 50.3657L75.1171 98.2761Z" fill="#612A7A"/>
<path d="M117.487 58.6349L115.424 65.8641L123.847 68.2852" fill="white"/>
<path d="M124.428 69.3423L114.368 66.4438L116.909 57.5948L118.545 58.0552L116.482 65.2673L124.905 67.7055L124.428 69.3423Z" fill="#612A7A"/>
<path d="M97.8209 65.6409L90.0645 63.4329L89.3129 66.073L97.0694 68.281L97.8209 65.6409Z" fill="#612A7A"/>
<path d="M107.961 68.5464L100.204 66.3384L99.4525 68.9785L107.209 71.1866L107.961 68.5464Z" fill="#612A7A"/>
<path d="M118.107 71.4184L110.351 69.2103L109.599 71.8505L117.355 74.0585L118.107 71.4184Z" fill="#612A7A"/>
<path d="M96.3951 70.6659L88.6387 68.4579L87.8871 71.098L95.6436 73.3061L96.3951 70.6659Z" fill="#612A7A"/>
<path d="M106.542 73.555L98.7852 71.3469L98.0336 73.9871L105.79 76.1951L106.542 73.555Z" fill="#612A7A"/>
<path d="M116.685 76.444L108.929 74.236L108.177 76.8761L115.934 79.0841L116.685 76.444Z" fill="#612A7A"/>
<path d="M94.9772 75.6964L87.2207 73.4884L86.4691 76.1286L94.2256 78.3366L94.9772 75.6964Z" fill="#612A7A"/>
<path d="M105.1 78.5801L97.3438 76.3721L96.5922 79.0122L104.349 81.2203L105.1 78.5801Z" fill="#612A7A"/>
<path d="M115.244 81.4694L107.487 79.2614L106.736 81.9015L114.492 84.1095L115.244 81.4694Z" fill="#612A7A"/>
<path d="M93.5514 80.7216L85.7949 78.5135L85.0434 81.1537L92.7998 83.3617L93.5514 80.7216Z" fill="#612A7A"/>
<path d="M103.678 83.5889L95.9219 81.3809L95.1703 84.021L102.927 86.229L103.678 83.5889Z" fill="#612A7A"/>
<path d="M113.818 86.4944L106.062 84.2864L105.31 86.9265L113.066 89.1345L113.818 86.4944Z" fill="#612A7A"/>
<path d="M92.11 85.7466L84.3535 83.5386L83.6019 86.1787L91.3584 88.3868L92.11 85.7466Z" fill="#612A7A"/>
<path d="M102.253 88.6356L94.4961 86.4276L93.7445 89.0678L101.501 91.2758L102.253 88.6356Z" fill="#612A7A"/>
<path d="M112.383 91.5031L104.627 89.295L103.875 91.9352L111.632 94.1432L112.383 91.5031Z" fill="#612A7A"/>
<path d="M76.9266 67.0405L98.9552 70.9109L91.1804 97.9521L70.3965 89.717L76.9266 67.0405Z" fill="#8DC63F"/>
<path d="M84.4624 88.1485L82.9449 83.886L79.3303 86.6822L75.6816 85.6422L81.7685 81.0898L79.1087 74.1505L82.8597 75.2247L84.343 79.2825L87.8042 76.6398L91.3676 77.6458L85.4854 82.0617L88.2645 89.2227L84.4794 88.1485H84.4624Z" fill="#612A7A"/>
<path d="M160.97 147.874C160.305 147.874 159.759 147.363 159.759 146.698V146.647C159.759 145.982 160.305 145.436 160.97 145.436C161.635 145.436 162.18 145.982 162.18 146.647C162.18 147.312 161.635 147.874 160.97 147.874ZM160.731 133.331C160.066 133.331 159.52 132.819 159.52 132.154V132.103C159.52 131.438 160.066 130.893 160.731 130.893C161.396 130.893 161.942 131.438 161.942 132.103C161.942 132.768 161.396 133.331 160.731 133.331ZM160.492 118.787C159.827 118.787 159.282 118.276 159.282 117.611V117.559C159.282 116.895 159.827 116.349 160.492 116.349C161.157 116.349 161.703 116.895 161.703 117.559C161.703 118.224 161.157 118.787 160.492 118.787ZM160.254 104.243C159.606 104.243 159.077 103.749 159.043 103.101V103.05C159.026 102.385 159.537 101.822 160.202 101.805C160.85 101.737 161.43 102.3 161.447 102.965C161.464 103.63 160.953 104.209 160.288 104.243H160.237H160.254ZM160.015 89.6999C159.367 89.6999 158.838 89.2054 158.804 88.5575V88.5064C158.787 87.8414 159.299 87.2788 159.964 87.2617H159.998C160.646 87.2617 161.191 87.7732 161.208 88.4211C161.225 89.0861 160.714 89.6658 160.049 89.6999H159.998H160.015ZM159.793 75.1562C159.128 75.1562 158.583 74.6447 158.583 73.9798V73.9286C158.583 73.2637 159.128 72.7181 159.793 72.7181C160.458 72.7181 161.004 73.2637 161.004 73.9286C161.004 74.5936 160.458 75.1562 159.793 75.1562ZM159.555 60.6126C158.89 60.6126 158.344 60.1011 158.344 59.4362V59.385C158.344 58.7201 158.89 58.1745 159.555 58.1745C160.219 58.1745 160.765 58.7201 160.765 59.385C160.765 60.05 160.219 60.6126 159.555 60.6126ZM159.316 46.069C158.668 46.069 158.139 45.5746 158.105 44.9267V44.8755C158.088 44.2106 158.6 43.6479 159.265 43.6309H159.299C159.947 43.6309 160.492 44.1424 160.509 44.7903C160.526 45.4552 160.015 46.0349 159.35 46.069H159.299H159.316ZM159.077 31.5254C158.429 31.5254 157.901 31.0309 157.867 30.383V30.3319C157.85 29.6669 158.361 29.1043 159.026 29.0872C159.759 29.019 160.254 29.5817 160.271 30.2466C160.288 30.9116 159.776 31.4913 159.111 31.5254H159.06H159.077ZM158.855 16.9818C158.191 16.9818 157.645 16.4703 157.645 15.8053V15.7542C157.645 15.0892 158.191 14.5436 158.855 14.5436C159.52 14.5436 160.066 15.0892 160.066 15.7542C160.066 16.4191 159.52 16.9818 158.855 16.9818ZM158.617 2.43814C157.952 2.43814 157.406 1.92665 157.406 1.2617V1.21055C157.406 0.545599 157.952 0 158.617 0C159.282 0 159.827 0.545599 159.827 1.21055C159.827 1.8755 159.282 2.43814 158.617 2.43814Z" fill="#612A7A"/>
<path d="M127.058 201.172C126.666 201.172 126.273 200.968 126.052 200.593V200.559C125.677 199.996 125.864 199.246 126.444 198.905C127.024 198.564 127.757 198.751 128.098 199.314C128.439 199.877 128.268 200.644 127.689 200.985C127.484 201.104 127.262 201.155 127.058 201.155V201.172ZM119.522 188.743C119.129 188.743 118.754 188.555 118.516 188.197V188.163C118.141 187.601 118.311 186.85 118.874 186.492C119.436 186.134 120.187 186.305 120.545 186.867C120.903 187.43 120.732 188.197 120.169 188.555C119.965 188.692 119.743 188.743 119.522 188.743ZM111.968 176.314C111.576 176.314 111.184 176.109 110.963 175.734V175.7C110.587 175.137 110.775 174.387 111.355 174.046C111.934 173.705 112.667 173.892 113.008 174.455C113.349 175.018 113.179 175.785 112.599 176.126C112.395 176.245 112.173 176.297 111.968 176.297V176.314ZM104.432 163.884C104.04 163.884 103.665 163.697 103.426 163.339V163.304C103.051 162.742 103.222 161.992 103.784 161.634C104.347 161.275 105.097 161.446 105.455 162.009C105.813 162.571 105.643 163.339 105.08 163.697C104.876 163.833 104.654 163.884 104.432 163.884ZM96.8792 151.455C96.4871 151.455 96.0949 151.25 95.8733 150.875V150.841C95.4982 150.278 95.6857 149.528 96.2654 149.187C96.8451 148.846 97.5783 149.034 97.9193 149.596C98.2603 150.159 98.0898 150.926 97.5101 151.267C97.3055 151.387 97.0838 151.438 96.8792 151.438V151.455ZM89.3432 139.025C88.951 139.025 88.5759 138.838 88.3372 138.48V138.446C87.9621 137.883 88.1326 137.133 88.6952 136.775C89.2579 136.417 90.0081 136.587 90.3661 137.15C90.7242 137.712 90.5537 138.48 89.991 138.838C89.7864 138.974 89.5648 139.025 89.3432 139.025ZM81.79 126.596C81.3979 126.596 81.0057 126.391 80.7841 126.016V125.982C80.409 125.419 80.5965 124.669 81.1762 124.328C81.7559 123.987 82.4891 124.175 82.8301 124.737C83.1711 125.3 83.0006 126.067 82.4209 126.408C82.2163 126.528 81.9946 126.579 81.79 126.579V126.596ZM74.2369 114.166C73.8447 114.166 73.4696 113.979 73.2309 113.621V113.587C72.8558 113.024 73.0263 112.274 73.589 111.916C74.1516 111.558 74.9018 111.728 75.2599 112.291C75.6179 112.854 75.4474 113.621 74.8848 113.979C74.6802 114.115 74.4585 114.166 74.2369 114.166ZM66.6838 101.737C66.2916 101.737 65.8995 101.532 65.6778 101.157V101.123C65.3027 100.561 65.4903 99.8104 66.07 99.4694C66.6497 99.1284 67.3828 99.3159 67.7238 99.8786C68.0648 100.441 67.8943 101.208 67.3146 101.549C67.11 101.669 66.8884 101.72 66.6838 101.72V101.737ZM59.1306 89.3076C58.7555 89.3076 58.3804 89.1201 58.1588 88.7791L58.1247 88.745C57.7496 88.1823 57.903 87.4321 58.4657 87.0741C59.0283 86.699 59.7785 86.8524 60.1366 87.4151C60.5117 87.9777 60.3753 88.745 59.8126 89.1201C59.608 89.2565 59.3693 89.3247 59.1306 89.3247V89.3076ZM51.5775 76.8782C51.1853 76.8782 50.7932 76.6736 50.5715 76.2985V76.2644C50.1964 75.7017 50.384 74.9515 50.9637 74.6105C51.5434 74.2695 52.2765 74.4571 52.6175 75.0197C52.9585 75.5824 52.788 76.3496 52.2083 76.6906C52.0037 76.81 51.7821 76.8611 51.5775 76.8611V76.8782ZM44.0414 64.4488C43.6493 64.4488 43.2742 64.2612 43.0355 63.9032V63.8691C42.6604 63.3064 42.8309 62.5562 43.3935 62.1982C43.9562 61.8401 44.7064 62.0106 45.0644 62.5733C45.4224 63.1359 45.2519 63.9032 44.6893 64.2612C44.4847 64.3976 44.2631 64.4488 44.0414 64.4488ZM36.4883 52.0193C36.0961 52.0193 35.704 51.8147 35.4823 51.4396V51.4055C35.1072 50.8429 35.2948 50.0927 35.8745 49.7517C36.4542 49.4107 37.1873 49.5982 37.5283 50.1609C37.8693 50.7235 37.6988 51.4908 37.1191 51.8318C36.9145 51.9511 36.6929 52.0023 36.4883 52.0023V52.0193ZM28.9522 39.5899C28.56 39.5899 28.1849 39.4024 27.9462 39.0443V39.0102C27.5711 38.4476 27.7416 37.6974 28.3043 37.3393C28.8669 36.9813 29.6171 37.1518 29.9752 37.7144C30.3332 38.2771 30.1627 39.0443 29.6001 39.4024C29.3955 39.5388 29.1738 39.5899 28.9522 39.5899Z" fill="#612A7A"/>
<path d="M211.898 205.52C211.727 205.52 211.557 205.486 211.403 205.418C210.789 205.145 210.517 204.446 210.807 203.832V203.781C211.113 203.167 211.83 202.912 212.426 203.184C213.04 203.457 213.296 204.173 213.023 204.787C212.818 205.23 212.358 205.503 211.898 205.503V205.52ZM217.968 192.306C217.797 192.306 217.627 192.272 217.473 192.204C216.859 191.931 216.586 191.232 216.876 190.619V190.567C217.183 189.954 217.899 189.698 218.496 189.971C219.11 190.243 219.366 190.96 219.093 191.573C218.888 192.017 218.428 192.289 217.968 192.289V192.306ZM224.037 179.093C223.867 179.093 223.696 179.059 223.543 178.99C222.929 178.718 222.656 178.019 222.946 177.405V177.354C223.253 176.74 223.969 176.484 224.566 176.757C225.18 177.03 225.435 177.746 225.163 178.36C224.958 178.803 224.498 179.076 224.037 179.076V179.093ZM230.107 165.879C229.937 165.879 229.766 165.845 229.613 165.777C228.999 165.504 228.726 164.805 229.016 164.191V164.14C229.323 163.526 230.039 163.27 230.636 163.543C231.249 163.816 231.505 164.532 231.232 165.146C231.028 165.589 230.567 165.862 230.107 165.862V165.879ZM236.177 152.665C236.006 152.665 235.836 152.631 235.682 152.563C235.069 152.29 234.796 151.591 235.086 150.977V150.926C235.393 150.312 236.109 150.057 236.705 150.329C237.319 150.602 237.575 151.318 237.302 151.932C237.098 152.375 236.637 152.648 236.177 152.648V152.665ZM242.247 139.452C242.076 139.452 241.906 139.417 241.752 139.349C241.138 139.076 240.866 138.377 241.155 137.764V137.712C241.462 137.099 242.178 136.843 242.775 137.116C243.389 137.389 243.645 138.105 243.372 138.718C243.167 139.162 242.707 139.435 242.247 139.435V139.452ZM248.316 126.238C248.146 126.238 247.975 126.204 247.822 126.136C247.208 125.863 246.935 125.164 247.225 124.55V124.499C247.532 123.885 248.248 123.629 248.845 123.902C249.459 124.175 249.715 124.891 249.442 125.505C249.237 125.948 248.777 126.221 248.316 126.221V126.238ZM254.386 113.024C254.216 113.024 254.045 112.99 253.892 112.922C253.278 112.649 253.005 111.95 253.295 111.336V111.285C253.602 110.671 254.318 110.416 254.915 110.688C255.529 110.961 255.784 111.677 255.512 112.291C255.307 112.734 254.847 113.007 254.386 113.007V113.024ZM260.456 99.8104C260.286 99.8104 260.115 99.7763 259.962 99.7081C259.348 99.4353 259.075 98.7363 259.365 98.1225V98.0713C259.672 97.4575 260.388 97.2018 260.985 97.4746C261.598 97.7474 261.854 98.4635 261.581 99.0773C261.377 99.5206 260.916 99.7934 260.456 99.7934V99.8104ZM266.526 86.5967C266.355 86.5967 266.185 86.5626 266.031 86.4944C265.418 86.2216 265.145 85.5226 265.435 84.9088V84.8576C265.741 84.2438 266.458 83.9881 267.054 84.2609C267.668 84.5337 267.924 85.2498 267.651 85.8636C267.446 86.3069 266.986 86.5797 266.526 86.5797V86.5967ZM272.596 73.383C272.425 73.383 272.255 73.3489 272.101 73.2807C271.487 73.0079 271.215 72.3089 271.504 71.6951V71.6439C271.811 71.0301 272.527 70.7744 273.124 71.0472C273.738 71.32 273.994 72.0361 273.721 72.6498C273.516 73.0931 273.056 73.366 272.596 73.366V73.383ZM278.665 60.1693C278.495 60.1693 278.324 60.1352 278.171 60.067C277.557 59.7942 277.284 59.0951 277.574 58.4813V58.4302C277.881 57.8164 278.597 57.5606 279.194 57.8334C279.808 58.1062 280.063 58.8223 279.791 59.4361C279.586 59.8794 279.126 60.1522 278.665 60.1522V60.1693ZM284.735 46.9556C284.565 46.9556 284.394 46.9215 284.241 46.8533C283.627 46.5805 283.354 45.8814 283.644 45.2676V45.2165C283.951 44.6027 284.667 44.3469 285.264 44.6197C285.878 44.8925 286.133 45.6086 285.86 46.2224C285.656 46.6657 285.196 46.9385 284.735 46.9385V46.9556Z" fill="#612A7A"/>
<path d="M224.189 91.149V114.115H218.444V125.607H212.698V131.353H206.969V137.082H195.511V142.827H184.207V144.311C184.207 144.311 184.088 144.26 184.003 144.26C161.036 144.26 142.35 125.573 142.35 102.624C142.35 79.6744 161.036 60.9706 184.003 60.9706C184.071 60.9706 184.122 60.9535 184.207 60.9194V62.4539H195.477V68.1998H206.952V73.9285H212.681V79.6744H218.427V91.132H224.172L224.189 91.149Z" fill="white"/>
<path d="M195.492 119.861H184.205V125.675H195.492V119.861Z" fill="#612A7A"/>
<path d="M206.897 85.3861H195.61V91.2001H206.897V85.3861Z" fill="#612A7A"/>
<path d="M201.257 114.115H195.511V119.861H201.257V114.115Z" fill="#612A7A"/>
<path d="M207.001 108.386H201.255V114.132H207.001V108.386Z" fill="#612A7A"/>
<path d="M212.695 91.2002H206.949V96.946H212.695V91.2002Z" fill="#612A7A"/>
<path d="M195.595 91.149H189.85V96.8949H195.595V91.149Z" fill="#612A7A"/>
<path d="M229.918 91.149H224.189V114.115H229.918V91.149Z" fill="#612A7A"/>
<path d="M224.187 114.115H218.441V125.607H224.187V114.115Z" fill="#612A7A"/>
<path d="M224.187 79.6915H218.441V91.1491H224.187V79.6915Z" fill="#612A7A"/>
<path d="M218.427 125.624H212.681V131.37H218.427V125.624Z" fill="#612A7A"/>
<path d="M218.427 73.9457H212.681V79.6915H218.427V73.9457Z" fill="#612A7A"/>
<path d="M212.695 131.37H206.966V137.099H212.695V131.37Z" fill="#612A7A"/>
<path d="M212.695 68.2169H206.966V73.9457H212.695V68.2169Z" fill="#612A7A"/>
<path d="M206.968 137.099H195.511V142.844H206.968V137.099Z" fill="#612A7A"/>
<path d="M206.969 62.4711H195.494V68.2169H206.969V62.4711Z" fill="#612A7A"/>
<path d="M195.492 56.674V62.4709H184.222V60.9364C184.222 60.9364 184.103 60.9876 184.018 60.9876C161.052 60.9876 142.365 79.6743 142.365 102.641C142.365 125.607 161.052 144.277 184.018 144.277C184.086 144.277 184.137 144.328 184.222 144.328V142.844H195.492V148.676H184.222V148.624C184.222 148.624 184.103 148.641 184.018 148.641C158.647 148.641 138 127.994 138 102.641C138 77.2874 158.647 56.6228 184.018 56.6228C184.086 56.6228 184.171 56.6399 184.274 56.674H195.492Z" fill="#612A7A"/>
<path d="M184.206 124.959H184.138C164.343 124.294 161.529 108.898 161.512 108.744C161.308 107.551 162.109 106.426 163.303 106.221C164.496 106.016 165.621 106.818 165.826 108.011C165.911 108.523 168.196 120.066 184.291 120.594C185.502 120.645 186.439 121.651 186.405 122.845C186.371 124.021 185.399 124.959 184.223 124.959H184.206Z" fill="#612A7A"/>
<path d="M176.192 99.1284C175.152 99.1284 174.214 98.3782 174.044 97.3041C173.992 97.0313 172.765 90.467 166.576 90.467C160.387 90.467 160.301 96.2811 160.301 96.929C160.301 98.1395 159.329 99.1114 158.119 99.1114C156.908 99.1114 155.937 98.1395 155.937 96.929C155.937 93.178 158.153 86.0852 166.576 86.0852C174.487 86.0852 177.743 92.9393 178.357 96.5539C178.562 97.7474 177.76 98.8727 176.567 99.0773C176.448 99.0943 176.328 99.1114 176.209 99.1114L176.192 99.1284Z" fill="#612A7A"/>
<path d="M106.58 114.866L65.5067 140.799L32.4639 88.4381L63.5459 68.8136L78.7545 70.8084L106.58 114.866Z" fill="white"/>
<path d="M65.2516 141.975L31.2881 88.1824L63.3591 67.9441L79.2667 70.0412L107.74 115.155L65.2346 141.992L65.2516 141.975ZM33.641 88.7109L65.7802 139.622L105.404 114.61L78.2607 71.6098L63.7512 69.7002L33.641 88.7109Z" fill="#612A7A"/>
<path d="M64.124 69.7172L68.9321 77.3555L77.8492 71.7291" fill="white"/>
<path d="M68.677 78.5321L62.9482 69.4615L64.3975 68.5408L69.2056 76.1792L78.1057 70.5527L79.0264 71.9849L68.677 78.5321Z" fill="#612A7A"/>
<path d="M63.4586 94.1498L72.9042 88.1823C76.1778 93.3655 74.6092 100.322 69.4261 103.578C64.2429 106.852 57.2865 105.283 54.0299 100.1C50.7563 94.917 52.3249 87.9606 57.5081 84.7041L63.4756 94.1498H63.4586Z" fill="#612A7A"/>
<path d="M64.2946 91.2855L58.3271 81.8399C60.8335 80.2542 63.8684 79.7427 66.7498 80.3906C69.6313 81.0385 72.1547 82.8117 73.7233 85.3181L64.2776 91.2855H64.2946Z" fill="#612A7A"/>
<path d="M60.0663 115.991C59.7764 115.991 59.5036 115.854 59.3502 115.599C59.0944 115.207 59.2138 114.678 59.623 114.422L85.1979 98.276C85.5901 98.0202 86.1186 98.1396 86.3744 98.5488C86.6301 98.9409 86.5108 99.4695 86.1016 99.7252L60.5266 115.872C60.3902 115.957 60.2368 116.008 60.0663 116.008V115.991Z" fill="#612A7A"/>
<path d="M62.6073 120.032C62.3175 120.032 62.0447 119.895 61.8912 119.64C61.6355 119.247 61.7548 118.719 62.164 118.463L87.756 102.317C88.1482 102.061 88.6767 102.18 88.9324 102.59C89.1882 102.982 89.0688 103.51 88.6597 103.766L63.0677 119.912C62.9313 119.998 62.7778 120.049 62.6073 120.049V120.032Z" fill="#612A7A"/>
<path d="M65.1649 124.072C64.8751 124.072 64.6023 123.936 64.4488 123.68C64.1931 123.288 64.3124 122.76 64.7216 122.504L90.2966 106.358C90.6887 106.102 91.2173 106.221 91.473 106.63C91.7288 107.022 91.6094 107.551 91.2002 107.807L65.6253 123.953C65.4889 124.038 65.3354 124.089 65.1649 124.089V124.072Z" fill="#612A7A"/>
<path d="M67.7059 128.113C67.4161 128.113 67.1433 127.977 66.9898 127.721C66.7341 127.329 66.8534 126.801 67.2626 126.545L92.8376 110.399C93.2297 110.143 93.7583 110.262 94.014 110.671C94.2698 111.063 94.1504 111.592 93.7412 111.848L68.1663 127.994C68.0299 128.079 67.8764 128.13 67.7059 128.13V128.113Z" fill="#612A7A"/>
<path d="M39.249 112.82L60.3228 96.1448L78.3616 124.721L54.3723 136.792L39.249 112.82Z" fill="#8DC63F"/>
<path d="M57.2704 110.108C58.3104 109.955 59.2652 110.091 60.1348 110.484C61.0043 110.876 61.7204 111.541 62.3001 112.461C62.8798 113.382 63.1526 114.303 63.1526 115.275C63.1526 116.229 62.8457 117.15 62.266 118.02C61.6863 118.889 60.8338 119.673 59.7426 120.373L57.2363 121.958L59.4016 125.385L56.5202 127.21L48.6602 114.763L54.0479 111.353C55.1562 110.654 56.2303 110.228 57.2704 110.091V110.108ZM59.7256 116.332C59.9472 115.667 59.8279 115.002 59.4016 114.32C58.9754 113.638 58.3957 113.229 57.7137 113.143C57.0317 113.058 56.2474 113.28 55.3778 113.825L53.0249 115.309L55.7529 119.639L58.1058 118.156C58.9754 117.61 59.5039 117.014 59.7256 116.349V116.332Z" fill="#612A7A"/>
<path d="M239.524 156.168L197.454 166.587C190.114 168.405 185.638 175.829 187.455 183.168C189.273 190.508 196.697 194.984 204.036 193.167L246.106 182.748C253.446 180.93 257.922 173.506 256.105 166.167C254.287 158.827 246.863 154.351 239.524 156.168Z" fill="#8DC63F"/>
<path d="M205.248 171.233C206.237 171.42 207.072 171.813 207.737 172.443C208.402 173.074 208.863 173.876 209.118 174.899C209.374 175.905 209.34 176.825 209.05 177.695C208.76 178.564 208.215 179.297 207.413 179.911C206.629 180.525 205.623 180.985 204.413 181.292L201.668 181.974L202.605 185.742L199.451 186.527L196.075 172.887L201.974 171.42C203.185 171.113 204.276 171.062 205.265 171.25L205.248 171.233ZM205.589 177.61C205.981 177.081 206.084 176.433 205.896 175.683C205.708 174.916 205.316 174.387 204.72 174.097C204.123 173.807 203.356 173.773 202.401 174.012L199.826 174.643L201.003 179.383L203.577 178.752C204.532 178.513 205.197 178.138 205.589 177.592V177.61Z" fill="white"/>
<path d="M210.347 170.619C209.921 170.38 209.648 170.022 209.529 169.545C209.41 169.068 209.478 168.624 209.751 168.198C210.024 167.789 210.433 167.516 210.995 167.38C211.558 167.243 212.052 167.294 212.479 167.516C212.905 167.738 213.178 168.079 213.297 168.556C213.416 169.068 213.348 169.528 213.075 169.937C212.803 170.363 212.393 170.636 211.831 170.773C211.268 170.909 210.774 170.858 210.347 170.619ZM210.671 172.614L213.706 171.864L216.298 182.35L213.263 183.1L210.671 172.614Z" fill="white"/>
<path d="M225.812 179.979L222.709 177.337L221.123 181.139L217.816 181.957L220.544 175.683L215.36 171.437L218.77 170.585L221.754 173.091L223.272 169.46L226.511 168.658L223.885 174.745L229.273 179.11L225.829 179.962L225.812 179.979Z" fill="white"/>
<path d="M239.537 171.932L231.609 173.893C231.916 174.507 232.376 174.933 233.007 175.189C233.638 175.427 234.337 175.461 235.138 175.257C235.684 175.12 236.144 174.916 236.537 174.66C236.912 174.387 237.253 174.029 237.525 173.603L239.571 174.95C238.855 176.331 237.56 177.252 235.667 177.712C234.491 178.002 233.382 178.036 232.359 177.797C231.336 177.559 230.467 177.098 229.785 176.399C229.086 175.7 228.608 174.831 228.353 173.791C228.097 172.768 228.114 171.779 228.387 170.824C228.676 169.886 229.188 169.068 229.921 168.403C230.654 167.738 231.558 167.26 232.615 167.005C233.638 166.749 234.627 166.749 235.565 166.971C236.502 167.192 237.321 167.67 237.986 168.386C238.668 169.085 239.145 169.988 239.418 171.08C239.418 171.114 239.469 171.404 239.554 171.915L239.537 171.932ZM231.592 170.329C231.217 170.841 231.063 171.438 231.132 172.137L236.298 170.858C236.025 170.227 235.616 169.767 235.053 169.477C234.491 169.204 233.86 169.136 233.195 169.306C232.513 169.477 231.984 169.818 231.609 170.329H231.592Z" fill="white"/>
<path d="M239.127 161.327L242.162 160.577L245.742 175.035L242.707 175.785L239.127 161.327Z" fill="white"/>
<path d="M229.962 208.536L216.265 217.181C209.647 221.358 207.667 230.105 211.841 236.718C216.015 243.331 224.764 245.306 231.381 241.13L245.078 232.484C251.695 228.307 253.675 219.56 249.501 212.947C245.327 206.334 236.579 204.359 229.962 208.536Z" fill="#612A7A"/>
<path d="M260.779 248.691C255.545 248.691 250.021 247.889 244.309 246.253C223.218 240.2 217.353 230.175 216.159 222.843C214.352 211.812 221.752 201.207 229.885 195.597C236.654 190.926 243.576 189.8 248.401 192.613C250.839 194.029 252.408 196.058 253.039 198.666C254.692 205.418 249.526 213.636 249.305 213.977C249.049 214.369 248.52 214.489 248.128 214.233C247.736 213.977 247.617 213.449 247.872 213.056C247.924 212.971 252.868 205.094 251.385 199.058C250.856 196.927 249.577 195.256 247.548 194.08C243.303 191.625 237.046 192.716 230.839 196.995C223.406 202.127 216.159 212.323 217.83 222.57C218.956 229.424 224.531 238.802 244.769 244.616C261.887 249.526 277.369 246.747 287.258 236.977C295.391 228.93 298.63 217.319 295.698 206.663C292.646 195.546 283.677 187.635 270.447 184.361C269.986 184.242 269.713 183.782 269.816 183.321C269.935 182.861 270.395 182.588 270.856 182.69C284.513 186.066 294.163 194.642 297.351 206.202C300.454 217.455 297.044 229.697 288.468 238.171C281.461 245.093 271.811 248.691 260.779 248.691Z" fill="#612A7A"/>
<path d="M234.317 223.355C234.027 223.355 233.755 223.218 233.601 222.962C233.345 222.57 233.465 222.042 233.874 221.786L248.128 212.784C248.52 212.528 249.048 212.647 249.304 213.056C249.56 213.448 249.441 213.977 249.031 214.233L234.778 223.235C234.641 223.32 234.488 223.372 234.317 223.372V223.355Z" fill="white"/>
<path d="M240.288 235.085C239.998 235.085 239.725 234.949 239.572 234.693L225.437 212.306C225.181 211.914 225.301 211.385 225.71 211.13C226.102 210.874 226.631 210.993 226.886 211.403L241.021 233.789C241.277 234.181 241.157 234.71 240.748 234.966C240.612 235.051 240.458 235.102 240.288 235.102V235.085Z" fill="white"/>
<path d="M236.368 220.47L236.75 221.075C237.368 222.055 238.663 222.347 239.643 221.729L242.8 219.736C243.78 219.118 244.072 217.823 243.454 216.843L243.072 216.238C242.454 215.258 241.159 214.966 240.179 215.584L237.022 217.577C236.042 218.195 235.749 219.49 236.368 220.47Z" fill="#612A7A"/>
<path d="M238.496 222.911C238.274 222.911 238.053 222.894 237.848 222.843C237.081 222.672 236.433 222.212 236.007 221.547L235.615 220.933C234.745 219.569 235.154 217.745 236.535 216.875L239.689 214.881C241.053 214.011 242.878 214.42 243.747 215.801L244.14 216.415C244.566 217.08 244.702 217.864 244.515 218.632C244.327 219.399 243.884 220.047 243.219 220.473L240.065 222.468C239.587 222.775 239.042 222.928 238.496 222.928V222.911ZM241.258 216.108C241.036 216.108 240.798 216.176 240.593 216.296L237.439 218.291C236.859 218.649 236.689 219.416 237.047 219.996L237.439 220.609C237.609 220.882 237.882 221.087 238.206 221.155C238.53 221.223 238.854 221.172 239.144 221.002L242.298 219.007C242.571 218.836 242.776 218.563 242.844 218.239C242.912 217.916 242.844 217.592 242.69 217.302L242.298 216.688C242.059 216.313 241.667 216.108 241.241 216.108H241.258Z" fill="white"/>
</svg>
