<svg width="18" height="18" viewBox="0 0 18 18" fill="none" xmlns="http://www.w3.org/2000/svg">
<path d="M2.4375 6.9375H15.5625M5.52075 3.5625V2.0625M12.4583 3.5625V2.0625M12.9375 3.5625H5.0625C4.36631 3.5625 3.69863 3.83906 3.20634 4.33134C2.71406 4.82363 2.4375 5.49131 2.4375 6.1875V13.3125C2.4375 14.0087 2.71406 14.6764 3.20634 15.1687C3.69863 15.6609 4.36631 15.9375 5.0625 15.9375H12.9375C13.6337 15.9375 14.3014 15.6609 14.7937 15.1687C15.2859 14.6764 15.5625 14.0087 15.5625 13.3125V6.1875C15.5625 5.49131 15.2859 4.82363 14.7937 4.33134C14.3014 3.83906 13.6337 3.5625 12.9375 3.5625Z" stroke="#858585" stroke-width="1.5" stroke-linecap="round" stroke-linejoin="round"/>
</svg>
