<svg width="36" height="36" viewBox="0 0 36 36" fill="none" xmlns="http://www.w3.org/2000/svg">
<path d="M5.625 6.75C3.76425 6.75 2.25 8.26425 2.25 10.125V23.625C2.25 25.4858 3.76425 27 5.625 27L12.582 26.9775C13.6958 26.9775 14.7746 27.3263 15.7016 27.945L18 29.475L20.2984 27.9439C21.2222 27.3279 22.3076 26.9991 23.418 26.9989H30.375C32.2358 26.9989 33.75 25.4846 33.75 23.6239V10.125C33.75 8.26425 32.2358 6.75 30.375 6.75H23.418C21.8587 6.75 20.3468 7.209 19.0508 8.073L18 8.77387L16.9493 8.073C15.656 7.21065 14.1364 6.75032 12.582 6.75H5.625ZM5.625 9H12.582C13.6958 9 14.7746 9.32625 15.7016 9.945L18 11.475L20.2984 9.94387C21.2223 9.32828 22.3078 8.99986 23.418 9H30.375C30.996 9 31.5 9.50513 31.5 10.125V23.625C31.5 24.2449 30.996 24.75 30.375 24.75H23.418C21.8587 24.75 20.3468 25.209 19.0508 26.073L18 26.7739L16.9493 26.073C15.656 25.2106 14.1364 24.7503 12.582 24.75H5.625C5.004 24.75 4.5 24.2449 4.5 23.625V10.125C4.5 9.50513 5.004 9 5.625 9ZM6.75 13.5V15.75H15.75V13.5H6.75ZM20.25 13.5V15.75H29.25V13.5H20.25ZM6.75 18V20.25H15.75V18H6.75ZM20.25 18V20.25H29.25V18H20.25Z" fill="#29235C"/>
</svg>
