<svg width="16" height="16" viewBox="0 0 16 16" fill="none" xmlns="http://www.w3.org/2000/svg">
<path d="M13.3334 2.66667H2.66671C1.93337 2.66667 1.33337 3.26667 1.33337 4V12C1.33337 12.7333 1.93337 13.3333 2.66671 13.3333H13.3334C14.0667 13.3333 14.6667 12.7333 14.6667 12V4C14.6667 3.26667 14.0667 2.66667 13.3334 2.66667ZM13.0667 5.5L8.70671 8.22667C8.27337 8.5 7.72671 8.5 7.29337 8.22667L2.93337 5.5C2.86653 5.46247 2.80799 5.41177 2.7613 5.35097C2.71461 5.29016 2.68075 5.22052 2.66176 5.14625C2.64277 5.07198 2.63904 4.99462 2.65081 4.91887C2.66258 4.84312 2.6896 4.77054 2.73023 4.70553C2.77086 4.64053 2.82426 4.58444 2.88719 4.54066C2.95013 4.49689 3.02129 4.46634 3.09637 4.45087C3.17145 4.43539 3.2489 4.43531 3.32401 4.45063C3.39912 4.46595 3.47035 4.49636 3.53337 4.54L8.00004 7.33333L12.4667 4.54C12.5297 4.49636 12.601 4.46595 12.6761 4.45063C12.7512 4.43531 12.8286 4.43539 12.9037 4.45087C12.9788 4.46634 13.05 4.49689 13.1129 4.54066C13.1758 4.58444 13.2292 4.64053 13.2699 4.70553C13.3105 4.77054 13.3375 4.84312 13.3493 4.91887C13.361 4.99462 13.3573 5.07198 13.3383 5.14625C13.3193 5.22052 13.2855 5.29016 13.2388 5.35097C13.1921 5.41177 13.1336 5.46247 13.0667 5.5Z" fill="white"/>
</svg>
