<svg width="25" height="25" viewBox="0 0 25 25" fill="none" xmlns="http://www.w3.org/2000/svg">
<path fill-rule="evenodd" clip-rule="evenodd" d="M19.2708 12.7228C19.2708 12.4466 19.161 12.1816 18.9657 11.9862C18.7703 11.7909 18.5054 11.6812 18.2291 11.6812L5.20829 11.6812C4.93203 11.6812 4.66707 11.7909 4.47172 11.9862C4.27637 12.1816 4.16663 12.4466 4.16663 12.7228C4.16663 12.9991 4.27637 13.264 4.47172 13.4594C4.66707 13.6547 4.93203 13.7645 5.20829 13.7645L18.2291 13.7645C18.5054 13.7645 18.7703 13.6547 18.9657 13.4594C19.161 13.264 19.2708 12.9991 19.2708 12.7228Z"/>
<path fill-rule="evenodd" clip-rule="evenodd" d="M20.8333 12.7229C20.8333 12.4467 20.7235 12.1818 20.5281 11.9865L15.8406 7.29897C15.7445 7.19948 15.6296 7.12012 15.5025 7.06553C15.3754 7.01093 15.2387 6.9822 15.1004 6.981C14.9621 6.97979 14.8249 7.00615 14.6969 7.05853C14.5689 7.1109 14.4526 7.18825 14.3548 7.28605C14.257 7.38386 14.1796 7.50016 14.1273 7.62818C14.0749 7.7562 14.0485 7.89336 14.0497 8.03168C14.0509 8.16999 14.0797 8.30667 14.1343 8.43376C14.1888 8.56085 14.2682 8.67579 14.3677 8.77188L18.3187 12.7229L14.3677 16.674C14.1722 16.8693 14.0624 17.1343 14.0623 17.4106C14.0622 17.6869 14.1718 17.9519 14.3672 18.1474C14.5625 18.3429 14.8275 18.4527 15.1038 18.4528C15.3801 18.4529 15.6451 18.3432 15.8406 18.1479L20.5281 13.4604C20.625 13.3636 20.7018 13.2486 20.7542 13.1221C20.8065 12.9955 20.8334 12.8599 20.8333 12.7229Z"/>
</svg>
