<svg width="46" height="46" viewBox="0 0 46 46" fill="none" xmlns="http://www.w3.org/2000/svg">
<rect width="46" height="46" rx="12" fill="white"/>
<path d="M23 17.7575C20.0975 17.7575 17.7575 20.12 17.7575 23C17.7575 25.88 20.12 28.2425 23 28.2425C25.88 28.2425 28.2425 25.88 28.2425 23C28.2425 20.12 25.88 17.7575 23 17.7575ZM38.75 23C38.75 20.8175 38.75 18.68 38.6375 16.4975C38.525 13.9775 37.94 11.7275 36.095 9.905C34.25 8.06 32.0225 7.475 29.5025 7.3625C27.32 7.25 25.1825 7.25 23 7.25C20.8175 7.25 18.68 7.25 16.4975 7.3625C13.9775 7.475 11.7275 8.06 9.905 9.905C8.06 11.75 7.475 13.9775 7.3625 16.4975C7.25 18.68 7.25 20.8175 7.25 23C7.25 25.1825 7.25 27.32 7.3625 29.5025C7.475 32.0225 8.06 34.2725 9.905 36.095C11.75 37.94 13.9775 38.525 16.4975 38.6375C18.68 38.75 20.8175 38.75 23 38.75C25.1825 38.75 27.32 38.75 29.5025 38.6375C32.0225 38.525 34.2725 37.94 36.095 36.095C37.94 34.25 38.525 32.0225 38.6375 29.5025C38.7725 27.3425 38.75 25.1825 38.75 23ZM23 31.0775C18.5225 31.0775 14.9225 27.4775 14.9225 23C14.9225 18.5225 18.5225 14.9225 23 14.9225C27.4775 14.9225 31.0775 18.5225 31.0775 23C31.0775 27.4775 27.4775 31.0775 23 31.0775ZM31.415 16.475C30.38 16.475 29.525 15.6425 29.525 14.585C29.525 13.5275 30.3575 12.695 31.415 12.695C32.4725 12.695 33.305 13.5275 33.305 14.585C33.3107 14.8315 33.2657 15.0765 33.1728 15.3048C33.0799 15.5332 32.9411 15.74 32.765 15.9125C32.5925 16.0886 32.3857 16.2274 32.1573 16.3203C31.929 16.4132 31.684 16.4582 31.4375 16.4525L31.415 16.475Z" fill="#602B7A"/>
</svg>
