<svg width="100" height="18" viewBox="0 0 100 18" fill="none" xmlns="http://www.w3.org/2000/svg">
<path fill-rule="evenodd" clip-rule="evenodd" d="M9.00001 13.8751L5.49601 15.7171C5.37215 15.7822 5.23254 15.8114 5.09296 15.8013C4.95339 15.7912 4.81942 15.7423 4.7062 15.66C4.59299 15.5778 4.50503 15.4655 4.45229 15.3359C4.39955 15.2063 4.38412 15.0645 4.40776 14.9266L5.07676 11.0251L2.24176 8.26131C2.14147 8.1636 2.07053 8.03976 2.03698 7.90382C2.00343 7.76787 2.00861 7.62525 2.05193 7.4921C2.09525 7.35895 2.17497 7.24058 2.28209 7.15039C2.3892 7.06021 2.51942 7.00181 2.65801 6.98181L6.57526 6.41256L8.32726 2.86281C8.38915 2.73721 8.48497 2.63145 8.60387 2.55749C8.72276 2.48353 8.85999 2.44434 9.00001 2.44434C9.14003 2.44434 9.27725 2.48353 9.39615 2.55749C9.51505 2.63145 9.61086 2.73721 9.67276 2.86281L11.4248 6.41256L15.342 6.98256C15.4804 7.00267 15.6105 7.06109 15.7175 7.15122C15.8244 7.24136 15.9041 7.35961 15.9474 7.49263C15.9907 7.62565 15.9959 7.76812 15.9625 7.90395C15.9291 8.03979 15.8583 8.16357 15.7583 8.26131L12.9225 11.0251L13.5915 14.9266C13.615 15.0644 13.5996 15.206 13.5469 15.3356C13.4941 15.4651 13.4063 15.5772 13.2932 15.6595C13.1801 15.7417 13.0463 15.7906 12.9068 15.8008C12.7674 15.811 12.6278 15.782 12.504 15.7171L9.00001 13.8751Z" fill="#FFD631"/>
<path fill-rule="evenodd" clip-rule="evenodd" d="M27 13.8751L23.496 15.7171C23.3721 15.7822 23.2325 15.8114 23.093 15.8013C22.9534 15.7912 22.8194 15.7423 22.7062 15.66C22.593 15.5778 22.505 15.4655 22.4523 15.3359C22.3996 15.2063 22.3841 15.0645 22.4078 14.9266L23.0768 11.0251L20.2418 8.26131C20.1415 8.1636 20.0705 8.03976 20.037 7.90382C20.0034 7.76787 20.0086 7.62525 20.0519 7.4921C20.0952 7.35895 20.175 7.24058 20.2821 7.15039C20.3892 7.06021 20.5194 7.00181 20.658 6.98181L24.5753 6.41256L26.3273 2.86281C26.3892 2.73721 26.485 2.63145 26.6039 2.55749C26.7228 2.48353 26.86 2.44434 27 2.44434C27.14 2.44434 27.2773 2.48353 27.3961 2.55749C27.515 2.63145 27.6109 2.73721 27.6728 2.86281L29.4248 6.41256L33.342 6.98256C33.4804 7.00267 33.6105 7.06109 33.7175 7.15122C33.8244 7.24136 33.9041 7.35961 33.9474 7.49263C33.9907 7.62565 33.9959 7.76812 33.9625 7.90395C33.9291 8.03979 33.8583 8.16357 33.7583 8.26131L30.9225 11.0251L31.5915 14.9266C31.615 15.0644 31.5996 15.206 31.5469 15.3356C31.4941 15.4651 31.4063 15.5772 31.2932 15.6595C31.1801 15.7417 31.0463 15.7906 30.9068 15.8008C30.7674 15.811 30.6278 15.782 30.504 15.7171L27 13.8751Z" fill="#FFD631"/>
<path fill-rule="evenodd" clip-rule="evenodd" d="M45 13.8751L41.496 15.7171C41.3721 15.7822 41.2325 15.8114 41.093 15.8013C40.9534 15.7912 40.8194 15.7423 40.7062 15.66C40.593 15.5778 40.505 15.4655 40.4523 15.3359C40.3996 15.2063 40.3841 15.0645 40.4078 14.9266L41.0768 11.0251L38.2418 8.26131C38.1415 8.1636 38.0705 8.03976 38.037 7.90382C38.0034 7.76787 38.0086 7.62525 38.0519 7.4921C38.0952 7.35895 38.175 7.24058 38.2821 7.15039C38.3892 7.06021 38.5194 7.00181 38.658 6.98181L42.5753 6.41256L44.3273 2.86281C44.3892 2.73721 44.485 2.63145 44.6039 2.55749C44.7228 2.48353 44.86 2.44434 45 2.44434C45.14 2.44434 45.2773 2.48353 45.3961 2.55749C45.515 2.63145 45.6109 2.73721 45.6728 2.86281L47.4248 6.41256L51.342 6.98256C51.4804 7.00267 51.6105 7.06109 51.7175 7.15122C51.8244 7.24136 51.9041 7.35961 51.9474 7.49263C51.9907 7.62565 51.9959 7.76812 51.9625 7.90395C51.9291 8.03979 51.8583 8.16357 51.7583 8.26131L48.9225 11.0251L49.5915 14.9266C49.615 15.0644 49.5996 15.206 49.5469 15.3356C49.4941 15.4651 49.4063 15.5772 49.2932 15.6595C49.1801 15.7417 49.0463 15.7906 48.9068 15.8008C48.7674 15.811 48.6278 15.782 48.504 15.7171L45 13.8751Z" fill="#FFD631"/>
<path fill-rule="evenodd" clip-rule="evenodd" d="M63 13.8751L59.496 15.7171C59.3721 15.7822 59.2325 15.8114 59.093 15.8013C58.9534 15.7912 58.8194 15.7423 58.7062 15.66C58.593 15.5778 58.505 15.4655 58.4523 15.3359C58.3996 15.2063 58.3841 15.0645 58.4078 14.9266L59.0768 11.0251L56.2418 8.26131C56.1415 8.1636 56.0705 8.03976 56.037 7.90382C56.0034 7.76787 56.0086 7.62525 56.0519 7.4921C56.0952 7.35895 56.175 7.24058 56.2821 7.15039C56.3892 7.06021 56.5194 7.00181 56.658 6.98181L60.5753 6.41256L62.3273 2.86281C62.3892 2.73721 62.485 2.63145 62.6039 2.55749C62.7228 2.48353 62.86 2.44434 63 2.44434C63.14 2.44434 63.2773 2.48353 63.3961 2.55749C63.515 2.63145 63.6109 2.73721 63.6728 2.86281L65.4248 6.41256L69.342 6.98256C69.4804 7.00267 69.6105 7.06109 69.7175 7.15122C69.8244 7.24136 69.9041 7.35961 69.9474 7.49263C69.9907 7.62565 69.9959 7.76812 69.9625 7.90395C69.9291 8.03979 69.8583 8.16357 69.7583 8.26131L66.9225 11.0251L67.5915 14.9266C67.615 15.0644 67.5996 15.206 67.5469 15.3356C67.4941 15.4651 67.4063 15.5772 67.2932 15.6595C67.1801 15.7417 67.0463 15.7906 66.9068 15.8008C66.7674 15.811 66.6278 15.782 66.504 15.7171L63 13.8751Z" fill="#FFD631"/>
<path fill-rule="evenodd" clip-rule="evenodd" d="M81 13.8751L77.496 15.7171C77.3721 15.7822 77.2325 15.8114 77.093 15.8013C76.9534 15.7912 76.8194 15.7423 76.7062 15.66C76.593 15.5778 76.505 15.4655 76.4523 15.3359C76.3996 15.2063 76.3841 15.0645 76.4078 14.9266L77.0768 11.0251L74.2418 8.26131C74.1415 8.1636 74.0705 8.03976 74.037 7.90382C74.0034 7.76787 74.0086 7.62525 74.0519 7.4921C74.0952 7.35895 74.175 7.24058 74.2821 7.15039C74.3892 7.06021 74.5194 7.00181 74.658 6.98181L78.5753 6.41256L80.3273 2.86281C80.3892 2.73721 80.485 2.63145 80.6039 2.55749C80.7228 2.48353 80.86 2.44434 81 2.44434C81.14 2.44434 81.2773 2.48353 81.3961 2.55749C81.515 2.63145 81.6109 2.73721 81.6728 2.86281L83.4248 6.41256L87.342 6.98256C87.4804 7.00267 87.6105 7.06109 87.7175 7.15122C87.8244 7.24136 87.9041 7.35961 87.9474 7.49263C87.9907 7.62565 87.9959 7.76812 87.9625 7.90395C87.9291 8.03979 87.8583 8.16357 87.7583 8.26131L84.9225 11.0251L85.5915 14.9266C85.615 15.0644 85.5996 15.206 85.5469 15.3356C85.4941 15.4651 85.4063 15.5772 85.2932 15.6595C85.1801 15.7417 85.0463 15.7906 84.9068 15.8008C84.7674 15.811 84.6278 15.782 84.504 15.7171L81 13.8751Z" fill="#FFD631"/>
</svg>
