<svg width="169" height="142" viewBox="0 0 169 142" fill="none" xmlns="http://www.w3.org/2000/svg">
<path d="M155.972 66.4963L100.279 21.9111L95.7137 93.1256L118.235 83.2347L126.604 102.104L141.821 95.4081L133.299 76.5393L155.972 66.4963Z" fill="#FFD631"/>
<path d="M126.299 103.17L117.93 84.1489L94.9528 94.3441L99.8221 20.3906L157.494 66.6496L134.516 76.8448L142.886 95.8658L126.299 103.17ZM118.691 82.1707L127.06 101.192L140.755 95.105L132.386 76.084L154.45 66.3453L101.039 23.434L96.6266 92.0616L118.691 82.1707Z" fill="#684B99"/>
<path d="M113.365 73.9511L132.386 67.1035C132.386 67.1035 132.082 73.038 123.865 76.3857C115.648 79.7334 113.365 73.9511 113.365 73.9511Z" fill="#95C11F"/>
<path d="M115.496 57.064C121.582 70.9113 99.6701 80.1935 94.0399 66.1941C87.9532 52.3468 109.865 43.0646 115.496 57.064Z" fill="white"/>
<path d="M104.083 73.9526C103.474 73.9526 103.018 73.9526 102.561 73.8004C98.3005 73.1917 95.1049 70.6049 93.4311 66.4963C91.6051 62.3878 92.0616 58.2793 94.4963 54.7794C97.3874 50.9752 102.409 48.8449 107.126 49.4535C111.387 50.0622 114.582 52.6491 116.256 56.7576C118.082 60.8661 117.626 64.9747 115.191 68.4745C112.604 71.8222 108.344 73.9526 104.083 73.9526ZM105.452 50.9752C101.648 50.9752 97.844 52.8012 95.7136 55.8446C93.5833 58.7358 93.1268 62.3878 94.8006 66.0398C96.3223 69.6919 99.0613 71.9744 102.713 72.4309C106.974 73.0396 111.387 71.0614 113.974 67.7137C116.104 64.8225 116.561 61.1705 114.887 57.5184C113.365 53.8664 110.626 51.5839 106.974 51.1274C106.365 50.9752 105.909 50.9752 105.452 50.9752Z" fill="#684B99"/>
<path d="M137.712 47.7822C143.799 61.6295 121.887 70.9117 116.257 56.9123C110.018 42.9129 131.93 33.6306 137.712 47.7822Z" fill="white"/>
<path d="M126.3 64.518C125.691 64.518 125.235 64.518 124.778 64.3658C120.518 63.7571 117.322 61.1703 115.648 57.0618C113.822 52.9532 114.279 48.8447 116.713 45.3448C119.604 41.5406 124.626 39.4103 129.343 40.019C133.604 40.6276 136.799 43.2145 138.473 47.323C140.299 51.4316 139.843 55.6923 137.408 59.0399C134.821 62.5398 130.561 64.518 126.3 64.518ZM127.669 41.5406C123.865 41.5406 120.061 43.3667 117.931 46.41C115.8 49.3012 115.344 52.9532 117.018 56.6052C118.539 60.2573 121.278 62.5398 124.93 62.9963C129.039 63.605 133.604 61.6268 136.191 58.2791C138.321 55.3879 138.778 51.7359 137.104 48.0839C135.582 44.4318 132.843 42.1493 129.191 41.6928C128.582 41.5407 128.126 41.5406 127.669 41.5406Z" fill="#684B99"/>
<path d="M125.386 53.7158C127.669 59.0417 122.647 60.5634 120.669 55.694C118.387 50.9768 123.104 48.3899 125.386 53.7158Z" fill="#95C11F"/>
<path d="M122.648 54.9326C122.8 55.3891 122.191 56.15 120.974 56.6065C120.67 56.15 120.365 55.3891 120.213 54.7805C121.43 54.4761 122.496 54.4761 122.648 54.9326Z" fill="white"/>
<path d="M103.171 63.1494C105.453 68.4753 100.432 69.9969 98.4533 65.1276C96.323 60.4104 100.888 57.8235 103.171 63.1494Z" fill="#95C11F"/>
<path d="M100.584 64.3673C100.736 64.8238 100.127 65.5846 98.91 66.0411C98.6057 65.5846 98.3013 64.8238 98.1492 64.2151C99.2143 63.7586 100.279 63.9108 100.584 64.3673Z" fill="white"/>
<path d="M12.7825 31.4977C19.8418 31.4977 25.5646 28.0232 25.5646 23.7371C25.5646 19.4511 19.8418 15.9766 12.7825 15.9766C5.72312 15.9766 0.000366211 19.4511 0.000366211 23.7371C0.000366211 28.0232 5.72312 31.4977 12.7825 31.4977Z" fill="#95C11F"/>
<path d="M16.4344 30.5851L23.4342 34.5414L20.6952 28.1504L16.4344 30.5851Z" fill="#95C11F"/>
<path d="M147.755 29.824C159.353 29.824 168.754 24.1012 168.754 17.0418C168.754 9.98249 159.353 4.25977 147.755 4.25977C136.158 4.25977 126.756 9.98249 126.756 17.0418C126.756 24.1012 136.158 29.824 147.755 29.824Z" fill="#95C11F"/>
<path d="M142.125 28.3035L133.299 35.9119L135.582 25.5645L142.125 28.3035Z" fill="#95C11F"/>
<path d="M10.1956 25.5625C11.12 25.5625 11.8694 24.8131 11.8694 23.8887C11.8694 22.9642 11.12 22.2148 10.1956 22.2148C9.27112 22.2148 8.52173 22.9642 8.52173 23.8887C8.52173 24.8131 9.27112 25.5625 10.1956 25.5625Z" fill="white"/>
<path d="M15.5212 25.5625C16.4457 25.5625 17.1951 24.8131 17.1951 23.8887C17.1951 22.9642 16.4457 22.2148 15.5212 22.2148C14.5968 22.2148 13.8474 22.9642 13.8474 23.8887C13.8474 24.8131 14.5968 25.5625 15.5212 25.5625Z" fill="white"/>
<path d="M141.668 19.1702C142.761 19.1702 143.647 18.2846 143.647 17.1921C143.647 16.0995 142.761 15.2139 141.668 15.2139C140.576 15.2139 139.69 16.0995 139.69 17.1921C139.69 18.2846 140.576 19.1702 141.668 19.1702Z" fill="white"/>
<path d="M154.602 19.1702C155.695 19.1702 156.581 18.2846 156.581 17.1921C156.581 16.0995 155.695 15.2139 154.602 15.2139C153.51 15.2139 152.624 16.0995 152.624 17.1921C152.624 18.2846 153.51 19.1702 154.602 19.1702Z" fill="white"/>
<path d="M148.059 19.1702C149.152 19.1702 150.038 18.2846 150.038 17.1921C150.038 16.0995 149.152 15.2139 148.059 15.2139C146.967 15.2139 146.081 16.0995 146.081 17.1921C146.081 18.2846 146.967 19.1702 148.059 19.1702Z" fill="white"/>
<path d="M84.4529 141.364C83.8443 141.364 83.3878 140.907 83.3878 140.299C83.3878 139.69 83.8443 139.234 84.4529 139.234C85.0616 139.234 85.5181 139.69 85.5181 140.299C85.5181 140.907 85.0616 141.364 84.4529 141.364ZM71.3665 139.994C70.7578 139.842 70.4535 139.233 70.4535 138.777C70.6057 138.168 71.0622 137.864 71.6708 137.864L71.3665 139.994ZM96.6264 137.864C96.322 137.864 96.0177 137.712 95.8655 137.56C95.409 137.103 95.5612 136.494 96.0177 136.038L96.7785 136.799L97.3872 137.712C97.0829 137.712 96.7785 137.864 96.6264 137.864ZM59.0409 136.342C58.8888 136.342 58.8887 136.342 58.7366 136.342H58.5844C57.9758 136.038 57.8236 135.429 57.9757 134.973C58.2801 134.364 58.8888 134.212 59.3453 134.364C59.8018 134.668 60.1061 135.277 59.9539 135.734C59.9539 136.038 59.4974 136.342 59.0409 136.342ZM47.1719 131.169C47.0197 131.169 46.8675 131.169 46.7153 131.016C46.7153 131.016 46.5631 131.016 46.5631 130.864C46.1066 130.56 45.9545 129.951 46.2588 129.343C46.5632 128.886 47.1718 128.734 47.7805 129.038C48.3892 129.343 48.5413 129.951 48.237 130.408C48.0848 131.016 47.6284 131.169 47.1719 131.169ZM115.799 126.756C115.647 126.756 115.647 126.756 115.647 126.756C115.039 126.756 114.582 126.147 114.734 125.538C114.734 124.93 115.343 124.473 115.952 124.625C116.56 124.625 117.017 125.234 116.865 125.843C116.865 126.299 116.408 126.756 115.799 126.756ZM128.734 126.756C128.125 126.756 127.669 126.299 127.669 125.843C127.669 125.234 127.973 124.778 128.582 124.625C129.19 124.625 129.647 124.93 129.799 125.538C129.951 126.147 129.495 126.604 129.038 126.756C129.038 126.756 128.886 126.756 128.734 126.756C128.886 126.756 128.886 126.756 128.734 126.756ZM99.5175 125.843C99.061 125.843 98.6045 125.538 98.4524 124.93C98.3002 124.321 98.7567 123.712 99.2132 123.712C99.8219 123.56 100.431 123.865 100.431 124.473C100.583 125.082 100.126 125.691 99.5175 125.691C99.6697 125.843 99.5175 125.843 99.5175 125.843ZM103.017 124.625C103.017 124.625 102.865 124.625 102.713 124.625H102.561C101.952 124.473 101.648 123.865 101.8 123.256C101.952 122.647 102.561 122.343 103.17 122.495C103.778 122.647 104.083 123.256 103.93 123.865C103.93 124.169 103.626 124.625 103.017 124.625ZM35.3027 124.321C34.8462 124.017 34.6941 123.256 34.9984 122.799C35.3027 122.343 35.9114 122.191 36.5201 122.495L35.9114 123.408L35.3027 124.321ZM90.5397 120.973C90.3875 120.973 90.3875 120.973 90.2353 120.973H90.0831C89.4745 120.669 89.3223 120.06 89.4745 119.604C89.7788 118.995 90.3875 118.843 90.844 118.995C91.3005 119.3 91.6048 119.908 91.4526 120.365C91.4526 120.669 90.9962 120.973 90.5397 120.973ZM139.538 120.517C139.385 120.517 139.233 120.517 139.081 120.365C138.625 120.06 138.32 119.452 138.625 118.995L139.538 119.452L140.451 120.06C140.298 120.213 139.994 120.517 139.538 120.517ZM25.2597 115.952C24.8032 115.495 24.8032 114.887 25.2597 114.43C25.7162 113.974 26.3249 113.974 26.7814 114.278L26.1727 115.191L25.2597 115.952ZM78.2141 115.647C77.7576 115.343 77.4532 114.734 77.7575 114.126C78.0619 113.669 78.6706 113.365 79.1271 113.669L78.6705 114.582L78.2141 115.647ZM94.3439 113.974C94.0395 113.974 93.583 113.821 93.4308 113.365C93.1265 112.908 93.2787 112.148 93.8873 111.843C94.3438 111.539 94.9525 111.691 95.409 112.148C95.409 112.148 95.409 112.148 95.409 112.3C95.7133 112.756 95.5612 113.517 94.9525 113.821C94.8003 113.974 94.496 113.974 94.3439 113.974ZM139.233 107.887C138.777 107.887 138.472 107.583 138.32 107.278C138.016 106.67 138.32 106.061 138.929 105.909C139.538 105.604 140.146 105.909 140.298 106.365C140.603 106.974 140.298 107.583 139.69 107.735C139.538 107.887 139.386 107.887 139.233 107.887ZM68.0188 106.822C67.7145 106.213 68.0188 105.604 68.4753 105.452C68.9318 105.3 69.6927 105.452 69.8448 105.909L68.9318 106.365L68.0188 106.822ZM17.8034 106.213C17.4991 106.213 17.0426 106.061 16.8905 105.757C16.8905 105.757 16.8905 105.757 16.8905 105.604C16.5861 105.148 16.7383 104.387 17.347 104.083C17.8035 103.778 18.5643 103.931 18.8686 104.539C19.173 104.996 19.0208 105.757 18.4121 106.061C18.26 106.213 17.9556 106.213 17.8034 106.213ZM86.2789 103.778C85.9746 103.778 85.8224 103.626 85.5181 103.474L86.1268 102.561L86.8876 101.8C87.3441 102.257 87.3441 102.865 86.8876 103.322C86.7354 103.778 86.5833 103.778 86.2789 103.778ZM75.1707 97.8439C74.7142 97.8439 74.2577 97.5395 74.1055 96.9309C73.9533 96.3222 74.2577 95.7135 74.8664 95.7135C75.475 95.5614 76.0837 96.0179 76.0837 96.6265C76.2359 97.2352 75.7794 97.8439 75.1707 97.8439ZM12.7819 94.344C12.3254 94.344 11.8689 94.0397 11.7167 93.5832C11.5646 92.9745 12.0211 92.3658 12.6298 92.3658C13.2384 92.2137 13.8471 92.6702 13.8471 93.2788C13.9993 93.8875 13.5428 94.4962 13.0863 94.4962C12.9341 94.344 12.9341 94.344 12.7819 94.344ZM12.3254 81.4098C11.5646 81.4098 11.2603 80.8011 11.2603 80.1924V80.0403C11.4124 79.4316 12.0211 79.1272 12.4776 79.2794C13.0862 79.4316 13.3906 80.0403 13.2384 80.4968C13.3906 81.1054 12.9341 81.4098 12.3254 81.4098ZM15.9774 68.932C15.8253 68.932 15.6731 68.932 15.6731 68.932C15.0644 68.7798 14.9123 68.1712 15.0644 67.5625V67.4103C15.3688 66.8017 15.9774 66.6495 16.4339 66.8017C17.0426 67.106 17.1948 67.7147 17.0426 68.1712C16.7383 68.7798 16.4339 68.932 15.9774 68.932ZM21.4555 57.2151C21.3033 57.2151 20.999 57.2151 20.8468 57.0629C20.3903 56.7586 20.2381 56.1499 20.5425 55.5412C20.8468 54.9326 21.4555 54.7804 21.912 55.0847C22.5207 55.3891 22.6728 55.9977 22.3685 56.6064C22.3685 56.6064 22.3685 56.7586 22.2163 56.7586C22.2163 57.0629 21.912 57.2151 21.4555 57.2151ZM29.5204 45.9547L28.6074 45.346L27.6944 44.7373C27.9987 44.2808 28.7595 44.1286 29.216 44.433C29.6725 44.7373 29.8247 45.346 29.5204 45.9547ZM37.7374 36.0638L36.8244 35.4551L36.0636 34.6943C36.5201 34.2378 37.1288 34.2378 37.5853 34.6943C38.1939 34.9986 38.1939 35.6073 37.7374 36.0638ZM47.0197 27.238L46.2588 26.4772L45.6502 25.5642C46.1067 25.1077 46.7153 25.2599 47.1719 25.7164C47.6284 26.1729 47.4762 26.7815 47.0197 27.238ZM57.3671 19.4775L56.7584 18.5645L56.1497 17.6515C56.6062 17.3471 57.3671 17.4993 57.6714 17.9558C57.9758 18.4123 57.8236 19.021 57.3671 19.4775ZM67.8666 12.9343C67.4101 12.9343 67.1058 12.6299 66.9537 12.3256C66.6493 11.7169 66.9537 11.1082 67.5623 10.9561C68.0188 10.6517 68.6275 10.8039 68.9318 11.2604C69.2362 11.7169 69.084 12.4778 68.4753 12.7821C68.4753 12.7821 68.3232 12.7821 68.3232 12.9343C68.171 12.9343 68.0188 12.9343 67.8666 12.9343ZM80.1922 7.60839L79.7357 6.6954L79.4314 5.6302C80.0401 5.47803 80.6487 5.78238 80.8009 6.23889C80.9531 6.84756 80.6487 7.45622 80.1922 7.60839ZM92.2135 4.10852C91.757 4.10852 91.3005 3.8042 91.1483 3.19553C90.9962 2.58686 91.3005 1.97819 91.9092 1.97819C92.5178 1.82602 93.1265 2.28253 93.1265 2.8912C93.1265 3.49987 92.8221 4.10852 92.2135 4.10852ZM117.93 2.28252C117.169 2.28252 116.712 1.67384 116.865 1.06517C116.865 0.456499 117.473 9.28532e-06 118.082 0.152177C118.691 0.152177 119.147 0.760853 118.995 1.36952C118.995 1.97819 118.539 2.28252 117.93 2.28252ZM104.996 2.13036C104.387 2.13036 103.93 1.67384 103.93 1.06517C103.93 0.456499 104.235 0 104.843 0C105.452 0 106.061 0.456499 106.061 1.06517C106.061 1.67384 105.604 2.13036 104.996 2.13036Z" fill="#95C11F"/>
<path d="M45.8023 105.602H36.0636L38.0418 104.233C40.6286 102.407 47.4762 97.2332 47.7805 93.8855C48.237 90.69 40.7808 83.2338 37.8896 80.6469C37.5853 80.3426 37.5853 79.8861 37.8896 79.5818C38.194 79.2774 38.6505 79.2774 38.9548 79.5818C40.02 80.6469 49.9109 89.4727 49.3022 94.1899C48.8457 97.6897 43.672 101.95 40.7808 104.233H45.6502C46.1067 104.233 46.411 104.537 46.411 104.994C46.411 105.45 46.2588 105.602 45.8023 105.602Z" fill="#95C11F"/>
<path d="M28.4555 48.9984C28.6077 48.3897 28.7599 47.7811 28.9121 47.3246C32.2597 36.5207 35.6074 25.5646 39.1073 14.7607C40.3246 11.1086 43.6723 9.13045 47.02 10.1956C50.2155 11.2608 52.1937 14.6085 51.1285 17.804C50.2155 20.9995 49.1503 24.1951 48.0852 27.5428C50.0634 27.3906 51.7372 27.5428 53.2589 28.7601C54.7806 29.9774 55.5414 31.4991 55.8457 33.4773C57.6718 33.173 59.4978 33.3251 61.1716 34.3903C62.6933 35.6077 63.6063 37.1293 63.9107 39.1075C66.954 38.651 69.3887 39.4118 70.9103 42.1508C71.8233 43.6725 71.9755 45.3464 71.519 47.0202C68.78 55.5416 66.1931 64.2152 63.4541 72.7366C59.8021 83.8448 46.8679 89.475 36.2161 84.6057C30.7381 82.171 26.6295 78.2146 23.8905 72.8888C19.6298 64.6717 15.3691 56.6068 11.1084 48.5419C9.43458 45.3464 10.8041 41.5422 14.1518 40.1727C16.2821 39.2597 18.4125 39.7162 20.0863 41.0857C22.521 43.0639 24.8035 45.3464 27.086 47.4767C27.3904 47.9332 27.8469 48.3897 28.4555 48.9984ZM36.3683 33.6295C34.5423 39.7162 32.5641 45.6507 30.7381 51.7374C30.1294 53.5634 29.0642 53.8678 27.5426 52.4983C25.8687 50.8244 24.0427 49.1506 22.3688 47.4767C21.1515 46.2594 19.782 44.8899 18.4125 43.8247C16.8908 42.6074 15.217 42.6074 14.1518 43.6725C13.0866 44.7377 13.0866 45.9551 13.9996 47.7811C18.2603 55.846 22.521 63.9109 26.6295 71.9757C29.2164 76.8451 33.0206 80.345 38.3464 82.171C47.3243 85.5187 57.3674 80.6493 60.4108 71.5192C63.1498 63.15 65.7367 54.7808 68.3235 46.4116C68.9322 44.4334 68.1713 42.7595 66.3453 42.1508C64.5193 41.5422 62.9976 42.4552 62.2368 44.5855C61.476 46.7159 60.8673 48.9984 60.1065 51.1288C59.65 52.4983 59.0413 52.9548 58.1283 52.6504C57.2152 52.3461 56.9109 51.5853 57.2152 50.2157C58.2804 47.0202 59.1934 43.8247 60.2586 40.6292C60.8673 38.651 60.1064 36.9771 58.2804 36.5206C56.4544 35.912 54.9327 36.825 54.3241 38.8032C53.4111 41.6944 52.4981 44.5855 51.5851 47.4767C51.4329 47.9332 51.2807 48.3897 51.1285 48.9984C50.8242 49.9114 50.0634 50.2157 49.1504 49.9114C48.2374 49.6071 47.933 48.9984 48.2374 48.0854C48.3895 47.6289 48.5417 47.3246 48.5417 46.8681C49.759 42.9117 50.9764 38.9553 52.1937 35.1511C52.6502 33.4773 52.3459 32.26 51.2807 31.347C49.4547 29.9774 47.02 30.7383 46.2592 33.0208C44.8897 37.2815 43.6723 41.5422 42.3028 45.8029C41.8463 47.1724 41.0855 47.6289 40.0203 47.0202C39.1073 46.5637 39.1073 45.8029 39.4116 44.8899C40.7811 40.3248 42.1506 35.912 43.6723 31.347C45.194 26.6298 46.5635 21.9125 48.0852 17.1953C48.5417 15.5215 48.0852 14.152 46.8679 13.3912C44.8897 12.1738 42.9115 13.0868 42.1506 15.5215C40.1725 21.7604 38.1943 27.6949 36.3683 33.6295Z" fill="#95C11F"/>
<path d="M36.3683 33.6286C38.1943 27.6941 40.0203 21.6073 41.9985 15.6728C42.7594 13.3903 44.8897 12.4773 46.7157 13.5425C48.0852 14.3033 48.5418 15.6728 47.9331 17.3467C46.4114 22.0639 45.0419 26.781 43.5202 31.4982C42.1507 36.0633 40.7812 40.4762 39.2595 45.0412C38.9552 45.9542 38.9552 46.715 39.8682 47.1715C40.9334 47.628 41.6942 47.1715 42.1507 45.9542C43.5202 41.6935 44.7376 37.4328 46.1071 33.1721C46.8679 30.8896 49.1504 30.1287 51.1286 31.4982C52.1938 32.2591 52.6503 33.6286 52.0416 35.3024C50.8243 39.2588 49.6069 43.2152 48.3896 47.0194C48.2374 47.4759 48.0852 47.7802 48.0852 48.2367C47.7809 49.1497 48.2374 49.7584 48.9982 50.0627C49.9113 50.3671 50.5199 50.0627 50.9765 49.1497C51.1286 48.6932 51.2808 48.2367 51.4329 47.628C52.3459 44.7368 53.2589 41.8457 54.1719 38.9545C54.7806 36.9763 56.3023 36.2155 58.1283 36.672C59.9543 37.2806 60.7152 38.8023 60.1065 40.7805C59.1935 43.976 58.1283 47.1715 57.0632 50.3671C56.6067 51.7366 56.911 52.4974 57.9761 52.8017C59.0413 53.1061 59.65 52.6496 59.9543 51.28C60.7152 49.1497 61.3238 46.8672 62.0847 44.7369C62.6933 42.6065 64.3672 41.8457 66.1932 42.3022C68.0192 42.9108 68.7801 44.4325 68.1714 46.5629C65.5845 54.9321 62.9977 63.3013 60.2586 71.6705C57.2153 80.8006 47.1722 85.5178 38.1943 82.3223C33.0206 80.3441 29.0643 76.9964 26.4774 72.1271C22.2167 64.0622 17.956 55.9973 13.8475 47.9324C12.9345 46.1063 12.9345 44.889 13.9997 43.8238C15.0648 42.7587 16.7387 42.7587 18.2604 43.976C19.6299 45.0412 20.8472 46.4107 22.2167 47.628C24.0427 49.3019 25.7166 50.9757 27.3904 52.6496C28.7599 54.0191 29.9773 53.7147 30.586 51.8887C32.5641 45.802 34.5423 39.7153 36.3683 33.6286Z" fill="white"/>
<path d="M53.715 62.3881C49.4543 76.844 26.6292 69.8443 31.4985 55.3884C35.6071 40.7803 58.4322 47.9321 53.715 62.3881Z" fill="white"/>
<path d="M43.0632 71.0612C39.259 71.0612 35.4548 69.3874 32.868 66.6484C29.9768 63.4529 29.216 59.3443 30.5855 55.0836C31.8028 50.8229 34.8462 47.7796 38.9547 46.8666C43.5197 45.8014 48.8456 47.4752 52.0411 50.9751C54.9323 54.1706 55.6931 58.127 54.3236 62.5398C53.1063 66.9527 50.0629 69.8439 45.9544 70.7569C45.0414 70.9091 44.1284 71.0612 43.0632 71.0612ZM41.998 48.0839C41.085 48.0839 40.3242 48.2361 39.4112 48.3882C35.7592 49.1491 33.1723 51.7359 32.1071 55.5401C30.8898 59.3443 31.4985 62.8442 34.0853 65.5832C36.9765 68.6266 41.5416 70.1482 45.6501 69.2352C49.3021 68.4744 51.889 65.8875 52.9541 62.0833C54.1715 58.2791 53.5628 54.7793 50.976 52.0403C48.6934 49.6056 45.3457 48.0839 41.998 48.0839Z" fill="#95C11F"/>
<path d="M76.6926 69.5433C72.4319 83.9992 49.6067 76.9995 54.4761 62.5436C58.7368 48.0877 81.4098 55.0874 76.6926 69.5433Z" fill="white"/>
<path d="M66.0408 78.2146C62.2366 78.2146 58.4324 76.5407 55.8455 73.8017C52.9543 70.6062 52.1935 66.4977 53.563 62.237C54.7804 57.9763 57.8237 54.9329 61.9322 54.0199C66.4973 52.9547 71.8231 54.6286 75.0187 58.1284C77.9099 61.3239 78.6707 65.2803 77.3012 69.6932C76.0838 73.9539 73.0405 76.9972 68.932 77.9102C68.019 78.2146 67.106 78.2146 66.0408 78.2146ZM64.9756 55.3894C64.0626 55.3894 63.3018 55.5416 62.3888 55.6937C58.7367 56.4546 56.1499 59.0414 55.0847 62.8456C53.8673 66.6498 54.476 70.1497 57.0629 72.8887C59.9541 75.9321 64.5191 77.4537 68.6276 76.5407C72.2796 75.7799 74.8665 73.193 75.9317 69.3888C77.149 65.5846 76.5403 62.0848 73.9535 59.3458C71.671 56.7589 68.3233 55.3894 64.9756 55.3894Z" fill="#95C11F"/>
<path d="M75.6276 67.413C73.9537 73.0432 69.0844 70.9128 70.7582 65.8913C72.1277 60.7176 77.3014 61.7828 75.6276 67.413Z" fill="#95C11F"/>
<path d="M72.8887 66.4982C72.7365 66.9547 71.6714 67.1069 70.6062 66.8026C70.7584 66.1939 70.9105 65.5852 71.2149 64.9766C72.1279 65.2809 73.0409 66.0417 72.8887 66.4982Z" fill="white"/>
<path d="M52.65 60.1052C50.9762 65.7354 46.1069 63.6051 47.7807 58.5835C49.1502 53.562 54.3239 54.6272 52.65 60.1052Z" fill="#95C11F"/>
<path d="M49.9112 59.3439C49.759 59.8004 48.6938 59.9526 47.6287 59.6483C47.7808 59.0396 47.933 58.4309 48.2373 57.8223C49.1503 58.1266 50.0633 58.8874 49.9112 59.3439Z" fill="white"/>
<path d="M42.9113 72.7344L52.1936 75.6256C52.1936 75.6256 48.6937 81.5601 44.7374 81.1036C40.9332 80.4949 42.9113 72.7344 42.9113 72.7344Z" fill="#95C11F"/>
<path d="M11.565 111.995C11.2606 111.995 11.1085 111.843 10.9563 111.539C10.8041 111.234 10.9563 110.778 11.2607 110.473L18.4125 106.517L35.3031 84.3005C35.6075 83.9961 36.064 83.844 36.3683 84.1483C36.6727 84.4526 36.8248 84.9091 36.5205 85.2135L19.3255 107.734L12.0215 111.843C11.8693 111.995 11.7172 111.995 11.565 111.995Z" fill="#95C11F"/>
</svg>
