<svg width="1440" height="650" viewBox="0 0 1440 650" fill="none" xmlns="http://www.w3.org/2000/svg">
<g opacity="0.2">
<path d="M-105.903 277.645C-105.903 277.645 130.13 37.9081 296.283 46.9144C462.437 55.9207 591.792 152.665 853.892 23.3071C1115.99 -106.051 999.02 -289.292 880.874 -238.013C762.727 -186.734 989.816 118.903 1289.13 -131.273C1756.49 -521.923 1994.46 -17.2452 1730.45 196.575" stroke="white" stroke-width="2" stroke-miterlimit="10" stroke-linecap="round" stroke-dasharray="0.3 8"/>
<path d="M106.675 131.206C118.281 126.169 123.605 112.678 118.568 101.072C113.531 89.4669 100.04 84.1423 88.4344 89.1794C76.829 94.2164 71.5044 107.708 76.5415 119.313C81.5786 130.919 95.07 136.243 106.675 131.206Z" fill="white"/>
<path d="M719.182 92.6068C728.277 88.6591 732.45 78.0856 728.502 68.9902C724.555 59.8948 713.981 55.7218 704.886 59.6695C695.79 63.6171 691.617 74.1907 695.565 83.2861C699.513 92.3815 710.086 96.5545 719.182 92.6068Z" fill="white"/>
<path d="M179.613 46.6738L140.236 63.7646L157.327 103.142L196.704 86.0507L179.613 46.6738Z" stroke="white" stroke-width="1.92" stroke-miterlimit="10"/>
<path d="M771.681 46.8259L749.05 56.6484L758.873 79.2794L781.504 69.4568L771.681 46.8259Z" stroke="white" stroke-width="1.92" stroke-miterlimit="10"/>
</g>
</svg>
