<svg width="342" height="139" viewBox="0 0 342 139" fill="none" xmlns="http://www.w3.org/2000/svg">
<g opacity="0.25">
<g clip-path="url(#clip0_449_108427)">
<path d="M277.288 75.5973H13.1966C11.5649 63.3176 13.3077 57.7058 27.9396 53.2152C38.36 33.3053 48.0706 28.2942 72.8095 31.1528C96.8446 -11.6945 165.752 -5.93927 184.343 21.8803C208.237 16.7741 218.939 20.5955 232.417 40.7452C259.327 43.9201 268.749 51.986 277.288 75.5973Z" fill="#CDE8F8"/>
</g>
<g clip-path="url(#clip1_449_108427)">
<path d="M68.8054 113.691H0.129852C-0.294457 110.525 0.158745 109.079 3.96368 107.921C6.67345 102.788 9.19865 101.496 15.6319 102.233C21.8821 91.1863 39.801 92.6701 44.6356 99.8423C50.849 98.5259 53.632 99.5111 57.1371 104.706C64.1346 105.524 66.5848 107.604 68.8054 113.691Z" fill="#CDE8F8"/>
</g>
<g clip-path="url(#clip2_449_108427)">
<path d="M360.268 48.4295H291.593C291.168 45.2636 291.622 43.8169 295.427 42.6591C298.136 37.5261 300.662 36.2342 307.095 36.9712C313.345 25.9246 331.264 27.4084 336.098 34.5806C342.312 33.2642 345.095 34.2493 348.6 39.4442C355.598 40.2627 358.048 42.3422 360.268 48.4295Z" fill="#CDE8F8"/>
</g>
<path d="M212.938 52.9203C235.106 52.4882 257.403 60.3136 268.245 74.3978C279.309 72.2194 288.131 71.9671 295.935 74.9789C303.924 78.0627 310.259 84.3405 316.81 93.8695C329.665 95.5205 339.05 98.4329 346.301 104.164C353.857 110.137 358.625 118.801 362.968 130.81L364.664 135.5H92.5195L92.1162 132.461C91.2977 126.301 91.1204 120.733 93.8418 116.112C96.4243 111.727 101.147 108.943 107.908 106.714C113.023 97.2273 118.353 90.6267 125.839 86.9135C133.122 83.3009 141.902 82.6956 153.324 83.8334C166.428 62.434 190.28 53.362 212.938 52.9203Z" fill="#CDE8F8" stroke="white" stroke-width="7"/>
</g>
<defs>
<clipPath id="clip0_449_108427">
<rect width="264.591" height="75.5973" fill="white" transform="translate(12.6973)"/>
</clipPath>
<clipPath id="clip1_449_108427">
<rect width="68.8054" height="19.4899" fill="white" transform="translate(0 94.2013)"/>
</clipPath>
<clipPath id="clip2_449_108427">
<rect width="68.8054" height="19.4899" fill="white" transform="translate(291.463 28.9396)"/>
</clipPath>
</defs>
</svg>
