<svg width="276" height="175" viewBox="0 0 276 175" fill="none" xmlns="http://www.w3.org/2000/svg">
<g clip-path="url(#clip0_0_1)">
<path d="M186.696 175C186.408 175 186.096 174.88 185.856 174.663L172.42 161.75L172.924 160.931C172.996 160.81 180.698 148.283 183.817 140.477C187.608 130.937 185.688 115.085 185.664 114.916C185.592 114.266 186.048 113.663 186.696 113.567C187.344 113.471 187.944 113.952 188.04 114.603C188.136 115.277 190.079 131.226 186.048 141.368C183.289 148.283 177.291 158.401 175.491 161.364L187.536 172.928C188.016 173.386 188.04 174.157 187.584 174.639C187.344 174.88 187.032 175 186.72 175H186.696Z" fill="#95C11F"/>
<path d="M227.966 170.905C227.75 170.905 227.534 170.856 227.342 170.736L212.25 161.388L212.298 160.666C212.298 160.666 212.922 152.306 212.49 141.995C212.01 130.744 209.035 114.747 208.987 114.603C208.867 113.952 209.299 113.326 209.947 113.206C210.57 113.085 211.218 113.519 211.338 114.169C211.362 114.338 214.385 130.503 214.865 141.923C215.225 150.596 214.865 157.871 214.721 160.136L228.565 168.712C229.141 169.074 229.309 169.796 228.949 170.375C228.733 170.736 228.326 170.953 227.918 170.953L227.966 170.905Z" fill="#95C11F"/>
<path d="M239.65 67.0222C235.38 67.0222 231.661 62.6135 228.35 53.6033C228.11 52.9769 228.446 52.2783 229.045 52.0615C229.669 51.8206 230.365 52.1578 230.581 52.7601C233.436 60.5176 236.579 64.6131 239.674 64.6131C239.746 64.6131 239.794 64.6131 239.866 64.6131C248.648 64.1072 257.861 34.2097 260.669 22.7422L260.837 22.0677L274.465 18.1649C275.113 17.9721 275.761 18.3576 275.953 18.984C276.144 19.6344 275.761 20.2849 275.137 20.4776L262.828 23.995C261.149 30.7165 251.671 66.3477 240.01 67.0222C239.89 67.0222 239.77 67.0222 239.65 67.0222Z" fill="#95C11F"/>
<path d="M227.87 38.8113H166.615C160.811 38.8113 156.105 43.5356 156.105 49.3633V110.869C156.105 116.696 160.811 121.421 166.615 121.421H227.87C233.674 121.421 238.379 116.696 238.379 110.869V49.3633C238.379 43.5356 233.674 38.8113 227.87 38.8113Z" fill="#95C11F"/>
<path d="M226.741 115.109H180.314C175.251 115.109 171.148 110.965 171.148 105.906V59.2649C171.148 54.1816 175.275 50.062 180.314 50.062H226.741C231.804 50.062 235.907 54.2057 235.907 59.2649V105.882C235.907 110.965 231.78 115.085 226.741 115.085V115.109ZM180.314 52.4712C176.571 52.4712 173.548 55.5308 173.548 59.2649V105.882C173.548 109.64 176.595 112.676 180.314 112.676H226.741C230.484 112.676 233.507 109.616 233.507 105.882V59.2649C233.507 55.5067 230.46 52.4712 226.741 52.4712H180.314Z" fill="#684B99"/>
<path d="M196.607 20.8632C196.991 47.0746 155.986 47.0746 156.394 20.8632C156.01 -5.34827 197.015 -5.34827 196.607 20.8632Z" fill="white"/>
<path d="M176.475 41.7263C172.348 41.7263 168.246 40.6904 164.718 38.6426C158.432 34.9566 155.049 28.6447 155.169 20.8632C155.049 13.1057 158.456 6.79378 164.742 3.10779C171.773 -1.01184 181.226 -1.01184 188.256 3.10779C194.518 6.79378 197.925 13.1057 197.805 20.8873C197.901 28.6688 194.518 34.9807 188.232 38.6667C184.729 40.7145 180.602 41.7504 176.475 41.7504V41.7263ZM176.475 2.40914C172.78 2.40914 169.085 3.32461 165.942 5.17965C160.448 8.4079 157.472 13.973 157.568 20.8632C157.472 27.7774 160.448 33.3425 165.942 36.5708C172.252 40.2567 180.722 40.2808 187.032 36.5708C192.527 33.3425 195.502 27.7774 195.406 20.8873C195.502 13.973 192.527 8.4079 187.032 5.17965C183.889 3.32461 180.194 2.40914 176.475 2.40914Z" fill="#684B99"/>
<path d="M238.089 20.8632C238.473 47.0746 197.468 47.0746 197.876 20.8632C197.492 -5.34827 238.497 -5.34827 238.089 20.8632Z" fill="white"/>
<path d="M217.983 41.7263C213.856 41.7263 209.753 40.6904 206.226 38.6426C199.94 34.9566 196.557 28.6447 196.677 20.8632C196.557 13.1057 199.964 6.79378 206.226 3.10779C213.256 -1.01184 222.71 -1.01184 229.74 3.10779C236.002 6.79378 239.409 13.1057 239.289 20.8873C239.385 28.6688 236.002 34.9807 229.74 38.6667C226.237 40.7145 222.11 41.7504 217.983 41.7504V41.7263ZM217.983 2.40914C214.288 2.40914 210.593 3.32461 207.45 5.17965C201.955 8.4079 198.98 13.973 199.076 20.8391C198.98 27.7533 201.955 33.3184 207.45 36.5467C213.76 40.2567 222.23 40.2567 228.54 36.5467C234.035 33.3184 237.01 27.7533 236.914 20.8632C237.01 13.9489 234.035 8.38381 228.54 5.15556C225.397 3.30052 221.702 2.38505 218.007 2.38505L217.983 2.40914Z" fill="#684B99"/>
<path d="M214.528 24.8865C214.624 34.9567 205.482 33.993 205.794 24.8865C205.458 15.7799 214.624 14.7922 214.528 24.8865Z" fill="#602B7A"/>
<path d="M209.586 24.8864C209.586 25.7778 207.931 26.5006 205.891 26.5246C205.747 25.4646 205.747 24.2601 205.891 23.2241C207.931 23.2482 209.586 23.995 209.586 24.8864Z" fill="white"/>
<path d="M173.043 24.8865C173.139 34.9567 163.998 33.993 164.31 24.8865C163.974 15.7799 173.139 14.7922 173.043 24.8865Z" fill="#602B7A"/>
<path d="M168.102 24.8864C168.102 25.7778 166.446 26.5006 164.407 26.5246C164.263 25.4646 164.263 24.2601 164.407 23.2241C166.446 23.2482 168.102 23.995 168.102 24.8864Z" fill="white"/>
<path d="M140.077 114.362C139.789 114.362 139.501 114.266 139.261 114.049L130 105.472L131.224 104.605C136.358 101.039 138.614 93.5229 141.013 85.5487C144.108 75.2857 147.587 63.6496 158.264 58.4217C158.864 58.1326 159.584 58.3736 159.872 58.9758C160.16 59.5781 159.92 60.3009 159.32 60.59C149.579 65.3601 146.388 75.9844 143.316 86.2473C140.965 94.0288 138.758 101.425 133.767 105.689L140.893 112.266C141.373 112.724 141.421 113.471 140.965 113.977C140.725 114.242 140.413 114.362 140.077 114.362Z" fill="#95C11F"/>
<path d="M198.142 45.5087C194.519 45.6774 184.01 45.8942 184.202 49.532C184.394 53.1698 189.936 57.3858 197.566 57.0244C205.196 56.663 215.153 44.7378 198.142 45.5087Z" fill="#602B7A"/>
<path d="M218.656 78.8995V86.6087L190.512 97.3535V89.9333L210.21 82.7541L190.512 75.5026V68.1306L218.656 78.8754V78.8995Z" fill="#602B7A"/>
</g>
<g clip-path="url(#clip1_0_1)">
<path d="M52.623 174C52.4317 174 52.2165 173.952 52.0491 173.856L36.5801 165.289L37.13 164.233C37.2017 164.089 44.5417 150.315 45.6416 142.132C46.9565 132.39 42.2226 114.824 42.1748 114.632C42.0074 113.984 42.366 113.336 43.0116 113.168C43.6571 113 44.3027 113.36 44.47 114.008C44.6613 114.752 49.3953 132.222 48.0085 142.468C47.0044 149.811 41.5531 160.874 39.7839 164.329L53.1968 171.768C53.7706 172.08 53.9858 172.824 53.675 173.4C53.4598 173.808 53.0533 174.024 52.623 174.024V174Z" fill="#602B7A"/>
<path d="M84.4233 173.352C84.2799 173.352 84.1364 173.352 84.0168 173.28L65.6309 166.489L65.87 165.457C65.8939 165.313 69.3129 150.411 71.3451 139.325C73.3057 128.646 65.5831 114.632 65.5113 114.488C65.2005 113.912 65.3918 113.192 65.9656 112.856C66.5394 112.544 67.2567 112.736 67.5914 113.312C67.9261 113.912 75.8161 128.214 73.6882 139.757C71.9428 149.187 69.2172 161.378 68.4282 164.953L84.8298 171.024C85.4514 171.24 85.7622 171.936 85.547 172.56C85.3797 173.04 84.9015 173.352 84.4233 173.352Z" fill="#602B7A"/>
<path d="M13.8666 135.749C13.4601 135.749 13.0776 135.557 12.8624 135.197C12.5038 134.645 12.6711 133.902 13.245 133.542L21.4935 128.358C16.5922 123.727 -1.41121 105.346 0.0950517 87.8999C0.764501 80.149 5.21156 73.6939 13.3167 68.6786C13.8905 68.3426 14.6078 68.5106 14.9664 69.0625C15.3011 69.6384 15.1338 70.3583 14.5839 70.7183C7.17209 75.3017 3.10758 81.1568 2.48594 88.1159C0.884046 106.665 24.004 127.446 24.2431 127.662L25.4385 128.718L14.5121 135.581C14.3209 135.701 14.1057 135.773 13.8666 135.773V135.749Z" fill="#602B7A"/>
<path d="M111.702 111.585L111.319 111.057C110.937 110.529 101.851 97.8346 99.6756 91.5235C97.739 85.8603 97.6672 80.581 97.5955 75.4697C97.4999 68.0067 97.4281 61.5756 91.69 55.1925C91.2596 54.6886 91.2836 53.9447 91.7856 53.4887C92.2638 53.0568 93.0289 53.0808 93.4832 53.5847C99.819 60.6397 99.8908 67.8387 99.9864 75.4457C100.058 80.365 100.106 85.4523 101.923 90.7316C103.74 96.0109 111.104 106.617 112.873 109.113L124.732 108.417C125.402 108.393 125.951 108.873 125.999 109.545C126.047 110.217 125.545 110.769 124.876 110.817L111.702 111.609V111.585Z" fill="#602B7A"/>
<path d="M84.1834 38.6587H23.144C17.3604 38.6587 12.6719 43.3644 12.6719 49.1692V110.433C12.6719 116.238 17.3604 120.943 23.144 120.943H84.1834C89.967 120.943 94.6556 116.238 94.6556 110.433V49.1692C94.6556 43.3644 89.967 38.6587 84.1834 38.6587Z" fill="#602B7A"/>
<path d="M81.0747 117.152H34.8109C29.7662 117.152 25.6777 113.024 25.6777 107.961V61.5276C25.6777 56.4643 29.7901 52.3608 34.8109 52.3608H81.0747C86.1195 52.3608 90.2079 56.4883 90.2079 61.5276V107.961C90.2079 113.024 86.0956 117.152 81.0747 117.152ZM34.8109 54.7605C31.0812 54.7605 28.0686 57.8081 28.0686 61.5276V107.961C28.0686 111.705 31.1051 114.752 34.8109 114.752H81.0747C84.8045 114.752 87.817 111.705 87.817 107.961V61.5276C87.817 57.7841 84.7806 54.7605 81.0747 54.7605H34.8109Z" fill="#684B99"/>
<path d="M53.0294 20.7812C53.412 46.8896 12.5516 46.8896 12.9581 20.7812C12.5755 -5.32715 53.4359 -5.32715 53.0294 20.7812Z" fill="white"/>
<path d="M32.994 41.5623C28.8816 41.5623 24.7932 40.5305 21.2786 38.4908C15.0145 34.8193 11.6433 28.5321 11.7628 20.7812C11.6433 13.0543 15.0384 6.76714 21.2786 3.09564C28.2839 -1.00779 37.704 -1.00779 44.7093 3.09564C50.9496 6.76714 54.3446 13.0543 54.2251 20.8052C54.3207 28.5561 50.9496 34.8433 44.7093 38.5148C41.2186 40.5545 37.1063 41.5863 32.994 41.5863V41.5623ZM32.994 2.39974C29.312 2.39974 25.63 3.31161 22.4979 5.15936C17.0228 8.37492 14.0581 13.9182 14.1537 20.7812C14.0581 27.6683 17.0228 33.2115 22.4979 36.427C28.786 40.1225 37.2258 40.1225 43.5139 36.427C48.989 33.2115 51.9537 27.6683 51.8581 20.8052C51.9537 13.9182 48.989 8.37492 43.5139 5.15936C40.3818 3.31161 36.6998 2.39974 33.0179 2.39974H32.994Z" fill="#684B99"/>
<path d="M94.3927 20.7812C94.7753 46.8896 53.9149 46.8896 54.3214 20.7812C53.9388 -5.32715 94.7992 -5.32715 94.3927 20.7812Z" fill="white"/>
<path d="M74.3572 41.5623C70.2449 41.5623 66.1565 40.5305 62.6419 38.4908C56.3777 34.8193 53.0066 28.5321 53.1261 20.7812C53.0066 13.0543 56.4016 6.76714 62.6419 3.09564C69.6472 -1.00779 79.0673 -1.00779 86.0726 3.09564C92.3128 6.76714 95.7079 13.0543 95.5884 20.8052C95.684 28.5561 92.3128 34.8433 86.0726 38.5148C82.5819 40.5545 78.4696 41.5863 74.3572 41.5863V41.5623ZM74.3572 2.39974C70.6753 2.39974 66.9933 3.31161 63.8612 5.15936C58.3861 8.37492 55.4214 13.9182 55.517 20.7812C55.4214 27.6683 58.3861 33.2115 63.8612 36.427C70.1493 40.1225 78.5891 40.1225 84.8772 36.427C90.3523 33.2115 93.317 27.6683 93.2214 20.8052C93.317 13.9182 90.3523 8.37492 84.8772 5.15936C81.7451 3.31161 78.0631 2.39974 74.3811 2.39974H74.3572Z" fill="#684B99"/>
<path d="M89.1064 26.2764C89.202 36.307 80.0927 35.3471 80.4035 26.2764C80.0688 17.2056 89.202 16.2217 89.1064 26.2764Z" fill="#602B7A"/>
<path d="M84.1821 26.2764C84.1821 27.1643 82.5324 27.8842 80.5002 27.9082C80.3567 26.8523 80.3567 25.6525 80.5002 24.6206C82.5324 24.6446 84.1821 25.3885 84.1821 26.2764Z" fill="white"/>
<path d="M47.7685 26.2764C47.8641 36.307 38.7548 35.3471 39.0656 26.2764C38.7309 17.2056 47.8641 16.2217 47.7685 26.2764Z" fill="#602B7A"/>
<path d="M42.8443 26.2764C42.8443 27.1643 41.1945 27.8842 39.1623 27.9082C39.0188 26.8523 39.0188 25.6525 39.1623 24.6206C41.1945 24.6446 42.8443 25.3885 42.8443 26.2764Z" fill="white"/>
<path d="M35.7207 46.0737C35.7207 46.0737 49.2292 49.1213 55.5173 48.7373C61.8053 48.3534 75.6964 44.3459 75.6964 44.3459C75.6964 44.3459 70.3647 53.7047 55.5173 55.0485C40.6698 56.3923 35.7207 46.0737 35.7207 46.0737Z" fill="#FFD631"/>
<path d="M71.5842 77.4853L51.955 84.7083L71.5842 91.8593V99.2502L43.5391 88.5477V80.8688L71.5842 70.1663V77.5092V77.4853Z" fill="white"/>
</g>
<defs>
<clipPath id="clip0_0_1">
<rect width="146" height="175" fill="white" transform="translate(130)"/>
</clipPath>
<clipPath id="clip1_0_1">
<rect width="126" height="174" fill="white"/>
</clipPath>
</defs>
</svg>