<svg width="36" height="36" viewBox="0 0 36 36" fill="none" xmlns="http://www.w3.org/2000/svg">
<path fill-rule="evenodd" clip-rule="evenodd" d="M16.947 3.29228C17.5389 3.07081 18.1857 3.04194 18.795 3.20978L19.053 3.29228L29.553 7.22978C30.0854 7.42942 30.5501 7.77624 30.8929 8.22983C31.2358 8.68343 31.4427 9.22512 31.4895 9.79178L31.5 10.0393V18.0838C31.4999 20.5144 30.8437 22.8999 29.6004 24.9886C28.3572 27.0772 26.5731 28.7914 24.4365 29.9503L24.0375 30.1588L19.0065 32.6743C18.7295 32.8126 18.4269 32.8922 18.1177 32.9082C17.8085 32.9242 17.4993 32.8763 17.2095 32.7673L16.9935 32.6743L11.9625 30.1588C9.78842 29.0717 7.94816 27.4178 6.63601 25.3717C5.32385 23.3256 4.58847 20.9631 4.5075 18.5338L4.5 18.0838V10.0393C4.50001 9.47097 4.66144 8.91436 4.9655 8.43424C5.26956 7.95411 5.70374 7.57023 6.2175 7.32728L6.447 7.22978L16.947 3.29228ZM23.1495 12.9433L16.2525 19.8403L13.6005 17.1883C13.319 16.907 12.9374 16.7491 12.5395 16.7492C12.1416 16.7494 11.76 16.9076 11.4788 17.189C11.1975 17.4705 11.0396 17.8522 11.0397 18.2501C11.0398 18.648 11.198 19.0295 11.4795 19.3108L15.0855 22.9168C15.2387 23.0701 15.4207 23.1917 15.6209 23.2747C15.8211 23.3576 16.0358 23.4003 16.2525 23.4003C16.4692 23.4003 16.6839 23.3576 16.8841 23.2747C17.0843 23.1917 17.2663 23.0701 17.4195 22.9168L25.2705 15.0643C25.4138 14.9259 25.528 14.7604 25.6067 14.5774C25.6853 14.3944 25.7266 14.1976 25.7284 13.9984C25.7301 13.7992 25.6922 13.6017 25.6167 13.4173C25.5413 13.233 25.4299 13.0655 25.2891 12.9247C25.1483 12.7838 24.9808 12.6725 24.7964 12.597C24.6121 12.5216 24.4146 12.4837 24.2154 12.4854C24.0162 12.4871 23.8194 12.5285 23.6364 12.6071C23.4534 12.6857 23.2879 12.8 23.1495 12.9433Z" fill="#29235C"/>
</svg>
