<svg width="36" height="36" viewBox="0 0 36 36" fill="none" xmlns="http://www.w3.org/2000/svg">
<path d="M34.5007 10.4999C31.8567 10.3544 29.2336 11.0416 27.0007 12.4649C26.4607 11.8499 25.9057 11.2349 25.3207 10.6499L24.8857 10.2449L25.0957 10.0649C25.8292 9.43519 26.352 8.59564 26.5934 7.65953C26.8348 6.72341 26.7832 5.73577 26.4457 4.82987C25.958 3.80714 25.1839 2.94802 24.2173 2.35688C23.2507 1.76574 22.1333 1.46801 21.0007 1.49987V4.49987C21.5344 4.49244 22.0604 4.62754 22.5245 4.89121C22.9885 5.15489 23.3738 5.5376 23.6407 5.99987C23.8957 6.59987 23.6407 7.25987 22.9357 7.96487L22.5907 8.27987C21.0262 6.97604 19.3085 5.86786 17.4757 4.97987C13.6807 3.26987 11.7307 4.06487 10.7707 4.97987C10.4787 5.27357 10.2446 5.61959 10.0807 5.99987L9.81067 6.79487L7.65067 13.3049C9.36067 17.5649 13.5007 25.1399 22.5007 28.4099L30.0007 25.9199C30.2536 25.8257 30.4764 25.6651 30.6457 25.4549L30.9607 25.1849C33.1057 23.0249 31.7257 18.8699 28.8457 14.8349C30.5557 13.8369 32.5248 13.372 34.5007 13.4999V10.4999ZM28.8157 23.0549H28.7257C27.6907 23.6099 23.4007 22.1999 18.5407 17.3399C18.0307 16.8299 17.5507 16.3349 17.1157 15.8399C16.9657 15.6749 16.8307 15.4949 16.6807 15.3149L15.8857 14.3549L15.4657 13.7699C15.2557 13.4849 15.0457 13.1999 14.8657 12.9299C14.6857 12.6599 14.6257 12.5399 14.5057 12.3449C14.3857 12.1499 14.1757 11.8349 14.0407 11.5799C13.9057 11.3249 13.8457 11.2199 13.7557 11.0249C13.6657 10.8299 13.5007 10.6049 13.4107 10.3949C13.3207 10.1849 13.2757 10.0499 13.2007 9.88487C13.1257 9.71987 13.0357 9.47987 12.9757 9.28487C12.9157 9.08987 12.9007 8.99987 12.8707 8.84987C12.8407 8.69987 12.7807 8.48987 12.7507 8.33987C12.7435 8.21998 12.7435 8.09976 12.7507 7.97987C12.7365 7.85026 12.7365 7.71949 12.7507 7.58987L12.9157 7.12487C13.1707 6.85487 14.2807 6.77987 16.2607 7.67987C17.583 8.31722 18.8348 9.09145 19.9957 9.98987C19.3631 10.2681 18.6891 10.4404 18.0007 10.4999V13.4999C19.5946 13.4113 21.1412 12.9267 22.5007 12.0899L23.2357 12.7799C23.8957 13.4249 24.4807 14.0699 25.0207 14.6849C24.1151 16.2267 23.7558 18.0287 24.0007 19.7999L27.0007 19.2149C26.8983 18.6495 26.8983 18.0703 27.0007 17.5049C28.9357 20.4599 29.2957 22.5899 28.8157 23.0549ZM6.60067 16.4999L3.25567 26.5499C3.01424 27.2877 2.95085 28.0722 3.07068 28.8393C3.19051 29.6063 3.49016 30.3341 3.94513 30.9632C4.40011 31.5923 4.99749 32.1047 5.68845 32.4587C6.3794 32.8127 7.14432 32.9981 7.92067 32.9999C8.43105 32.9952 8.93741 32.9091 9.42067 32.7449L19.2007 29.4899C13.6809 26.6709 9.25017 22.103 6.60067 16.4999Z" fill="#29235C"/>
</svg>
