<svg width="36" height="36" viewBox="0 0 36 36" fill="none" xmlns="http://www.w3.org/2000/svg">
<path d="M15.1267 2.3715C15.2756 2.44531 15.4063 2.55118 15.5094 2.6815C15.6125 2.81183 15.6855 2.96338 15.723 3.12525C15.7635 3.303 16.875 8.0595 16.875 11.25C16.875 13.3875 15.8805 15.2933 14.3325 16.5285C13.77 16.9785 13.5 17.469 13.5 17.8785V18.972C13.5 19.0245 13.503 19.074 13.509 19.1205C13.5855 19.6785 13.8623 21.7508 14.121 23.8995C14.3752 26.0078 14.625 28.3073 14.625 29.25C14.625 30.4435 14.1509 31.5881 13.307 32.432C12.4631 33.2759 11.3185 33.75 10.125 33.75C8.93153 33.75 7.78693 33.2759 6.94302 32.432C6.09911 31.5881 5.625 30.4435 5.625 29.25C5.625 28.305 5.87475 26.01 6.129 23.8995C6.38775 21.7508 6.6645 19.6785 6.741 19.1205L6.75 18.972V17.8785C6.75 17.469 6.48 16.9785 5.9175 16.5285C5.12434 15.8962 4.48386 15.0933 4.04369 14.1795C3.60351 13.2656 3.37496 12.2643 3.375 11.25C3.375 8.07075 4.4775 3.339 4.527 3.1275C4.58549 2.87739 4.727 2.65448 4.92845 2.49512C5.12989 2.33576 5.37939 2.24936 5.63625 2.25C6.26625 2.25 6.777 2.76075 6.777 3.39075V10.1363C6.76813 10.2882 6.7905 10.4403 6.84272 10.5833C6.89494 10.7263 6.97591 10.857 7.08063 10.9675C7.18535 11.0779 7.31159 11.1657 7.45157 11.2255C7.59155 11.2852 7.74229 11.3157 7.89449 11.3149C8.04669 11.3141 8.19712 11.2822 8.33649 11.221C8.47585 11.1598 8.6012 11.0707 8.7048 10.9592C8.80839 10.8477 8.88804 10.7162 8.93881 10.5727C8.98958 10.4292 9.01041 10.2768 9 10.125V3.375C9 3.07664 9.11853 2.79049 9.3295 2.57951C9.54048 2.36853 9.82663 2.25 10.125 2.25C10.4234 2.25 10.7095 2.36853 10.9205 2.57951C11.1315 2.79049 11.25 3.07664 11.25 3.375V10.1835C11.2563 10.4789 11.3796 10.7597 11.5929 10.9641C11.8062 11.1686 12.092 11.2799 12.3874 11.2736C12.6828 11.2674 12.9636 11.144 13.168 10.9307C13.3724 10.7174 13.4838 10.4316 13.4775 10.1363V3.38625C13.4775 2.7585 13.986 2.25 14.616 2.25C14.6655 2.25 14.886 2.25 15.1267 2.3715ZM20.25 12.375C20.25 9.68969 21.3167 7.11435 23.2155 5.21555C25.1144 3.31674 27.6897 2.25 30.375 2.25C30.6734 2.25 30.9595 2.36853 31.1705 2.57951C31.3815 2.79049 31.5 3.07664 31.5 3.375V16.8143L31.5427 17.2125C31.7217 18.8918 31.8935 20.5718 32.058 22.2525C32.3348 25.0785 32.625 28.2465 32.625 29.25C32.625 30.4435 32.1509 31.5881 31.307 32.432C30.4631 33.2759 29.3185 33.75 28.125 33.75C26.9315 33.75 25.7869 33.2759 24.943 32.432C24.0991 31.5881 23.625 30.4435 23.625 29.25C23.625 28.2465 23.9152 25.0785 24.192 22.2525C24.3337 20.8193 24.4755 19.4468 24.5813 18.4298L24.6262 18H22.5C21.9033 18 21.331 17.7629 20.909 17.341C20.4871 16.919 20.25 16.3467 20.25 15.75V12.375Z" fill="#29235C"/>
</svg>
