<svg width="342" height="139" viewBox="0 0 342 139" fill="none" xmlns="http://www.w3.org/2000/svg">
<g opacity="0.25">
<g clip-path="url(#clip0_691_35090)">
<path d="M277.288 75.5973H13.1966C11.5649 63.3176 13.3077 57.7058 27.9396 53.2152C38.36 33.3053 48.0706 28.2942 72.8095 31.1528C96.8446 -11.6945 165.752 -5.93927 184.343 21.8803C208.237 16.7741 218.939 20.5955 232.417 40.7452C259.327 43.9201 268.749 51.986 277.288 75.5973Z" fill="#CDE8F8"/>
</g>
<g clip-path="url(#clip1_691_35090)">
<path d="M68.8054 113.691H0.129852C-0.294457 110.525 0.158745 109.078 3.96368 107.921C6.67345 102.788 9.19865 101.496 15.6319 102.233C21.8821 91.1862 39.801 92.67 44.6356 99.8422C50.849 98.5258 53.632 99.5109 57.1371 104.706C64.1346 105.524 66.5848 107.604 68.8054 113.691Z" fill="#CDE8F8"/>
</g>
<g clip-path="url(#clip2_691_35090)">
<path d="M360.268 48.4294H291.593C291.168 45.2635 291.622 43.8167 295.427 42.659C298.136 37.526 300.662 36.234 307.095 36.971C313.345 25.9245 331.264 27.4082 336.098 34.5805C342.312 33.264 345.095 34.2492 348.6 39.4441C355.598 40.2626 358.048 42.3421 360.268 48.4294Z" fill="#CDE8F8"/>
</g>
<path d="M212.938 52.9204C235.106 52.4884 257.403 60.3137 268.245 74.3979C279.309 72.2195 288.131 71.9672 295.935 74.979C303.924 78.0629 310.259 84.3406 316.81 93.8696C329.665 95.5207 339.05 98.433 346.301 104.165C353.857 110.138 358.625 118.801 362.968 130.81L364.664 135.5H92.5195L92.1162 132.461C91.2977 126.302 91.1204 120.733 93.8418 116.112C96.4243 111.727 101.147 108.943 107.908 106.714C113.023 97.2275 118.353 90.6268 125.839 86.9136C133.122 83.301 141.902 82.6958 153.324 83.8335C166.428 62.4341 190.28 53.3621 212.938 52.9204Z" fill="#CDE8F8" stroke="white" stroke-width="7"/>
</g>
<defs>
<clipPath id="clip0_691_35090">
<rect width="264.591" height="75.5973" fill="white" transform="translate(12.6973)"/>
</clipPath>
<clipPath id="clip1_691_35090">
<rect width="68.8054" height="19.4899" fill="white" transform="translate(0 94.2012)"/>
</clipPath>
<clipPath id="clip2_691_35090">
<rect width="68.8054" height="19.4899" fill="white" transform="translate(291.463 28.9395)"/>
</clipPath>
</defs>
</svg>
