<svg width="36" height="36" viewBox="0 0 36 36" fill="none" xmlns="http://www.w3.org/2000/svg">
<path d="M19.5902 3.37508C19.1683 2.95327 18.5961 2.71631 17.9995 2.71631C17.4028 2.71631 16.8307 2.95327 16.4087 3.37508L1.45297 18.3286C1.34837 18.4332 1.2654 18.5574 1.20879 18.694C1.15218 18.8307 1.12305 18.9772 1.12305 19.1251C1.12305 19.273 1.15218 19.4195 1.20879 19.5561C1.2654 19.6928 1.34837 19.817 1.45297 19.9216C1.66421 20.1328 1.95072 20.2515 2.24947 20.2515C2.39739 20.2515 2.54387 20.2224 2.68053 20.1658C2.81719 20.1091 2.94137 20.0262 3.04597 19.9216L17.9995 4.96583L32.953 19.9216C33.1642 20.1328 33.4507 20.2515 33.7495 20.2515C34.0482 20.2515 34.3347 20.1328 34.546 19.9216C34.7572 19.7103 34.8759 19.4238 34.8759 19.1251C34.8759 18.8263 34.7572 18.5398 34.546 18.3286L29.2495 13.0343V5.62508C29.2495 5.32671 29.1309 5.04056 28.92 4.82958C28.709 4.6186 28.4228 4.50008 28.1245 4.50008H25.8745C25.5761 4.50008 25.2899 4.6186 25.079 4.82958C24.868 5.04056 24.7495 5.32671 24.7495 5.62508V8.53433L19.5902 3.37508Z" fill="#29235C"/>
<path d="M18 7.40918L31.5 20.9092V30.3749C31.5 31.27 31.1444 32.1285 30.5115 32.7614C29.8786 33.3943 29.0201 33.7499 28.125 33.7499H7.875C6.97989 33.7499 6.12145 33.3943 5.48851 32.7614C4.85558 32.1285 4.5 31.27 4.5 30.3749V20.9092L18 7.40918Z" fill="#29235C"/>
</svg>
