<svg width="36" height="36" viewBox="0 0 36 36" fill="none" xmlns="http://www.w3.org/2000/svg">
<path d="M13.4997 3C16.4137 2.99955 19.2283 4.05946 21.4183 5.98191C23.6082 7.90435 25.0237 10.558 25.4007 13.4475L28.7757 18.756C28.9977 19.1055 28.9527 19.626 28.4382 19.848L25.4997 21.105V25.5C25.4997 26.2956 25.1836 27.0587 24.621 27.6213C24.0584 28.1839 23.2954 28.5 22.4997 28.5H19.5012L19.4997 33H5.99971V27.459C5.99971 25.689 5.34571 24.0135 4.13371 22.5015C2.72034 20.7368 1.83428 18.6087 1.57759 16.3624C1.32091 14.116 1.70405 11.8429 2.68287 9.80485C3.6617 7.76678 5.19638 6.0467 7.11012 4.84277C9.02385 3.63884 11.2388 3.00006 13.4997 3ZM31.7307 27.153L29.2332 25.488C30.7145 23.272 31.5035 20.6655 31.4997 18C31.5042 15.3341 30.7158 12.7271 29.2347 10.5105L31.7307 8.8455C33.5414 11.5548 34.5052 14.7414 34.4997 18C34.4997 21.387 33.4797 24.534 31.7307 27.153Z" fill="#29235C"/>
</svg>
