<svg width="590" height="605" viewBox="0 0 590 605" fill="none" xmlns="http://www.w3.org/2000/svg">
<path d="M93.0453 229.768C95.8857 229.768 98.7262 229.768 101.567 229.768C103.154 229.977 104.7 230.102 106.245 230.353C121.283 232.608 134.107 239.25 144.466 250.445C152.946 259.593 158.292 270.37 160.464 282.692C160.882 285.031 161.133 287.37 161.467 289.71V298.231C161.383 298.649 161.3 299.025 161.216 299.442C160.924 301.615 160.799 303.828 160.339 306.001C157.206 321.665 149.479 334.572 136.864 344.43C122.578 355.625 106.287 359.844 88.3669 357.546C77.7152 356.168 67.9406 352.325 59.3775 345.767C39.369 330.395 30.6805 310.052 33.7298 285.031C35.5678 269.91 42.5436 257.17 53.7383 246.81C62.9281 238.289 73.7469 232.901 86.1112 230.77C88.4087 230.353 90.7061 230.102 93.0035 229.768H93.0453ZM94.006 274.839C94.006 274.839 93.7554 274.714 93.7136 274.714C85.1505 274.714 76.5873 274.714 68.0242 274.714C67.69 274.714 67.147 275.215 67.1052 275.549C66.5204 279.685 65.8521 283.778 65.5597 287.955C64.9331 295.975 65.5597 303.954 66.9799 311.89C67.147 312.935 67.4811 313.227 68.5672 313.227C76.6291 313.185 84.691 313.227 92.7529 313.227C93.1706 313.227 93.5883 313.227 94.0478 313.185V274.881L94.006 274.839ZM100.648 313.06C100.648 313.06 100.898 313.185 100.982 313.185C109.545 313.185 118.108 313.185 126.671 313.185C127.005 313.185 127.549 312.684 127.59 312.35C128.175 308.256 128.802 304.204 129.136 300.069C129.762 291.965 129.136 283.903 127.674 275.883C127.507 274.964 127.173 274.672 126.212 274.672C118.066 274.672 109.921 274.672 101.776 274.672C101.4 274.672 101.065 274.672 100.606 274.755V313.06H100.648ZM60.6306 274.755H43.0866C38.5753 285.407 38.6171 305.165 43.1702 313.143H60.6306C58.2079 300.32 58.2079 287.621 60.6306 274.755ZM134.023 274.755C136.446 287.621 136.404 300.361 134.023 312.976C134.315 313.102 134.399 313.143 134.483 313.143C139.955 313.143 145.427 313.143 150.899 313.143C151.233 313.143 151.692 312.767 151.818 312.433C153.321 308.173 154.282 303.787 154.742 299.317C155.535 291.255 154.491 283.444 151.985 275.758C151.734 274.964 151.4 274.672 150.523 274.672C145.468 274.714 140.414 274.672 135.36 274.672C134.984 274.672 134.608 274.672 134.023 274.755ZM94.006 236.576C89.2441 237.537 85.4429 240.043 82.1012 243.385C76.6291 248.899 73.1203 255.666 70.4887 262.892C69.8621 264.605 69.3609 266.318 68.7343 268.114H94.006V236.576ZM125.752 268.156C125.669 267.821 125.669 267.571 125.585 267.32C124.165 262.558 122.369 257.963 119.946 253.577C117.106 248.44 113.68 243.803 108.918 240.294C106.412 238.456 103.697 237.119 100.606 236.576V268.114H125.752V268.156ZM94.006 319.785H68.7343C69.2773 321.414 69.695 322.918 70.2381 324.422C72.9114 331.857 76.462 338.833 82.1012 344.514C85.4011 347.855 89.2441 350.403 94.006 351.322V319.785ZM100.606 351.281C104.574 350.654 109.002 348.148 112.511 344.514C117.941 338.958 121.492 332.233 124.123 325.007C124.75 323.294 125.251 321.581 125.836 319.785H100.564V351.281H100.606ZM45.6765 268.239C46.3866 268.239 46.8043 268.239 47.222 268.239C51.6915 268.239 56.1611 268.197 60.6306 268.239C61.7585 268.239 62.2179 267.905 62.4686 266.819C64.4736 259.551 67.3141 252.658 71.4912 246.351C72.7861 244.388 74.2899 242.55 75.8772 240.336C62.385 246.1 52.4434 255.165 45.6347 268.197L45.6765 268.239ZM118.902 240.712C120.322 242.633 121.784 244.471 123.079 246.476C127.256 252.784 130.138 259.676 132.102 266.944C132.394 267.989 132.853 268.281 133.898 268.281C138.326 268.239 142.753 268.281 147.181 268.281C147.682 268.281 148.142 268.281 148.894 268.281C142.127 255.29 132.185 246.226 118.902 240.754V240.712ZM75.8772 347.563C74.2899 345.391 72.7861 343.553 71.4912 341.59C67.2723 335.24 64.3901 328.306 62.4268 320.996C62.1762 320.036 61.8002 319.66 60.7559 319.702C56.2029 319.785 51.6498 319.702 47.0967 319.702C46.7207 319.702 46.303 319.743 45.7182 319.785C52.4434 332.692 62.4268 341.799 75.8772 347.563ZM118.776 347.229C132.143 341.757 142.127 332.692 148.852 319.702C148.142 319.702 147.682 319.702 147.223 319.702C142.837 319.702 138.451 319.743 134.065 319.702C132.895 319.702 132.352 319.994 132.018 321.205C129.679 329.56 126.254 337.454 121.032 344.43C120.322 345.391 119.528 346.31 118.776 347.229Z" fill="#8DC63F"/>
<path d="M314.102 463.813V492.635L341.712 496.561C344.261 510.68 349.774 523.755 357.544 535.158L340.752 557.548L361.136 577.932L383.442 561.223C394.804 569.077 407.837 574.674 421.955 577.305L425.924 605H454.746L458.714 577.389C472.833 574.841 485.908 569.327 497.311 561.558L519.701 578.35L540.085 557.965L523.377 535.659C531.23 524.298 536.827 511.265 539.459 497.146L567.153 493.178V464.356L539.542 460.387C536.994 446.269 531.48 433.194 523.711 421.791L540.503 399.401L520.118 379.017L497.812 395.725C486.451 387.872 473.418 382.275 459.299 379.643L455.331 351.949H426.509L422.582 379.56C408.463 382.108 395.389 387.622 383.985 395.391L361.596 378.599L341.211 398.983L357.92 421.289C350.067 432.651 344.469 445.684 341.838 459.803L314.143 463.771L314.102 463.813ZM440.627 408.633C479.224 408.633 510.469 439.919 510.469 478.474C510.469 517.029 479.182 548.316 440.627 548.316C402.072 548.316 370.785 517.029 370.785 478.474C370.785 439.919 402.072 408.633 440.627 408.633Z" fill="#D1EDF8"/>
<path d="M379.299 247.855V264.396L395.13 266.652C396.592 274.756 399.767 282.274 404.236 288.791L394.587 301.614L406.283 313.31L419.065 303.703C425.582 308.214 433.059 311.431 441.162 312.935L443.418 328.849H459.96L462.215 313.018C470.319 311.556 477.838 308.381 484.354 303.912L497.178 313.561L508.874 301.865L499.266 289.083C503.778 282.567 506.994 275.09 508.498 266.986L524.413 264.73V248.189L508.581 245.933C507.119 237.83 503.945 230.311 499.475 223.794L509.125 210.971L497.429 199.275L484.646 208.882C478.13 204.371 470.653 201.154 462.549 199.651L460.294 183.736H443.752L441.497 199.567C433.393 201.029 425.874 204.204 419.358 208.673L406.534 199.024L394.838 210.72L404.445 223.502C399.934 230.018 396.718 237.495 395.214 245.599L379.299 247.855ZM451.898 216.192C474.036 216.192 491.998 234.154 491.998 256.293C491.998 278.431 474.036 296.393 451.898 296.393C429.759 296.393 411.797 278.431 411.797 256.293C411.797 234.154 429.759 216.192 451.898 216.192Z" fill="#D1EDF8"/>
<path d="M457.713 71.3701H148.52C142.591 71.3701 137.785 76.1764 137.785 82.1053V501.657C137.785 507.586 142.591 512.392 148.52 512.392H457.713C463.642 512.392 468.448 507.586 468.448 501.657V82.1053C468.448 76.1764 463.642 71.3701 457.713 71.3701Z" fill="white"/>
<path d="M457.713 514.523H148.562C141.503 514.523 135.738 508.758 135.738 501.699V82.1469C135.738 75.0875 141.503 69.3231 148.562 69.3231H457.713C464.814 69.3231 470.536 75.0875 470.536 82.1469V501.657C470.536 508.716 464.772 514.481 457.713 514.481V514.523ZM148.562 73.4584C143.8 73.4584 139.915 77.3432 139.915 82.1051V501.657C139.915 506.419 143.8 510.304 148.562 510.304H457.713C462.475 510.304 466.359 506.419 466.359 501.657V82.1469C466.359 77.3849 462.475 73.5002 457.713 73.5002H148.562V73.4584Z" fill="#612A7A"/>
<path d="M166.272 98.8969C169.802 98.8969 172.663 96.0355 172.663 92.5059C172.663 88.9762 169.802 86.1148 166.272 86.1148C162.742 86.1148 159.881 88.9762 159.881 92.5059C159.881 96.0355 162.742 98.8969 166.272 98.8969Z" fill="#612A7A"/>
<path d="M184.356 98.8968C187.886 98.8968 190.747 96.0355 190.747 92.5058C190.747 88.9762 187.886 86.1148 184.356 86.1148C180.826 86.1148 177.965 88.9762 177.965 92.5058C177.965 96.0355 180.826 98.8968 184.356 98.8968Z" fill="#612A7A"/>
<path d="M202.483 98.8968C206.013 98.8968 208.874 96.0355 208.874 92.5058C208.874 88.9762 206.013 86.1148 202.483 86.1148C198.953 86.1148 196.092 88.9762 196.092 92.5058C196.092 96.0355 198.953 98.8968 202.483 98.8968Z" fill="#612A7A"/>
<path d="M468.447 113.558H137.784C136.614 113.558 135.695 112.639 135.695 111.469C135.695 110.3 136.614 109.381 137.784 109.381H468.447C469.616 109.381 470.535 110.3 470.535 111.469C470.535 112.639 469.616 113.558 468.447 113.558Z" fill="#612A7A"/>
<path d="M177.256 472.75L150.438 433.694L168.734 421.413L101.273 380.436L114.724 457.713L135.234 443.928L162.134 483.152L177.256 472.75Z" fill="#612A7A"/>
<path d="M421.117 138.203H187.364C179.359 138.203 172.869 144.693 172.869 152.698V230.811C172.869 238.816 179.359 245.305 187.364 245.305H421.117C429.122 245.305 435.612 238.816 435.612 230.811V152.698C435.612 144.693 429.122 138.203 421.117 138.203Z" fill="white"/>
<path d="M421.12 247.393H187.366C178.219 247.393 170.783 239.958 170.783 230.81V152.697C170.783 143.55 178.219 136.114 187.366 136.114H421.12C430.267 136.114 437.703 143.55 437.703 152.697V230.81C437.703 239.958 430.267 247.393 421.12 247.393ZM187.366 140.291C180.516 140.291 174.96 145.847 174.96 152.697V230.81C174.96 237.66 180.516 243.216 187.366 243.216H421.12C427.97 243.216 433.526 237.66 433.526 230.81V152.697C433.526 145.847 427.97 140.291 421.12 140.291H187.366Z" fill="#612A7A"/>
<path d="M236.363 297.439H187.282C179.277 297.439 172.787 303.928 172.787 311.933V387.707C172.787 395.712 179.277 402.201 187.282 402.201H236.363C244.368 402.201 250.858 395.712 250.858 387.707V311.933C250.858 303.928 244.368 297.439 236.363 297.439Z" fill="white"/>
<path d="M236.322 404.288H187.282C178.135 404.288 170.699 396.853 170.699 387.705V311.973C170.699 302.826 178.135 295.39 187.282 295.39H236.322C245.47 295.39 252.905 302.826 252.905 311.973V387.705C252.905 396.853 245.47 404.288 236.322 404.288ZM187.282 299.526C180.432 299.526 174.876 305.081 174.876 311.932V387.663C174.876 394.514 180.432 400.069 187.282 400.069H236.322C243.173 400.069 248.728 394.514 248.728 387.663V311.932C248.728 305.081 243.173 299.526 236.322 299.526H187.282Z" fill="#612A7A"/>
<path d="M328.643 297.439H279.561C271.556 297.439 265.066 303.928 265.066 311.933V387.707C265.066 395.712 271.556 402.201 279.561 402.201H328.643C336.648 402.201 343.137 395.712 343.137 387.707V311.933C343.137 303.928 336.648 297.439 328.643 297.439Z" fill="white"/>
<path d="M328.601 404.288H279.562C270.414 404.288 262.979 396.853 262.979 387.705V311.974C262.979 302.826 270.414 295.39 279.562 295.39H328.601C337.749 295.39 345.185 302.826 345.185 311.974V387.705C345.185 396.853 337.749 404.288 328.601 404.288ZM279.562 299.526C272.711 299.526 267.156 305.081 267.156 311.932V387.663C267.156 394.514 272.711 400.07 279.562 400.07H328.601C335.452 400.07 341.008 394.514 341.008 387.663V311.932C341.008 305.081 335.452 299.526 328.601 299.526H279.562Z" fill="#612A7A"/>
<path d="M420.945 297.439H371.864C363.859 297.439 357.369 303.928 357.369 311.933V387.707C357.369 395.712 363.859 402.201 371.864 402.201H420.945C428.95 402.201 435.44 395.712 435.44 387.707V311.933C435.44 303.928 428.95 297.439 420.945 297.439Z" fill="white"/>
<path d="M420.902 404.288H371.863C362.715 404.288 355.279 396.853 355.279 387.705V311.973C355.279 302.825 362.715 295.39 371.863 295.39H420.902C430.05 295.39 437.486 302.825 437.486 311.973V387.705C437.486 396.853 430.05 404.288 420.902 404.288ZM371.863 299.525C365.012 299.525 359.456 305.081 359.456 311.932V387.663C359.456 394.514 365.012 400.069 371.863 400.069H420.902C427.753 400.069 433.308 394.514 433.308 387.663V311.932C433.308 305.081 427.753 299.525 420.902 299.525H371.863Z" fill="#612A7A"/>
<path d="M304.239 222.247C321.08 222.247 334.732 208.595 334.732 191.754C334.732 174.913 321.08 161.261 304.239 161.261C287.398 161.261 273.746 174.913 273.746 191.754C273.746 208.595 287.398 222.247 304.239 222.247Z" fill="#612A7A"/>
<path d="M402.993 437.119H203.284C202.114 437.119 201.195 436.2 201.195 435.031C201.195 433.861 202.114 432.942 203.284 432.942H402.951C404.121 432.942 405.04 433.861 405.04 435.031C405.04 436.2 404.121 437.119 402.951 437.119H402.993Z" fill="#612A7A"/>
<path d="M386.95 451.99H219.321C218.151 451.99 217.232 451.071 217.232 449.902C217.232 448.732 218.151 447.813 219.321 447.813H386.992C388.161 447.813 389.08 448.732 389.08 449.902C389.08 451.071 388.161 451.99 386.992 451.99H386.95Z" fill="#612A7A"/>
<path d="M274.16 275.131H232.889C231.72 275.131 230.801 274.212 230.801 273.042C230.801 271.872 231.72 270.953 232.889 270.953H274.16C275.329 270.953 276.248 271.872 276.248 273.042C276.248 274.212 275.329 275.131 274.16 275.131Z" fill="#612A7A"/>
<path d="M241.583 282.442V263.979L224.373 273.377L241.583 282.442Z" fill="#612A7A"/>
<path d="M373.37 274.504H332.1C330.931 274.504 330.012 273.585 330.012 272.416C330.012 271.246 330.931 270.327 332.1 270.327H373.37C374.54 270.327 375.459 271.246 375.459 272.416C375.459 273.585 374.54 274.504 373.37 274.504Z" fill="#612A7A"/>
<path d="M364.678 263.018V281.481L381.888 272.082L364.678 263.018Z" fill="#612A7A"/>
<path d="M380.011 154.578C410.809 154.578 435.776 129.611 435.776 98.8133C435.776 68.0153 410.809 43.0485 380.011 43.0485C349.213 43.0485 324.246 68.0153 324.246 98.8133C324.246 129.611 349.213 154.578 380.011 154.578Z" fill="white"/>
<path d="M380.008 156.666C348.094 156.666 322.154 130.726 322.154 98.8129C322.154 66.8995 348.094 40.9595 380.008 40.9595C411.921 40.9595 437.861 66.8995 437.861 98.8129C437.861 130.726 411.921 156.666 380.008 156.666ZM380.008 45.0949C350.392 45.0949 326.331 69.197 326.331 98.7711C326.331 128.345 350.434 152.447 380.008 152.447C409.582 152.447 433.684 128.345 433.684 98.7711C433.684 69.197 409.582 45.0949 380.008 45.0949Z" fill="#8DC63F"/>
<path d="M344.837 121.706C342.08 120.494 339.825 118.74 338.07 116.484L344.294 109.007C346.926 112.558 349.933 114.354 353.317 114.354C357.912 114.354 360.167 111.68 360.167 106.292V83.1923H343.125V74.1697H371.362V105.665C371.362 111.639 369.9 116.108 366.934 119.074C363.969 122.04 359.624 123.543 353.902 123.543C350.602 123.543 347.594 122.917 344.837 121.706Z" fill="#612A7A"/>
<path d="M387.317 121.997C383.724 120.953 380.842 119.616 378.67 117.945L382.471 109.465C384.56 111.011 387.024 112.222 389.906 113.141C392.789 114.06 395.629 114.52 398.511 114.52C401.686 114.52 404.067 114.06 405.571 113.1C407.074 112.139 407.868 110.886 407.868 109.298C407.868 108.129 407.409 107.168 406.531 106.416C405.654 105.664 404.485 105.038 403.064 104.578C401.644 104.119 399.765 103.617 397.342 103.033C393.624 102.155 390.617 101.278 388.277 100.401C385.938 99.5239 383.891 98.1036 382.22 96.1821C380.55 94.2607 379.672 91.6708 379.672 88.4127C379.672 85.614 380.424 83.0242 381.97 80.7685C383.515 78.5128 385.813 76.6749 388.862 75.3382C391.953 74.0015 395.713 73.3332 400.14 73.3332C403.232 73.3332 406.281 73.7091 409.247 74.461C412.212 75.2129 414.802 76.2572 417.016 77.6356L413.549 86.157C409.08 83.609 404.568 82.3558 400.099 82.3558C396.966 82.3558 394.627 82.8571 393.123 83.9014C391.619 84.9039 390.867 86.2406 390.867 87.9114C390.867 89.5823 391.744 90.8354 393.457 91.6291C395.211 92.4227 397.843 93.2164 401.394 94.01C405.111 94.8872 408.119 95.7644 410.5 96.6416C412.839 97.5188 414.886 98.8973 416.557 100.819C418.227 102.698 419.105 105.288 419.105 108.505C419.105 111.262 418.311 113.81 416.765 116.107C415.22 118.405 412.881 120.201 409.79 121.537C406.699 122.874 402.939 123.542 398.47 123.542C394.627 123.542 390.909 123.041 387.317 121.997Z" fill="#612A7A"/>
<path d="M233.482 464.187V502.074H224.71V486.535H207.501V502.074H198.729V464.187H207.501V479.141H224.71V464.187H233.482Z" fill="#612A7A"/>
<path d="M250.317 471.33H238.203V464.187H271.203V471.33H259.089V502.074H250.317V471.33Z" fill="#612A7A"/>
<path d="M310.382 502.074V479.351L299.187 498.064H295.219L284.108 479.81V502.032H275.879V464.146H283.147L297.308 487.663L311.259 464.146H318.444L318.569 502.032H310.34L310.382 502.074Z" fill="#612A7A"/>
<path d="M327.592 464.187H336.364V494.931H355.37V502.074H327.634V464.187H327.592Z" fill="#612A7A"/>
<path d="M151.938 128.764H79.2144C59.6743 128.764 43.834 144.604 43.834 164.144C43.834 183.684 59.6743 199.524 79.2144 199.524H151.938C171.479 199.524 187.319 183.684 187.319 164.144C187.319 144.604 171.479 128.764 151.938 128.764Z" fill="#8DC63F"/>
<path d="M75.0376 181.27C71.9048 179.599 69.4402 177.26 67.6441 174.253C65.8479 171.245 64.9707 167.903 64.9707 164.102C64.9707 160.301 65.8479 156.959 67.6441 153.952C69.4402 150.944 71.9048 148.605 75.0376 146.934C78.1705 145.263 81.6793 144.428 85.6058 144.428C88.9057 144.428 91.8715 145.013 94.5449 146.182C97.2183 147.352 99.4321 149.023 101.27 151.195L95.6309 156.416C93.0411 153.451 89.8665 151.947 86.0653 151.947C83.7261 151.947 81.5957 152.448 79.7578 153.492C77.9199 154.537 76.4578 155.957 75.4136 157.795C74.3693 159.633 73.868 161.763 73.868 164.102C73.868 166.441 74.3693 168.572 75.4136 170.41C76.4578 172.248 77.8781 173.71 79.7578 174.754C81.5957 175.798 83.7261 176.299 86.0653 176.299C89.8665 176.299 93.0411 174.796 95.6309 171.788L101.27 177.01C99.4739 179.223 97.2183 180.894 94.5449 182.064C91.8715 183.234 88.864 183.818 85.564 183.818C81.6793 183.818 78.1705 182.983 75.0376 181.27Z" fill="white"/>
<path d="M110.663 182.607C107.865 181.771 105.609 180.727 103.896 179.432L106.904 172.79C108.533 174.002 110.455 174.962 112.71 175.673C114.966 176.383 117.222 176.759 119.435 176.759C121.942 176.759 123.78 176.383 124.991 175.631C126.202 174.879 126.787 173.918 126.787 172.665C126.787 171.746 126.453 170.994 125.743 170.409C125.033 169.825 124.114 169.323 123.028 168.989C121.942 168.613 120.438 168.237 118.558 167.778C115.676 167.109 113.295 166.399 111.457 165.731C109.619 165.063 108.032 163.935 106.695 162.431C105.358 160.927 104.732 158.88 104.732 156.332C104.732 154.119 105.317 152.113 106.528 150.317C107.739 148.521 109.536 147.101 111.917 146.057C114.339 145.012 117.263 144.469 120.73 144.469C123.153 144.469 125.534 144.762 127.832 145.347C130.171 145.931 132.176 146.767 133.93 147.853L131.215 154.536C127.706 152.531 124.197 151.529 120.689 151.529C118.224 151.529 116.386 151.946 115.217 152.74C114.047 153.534 113.462 154.578 113.462 155.873C113.462 157.168 114.13 158.129 115.509 158.797C116.887 159.423 118.934 160.05 121.733 160.677C124.615 161.387 126.996 162.055 128.834 162.723C130.672 163.434 132.259 164.52 133.596 165.982C134.933 167.444 135.559 169.49 135.559 171.997C135.559 174.169 134.974 176.174 133.721 177.928C132.51 179.724 130.672 181.145 128.249 182.189C125.826 183.233 122.861 183.776 119.394 183.776C116.386 183.776 113.462 183.358 110.663 182.565V182.607Z" fill="white"/>
<path d="M145.339 182.607C142.541 181.771 140.285 180.727 138.572 179.432L141.58 172.79C143.209 174.002 145.13 174.962 147.386 175.673C149.642 176.383 151.897 176.759 154.111 176.759C156.618 176.759 158.455 176.383 159.667 175.631C160.878 174.879 161.463 173.918 161.463 172.665C161.463 171.746 161.129 170.994 160.419 170.409C159.709 169.825 158.79 169.323 157.704 168.989C156.618 168.613 155.114 168.237 153.234 167.778C150.352 167.109 147.971 166.399 146.133 165.731C144.295 165.063 142.708 163.935 141.371 162.431C140.034 160.927 139.408 158.88 139.408 156.332C139.408 154.119 139.992 152.113 141.204 150.317C142.415 148.521 144.211 147.101 146.592 146.057C149.015 145.012 151.939 144.469 155.406 144.469C157.829 144.469 160.21 144.762 162.507 145.347C164.847 145.931 166.852 146.767 168.606 147.853L165.891 154.536C162.382 152.531 158.873 151.529 155.364 151.529C152.9 151.529 151.062 151.946 149.892 152.74C148.723 153.534 148.138 154.578 148.138 155.873C148.138 157.168 148.806 158.129 150.185 158.797C151.563 159.423 153.61 160.05 156.409 160.677C159.291 161.387 161.672 162.055 163.51 162.723C165.348 163.434 166.935 164.52 168.272 165.982C169.608 167.444 170.235 169.49 170.235 171.997C170.235 174.169 169.65 176.174 168.397 177.928C167.186 179.724 165.348 181.145 162.925 182.189C160.502 183.233 157.537 183.776 154.069 183.776C151.062 183.776 148.138 183.358 145.339 182.565V182.607Z" fill="white"/>
<path d="M296.092 179.89V205.037L319.233 193.382L296.092 179.89Z" fill="white"/>
<path d="M67.313 549.946H72.9522V560.765C71.4902 561.851 69.8193 562.686 67.9396 563.271C66.0599 563.856 64.0966 564.148 62.1751 564.148C59.4182 564.148 56.9119 563.563 54.6981 562.394C52.4842 561.224 50.7715 559.595 49.5184 557.465C48.2652 555.376 47.6387 552.995 47.6387 550.363C47.6387 547.732 48.2652 545.351 49.5184 543.262C50.7715 541.174 52.5259 539.545 54.7398 538.333C56.9955 537.164 59.5018 536.579 62.3005 536.579C64.6397 536.579 66.77 536.955 68.6497 537.749C70.5294 538.542 72.1585 539.67 73.4534 541.174L69.4851 544.85C67.5637 542.845 65.2662 541.842 62.5929 541.842C60.8802 541.842 59.3765 542.176 58.0398 542.928C56.7031 543.638 55.7006 544.641 54.9487 545.936C54.1968 547.231 53.8626 548.734 53.8626 550.405C53.8626 552.076 54.2386 553.538 54.9487 554.833C55.7006 556.128 56.7031 557.13 57.998 557.841C59.2929 558.551 60.7967 558.927 62.4675 558.927C64.2637 558.927 65.851 558.551 67.2713 557.799V549.988L67.313 549.946Z" fill="#8DC63F"/>
<path d="M78.5521 539.42C77.8838 538.794 77.5078 538 77.5078 537.039C77.5078 536.078 77.842 535.327 78.5521 534.658C79.2204 534.032 80.1394 533.697 81.2255 533.697C82.3115 533.697 83.1887 533.99 83.8988 534.616C84.609 535.243 84.9431 535.995 84.9431 536.914C84.9431 537.916 84.609 538.71 83.8988 539.378C83.1887 540.047 82.3115 540.339 81.2255 540.339C80.1394 540.339 79.2622 540.005 78.5521 539.378V539.42ZM78.2597 543.221H84.1912V563.731H78.2597V543.221Z" fill="#8DC63F"/>
<path d="M102.947 562.726C102.362 563.144 101.652 563.478 100.816 563.687C99.981 563.896 99.062 564.021 98.143 564.021C95.7203 564.021 93.7988 563.395 92.5039 562.142C91.209 560.888 90.4989 559.05 90.4989 556.67V548.232H87.3242V543.679H90.4989V538.708H96.4304V543.679H101.527V548.232H96.4304V556.586C96.4304 557.463 96.6393 558.132 97.0987 558.591C97.5582 559.051 98.1848 559.301 98.9785 559.301C99.8974 559.301 100.733 559.051 101.359 558.549L102.947 562.726Z" fill="#8DC63F"/>
<path d="M125.628 531.65H130.933L118.36 567.531H113.055L125.628 531.65Z" fill="#8DC63F"/>
<path d="M161.217 549.946H166.856V560.765C165.394 561.851 163.724 562.686 161.844 563.271C159.964 563.856 158.001 564.148 156.079 564.148C153.323 564.148 150.816 563.563 148.602 562.394C146.388 561.224 144.676 559.595 143.423 557.465C142.17 555.376 141.543 552.995 141.543 550.363C141.543 547.732 142.17 545.351 143.423 543.262C144.676 541.174 146.43 539.545 148.644 538.333C150.9 537.164 153.406 536.579 156.205 536.579C158.544 536.579 160.674 536.955 162.554 537.749C164.434 538.542 166.063 539.67 167.358 541.174L163.389 544.85C161.468 542.845 159.171 541.842 156.497 541.842C154.785 541.842 153.281 542.176 151.944 542.928C150.607 543.638 149.605 544.641 148.853 545.936C148.101 547.231 147.767 548.734 147.767 550.405C147.767 552.076 148.143 553.538 148.853 554.833C149.605 556.128 150.607 557.13 151.902 557.841C153.197 558.551 154.701 558.927 156.372 558.927C158.168 558.927 159.755 558.551 161.176 557.799V549.988L161.217 549.946Z" fill="#8DC63F"/>
<path d="M172.454 539.42C171.786 538.794 171.41 538 171.41 537.039C171.41 536.078 171.744 535.327 172.454 534.658C173.123 534.032 174.042 533.697 175.128 533.697C176.214 533.697 177.091 533.99 177.801 534.616C178.511 535.243 178.845 535.995 178.845 536.914C178.845 537.916 178.511 538.71 177.801 539.378C177.091 540.047 176.214 540.339 175.128 540.339C174.042 540.339 173.165 540.005 172.454 539.378V539.42ZM172.162 543.221H178.094V563.731H172.162V543.221Z" fill="#8DC63F"/>
<path d="M196.851 562.726C196.266 563.144 195.556 563.478 194.721 563.687C193.885 563.896 192.966 564.021 192.047 564.021C189.625 564.021 187.703 563.395 186.408 562.142C185.113 560.888 184.403 559.05 184.403 556.67V548.232H181.229V543.679H184.403V538.708H190.335V543.679H195.431V548.232H190.335V556.586C190.335 557.463 190.544 558.132 191.003 558.591C191.463 559.051 192.089 559.301 192.883 559.301C193.802 559.301 194.637 559.051 195.264 558.549L196.851 562.726Z" fill="#8DC63F"/>
<path d="M218.819 545.183C220.364 546.729 221.158 548.984 221.158 551.95V563.688H215.226V552.869C215.226 551.24 214.892 550.029 214.182 549.235C213.472 548.441 212.428 548.024 211.091 548.024C209.587 548.024 208.418 548.483 207.499 549.402C206.621 550.321 206.162 551.7 206.162 553.538V563.688H200.23V535.409H206.162V545.309C206.956 544.515 207.916 543.93 209.002 543.512C210.089 543.095 211.342 542.886 212.678 542.886C215.226 542.886 217.273 543.638 218.819 545.183Z" fill="#8DC63F"/>
<path d="M247.178 543.22V563.73H241.539V561.307C240.746 562.184 239.827 562.894 238.741 563.354C237.654 563.813 236.485 564.064 235.19 564.064C232.517 564.064 230.344 563.27 228.799 561.725C227.253 560.179 226.418 557.882 226.418 554.833V543.262H232.35V553.955C232.35 557.255 233.728 558.926 236.485 558.926C237.905 558.926 239.033 558.467 239.91 557.548C240.787 556.629 241.205 555.25 241.205 553.412V543.262H247.137L247.178 543.22Z" fill="#8DC63F"/>
<path d="M269.987 544.222C271.533 545.1 272.786 546.311 273.663 547.898C274.541 549.486 275 551.324 275 553.454C275 555.584 274.541 557.422 273.663 559.01C272.786 560.597 271.533 561.808 269.987 562.685C268.442 563.563 266.688 563.98 264.766 563.98C261.967 563.98 259.795 563.103 258.333 561.307V563.688H252.652V535.409H258.584V545.35C260.088 543.679 262.134 542.886 264.766 542.886C266.688 542.886 268.4 543.304 269.987 544.181V544.222ZM267.523 557.589C268.484 556.545 268.985 555.167 268.985 553.454C268.985 551.741 268.484 550.363 267.523 549.319C266.562 548.274 265.309 547.773 263.764 547.773C262.218 547.773 261.007 548.274 260.004 549.319C259.043 550.363 258.542 551.741 258.542 553.454C258.542 555.167 259.043 556.545 260.004 557.589C260.965 558.634 262.218 559.135 263.764 559.135C265.309 559.135 266.52 558.634 267.523 557.589Z" fill="#8DC63F"/>
<path d="M501.276 187.159L511.886 174.001C514.894 170.241 520.407 169.657 524.167 172.664L530.558 177.844C534.317 180.851 534.902 186.365 531.895 190.125C531.895 190.125 519.948 201.528 522.538 201.737C524.418 201.862 537.283 197.852 542.379 191.545C549.856 182.271 550.274 169.657 544.51 160.007L583.441 111.678C585.362 109.255 584.986 105.746 582.605 103.825L576.465 98.854C574.042 96.9326 570.533 97.3085 568.612 99.6895L529.681 148.019C518.987 144.427 506.79 147.518 499.313 156.791C492.254 165.563 491.502 177.259 496.264 186.657C497.266 188.579 499.939 188.871 501.318 187.159H501.276Z" fill="#612A7A"/>
<path d="M289.24 578.39H289.115C287.486 578.39 286.149 577.053 286.149 575.424C286.149 573.795 287.486 572.458 289.115 572.458C290.744 572.458 292.122 573.795 292.122 575.424C292.122 577.053 290.869 578.39 289.24 578.39ZM253.651 576.928C253.651 576.928 253.442 576.928 253.359 576.928C253.359 576.928 253.233 576.928 253.192 576.928C251.563 576.761 250.393 575.299 250.56 573.67C250.727 572.041 252.231 570.913 253.818 571.038C255.447 571.205 256.659 572.667 256.492 574.296C256.324 575.8 255.113 576.97 253.609 576.97L253.651 576.928ZM324.662 576.093C323.158 576.093 321.905 574.965 321.738 573.461C321.571 571.832 322.741 570.37 324.37 570.203L324.829 573.127L325.038 576.093C325.038 576.093 324.829 576.093 324.704 576.093H324.662ZM217.811 571.498L218.438 568.615L217.728 571.498C216.14 571.164 215.096 569.618 215.389 568.031C215.723 566.443 217.31 565.441 218.856 565.691L217.77 571.498H217.811ZM359.834 570.161C358.455 570.161 357.202 569.2 356.951 567.78C356.617 566.193 357.662 564.605 359.291 564.313C360.878 564.021 362.507 565.023 362.841 566.61C363.175 568.198 362.215 569.743 360.627 570.077H360.46C360.251 570.077 360.084 570.119 359.875 570.119L359.834 570.161ZM394.211 560.846C392.958 560.846 391.747 560.011 391.371 558.757C390.911 557.17 391.789 555.541 393.334 555.082C394.88 554.622 396.592 555.457 397.052 557.003C397.553 558.549 396.759 560.178 395.214 560.679C395.214 560.679 395.047 560.721 395.005 560.762C394.713 560.846 394.42 560.888 394.17 560.888L394.211 560.846ZM426.96 547.437C425.999 547.437 425.039 546.894 424.496 545.975C423.618 544.597 424.203 542.675 425.582 541.84C425.707 541.756 425.916 541.631 426.041 541.589C427.545 540.921 429.299 541.589 429.968 543.093C430.636 544.597 429.968 546.351 428.464 547.02C428.004 547.312 427.503 547.437 427.002 547.437H426.96ZM119.941 531.481C119.44 531.481 118.897 531.355 118.396 531.021C118.396 531.021 118.229 530.938 118.229 530.896C116.85 529.977 116.516 528.139 117.393 526.802C118.312 525.466 120.15 525.09 121.487 525.967C122.823 526.844 123.241 528.724 122.364 530.06C121.779 530.938 120.86 531.439 119.899 531.439L119.941 531.481ZM457.37 528.557C456.492 528.557 455.657 528.181 455.072 527.471C454.07 526.217 454.195 524.421 455.406 523.377L457.411 525.549L459.166 527.93C458.623 528.348 457.996 528.557 457.328 528.557H457.37ZM91.3279 510.261C90.6596 510.261 89.9912 510.052 89.4482 509.551L89.3229 509.467C88.1115 508.381 87.9862 506.501 89.0305 505.29C90.1165 504.079 91.9962 503.912 93.2076 504.998C94.419 506.084 94.5861 507.963 93.5418 509.217C92.957 509.885 92.1216 510.261 91.2861 510.261H91.3279ZM483.31 504.329C482.599 504.329 481.931 504.079 481.346 503.577C480.135 502.491 480.01 500.612 481.054 499.4C482.14 498.189 484.02 497.98 485.273 499.066C486.484 500.152 486.693 501.948 485.607 503.201L485.523 503.327C484.939 503.995 484.103 504.329 483.31 504.329ZM63.6753 484.321L65.931 482.399L63.6335 484.279C62.5475 483.068 62.6728 481.188 63.9259 480.102C65.1373 479.016 67.017 479.141 68.1031 480.394L63.7171 484.363L63.6753 484.321ZM503.36 474.922C502.9 474.922 502.441 474.797 502.023 474.588C500.603 473.836 500.018 472.124 500.728 470.662L503.443 471.873L506.033 473.335C505.49 474.337 504.446 474.922 503.402 474.922H503.36ZM44.2099 454.162L41.7036 455.707C40.8682 454.371 41.2024 452.575 42.4973 451.656C43.7922 450.737 45.5466 450.987 46.5073 452.282L44.2099 454.162ZM516.685 442.09C516.685 442.09 516.267 442.09 516.058 442.006C514.471 441.672 513.468 440.001 513.761 438.414C513.761 438.289 513.844 438.08 513.886 437.955C514.387 436.409 516.058 435.532 517.646 436.075C519.191 436.576 520.027 438.247 519.525 439.834L516.727 438.915L519.525 439.876C519.233 441.255 518.063 442.132 516.727 442.132L516.685 442.09ZM24.1179 424.337L26.833 423.126L24.1179 424.295C23.4496 422.833 24.0761 421.079 25.5381 420.369C27.0001 419.659 28.7128 420.243 29.4646 421.706L26.8748 423.126L24.1597 424.337H24.1179ZM523.285 406.96C523.285 406.96 523.076 406.96 522.951 406.96C521.321 406.793 520.152 405.331 520.319 403.702C520.486 402.073 521.906 400.82 523.577 401.029C525.206 401.196 526.376 402.574 526.209 404.203C526.209 404.203 526.209 404.329 526.209 404.37C526.042 405.874 524.747 407.002 523.285 407.002V406.96ZM14.2599 392.967C13.0068 392.967 11.7954 392.09 11.3359 390.836C11.3359 390.711 11.2106 390.502 11.2106 390.377C10.8764 388.79 11.9207 387.202 13.5498 386.91C15.1789 386.618 16.7244 387.62 17.0168 389.249C17.5181 390.795 16.6826 392.34 15.0953 392.883C14.8029 392.967 14.5105 393.009 14.2181 393.009L14.2599 392.967ZM523.995 371.371C522.366 371.371 521.029 370.034 521.029 368.405C521.029 366.776 522.282 365.481 523.828 365.398C525.499 365.272 526.752 366.442 526.919 367.988C526.919 368.071 526.919 368.322 526.919 368.405C526.919 370.034 525.582 371.371 523.953 371.371H523.995ZM6.44866 358.088C4.9449 358.088 3.64999 356.96 3.52467 355.414C3.1905 353.827 4.19301 352.365 5.78032 351.989C7.32586 351.655 8.95494 352.741 9.33088 354.37C9.33088 354.495 9.37265 354.704 9.41442 354.83C9.58151 356.459 8.37014 357.921 6.78283 358.088C6.69929 358.088 6.57398 358.088 6.49043 358.088H6.44866ZM519.024 336.116C517.729 336.116 516.518 335.239 516.142 333.902C515.724 332.357 516.643 330.686 518.189 330.226C519.776 329.767 521.363 330.602 521.823 332.148C521.823 332.148 521.864 332.315 521.864 332.357C522.282 333.944 521.321 335.573 519.776 335.991C519.525 336.074 519.275 336.074 519.024 336.074V336.116ZM2.98165 322.624C1.35257 322.624 0.0158853 321.287 0.0158853 319.658C-0.1512 318.029 1.0184 316.651 2.64748 316.483C4.23478 316.275 5.73855 317.569 5.90564 319.199C5.90564 319.324 5.90564 319.533 5.90564 319.658C5.90564 321.287 4.56895 322.624 2.93987 322.624H2.98165ZM2.98165 287.118C1.35257 287.118 0.0158853 285.698 0.0158853 284.069C0.0158853 283.944 0.0158853 283.735 0.0158853 283.609C0.18297 281.98 1.68674 280.852 3.27404 280.978C4.90312 281.145 6.07272 282.607 5.90564 284.236C5.90564 285.865 4.56895 287.076 2.93987 287.076L2.98165 287.118ZM6.40689 251.654C6.40689 251.654 6.19803 251.654 6.07272 251.654C4.44364 251.487 3.27404 249.942 3.44113 248.313C3.44113 248.187 3.4829 247.978 3.52467 247.853C3.85884 246.266 5.44615 245.263 7.03346 245.597C8.62077 245.932 9.62328 247.519 9.28911 249.106C9.12202 250.61 7.86889 251.654 6.40689 251.654ZM13.2574 216.525C13.0068 216.525 12.7561 216.525 12.5473 216.441C11.0017 216.023 10.041 214.561 10.3752 212.974C10.3752 212.89 10.4169 212.723 10.4587 212.64C10.9182 211.094 12.589 210.175 14.1346 210.677C15.6801 211.136 16.5991 212.807 16.0978 214.352C15.7219 215.647 14.5105 216.525 13.2156 216.525H13.2574ZM23.6584 182.439C23.3243 182.439 22.9483 182.397 22.6141 182.23C21.1522 181.645 20.3585 180.1 20.8598 178.596C20.8598 178.513 20.9433 178.304 20.9851 178.22C21.6534 176.716 23.4078 176.048 24.9116 176.716C26.4153 177.385 27.0837 179.139 26.4153 180.643C25.9141 181.771 24.828 182.439 23.6584 182.439ZM37.7771 149.941C37.3594 149.941 36.8999 149.857 36.4822 149.649C34.9784 148.98 34.3937 147.1 35.062 145.597C35.1038 145.471 35.2291 145.263 35.3126 145.137C36.1898 143.759 37.986 143.341 39.4062 144.218C40.7847 145.095 41.2024 146.892 40.3252 148.312C39.8657 149.398 38.8632 149.983 37.7771 149.983V149.941ZM55.6135 118.905C55.0287 118.905 54.4856 118.738 53.9844 118.404C52.6895 117.526 52.2718 115.772 53.1072 114.435C53.149 114.352 53.2743 114.185 53.316 114.143C54.2768 112.848 56.1565 112.556 57.4514 113.558C58.7463 114.561 59.0387 116.399 58.0362 117.693C57.4514 118.487 56.5324 118.905 55.6135 118.905ZM77.2928 90.6673C76.6244 90.6673 75.9143 90.4585 75.3713 89.9572C74.1599 88.8712 73.951 87.075 75.0371 85.8219L75.1206 85.6965C76.2067 84.4852 78.0864 84.3181 79.2978 85.4041C80.5091 86.4902 80.6345 88.3699 79.5902 89.5813C79.0054 90.2496 78.1282 90.6256 77.2928 90.6256V90.6673ZM501.146 76.6322C500.478 76.6322 499.767 76.3815 499.224 75.922C498.013 74.8778 497.804 73.0398 498.807 71.7867C499.809 70.5335 501.564 70.2829 502.859 71.2436C502.9 71.2436 503.067 71.4107 503.109 71.4525C504.362 72.4968 504.488 74.3765 503.443 75.6296C502.859 76.298 502.023 76.6739 501.188 76.6739L501.146 76.6322ZM104.653 64.9362L102.606 62.8058L100.726 60.5084C101.938 59.4224 103.818 59.5477 104.904 60.8008C105.99 62.054 105.864 63.8919 104.611 64.9779L104.653 64.9362ZM471.614 56.5401C471.154 56.5401 470.653 56.4148 470.193 56.1642L471.53 53.5326L473.117 51.0263C474.496 51.8617 474.955 53.6579 474.162 55.0781C473.619 56.0389 472.616 56.5401 471.614 56.5401ZM131.387 44.6771C130.384 44.6771 129.382 44.1758 128.839 43.2568C128.045 41.8784 128.421 40.124 129.757 39.2885C129.799 39.2885 129.966 39.1632 130.008 39.1632C131.428 38.3696 133.225 38.8708 134.018 40.3328C134.812 41.7531 134.311 43.5492 132.849 44.3429C132.389 44.5935 131.888 44.7188 131.387 44.7188V44.6771ZM440.118 39.8733C439.659 39.8733 439.241 39.7898 438.781 39.5392C437.361 38.8291 436.693 37.0747 437.361 35.6127C438.029 34.1507 439.7 33.4823 441.204 34.1507C441.204 34.1507 441.371 34.2342 441.413 34.276C442.875 34.9861 443.46 36.7823 442.75 38.2443C442.248 39.2885 441.204 39.8733 440.118 39.8733ZM162.924 28.1774C161.796 28.1774 160.668 27.5508 160.167 26.423C159.499 24.9192 160.125 23.2066 161.629 22.5382H161.754C163.258 21.8281 165.012 22.5382 165.681 24.0002C166.349 25.504 165.681 27.2584 164.177 27.9267C163.759 28.0938 163.342 28.1774 162.966 28.1774H162.924ZM407.035 26.6736C406.743 26.6736 406.409 26.6318 406.116 26.5065C404.571 26.0052 403.652 24.2926 404.195 22.7471C404.738 21.2015 406.325 20.3243 407.871 20.8674H407.996C409.541 21.4104 410.377 23.0812 409.876 24.6268C409.458 25.8799 408.288 26.6736 407.077 26.6736H407.035ZM372.825 16.7738C372.532 16.7738 372.24 16.7738 371.989 16.6485C370.444 16.189 369.525 14.6017 369.901 13.0561C370.318 11.5106 371.822 10.5498 373.368 10.884C373.451 10.884 373.618 10.9258 373.702 10.9676C375.247 11.427 376.166 13.0979 375.665 14.6434C375.289 15.9383 374.119 16.732 372.825 16.732V16.7738ZM196.174 16.3978C194.962 16.3978 193.876 15.6042 193.459 14.351C192.957 12.8055 193.918 11.0929 195.464 10.5916C195.589 10.5916 195.798 10.4663 195.923 10.4663C197.51 10.1739 199.098 11.1764 199.39 12.8055C199.724 14.3928 198.68 15.9801 197.051 16.2725C196.759 16.3561 196.424 16.4396 196.132 16.4396L196.174 16.3978ZM337.862 10.0904C337.653 10.0904 337.444 10.0904 337.235 10.0068C335.606 9.83973 334.52 8.4195 334.687 6.79041C334.854 5.16133 336.316 3.94996 338.029 4.15882C338.154 4.15882 338.363 4.20059 338.489 4.24236C340.076 4.57653 341.078 6.16384 340.744 7.75116C340.452 9.12961 339.199 10.0904 337.862 10.0904ZM231.22 9.04607C229.716 9.04607 228.421 7.91824 228.296 6.3727C228.129 4.74362 229.34 3.28162 230.928 3.11453C232.515 2.73859 233.977 3.78287 234.353 5.37019C234.687 6.9575 233.601 8.54481 231.972 8.92075C231.846 8.92075 231.638 8.96253 231.512 9.0043C231.429 9.0043 231.303 9.0043 231.22 9.0043V9.04607ZM302.398 6.53979L302.273 3.57402L302.565 0.60825C304.153 0.775335 305.364 2.11202 305.28 3.69933C305.197 5.28664 303.944 6.53979 302.356 6.53979H302.398ZM266.684 5.95499C265.055 5.95499 263.718 4.6183 263.718 2.98922C263.718 1.36013 265.013 0.0234506 266.642 0.0234506C268.271 -0.185406 269.649 1.02596 269.817 2.65505C269.984 4.28413 268.731 5.74613 267.101 5.91321C266.976 5.91321 266.767 5.91321 266.642 5.91321L266.684 5.95499Z" fill="#612A7A"/>
<path d="M589.997 308.255L578.008 312.474L573.413 324.838L569.069 312.724L556.83 308.255L569.236 303.66L573.413 291.672L577.883 303.911L589.997 308.255Z" fill="#612A7A"/>
<path d="M66.8521 418.657L54.8637 422.834L50.2688 435.24L45.9246 423.126L33.6855 418.657L46.0499 414.062L50.2688 402.073L54.7384 414.312L66.8521 418.657Z" fill="#612A7A"/>
<path d="M130.428 52.8638L106.66 61.1763L97.5538 85.7378L88.9489 61.7193L64.6797 52.8638L89.2413 43.7158L97.5538 19.9479L106.409 44.2589L130.428 52.8638Z" fill="#612A7A"/>
</svg>
