<svg width="440" height="366" viewBox="0 0 440 366" fill="none" xmlns="http://www.w3.org/2000/svg">
<g opacity="0.1">
<path d="M20.8355 48.4128C20.5088 47.9826 20.3454 47.7674 20.2496 47.197C19.5003 45.766 19.6074 44.1296 20.2721 42.7834L31.449 18.4005C32.8461 15.3526 36.57 14.0356 39.984 15.4209L83.02 32.9893C84.5299 33.6444 85.7411 34.7951 86.4904 36.2261C87.2397 37.6571 87.1327 39.2933 86.4679 40.6396L75.2911 65.0226C74.6263 66.3688 73.4038 67.425 71.8545 68.0509C70.3053 68.6768 68.4969 68.5172 66.987 67.862L23.951 50.2936C22.6046 49.8536 21.4891 49.2734 20.8355 48.4128ZM83.5947 36.412C83.2679 35.9817 82.5468 35.4764 81.9891 35.1863L38.9531 17.6179C38.001 17.2529 36.9813 17.2431 36.125 17.4485C35.2686 17.6539 34.5081 18.4298 34.1419 19.2806L22.965 43.6634C22.2327 45.3649 23.0778 47.3664 24.982 48.0965L68.018 65.6649C68.9701 66.03 69.9897 66.0397 70.846 65.8343C71.7024 65.6289 72.463 64.8532 72.8291 64.0024L84.006 39.6194C84.3722 38.7686 84.344 37.8429 84.0848 37.0574C83.6905 36.9824 83.7581 36.6271 83.5947 36.412Z" fill="#602B7A"/>
<path d="M49.4928 40.9682L47.8005 36.9604L45.9447 32.7374L41.5225 34.477L37.168 35.8609L40.9134 37.6786L38.849 42.0781L43.5476 44.2613L45.6797 39.5061L49.4928 40.9682Z" fill="#602B7A"/>
<path d="M357.44 233.241V240.665L349.485 241.689C348.632 245.273 347.212 248.856 344.939 251.672L349.769 257.56L343.802 262.936L337.267 258.584C333.858 260.632 330.164 262.168 326.186 262.68L325.05 269.847H316.81L315.674 262.68C311.696 261.912 307.718 260.632 304.593 258.584L298.058 262.936L292.091 257.56L296.921 251.672C294.648 248.6 292.944 245.273 292.375 241.689L284.42 240.665V233.241L292.375 232.217C293.228 228.633 294.648 225.05 296.921 222.234L292.091 216.346L298.058 210.97L304.593 215.322C308.002 213.274 311.696 211.738 315.674 211.226L316.81 204.059H325.05L326.186 211.226C330.164 211.994 334.142 213.274 337.267 215.322L343.802 210.97L349.769 216.346L344.939 222.234C347.212 225.306 348.916 228.633 349.485 232.217L357.44 233.241ZM321.072 218.906C309.991 218.906 300.899 227.097 300.899 237.081C300.899 247.064 309.991 255.256 321.072 255.256C332.153 255.256 341.245 247.064 341.245 237.081C341.245 227.097 332.153 218.906 321.072 218.906Z" fill="white"/>
<path d="M315.675 271.127H326.472L327.608 263.703C331.018 262.935 334.427 261.655 337.269 260.12L343.803 264.471L351.475 257.56L346.645 251.672C348.634 248.856 349.77 246.04 350.622 242.968L358.862 241.945V232.217L350.622 231.193C349.77 228.121 348.349 225.049 346.645 222.489L351.475 216.602L343.803 209.69L337.269 214.042C334.143 212.25 331.018 211.226 327.608 210.458L326.472 203.034H315.675L314.538 210.458C311.129 211.226 307.719 212.506 304.878 214.042L298.343 209.69L290.672 216.602L295.502 222.489C293.513 225.305 292.377 228.121 291.524 231.193L283.285 232.217V241.945L291.524 242.968C292.377 246.04 293.797 249.112 295.502 251.672L290.672 257.56L298.343 264.471L304.878 260.12C308.004 261.911 311.129 262.935 314.538 263.703L315.675 271.127ZM324.199 268.567H318.232L317.096 261.655L315.959 261.399C312.265 260.888 308.572 259.352 305.446 257.56L304.594 257.048L298.343 261.399L294.081 257.56L298.627 251.928L298.059 251.16C295.786 248.344 294.366 245.016 293.797 241.689L293.513 240.665L285.842 239.641V234.265L293.513 233.241L293.797 232.217C294.366 228.889 296.07 225.561 298.059 222.745L298.627 221.977L293.797 216.346L298.059 212.506L304.31 216.602L305.162 216.09C308.288 214.042 311.981 212.762 315.675 212.25L316.811 211.994L317.948 205.082H323.915L325.051 211.994L326.188 212.25C329.881 212.762 333.575 214.298 336.7 216.09L337.553 216.602L343.803 212.25L348.065 215.834L343.519 221.466L344.088 222.233C346.361 225.049 347.781 228.377 348.349 231.705L348.634 232.729L356.305 233.753V239.129L348.634 240.153L348.349 241.177C347.781 244.504 346.076 247.832 344.088 250.648L343.519 251.416L348.349 257.048L344.088 260.888L337.837 256.792L336.984 257.304C333.859 259.352 330.165 260.632 326.472 261.144L325.335 261.399L324.199 268.567ZM321.073 256.536C333.007 256.536 342.667 247.832 342.667 237.081C342.667 226.329 333.007 217.626 321.073 217.626C309.14 217.626 299.48 226.329 299.48 237.081C299.48 247.832 309.14 256.536 321.073 256.536ZM321.073 220.186C331.302 220.186 339.826 227.609 339.826 237.081C339.826 246.552 331.586 253.976 321.073 253.976C310.845 253.976 302.321 246.552 302.321 237.081C302.321 227.609 310.845 220.186 321.073 220.186Z" fill="#602B7A"/>
<path d="M266.143 287.253V302.603L249.694 304.72C247.931 312.13 244.994 319.54 240.294 325.363L250.281 337.536L237.944 348.652L224.432 339.654C217.383 343.888 209.745 347.064 201.521 348.122L199.171 362.943H182.134L179.784 348.122C171.559 346.534 163.335 343.888 156.872 339.654L143.36 348.652L131.023 337.536L141.01 325.363C136.31 319.011 132.786 312.13 131.611 304.72L115.161 302.603V287.253L131.611 285.136C133.373 277.726 136.31 270.316 141.01 264.493L131.023 252.32L143.36 241.204L156.872 250.202C163.922 245.968 171.559 242.792 179.784 241.734L182.134 226.913H199.171L201.521 241.734C209.745 243.322 217.97 245.968 224.432 250.202L237.944 241.204L250.281 252.32L240.294 264.493C244.994 270.845 248.519 277.726 249.694 285.136L266.143 287.253ZM190.946 257.613C168.034 257.613 149.235 274.55 149.235 295.193C149.235 315.835 168.034 332.773 190.946 332.773C213.858 332.773 232.657 315.835 232.657 295.193C232.657 274.55 213.858 257.613 190.946 257.613Z" fill="white"/>
<path d="M179.77 365.587H202.095L204.445 350.237C211.494 348.65 218.544 346.003 224.419 342.827L237.931 351.825L253.793 337.534L243.806 325.36C247.918 319.538 250.268 313.716 252.03 307.364L269.067 305.247V285.134L252.03 283.017C250.268 276.665 247.33 270.314 243.806 265.021L253.793 252.847L237.931 238.556L224.419 247.554C217.957 243.849 211.494 241.731 204.445 240.144L202.095 224.794H179.77L177.42 240.144C170.371 241.731 163.321 244.378 157.446 247.554L143.934 238.556L128.072 252.847L138.059 265.021C133.947 270.843 131.597 276.665 129.835 283.017L112.798 285.134V305.247L129.835 307.364C131.597 313.716 134.534 320.067 138.059 325.36L128.072 337.534L143.934 351.825L157.446 342.827C163.909 346.532 170.371 348.65 177.42 350.237L179.77 365.587ZM197.395 360.294H185.058L182.708 346.003L180.358 345.474C172.721 344.415 165.083 341.239 158.621 337.534L156.859 336.476L143.934 345.474L135.122 337.534L144.522 325.89L143.347 324.302C138.647 318.479 135.71 311.599 134.535 304.718L133.947 302.601L118.085 300.483V289.368L133.947 287.251L134.535 285.134C135.71 278.253 139.234 271.372 143.347 265.55L144.522 263.962L134.535 252.317L143.347 244.378L156.271 252.847L158.034 251.788C164.496 247.554 172.133 244.907 179.77 243.849L182.12 243.319L184.47 229.028H196.807L199.157 243.319L201.507 243.849C209.144 244.907 216.781 248.083 223.244 251.788L225.006 252.847L237.931 243.849L246.743 251.259L237.343 262.903L238.518 264.491C243.218 270.313 246.155 277.194 247.33 284.075L247.918 286.192L263.78 288.31V299.425L247.918 301.542L247.33 303.659C246.155 310.54 242.631 317.421 238.518 323.243L237.343 324.831L247.33 336.476L238.518 344.415L225.594 335.946L223.831 337.005C217.369 341.239 209.732 343.886 202.095 344.944L199.745 345.474L197.395 360.294ZM190.932 335.417C215.607 335.417 235.581 317.421 235.581 295.19C235.581 272.96 215.607 254.964 190.932 254.964C166.258 254.964 146.284 272.96 146.284 295.19C146.284 317.421 166.258 335.417 190.932 335.417ZM190.932 260.257C212.082 260.257 229.706 275.606 229.706 295.19C229.706 314.774 212.669 330.124 190.932 330.124C169.783 330.124 152.159 314.774 152.159 295.19C152.159 275.606 169.783 260.257 190.932 260.257Z" fill="#602B7A"/>
<path d="M171.34 174.617L148.61 166.17L159.123 186.137L163.953 181.529L169.92 186.137L172.193 183.833L166.51 179.225L171.34 174.617Z" fill="#602B7A"/>
<path d="M419.012 233.496L426.4 235.799L429.241 242.711L431.798 235.799L439.47 233.496L431.798 230.936L429.241 224.28L426.4 230.936L419.012 233.496Z" fill="#FFD631"/>
<path d="M74.0122 224.794L84.5249 228.122L88.7867 238.105L92.7646 228.378L103.561 224.794L92.4804 221.21L88.7867 211.482L84.809 221.466L74.0122 224.794Z" fill="#FFD631"/>
<path d="M1.05558e-06 265.24L7.9555 267.544L10.7968 274.967L13.638 267.799L21.8777 265.24L13.638 262.424L10.7968 255.256L7.9555 262.68L1.05558e-06 265.24Z" fill="#602B7A"/>
<path d="M78.5088 154.776C81.1826 159.156 82.4944 163.888 82.3036 168.74C82.1128 173.592 80.3822 177.987 77.393 182.385C74.1596 186.9 70.6737 189.452 67.1135 190.85C63.4126 192.017 59.7409 191.682 56.446 189.382C54.4839 188.233 53.3953 186.966 52.6544 185.236C52.0543 183.736 51.9427 182.004 52.4603 180.27C48.0267 181.786 43.4441 180.992 38.8535 178.119C36.225 176.394 34.3293 174.321 32.9221 172.016C31.759 169.594 31.0845 166.939 31.4242 164.397C31.6231 161.624 32.592 159.08 34.5751 156.648C36.3139 154.332 38.5785 152.362 41.0209 151.199C43.7076 149.92 46.328 149.565 49.2299 149.671C52.1317 149.777 54.9673 150.808 57.5958 152.532C59.6986 153.912 61.1721 155.293 62.4015 156.791C63.6308 158.288 64.1274 160.135 64.624 161.981L67.0583 158.739L73.3668 162.878L60.8844 180.128C60.0853 181.401 59.7748 182.441 59.7085 183.366C59.8864 184.174 60.4493 185.096 61.36 185.555C62.9371 186.589 64.8248 186.583 66.638 185.423C68.592 184.492 70.7158 182.291 72.8023 179.512C75.3402 175.923 76.8639 172.222 76.9884 168.295C77.1129 164.367 76.1198 160.674 73.8681 156.985C71.6165 153.296 68.3879 150.072 63.9381 147.43C59.7325 144.671 55.2163 142.953 50.5303 142.506C46.0885 141.942 41.7212 142.534 37.9168 144.047C33.8681 145.677 30.7673 148.344 27.9852 152.049C25.203 155.754 23.8201 159.685 23.4514 163.729C23.0826 167.773 24.2165 171.697 26.2239 175.502C28.4755 179.191 31.7042 182.415 35.9098 185.174C37.8718 186.323 39.8339 187.471 41.8995 188.273C43.9651 189.075 46.275 189.761 48.6883 190.1L47.3798 195.186C44.9664 194.848 42.6565 194.162 40.2059 193.246C37.6146 192.099 35.2677 190.836 32.9206 189.573C27.6636 186.124 23.6278 182.094 20.8133 177.483C18.243 172.755 16.9311 168.024 17.1219 163.172C17.3127 158.32 19.147 153.579 22.3805 149.064C25.6139 144.549 29.6916 141.417 34.473 139.438C39.2544 137.459 44.4952 136.75 50.1954 137.309C55.6513 137.985 61.3224 140.046 66.5794 143.494C71.7992 146.365 75.835 150.395 78.5088 154.776ZM51.1485 175.538C53.7689 175.184 55.9299 173.56 57.6687 171.244C59.4075 168.928 60.1321 166.5 59.4576 163.846C58.9238 161.422 57.413 159.463 54.7845 157.739C52.2967 156.245 49.602 155.445 47.1223 156.031C44.5019 156.386 42.3408 158.01 40.602 160.325C38.8632 162.641 38.1385 165.069 38.813 167.723C39.3468 170.147 40.8577 172.106 43.4862 173.83C46.1147 175.554 48.6688 176.124 51.1485 175.538Z" fill="#602B7A"/>
</g>
</svg>
