<svg width="705" height="310" viewBox="0 0 705 310" fill="none" xmlns="http://www.w3.org/2000/svg">
<path d="M564.166 309.298C563.342 309.298 562.931 308.681 562.725 308.063C562.725 307.239 563.342 306.622 564.166 306.416C564.99 306.416 565.813 307.033 565.813 307.857C565.813 308.681 565.195 309.298 564.166 309.298ZM546.665 308.887C546.459 308.887 546.459 308.887 546.459 308.887C545.635 308.887 545.018 308.063 545.223 307.239C545.223 306.416 546.047 305.798 546.871 306.004C547.694 306.004 548.312 306.828 548.106 307.651C548.106 308.269 547.488 308.887 546.665 308.887ZM581.667 307.651C581.05 307.651 580.432 307.239 580.226 306.416C580.02 305.592 580.638 304.769 581.461 304.769H581.667C582.491 304.769 583.109 305.18 583.314 306.004C583.314 306.827 582.903 307.445 582.079 307.651C581.873 307.651 581.667 307.651 581.667 307.651ZM529.575 305.592C529.369 305.592 529.369 305.592 529.163 305.592C528.34 305.386 527.928 304.769 528.134 303.945C528.34 303.121 529.164 302.71 529.987 302.915H530.193C531.017 303.121 531.428 303.945 531.017 304.769C530.605 305.18 530.193 305.592 529.575 305.592ZM598.963 304.151C598.345 304.151 597.727 303.739 597.521 303.121C597.315 302.298 597.727 301.68 598.551 301.268L598.963 302.71L599.374 304.151C599.169 304.151 599.169 304.151 598.963 304.151ZM152.577 301.062C151.754 301.062 151.136 300.445 151.136 299.621C151.136 298.798 151.754 298.18 152.577 298.18C153.401 297.974 154.018 298.592 154.224 299.415C154.43 300.239 153.607 300.856 152.783 301.062C152.577 301.062 152.577 301.062 152.577 301.062ZM135.076 301.062C134.87 301.062 134.87 301.062 135.076 301.062C134.046 301.062 133.429 300.445 133.429 299.621C133.429 298.798 134.252 297.974 135.076 298.18C135.899 298.18 136.517 299.003 136.311 299.827C136.311 300.445 135.694 301.062 135.076 301.062ZM170.284 299.621L170.078 298.18V296.739C170.902 296.739 171.52 297.15 171.726 297.974C171.52 299.003 171.108 299.621 170.284 299.621ZM117.575 299.621C117.369 299.621 117.369 299.621 117.575 299.621C116.545 299.621 115.927 298.798 116.133 297.974C116.133 297.15 116.957 296.533 117.78 296.739C118.604 296.739 119.222 297.562 119.016 298.386C118.81 299.003 118.192 299.621 117.575 299.621ZM615.846 299.003C615.229 299.003 614.611 298.592 614.405 298.18C614.199 297.356 614.405 296.739 615.229 296.327L615.846 297.562L616.258 299.003C616.052 299.003 616.052 299.003 615.846 299.003ZM513.721 298.18C513.515 298.18 513.103 298.18 512.898 297.974C512.898 297.974 512.898 297.974 512.692 297.974C512.074 297.356 512.074 296.533 512.486 295.915C513.103 295.297 513.927 295.297 514.545 295.709C515.162 296.121 515.162 297.15 514.751 297.768C514.545 297.974 514.133 298.18 513.721 298.18ZM187.374 296.944C186.756 296.944 186.138 296.533 185.933 295.709C185.727 294.885 186.138 294.062 186.962 294.062C187.786 293.856 188.609 294.474 188.609 295.297C188.815 296.121 188.197 296.944 187.374 296.944ZM100.073 296.944H99.8674L100.485 294.062C101.309 294.268 101.72 294.885 101.72 295.709C101.515 296.327 100.897 296.944 100.073 296.944ZM204.257 292.621C203.64 292.621 203.022 292.209 202.816 291.591C202.61 290.767 203.022 289.944 203.846 289.738H204.051C204.875 289.532 205.699 290.15 205.699 290.973C205.905 291.797 205.287 292.621 204.463 292.621C204.463 292.621 204.463 292.621 204.257 292.621ZM82.9838 292.621H82.7779H82.572C81.7484 292.415 81.3366 291.591 81.7484 290.768C81.9543 289.944 82.7779 289.532 83.6015 289.944C84.4251 290.15 84.8369 290.767 84.631 291.591C84.4251 292.209 83.8074 292.621 82.9838 292.621ZM631.7 292.003C631.289 292.003 630.671 291.797 630.465 291.385C630.053 290.768 630.259 289.738 631.083 289.326C631.083 289.326 631.289 289.326 631.289 289.12C632.112 288.709 632.936 289.12 633.142 289.944C633.348 290.768 633.142 291.591 632.318 291.797C632.318 292.003 632.112 292.003 631.7 292.003ZM66.512 287.061C66.3061 287.061 66.1002 287.061 65.8943 286.855C65.2766 286.444 64.8648 285.62 65.0707 285.002C65.2766 284.179 66.1002 283.973 66.9238 284.179H67.1297C67.9533 284.591 68.1592 285.414 67.9533 286.032C67.5415 286.855 66.9238 287.061 66.512 287.061ZM220.935 286.855C220.317 286.855 219.7 286.444 219.494 286.032C219.288 285.208 219.494 284.591 220.317 284.179H220.523C221.347 283.973 222.17 284.385 222.376 285.002C222.582 285.62 222.17 286.65 221.553 286.855C221.347 286.855 221.141 286.855 220.935 286.855ZM502.809 282.738C502.603 281.914 503.014 281.09 503.632 280.884C504.456 280.679 505.073 280.884 505.485 281.708L504.25 282.326L502.809 282.738ZM646.731 282.738C646.319 282.738 645.907 282.532 645.495 282.12C645.084 281.502 645.084 280.679 645.701 280.061L646.731 281.09L647.554 282.326C647.349 282.532 647.143 282.738 646.731 282.738ZM50.2461 280.061C50.0402 280.061 49.6284 280.061 49.4225 279.855C48.5989 279.443 48.3931 278.62 48.8048 278.002C49.2166 277.178 50.0402 276.972 50.8638 277.384C50.8638 277.384 51.0697 277.384 51.0697 277.59C51.6874 278.002 51.8933 278.825 51.4815 279.649C51.2756 279.855 50.8638 280.061 50.2461 280.061ZM236.995 279.649C236.377 279.649 235.966 279.237 235.76 278.825C235.348 278.002 235.76 277.178 236.583 276.972C237.201 276.561 238.025 276.766 238.436 277.384C238.848 278.002 238.642 279.031 237.819 279.443C237.819 279.443 237.613 279.443 237.613 279.649C237.407 279.649 237.201 279.649 236.995 279.649ZM252.849 272.031C252.232 272.031 251.82 271.619 251.614 271.207C251.202 270.384 251.614 269.56 252.437 269.354C253.055 268.942 253.879 269.148 254.29 269.766C254.702 270.384 254.496 271.413 253.673 271.825C253.673 271.825 253.467 271.825 253.467 272.031C253.055 271.825 253.055 272.031 252.849 272.031ZM35.0097 271.413C34.8038 271.413 34.392 271.413 34.1861 271.207C33.5684 270.795 33.3625 269.766 33.7743 269.148C34.1861 268.531 35.0097 268.325 35.6274 268.737H35.8333C36.451 269.148 36.6569 270.178 36.0392 270.795C36.0392 271.207 35.4215 271.413 35.0097 271.413ZM659.291 270.384C658.879 270.384 658.673 270.178 658.261 269.972C657.643 269.354 657.643 268.531 658.055 267.913C658.467 267.295 659.497 267.295 660.114 267.707C660.732 268.119 660.938 269.148 660.32 269.766C660.32 269.766 660.32 269.766 660.32 269.972C660.114 270.384 659.702 270.384 659.291 270.384ZM503.632 265.236H502.191L500.75 265.03C500.956 264.207 501.573 263.795 502.397 263.795C503.22 263.589 503.838 264.413 503.632 265.236ZM268.497 264.207C267.88 264.207 267.468 263.795 267.262 263.383C266.85 262.56 267.262 261.736 268.086 261.53C268.703 261.118 269.527 261.324 269.939 261.942C270.35 262.56 270.145 263.589 269.321 264.001C269.321 264.001 269.115 264.001 269.115 264.207C268.909 264.207 268.703 264.207 268.497 264.207ZM21.0087 260.912C20.5969 260.912 20.391 260.707 19.9792 260.501C19.3615 259.883 19.3615 259.059 19.7733 258.442C20.391 257.824 21.2146 257.824 21.8323 258.236C22.45 258.853 22.45 259.677 22.0382 260.295C21.8323 260.707 21.4205 260.912 21.0087 260.912ZM284.351 256.383C283.734 256.383 283.322 255.971 283.116 255.559C282.704 254.735 283.116 253.912 283.94 253.706C284.557 253.294 285.381 253.5 285.793 254.118C286.205 254.735 285.999 255.765 285.175 256.177C285.175 256.177 284.969 256.177 284.969 256.383C284.763 256.383 284.557 256.383 284.351 256.383ZM667.526 255.147C667.321 255.147 667.321 255.147 667.115 255.147C666.291 254.941 665.879 254.118 666.085 253.294L667.526 253.706L668.968 254.118C668.762 254.735 668.144 255.147 667.526 255.147ZM509.809 250.823C509.397 250.823 509.191 250.617 508.78 250.412C508.162 249.794 508.162 248.97 508.574 248.353C509.191 247.735 510.015 247.735 510.633 248.147C511.25 248.764 511.25 249.588 510.839 250.206C510.633 250.823 510.221 250.823 509.809 250.823ZM300.206 248.764C299.588 248.764 299.176 248.353 298.97 247.941C298.558 247.117 298.97 246.294 299.794 246.088C300.411 245.676 301.235 245.882 301.647 246.5C302.059 247.117 301.853 248.147 301.029 248.559C301.029 248.559 300.823 248.559 300.823 248.764C300.617 248.764 300.411 248.764 300.206 248.764ZM8.44894 248.559C8.03714 248.559 7.62534 248.353 7.41945 248.147L9.68433 246.294L8.65485 247.323L9.89024 246.5C10.5079 247.117 10.302 247.941 9.68433 248.559C9.06664 248.559 8.86073 248.559 8.44894 248.559ZM316.677 241.146L316.06 239.911L315.442 238.47C316.06 238.058 317.089 238.47 317.295 239.087C317.707 239.911 317.501 240.734 316.677 241.146ZM523.81 240.323C523.192 240.323 522.781 239.911 522.575 239.499C522.163 238.675 522.575 237.852 523.398 237.646C524.016 237.234 524.84 237.44 525.251 238.058C525.663 238.675 525.457 239.705 524.634 240.117C524.634 240.117 524.428 240.117 524.428 240.323C524.222 240.323 524.016 240.323 523.81 240.323ZM669.38 237.852C668.556 237.852 667.938 237.234 667.938 236.617L670.821 236.205L669.38 236.411H670.821C671.027 237.028 670.409 237.646 669.38 237.852C669.586 237.852 669.586 237.852 669.38 237.852ZM574.667 235.793C574.461 235.793 574.255 235.793 574.049 235.587L574.667 234.352L575.49 233.116C576.108 233.528 576.314 234.352 575.902 235.175C575.49 235.587 575.079 235.793 574.667 235.793ZM-1.84593 234.352C-2.25773 234.352 -2.8754 234.146 -3.08131 233.734C-3.4931 233.116 -3.28721 232.087 -2.66952 231.675C-2.05182 231.263 -1.22823 231.263 -0.610535 231.881C-0.610535 231.881 -0.610527 232.087 -0.404625 232.087C0.007164 232.704 -0.198753 233.734 -0.816444 234.146C-1.22824 234.352 -1.43414 234.352 -1.84593 234.352ZM540.694 234.146L540.282 232.704L539.87 231.263C540.694 231.057 541.517 231.469 541.723 232.293C541.929 233.116 541.517 233.94 540.694 234.146ZM332.737 233.734L332.12 232.499L331.502 231.057C332.12 230.645 333.149 231.057 333.355 231.675C333.767 232.499 333.355 233.322 332.737 233.734ZM557.577 232.087C556.754 232.087 556.136 231.469 556.136 230.646C556.136 229.822 556.754 229.204 557.577 229.204C558.401 229.204 559.019 229.822 559.019 230.646C559.019 231.469 558.401 232.087 557.577 232.087ZM348.797 226.322L348.18 225.086L347.562 223.645C348.386 223.233 349.209 223.645 349.415 224.263C349.621 225.086 349.415 226.116 348.797 226.322ZM-13.5821 221.38C-13.9939 221.38 -14.1998 221.174 -14.6116 220.968C-15.2293 220.351 -15.2292 219.527 -14.8175 218.909C-14.1998 218.292 -13.3762 218.292 -12.7585 218.703C-12.1408 219.321 -12.1408 220.145 -12.5526 220.762C-12.7585 221.174 -13.1703 221.38 -13.5821 221.38ZM664.85 220.968C664.232 220.968 663.82 220.557 663.614 220.145C663.203 219.321 663.615 218.498 664.438 218.292C665.262 217.88 666.085 218.292 666.291 218.909C666.703 219.733 666.291 220.556 665.468 220.762C665.262 220.968 665.056 220.968 664.85 220.968ZM364.24 219.527C363.622 219.527 363.21 219.115 362.798 218.703C362.387 217.88 362.798 217.056 363.416 216.85C364.24 216.439 365.063 216.85 365.269 217.674C365.681 218.498 365.269 219.321 364.446 219.527C364.651 219.321 364.446 219.527 364.24 219.527ZM-96.5587 217.88C-97.1764 217.88 -97.5882 217.674 -97.7941 217.056C-98.2059 216.439 -98 215.409 -97.1764 214.997C-96.5587 214.585 -95.5292 214.997 -95.1174 215.615C-94.7056 216.233 -94.9115 217.262 -95.7351 217.674C-95.941 217.674 -96.3528 217.88 -96.5587 217.88ZM380.3 212.526C379.682 212.526 379.064 212.115 378.858 211.703C378.652 210.879 378.858 210.262 379.682 209.85H379.888C380.711 209.644 381.535 210.056 381.741 210.673C381.947 211.291 381.535 212.321 380.917 212.526C380.711 212.526 380.506 212.526 380.3 212.526ZM-28.4067 212.321C-28.6126 212.321 -28.6126 212.321 -28.8185 212.321L-28.4067 210.879L-27.789 209.644C-27.1713 210.056 -26.7595 210.879 -26.9654 211.497C-27.3772 211.909 -27.789 212.321 -28.4067 212.321ZM-80.2928 211.497C-80.9105 211.497 -81.5282 211.085 -81.7341 210.468C-81.94 209.644 -81.5282 208.82 -80.7046 208.614H-80.4987C-79.6751 208.409 -78.8515 209.026 -78.8515 209.85C-78.6457 210.673 -79.2634 211.497 -80.0869 211.497C-79.881 211.497 -80.0869 211.497 -80.2928 211.497ZM-62.7915 207.791L-62.9975 206.35V204.908C-62.1739 204.908 -61.5562 205.32 -61.3503 206.144C-61.3503 206.967 -61.968 207.791 -62.7915 207.791ZM-45.2903 207.791C-45.4962 207.791 -45.4962 207.791 -45.2903 207.791C-46.3198 207.791 -46.9374 206.967 -46.7315 206.144C-46.7315 205.32 -45.908 204.702 -45.0844 204.908C-44.2608 204.908 -43.6431 205.732 -43.849 206.555C-44.0549 207.173 -44.6726 207.791 -45.2903 207.791ZM396.566 205.938C395.948 205.938 395.33 205.526 395.124 205.114C394.918 204.291 395.124 203.673 395.948 203.261H396.154C396.977 203.055 397.801 203.467 398.007 204.085C398.213 204.702 397.801 205.732 397.183 205.938C396.977 205.732 396.771 205.938 396.566 205.938ZM656.202 205.732C655.79 205.732 655.173 205.526 654.967 205.114C654.555 204.496 654.761 203.467 655.379 203.055C655.996 202.643 656.82 202.643 657.438 203.261C657.438 203.261 657.438 203.467 657.643 203.467C658.055 204.085 657.849 205.114 657.232 205.526C656.82 205.732 656.408 205.732 656.202 205.732ZM413.449 199.349L412.831 198.114L412.42 196.672C413.243 196.467 414.067 196.878 414.273 197.496C414.479 198.114 414.273 198.937 413.449 199.349ZM430.127 193.172L429.509 191.937L429.097 190.496C429.921 190.29 430.745 190.701 430.95 191.319C431.156 191.937 430.745 192.76 430.127 193.172ZM645.084 192.143C644.672 192.143 644.26 191.937 644.054 191.731C643.642 191.113 643.642 190.29 644.054 189.672C644.672 189.054 645.495 189.054 646.113 189.672C646.113 189.672 646.113 189.672 646.319 189.878C646.937 190.495 646.731 191.319 646.113 191.937C645.701 191.937 645.495 192.143 645.084 192.143ZM445.981 187.407C445.363 187.407 444.746 186.995 444.54 186.378C444.334 185.554 444.746 184.73 445.363 184.524C446.187 184.319 447.01 184.73 447.216 185.554C447.422 186.378 447.01 187.201 446.187 187.407C446.393 187.407 446.187 187.407 445.981 187.407ZM462.659 181.848C462.041 181.848 461.423 181.436 461.217 180.818C461.011 179.995 461.423 179.171 462.041 178.965C462.865 178.759 463.688 179.171 463.894 179.995C464.1 180.818 463.688 181.642 462.865 181.848C463.07 181.848 462.865 181.848 462.659 181.848ZM632.524 179.995C632.112 179.995 631.906 179.789 631.494 179.583C630.877 179.171 630.877 178.142 631.289 177.524C631.7 176.906 632.73 176.7 633.348 177.318C633.348 177.318 633.348 177.318 633.553 177.318C634.171 177.936 634.171 178.759 633.759 179.377C633.348 179.789 632.936 179.995 632.524 179.995ZM479.336 176.906C478.719 176.906 478.101 176.494 477.895 175.877C477.689 175.053 478.101 174.23 478.924 174.024H479.13C479.954 173.818 480.778 174.435 480.778 175.259C480.983 176.083 480.366 176.906 479.542 176.906C479.748 176.906 479.542 176.906 479.336 176.906ZM497.043 172.171L496.632 170.729L496.22 169.288C497.043 169.082 497.867 169.494 498.073 170.318C498.073 171.347 497.661 171.965 497.043 172.171ZM617.493 170.729C617.288 170.729 617.082 170.729 616.876 170.523C616.258 170.112 615.846 169.288 616.258 168.67C616.67 168.053 617.493 167.641 618.111 167.847C618.111 167.847 618.111 167.847 618.317 167.847C619.141 168.259 619.346 169.082 618.935 169.906C618.523 170.523 618.111 170.729 617.493 170.729ZM513.721 168.464C513.103 168.464 512.486 168.053 512.28 167.229C512.074 166.405 512.486 165.582 513.309 165.582C514.133 165.376 514.957 165.994 514.957 166.817C514.957 167.641 514.545 168.464 513.721 168.464ZM600.816 165.17C600.61 165.17 600.61 165.17 600.404 165.17C599.58 164.964 599.169 164.141 599.374 163.317C599.58 162.493 600.404 162.082 601.022 162.288H601.228C602.051 162.493 602.463 163.317 602.257 164.141C602.051 164.758 601.433 165.17 600.816 165.17ZM531.017 165.17C530.399 165.17 529.575 164.552 529.575 163.935C529.369 163.111 529.987 162.493 530.605 162.288H530.811C531.634 162.288 532.252 162.699 532.458 163.523C532.664 164.347 532.046 165.17 531.017 165.17ZM548.518 162.905L548.312 161.464V160.023C549.136 160.023 549.753 160.434 549.959 161.258C550.165 162.082 549.341 162.905 548.518 162.905ZM583.52 162.493C582.491 162.493 581.873 161.67 582.079 160.846C582.079 160.023 582.903 159.405 583.726 159.611C584.55 159.611 585.168 160.434 584.962 161.258C584.962 162.082 584.344 162.493 583.52 162.493ZM565.813 161.876C564.99 161.876 564.372 161.258 564.372 160.434C564.372 159.611 564.99 158.993 565.813 158.993C566.637 158.993 567.254 159.405 567.46 160.229C567.666 161.052 566.843 161.67 566.019 161.876C566.019 161.876 566.019 161.876 565.813 161.876Z" fill="#612A7A"/>
<path d="M658.055 137.786C657.643 137.786 657.438 137.786 657.026 137.581C655.79 137.375 654.761 136.551 654.143 135.522L642.613 117.403C641.172 115.138 641.789 112.255 644.054 110.814L672.674 92.6949C673.703 92.0772 674.939 91.8713 676.174 92.0772C677.41 92.2831 678.439 93.1067 679.057 94.1362L690.587 112.255C691.205 113.285 691.411 114.52 691.205 115.755C690.999 116.991 690.175 118.02 689.146 118.638L660.526 136.757C659.702 137.375 658.879 137.786 658.055 137.786ZM675.145 93.9303C674.733 93.9303 674.115 94.1362 673.703 94.3421L645.084 112.461C644.466 112.873 644.054 113.491 643.848 114.108C643.642 114.726 643.848 115.55 644.26 116.167L655.79 134.286C656.614 135.522 658.261 135.933 659.497 135.11L688.116 116.991C688.734 116.579 689.146 115.961 689.352 115.344C689.557 114.726 689.352 113.902 688.94 113.285L677.41 95.1657C676.998 94.548 676.38 94.1362 675.762 93.9303C675.557 94.1362 675.351 93.9303 675.145 93.9303Z" fill="#602B7A"/>
<path d="M664.438 116.786L661.144 115.962L657.644 115.139L657.026 118.639L656.202 121.933L658.879 120.492L660.938 123.786L664.232 121.933L661.967 118.433L664.438 116.786Z" fill="#602B7A"/>
<path d="M606.698 201.79L590.226 194.995L597.844 211.055L601.345 207.349L605.668 211.055L607.316 209.202L603.198 205.496L606.698 201.79Z" fill="#602B7A"/>
<path d="M705 294.679L699.235 296.533L697.176 302.504L695.117 296.738L689.146 294.679L695.117 292.415L697.176 286.649L699.235 292.62L705 294.679Z" fill="#602B7A"/>
<path d="M671.233 191.316C675.145 191.316 678.851 192.346 682.146 194.405C685.44 196.464 687.911 199.346 689.97 203.053C692.029 206.965 692.646 210.259 692.441 213.142C692.029 216.024 690.588 218.289 687.911 219.524C686.47 220.348 685.234 220.554 683.793 220.348C682.558 220.142 681.322 219.524 680.293 218.495C679.881 221.995 677.822 224.672 674.322 226.525C672.263 227.554 670.204 227.966 668.145 227.966C666.086 227.76 664.027 227.143 662.38 225.907C660.526 224.672 659.085 223.025 658.056 220.76C657.026 218.701 656.409 216.436 656.409 214.377C656.409 212.112 657.026 210.259 658.056 208.406C659.085 206.553 660.732 205.111 662.791 204.082C664.439 203.258 665.88 202.847 667.321 202.641C668.762 202.435 670.204 202.847 671.645 203.258L670.204 200.376L675.145 197.905L682.969 212.936C683.587 213.965 684.205 214.583 684.822 214.995C685.44 215.201 686.264 215.2 686.881 214.789C688.117 214.171 688.734 212.936 688.529 211.288C688.529 209.641 687.705 207.376 686.47 204.906C684.822 201.817 682.763 199.346 680.087 197.699C677.41 196.052 674.527 195.228 671.233 195.228C667.939 195.228 664.644 196.052 661.35 197.905C658.056 199.552 655.379 201.817 653.526 204.7C651.673 207.376 650.643 210.465 650.438 213.553C650.232 216.848 651.055 219.936 652.702 223.231C654.35 226.525 656.614 228.996 659.291 230.849C661.968 232.702 665.056 233.525 668.351 233.731C671.645 233.731 674.939 232.908 678.234 231.26C679.675 230.437 681.116 229.613 682.352 228.584C683.587 227.554 684.822 226.319 685.852 224.878L688.94 227.76C687.911 229.201 686.675 230.437 685.234 231.672C683.587 232.908 681.94 233.937 680.293 234.967C676.175 237.026 672.057 238.055 667.939 238.055C663.821 237.849 660.115 236.82 656.82 234.761C653.526 232.702 650.849 229.613 648.79 225.701C646.731 221.789 645.908 217.877 646.114 213.965C646.32 210.053 647.555 206.347 649.82 202.847C652.085 199.552 655.379 196.67 659.497 194.611C663.203 192.346 667.321 191.316 671.233 191.316ZM676.587 217.465C677.204 215.612 676.792 213.553 675.763 211.494C674.733 209.435 673.292 207.994 671.233 207.376C669.38 206.759 667.527 206.965 665.468 207.994C663.615 209.024 662.174 210.465 661.762 212.318C661.144 214.171 661.556 216.23 662.585 218.289C663.615 220.348 665.056 221.789 667.115 222.407C668.968 223.025 670.821 222.819 672.88 221.789C674.939 220.76 676.175 219.318 676.587 217.465Z" fill="#602B7A"/>
<path d="M91.2457 77.1674C91.0564 77.1674 90.8671 77.1674 90.6778 77.1674C89.5419 76.978 88.406 76.4101 87.6488 75.4635L74.2075 58.236L70.6106 61.0757C69.664 61.833 68.5281 62.2116 67.2029 62.0223C66.0671 61.833 64.9312 61.2651 64.1739 60.3185L54.8976 48.3918C53.3831 46.4986 53.7617 43.6589 55.6548 42.1444L84.0518 19.9948C84.9984 19.2376 86.1342 18.8589 87.4594 19.0482C88.5953 19.2376 89.7312 19.8055 90.4884 20.7521L115.856 53.5032C116.614 54.4498 116.992 55.5857 116.803 56.9109C116.614 58.0467 116.046 59.1826 115.099 59.9399L93.7068 76.5994C93.1388 76.7887 92.1923 77.1674 91.2457 77.1674ZM74.5861 55.3964L89.1633 74.1383C89.5419 74.7063 90.1098 75.0849 90.8671 75.0849C91.6243 75.0849 92.1923 74.8956 92.7602 74.517L114.153 57.8574C114.721 57.4788 115.099 56.9109 115.099 56.1536C115.099 55.3963 114.91 54.8284 114.531 54.2605L89.1633 21.6986C88.7846 21.1307 88.2167 20.7521 87.4594 20.7521C86.7022 20.7521 86.1342 20.9414 85.5663 21.32L57.1693 43.4696C56.0335 44.4162 55.8442 45.9307 56.7907 47.0666L66.0671 58.9933C66.4457 59.5612 67.0136 59.9399 67.7709 59.9399C68.5281 59.9399 69.0961 59.7505 69.664 59.3719L74.5861 55.3964Z" fill="#602B7A"/>
<path d="M77.8046 39.4935C77.6153 39.4935 77.2366 39.3041 77.0473 39.1148C76.6687 38.7362 76.858 38.1683 77.2366 37.7896L87.2702 30.0278L85.3771 27.5667C84.9985 27.1881 85.1878 26.6202 85.5664 26.2415C85.945 25.8629 86.513 26.0522 86.8916 26.4309L89.9206 30.2171L78.3725 39.1148C78.1832 39.4935 77.9939 39.4935 77.8046 39.4935Z" fill="#602B7A"/>
<path d="M75.7219 40.2485L76.1005 37.7874L76.2899 35.5156L78.3723 38.166L80.4548 40.6271L77.9937 40.4378L75.7219 40.2485Z" fill="#602B7A"/>
<path d="M54.8976 142.862C54.7083 142.862 54.3297 142.862 54.1404 142.673C53.7617 142.294 53.7617 141.726 54.1404 141.348L65.4991 129.989C65.8778 129.61 66.4457 129.61 66.8243 129.989C67.203 130.368 67.203 130.936 66.8243 131.314L55.4655 142.673C55.2762 142.862 55.0869 142.862 54.8976 142.862Z" fill="#602B7A"/>
<path d="M66.2564 142.862C66.0671 142.862 65.6885 142.862 65.4991 142.673L54.1404 131.314C53.7617 130.936 53.7617 130.368 54.1404 129.989C54.519 129.61 55.0869 129.61 55.4655 129.989L66.8243 141.348C67.203 141.726 67.203 142.294 66.8243 142.673C66.8243 142.862 66.4457 142.862 66.2564 142.862Z" fill="#602B7A"/>
<path d="M60.9557 151.001C52.626 151.001 46 144.186 46 136.046C46 127.716 52.8153 121.09 60.9557 121.09C69.2855 121.09 75.9115 127.905 75.9115 136.046C75.9115 144.186 69.2855 151.001 60.9557 151.001ZM60.9557 122.794C53.7618 122.794 47.8931 128.662 47.8931 135.856C47.8931 143.05 53.7618 148.919 60.9557 148.919C68.1496 148.919 74.0183 143.05 74.0183 135.856C74.0183 128.662 68.1496 122.794 60.9557 122.794Z" fill="#602B7A"/>
<g clip-path="url(#clip0_0_1)">
<path d="M416.268 262C415.84 262 415.376 261.823 415.02 261.503L395.049 242.465L395.798 241.258C395.905 241.08 407.353 222.611 411.989 211.103C417.623 197.038 414.77 173.668 414.735 173.419C414.628 172.46 415.305 171.572 416.268 171.43C417.231 171.288 418.122 171.999 418.265 172.957C418.408 173.952 421.296 197.465 415.305 212.418C411.204 222.611 402.289 237.529 399.614 241.897L417.516 258.946C418.229 259.62 418.265 260.757 417.587 261.467C417.231 261.823 416.767 262 416.304 262H416.268Z" fill="#FFD631"/>
<path d="M477.606 255.962C477.285 255.962 476.964 255.891 476.679 255.714L454.248 241.933L454.319 240.868C454.319 240.868 455.246 228.543 454.604 213.341C453.891 196.755 449.469 173.171 449.398 172.958C449.219 171.999 449.861 171.075 450.824 170.898C451.751 170.72 452.714 171.36 452.892 172.318C452.928 172.567 457.421 196.399 458.135 213.235C458.67 226.021 458.135 236.747 457.921 240.086L478.497 252.73C479.353 253.263 479.603 254.329 479.068 255.181C478.747 255.714 478.141 256.034 477.534 256.034L477.606 255.962Z" fill="#FFD631"/>
<path d="M494.973 102.81C488.625 102.81 483.098 96.3106 478.176 83.027C477.82 82.1035 478.319 81.0735 479.211 80.7538C480.138 80.3987 481.172 80.8959 481.493 81.7839C485.737 93.2205 490.408 99.2585 495.009 99.2585C495.116 99.2585 495.187 99.2585 495.294 99.2585C508.346 98.5127 522.04 54.4353 526.212 37.5289L526.462 36.5344L546.718 30.7806C547.681 30.4964 548.643 31.0647 548.929 31.9882C549.214 32.9471 548.643 33.9061 547.716 34.1902L529.422 39.3758C526.926 49.2852 512.839 101.816 495.508 102.81C495.329 102.81 495.151 102.81 494.973 102.81Z" fill="#FFD631"/>
<path d="M477.463 61.2188H386.419C377.793 61.2188 370.8 68.1837 370.8 76.7755V167.452C370.8 176.044 377.793 183.009 386.419 183.009H477.463C486.09 183.009 493.083 176.044 493.083 167.452V76.7755C493.083 68.1837 486.09 61.2188 477.463 61.2188Z" fill="#FFD631"/>
<path d="M475.787 173.703H406.782C399.258 173.703 393.159 167.594 393.159 160.136V91.3734C393.159 83.8792 399.293 77.8057 406.782 77.8057H475.787C483.312 77.8057 489.41 83.9147 489.41 91.3734V160.1C489.41 167.594 483.276 173.668 475.787 173.668V173.703ZM406.782 81.3574C401.219 81.3574 396.726 85.8682 396.726 91.3734V160.1C396.726 165.641 401.255 170.116 406.782 170.116H475.787C481.35 170.116 485.844 165.605 485.844 160.1V91.3734C485.844 85.8326 481.315 81.3574 475.787 81.3574H406.782Z" fill="#684B99"/>
<path d="M430.996 34.7578C431.567 73.4009 370.621 73.4009 371.228 34.7578C370.657 -3.8854 431.602 -3.8854 430.996 34.7578Z" fill="white"/>
<path d="M401.076 65.5162C394.942 65.5162 388.844 63.989 383.602 60.97C374.259 55.5358 369.231 46.2302 369.409 34.758C369.231 23.3213 374.295 14.0157 383.638 8.5815C394.087 2.50799 408.137 2.50799 418.586 8.5815C427.894 14.0157 432.958 23.3213 432.779 34.7935C432.922 46.2657 427.894 55.5713 418.55 61.0055C413.344 64.0245 407.21 65.5518 401.076 65.5518V65.5162ZM401.076 7.55149C395.584 7.55149 390.093 8.90116 385.421 11.636C377.254 16.3954 372.832 24.6 372.975 34.758C372.832 44.9515 377.254 53.1561 385.421 57.9155C394.8 63.3497 407.388 63.3852 416.767 57.9155C424.934 53.1561 429.356 44.9515 429.213 34.7935C429.356 24.6 424.934 16.3954 416.767 11.636C412.096 8.90116 406.604 7.55149 401.076 7.55149Z" fill="#684B99"/>
<path d="M492.655 34.7578C493.225 73.4009 432.28 73.4009 432.886 34.7578C432.316 -3.8854 493.261 -3.8854 492.655 34.7578Z" fill="white"/>
<path d="M462.771 65.5162C456.637 65.5162 450.539 63.989 445.296 60.97C435.953 55.5358 430.925 46.2302 431.103 34.758C430.925 23.3213 435.989 14.0157 445.296 8.5815C455.745 2.50799 469.796 2.50799 480.245 8.5815C489.552 14.0157 494.616 23.3213 494.438 34.7935C494.581 46.2657 489.552 55.5713 480.245 61.0055C475.038 64.0245 468.904 65.5518 462.771 65.5518V65.5162ZM462.771 7.55149C457.279 7.55149 451.787 8.90116 447.115 11.636C438.949 16.3954 434.527 24.5999 434.669 34.7225C434.527 44.916 438.949 53.1206 447.115 57.88C456.494 63.3497 469.083 63.3497 478.462 57.88C486.628 53.1206 491.05 44.916 490.907 34.758C491.05 24.5644 486.628 16.3599 478.462 11.6005C473.79 8.86564 468.298 7.51597 462.806 7.51597L462.771 7.55149Z" fill="#684B99"/>
<path d="M457.635 40.6897C457.778 55.5361 444.191 54.1154 444.655 40.6897C444.155 27.2641 457.778 25.8078 457.635 40.6897Z" fill="#602B7A"/>
<path d="M450.289 40.69C450.289 42.0041 447.828 43.0697 444.797 43.1052C444.583 41.5424 444.583 39.7665 444.797 38.2393C447.828 38.2748 450.289 39.3758 450.289 40.69Z" fill="white"/>
<path d="M395.977 40.6897C396.119 55.5361 382.532 54.1154 382.996 40.6897C382.497 27.2641 396.119 25.8078 395.977 40.6897Z" fill="#602B7A"/>
<path d="M388.63 40.69C388.63 42.0041 386.17 43.0697 383.139 43.1052C382.925 41.5424 382.925 39.7665 383.139 38.2393C386.17 38.2748 388.63 39.3758 388.63 40.69Z" fill="white"/>
<path d="M346.978 172.602C346.55 172.602 346.122 172.46 345.765 172.14L332 159.496L333.819 158.217C341.45 152.961 344.802 141.879 348.369 130.123C352.969 114.992 358.14 97.8373 374.009 90.13C374.901 89.7037 375.971 90.0589 376.399 90.9469C376.826 91.8348 376.47 92.9003 375.578 93.3265C361.1 100.359 356.357 116.022 351.792 131.153C348.297 142.625 345.016 153.529 337.599 159.816L348.19 169.512C348.904 170.187 348.975 171.288 348.297 172.034C347.941 172.424 347.477 172.602 346.978 172.602Z" fill="#FFD631"/>
<path d="M433.279 71.0928C427.894 71.3415 412.274 71.6611 412.559 77.0243C412.845 82.3875 421.082 88.603 432.423 88.0703C443.763 87.5375 458.563 69.9563 433.279 71.0928Z" fill="#602B7A"/>
<path d="M463.769 120.32V131.685L421.938 147.526V136.587L451.216 126.003L421.938 115.312V104.443L463.769 120.284V120.32Z" fill="#602B7A"/>
</g>
<g clip-path="url(#clip1_0_1)">
<path d="M239.1 258C238.816 258 238.497 257.929 238.248 257.786L215.29 245.084L216.106 243.518C216.213 243.305 227.106 222.881 228.739 210.748C230.69 196.302 223.665 170.256 223.594 169.972C223.345 169.011 223.877 168.05 224.835 167.801C225.794 167.552 226.752 168.086 227 169.047C227.284 170.15 234.31 196.053 232.252 211.246C230.761 222.134 222.671 238.537 220.045 243.661L239.952 254.691C240.803 255.153 241.123 256.256 240.661 257.11C240.342 257.715 239.739 258.035 239.1 258.035V258Z" fill="#602B7A"/>
<path d="M286.294 257.039C286.081 257.039 285.868 257.039 285.69 256.932L258.403 246.863L258.758 245.333C258.794 245.119 263.868 223.023 266.884 206.585C269.794 190.751 258.332 169.972 258.226 169.758C257.764 168.904 258.048 167.837 258.9 167.339C259.752 166.876 260.816 167.161 261.313 168.015C261.81 168.904 273.519 190.111 270.361 207.225C267.771 221.209 263.726 239.284 262.555 244.586L286.897 253.588C287.819 253.908 288.281 254.94 287.961 255.865C287.713 256.576 287.003 257.039 286.294 257.039Z" fill="#602B7A"/>
<path d="M181.581 201.283C180.977 201.283 180.41 200.998 180.09 200.465C179.558 199.646 179.806 198.543 180.658 198.009L192.9 190.324C185.626 183.457 158.906 156.201 161.142 130.334C162.135 118.841 168.735 109.27 180.765 101.833C181.616 101.335 182.681 101.584 183.213 102.403C183.71 103.256 183.461 104.324 182.645 104.858C171.645 111.654 165.613 120.336 164.69 130.654C162.313 158.158 196.626 188.972 196.981 189.292L198.755 190.858L182.539 201.034C182.255 201.212 181.935 201.319 181.581 201.319V201.283Z" fill="#602B7A"/>
<path d="M326.781 165.453L326.213 164.67C325.645 163.887 312.161 145.065 308.932 135.707C306.058 127.31 305.952 119.482 305.845 111.903C305.703 100.837 305.597 91.3016 297.081 81.837C296.442 81.0898 296.477 79.9868 297.223 79.3107C297.932 78.6703 299.068 78.7058 299.742 79.4531C309.145 89.914 309.252 100.588 309.394 111.868C309.5 119.162 309.571 126.705 312.268 134.533C314.964 142.361 325.894 158.088 328.519 161.788L346.119 160.756C347.113 160.721 347.929 161.432 348 162.429C348.071 163.425 347.326 164.243 346.332 164.314L326.781 165.489V165.453Z" fill="#602B7A"/>
<path d="M285.939 57.3213H195.348C186.765 57.3213 179.806 64.2988 179.806 72.9059V163.745C179.806 172.352 186.765 179.33 195.348 179.33H285.939C294.522 179.33 301.481 172.352 301.481 163.745V72.9059C301.481 64.2988 294.522 57.3213 285.939 57.3213Z" fill="#602B7A"/>
<path d="M281.326 173.708H212.665C205.177 173.708 199.11 167.588 199.11 160.081V91.2307C199.11 83.7231 205.213 77.6387 212.665 77.6387H281.326C288.813 77.6387 294.881 83.7587 294.881 91.2307V160.081C294.881 167.588 288.777 173.708 281.326 173.708ZM212.665 81.1968C207.129 81.1968 202.658 85.7156 202.658 91.2307V160.081C202.658 165.631 207.165 170.15 212.665 170.15H281.326C286.861 170.15 291.332 165.631 291.332 160.081V91.2307C291.332 85.68 286.826 81.1968 281.326 81.1968H212.665Z" fill="#684B99"/>
<path d="M239.703 30.8127C240.271 69.5251 179.629 69.5251 180.232 30.8127C179.665 -7.89979 240.306 -7.89979 239.703 30.8127Z" fill="white"/>
<path d="M209.968 61.6265C203.865 61.6265 197.797 60.0965 192.581 57.0721C183.284 51.6281 178.281 42.3058 178.458 30.8131C178.281 19.3559 183.319 10.0336 192.581 4.58967C202.977 -1.49473 216.958 -1.49473 227.355 4.58967C236.616 10.0336 241.655 19.3559 241.477 30.8487C241.619 42.3414 236.616 51.6637 227.355 57.1077C222.174 60.1321 216.071 61.6621 209.968 61.6621V61.6265ZM209.968 3.55781C204.503 3.55781 199.039 4.9099 194.39 7.64966C186.265 12.4176 181.865 20.6368 182.006 30.8131C181.865 41.0249 186.265 49.2442 194.39 54.0121C203.723 59.4916 216.248 59.4916 225.581 54.0121C233.706 49.2442 238.106 41.0249 237.965 30.8487C238.106 20.6368 233.706 12.4176 225.581 7.64966C220.932 4.9099 215.468 3.55781 210.003 3.55781H209.968Z" fill="#684B99"/>
<path d="M301.09 30.8127C301.658 69.5251 241.016 69.5251 241.619 30.8127C241.052 -7.89979 301.694 -7.89979 301.09 30.8127Z" fill="white"/>
<path d="M271.355 61.6265C265.252 61.6265 259.184 60.0965 253.968 57.0721C244.671 51.6281 239.668 42.3058 239.845 30.8131C239.668 19.3559 244.706 10.0336 253.968 4.58967C264.364 -1.49473 278.345 -1.49473 288.742 4.58967C298.003 10.0336 303.042 19.3559 302.864 30.8487C303.006 42.3414 298.003 51.6637 288.742 57.1077C283.561 60.1321 277.458 61.6621 271.355 61.6621V61.6265ZM271.355 3.55781C265.89 3.55781 260.426 4.9099 255.777 7.64966C247.652 12.4176 243.252 20.6368 243.394 30.8131C243.252 41.0249 247.652 49.2442 255.777 54.0121C265.11 59.4916 277.635 59.4916 286.968 54.0121C295.094 49.2442 299.494 41.0249 299.352 30.8487C299.494 20.6368 295.094 12.4176 286.968 7.64966C282.319 4.9099 276.855 3.55781 271.39 3.55781H271.355Z" fill="#684B99"/>
<path d="M293.248 38.9607C293.39 53.8337 279.871 52.4105 280.332 38.9607C279.835 25.511 293.39 24.0522 293.248 38.9607Z" fill="#602B7A"/>
<path d="M285.939 38.961C285.939 40.2775 283.49 41.3449 280.474 41.3805C280.261 39.8149 280.261 38.0359 280.474 36.5059C283.49 36.5414 285.939 37.6445 285.939 38.961Z" fill="white"/>
<path d="M231.897 38.9607C232.039 53.8337 218.519 52.4105 218.981 38.9607C218.484 25.511 232.039 24.0522 231.897 38.9607Z" fill="#602B7A"/>
<path d="M224.587 38.961C224.587 40.2775 222.139 41.3449 219.123 41.3805C218.91 39.8149 218.91 38.0359 219.123 36.5059C222.139 36.5414 224.587 37.6445 224.587 38.961Z" fill="white"/>
<path d="M214.013 68.3158C214.013 68.3158 234.061 72.8346 243.394 72.2653C252.726 71.696 273.342 65.7539 273.342 65.7539C273.342 65.7539 265.429 79.6306 243.394 81.6232C221.358 83.6157 214.013 68.3158 214.013 68.3158Z" fill="#FFD631"/>
<path d="M267.239 114.892L238.106 125.602L267.239 136.206V147.165L225.616 131.295V119.909L267.239 104.04V114.928V114.892Z" fill="white"/>
</g>
<defs>
<clipPath id="clip0_0_1">
<rect width="217" height="258" fill="white" transform="translate(332 4)"/>
</clipPath>
<clipPath id="clip1_0_1">
<rect width="187" height="258" fill="white" transform="translate(161)"/>
</clipPath>
</defs>
</svg>

