<svg width="1323" height="407" viewBox="0 0 1323 407" fill="none" xmlns="http://www.w3.org/2000/svg">
<g opacity="0.2">
<path d="M1973.89 241.591C1973.89 241.591 1672.15 92.7823 1518.2 155.914C1364.24 219.046 1273.89 352.941 983.826 316.945C693.768 280.949 743.993 69.4372 872.43 79.0227C1000.87 88.6082 886.888 451.915 521.962 314.052C-47.8496 98.7722 -106.673 653.635 212.963 768.767" stroke="white" stroke-width="2" stroke-miterlimit="10" stroke-linecap="round" stroke-dasharray="0.3 8"/>
<path d="M1133.86 338.11C1123.97 337.372 1116.55 328.759 1117.29 318.871C1118.03 308.983 1126.64 301.566 1136.53 302.304C1146.42 303.042 1153.83 311.656 1153.09 321.543C1152.36 331.431 1143.74 338.848 1133.86 338.11Z" fill="white"/>
<path d="M817.819 94.5525C814.711 96.6113 810.523 95.7607 808.464 92.6528C806.405 89.5448 807.256 85.3563 810.364 83.2975C813.472 81.2387 817.66 82.0892 819.719 85.1972C821.778 88.3052 820.927 92.4937 817.819 94.5525Z" fill="white"/>
<path d="M1069.22 312.135L1093.82 313.971L1091.99 338.573L1067.39 336.737L1069.22 312.135Z" stroke="white" stroke-width="1.92" stroke-miterlimit="10"/>
<path d="M792.63 101.726L800.363 96.6029L805.485 104.336L797.752 109.459L792.63 101.726Z" stroke="white" stroke-width="1.92" stroke-miterlimit="10"/>
</g>
</svg>
