<svg width="1920" height="661" viewBox="0 0 1920 661" fill="none" xmlns="http://www.w3.org/2000/svg">
<g opacity="0.2">
<path d="M1404.35 157.336C1404.35 157.336 1059.14 327.59 882.992 255.36C706.85 183.13 603.47 29.9389 271.61 71.1224C-60.2508 112.306 -2.78744 354.3 144.16 343.333C291.107 332.366 160.701 -83.2985 -256.816 74.4324C-908.745 320.737 -976.046 -314.089 -610.346 -445.814" stroke="#2F2535" stroke-width="2" stroke-miterlimit="10" stroke-linecap="round" stroke-dasharray="0.3 8"/>
<path d="M1119.57 235.605C1105.14 236.682 1094.31 249.257 1095.39 263.691C1096.46 278.125 1109.04 288.954 1123.47 287.876C1137.91 286.799 1148.74 274.224 1147.66 259.79C1146.58 245.355 1134.01 234.527 1119.57 235.605Z" fill="#2F2535"/>
<path d="M443.259 46.9078C431.947 47.7521 423.461 57.6072 424.305 68.9198C425.149 80.2324 435.004 88.7187 446.317 87.8744C457.629 87.0301 466.116 77.175 465.271 65.8624C464.427 54.5498 454.572 46.0635 443.259 46.9078Z" fill="#2F2535"/>
<path d="M81.6814 325.565C78.1255 323.21 73.3334 324.183 70.9779 327.739C68.6224 331.294 69.5955 336.087 73.1514 338.442C76.7073 340.798 81.4994 339.824 83.8549 336.269C86.2104 332.713 85.2373 327.921 81.6814 325.565Z" fill="#2F2535"/>
<path d="M1008.97 299.505L1057.94 295.85L1054.29 246.874L1005.31 250.529L1008.97 299.505Z" stroke="#2F2535" stroke-width="1.92" stroke-miterlimit="10"/>
<path d="M369.312 76.6261L397.46 74.5254L395.359 46.3776L367.212 48.4783L369.312 76.6261Z" stroke="#2F2535" stroke-width="1.92" stroke-miterlimit="10"/>
<path d="M52.8614 317.358L61.709 323.219L67.5699 314.371L58.7222 308.51L52.8614 317.358Z" stroke="#2F2535" stroke-width="1.92" stroke-miterlimit="10"/>
</g>
<g opacity="0.2">
<path d="M574.162 788.843C574.162 788.843 846.809 511.917 1038.74 522.321C1230.66 532.724 1380.09 644.476 1682.84 495.052C1985.6 345.627 1850.48 133.961 1714.01 193.195C1577.54 252.429 1839.85 605.477 2185.6 316.493C2725.45 -134.756 3000.34 448.209 2695.37 695.197" stroke="#2F2535" stroke-width="2" stroke-miterlimit="10" stroke-linecap="round" stroke-dasharray="0.3 8"/>
<path d="M819.716 619.686C833.122 613.867 839.273 598.283 833.454 584.877C827.636 571.472 812.051 565.321 798.646 571.14C785.24 576.958 779.09 592.542 784.908 605.948C790.727 619.353 806.311 625.504 819.716 619.686Z" fill="#2F2535"/>
<path d="M1527.24 575.1C1537.74 570.539 1542.56 558.326 1538 547.819C1533.44 537.313 1521.23 532.493 1510.72 537.053C1500.22 541.613 1495.4 553.827 1499.96 564.333C1504.52 574.839 1516.73 579.66 1527.24 575.1Z" fill="#2F2535"/>
<path d="M1779.48 189.399C1783.65 190.465 1787.9 187.947 1788.96 183.774C1790.03 179.602 1787.51 175.355 1783.34 174.29C1779.17 173.224 1774.92 175.743 1773.86 179.915C1772.79 184.088 1775.31 188.334 1779.48 189.399Z" fill="#2F2535"/>
<path d="M903.968 522.042L858.483 541.784L878.225 587.269L923.71 567.527L903.968 522.042Z" stroke="#2F2535" stroke-width="1.92" stroke-miterlimit="10"/>
<path d="M1587.88 522.215L1561.74 533.562L1573.08 559.703L1599.23 548.357L1587.88 522.215Z" stroke="#2F2535" stroke-width="1.92" stroke-miterlimit="10"/>
<path d="M1809.68 187.656L1799.3 185.005L1796.65 195.387L1807.03 198.038L1809.68 187.656Z" stroke="#2F2535" stroke-width="1.92" stroke-miterlimit="10"/>
</g>
</svg>
