<svg width="36" height="36" viewBox="0 0 36 36" fill="none" xmlns="http://www.w3.org/2000/svg">
<path d="M9.375 4.5C8.08207 4.5 6.84209 5.01361 5.92785 5.92785C5.01361 6.84209 4.5 8.08207 4.5 9.375V26.625C4.5 27.9179 5.01361 29.1579 5.92785 30.0721C6.84209 30.9864 8.08207 31.5 9.375 31.5H26.625C27.9179 31.5 29.1579 30.9864 30.0721 30.0721C30.9864 29.1579 31.5 27.9179 31.5 26.625V9.375C31.5 8.08207 30.9864 6.84209 30.0721 5.92785C29.1579 5.01361 27.9179 4.5 26.625 4.5H9.375ZM15.795 13.92L11.715 18L15.795 22.08C15.9055 22.183 15.9942 22.3072 16.0557 22.4452C16.1172 22.5832 16.1502 22.7322 16.1529 22.8832C16.1556 23.0343 16.1278 23.1843 16.0712 23.3244C16.0146 23.4645 15.9304 23.5917 15.8236 23.6986C15.7167 23.8054 15.5895 23.8896 15.4494 23.9462C15.3093 24.0028 15.1593 24.0306 15.0082 24.0279C14.8572 24.0252 14.7082 23.9922 14.5702 23.9307C14.4322 23.8692 14.308 23.7805 14.205 23.67L9.33 18.795C9.11932 18.5841 9.00099 18.2981 9.00099 18C9.00099 17.7019 9.11932 17.4159 9.33 17.205L14.205 12.33C14.308 12.2195 14.4322 12.1308 14.5702 12.0693C14.7082 12.0078 14.8572 11.9748 15.0082 11.9721C15.1593 11.9694 15.3093 11.9972 15.4494 12.0538C15.5895 12.1104 15.7167 12.1946 15.8236 12.3014C15.9304 12.4083 16.0146 12.5355 16.0712 12.6756C16.1278 12.8157 16.1556 12.9657 16.1529 13.1168C16.1502 13.2678 16.1172 13.4168 16.0557 13.5548C15.9942 13.6928 15.9055 13.817 15.795 13.92ZM21.795 12.33L26.67 17.205C26.8807 17.4159 26.999 17.7019 26.999 18C26.999 18.2981 26.8807 18.5841 26.67 18.795L21.795 23.67C21.692 23.7805 21.5678 23.8692 21.4298 23.9307C21.2918 23.9922 21.1428 24.0252 20.9918 24.0279C20.8407 24.0306 20.6907 24.0028 20.5506 23.9462C20.4105 23.8896 20.2833 23.8054 20.1764 23.6986C20.0696 23.5917 19.9854 23.4645 19.9288 23.3244C19.8722 23.1843 19.8444 23.0343 19.8471 22.8832C19.8498 22.7322 19.8828 22.5832 19.9443 22.4452C20.0058 22.3072 20.0945 22.183 20.205 22.08L24.285 18L20.205 13.92C20.0063 13.7067 19.8981 13.4247 19.9032 13.1332C19.9084 12.8418 20.0264 12.5637 20.2326 12.3576C20.4387 12.1514 20.7168 12.0334 21.0082 12.0282C21.2997 12.0231 21.5817 12.1313 21.795 12.33Z" fill="#29235C"/>
</svg>
