<svg width="36" height="36" viewBox="0 0 36 36" fill="none" xmlns="http://www.w3.org/2000/svg">
<path fill-rule="evenodd" clip-rule="evenodd" d="M7.5 7.5C6.70435 7.5 5.94129 7.81607 5.37868 8.37868C4.81607 8.94129 4.5 9.70435 4.5 10.5V15C4.5 15.3978 4.65804 15.7794 4.93934 16.0607C5.22064 16.342 5.60218 16.5 6 16.5H30C30.3978 16.5 30.7794 16.342 31.0607 16.0607C31.342 15.7794 31.5 15.3978 31.5 15V10.5C31.5 9.70435 31.1839 8.94129 30.6213 8.37868C30.0587 7.81607 29.2956 7.5 28.5 7.5H7.5ZM21 10.5C20.6022 10.5 20.2206 10.658 19.9393 10.9393C19.658 11.2206 19.5 11.6022 19.5 12C19.5 12.3978 19.658 12.7794 19.9393 13.0607C20.2206 13.342 20.6022 13.5 21 13.5H21.015C21.4128 13.5 21.7944 13.342 22.0757 13.0607C22.357 12.7794 22.515 12.3978 22.515 12C22.515 11.6022 22.357 11.2206 22.0757 10.9393C21.7944 10.658 21.4128 10.5 21.015 10.5H21ZM25.5 10.5C25.1022 10.5 24.7206 10.658 24.4393 10.9393C24.158 11.2206 24 11.6022 24 12C24 12.3978 24.158 12.7794 24.4393 13.0607C24.7206 13.342 25.1022 13.5 25.5 13.5H25.515C25.9128 13.5 26.2944 13.342 26.5757 13.0607C26.857 12.7794 27.015 12.3978 27.015 12C27.015 11.6022 26.857 11.2206 26.5757 10.9393C26.2944 10.658 25.9128 10.5 25.515 10.5H25.5ZM4.5 25.5V21C4.5 20.6022 4.65804 20.2206 4.93934 19.9393C5.22064 19.658 5.60218 19.5 6 19.5H30C30.3978 19.5 30.7794 19.658 31.0607 19.9393C31.342 20.2206 31.5 20.6022 31.5 21V25.5C31.5 26.2957 31.1839 27.0587 30.6213 27.6213C30.0587 28.1839 29.2956 28.5 28.5 28.5H7.5C6.70435 28.5 5.94129 28.1839 5.37868 27.6213C4.81607 27.0587 4.5 26.2957 4.5 25.5ZM21 22.5C20.6022 22.5 20.2206 22.658 19.9393 22.9393C19.658 23.2206 19.5 23.6022 19.5 24C19.5 24.3978 19.658 24.7794 19.9393 25.0607C20.2206 25.342 20.6022 25.5 21 25.5H21.015C21.4128 25.5 21.7944 25.342 22.0757 25.0607C22.357 24.7794 22.515 24.3978 22.515 24C22.515 23.6022 22.357 23.2206 22.0757 22.9393C21.7944 22.658 21.4128 22.5 21.015 22.5H21ZM25.5 22.5C25.1022 22.5 24.7206 22.658 24.4393 22.9393C24.158 23.2206 24 23.6022 24 24C24 24.3978 24.158 24.7794 24.4393 25.0607C24.7206 25.342 25.1022 25.5 25.5 25.5H25.515C25.9128 25.5 26.2944 25.342 26.5757 25.0607C26.857 24.7794 27.015 24.3978 27.015 24C27.015 23.6022 26.857 23.2206 26.5757 22.9393C26.2944 22.658 25.9128 22.5 25.515 22.5H25.5Z" fill="#29235C"/>
</svg>
