<svg width="1920" height="1379" viewBox="0 0 1920 1379" fill="none" xmlns="http://www.w3.org/2000/svg">
<path d="M-182.278 746.223C-182.278 746.223 137.3 975.719 327.01 932.389C516.721 889.058 646.621 751.904 974.352 849.016C1302.08 946.128 1193.67 856.369 1047.33 820.698C900.997 785.026 1112.05 711.883 1506.63 940.861C2122.74 1298.42 2296.94 669.564 1950.25 475.488" stroke="#602B7A" stroke-width="2" stroke-miterlimit="10" stroke-linecap="round" stroke-dasharray="0.3 8"/>
<path d="M80.0109 871.299C90.3425 873.817 96.6764 884.235 94.1579 894.566C91.6394 904.898 81.2223 911.232 70.8907 908.713C60.559 906.195 54.2252 895.778 56.7437 885.446C59.2621 875.114 69.6792 868.781 80.0109 871.299Z" fill="#602B7A"/>
<path d="M823.472 805.594C832.121 807.702 837.423 816.423 835.315 825.072C833.206 833.721 824.486 839.024 815.837 836.915C807.187 834.807 801.885 826.086 803.993 817.437C806.102 808.788 814.822 803.486 823.472 805.594Z" fill="#602B7A"/>
<path d="M1165.44 888.257C1169.42 886.477 1174.09 888.261 1175.87 892.241C1177.65 896.221 1175.86 900.89 1171.88 902.669C1167.9 904.449 1163.23 902.665 1161.45 898.685C1159.67 894.705 1161.46 890.036 1165.44 888.257Z" fill="#602B7A"/>
<path d="M152.475 930.925L117.42 922.38L125.965 887.325L161.02 895.87L152.475 930.925Z" stroke="#602B7A" stroke-width="1.92" stroke-miterlimit="10"/>
<path d="M876.898 838.11L855.377 832.864L860.623 811.343L882.144 816.589L876.898 838.11Z" stroke="#602B7A" stroke-width="1.92" stroke-miterlimit="10"/>
<path d="M1195.86 884.81L1185.96 889.238L1181.53 879.335L1191.43 874.907L1195.86 884.81Z" stroke="#602B7A" stroke-width="1.92" stroke-miterlimit="10"/>
</svg>
