<svg width="32" height="36" viewBox="0 0 32 36" fill="none" xmlns="http://www.w3.org/2000/svg">
<path d="M32 6.75C32 4.26797 29.95 2.25 27.4286 2.25H4.57143C2.05 2.25 0 4.26797 0 6.75V29.25C0 31.732 2.05 33.75 4.57143 33.75H27.4286C29.95 33.75 32 31.732 32 29.25V6.75ZM12.9214 31.282C10.5143 31.282 9.12143 30.0586 8.40714 28.575L10.8571 27.1195C11.3286 27.9422 11.7571 28.6383 12.7929 28.6383C13.7786 28.6383 14.4071 28.2586 14.4071 26.775V16.7133H17.4143V26.8172C17.4143 29.8828 15.5857 31.282 12.9214 31.282ZM19.05 28.2586L21.5 26.8664C22.1429 27.9 22.9857 28.6664 24.4643 28.6664C25.7071 28.6664 26.5071 28.0547 26.5071 27.2039C26.5071 26.1914 25.6929 25.8328 24.3143 25.2352L23.5643 24.9187C21.3929 24.0117 19.9571 22.8656 19.9571 20.4539C19.9571 18.232 21.6786 16.5445 24.3571 16.5445C26.2714 16.5445 27.6429 17.1984 28.6286 18.9141L26.2857 20.3906C25.7714 19.4836 25.2143 19.125 24.35 19.125C23.4714 19.125 22.9143 19.6734 22.9143 20.3906C22.9143 21.2766 23.4714 21.6352 24.7643 22.1906L25.5143 22.507C28.0714 23.5828 29.5071 24.6867 29.5071 27.1617C29.5071 29.8195 27.3786 31.282 24.5286 31.282C21.7357 31.282 19.9286 29.9742 19.05 28.2586Z" fill="#29235C"/>
</svg>
