<svg width="36" height="36" viewBox="0 0 36 36" fill="none" xmlns="http://www.w3.org/2000/svg">
<path d="M4.50001 15H6.00001C6.425 15 6.7815 15.144 7.0695 15.432C7.3575 15.72 7.50101 16.076 7.5 16.5C7.499 16.924 7.355 17.2805 7.068 17.5695C6.781 17.8585 6.425 18.002 6.00001 18H4.50001C4.07501 18 3.71901 17.856 3.43201 17.568C3.14501 17.28 3.00101 16.924 3.00001 16.5C2.99901 16.076 3.14301 15.72 3.43201 15.432C3.72101 15.144 4.07701 15 4.50001 15ZM7.05 23.1L8.10001 22.05C8.40001 21.75 8.75 21.6065 9.15 21.6195C9.55 21.6325 9.90001 21.776 10.2 22.05C10.5 22.35 10.6565 22.7065 10.6695 23.1195C10.6825 23.5325 10.5385 23.8885 10.2375 24.1875L9.1875 25.2375C8.88751 25.5375 8.53151 25.6815 8.1195 25.6695C7.70751 25.6575 7.351 25.501 7.05 25.2C6.775 24.9 6.63101 24.55 6.61801 24.15C6.60501 23.75 6.749 23.4 7.05 23.1ZM8.10001 10.95L7.05 9.9C6.75 9.6 6.60601 9.25001 6.61801 8.85001C6.63001 8.45001 6.774 8.1 7.05 7.8C7.35 7.5 7.70651 7.34401 8.1195 7.33201C8.53251 7.32001 8.8885 7.46351 9.1875 7.76251L10.2375 8.8125C10.5375 9.1125 10.6815 9.469 10.6695 9.882C10.6575 10.295 10.501 10.651 10.2 10.95C9.90001 11.225 9.55 11.369 9.15 11.382C8.75 11.395 8.40001 11.251 8.10001 10.95ZM25.95 28.95L19.875 22.875L18.75 26.25C18.7 26.425 18.6065 26.5565 18.4695 26.6445C18.3325 26.7325 18.1885 26.776 18.0375 26.775C17.8865 26.774 17.7425 26.724 17.6055 26.625C17.4685 26.526 17.375 26.3885 17.325 26.2125L14.1 15.4875C14.05 15.2875 14.0565 15.0875 14.1195 14.8875C14.1825 14.6875 14.276 14.525 14.4 14.4C14.524 14.275 14.6865 14.1815 14.8875 14.1195C15.0885 14.0575 15.2885 14.051 15.4875 14.1L26.2875 17.325C26.4625 17.375 26.594 17.469 26.682 17.607C26.77 17.745 26.8135 17.8885 26.8125 18.0375C26.8115 18.1865 26.774 18.3305 26.7 18.4695C26.626 18.6085 26.501 18.702 26.325 18.75L22.95 19.95L28.95 25.95C29.25 26.25 29.4 26.6 29.4 27C29.4 27.4 29.25 27.75 28.95 28.05L28.05 28.95C27.75 29.25 27.4 29.4 27 29.4C26.6 29.4 26.25 29.25 25.95 28.95ZM15 7.50001V6.00001C15 5.57501 15.144 5.21901 15.432 4.93201C15.72 4.64501 16.076 4.50101 16.5 4.50001C16.924 4.49901 17.2805 4.64301 17.5695 4.93201C17.8585 5.22101 18.002 5.57701 18 6.00001V7.50001C18 7.925 17.856 8.2815 17.568 8.5695C17.28 8.8575 16.924 9.00101 16.5 9C16.076 8.999 15.72 8.855 15.432 8.568C15.144 8.281 15 7.925 15 7.50001ZM22.7625 8.8125L23.85 7.72501C24.125 7.45001 24.469 7.30601 24.882 7.29301C25.295 7.28001 25.651 7.42401 25.95 7.72501C26.225 8.00001 26.369 8.344 26.382 8.757C26.395 9.17 26.2635 9.52601 25.9875 9.82501L24.9 10.95C24.625 11.25 24.281 11.394 23.868 11.382C23.455 11.37 23.099 11.226 22.8 10.95C22.5 10.65 22.344 10.294 22.332 9.882C22.32 9.47 22.4635 9.1135 22.7625 8.8125Z" fill="#29235C"/>
</svg>
