<svg width="36" height="36" viewBox="0 0 36 36" fill="none" xmlns="http://www.w3.org/2000/svg">
<path d="M18.002 3C9.71446 3 3.00196 9.7125 3.00196 18C2.99924 21.1489 3.98859 24.2187 5.82954 26.7735C7.67048 29.3282 10.2695 31.2381 13.2575 32.232C14.0075 32.3625 14.2895 31.9125 14.2895 31.518C14.2895 31.1625 14.27 29.982 14.27 28.725C10.502 29.4195 9.52696 27.807 9.22696 26.9625C9.05746 26.5305 8.32696 25.2 7.68946 24.843C7.16446 24.5625 6.41446 23.868 7.66996 23.85C8.85196 23.8305 9.69496 24.9375 9.97696 25.3875C11.327 27.6555 13.4825 27.018 14.345 26.625C14.477 25.65 14.87 24.9945 15.302 24.6195C11.9645 24.2445 8.47696 22.95 8.47696 17.2125C8.47696 15.5805 9.05746 14.232 10.0145 13.182C9.86446 12.807 9.33946 11.2695 10.1645 9.207C10.1645 9.207 11.42 8.8125 14.2895 10.743C15.5107 10.405 16.7723 10.2349 18.0395 10.2375C19.3145 10.2375 20.5895 10.4055 21.7895 10.743C24.659 8.793 25.9145 9.207 25.9145 9.207C26.7395 11.2695 26.2145 12.807 26.0645 13.182C27.02 14.232 27.602 15.5625 27.602 17.2125C27.602 22.9695 24.0965 24.2445 20.759 24.6195C21.302 25.0875 21.7715 25.9875 21.7715 27.3945C21.7715 29.4 21.752 31.0125 21.752 31.5195C21.752 31.9125 22.034 32.3805 22.784 32.2305C25.7607 31.2242 28.3472 29.3101 30.1798 26.7576C32.0124 24.205 32.9988 21.1423 33.0005 18C33.0005 9.7125 26.288 3 18.0005 3" fill="#29235C"/>
</svg>
