<svg width="127" height="156" viewBox="0 0 127 156" fill="none" xmlns="http://www.w3.org/2000/svg">
<g clip-path="url(#clip0_394_62204)">
<path d="M92.3783 44.9987H97.0236C100.529 44.9987 103.387 47.8485 103.387 51.3843V63.3288C103.387 66.8471 100.564 69.6793 97.0762 69.7145C97.0762 69.7145 97.0762 69.7145 97.0762 69.7321C97.0762 71.1922 95.9017 72.3708 94.4468 72.3708C92.9918 72.3708 91.8174 71.1922 91.8174 69.7321C91.8174 69.7145 91.8174 69.6793 91.8174 69.6617C88.5744 69.3803 86.0152 66.6712 86.0152 63.3288V51.3843C86.0152 47.866 88.8549 44.9987 92.3783 44.9987Z" fill="#613182"/>
<path d="M94.71 51.8768C84.0414 51.8768 75.3927 43.1975 75.3927 32.4911C75.3927 21.7847 84.0414 13.1055 94.71 13.1055C105.379 13.1055 114.027 21.7847 114.027 32.4911C114.027 43.1975 105.379 51.8768 94.71 51.8768Z" fill="white"/>
<path d="M94.7105 52.7564C102.686 52.7564 114.904 43.6793 114.904 32.4912C114.904 21.3031 105.842 12.226 94.7105 12.226C83.5794 12.226 74.5167 21.3207 74.5167 32.4912C74.5167 43.6617 86.7347 52.7564 94.7105 52.7564ZM94.7105 13.9851C104.878 13.9851 113.151 22.2882 113.151 32.4912C113.151 42.6942 101.827 50.9973 94.7105 50.9973C87.5936 50.9973 76.2696 42.5358 76.2696 32.4912C76.2696 22.4465 84.5435 13.9851 94.7105 13.9851Z" fill="#613182"/>
<path d="M94.238 45.0866C86.1639 45.0866 79.6185 38.5181 79.6185 30.4154C79.6185 22.3128 86.1639 15.7443 94.238 15.7443C102.312 15.7443 108.857 22.3128 108.857 30.4154C108.857 38.5181 102.312 45.0866 94.238 45.0866Z" fill="#FFD441"/>
<path d="M92.7294 19.8079C88.61 21.655 83.8946 25.4723 83.5615 33.2301C83.4914 34.9012 85.7702 35.5345 86.5766 34.0568C88.4522 30.7145 91.2394 26.2287 94.6226 22.3234C95.762 21.0217 94.307 19.0866 92.7294 19.7903V19.8079Z" fill="white"/>
<path d="M126.123 52.6508C126.438 52.6508 126.736 52.4749 126.894 52.1935C127.122 51.7713 126.964 51.2259 126.526 50.9973L117.253 46.0365C116.815 45.8078 116.289 45.9661 116.061 46.4059C115.833 46.8281 115.991 47.3734 116.429 47.6021L125.702 52.5453C125.842 52.6157 125.983 52.6508 126.105 52.6508H126.123Z" fill="#613182"/>
<path d="M86.2967 7.12438C86.2967 7.12438 86.4545 7.12438 86.5421 7.0892C87.0154 6.94847 87.2783 6.4735 87.1381 5.99854L85.578 0.633178C85.4378 0.175803 84.9645 -0.105658 84.4912 0.0350724C84.0179 0.175803 83.755 0.650769 83.8952 1.12574L85.4553 6.49109C85.5605 6.8781 85.9111 7.12438 86.2967 7.12438Z" fill="#613182"/>
<path d="M69.2396 27.2138C69.6077 27.2138 69.9407 26.9851 70.0634 26.6333C70.2212 26.1759 69.9933 25.6657 69.5376 25.5074L56.3204 20.7929C55.8647 20.6346 55.3563 20.8633 55.1986 21.3207C55.0408 21.7781 55.2687 22.2882 55.7244 22.4465L68.9416 27.161C69.0467 27.1962 69.1344 27.2138 69.2396 27.2138Z" fill="#613182"/>
<path d="M115.483 11.1881C115.728 11.1881 115.973 11.0825 116.149 10.8714L122.599 3.23681C122.915 2.86739 122.862 2.30447 122.494 1.98782C122.126 1.67118 121.565 1.72395 121.25 2.09337L114.816 9.72801C114.501 10.0974 114.553 10.6604 114.922 10.977C115.079 11.1177 115.29 11.1881 115.483 11.1881Z" fill="#613182"/>
<path d="M46.874 156C47.0142 156 47.1369 155.965 47.2596 155.912L57.041 151.004L54.955 114.273C54.92 113.781 54.4817 113.411 54.026 113.447C53.5351 113.482 53.167 113.886 53.2021 114.379L55.218 149.949L46.4708 154.329C46.0326 154.54 45.8573 155.068 46.0852 155.507C46.2429 155.824 46.5409 156 46.874 156Z" fill="#613182"/>
<path d="M32.2549 151.356C32.3601 151.356 32.4477 151.356 32.5529 151.303L43.1406 147.468L42.0889 114.309C42.0889 113.816 41.6857 113.411 41.1773 113.464C40.6865 113.464 40.3184 113.886 40.3359 114.379L41.3526 146.272L31.9744 149.667C31.5187 149.825 31.2908 150.336 31.4486 150.793C31.5713 151.145 31.9219 151.373 32.2724 151.373L32.2549 151.356Z" fill="#613182"/>
<path d="M8.71217 73.7429C14.4969 73.7429 21.1755 71.6319 22.3149 71.2449C22.7707 71.0866 23.0336 70.5941 22.8759 70.1367C22.7181 69.6793 22.2273 69.4154 21.7715 69.5738C17.1263 71.1042 4.50514 74.0771 2.06857 69.5562C-0.315422 65.1407 10.1671 52.8972 14.4092 48.5521L14.7423 48.2003L12.4635 38.8417C12.3408 38.3667 11.885 38.0853 11.4117 38.1908C10.9384 38.3139 10.6579 38.7889 10.7631 39.2463L12.814 47.655C10.097 50.4872 -2.73448 64.3491 0.525978 70.3654C1.89326 72.8985 5.13619 73.7077 8.71217 73.7077V73.7429Z" fill="#613182"/>
<path d="M29.057 56.2978L73.3868 62.455C77.5872 63.0384 80.5209 66.9284 79.9396 71.1436L73.8041 115.63C73.2227 119.845 69.3464 122.79 65.1461 122.206L20.8163 116.049C16.616 115.466 13.6822 111.575 14.2636 107.36L20.3991 62.8737C20.9804 58.6585 24.8567 55.7144 29.057 56.2978Z" fill="#613182"/>
<path d="M56.7772 116.332C60.0727 116.332 62.9475 113.886 63.4208 110.526L68.0661 76.8038C68.3115 75.0271 67.8557 73.2504 66.7689 71.8255C65.6821 70.4006 64.122 69.4683 62.334 69.222L28.7302 64.5603C25.0666 64.0677 21.6834 66.636 21.1751 70.295L16.5298 104.018C16.2844 105.794 16.7402 107.571 17.827 108.996C18.9138 110.421 20.4739 111.353 22.2619 111.6L55.8656 116.261C56.1812 116.296 56.4792 116.332 56.7947 116.332H56.7772ZM27.8187 66.249C28.0466 66.249 28.2745 66.249 28.5024 66.3018L62.1061 70.9635C63.4208 71.1394 64.5777 71.8255 65.3665 72.881C66.1729 73.9365 66.5059 75.2382 66.3307 76.5576L61.6854 110.28C61.3173 112.989 58.8106 114.907 56.0935 114.52L22.4898 109.858C21.1751 109.682 20.0182 108.996 19.2293 107.941C18.4405 106.885 18.0899 105.583 18.2652 104.264L22.9105 70.5413C23.2611 68.0609 25.3821 66.249 27.8187 66.249Z" fill="#6553A3"/>
<path d="M54.0078 48.7632C50.7999 67.6211 80.3719 72.2652 83.0363 53.3193C86.2442 34.4614 56.6722 29.8173 54.0078 48.7632Z" fill="white"/>
<path d="M68.9612 66.3017C71.0297 66.3017 73.0981 65.9323 75.0088 65.1759C79.9521 63.2232 83.1074 59.0541 83.8962 53.4249C84.8428 47.8484 83.1074 42.9052 78.988 39.5277C74.3778 35.7632 67.5589 34.6901 62.0196 36.8714C57.0763 38.8065 53.9211 42.9756 53.1322 48.6048C52.1856 54.2165 53.9211 59.142 58.0404 62.502C61.0555 64.9648 65.0171 66.2841 68.9612 66.2841V66.3017ZM68.1023 37.5223C71.6257 37.5223 75.1841 38.7009 77.8836 40.9174C81.4947 43.8728 83.0197 48.2178 82.1608 53.1786C81.4596 58.1745 78.69 61.8687 74.3603 63.5575C69.3995 65.5101 63.2817 64.5602 59.1448 61.1651C55.5338 58.2097 54.0087 53.8646 54.8676 48.9039C55.5688 43.9079 58.3384 40.2138 62.6682 38.525C64.3861 37.8565 66.2442 37.5223 68.1023 37.5223Z" fill="#6553A3"/>
<path d="M24.0507 44.0663C20.8429 62.9242 50.4149 67.5683 53.0793 48.6224C56.2872 29.7645 26.7152 25.1204 24.0507 44.0663Z" fill="white"/>
<path d="M39.0042 61.6048C41.0726 61.6048 43.1411 61.2354 45.0518 60.479C49.9951 58.5263 53.1504 54.3572 53.9392 48.728C54.8858 43.1515 53.1504 38.2083 49.031 34.8308C44.4208 31.0663 37.6018 29.9932 32.0626 32.1745C27.1193 34.1096 23.964 38.2963 23.1752 43.9079C22.2286 49.502 23.964 54.4451 28.0834 57.8051C31.0985 60.2679 35.0601 61.5872 39.0042 61.5872V61.6048ZM38.1453 32.8254C41.6686 32.8254 45.2271 34.004 47.9266 36.2205C51.5377 39.1759 53.0627 43.5209 52.2038 48.4817C51.5026 53.4776 48.733 57.1718 44.4032 58.8606C39.4424 60.8132 33.3247 59.8633 29.1878 56.4681C25.5767 53.5128 24.0517 49.1677 24.9106 44.207C25.6118 39.211 28.3814 35.5169 32.7112 33.8281C34.429 33.1596 36.2871 32.8254 38.1453 32.8254Z" fill="#6553A3"/>
<path d="M41.8792 43.2218C40.6872 50.4695 47.3834 50.8213 48.1898 44.2069C49.4519 37.6806 42.9485 35.939 41.8792 43.2218Z" fill="#613182"/>
<path d="M45.4552 43.7847C45.35 44.418 46.4719 45.1393 47.9268 45.3855C48.1372 44.6291 48.2774 43.7671 48.2949 43.0107C46.8225 42.7996 45.5428 43.1514 45.4376 43.7847H45.4552Z" fill="white"/>
<path d="M71.8363 47.9187C70.6443 55.1664 77.3405 55.5182 78.1468 48.9038C79.4089 42.3775 72.9055 40.6359 71.8363 47.9187Z" fill="#613182"/>
<path d="M75.3946 48.464C75.2894 49.0973 76.4113 49.8186 77.8663 50.0649C78.0766 49.3084 78.2168 48.4465 78.2344 47.69C76.7619 47.4789 75.4823 47.8308 75.3771 48.464H75.3946Z" fill="white"/>
<path d="M33.0194 74.6875L38.2715 75.1598L36.1403 99.0408L50.9125 100.357L50.5131 104.814L30.502 103.047L33.0325 74.7086L33.0194 74.6875Z" fill="white"/>
<path d="M57.6368 66.249C54.7795 64.613 41.7026 63.7159 39.529 65.4047C37.3553 67.0934 42.0532 72.3532 47.5749 73.0041C53.0967 73.655 61.0199 68.2017 57.6192 66.249H57.6368Z" fill="#FFD441"/>
<path d="M81.6167 134.451C81.6167 134.451 81.6868 134.451 81.7218 134.451C82.1951 134.38 82.5457 133.941 82.4756 133.466L81.3888 124.951C83.317 121.961 90.7845 110.245 90.9072 107.659C91.0299 104.968 79.8812 83.9107 77.655 79.7064C77.4271 79.2842 76.9013 79.1259 76.463 79.337C76.0423 79.5657 75.867 80.0934 76.0949 80.5332C82.423 92.4074 89.1367 105.918 89.1367 107.571C89.0666 109.084 84.2285 117.299 79.7235 124.265L79.5482 124.529L80.7227 133.694C80.7752 134.134 81.1609 134.468 81.5991 134.468L81.6167 134.451Z" fill="#613182"/>
</g>
<defs>
<clipPath id="clip0_394_62204">
<rect width="127" height="156" fill="white" transform="matrix(-1 0 0 1 127 0)"/>
</clipPath>
</defs>
</svg>
