<svg width="131" height="140" viewBox="0 0 131 140" fill="none" xmlns="http://www.w3.org/2000/svg">
<g clip-path="url(#clip0_184_83968)">
<path d="M126.376 98.7596C126.376 98.7596 126.268 98.773 126.204 98.7651L118.126 98.0583L105.753 61.6852C105.608 61.2777 105.836 60.8244 106.246 60.6952C106.653 60.5505 107.091 60.7801 107.236 61.1876L119.285 96.5926L126.344 97.22C126.775 97.2615 127.088 97.6324 127.047 98.0628C127.013 98.4292 126.72 98.7331 126.363 98.777L126.376 98.7596Z" fill="#FFD441"/>
<path d="M72.6602 130.589C72.3808 130.623 72.0823 130.503 71.9082 130.241C71.6741 129.876 71.7721 129.391 72.1217 129.159L80.3546 123.704L71.1119 98.6795C70.9672 98.2721 71.1641 97.8226 71.5718 97.6779C71.9795 97.5332 72.4292 97.7299 72.5739 98.1373L82.245 124.337L72.9941 130.485C72.8931 130.56 72.7708 130.591 72.6622 130.605L72.6602 130.589Z" fill="#FFD441"/>
<path d="M97.6908 129.083C97.5355 129.102 97.3901 129.072 97.2408 129.012L86.7414 123.737L86.6042 96.5046C86.5992 96.0799 86.9491 95.7219 87.3895 95.7149C87.8144 95.7098 88.1727 96.0595 88.1796 96.4997L88.3264 122.785L97.9846 127.629C98.3703 127.818 98.5227 128.287 98.3337 128.673C98.2052 128.909 97.9876 129.062 97.7237 129.094L97.6908 129.083Z" fill="#FFD441"/>
<path d="M56.022 50.55L52.5164 90.3072C52.1842 94.0742 54.9705 97.3967 58.7396 97.7282L98.5188 101.226C102.288 101.558 105.613 98.7725 105.945 95.0054L109.45 55.2482C109.783 51.4812 106.996 48.1587 103.227 47.8273L63.4481 44.3293C59.6789 43.9978 56.3542 46.783 56.022 50.55Z" fill="#FFD441"/>
<path d="M99.4215 97.0528C99.0024 97.1044 98.5775 97.1094 98.1468 97.0679L67.987 94.4173C66.3944 94.2826 64.9621 93.5296 63.9285 92.3023C62.8948 91.0749 62.4206 89.5267 62.5556 87.935L65.212 57.7919C65.347 56.2002 66.1006 54.7686 67.3288 53.7354C68.5569 52.7021 70.1041 52.2124 71.6986 52.3626L101.859 55.0133C103.451 55.148 104.883 55.901 105.917 57.1283C106.951 58.3556 107.425 59.9038 107.29 61.4955L104.634 91.6387C104.498 93.2304 103.745 94.662 102.517 95.6952C101.617 96.4517 100.555 96.9133 99.4215 97.0528ZM70.6324 53.943C68.6142 54.1914 66.9561 55.8288 66.7754 57.9459L64.119 88.0891C64.012 89.2678 64.3725 90.4048 65.1313 91.3194C65.8881 92.2185 66.9502 92.7808 68.1296 92.8877L98.2895 95.5383C99.4689 95.6451 100.606 95.2846 101.522 94.5261C102.422 93.7696 102.984 92.708 103.091 91.5293L105.748 61.3861C105.855 60.2073 105.494 59.0704 104.735 58.1558C103.979 57.2566 102.916 56.6944 101.737 56.5875L71.5772 53.9369C71.2591 53.9131 70.9448 53.9203 70.6498 53.9566L70.6324 53.943Z" fill="#6553A3"/>
<path d="M83.9446 34.4431C82.7069 51.4016 56.0832 49.0559 57.8156 32.1468C59.0534 15.1884 85.677 17.5341 83.9446 34.4431Z" fill="white"/>
<path d="M73.0367 46.7168C69.2797 47.1793 65.2925 46.284 62.2353 44.1088C58.3681 41.3717 56.5178 37.0947 57.0494 32.0678C57.4239 27.0444 59.9866 23.1536 64.2627 21.1466C69.0592 18.8866 75.1928 19.4231 79.525 22.481C83.3921 25.2181 85.2269 29.4969 84.7263 34.52C84.3537 39.5589 81.791 43.4498 77.4995 45.4587C76.0993 46.1193 74.591 46.5412 73.0386 46.7323L73.0367 46.7168ZM68.9126 21.409C67.5309 21.5791 66.1741 21.9509 64.908 22.5477C61.1543 24.3171 58.9126 27.7432 58.578 32.1946C58.1192 36.6613 59.7338 40.4318 63.1186 42.8345C67.0032 45.5852 72.5005 46.074 76.8038 44.0322C80.5575 42.2628 82.7992 38.8367 83.1337 34.3853C83.5925 29.9186 81.9779 26.1482 78.5951 23.761C75.8497 21.8151 72.2815 20.9943 68.8971 21.4109L68.9126 21.409Z" fill="#6553A3"/>
<path d="M110.902 36.8113C109.664 53.7697 83.0405 51.4241 84.7729 34.515C86.0106 17.5566 112.634 19.9022 110.902 36.8113Z" fill="white"/>
<path d="M99.9939 49.085C96.237 49.5475 92.2498 48.6522 89.1925 46.4769C85.3254 43.7398 83.475 39.4629 84.0067 34.436C84.3812 29.4126 86.9439 25.5217 91.22 23.5148C96.0164 21.2547 102.15 21.7913 106.482 24.8491C110.349 27.5862 112.184 31.8651 111.684 36.8882C111.311 41.9271 108.748 45.818 104.457 47.8268C103.057 48.4874 101.548 48.9094 99.9959 49.1005L99.9939 49.085ZM95.8699 23.7772C94.4882 23.9472 93.1314 24.319 91.8652 24.9159C88.1115 26.6853 85.8699 30.1114 85.5353 34.5628C85.0765 39.0295 86.6911 42.7999 90.0758 45.2026C93.9604 47.9534 99.4578 48.4422 103.761 46.4004C107.515 44.631 109.756 41.2049 110.091 36.7535C110.55 32.2868 108.935 28.5164 105.552 26.1292C102.807 24.1833 99.2388 23.3624 95.8544 23.7791L95.8699 23.7772Z" fill="#6553A3"/>
<path d="M100.704 35.9079C100.197 42.4124 94.3051 41.2791 95.0324 35.4091C95.331 29.513 101.351 29.3862 100.704 35.9079Z" fill="#613182"/>
<path d="M97.5017 35.625C97.4463 36.1989 96.3416 36.5711 95.0051 36.4679C94.9831 35.7776 95.0448 34.9982 95.1994 34.3334C96.5242 34.4695 97.5572 35.0512 97.5017 35.625Z" fill="white"/>
<path d="M73.7626 33.5388C73.2552 40.0433 67.3634 38.91 68.0907 33.0399C68.3893 27.1439 74.4097 27.0171 73.7626 33.5388Z" fill="#613182"/>
<path d="M70.56 33.2559C70.5046 33.8297 69.3999 34.202 68.0634 34.0987C68.0414 33.4084 68.1031 32.629 68.2576 31.9642C69.5825 32.1004 70.6154 32.682 70.56 33.2559Z" fill="white"/>
<path d="M77.8865 60.8942L82.5711 61.3098L80.7081 82.5349L93.8832 83.6852L93.536 87.6499L75.6763 86.0839L77.8865 60.8942Z" fill="#613182"/>
<path d="M45.9833 69.8141C44.7724 69.9632 43.7447 69.6802 42.9293 68.9458C38.2889 64.7918 43.0945 46.8586 44.2996 42.6938L33.9989 38.0081C33.5996 37.8367 33.4317 37.3691 33.6032 36.97C33.7766 36.5864 34.2426 36.403 34.6419 36.5743L46.1793 41.8324L45.9918 42.4855C44.2186 48.4371 40.3904 64.5803 43.9695 67.7939C44.7132 68.4584 45.8191 68.4798 47.3472 67.8349C58.5237 63.1199 59.5959 52.4979 59.598 52.3874C59.6396 51.957 60.0263 51.6417 60.4414 51.6851C60.872 51.7266 61.1856 52.0975 61.144 52.5279C61.1082 53.0048 59.965 64.2025 47.9342 69.2747C47.2294 69.5662 46.5752 69.757 45.9542 69.8335L45.9833 69.8141Z" fill="#FFD441"/>
<path d="M14.9882 36.6952C13.9834 37.6222 13.3214 39.7985 23.0868 47.4326C32.854 55.0822 39.3738 60.5484 46.8224 52.3074C54.2711 44.0663 49.9057 35.106 49.9252 32.0637C49.9447 29.0214 53.5458 22.9393 51.7278 21.9976C49.9098 21.0558 46.8944 21.2695 45.4483 23.6054C44.0023 25.9412 45.2177 31.4619 42.676 31.5543C40.1342 31.6466 28.233 12.935 24.5264 15.4704C20.8197 18.0057 33.6398 30.0992 32.5246 30.8981C31.4094 31.6969 20.8685 15.8419 16.6438 18.3938C12.4191 20.9457 30.4293 35.897 29.3141 36.6958C28.1989 37.4946 17.6899 23.1793 13.9975 26.3429C10.3051 29.5066 27.8333 41.9498 26.9856 42.8732C26.1379 43.7966 17.8162 34.0632 14.9882 36.6952Z" fill="white"/>
<path d="M40.1875 57.1718C35.0488 57.8043 29.7991 53.6938 23.3289 48.631L22.5967 48.0596C14.7124 41.8794 13.7103 39.3723 13.6528 38.0091C13.6271 37.2877 13.8805 36.658 14.4461 36.1316C15.7328 34.9337 17.6117 35.4742 19.5883 36.6799C15.6008 32.9653 12.6659 29.7354 12.7013 27.463C12.7123 26.7843 12.9851 26.1837 13.4846 25.76C15.082 24.3978 17.354 25.3151 19.7679 27.1286C16.8351 23.7882 14.9895 21.0858 15.222 19.2615C15.3144 18.6044 15.6588 18.0737 16.2163 17.7373C18.7978 16.1752 22.6114 19.5017 26.2067 23.3591C24.1576 20.5399 22.8217 18.137 23.083 16.4195C23.1891 15.7449 23.5316 15.1987 24.0698 14.8332C26.6866 13.0463 30.8219 17.5775 36.8534 24.7104C38.973 27.2058 41.8707 30.645 42.693 30.7958C43.411 30.7389 43.6057 29.3762 43.7918 27.4317C43.9345 25.902 44.1025 24.322 44.7856 23.2141C46.4418 20.5374 49.8611 20.148 52.1016 21.3212C53.7548 22.2045 52.8808 24.7062 51.8701 27.6343C51.3004 29.2795 50.7054 30.9751 50.7012 32.0939C50.6905 32.6465 50.8808 33.5523 51.1038 34.5959C52.0112 38.8945 53.526 46.0793 47.3937 52.851C44.9381 55.5632 42.5628 56.8794 40.1875 57.1718ZM15.5168 37.2756C15.2894 37.4769 15.2172 37.659 15.2206 37.9421C15.2537 38.8516 16.3977 41.2309 23.5652 46.8379L24.2975 47.4093C33.7528 54.8295 39.4714 59.2918 46.2414 51.8116C51.8449 45.609 50.4222 38.9168 49.5841 34.9248C49.3283 33.7435 49.1361 32.8221 49.1414 32.0969C49.146 30.726 49.7878 28.8987 50.3908 27.1391C50.7868 26.0035 51.8326 22.9767 51.3616 22.7354C49.9623 21.9941 47.3527 22.0476 46.1032 24.06C45.6031 24.8618 45.4743 26.248 45.3417 27.6031C45.124 29.8035 44.8786 32.2909 42.6996 32.3858C41.4287 32.432 39.7541 30.6063 35.6582 25.7553C32.4856 22.0034 26.5857 15.0433 24.9577 16.1572C24.7692 16.2907 24.6778 16.4437 24.6288 16.686C24.3359 18.6594 27.9725 23.2362 30.3918 26.2461C32.6833 29.1141 33.471 30.1355 33.3627 30.9206L33.3097 31.2579L32.9696 31.5675C31.9982 32.2541 31.007 31.1161 28.0238 27.7504C24.9477 24.2701 19.2331 17.7912 17.0305 19.1019C16.8692 19.2005 16.8031 19.3032 16.7794 19.4951C16.4977 21.6876 22.3509 27.7557 25.8536 31.3724C29.4472 35.0883 30.2002 35.9564 30.1367 36.7202L30.1011 37.0711L29.759 37.3652C28.8323 38.0306 27.8409 37.0186 24.888 34.0272C21.9139 30.9911 16.3664 25.358 14.4989 26.9582C14.3278 27.1052 14.2674 27.2544 14.265 27.491C14.2372 29.8255 20.1016 35.0889 23.6091 38.2325C26.9752 41.2519 27.7652 42.0366 27.791 42.758L27.8 43.0877L27.5413 43.4188C26.719 44.2918 25.613 43.3726 23.1917 41.3711C20.9622 39.5192 16.8035 36.0777 15.5012 37.2775L15.5168 37.2756Z" fill="#FFD441"/>
<path d="M47.6301 31.0857C48.4262 29.7434 49.6679 44.6955 44.9115 49.329C40.0131 54.0902 33.9254 51.8784 30.1643 49.4905C26.4012 47.0871 22.427 45.5288 23.2463 44.2466C24.1688 42.7785 27.755 47.33 29.0485 42.603C29.3631 41.446 23.9349 38.3183 25.0231 37.4283C26.1113 36.5383 29.1571 39.6443 31.0537 39.0485C34.1482 38.0691 27.964 31.6165 29.4025 31.1402C30.8411 30.6638 32.3974 35.4967 35.0811 33.229C36.5658 31.9752 32.7113 28.701 34.1845 28.3779C35.6577 28.0548 41.5043 41.495 47.6146 31.0876L47.6301 31.0857Z" fill="#613182"/>
<path d="M24.08 56.5241C24.08 56.5241 23.9713 56.5375 23.9073 56.5296C6.31942 54.8672 7.66091 36.447 7.67095 36.2725C7.71253 35.8421 8.08179 35.5131 8.51242 35.5546C8.94305 35.5961 9.25663 35.967 9.23057 36.3955C9.17489 37.0954 8.00617 53.4625 24.0461 54.9689C24.4767 55.0104 24.7922 55.3968 24.7507 55.8272C24.717 56.1937 24.4215 56.482 24.0644 56.526L24.08 56.5241Z" fill="#FFD441"/>
<path d="M41.8888 18.3727C41.8888 18.3727 41.8422 18.3784 41.8267 18.3803C41.3882 18.4028 41.0318 18.0687 41.0094 17.6304C40.8431 13.3352 35.0072 11.3759 34.9432 11.3681C34.5321 11.2297 34.306 10.8007 34.4445 10.3899C34.5831 9.97908 35.0123 9.75299 35.4233 9.8914C35.7025 9.98303 42.3586 12.2036 42.5635 17.5808C42.5821 17.9881 42.2788 18.3404 41.8752 18.3901L41.8888 18.3727Z" fill="#FFD441"/>
<path d="M14.5757 59.3318C14.5757 59.3318 14.4825 59.3433 14.4359 59.349C4.73643 58.7789 4.3108 49.1761 4.31296 49.0656C4.30796 48.6409 4.62492 48.2712 5.06534 48.2642C5.48833 48.2436 5.8621 48.5914 5.86709 49.016C5.87806 49.3612 6.25648 57.3003 14.5089 57.765C14.9376 57.7909 15.2667 58.16 15.2406 58.5884C15.2244 58.9684 14.9308 59.2723 14.5582 59.3182L14.5757 59.3318Z" fill="#FFD441"/>
<path d="M70.0001 49.8318C70.0001 49.8318 94.6656 49.4573 94.57 51.753C94.4743 54.0486 88.2926 56.3216 82.3001 57.0593C76.3075 57.797 65.6988 51.8891 70.0001 49.8318Z" fill="#613182"/>
</g>
<defs>
<clipPath id="clip0_184_83968">
<rect width="115.875" height="126" fill="white" transform="translate(0 14.1573) rotate(-7.0178)"/>
</clipPath>
</defs>
</svg>
