<svg width="354" height="207" viewBox="0 0 354 207" fill="none" xmlns="http://www.w3.org/2000/svg">
<g opacity="0.25">
<g clip-path="url(#clip0_691_35099)">
<path d="M219.133 114.541H-181.005C-183.477 95.9357 -180.837 87.4331 -158.667 80.629C-142.879 50.4625 -128.166 42.87 -90.6826 47.2012C-54.2657 -17.719 50.1393 -8.99889 78.3076 33.1519C114.51 25.4153 130.725 31.2052 151.148 61.7352C191.919 66.5457 206.195 78.7667 219.133 114.541Z" fill="#CDE8F8"/>
</g>
<g clip-path="url(#clip1_691_35099)">
<path d="M344.862 73.3779H240.808C240.165 68.5811 240.852 66.389 246.617 64.6348C250.723 56.8575 254.549 54.9001 264.296 56.0167C273.766 39.2795 300.916 41.5276 308.241 52.3946C317.655 50.4 321.872 51.8928 327.183 59.7638C337.785 61.004 341.497 64.1547 344.862 73.3779Z" fill="#CDE8F8"/>
</g>
<path d="M121.67 81.9844C155.436 81.3263 189.006 93.453 204.679 114.716C221.852 111.235 235.135 110.809 246.737 115.287C258.526 119.837 267.977 129.213 277.987 143.913C297.753 146.381 311.825 150.738 322.58 159.24C333.632 167.977 340.714 180.719 347.257 198.81L348.953 203.5H-59.2393L-59.6426 200.461C-60.8813 191.138 -61.0436 183.266 -57.2607 176.843C-53.6027 170.631 -46.7449 166.555 -36.2578 163.181C-28.4689 148.586 -20.5463 138.765 -9.5332 133.302C1.28125 127.938 14.5081 127.065 32.2627 128.932C51.5702 96.4961 87.3976 82.6524 121.67 81.9844Z" fill="#CDE8F8" stroke="white" stroke-width="7"/>
</g>
<defs>
<clipPath id="clip0_691_35099">
<rect width="400.895" height="114.541" fill="white" transform="translate(-181.762)"/>
</clipPath>
<clipPath id="clip1_691_35099">
<rect width="104.251" height="29.5302" fill="white" transform="translate(240.611 43.8477)"/>
</clipPath>
</defs>
</svg>
