<svg width="179" height="258" viewBox="0 0 179 258" fill="none" xmlns="http://www.w3.org/2000/svg">
<g clip-path="url(#clip0_138_10807)">
<path d="M59.3463 230.298L158.072 233.439L112.463 257.312H10.3339L59.3463 230.298Z" fill="white" stroke="#602B7A" stroke-linecap="round" stroke-linejoin="round"/>
<path d="M153.991 227.366V234.346L140.977 241.045V234.065L153.991 227.366Z" fill="white"/>
<path d="M59.3463 221.502L158.072 224.643L112.463 248.516H10.3339L59.3463 221.502Z" fill="white" stroke="#602B7A" stroke-linecap="round" stroke-linejoin="round"/>
<path d="M9.04492 248.463V257.364L113.141 258L112.452 248.463" fill="#374C92"/>
<path d="M51.5224 221.231L135.799 223.912L96.849 244.29H9.6781L51.5224 221.231Z" fill="white" stroke="#602B7A" stroke-linecap="round" stroke-linejoin="round"/>
<path d="M132.305 218.727V224.684L121.203 230.402V224.444L132.305 218.727Z" fill="white"/>
<path d="M51.5224 213.718L135.799 216.4L96.849 236.788H9.6781L51.5224 213.718Z" fill="white" stroke="#602B7A" stroke-linecap="round" stroke-linejoin="round"/>
<path d="M8.57007 236.736V244.332L97.4369 244.874L96.8489 236.736" fill="#374C92"/>
<path d="M122.492 224.768L43.5063 223.088C43.5063 223.088 20.1929 128.39 50.0187 105.591C59.2559 98.538 71.3761 94.594 87.3066 96.3782C101.575 97.9746 112.135 102.805 119.891 109.452C129.456 117.622 132.972 133.001 133.391 149.936C134.261 184.19 122.492 224.768 122.492 224.768Z" fill="white" stroke="#602B7A" stroke-linecap="round" stroke-linejoin="round"/>
<path d="M86.7299 97.5887C111.14 100.385 127.681 110.318 129.976 136.153C132.271 161.987 129.354 179.151 127.466 191.108C125.589 203.065 124.12 220.417 119.314 221.763C114.509 223.109 46.1858 224.267 44.9308 221.189C43.6758 218.101 34.0882 162.895 38.475 135.704C42.8618 108.513 61.4379 94.6881 86.7186 97.5887H86.7299Z" fill="#29235C"/>
<path d="M119.891 109.442C114.724 119.75 105.453 130.863 89.206 132.25C88.0867 132.344 86.9222 132.396 85.7237 132.396C82.3884 132.396 79.347 132.073 76.577 131.468C59.6855 127.858 52.7774 114.408 50.0187 105.581C59.2559 98.5278 71.3761 94.5837 87.3066 96.3679C101.575 97.9643 112.135 102.795 119.891 109.442Z" fill="white" stroke="#602B7A" stroke-linecap="round" stroke-linejoin="round"/>
<path d="M52.1104 106.249C51.6581 108.743 61.585 129.903 82.8746 130.831C107.16 131.896 116.737 112.405 117.359 110.12C117.98 107.835 105.317 99.2999 87.2161 97.1401C69.1149 94.9802 52.653 103.233 52.1104 106.249Z" fill="#E63417"/>
<path d="M68.7757 119.343L85.4184 101.199L95.4018 121.576L115.222 96.1695L60.296 90.8586L68.7757 119.343Z" fill="white" stroke="#602B7A" stroke-linecap="round" stroke-linejoin="round"/>
<path d="M78.9061 106.218L89.8052 106.499C89.8052 106.499 89.0477 118.644 83.1459 117.81C77.244 116.975 78.9061 106.218 78.9061 106.218Z" fill="white" stroke="#602B7A" stroke-linecap="round" stroke-linejoin="round"/>
<path d="M89.1947 132.261C88.0754 132.355 86.9108 132.407 85.7124 132.407C82.3771 132.407 79.3357 132.083 76.5657 131.478C78.4425 120.209 79.7992 115.441 79.7992 115.441H87.0578C87.0578 115.441 88.4824 123.058 89.1834 132.261H89.1947Z" fill="white" stroke="#602B7A" stroke-linecap="round" stroke-linejoin="round"/>
<path d="M85.5315 120.303L79.5166 123.882" stroke="#E63417" stroke-linecap="round" stroke-linejoin="round"/>
<path d="M85.9385 124.999L79.9236 128.588" stroke="#E63417" stroke-linecap="round" stroke-linejoin="round"/>
<path d="M174.873 193.81C153.075 234.221 114.317 238.666 114.317 238.666L111.592 212.852C111.592 212.852 150.938 205.83 153.798 182.03C154.759 174.059 144.188 157.26 133.391 149.936C132.972 133.001 129.456 117.622 119.891 109.452C164.98 125.009 187.728 169.99 174.873 193.81Z" fill="white" stroke="#602B7A" stroke-linecap="round" stroke-linejoin="round"/>
<path d="M78.092 81.5412C67.8712 74.7383 65.3047 58.837 65.3838 47.2032C65.4856 32.0113 69.2053 21.5148 86.8656 18.2281C109.433 14.0232 131.016 29.0794 113.797 67.3407C104.582 87.812 87.5327 87.812 78.1033 81.5412H78.092Z" fill="#374C92"/>
<path d="M110.654 67.3512C114.001 66.8816 116.307 64.0019 115.81 60.9134C115.301 57.825 112.18 55.6964 108.834 56.1555C105.487 56.6251 103.18 59.5048 103.678 62.5933C104.187 65.6817 107.307 67.8103 110.654 67.3512Z" fill="white" stroke="#602B7A" stroke-linecap="round" stroke-linejoin="round"/>
<path d="M72.8346 63.8453C76.1812 63.3758 78.4877 60.496 77.9902 57.4076C77.4814 54.3191 74.3609 52.1906 71.0143 52.6497C67.6676 53.1192 65.3611 55.999 65.8586 59.0874C66.3674 62.1759 69.4879 64.3044 72.8346 63.8453Z" fill="white" stroke="#602B7A" stroke-linecap="round" stroke-linejoin="round"/>
<path d="M111.599 46.8259C112.932 37.2757 105.626 28.5367 95.2807 27.3069C84.9352 26.077 75.4678 32.8221 74.1348 42.3723L68.9868 79.2541C67.6537 88.8044 74.9598 97.5434 85.3054 98.7732C95.6509 100.003 105.118 93.258 106.451 83.7077L111.599 46.8259Z" fill="white" stroke="#602B7A" stroke-linecap="round" stroke-linejoin="round"/>
<path d="M81.5291 83.4089C81.5291 83.4089 82.3431 89.5545 87.5779 90.2849C93.3214 90.5666 95.7523 84.1289 95.7523 84.1289" stroke="#602B7A" stroke-linecap="round" stroke-linejoin="round"/>
<path d="M100.32 47.5371C100.32 47.5371 101.937 47.7249 103.124 48.5701C104.311 49.4152 105.001 50.8655 105.001 50.8655" stroke="#602B7A" stroke-linecap="round" stroke-linejoin="round"/>
<path d="M84.1069 46.5146C84.1069 46.5146 82.4901 46.4102 81.1447 47.0363C79.7992 47.6623 78.8269 48.9561 78.8269 48.9561" stroke="#602B7A" stroke-linecap="round" stroke-linejoin="round"/>
<path d="M91.4333 56.2913L84.8418 69.2606L91.6821 69.5528" stroke="#602B7A" stroke-linecap="round" stroke-linejoin="round"/>
<path d="M62.3989 75.7296C62.3989 75.7296 64.7619 82.6578 76.2038 84.1707C87.6457 85.6836 90.0426 77.5556 88.6633 75.2914C87.2839 73.0272 83.078 70.8674 78.2842 73.3298C73.4903 75.7922 73.8634 79.851 62.4102 75.7296H62.3989Z" fill="#2F2535"/>
<path d="M115.651 77.3886C115.651 77.3886 112.791 84.1498 101.258 84.9532C89.7261 85.7566 87.9397 77.4929 89.4774 75.3227C91.0263 73.1524 95.3792 71.2639 99.9808 74.008C104.582 76.7521 103.915 80.79 115.64 77.3886H115.651Z" fill="#2F2535"/>
<path d="M102.717 55.9678C102.593 57.6685 101.62 58.9936 100.535 58.931C99.5964 58.8789 98.8954 57.7937 98.7823 56.406C98.7597 56.1869 98.771 55.9574 98.7823 55.7278C98.7936 55.4983 98.8276 55.2583 98.8728 55.0392C99.1781 53.6723 100.026 52.702 100.964 52.7646C102.05 52.8272 102.83 54.2566 102.706 55.9678H102.717Z" fill="#602B7A"/>
<path d="M100.5 55.832C100.477 56.1972 99.7082 56.4581 98.7924 56.4059C98.7697 56.1868 98.781 55.9572 98.7924 55.7277C98.8037 55.4982 98.8376 55.2582 98.8828 55.0391C99.7986 55.1017 100.522 55.4564 100.488 55.8216L100.5 55.832Z" fill="white"/>
<path d="M84.0616 54.8513C83.9373 56.5521 82.9649 57.8772 81.8795 57.8146C80.9411 57.7624 80.2401 56.6773 80.1271 55.2896C80.1045 55.0705 80.1158 54.8409 80.1271 54.6114C80.1384 54.3818 80.1723 54.1418 80.2175 53.9227C80.5228 52.5559 81.3708 51.5855 82.3092 51.6481C83.3946 51.7107 84.1747 53.1402 84.0503 54.8513H84.0616Z" fill="#602B7A"/>
<path d="M81.8443 54.7156C81.8217 55.0808 81.0529 55.3416 80.1371 55.2895C80.1145 55.0703 80.1258 54.8408 80.1371 54.6112C80.1484 54.3817 80.1823 54.1417 80.2275 53.9226C81.1433 53.9852 81.8669 54.34 81.833 54.7052L81.8443 54.7156Z" fill="white"/>
<path d="M119.043 6.41696L118.964 31.1037C103.135 37.6875 84.7401 37.6353 68.9679 30.9471L69.047 6.14568C69.0583 2.14948 73.1286 -0.772023 77.3232 0.187899C83.4172 1.57561 91.2751 3.20331 94.9496 3.21374C98.2397 3.21374 105.125 1.77386 110.71 0.448747C114.939 -0.552911 119.054 2.41033 119.043 6.42739V6.41696Z" fill="#2F2535"/>
<path d="M131.446 32.7938L124.063 36.164C114.634 40.4732 104.288 42.6122 93.9546 42.5809C83.666 42.5496 73.3999 40.3793 64.0497 36.0805L56.4745 32.5851C54.7108 31.7713 53.9985 29.7993 54.8803 28.1716C55.7622 26.5439 57.9104 25.8866 59.6629 26.7004L67.238 30.1958C67.8147 30.4566 68.3913 30.7175 68.9792 30.9575C84.7514 37.6456 103.147 37.6978 118.975 31.114C119.631 30.8427 120.275 30.5714 120.909 30.2688L128.292 26.8986C130.055 26.0848 132.204 26.763 133.074 28.3907C133.945 30.0184 133.221 32.0008 131.457 32.8043L131.446 32.7938Z" fill="#2F2535"/>
<path d="M134.974 94.1349L131.977 95.1053L130.824 97.9642L129.739 95.1679L126.664 94.1349L129.773 93.0707L130.824 90.3057L131.944 93.1333L134.974 94.1349Z" fill="#602B7A"/>
<path d="M21.1087 42.5809L16.9819 43.9165L15.3877 47.8605L13.8953 44.0104L9.6781 42.5809L13.9405 41.1202L15.3877 37.3118L16.9367 41.2036L21.1087 42.5809Z" fill="#602B7A"/>
<path d="M163.793 77.6807L159.666 79.0162L158.072 82.9603L156.58 79.0997L152.351 77.6807L156.625 76.2199L158.072 72.4011L159.61 76.3034L163.793 77.6807Z" fill="#602B7A"/>
<path d="M124.3 113.417C124.3 113.417 128.642 120.095 130.609 126.501C132.633 133.095 133.933 147.64 133.933 147.64C133.933 147.64 153.335 159.984 155.404 177.909C156.998 191.755 143.057 203.243 135.935 206.488C130.858 208.794 115.086 213.729 114.227 215.722C113.367 217.715 116.183 234.096 117.833 235.442C119.495 236.777 126.29 235.265 139.553 227.804C152.815 220.344 176.32 200.676 176.874 178.212C177.508 152.784 155.302 134.337 151.571 130.894C147.84 127.451 135.381 115.149 124.3 113.438V113.417Z" fill="#E63417"/>
<path d="M112.226 219.447C110.089 220.866 106.844 222.493 103.949 223.161C99.0538 224.298 94.7461 223.631 90.4384 222.483C88.9234 222.076 87.4197 221.617 85.882 221.147C81.043 219.687 76.6901 217.704 71.8171 215.221C71.2744 214.95 70.9465 214.365 71.1274 213.833C71.2179 213.551 71.4327 213.395 71.8058 213.562C77.9677 214.689 89.794 216.744 95.2775 216.932C99.7548 217.099 107.013 218.195 111.999 217.308L112.033 217.642L112.226 219.447Z" fill="white" stroke="#602B7A" stroke-linecap="round" stroke-linejoin="round"/>
<path d="M113.707 233.011C98.1154 236.746 80.0141 241.212 73.9653 243.267C65.9266 246.011 57.7069 245.573 83.5756 235.995C74.9489 238.781 54.6769 245.323 54.3264 244.102C53.7498 242.109 82.1962 232.604 83.0781 232.312C82.1962 232.562 50.3127 241.587 49.6795 239.386C49.182 237.643 70.6639 231.55 79.2227 229.192C71.2405 231.279 51.9408 236.131 51.0928 234.492C50.0187 232.374 80.0141 224.82 80.0141 224.82L90.4384 222.483L112.033 217.642L112.226 219.447L113.707 233.011Z" fill="white" stroke="#602B7A" stroke-linecap="round" stroke-linejoin="round"/>
<path d="M70.8448 208.543C72.6538 210.307 75.5143 212.466 78.2165 213.625C82.7955 215.586 87.1597 215.68 91.6256 215.294C93.1972 215.158 94.7688 214.971 96.3743 214.772C101.428 214.178 106.098 212.978 111.389 211.381C111.977 211.204 112.418 210.693 112.35 210.14C112.316 209.847 112.135 209.66 111.739 209.754C105.453 209.795 93.4233 209.764 87.9963 209.002C83.5643 208.387 76.2153 208.209 71.4893 206.477L71.3875 206.801L70.8335 208.543H70.8448Z" fill="white" stroke="#602B7A" stroke-linecap="round" stroke-linejoin="round"/>
<path d="M69.3976 223.62C84.9889 227.356 103.09 231.821 109.139 233.877C117.178 236.621 125.397 236.183 99.5287 226.604C108.155 229.39 128.427 235.932 128.778 234.711C129.354 232.719 100.908 223.213 100.026 222.921C100.908 223.172 132.792 232.197 133.425 229.995C133.922 228.253 112.44 222.159 103.882 219.801C111.864 221.888 131.163 226.74 132.011 225.102C133.086 222.984 103.09 215.43 103.09 215.43L92.6658 213.092L71.0709 208.251L70.8787 210.056L69.3976 223.62Z" fill="white" stroke="#602B7A" stroke-linecap="round" stroke-linejoin="round"/>
<path d="M82.9424 229.432C82.9424 229.432 1.20977 239.772 0.57662 180.267C0.0565338 131.812 34.5405 113.198 47.3731 107.96C37.0166 118.53 34.3709 139.22 34.9023 160.182C34.9023 160.182 27.3837 161.705 28.0281 181.144C28.3334 190.472 32.7654 196.408 38.9612 200.123C54.6543 209.555 81.6987 204.714 81.6987 204.714L82.6598 223.923L82.9424 229.432Z" fill="white" stroke="#602B7A" stroke-linecap="round" stroke-linejoin="round"/>
<path d="M48.4584 226.51C19.5145 222.003 6.78373 204.37 3.55015 191.16C0.316571 177.951 3.55015 156.217 13.5562 137.937C21.1313 124.091 36.7226 114.878 44.0942 111.226C36.5191 121.722 34.1787 138.949 34.3031 156.645C30.7077 159.389 22.5333 168.383 28.0281 189.595C29.5884 195.626 33.8847 199.768 39.3682 202.585C54.2698 210.254 77.9677 208.199 79.5166 208.053C81.2012 207.896 80.5229 218.664 80.5794 223.881C80.5907 225.206 80.6472 226.166 80.8055 226.51C81.5857 228.201 77.4024 231.028 48.4584 226.51Z" fill="#E63417"/>
<path d="M63.9819 44.9495H60.8161C57.8813 44.9495 55.5022 47.145 55.5022 49.8534V65.7756C55.5022 68.484 57.8813 70.6796 60.8161 70.6796H63.9819C66.9167 70.6796 69.2958 68.484 69.2958 65.7756V49.8534C69.2958 47.145 66.9167 44.9495 63.9819 44.9495Z" fill="#E63417" stroke="#602B7A" stroke-linecap="round" stroke-linejoin="round"/>
<path d="M121.598 44.9495H118.433C115.498 44.9495 113.119 47.145 113.119 49.8534V65.7756C113.119 68.484 115.498 70.6796 118.433 70.6796H121.598C124.533 70.6796 126.912 68.484 126.912 65.7756V49.8534C126.912 47.145 124.533 44.9495 121.598 44.9495Z" fill="#E63417" stroke="#602B7A" stroke-linecap="round" stroke-linejoin="round"/>
<path d="M63.9819 44.9495C63.9819 44.9495 65.7231 19.3968 93.9547 21.1705C122.186 22.9443 119.936 44.9495 119.936 44.9495" stroke="#E63417" stroke-width="2" stroke-linecap="round" stroke-linejoin="round"/>
<path d="M133.436 44.9495C137.201 42.6749 147.49 34.4634 147.49 34.4634" stroke="#602B7A" stroke-width="1.42" stroke-miterlimit="10" stroke-linecap="round" stroke-dasharray="0.3 8"/>
<path d="M135.799 57.8144L158.072 56.291" stroke="#602B7A" stroke-width="1.42" stroke-miterlimit="10" stroke-linecap="round" stroke-dasharray="0.3 8"/>
<path d="M133.436 72.2446L145.466 78.818" stroke="#602B7A" stroke-width="1.42" stroke-miterlimit="10" stroke-linecap="round" stroke-dasharray="0.3 8"/>
<path d="M36.7227 34.4634L49.6796 42.581" stroke="#602B7A" stroke-width="1.42" stroke-miterlimit="10" stroke-linecap="round" stroke-dasharray="0.3 8"/>
<path d="M27.3837 51.6479L46.7964 52.7644" stroke="#602B7A" stroke-width="1.42" stroke-miterlimit="10" stroke-linecap="round" stroke-dasharray="0.3 8"/>
<path d="M12.4116 77.1599V68.7599H13.9716V75.8399H18.3636V77.1599H12.4116ZM22.4046 77.2439C21.6926 77.2439 21.0686 77.1039 20.5326 76.8239C20.0046 76.5359 19.5926 76.1439 19.2966 75.6479C19.0086 75.1519 18.8646 74.5879 18.8646 73.9559C18.8646 73.3159 19.0046 72.7519 19.2846 72.2639C19.5726 71.7679 19.9646 71.3799 20.4606 71.0999C20.9646 70.8199 21.5366 70.6799 22.1766 70.6799C22.8006 70.6799 23.3566 70.8159 23.8446 71.0879C24.3326 71.3599 24.7166 71.7439 24.9966 72.2399C25.2766 72.7359 25.4166 73.3199 25.4166 73.9919C25.4166 74.0559 25.4126 74.1279 25.4046 74.2079C25.4046 74.2879 25.4006 74.3639 25.3926 74.4359H20.0526V73.4399H24.6006L24.0126 73.7519C24.0206 73.3839 23.9446 73.0599 23.7846 72.7799C23.6246 72.4999 23.4046 72.2799 23.1246 72.1199C22.8526 71.9599 22.5366 71.8799 22.1766 71.8799C21.8086 71.8799 21.4846 71.9599 21.2046 72.1199C20.9326 72.2799 20.7166 72.5039 20.5566 72.7919C20.4046 73.0719 20.3286 73.4039 20.3286 73.7879V74.0279C20.3286 74.4119 20.4166 74.7519 20.5926 75.0479C20.7686 75.3439 21.0166 75.5719 21.3366 75.7319C21.6566 75.8919 22.0246 75.9719 22.4406 75.9719C22.8006 75.9719 23.1246 75.9159 23.4126 75.8039C23.7006 75.6919 23.9566 75.5159 24.1806 75.2759L24.9846 76.1999C24.6966 76.5359 24.3326 76.7959 23.8926 76.9799C23.4606 77.1559 22.9646 77.2439 22.4046 77.2439ZM29.2694 77.2439C28.5654 77.2439 28.0214 77.0639 27.6374 76.7039C27.2534 76.3359 27.0614 75.7959 27.0614 75.0839V69.3359H28.5614V75.0479C28.5614 75.3519 28.6374 75.5879 28.7894 75.7559C28.9494 75.9239 29.1694 76.0079 29.4494 76.0079C29.7854 76.0079 30.0654 75.9199 30.2894 75.7439L30.7094 76.8119C30.5334 76.9559 30.3174 77.0639 30.0614 77.1359C29.8054 77.2079 29.5414 77.2439 29.2694 77.2439ZM26.0054 71.9519V70.7519H30.2774V71.9519H26.0054ZM31.5474 71.8919L32.2434 69.2279L32.4474 70.1279C32.1674 70.1279 31.9314 70.0399 31.7394 69.8639C31.5554 69.6879 31.4634 69.4519 31.4634 69.1559C31.4634 68.8599 31.5554 68.6239 31.7394 68.4479C31.9314 68.2639 32.1634 68.1719 32.4354 68.1719C32.7154 68.1719 32.9474 68.2639 33.1314 68.4479C33.3154 68.6319 33.4074 68.8679 33.4074 69.1559C33.4074 69.2439 33.3994 69.3359 33.3834 69.4319C33.3754 69.5199 33.3514 69.6239 33.3114 69.7439C33.2794 69.8559 33.2234 70.0039 33.1434 70.1879L32.5194 71.8919H31.5474ZM36.6538 77.2439C36.1178 77.2439 35.6018 77.1759 35.1058 77.0399C34.6178 76.8959 34.2298 76.7239 33.9418 76.5239L34.5178 75.3839C34.8058 75.5679 35.1498 75.7199 35.5498 75.8399C35.9498 75.9599 36.3498 76.0199 36.7498 76.0199C37.2218 76.0199 37.5618 75.9559 37.7698 75.8279C37.9858 75.6999 38.0938 75.5279 38.0938 75.3119C38.0938 75.1359 38.0218 75.0039 37.8778 74.9159C37.7338 74.8199 37.5458 74.7479 37.3138 74.6999C37.0818 74.6519 36.8218 74.6079 36.5338 74.5679C36.2538 74.5279 35.9698 74.4759 35.6818 74.4119C35.4018 74.3399 35.1458 74.2399 34.9138 74.1119C34.6818 73.9759 34.4938 73.7959 34.3498 73.5719C34.2058 73.3479 34.1338 73.0519 34.1338 72.6839C34.1338 72.2759 34.2498 71.9239 34.4818 71.6279C34.7138 71.3239 35.0378 71.0919 35.4538 70.9319C35.8778 70.7639 36.3778 70.6799 36.9538 70.6799C37.3858 70.6799 37.8218 70.7279 38.2618 70.8239C38.7018 70.9199 39.0658 71.0559 39.3538 71.2319L38.7778 72.3719C38.4738 72.1879 38.1658 72.0639 37.8538 71.9999C37.5498 71.9279 37.2458 71.8919 36.9418 71.8919C36.4858 71.8919 36.1458 71.9599 35.9218 72.0959C35.7058 72.2319 35.5978 72.4039 35.5978 72.6119C35.5978 72.8039 35.6698 72.9479 35.8138 73.0439C35.9578 73.1399 36.1458 73.2159 36.3778 73.2719C36.6098 73.3279 36.8658 73.3759 37.1458 73.4159C37.4338 73.4479 37.7178 73.4999 37.9978 73.5719C38.2778 73.6439 38.5338 73.7439 38.7658 73.8719C39.0058 73.9919 39.1978 74.1639 39.3418 74.3879C39.4858 74.6119 39.5578 74.9039 39.5578 75.2639C39.5578 75.6639 39.4378 76.0119 39.1978 76.3079C38.9658 76.6039 38.6338 76.8359 38.2018 77.0039C37.7698 77.1639 37.2538 77.2439 36.6538 77.2439Z" fill="#374C92"/>
<path d="M12.2676 91.7883V82.8843H13.7676V91.7883H12.2676ZM15.7363 91.7883V85.3803H17.2363V91.7883H15.7363ZM16.4923 84.3243C16.2123 84.3243 15.9803 84.2363 15.7963 84.0603C15.6203 83.8843 15.5323 83.6723 15.5323 83.4243C15.5323 83.1683 15.6203 82.9563 15.7963 82.7883C15.9803 82.6123 16.2123 82.5243 16.4923 82.5243C16.7723 82.5243 17.0003 82.6083 17.1763 82.7763C17.3603 82.9363 17.4523 83.1403 17.4523 83.3883C17.4523 83.6523 17.3643 83.8763 17.1883 84.0603C17.0123 84.2363 16.7803 84.3243 16.4923 84.3243ZM21.1851 91.8723C20.6491 91.8723 20.1331 91.8043 19.6371 91.6683C19.1491 91.5243 18.7611 91.3523 18.4731 91.1523L19.0491 90.0123C19.3371 90.1963 19.6811 90.3483 20.0811 90.4683C20.4811 90.5883 20.8811 90.6483 21.2811 90.6483C21.7531 90.6483 22.0931 90.5843 22.3011 90.4563C22.5171 90.3283 22.6251 90.1563 22.6251 89.9403C22.6251 89.7643 22.5531 89.6323 22.4091 89.5443C22.2651 89.4483 22.0771 89.3763 21.8451 89.3283C21.6131 89.2803 21.3531 89.2363 21.0651 89.1963C20.7851 89.1563 20.5011 89.1043 20.2131 89.0403C19.9331 88.9683 19.6771 88.8683 19.4451 88.7403C19.2131 88.6043 19.0251 88.4243 18.8811 88.2003C18.7371 87.9763 18.6651 87.6803 18.6651 87.3123C18.6651 86.9043 18.7811 86.5523 19.0131 86.2563C19.2451 85.9523 19.5691 85.7203 19.9851 85.5603C20.4091 85.3923 20.9091 85.3083 21.4851 85.3083C21.9171 85.3083 22.3531 85.3563 22.7931 85.4523C23.2331 85.5483 23.5971 85.6843 23.8851 85.8603L23.3091 87.0003C23.0051 86.8163 22.6971 86.6923 22.3851 86.6283C22.0811 86.5563 21.7771 86.5203 21.4731 86.5203C21.0171 86.5203 20.6771 86.5883 20.4531 86.7243C20.2371 86.8603 20.1291 87.0323 20.1291 87.2403C20.1291 87.4323 20.2011 87.5763 20.3451 87.6723C20.4891 87.7683 20.6771 87.8443 20.9091 87.9003C21.1411 87.9563 21.3971 88.0043 21.6771 88.0443C21.9651 88.0763 22.2491 88.1283 22.5291 88.2003C22.8091 88.2723 23.0651 88.3723 23.2971 88.5003C23.5371 88.6203 23.7291 88.7923 23.8731 89.0163C24.0171 89.2403 24.0891 89.5323 24.0891 89.8923C24.0891 90.2923 23.9691 90.6403 23.7291 90.9363C23.4971 91.2323 23.1651 91.4643 22.7331 91.6323C22.3011 91.7923 21.7851 91.8723 21.1851 91.8723ZM27.7929 91.8723C27.0889 91.8723 26.5449 91.6923 26.1609 91.3323C25.7769 90.9643 25.5849 90.4243 25.5849 89.7123V83.9643H27.0849V89.6763C27.0849 89.9803 27.1609 90.2163 27.3129 90.3843C27.4729 90.5523 27.6929 90.6363 27.9729 90.6363C28.3089 90.6363 28.5889 90.5483 28.8129 90.3723L29.2329 91.4403C29.0569 91.5843 28.8409 91.6923 28.5849 91.7643C28.3289 91.8363 28.0649 91.8723 27.7929 91.8723ZM24.5289 86.5803V85.3803H28.8009V86.5803H24.5289ZM33.2679 91.8723C32.5559 91.8723 31.9319 91.7323 31.3959 91.4523C30.8679 91.1643 30.4559 90.7723 30.1599 90.2763C29.8719 89.7803 29.7279 89.2163 29.7279 88.5843C29.7279 87.9443 29.8679 87.3803 30.1479 86.8923C30.4359 86.3963 30.8279 86.0083 31.3239 85.7283C31.8279 85.4483 32.3999 85.3083 33.0399 85.3083C33.6639 85.3083 34.2199 85.4443 34.7079 85.7163C35.1959 85.9883 35.5799 86.3723 35.8599 86.8683C36.1399 87.3643 36.2799 87.9483 36.2799 88.6203C36.2799 88.6843 36.2759 88.7563 36.2679 88.8363C36.2679 88.9163 36.2639 88.9923 36.2559 89.0643H30.9159V88.0683H35.4639L34.8759 88.3803C34.8839 88.0123 34.8079 87.6883 34.6479 87.4083C34.4879 87.1283 34.2679 86.9083 33.9879 86.7483C33.7159 86.5883 33.3999 86.5083 33.0399 86.5083C32.6719 86.5083 32.3479 86.5883 32.0679 86.7483C31.7959 86.9083 31.5799 87.1323 31.4199 87.4203C31.2679 87.7003 31.1919 88.0323 31.1919 88.4163V88.6563C31.1919 89.0403 31.2799 89.3803 31.4559 89.6763C31.6319 89.9723 31.8799 90.2003 32.1999 90.3603C32.5199 90.5203 32.8879 90.6003 33.3039 90.6003C33.6639 90.6003 33.9879 90.5443 34.2759 90.4323C34.5639 90.3203 34.8199 90.1443 35.0439 89.9043L35.8479 90.8283C35.5599 91.1643 35.1959 91.4243 34.7559 91.6083C34.3239 91.7843 33.8279 91.8723 33.2679 91.8723ZM37.7207 91.7883V85.3803H39.1487V87.1083L38.8967 86.5803C39.1207 86.1723 39.4447 85.8603 39.8687 85.6443C40.3007 85.4203 40.7967 85.3083 41.3567 85.3083C41.8687 85.3083 42.3247 85.4083 42.7247 85.6083C43.1327 85.8083 43.4527 86.1163 43.6847 86.5323C43.9167 86.9403 44.0327 87.4683 44.0327 88.1163V91.7883H42.5327V88.3083C42.5327 87.7403 42.3967 87.3163 42.1247 87.0363C41.8607 86.7563 41.4887 86.6163 41.0087 86.6163C40.6567 86.6163 40.3447 86.6883 40.0727 86.8323C39.8007 86.9763 39.5887 87.1923 39.4367 87.4803C39.2927 87.7603 39.2207 88.1163 39.2207 88.5483V91.7883H37.7207Z" fill="#374C92"/>
</g>
<defs>
<clipPath id="clip0_138_10807">
<rect width="179" height="258" fill="white"/>
</clipPath>
</defs>
</svg>
