<svg width="233" height="177" viewBox="0 0 233 177" fill="none" xmlns="http://www.w3.org/2000/svg">
<path d="M197.91 24.6578H41.6495C36.4582 24.6578 32.2499 28.8662 32.2499 34.0574V154.796C32.2499 159.987 36.4582 164.196 41.6495 164.196H197.91C203.102 164.196 207.31 159.987 207.31 154.796V34.0574C207.31 28.8662 203.102 24.6578 197.91 24.6578Z" fill="white"/>
<path d="M197.91 164.916H41.6495C36.0703 164.916 31.5291 160.375 31.5291 154.796V34.0431C31.5291 28.4639 36.0703 23.9227 41.6495 23.9227H197.925C203.504 23.9227 208.045 28.4639 208.045 34.0431V154.796C208.045 160.375 203.504 164.916 197.925 164.916H197.91ZM41.6495 25.3788C36.8632 25.3788 32.9707 29.2713 32.9707 34.0576V154.796C32.9707 159.582 36.8632 163.475 41.6495 163.475H197.925C202.711 163.475 206.603 159.582 206.603 154.796V34.0431C206.603 29.2568 202.711 25.3644 197.925 25.3644H41.6495V25.3788Z" fill="#612A7A"/>
<path d="M174.281 145.656C173.719 145.656 173.243 145.195 173.243 144.633C173.243 144.071 173.676 143.609 174.238 143.609H174.281C174.844 143.609 175.305 144.071 175.305 144.633C175.305 145.195 174.844 145.656 174.281 145.656ZM161.984 145.656C161.422 145.656 160.946 145.195 160.946 144.633C160.946 144.071 161.379 143.609 161.941 143.609H161.984C162.546 143.609 163.008 144.071 163.008 144.633C163.008 145.195 162.546 145.656 161.984 145.656ZM149.687 145.656C149.125 145.656 148.649 145.195 148.649 144.633C148.649 144.071 149.081 143.609 149.644 143.609H149.687C150.249 143.609 150.71 144.071 150.71 144.633C150.71 145.195 150.249 145.656 149.687 145.656ZM144.771 138.275C144.209 138.275 143.747 137.814 143.747 137.252C143.747 136.689 144.209 136.214 144.771 136.214C145.333 136.214 145.794 136.646 145.794 137.208V137.252C145.794 137.814 145.333 138.275 144.771 138.275ZM178.477 137.569C177.914 137.569 177.453 137.136 177.453 136.574V136.531C177.453 135.968 177.914 135.507 178.477 135.507C179.039 135.507 179.5 135.968 179.5 136.531C179.5 137.093 179.039 137.569 178.477 137.569ZM144.771 125.978C144.209 125.978 143.747 125.516 143.747 124.954C143.747 124.392 144.209 123.916 144.771 123.916C145.333 123.916 145.794 124.349 145.794 124.911V124.954C145.794 125.516 145.333 125.978 144.771 125.978ZM178.477 125.271C177.914 125.271 177.453 124.839 177.453 124.277V124.233C177.453 123.671 177.914 123.21 178.477 123.21C179.039 123.21 179.5 123.671 179.5 124.233C179.5 124.796 179.039 125.271 178.477 125.271ZM144.771 113.681C144.209 113.681 143.747 113.219 143.747 112.657C143.747 112.095 144.209 111.619 144.771 111.619C145.333 111.619 145.794 112.051 145.794 112.614V112.657C145.794 113.219 145.333 113.681 144.771 113.681ZM178.477 112.974C177.914 112.974 177.453 112.542 177.453 111.979V111.936C177.453 111.374 177.914 110.913 178.477 110.913C179.039 110.913 179.5 111.374 179.5 111.936C179.5 112.498 179.039 112.974 178.477 112.974ZM144.771 101.383C144.209 101.383 143.747 100.922 143.747 100.36C143.747 99.7974 144.209 99.3216 144.771 99.3216C145.333 99.3216 145.794 99.7541 145.794 100.316V100.36C145.794 100.922 145.333 101.383 144.771 101.383ZM178.477 100.677C177.914 100.677 177.453 100.244 177.453 99.682V99.6388C177.453 99.0765 177.914 98.6152 178.477 98.6152C179.039 98.6152 179.5 99.0765 179.5 99.6388C179.5 100.201 179.039 100.677 178.477 100.677ZM144.771 89.0859C144.209 89.0859 143.747 88.6246 143.747 88.0623C143.747 87.5001 144.209 87.0243 144.771 87.0243C145.333 87.0243 145.794 87.4568 145.794 88.0191V88.0623C145.794 88.6246 145.333 89.0859 144.771 89.0859ZM178.477 88.3795C177.914 88.3795 177.453 87.947 177.453 87.3847V87.3415C177.453 86.7792 177.914 86.3179 178.477 86.3179C179.039 86.3179 179.5 86.7792 179.5 87.3415C179.5 87.9037 179.039 88.3795 178.477 88.3795ZM178.477 76.0822C177.914 76.0822 177.453 75.6497 177.453 75.0874V75.0442C177.453 74.4819 177.914 74.0206 178.477 74.0206C179.039 74.0206 179.5 74.4819 179.5 75.0442C179.5 75.6064 179.039 76.0822 178.477 76.0822ZM173.546 68.7297H173.503C172.941 68.7297 172.479 68.2684 172.479 67.7062C172.479 67.1439 172.941 66.6826 173.503 66.6826C174.065 66.6826 174.541 67.1439 174.541 67.7062C174.541 68.2684 174.108 68.7297 173.546 68.7297ZM161.249 68.7297H161.206C160.643 68.7297 160.182 68.2684 160.182 67.7062C160.182 67.1439 160.643 66.6826 161.206 66.6826C161.768 66.6826 162.244 67.1439 162.244 67.7062C162.244 68.2684 161.811 68.7297 161.249 68.7297ZM148.952 68.7297H148.908C148.346 68.7297 147.885 68.2684 147.885 67.7062C147.885 67.1439 148.346 66.6826 148.908 66.6826C149.471 66.6826 149.946 67.1439 149.946 67.7062C149.946 68.2684 149.514 68.7297 148.952 68.7297ZM136.654 68.7297H136.611C136.049 68.7297 135.587 68.2684 135.587 67.7062C135.587 67.1439 136.049 66.6826 136.611 66.6826C137.173 66.6826 137.649 67.1439 137.649 67.7062C137.649 68.2684 137.216 68.7297 136.654 68.7297ZM124.357 68.7297H124.314C123.751 68.7297 123.29 68.2684 123.29 67.7062C123.29 67.1439 123.751 66.6826 124.314 66.6826C124.876 66.6826 125.352 67.1439 125.352 67.7062C125.352 68.2684 124.919 68.7297 124.357 68.7297ZM112.06 68.7297H112.016C111.454 68.7297 110.993 68.2684 110.993 67.7062C110.993 67.1439 111.454 66.6826 112.016 66.6826C112.579 66.6826 113.054 67.1439 113.054 67.7062C113.054 68.2684 112.622 68.7297 112.06 68.7297ZM99.7623 68.7297H99.7191C99.1568 68.7297 98.6955 68.2684 98.6955 67.7062C98.6955 67.1439 99.1568 66.6826 99.7191 66.6826C100.281 66.6826 100.757 67.1439 100.757 67.7062C100.757 68.2684 100.325 68.7297 99.7623 68.7297ZM87.465 68.7297H87.4218C86.8595 68.7297 86.3982 68.2684 86.3982 67.7062C86.3982 67.1439 86.8595 66.6826 87.4218 66.6826C87.984 66.6826 88.4598 67.1439 88.4598 67.7062C88.4598 68.2684 88.0273 68.7297 87.465 68.7297ZM75.1677 68.7297H75.1245C74.5622 68.7297 74.1009 68.2684 74.1009 67.7062C74.1009 67.1439 74.5622 66.6826 75.1245 66.6826C75.6867 66.6826 76.1625 67.1439 76.1625 67.7062C76.1625 68.2684 75.73 68.7297 75.1677 68.7297ZM64.8455 66.7403C64.2832 66.7403 63.8219 66.3078 63.8219 65.7455V65.7023C63.8219 65.14 64.2832 64.6787 64.8455 64.6787C65.4077 64.6787 65.869 65.14 65.869 65.7023C65.869 66.2645 65.4077 66.7403 64.8455 66.7403ZM64.8455 54.4429C64.2832 54.4429 63.8219 54.0105 63.8219 53.4482V53.405C63.8219 52.8427 64.2832 52.3814 64.8455 52.3814C65.4077 52.3814 65.869 52.8427 65.869 53.405C65.869 53.9672 65.4077 54.4429 64.8455 54.4429ZM231.976 49.3539C231.414 49.3539 230.938 48.8926 230.938 48.3303C230.938 47.7681 231.371 47.3068 231.933 47.3068H231.976C232.539 47.3068 233 47.7681 233 48.3303C233 48.8926 232.539 49.3539 231.976 49.3539ZM219.679 49.3539C219.117 49.3539 218.641 48.8926 218.641 48.3303C218.641 47.7681 219.074 47.3068 219.636 47.3068H219.679C220.241 47.3068 220.703 47.7681 220.703 48.3303C220.703 48.8926 220.241 49.3539 219.679 49.3539ZM207.382 49.3539C206.82 49.3539 206.344 48.8926 206.344 48.3303C206.344 47.7681 206.776 47.3068 207.339 47.3068H207.382C207.944 47.3068 208.405 47.7681 208.405 48.3303C208.405 48.8926 207.944 49.3539 207.382 49.3539ZM195.084 49.3539C194.522 49.3539 194.046 48.8926 194.046 48.3303C194.046 47.7681 194.479 47.3068 195.041 47.3068H195.084C195.647 47.3068 196.108 47.7681 196.108 48.3303C196.108 48.8926 195.647 49.3539 195.084 49.3539ZM182.787 49.3539C182.225 49.3539 181.749 48.8926 181.749 48.3303C181.749 47.7681 182.182 47.3068 182.744 47.3068H182.787C183.349 47.3068 183.811 47.7681 183.811 48.3303C183.811 48.8926 183.349 49.3539 182.787 49.3539ZM170.49 49.3539C169.928 49.3539 169.452 48.8926 169.452 48.3303C169.452 47.7681 169.884 47.3068 170.447 47.3068H170.49C171.052 47.3068 171.513 47.7681 171.513 48.3303C171.513 48.8926 171.052 49.3539 170.49 49.3539ZM158.193 49.3539C157.63 49.3539 157.155 48.8926 157.155 48.3303C157.155 47.7681 157.587 47.3068 158.149 47.3068H158.193C158.755 47.3068 159.216 47.7681 159.216 48.3303C159.216 48.8926 158.755 49.3539 158.193 49.3539ZM145.895 49.3539C145.333 49.3539 144.857 48.8926 144.857 48.3303C144.857 47.7681 145.29 47.3068 145.852 47.3068H145.895C146.457 47.3068 146.919 47.7681 146.919 48.3303C146.919 48.8926 146.457 49.3539 145.895 49.3539ZM133.598 49.3539C133.036 49.3539 132.56 48.8926 132.56 48.3303C132.56 47.7681 132.992 47.3068 133.555 47.3068H133.598C134.16 47.3068 134.622 47.7681 134.622 48.3303C134.622 48.8926 134.16 49.3539 133.598 49.3539ZM121.301 49.3539C120.738 49.3539 120.263 48.8926 120.263 48.3303C120.263 47.7681 120.695 47.3068 121.257 47.3068H121.301C121.863 47.3068 122.324 47.7681 122.324 48.3303C122.324 48.8926 121.863 49.3539 121.301 49.3539ZM109.003 49.3539C108.441 49.3539 107.965 48.8926 107.965 48.3303C107.965 47.7681 108.398 47.3068 108.96 47.3068H109.003C109.566 47.3068 110.027 47.7681 110.027 48.3303C110.027 48.8926 109.566 49.3539 109.003 49.3539ZM96.706 49.3539C96.1438 49.3539 95.668 48.8926 95.668 48.3303C95.668 47.7681 96.1005 47.3068 96.6628 47.3068H96.706C97.2683 47.3068 97.7296 47.7681 97.7296 48.3303C97.7296 48.8926 97.2683 49.3539 96.706 49.3539ZM84.4087 49.3539C83.8465 49.3539 83.3707 48.8926 83.3707 48.3303C83.3707 47.7681 83.8032 47.3068 84.3655 47.3068H84.4087C84.971 47.3068 85.4323 47.7681 85.4323 48.3303C85.4323 48.8926 84.971 49.3539 84.4087 49.3539ZM72.1114 49.3539C71.5492 49.3539 71.0734 48.8926 71.0734 48.3303C71.0734 47.7681 71.5059 47.3068 72.0682 47.3068H72.1114C72.6737 47.3068 73.135 47.7681 73.135 48.3303C73.135 48.8926 72.6737 49.3539 72.1114 49.3539Z" fill="#612A7A"/>
<path d="M119.628 145.05H51.7121V127.03H94.1833V85.0775H65.1483V105.39H0.720827C0.317164 105.39 0 105.073 0 104.67C0 104.266 0.317164 103.949 0.720827 103.949H63.7067V83.6359H95.6249V128.471H53.1538V143.609H118.201V87.2833H144.771C145.175 87.2833 145.492 87.6004 145.492 88.0041C145.492 88.4077 145.175 88.7249 144.771 88.7249H119.643V145.05H119.628Z" fill="#612A7A"/>
<path d="M61.1548 105.679C61.1548 105.679 55.1431 100.33 57.4786 97.6634C59.8141 94.9963 62.1496 100.676 62.1496 100.676C62.1496 100.676 57.8102 87.9754 62.4811 89.3162C67.1521 90.6569 66.1574 100.676 66.1574 100.676C66.1574 100.676 73.1782 92.3292 73.5098 96.0055C73.8414 99.6817 70.1652 105.362 67.4981 106.025C64.831 106.688 61.1548 105.693 61.1548 105.693V105.679Z" fill="#8DC63F"/>
<path d="M175.363 99.364C175.363 99.364 169.351 94.0155 171.687 91.3484C174.022 88.6814 176.358 94.3615 176.358 94.3615C176.358 94.3615 172.018 81.6605 176.689 83.0012C181.36 84.342 180.365 94.3615 180.365 94.3615C180.365 94.3615 187.386 86.0143 187.718 89.6905C188.049 93.3667 184.373 99.0469 181.706 99.71C179.039 100.373 175.363 99.3784 175.363 99.3784V99.364Z" fill="#8DC63F"/>
<path d="M145.809 146.723C149.296 146.723 152.123 143.896 152.123 140.408C152.123 136.921 149.296 134.094 145.809 134.094C142.321 134.094 139.494 136.921 139.494 140.408C139.494 143.896 142.321 146.723 145.809 146.723Z" fill="#D1EDF8"/>
<path d="M178.16 122.907C181.647 122.907 184.474 120.08 184.474 116.593C184.474 113.106 181.647 110.279 178.16 110.279C174.672 110.279 171.845 113.106 171.845 116.593C171.845 120.08 174.672 122.907 178.16 122.907Z" fill="#D1EDF8"/>
<path d="M76.7103 54.6877C80.1977 54.6877 83.0248 51.8607 83.0248 48.3733C83.0248 44.8859 80.1977 42.0588 76.7103 42.0588C73.2229 42.0588 70.3959 44.8859 70.3959 48.3733C70.3959 51.8607 73.2229 54.6877 76.7103 54.6877Z" fill="#D1EDF8"/>
<path d="M178.232 76.414C181.719 76.414 184.546 73.587 184.546 70.0996C184.546 66.6122 181.719 63.7852 178.232 63.7852C174.744 63.7852 171.917 66.6122 171.917 70.0996C171.917 73.587 174.744 76.414 178.232 76.414Z" fill="#D1EDF8"/>
<path d="M135.415 51.7754C138.902 51.7754 141.729 48.9483 141.729 45.4609C141.729 41.9736 138.902 39.1465 135.415 39.1465C131.927 39.1465 129.1 41.9736 129.1 45.4609C129.1 48.9483 131.927 51.7754 135.415 51.7754Z" fill="#D1EDF8"/>
<path d="M143.502 102.406L139.451 101.195L139.682 100.82C139.682 100.82 141.167 98.4125 141.758 96.9276C142.479 95.1256 142.104 92.1269 142.104 92.0981L142.767 92.0116C142.781 92.1413 143.156 95.2121 142.378 97.1727C141.902 98.3693 140.922 100.056 140.475 100.791L143.69 101.757L143.502 102.406Z" fill="#612A7A"/>
<path d="M151.446 102.277L147.193 101.08V100.806C147.193 100.806 147.337 99.2202 147.25 97.2595C147.164 95.1259 146.587 92.0696 146.587 92.0408L147.25 91.911C147.279 92.0408 147.842 95.0394 147.928 97.2307C147.986 98.7445 147.928 100.042 147.914 100.59L151.647 101.628L151.474 102.277H151.446Z" fill="#612A7A"/>
<path d="M159.302 90.4549L159.187 90.3973C158.841 90.2243 150.782 85.9137 150.263 80.3201L150.926 80.2625C151.373 85.1497 158.38 89.1863 159.375 89.7341L161.724 89.0565L161.912 89.7053L159.302 90.4549Z" fill="#612A7A"/>
<path d="M150.292 77.5521H138.557C137.442 77.5521 136.539 78.4558 136.539 79.5704V91.3055C136.539 92.4202 137.442 93.3238 138.557 93.3238H150.292C151.407 93.3238 152.311 92.4202 152.311 91.3055V79.5704C152.311 78.4558 151.407 77.5521 150.292 77.5521Z" fill="#612A7A"/>
<path d="M150.076 92.1268H141.166C140.201 92.1268 139.408 91.3339 139.408 90.3679V81.4585C139.408 80.4926 140.201 79.6997 141.166 79.6997H150.076C151.042 79.6997 151.835 80.4926 151.835 81.4585V90.3679C151.835 91.3339 151.042 92.1268 150.076 92.1268ZM141.166 80.161C140.446 80.161 139.869 80.7521 139.869 81.4585V90.3679C139.869 91.0888 140.446 91.6654 141.166 91.6654H150.076C150.797 91.6654 151.373 91.0744 151.373 90.3679V81.4585C151.373 80.7377 150.797 80.161 150.076 80.161H141.166Z" fill="#6553A3"/>
<path d="M144.295 74.1209C144.367 79.1235 136.51 79.1235 136.582 74.1209C136.51 69.1184 144.367 69.1184 144.295 74.1209Z" fill="white"/>
<path d="M140.446 78.1146C139.653 78.1146 138.86 77.9128 138.197 77.5235C137 76.8171 136.337 75.6206 136.366 74.1212C136.337 72.6363 137 71.4398 138.197 70.7334C139.552 69.9404 141.354 69.9404 142.709 70.7334C143.906 71.4398 144.569 72.6363 144.54 74.1212C144.554 75.6061 143.906 76.8171 142.709 77.5091C142.032 77.8984 141.239 78.1002 140.46 78.1002L140.446 78.1146ZM140.446 70.6036C139.739 70.6036 139.033 70.7766 138.427 71.137C137.375 71.7569 136.798 72.8093 136.827 74.1357C136.813 75.462 137.375 76.5144 138.427 77.1343C139.638 77.8407 141.268 77.8407 142.464 77.1343C143.516 76.5144 144.093 75.462 144.064 74.1357C144.079 72.8093 143.516 71.7569 142.464 71.137C141.859 70.7766 141.152 70.6036 140.446 70.6036Z" fill="#6553A3"/>
<path d="M152.253 74.1208C152.325 79.1233 144.468 79.1233 144.54 74.1208C144.468 69.1183 152.325 69.1183 152.253 74.1208Z" fill="white"/>
<path d="M148.404 78.1145C147.611 78.1145 146.818 77.9127 146.155 77.5234C144.958 76.817 144.295 75.6204 144.324 74.1211C144.295 72.6362 144.958 71.4396 146.155 70.7332C147.51 69.9403 149.312 69.9403 150.667 70.7332C151.864 71.4396 152.527 72.6362 152.498 74.1211C152.512 75.606 151.864 76.817 150.667 77.509C149.99 77.8982 149.197 78.1001 148.418 78.1001L148.404 78.1145ZM148.404 70.6035C147.697 70.6035 146.991 70.7765 146.385 71.1369C145.333 71.7568 144.756 72.8092 144.785 74.1355C144.771 75.4619 145.333 76.5143 146.385 77.1342C147.596 77.8406 149.226 77.8406 150.422 77.1342C151.474 76.5143 152.051 75.4619 152.022 74.1355C152.037 72.8092 151.474 71.7568 150.422 71.1369C149.817 70.7765 149.11 70.6035 148.404 70.6035Z" fill="#6553A3"/>
<path d="M150.552 74.1209C150.566 76.0383 148.822 75.8653 148.879 74.1209C148.807 72.3765 150.58 72.1891 150.552 74.1209Z" fill="#612A7A"/>
<path d="M149.615 74.121C149.615 74.294 149.297 74.4237 148.908 74.4382C148.879 74.2363 148.879 74.0057 148.908 73.8038C149.297 73.8038 149.615 73.948 149.615 74.121Z" fill="white"/>
<path d="M142.608 74.1209C142.622 76.0383 140.878 75.8653 140.936 74.1209C140.864 72.3765 142.637 72.1891 142.608 74.1209Z" fill="#612A7A"/>
<path d="M141.657 74.1211C141.657 74.2941 141.34 74.4239 140.95 74.4383C140.922 74.2365 140.922 74.0058 140.95 73.804C141.34 73.804 141.657 73.9481 141.657 74.1211Z" fill="white"/>
<path d="M141.469 79.1091L147.121 78.6766C147.669 78.6334 148 79.2821 147.64 79.7002C147.178 80.2192 146.486 80.7814 145.549 81.0409C144.511 81.3293 142.738 80.8247 141.296 80.2913C140.677 80.0606 140.806 79.1379 141.469 79.0947V79.1091Z" fill="#FFD441"/>
<path d="M133.209 92.4588L131.234 90.0513L131.493 89.835C133.295 88.3934 136.525 81.2283 136.553 81.1562L137.159 81.4302C137.029 81.7185 134.103 88.2204 132.156 90.1378L133.713 92.0263L133.194 92.4444L133.209 92.4588Z" fill="#612A7A"/>
<path d="M143.517 81.8197H145.247V87.9035H149.009V89.3163H143.517V81.8197Z" fill="white"/>
<path d="M158.856 8.68478C156.65 5.10948 152.455 6.8683 151.979 8.92987C151.503 6.8683 147.308 5.10948 145.102 8.68478C141.354 14.783 151.979 19.9441 151.979 19.9441C151.979 19.9441 162.619 14.7686 158.856 8.68478Z" fill="#612A7A"/>
<path d="M182.771 18.1418L180.536 15.0135L178.229 18.1418H175L178.921 12.9951L175.13 7.93494H178.446L180.608 10.9192L182.828 7.93494H185.971L182.179 12.9231L186.13 18.1418H182.771Z" fill="#612A7A"/>
<path d="M201.18 11.5824C201.8 12.2599 202.103 13.0961 202.103 14.0908C202.103 14.8693 201.901 15.5757 201.497 16.2245C201.094 16.8732 200.474 17.3922 199.652 17.7815C198.83 18.1707 197.807 18.3726 196.61 18.3726C195.673 18.3726 194.751 18.2428 193.857 17.9977C192.963 17.7526 192.184 17.4066 191.55 16.9453L192.747 14.5954C193.251 14.9703 193.842 15.273 194.505 15.4748C195.169 15.6911 195.846 15.792 196.538 15.792C197.317 15.792 197.922 15.6478 198.355 15.3451C198.802 15.0423 199.018 14.6243 199.018 14.0764C199.018 12.9952 198.196 12.4474 196.538 12.4474H195.14V10.4146L197.864 7.32949H192.213V4.86426H201.512V6.85374L198.513 10.2705C199.681 10.4579 200.575 10.8904 201.195 11.5679L201.18 11.5824Z" fill="#612A7A"/>
<path d="M89.3534 15.8355L34.1669 1.73615C31.8026 1.13066 29.4239 2.44256 28.8616 4.66271L25.5746 17.5223C25.0124 19.7424 26.4685 22.0202 28.8328 22.6257L38.4054 25.0621C38.5784 26.8353 39.8903 28.4212 41.8221 28.9113C43.7539 29.4015 45.6713 28.6374 46.666 27.1669L84.0337 36.7107C86.398 37.3162 88.7767 36.0043 89.339 33.7841L92.626 20.9246C93.1882 18.7044 91.7321 16.4266 89.3678 15.8211L89.3534 15.8355Z" fill="#612A7A"/>
<path d="M41.3749 11.9142L43.1769 12.3755L41.5911 18.5746L39.7891 18.1133L41.3749 11.9142ZM41.7641 10.7897C41.6055 10.5446 41.5623 10.2851 41.6344 9.99678C41.7065 9.70845 41.8795 9.50662 42.1245 9.36245C42.384 9.21828 42.6724 9.18945 43.0039 9.27595C43.3355 9.36245 43.5806 9.52103 43.7392 9.7517C43.8978 9.99678 43.941 10.2419 43.8689 10.5302C43.7969 10.8329 43.6239 11.0492 43.3644 11.1934C43.1049 11.3375 42.8165 11.3663 42.485 11.2799C42.1534 11.1934 41.9083 11.0348 41.7497 10.7897H41.7641Z" fill="white"/>
<path d="M46.7815 13.4278L48.3673 13.8314L48.0069 15.2154L46.4643 14.8262L45.2678 19.5116L43.4657 19.0502L44.6623 14.3649L43.7108 14.1198L44.0712 12.7358L45.0227 12.9809L45.0948 12.707C45.2822 12.0005 45.6282 11.496 46.1472 11.1788C46.6662 10.8761 47.3149 10.8184 48.079 11.0058C48.3529 11.0779 48.598 11.1644 48.8286 11.2941C49.0593 11.4095 49.2323 11.5536 49.3765 11.6978L48.5692 12.88C48.3962 12.6781 48.1799 12.5484 47.8916 12.4763C47.3437 12.3321 46.9978 12.5628 46.8392 13.1683L46.7671 13.4278H46.7815Z" fill="white"/>
<path d="M48.4107 31.7937L23.8305 37.7621C23.6286 39.521 22.3023 41.0779 20.3849 41.5537C18.4675 42.0294 16.5645 41.2365 15.5842 39.766L5.70888 42.1592C3.48873 42.6926 2.11916 44.9416 2.65257 47.1617L5.78096 60.0645C6.31437 62.2847 8.56335 63.6542 10.7835 63.1208L19.8659 60.9151C20.7886 62.5009 22.6483 63.3659 24.508 62.919C26.3678 62.4721 27.6364 60.8286 27.7229 59.0121L53.4853 52.7553C55.7054 52.2219 57.075 49.9729 56.5416 47.7528L53.4132 34.85C52.8798 32.6298 50.6308 31.2603 48.4107 31.7937Z" fill="#612A7A"/>
<path d="M22.807 53.693C22.6628 53.866 22.461 54.0246 22.2303 54.1544C21.9852 54.2841 21.7257 54.385 21.4374 54.4571C20.7022 54.6301 20.0823 54.5868 19.5777 54.2985C19.0875 54.0246 18.7415 53.52 18.5685 52.7848L17.9486 50.2331L16.9827 50.4637L16.6511 49.0797L17.617 48.8491L17.2566 47.3353L19.0587 46.9028L19.4335 48.4166L20.9761 48.0417L21.3077 49.4257L19.7507 49.8006L20.3706 52.3379C20.4283 52.5974 20.5436 52.7848 20.7166 52.9001C20.8896 53.0154 21.0914 53.0299 21.3365 52.9722C21.6248 52.9001 21.8411 52.7704 22.0141 52.5685L22.807 53.7219V53.693Z" fill="white"/>
<path d="M28.1702 46.7587C28.7613 47.1047 29.1649 47.739 29.3812 48.6472L30.2462 52.2081L28.4441 52.6406L27.6512 49.3536C27.5359 48.8635 27.334 48.5175 27.0601 48.3301C26.7862 48.1427 26.4402 48.0994 26.0365 48.2003C25.5752 48.3157 25.258 48.5463 25.0562 48.8923C24.8544 49.2383 24.8255 49.6852 24.9553 50.2475L25.705 53.3182L23.9029 53.7507L21.8269 45.1729L23.629 44.7404L24.3642 47.739C24.5516 47.4362 24.7967 47.1912 25.0995 46.9749C25.4022 46.7731 25.7626 46.6145 26.1663 46.5136C26.9304 46.3262 27.6079 46.4127 28.199 46.7587H28.1702Z" fill="white"/>
<path d="M37.3819 47.7245L32.6821 48.8634C32.8551 49.2239 33.129 49.4834 33.5038 49.6275C33.8787 49.7717 34.2967 49.7861 34.7725 49.6708C35.0897 49.5987 35.378 49.4689 35.5942 49.3104C35.8249 49.1518 36.0123 48.9499 36.1853 48.676L37.3963 49.4834C36.9782 50.2907 36.1997 50.8385 35.0752 51.1124C34.3688 51.2854 33.7201 51.2998 33.1146 51.1557C32.5091 51.0115 32.0045 50.7376 31.5864 50.3195C31.1828 49.9014 30.8944 49.3824 30.7503 48.7769C30.6061 48.1715 30.6061 47.5804 30.7791 47.0181C30.9521 46.4559 31.2549 45.9801 31.6873 45.5765C32.1198 45.1872 32.6533 44.9133 33.2876 44.7547C33.8931 44.6106 34.4842 44.6106 35.032 44.7547C35.5942 44.8989 36.07 45.1728 36.4736 45.6053C36.8773 46.0378 37.1512 46.5568 37.3098 47.2055C37.3098 47.2344 37.3386 47.393 37.3963 47.6957L37.3819 47.7245ZM32.6821 46.7442C32.4658 47.047 32.3649 47.393 32.4082 47.811L35.4645 47.0614C35.3059 46.6865 35.0608 46.4126 34.7292 46.2396C34.3977 46.0666 34.0228 46.0378 33.6192 46.1387C33.2155 46.2396 32.8983 46.4415 32.6677 46.7298L32.6821 46.7442Z" fill="white"/>
<path d="M43.5376 43.0389C44.1287 43.3849 44.5324 44.0192 44.7486 44.9274L45.6136 48.4883L43.8115 48.9208L43.0186 45.6338C42.9033 45.1437 42.7015 44.7977 42.4275 44.6103C42.1536 44.4229 41.8076 44.3796 41.404 44.4805C40.9426 44.5959 40.6255 44.8265 40.4237 45.1725C40.2218 45.5185 40.193 45.9654 40.3227 46.5277L41.0724 49.5984L39.2703 50.0309L37.7566 43.8029L39.4866 43.3849L39.6596 44.1057C39.8326 43.7885 40.0777 43.5146 40.3948 43.284C40.712 43.0533 41.0868 42.8947 41.5049 42.7794C42.269 42.592 42.961 42.6785 43.5376 43.0245V43.0389Z" fill="white"/>
<path d="M50.9767 57.1533L20.3704 69.0181C20.5001 70.8202 19.4766 72.579 17.7033 73.271C15.9301 73.963 13.9839 73.3575 12.8594 71.9302L4.12295 75.3181C1.98931 76.1399 0.922483 78.5474 1.75864 80.6811L6.55935 93.0649C7.38109 95.1985 9.78865 96.2654 11.9223 95.4292L58.7761 77.2644C60.9097 76.4426 61.9765 74.0351 61.1404 71.9014L56.3397 59.5176C55.5179 57.384 53.1104 56.3171 50.9767 57.1533Z" fill="#8DC63F"/>
<path d="M23.3977 80.508L18.8853 82.2524C19.116 82.5984 19.4187 82.8147 19.7936 82.9012C20.1828 83.0021 20.6009 82.9588 21.0478 82.7859C21.3505 82.6705 21.61 82.5119 21.8263 82.3245C22.0281 82.1371 22.2011 81.9064 22.3309 81.6325L23.6428 82.2669C23.3256 83.1319 22.6336 83.7662 21.5524 84.1843C20.8748 84.4438 20.2261 84.5447 19.6206 84.487C19.0006 84.4293 18.4672 84.2131 18.0059 83.8527C17.5446 83.4923 17.1986 83.0165 16.9679 82.4254C16.7373 81.8344 16.6796 81.2577 16.7661 80.681C16.8526 80.1044 17.0977 79.5854 17.4869 79.1385C17.8762 78.6916 18.3663 78.3456 18.9574 78.1149C19.5341 77.8842 20.1107 77.8121 20.6874 77.8842C21.264 77.9563 21.7686 78.1726 22.2155 78.533C22.6624 78.8934 23.0084 79.3836 23.2535 80.0179C23.2535 80.0467 23.3112 80.2053 23.3977 80.4936V80.508ZM18.597 80.162C18.424 80.4936 18.3663 80.854 18.4672 81.2577L21.4082 80.1188C21.2064 79.7584 20.918 79.5277 20.5721 79.398C20.2116 79.2826 19.8512 79.297 19.462 79.4412C19.0727 79.5998 18.7844 79.8305 18.597 80.162Z" fill="white"/>
<path d="M22.3597 74.3238L24.0897 73.6462L27.2758 81.8781L25.5458 82.5557L22.3597 74.3238Z" fill="white"/>
<path d="M29.4093 80.941C28.8903 80.9987 28.4578 80.9987 28.0974 80.9122L28.1983 79.4417C28.5299 79.5138 28.9047 79.5282 29.3228 79.4849C29.7409 79.4417 30.1301 79.3552 30.4906 79.211C31.2258 78.9227 31.5141 78.6055 31.3844 78.2451C31.3267 78.0721 31.1681 77.9856 30.9375 78C30.7068 78 30.3752 78.0577 29.9427 78.173C29.4237 78.2884 28.9912 78.3604 28.6308 78.3893C28.2704 78.4181 27.9388 78.346 27.6073 78.2019C27.2757 78.0433 27.0306 77.7549 26.8576 77.2936C26.7134 76.9188 26.6846 76.5439 26.7999 76.1547C26.9008 75.7799 27.1315 75.4339 27.4919 75.1023C27.8523 74.7707 28.3137 74.4968 28.8759 74.2806C29.294 74.122 29.7409 74.0066 30.1878 73.9346C30.6491 73.8625 31.0384 73.8625 31.37 73.9201L31.2691 75.3762C30.6347 75.2753 30.0004 75.3618 29.3805 75.5925C29.0057 75.7366 28.7462 75.8952 28.602 76.0682C28.4578 76.2412 28.4146 76.4142 28.4867 76.5728C28.5587 76.7602 28.7029 76.8467 28.9336 76.8467C29.1642 76.8467 29.5102 76.789 29.9716 76.6881C30.4906 76.5872 30.9231 76.5151 31.2691 76.4863C31.615 76.4574 31.9466 76.5295 32.2782 76.6737C32.6098 76.8179 32.8549 77.1206 33.0135 77.5531C33.1576 77.9279 33.172 78.2883 33.0567 78.6776C32.9414 79.0524 32.7107 79.3984 32.3503 79.73C31.9899 80.0472 31.5141 80.3355 30.9231 80.5517C30.4329 80.7392 29.9139 80.8689 29.3949 80.9266L29.4093 80.941Z" fill="white"/>
<path d="M39.6307 74.2224L35.1183 75.9668C35.349 76.3128 35.6518 76.529 36.041 76.6155C36.4303 76.7165 36.8483 76.6732 37.2952 76.5002C37.598 76.3849 37.8575 76.2263 38.0737 76.0389C38.2756 75.8515 38.4486 75.6208 38.5783 75.3469L39.8902 75.9812C39.5731 76.8462 38.8811 77.4805 37.7998 77.8986C37.1222 78.1581 36.4735 78.259 35.868 78.2014C35.2625 78.1437 34.7147 77.9274 34.2389 77.567C33.7776 77.2066 33.4316 76.7309 33.2009 76.1398C32.9703 75.5487 32.9126 74.9721 32.9991 74.3954C33.1 73.8187 33.3307 73.2997 33.7199 72.8528C34.1092 72.4059 34.5994 72.0599 35.1904 71.8293C35.7815 71.5986 36.3582 71.5265 36.9204 71.5986C37.4827 71.6707 38.0017 71.8869 38.4486 72.2473C38.8955 72.6077 39.2415 73.0979 39.4866 73.7322C39.4866 73.7611 39.5442 73.9197 39.6307 74.208V74.2224ZM34.83 73.8764C34.657 74.1936 34.5994 74.5684 34.7003 74.9721L37.6412 73.8331C37.4394 73.4727 37.1511 73.2421 36.8051 73.1123C36.4447 72.997 36.0843 72.997 35.695 73.1556C35.3058 73.3142 35.0174 73.5448 34.83 73.8764Z" fill="white"/>
<path d="M163.714 149.217H214.446L199.755 109.787C198.963 107.654 195.949 107.582 195.07 109.686L183.739 136.746L177.77 128.269C176.66 126.684 174.253 126.9 173.431 128.644L163.714 149.217Z" fill="#612A7A"/>
<path d="M119.873 49.4401C119.873 49.4401 113.862 44.0915 116.197 41.4245C118.532 38.7574 120.868 44.4375 120.868 44.4375C120.868 44.4375 116.529 31.7366 121.2 33.0773C125.87 34.418 124.876 44.4375 124.876 44.4375C124.876 44.4375 131.897 36.0903 132.228 39.7666C132.56 43.4428 128.884 49.1229 126.216 49.7861C123.549 50.4492 119.873 49.4545 119.873 49.4545V49.4401Z" fill="#8DC63F"/>
<path d="M85.1871 40.2422C82.9381 40.2422 80.6603 39.8818 78.4401 39.1321C67.4836 35.4415 61.5728 23.5046 65.2634 12.548C66.2437 9.66472 67.7863 7.08416 69.8623 4.87843C70.2227 4.5036 70.8138 4.48918 71.1886 4.83518C71.5634 5.19559 71.5923 5.78667 71.2319 6.1615C69.3433 8.1654 67.9449 10.5153 67.0511 13.1391C63.692 23.1153 69.0694 33.971 79.0456 37.3301C85.3457 39.4493 92.1791 38.195 97.3114 33.9566C97.715 33.625 98.3061 33.6827 98.6377 34.0863C98.9693 34.49 98.9116 35.0811 98.508 35.4127C94.6732 38.5699 89.9734 40.2278 85.1871 40.2278V40.2422Z" fill="#612A7A"/>
<path d="M98.7678 37.7775C98.6668 37.7775 98.5659 37.7631 98.465 37.7342C97.9749 37.5612 97.7009 37.0278 97.8739 36.5377L98.5659 34.4905L96.6053 33.8274C96.1151 33.6544 95.8412 33.1209 96.0142 32.6308C96.1872 32.1406 96.7206 31.8667 97.2108 32.0397L100.959 33.3084L99.6616 37.1432C99.5318 37.5324 99.157 37.7919 98.7678 37.7919V37.7775Z" fill="#612A7A"/>
<path d="M100.714 32.385C100.541 32.385 100.382 32.3418 100.223 32.2409C99.7766 31.967 99.6324 31.3903 99.9063 30.9434C100.642 29.7324 101.247 28.4349 101.708 27.0942C105.067 17.1179 99.6901 6.26228 89.7138 2.90323C84.9131 1.28857 79.7808 1.62015 75.2252 3.8403C74.7639 4.07097 74.1872 3.86913 73.9566 3.4078C73.7259 2.94648 73.9277 2.36981 74.3891 2.13915C79.3772 -0.297246 85.0285 -0.672076 90.3049 1.11557C101.261 4.80621 107.172 16.7431 103.482 27.6997C102.977 29.1846 102.314 30.6118 101.507 31.9381C101.334 32.2265 101.016 32.385 100.699 32.385H100.714Z" fill="#612A7A"/>
<path d="M75.7732 5.80117C75.6723 5.80117 75.5714 5.78676 75.4705 5.75792L71.7222 4.48927L73.0197 0.654468C73.1927 0.164306 73.7261 -0.109609 74.2162 0.0633898C74.7064 0.236388 74.9803 0.7698 74.8073 1.25996L74.1153 3.30711L76.076 3.97027C76.5661 4.14327 76.84 4.67668 76.667 5.16684C76.5373 5.55609 76.1625 5.81559 75.7732 5.81559V5.80117Z" fill="#612A7A"/>
<path d="M111.938 136.609L70.3762 146.902C63.1268 148.697 58.7054 156.029 60.5008 163.279C62.2962 170.528 69.6284 174.949 76.8778 173.154L118.439 162.861C125.689 161.065 130.11 153.733 128.315 146.484C126.519 139.234 119.187 134.813 111.938 136.609Z" fill="#8DC63F"/>
<path d="M75.9751 154.076L71.6646 155.143L71.0303 152.606L82.7797 149.694L83.4141 152.231L79.1035 153.298L81.8138 164.24L78.6999 165.019L75.9896 154.076H75.9751Z" fill="white"/>
<path d="M95.5382 156.239L87.6956 158.185C87.9984 158.791 88.4597 159.223 89.0796 159.454C89.6995 159.699 90.3915 159.713 91.1844 159.526C91.7178 159.396 92.1792 159.194 92.554 158.935C92.9288 158.675 93.2604 158.315 93.5343 157.882L95.5671 159.223C94.8751 160.578 93.5776 161.486 91.7034 161.962C90.5357 162.25 89.44 162.279 88.4309 162.049C87.4217 161.818 86.5711 161.357 85.8791 160.665C85.1872 159.973 84.7258 159.122 84.4663 158.099C84.2212 157.089 84.2357 156.109 84.5096 155.172C84.7835 154.235 85.2881 153.442 86.0233 152.779C86.7441 152.116 87.638 151.654 88.676 151.395C89.6851 151.15 90.6654 151.135 91.5881 151.366C92.5107 151.597 93.3181 152.058 93.9957 152.764C94.6588 153.456 95.1346 154.35 95.4085 155.431C95.4085 155.475 95.4661 155.749 95.5526 156.253L95.5382 156.239ZM87.6812 154.653C87.3208 155.158 87.1622 155.749 87.2199 156.441L92.3233 155.172C92.0638 154.538 91.6458 154.091 91.0835 153.817C90.5213 153.543 89.9158 153.485 89.2382 153.644C88.5606 153.817 88.0416 154.148 87.6668 154.653H87.6812Z" fill="white"/>
<path d="M99.6038 159.656C98.7244 159.656 98.0036 159.54 97.4413 159.339L97.9027 156.931C98.4361 157.118 99.056 157.219 99.7624 157.234C100.469 157.263 101.132 157.191 101.752 157.032C103.021 156.715 103.583 156.239 103.424 155.619C103.352 155.316 103.121 155.158 102.747 155.115C102.372 155.071 101.81 155.1 101.06 155.187C100.18 155.273 99.4453 155.288 98.8542 155.259C98.2631 155.23 97.7153 155.057 97.1963 154.725C96.6917 154.408 96.3313 153.846 96.1439 153.067C95.9853 152.419 96.0285 151.784 96.2736 151.179C96.5331 150.573 96.98 150.054 97.6432 149.593C98.3063 149.132 99.1137 148.771 100.108 148.526C100.844 148.339 101.593 148.238 102.357 148.223C103.121 148.209 103.785 148.281 104.318 148.44L103.842 150.818C102.804 150.53 101.752 150.516 100.671 150.79C100.022 150.948 99.575 151.15 99.2867 151.424C99.0128 151.683 98.9118 151.957 98.9839 152.231C99.056 152.548 99.2867 152.736 99.6759 152.779C100.051 152.822 100.642 152.808 101.42 152.736C102.3 152.664 103.035 152.649 103.612 152.678C104.188 152.707 104.736 152.88 105.226 153.212C105.716 153.543 106.077 154.077 106.264 154.841C106.423 155.489 106.38 156.095 106.106 156.7C105.846 157.291 105.385 157.825 104.707 158.286C104.044 158.748 103.194 159.094 102.184 159.353C101.319 159.569 100.454 159.67 99.5894 159.656H99.6038Z" fill="white"/>
<path d="M115.462 155.374C115.217 155.662 114.899 155.922 114.496 156.138C114.092 156.354 113.66 156.513 113.184 156.643C111.944 156.945 110.92 156.873 110.084 156.412C109.248 155.951 108.686 155.114 108.383 153.889L107.331 149.636L105.73 150.025L105.154 147.719L106.754 147.315L106.134 144.792L109.133 144.043L109.753 146.565L112.333 145.931L112.91 148.238L110.329 148.872L111.367 153.096C111.483 153.529 111.67 153.846 111.958 154.019C112.247 154.206 112.593 154.235 112.996 154.134C113.472 154.019 113.847 153.788 114.121 153.457L115.447 155.374H115.462Z" fill="white"/>
<path d="M19.1308 145.641L15.0077 147.098L13.4074 151.365L11.9225 147.184L7.69849 145.641L11.9658 144.056L13.4074 139.918L14.95 144.157L19.1308 145.641Z" fill="#612A7A"/>
<path d="M226.224 77.9137L222.087 79.3697L220.501 83.637L219.002 79.4562L214.777 77.9137L219.059 76.3279L220.501 72.1903L222.043 76.4288L226.224 77.9137Z" fill="#612A7A"/>
<path d="M36.9925 124.868L28.7895 127.751L25.6323 136.228L22.6769 127.924L14.2865 124.868L22.7634 121.725L25.6323 113.522L28.6886 121.912L36.9925 124.868Z" fill="#612A7A"/>
</svg>
