<svg width="588" height="435" viewBox="0 0 588 435" fill="none" xmlns="http://www.w3.org/2000/svg">
<g opacity="0.1">
<path d="M111.252 462L97.1101 429.634H103.081L117.223 462H111.252Z" fill="#DDF0FB"/>
<path d="M138.908 361.892L127.594 364.903L123.194 374.437L118.794 365.154L107.166 361.892L119.109 358.38L123.194 349.097L127.28 358.38L138.908 361.892Z" fill="#DDF0FB"/>
<path d="M16.9706 423.864L10.9995 425.369L8.4853 430.638L6.28541 425.62L0 423.864L6.28541 421.857L8.4853 417.09L10.6852 422.108L16.9706 423.864Z" fill="#DDF0FB"/>
<path d="M29.2273 383.72H40.2268V414.079H63.797V421.104H29.2273V383.72Z" fill="#DDF0FB"/>
<path d="M91.7669 401.032H80.7675L78.5676 405.046H74.4821L84.2244 387.484H88.31L98.0523 405.046H93.6525L91.7669 401.032ZM90.5098 398.523L86.4243 390.996L82.3388 398.523H90.5098Z" fill="#DDF0FB"/>
<path d="M119.422 397.519C120.051 398.272 120.365 399.275 120.365 400.279C120.365 401.784 119.737 403.039 118.165 403.792C116.594 404.544 114.708 405.046 111.88 405.046H100.88V387.483H111.251C113.766 387.483 115.965 387.985 117.223 388.738C118.48 389.491 119.422 390.745 119.422 391.999C119.422 392.752 119.108 393.756 118.794 394.258C118.48 394.759 117.537 395.512 116.594 395.763C117.851 396.265 118.794 396.767 119.422 397.519ZM104.966 390.243V395.01H110.623C112.194 395.01 113.137 394.759 113.766 394.508C114.394 394.007 115.023 393.505 115.023 392.752C115.023 392 114.708 391.247 113.766 390.996C113.137 390.494 111.88 390.494 110.623 390.494H104.966V390.243ZM116.28 400.028C116.28 398.272 114.708 397.519 111.566 397.519H104.966V402.537H111.566C114.708 402.537 116.28 401.784 116.28 400.028Z" fill="#DDF0FB"/>
<path d="M128.851 404.293C126.965 403.541 125.708 402.537 124.765 401.032C123.823 399.777 123.194 398.021 123.194 396.516C123.194 394.759 123.823 393.254 124.765 391.999C125.708 390.745 127.279 389.491 128.851 388.738C130.736 387.985 132.622 387.483 134.822 387.483C136.708 387.483 138.279 387.734 139.85 388.236C141.422 388.738 142.679 389.491 143.622 390.494L141.107 392.501C139.536 391.247 137.65 390.494 135.136 390.494C133.565 390.494 132.308 390.745 131.051 391.247C129.794 391.749 128.851 392.501 128.222 393.505C127.594 394.508 127.279 395.512 127.279 396.767C127.279 398.021 127.594 399.025 128.222 400.028C128.851 401.032 129.794 401.784 131.051 402.286C132.308 402.788 133.565 403.039 135.136 403.039C137.336 403.039 139.536 402.286 141.107 401.032L143.622 403.039C142.679 404.043 141.422 404.795 139.85 405.297C138.279 405.799 136.708 406.05 134.822 406.05C132.622 405.297 130.736 405.046 128.851 404.293Z" fill="#DDF0FB"/>
<path d="M63.4824 386.481C61.2826 386.481 59.3969 385.979 57.8256 385.226C55.94 384.223 52.7973 381.463 54.9971 374.689C57.8256 367.162 55.3114 360.638 48.3975 357.377C42.1121 354.366 32.3697 354.366 23.5701 361.14C22.9416 361.642 21.9988 361.642 21.3702 361.14C20.7417 360.638 20.7417 359.886 21.3702 359.384C29.8555 352.861 41.1692 351.355 49.9688 355.37C58.1398 359.133 60.9683 366.66 57.8256 375.441C56.8828 378.201 56.2542 381.714 59.3969 383.219C62.5396 384.975 68.825 383.721 73.5391 380.71C78.8817 377.448 81.0816 372.681 78.8817 368.165C78.5674 367.413 78.8817 366.911 79.8245 366.66C80.7673 366.409 81.3959 366.66 81.7101 367.413C84.2243 372.932 81.7101 378.703 75.4247 382.717C71.9678 385.226 67.2537 386.481 63.4824 386.481Z" fill="#DDF0FB"/>
<path d="M136.394 430.136C131.994 430.136 128.223 427.376 128.223 423.613C128.223 419.849 131.68 417.09 136.394 417.09C141.108 417.09 144.565 419.849 144.565 423.613C144.565 427.376 140.793 430.136 136.394 430.136ZM136.394 419.849C133.565 419.849 131.365 421.606 131.365 423.864C131.365 426.122 133.565 427.878 136.394 427.878C139.222 427.878 141.422 426.122 141.422 423.864C141.422 421.606 139.222 419.849 136.394 419.849Z" fill="#DDF0FB"/>
<path d="M7.54261 392.502C4.39991 392.502 1.88574 390.495 1.88574 387.986C1.88574 385.477 4.39991 383.47 7.54261 383.47C10.6853 383.47 13.1995 385.477 13.1995 387.986C13.1995 390.495 10.6853 392.502 7.54261 392.502ZM7.54261 385.226C5.65699 385.226 4.08563 386.48 4.08563 387.986C4.08563 389.491 5.65699 390.746 7.54261 390.746C9.42823 390.746 10.9996 389.491 10.9996 387.986C10.9996 386.48 9.42823 385.226 7.54261 385.226Z" fill="#DDF0FB"/>
<path d="M87.0527 352.61C83.91 352.61 81.3959 350.603 81.3959 348.094C81.3959 345.585 83.91 343.578 87.0527 343.578C90.1954 343.578 92.7096 345.585 92.7096 348.094C92.7096 350.603 90.1954 352.61 87.0527 352.61ZM87.0527 345.334C85.1671 345.334 83.5958 346.589 83.5958 348.094C83.5958 349.599 85.1671 350.854 87.0527 350.854C88.9384 350.854 90.5097 349.599 90.5097 348.094C90.5097 346.589 88.9384 345.334 87.0527 345.334Z" fill="#DDF0FB"/>
<path d="M554.687 462L540.545 429.634H546.516L560.658 462H554.687Z" fill="#DDF0FB"/>
<path d="M582.344 361.892L570.716 364.903L566.316 374.437L562.231 365.154L550.603 361.892L562.545 358.38L566.316 349.097L570.716 358.38L582.344 361.892Z" fill="#DDF0FB"/>
<path d="M472.662 383.72H483.662V414.079H507.232V421.104H472.662V383.72Z" fill="#DDF0FB"/>
<path d="M535.202 401.032H524.203L522.003 405.046H517.917L527.66 387.483H531.745L541.488 405.046H537.402L535.202 401.032ZM533.631 398.523L529.545 390.996L525.46 398.523H533.631Z" fill="#DDF0FB"/>
<path d="M562.858 397.519C563.486 398.272 563.8 399.275 563.8 400.279C563.8 401.784 563.172 403.039 561.6 403.792C560.029 404.544 558.143 405.046 555.315 405.046H544.316V387.483H554.686C557.201 387.483 559.401 387.985 560.658 388.738C561.915 389.491 562.858 390.745 562.858 391.999C562.858 392.752 562.543 393.756 562.229 394.258C561.915 394.759 560.972 395.512 560.029 395.763C560.972 396.265 561.915 396.767 562.858 397.519ZM548.401 390.243V395.01H554.058C555.629 395.01 556.572 394.759 557.201 394.508C557.829 394.007 558.458 393.505 558.458 392.752C558.458 392 558.143 391.247 557.201 390.996C556.572 390.494 555.315 390.494 554.058 390.494H548.401V390.243ZM559.715 400.028C559.715 398.272 558.143 397.519 555.001 397.519H548.401V402.537H555.001C558.143 402.537 559.715 401.784 559.715 400.028Z" fill="#DDF0FB"/>
<path d="M572.286 404.293C570.4 403.541 569.143 402.537 568.201 401.032C567.258 399.777 566.629 398.021 566.629 396.516C566.629 394.759 567.258 393.254 568.201 391.999C569.143 390.745 570.715 389.491 572.286 388.738C574.172 387.985 576.057 387.483 578.257 387.483C580.143 387.483 581.714 387.734 583.285 388.236C584.857 388.738 586.114 389.491 587.057 390.494L584.543 392.501C582.971 391.247 581.086 390.494 578.571 390.494C577 390.494 575.743 390.745 574.486 391.247C573.229 391.749 572.286 392.501 571.657 393.505C571.029 394.508 570.715 395.512 570.715 396.767C570.715 398.021 571.029 399.025 571.657 400.028C572.286 401.032 573.229 401.784 574.486 402.286C575.743 402.788 577 403.039 578.571 403.039C580.771 403.039 582.971 402.286 584.543 401.032L587.057 403.039C586.114 404.043 584.857 404.795 583.285 405.297C581.714 405.799 580.143 406.05 578.257 406.05C576.057 405.297 574.172 405.046 572.286 404.293Z" fill="#DDF0FB"/>
<path d="M506.918 386.481C504.718 386.481 502.833 385.979 501.262 385.226C499.376 384.223 496.233 381.463 498.433 374.689C501.262 367.162 498.747 360.638 491.833 357.377C485.548 354.366 475.806 354.366 467.006 361.14C466.378 361.642 465.435 361.642 464.806 361.14C464.178 360.638 464.178 359.886 464.806 359.384C473.291 352.861 484.605 351.355 493.405 355.37C501.576 359.133 504.404 366.66 501.262 375.441C500.319 378.201 499.69 381.714 502.833 383.219C505.976 384.975 512.261 383.721 516.975 380.71C522.318 377.448 524.518 372.681 522.318 368.165C522.003 367.413 522.318 366.911 523.26 366.66C524.203 366.409 524.832 366.66 525.146 367.413C527.66 372.932 525.146 378.703 518.861 382.717C515.089 385.226 510.69 386.481 506.918 386.481Z" fill="#DDF0FB"/>
<path d="M579.829 430.136C575.429 430.136 571.658 427.376 571.658 423.613C571.658 419.849 575.115 417.09 579.829 417.09C584.543 417.09 588 419.849 588 423.613C588 427.376 584.229 430.136 579.829 430.136ZM579.829 419.849C577 419.849 574.801 421.606 574.801 423.864C574.801 426.122 577 427.878 579.829 427.878C582.657 427.878 584.857 426.122 584.857 423.864C584.857 421.606 582.657 419.849 579.829 419.849Z" fill="#DDF0FB"/>
<path d="M530.488 352.61C527.346 352.61 524.831 350.603 524.831 348.094C524.831 345.585 527.346 343.578 530.488 343.578C533.631 343.578 536.145 345.585 536.145 348.094C536.145 350.603 533.631 352.61 530.488 352.61ZM530.488 345.334C528.603 345.334 527.031 346.589 527.031 348.094C527.031 349.599 528.603 350.854 530.488 350.854C532.374 350.854 533.945 349.599 533.945 348.094C533.945 346.589 532.374 345.334 530.488 345.334Z" fill="#DDF0FB"/>
<path d="M539.603 318.739L525.146 323.004L539.603 327.269V331.534L519.175 325.262V320.746L539.603 314.473V318.739Z" fill="#DDF0FB"/>
<path d="M554.687 338.308L540.545 305.943H546.516L560.658 338.308H554.687Z" fill="#DDF0FB"/>
<path d="M582.344 320.495V325.011L561.916 331.283V327.018L576.373 322.753L561.916 318.488V314.222L582.344 320.495Z" fill="#DDF0FB"/>
<path d="M582.344 237.95L570.716 241.211L566.316 250.745L562.23 241.462L550.602 237.95L562.545 234.437L566.316 225.405L570.716 234.688L582.344 237.95Z" fill="#DDF0FB"/>
<path d="M491.518 324.258L481.147 327.269L477.062 335.799L473.605 327.52L462.92 324.258L473.605 321.247L477.062 312.968L481.147 321.247L491.518 324.258Z" fill="#DDF0FB"/>
<path d="M472.662 260.029H483.662V290.387H507.232V297.413H472.662V260.029Z" fill="#DDF0FB"/>
<path d="M535.202 277.34H524.203L522.003 281.355H517.917L527.66 263.792H531.745L541.488 281.355H537.402L535.202 277.34ZM533.631 274.581L529.545 267.054L525.46 274.581H533.631Z" fill="#DDF0FB"/>
<path d="M562.857 273.828C563.486 274.581 563.8 275.584 563.8 276.588C563.8 278.093 563.172 279.348 561.6 280.1C560.029 280.853 558.143 281.355 555.315 281.355H544.315V263.792H554.686C557.201 263.792 559.4 264.294 560.657 265.046C561.915 265.799 562.857 267.054 562.857 268.308C562.857 269.061 562.543 270.064 562.229 270.566C561.915 271.068 560.972 271.821 560.029 272.072C560.972 272.573 561.915 273.075 562.857 273.828ZM548.401 266.301V271.068H554.058C555.629 271.068 556.572 270.817 557.201 270.566C557.829 270.064 558.458 269.563 558.458 268.81C558.458 268.057 558.143 267.305 557.201 267.054C556.572 266.552 555.315 266.552 554.058 266.552H548.401V266.301ZM559.715 276.337C559.715 274.581 558.143 273.828 555.001 273.828H548.401V278.846H555.001C558.143 278.846 559.715 277.842 559.715 276.337Z" fill="#DDF0FB"/>
<path d="M572.286 280.351C570.4 279.598 569.143 278.595 568.2 277.089C567.258 275.835 566.629 274.079 566.629 272.573C566.629 270.817 567.258 269.312 568.2 268.057C569.143 266.803 570.715 265.548 572.286 264.795C574.172 264.043 576.057 263.541 578.257 263.541C580.143 263.541 581.714 263.792 583.285 264.294C584.857 264.796 586.114 265.548 587.057 266.552L584.542 268.559C582.971 267.304 581.085 266.552 578.571 266.552C577 266.552 575.743 266.803 574.486 267.304C573.229 267.806 572.286 268.559 571.657 269.563C571.029 270.566 570.715 271.57 570.715 272.824C570.715 274.079 571.029 275.082 571.657 276.086C572.286 277.089 573.229 277.842 574.486 278.344C575.743 278.846 577 279.097 578.571 279.097C580.771 279.097 582.971 278.344 584.542 277.089L587.057 279.097C586.114 280.1 584.857 280.853 583.285 281.355C581.714 281.856 580.143 282.107 578.257 282.107C576.057 281.606 574.172 281.104 572.286 280.351Z" fill="#DDF0FB"/>
<path d="M506.918 262.789C504.718 262.789 502.833 262.287 501.262 261.534C499.376 260.531 496.233 257.771 498.433 250.997C501.262 243.47 498.747 236.946 491.833 233.685C485.548 230.674 475.806 230.674 467.006 237.448C466.378 237.95 465.435 237.95 464.806 237.448C464.178 236.946 464.178 236.194 464.806 235.692C473.291 229.169 484.605 227.663 493.405 231.678C501.576 235.441 504.404 242.968 501.262 251.749C500.319 254.509 499.69 258.022 502.833 259.527C505.976 261.283 512.261 260.029 516.975 257.018C522.318 253.756 524.518 248.989 522.318 244.473C522.003 243.721 522.318 243.219 523.26 242.968C524.203 242.717 524.832 242.968 525.146 243.721C527.66 249.24 525.146 255.011 518.861 259.025C515.089 261.534 510.69 262.789 506.918 262.789Z" fill="#DDF0FB"/>
<path d="M579.829 306.193C575.429 306.193 571.658 303.433 571.658 299.67C571.658 295.907 575.115 293.147 579.829 293.147C584.543 293.147 588 295.907 588 299.67C588 303.433 584.229 306.193 579.829 306.193ZM579.829 295.907C577 295.907 574.801 297.663 574.801 299.921C574.801 302.179 577 303.935 579.829 303.935C582.657 303.935 584.857 302.179 584.857 299.921C584.857 297.663 582.657 295.907 579.829 295.907Z" fill="#DDF0FB"/>
<path d="M530.488 228.918C527.346 228.918 524.831 226.911 524.831 224.402C524.831 221.893 527.346 219.886 530.488 219.886C533.631 219.886 536.145 221.893 536.145 224.402C536.145 226.66 533.631 228.918 530.488 228.918ZM530.488 221.391C528.603 221.391 527.031 222.646 527.031 224.151C527.031 225.656 528.603 226.911 530.488 226.911C532.374 226.911 533.945 225.656 533.945 224.151C533.945 222.646 532.374 221.391 530.488 221.391Z" fill="#DDF0FB"/>
<path d="M539.603 194.795L525.146 199.06L539.603 203.326V207.591L519.175 201.319V196.802L539.603 190.53V194.795Z" fill="#DDF0FB"/>
<path d="M554.687 214.365L540.545 182H546.516L560.658 214.365H554.687Z" fill="#DDF0FB"/>
<path d="M582.344 196.802V201.319L561.916 207.591V203.326L576.373 199.06L561.916 194.795V190.53L582.344 196.802Z" fill="#DDF0FB"/>
<path d="M582.344 114.258L570.716 117.52L566.316 126.803L562.231 117.52L550.603 114.258L562.545 110.746L566.316 101.462L570.716 110.996L582.344 114.258Z" fill="#DDF0FB"/>
<path d="M491.518 200.566L481.147 203.326L477.062 211.857L473.605 203.577L462.92 200.566L473.605 197.305L477.062 189.025L481.147 197.556L491.518 200.566Z" fill="#DDF0FB"/>
<path d="M472.662 136.086H483.662V166.445H507.232V173.47H472.662V136.086Z" fill="#DDF0FB"/>
<path d="M535.202 153.398H524.203L522.003 157.412H517.917L527.66 139.85H531.745L541.488 157.412H537.402L535.202 153.398ZM533.631 150.889L529.545 143.362L525.46 150.889H533.631Z" fill="#DDF0FB"/>
<path d="M562.858 149.885C563.486 150.638 563.8 151.642 563.8 152.645C563.8 154.151 563.172 155.405 561.6 156.158C560.029 156.911 558.143 157.412 555.315 157.412H544.316V139.85H554.686C557.201 139.85 559.401 140.351 560.658 141.104C561.915 141.857 562.858 143.111 562.858 144.366C562.858 145.118 562.543 146.122 562.229 146.624C561.915 147.126 560.972 147.878 560.029 148.129C560.972 148.631 561.915 149.133 562.858 149.885ZM548.401 142.609V147.376H554.058C555.629 147.376 556.572 147.126 557.201 146.875C557.829 146.373 558.458 145.871 558.458 145.118C558.458 144.366 558.143 143.613 557.201 143.362C556.572 142.86 555.315 142.86 554.058 142.86H548.401V142.609ZM559.715 152.394C559.715 150.638 558.143 149.885 555.001 149.885H548.401V154.903H555.001C558.143 154.903 559.715 154.151 559.715 152.394Z" fill="#DDF0FB"/>
<path d="M572.286 156.66C570.4 155.907 569.143 154.903 568.201 153.398C567.258 152.144 566.629 150.387 566.629 148.882C566.629 147.126 567.258 145.62 568.201 144.366C569.143 143.111 570.715 141.857 572.286 141.104C574.172 140.351 576.057 139.85 578.257 139.85C580.143 139.85 581.714 140.1 583.285 140.602C584.857 141.104 586.114 141.857 587.057 142.86L584.543 144.868C582.971 143.613 581.086 142.86 578.571 142.86C577 142.86 575.743 143.111 574.486 143.613C573.229 144.115 572.286 144.868 571.657 145.871C571.029 146.875 570.715 147.878 570.715 149.133C570.715 150.387 571.029 151.391 571.657 152.394C572.286 153.398 573.229 154.151 574.486 154.652C575.743 155.154 577 155.405 578.571 155.405C580.771 155.405 582.971 154.652 584.543 153.398L587.057 155.405C586.114 156.409 584.857 157.161 583.285 157.663C581.714 158.165 580.143 158.416 578.257 158.416C576.057 157.663 574.172 157.412 572.286 156.66Z" fill="#DDF0FB"/>
<path d="M506.918 138.846C504.718 138.846 502.833 138.344 501.262 137.591C499.376 136.588 496.233 133.828 498.433 127.054C501.262 119.527 498.747 113.003 491.833 109.742C485.548 106.731 475.806 106.731 467.006 113.505C466.378 114.007 465.435 114.007 464.806 113.505C464.178 113.003 464.178 112.251 464.806 111.749C473.291 105.226 484.605 103.72 493.405 107.735C501.576 111.498 504.404 119.025 501.262 127.806C500.319 130.566 499.69 134.079 502.833 135.584C505.976 137.34 512.261 136.086 516.975 133.075C522.318 129.813 524.518 125.046 522.318 120.53C522.003 119.778 522.318 119.276 523.26 119.025C524.203 118.774 524.832 119.025 525.146 119.778C527.66 125.297 525.146 131.068 518.861 135.082C515.089 137.591 510.69 138.846 506.918 138.846Z" fill="#DDF0FB"/>
<path d="M579.829 182.502C575.429 182.502 571.658 179.742 571.658 175.979C571.658 172.215 575.115 169.456 579.829 169.456C584.543 169.456 588 172.215 588 175.979C588 179.742 584.229 182.502 579.829 182.502ZM579.829 172.215C577.001 172.215 574.801 173.972 574.801 176.23C574.801 178.488 577.001 180.244 579.829 180.244C582.657 180.244 584.857 178.488 584.857 176.23C584.857 173.972 582.657 172.215 579.829 172.215Z" fill="#DDF0FB"/>
<path d="M530.488 104.975C527.346 104.975 524.832 102.968 524.832 100.459C524.832 97.9498 527.346 95.9426 530.488 95.9426C533.631 95.9426 536.145 97.9498 536.145 100.459C536.145 102.968 533.631 104.975 530.488 104.975ZM530.488 97.6989C528.603 97.6989 527.031 98.9534 527.031 100.459C527.031 101.964 528.603 103.219 530.488 103.219C532.374 103.219 533.945 101.964 533.945 100.459C533.945 98.9534 532.374 97.6989 530.488 97.6989Z" fill="#DDF0FB"/>
<path d="M539.603 71.1039L525.146 75.3691L539.603 79.6343V83.8996L519.175 77.6272V73.111L539.603 66.8386V71.1039Z" fill="#DDF0FB"/>
<path d="M554.687 90.6737L540.545 58.3081H546.516L560.658 90.6737H554.687Z" fill="#DDF0FB"/>
<path d="M582.344 72.86V77.3762L561.916 83.6486V79.3833L576.373 75.1181L561.916 70.8529V66.5876L582.344 72.86Z" fill="#DDF0FB"/>
<path d="M582.344 -9.68469L570.716 -6.42304L566.316 3.11101L562.23 -6.17215L550.602 -9.68469L562.545 -13.1972L566.316 -22.2295L570.716 -12.9463L582.344 -9.68469Z" fill="#DDF0FB"/>
<path d="M491.518 76.6236L481.147 79.6343L477.062 88.1648L473.605 79.8852L462.92 76.6236L473.605 73.6128L477.062 65.3333L481.147 73.6128L491.518 76.6236Z" fill="#DDF0FB"/>
<path d="M472.662 12.3945H483.662V42.753H507.232V49.778H472.662V12.3945Z" fill="#DDF0FB"/>
<path d="M535.202 29.7061H524.203L522.003 33.7204H517.917L527.66 16.1577H531.745L541.488 33.7204H537.402L535.202 29.7061ZM533.631 27.1971L529.545 19.6703L525.46 27.1971H533.631Z" fill="#DDF0FB"/>
<path d="M562.857 26.1936C563.486 26.9462 563.8 27.9498 563.8 28.9534C563.8 30.4588 563.172 31.7133 561.6 32.466C560.029 33.2186 558.143 33.7204 555.315 33.7204H544.315V16.1577H554.686C557.201 16.1577 559.4 16.6595 560.657 17.4122C561.915 18.1649 562.857 19.4194 562.857 20.6738C562.857 21.4265 562.543 22.4301 562.229 22.9319C561.915 23.4337 560.972 24.1864 560.029 24.4373C560.972 24.9391 561.915 25.4409 562.857 26.1936ZM548.401 18.6667V23.4337H554.058C555.629 23.4337 556.572 23.1828 557.201 22.9319C557.829 22.4301 558.458 21.9283 558.458 21.1756C558.458 20.4229 558.143 19.6703 557.201 19.4194C556.572 18.9176 555.315 18.9176 554.058 18.9176H548.401V18.6667ZM559.715 28.7025C559.715 26.9462 558.143 26.1936 555.001 26.1936H548.401V31.2115H555.001C558.143 31.2115 559.715 30.2079 559.715 28.7025Z" fill="#DDF0FB"/>
<path d="M572.286 32.7168C570.4 31.9641 569.143 30.9605 568.2 29.4551C567.258 28.2006 566.629 26.4444 566.629 24.939C566.629 23.1827 567.258 21.6773 568.2 20.4229C569.143 19.1684 570.715 17.9139 572.286 17.1612C574.172 16.4085 576.057 15.9067 578.257 15.9067C580.143 15.9067 581.714 16.1576 583.285 16.6594C584.857 17.1612 586.114 17.9139 587.057 18.9175L584.542 20.9247C582.971 19.6702 581.085 18.9175 578.571 18.9175C577 18.9175 575.743 19.1684 574.486 19.6702C573.229 20.172 572.286 20.9247 571.657 21.9282C571.029 22.9318 570.715 23.9354 570.715 25.1899C570.715 26.4444 571.029 27.448 571.657 28.4515C572.286 29.4551 573.229 30.2078 574.486 30.7096C575.743 31.2114 577 31.4623 578.571 31.4623C580.771 31.4623 582.971 30.7096 584.542 29.4551L587.057 31.4623C586.114 32.4659 584.857 33.2186 583.285 33.7204C581.714 34.2222 580.143 34.473 578.257 34.473C576.057 33.9713 574.172 33.4695 572.286 32.7168Z" fill="#DDF0FB"/>
<path d="M506.918 15.1539C504.718 15.1539 502.833 14.6521 501.262 13.8994C499.376 12.8958 496.233 10.1359 498.433 3.36175C501.262 -4.16513 498.747 -10.6884 491.833 -13.9501C485.548 -16.9608 475.806 -16.9608 467.006 -10.1866C466.378 -9.68484 465.435 -9.68484 464.806 -10.1866C464.178 -10.6884 464.178 -11.4411 464.806 -11.9429C473.291 -18.4662 484.605 -19.9716 493.405 -15.9572C501.576 -12.1938 504.404 -4.66692 501.262 4.11444C500.319 6.87429 499.69 10.3868 502.833 11.8922C505.976 13.6485 512.261 12.394 516.975 9.38325C522.318 6.1216 524.518 1.35458 522.318 -3.16155C522.003 -3.91424 522.318 -4.41603 523.26 -4.66692C524.203 -4.91782 524.832 -4.66692 525.146 -3.91424C527.66 1.60548 525.146 7.37609 518.861 11.3904C515.089 13.8994 510.69 15.1539 506.918 15.1539Z" fill="#DDF0FB"/>
<path d="M579.829 58.559C575.429 58.559 571.658 55.7992 571.658 52.0357C571.658 48.2723 575.115 45.5125 579.829 45.5125C584.543 45.5125 588 48.2723 588 52.0357C588 55.7992 584.229 58.559 579.829 58.559ZM579.829 48.2723C577.001 48.2723 574.801 50.0286 574.801 52.2866C574.801 54.5447 577.001 56.301 579.829 56.301C582.658 56.301 584.857 54.5447 584.857 52.2866C584.857 50.0286 582.658 48.2723 579.829 48.2723Z" fill="#DDF0FB"/>
<path d="M422.066 462L407.923 429.634H413.894L428.037 462H422.066Z" fill="#DDF0FB"/>
<path d="M450.035 361.892L438.407 364.903L434.008 374.437L429.922 365.154L417.98 361.892L429.922 358.38L434.008 349.096L438.407 358.38L450.035 361.892Z" fill="#DDF0FB"/>
<path d="M328.098 423.864L321.813 425.369L319.299 430.638L317.099 425.62L310.813 423.864L317.413 421.857L319.299 417.09L321.813 422.108L328.098 423.864Z" fill="#DDF0FB"/>
<path d="M340.355 383.72H351.355V414.079H374.925V421.104H340.355V383.72Z" fill="#DDF0FB"/>
<path d="M402.581 401.032H391.581L389.381 405.046H385.296L395.038 387.483H399.124L408.866 405.046H404.466L402.581 401.032ZM401.323 398.523L397.238 390.996L393.152 398.523H401.323Z" fill="#DDF0FB"/>
<path d="M430.236 397.519C430.865 398.272 431.179 399.275 431.179 400.279C431.179 401.784 430.55 403.039 428.979 403.792C427.408 404.544 425.522 405.046 422.694 405.046H411.694V387.483H422.065C424.579 387.483 426.779 387.985 428.036 388.738C429.293 389.491 430.236 390.745 430.236 391.999C430.236 392.752 429.922 393.756 429.608 394.258C429.293 394.759 428.351 395.512 427.408 395.763C428.665 396.265 429.608 396.767 430.236 397.519ZM416.094 390.243V395.01H421.751C423.322 395.01 424.265 394.759 424.894 394.508C425.522 394.007 426.151 393.505 426.151 392.752C426.151 392 425.836 391.247 424.894 390.996C424.265 390.494 423.008 390.494 421.751 390.494H416.094V390.243ZM427.408 400.028C427.408 398.272 425.836 397.519 422.694 397.519H416.094V402.537H422.694C425.836 402.537 427.408 401.784 427.408 400.028Z" fill="#DDF0FB"/>
<path d="M439.979 404.293C438.094 403.541 436.836 402.537 435.894 401.032C434.951 399.777 434.322 398.021 434.322 396.516C434.322 394.759 434.951 393.254 435.894 391.999C436.836 390.745 438.408 389.491 439.979 388.738C441.865 387.985 443.75 387.483 445.95 387.483C447.836 387.483 449.407 387.734 450.979 388.236C452.55 388.738 453.807 389.491 454.75 390.494L452.236 392.501C450.664 391.247 448.779 390.494 446.265 390.494C444.693 390.494 443.436 390.745 442.179 391.247C440.922 391.749 439.979 392.501 439.351 393.505C438.722 394.508 438.408 395.512 438.408 396.767C438.408 398.021 438.722 399.025 439.351 400.028C439.979 401.032 440.922 401.784 442.179 402.286C443.436 402.788 444.693 403.039 446.265 403.039C448.464 403.039 450.664 402.286 452.236 401.032L454.75 403.039C453.807 404.043 452.55 404.795 450.979 405.297C449.407 405.799 447.836 406.05 445.95 406.05C443.75 405.297 441.55 405.046 439.979 404.293Z" fill="#DDF0FB"/>
<path d="M374.296 386.481C372.096 386.481 370.211 385.979 368.639 385.226C366.754 384.223 363.611 381.463 365.811 374.689C368.639 367.162 366.125 360.638 359.211 357.377C352.926 354.366 343.184 354.366 334.384 361.14C333.755 361.642 332.813 361.642 332.184 361.14C331.556 360.638 331.556 359.886 332.184 359.384C340.669 352.861 351.983 351.355 360.783 355.37C368.954 359.133 371.782 366.66 368.639 375.441C367.697 378.201 367.068 381.714 370.211 383.219C373.353 384.975 379.639 383.721 384.353 380.71C389.696 377.448 391.895 372.681 389.696 368.165C389.381 367.413 389.696 366.911 390.638 366.66C391.581 366.409 392.21 366.66 392.524 367.413C395.038 372.932 392.524 378.703 386.239 382.717C382.782 385.226 378.382 386.481 374.296 386.481Z" fill="#DDF0FB"/>
<path d="M447.521 430.136C443.121 430.136 439.35 427.376 439.35 423.613C439.35 419.849 442.807 417.09 447.521 417.09C452.235 417.09 455.692 419.849 455.692 423.613C455.692 427.376 451.921 430.136 447.521 430.136ZM447.521 419.849C444.692 419.849 442.492 421.606 442.492 423.864C442.492 426.122 444.692 427.878 447.521 427.878C450.349 427.878 452.549 426.122 452.549 423.864C452.549 421.606 450.035 419.849 447.521 419.849Z" fill="#DDF0FB"/>
<path d="M318.671 392.502C315.528 392.502 313.014 390.495 313.014 387.986C313.014 385.477 315.528 383.47 318.671 383.47C321.813 383.47 324.328 385.477 324.328 387.986C324.328 390.495 321.813 392.502 318.671 392.502ZM318.671 385.226C316.785 385.226 315.214 386.48 315.214 387.986C315.214 389.491 316.785 390.746 318.671 390.746C320.556 390.746 322.128 389.491 322.128 387.986C322.128 386.48 320.556 385.226 318.671 385.226Z" fill="#DDF0FB"/>
<path d="M397.867 352.61C394.724 352.61 392.21 350.603 392.21 348.094C392.21 345.585 394.724 343.578 397.867 343.578C401.01 343.578 403.524 345.585 403.524 348.094C403.524 350.603 401.324 352.61 397.867 352.61ZM397.867 345.334C395.981 345.334 394.41 346.589 394.41 348.094C394.41 349.599 395.981 350.854 397.867 350.854C399.752 350.854 401.324 349.599 401.324 348.094C401.324 346.589 400.067 345.334 397.867 345.334Z" fill="#DDF0FB"/>
<path d="M266.816 462L252.674 429.634H258.645L272.787 462H266.816Z" fill="#DDF0FB"/>
<path d="M294.472 361.892L282.844 364.903L278.444 374.437L274.358 365.154L262.73 361.892L274.673 358.38L278.444 349.097L282.844 358.38L294.472 361.892Z" fill="#DDF0FB"/>
<path d="M172.535 423.864L166.249 425.369L164.049 430.638L161.849 425.62L155.564 423.864L161.849 421.857L164.049 417.09L166.249 422.108L172.535 423.864Z" fill="#DDF0FB"/>
<path d="M184.791 383.72H195.791V414.079H219.361V421.104H184.791V383.72Z" fill="#DDF0FB"/>
<path d="M247.331 401.032H236.331L234.131 405.046H230.046L239.788 387.483H243.874L253.616 405.046H249.216L247.331 401.032ZM245.759 398.523L241.674 390.996L237.588 398.523H245.759Z" fill="#DDF0FB"/>
<path d="M274.986 397.519C275.615 398.272 275.929 399.275 275.929 400.279C275.929 401.784 275.301 403.039 273.729 403.792C272.158 404.544 270.272 405.046 267.444 405.046H256.444V387.483H266.815C269.329 387.483 271.529 387.985 272.786 388.738C274.043 389.491 274.986 390.745 274.986 391.999C274.986 392.752 274.672 393.756 274.358 394.258C274.043 394.759 273.101 395.512 272.158 395.763C273.101 396.265 274.043 396.767 274.986 397.519ZM260.53 390.243V395.01H266.187C267.758 395.01 268.701 394.759 269.329 394.508C269.958 394.007 270.587 393.505 270.587 392.752C270.587 392 270.272 391.247 269.329 390.996C268.701 390.494 267.444 390.494 266.187 390.494H260.53V390.243ZM271.844 400.028C271.844 398.272 270.272 397.519 267.13 397.519H260.53V402.537H267.13C270.272 402.537 271.844 401.784 271.844 400.028Z" fill="#DDF0FB"/>
<path d="M284.415 404.293C282.529 403.541 281.272 402.537 280.329 401.032C279.386 399.777 278.758 398.021 278.758 396.516C278.758 394.759 279.386 393.254 280.329 391.999C281.272 390.745 282.843 389.491 284.415 388.738C286.3 387.985 288.186 387.483 290.386 387.483C292.271 387.483 293.843 387.734 295.414 388.236C296.985 388.738 298.242 389.491 299.185 390.494L296.671 392.501C295.1 391.247 293.214 390.494 290.7 390.494C289.129 390.494 287.872 390.745 286.614 391.247C285.357 391.749 284.415 392.501 283.786 393.505C283.157 394.508 282.843 395.512 282.843 396.767C282.843 398.021 283.157 399.025 283.786 400.028C284.415 401.032 285.357 401.784 286.614 402.286C287.872 402.788 289.129 403.039 290.7 403.039C292.9 403.039 295.1 402.286 296.671 401.032L299.185 403.039C298.242 404.043 296.985 404.795 295.414 405.297C293.843 405.799 292.271 406.05 290.386 406.05C288.186 405.297 286.3 405.046 284.415 404.293Z" fill="#DDF0FB"/>
<path d="M219.046 386.481C216.846 386.481 214.961 385.979 213.389 385.226C211.504 384.223 208.361 381.463 210.561 374.689C213.389 367.162 210.875 360.638 203.961 357.377C197.676 354.366 187.934 354.366 179.134 361.14C178.505 361.642 177.563 361.642 176.934 361.14C176.306 360.638 176.306 359.886 176.934 359.384C185.419 352.861 196.733 351.355 205.533 355.37C213.704 359.133 216.532 366.66 213.389 375.441C212.447 378.201 211.818 381.714 214.961 383.219C218.103 384.975 224.389 383.721 229.103 380.71C234.446 377.448 236.645 372.681 234.446 368.165C234.131 367.413 234.446 366.911 235.388 366.66C236.331 366.409 236.96 366.66 237.274 367.413C239.788 372.932 237.274 378.703 230.989 382.717C227.217 385.226 222.818 386.481 219.046 386.481Z" fill="#DDF0FB"/>
<path d="M291.958 430.136C287.558 430.136 283.787 427.376 283.787 423.613C283.787 419.849 287.244 417.09 291.958 417.09C296.672 417.09 300.129 419.849 300.129 423.613C300.129 427.376 296.357 430.136 291.958 430.136ZM291.958 419.849C289.129 419.849 286.929 421.606 286.929 423.864C286.929 426.122 289.129 427.878 291.958 427.878C294.786 427.878 296.986 426.122 296.986 423.864C296.986 421.606 294.472 419.849 291.958 419.849Z" fill="#DDF0FB"/>
<path d="M163.107 392.502C159.964 392.502 157.45 390.495 157.45 387.986C157.45 385.477 159.964 383.47 163.107 383.47C166.25 383.47 168.764 385.477 168.764 387.986C168.764 390.495 166.25 392.502 163.107 392.502ZM163.107 385.226C161.221 385.226 159.65 386.48 159.65 387.986C159.65 389.491 161.221 390.746 163.107 390.746C164.992 390.746 166.564 389.491 166.564 387.986C166.564 386.48 164.992 385.226 163.107 385.226Z" fill="#DDF0FB"/>
<path d="M242.617 352.61C239.474 352.61 236.96 350.603 236.96 348.094C236.96 345.585 239.474 343.578 242.617 343.578C245.759 343.578 248.273 345.585 248.273 348.094C248.273 350.603 245.759 352.61 242.617 352.61ZM242.617 345.334C240.731 345.334 239.16 346.589 239.16 348.094C239.16 349.599 240.731 350.854 242.617 350.854C244.502 350.854 246.074 349.599 246.074 348.094C246.074 346.589 244.502 345.334 242.617 345.334Z" fill="#DDF0FB"/>
<path d="M96.1673 318.739L81.7109 323.004L96.1673 327.269V331.534L75.7397 325.262V320.746L96.1673 314.473V318.739Z" fill="#DDF0FB"/>
<path d="M111.252 338.308L97.1101 305.943H103.081L117.223 338.308H111.252Z" fill="#DDF0FB"/>
<path d="M138.908 320.495V325.011L118.481 331.283V327.018L132.937 322.753L118.481 318.488V314.222L138.908 320.495Z" fill="#DDF0FB"/>
<path d="M138.908 237.95L127.594 241.211L123.194 250.745L118.794 241.462L107.166 237.95L119.109 234.437L123.194 225.405L127.28 234.688L138.908 237.95Z" fill="#DDF0FB"/>
<path d="M48.0834 324.258L37.7124 327.269L33.9412 335.799L30.1699 327.52L19.4847 324.258L30.1699 321.247L33.9412 312.968L37.7124 321.247L48.0834 324.258Z" fill="#DDF0FB"/>
<path d="M16.9706 299.921L10.9995 301.677L8.4853 306.695L6.28541 301.677L0 299.921L6.28541 298.164L8.4853 293.146L10.6852 298.164L16.9706 299.921Z" fill="#DDF0FB"/>
<path d="M29.2273 260.029H40.2268V290.387H63.797V297.413H29.2273V260.029Z" fill="#DDF0FB"/>
<path d="M91.7671 277.34H80.7676L78.5677 281.355H74.4822L84.2246 263.792H88.3101L98.0525 281.355H93.6527L91.7671 277.34ZM90.51 274.581L86.4245 267.054L82.3389 274.581H90.51Z" fill="#DDF0FB"/>
<path d="M119.422 273.828C120.051 274.581 120.365 275.584 120.365 276.588C120.365 278.093 119.737 279.348 118.165 280.1C116.594 280.853 114.708 281.355 111.88 281.355H100.88V263.792H111.251C113.766 263.792 115.965 264.294 117.223 265.046C118.48 265.799 119.422 267.054 119.422 268.308C119.422 269.061 119.108 270.064 118.794 270.566C118.48 271.068 117.537 271.821 116.594 272.072C117.851 272.573 118.794 273.075 119.422 273.828ZM104.966 266.301V271.068H110.623C112.194 271.068 113.137 270.817 113.766 270.566C114.394 270.064 115.023 269.563 115.023 268.81C115.023 268.057 114.708 267.305 113.766 267.054C113.137 266.552 111.88 266.552 110.623 266.552H104.966V266.301ZM116.28 276.337C116.28 274.581 114.708 273.828 111.566 273.828H104.966V278.846H111.566C114.708 278.846 116.28 277.842 116.28 276.337Z" fill="#DDF0FB"/>
<path d="M128.851 280.351C126.965 279.598 125.708 278.595 124.765 277.089C123.823 275.835 123.194 274.079 123.194 272.573C123.194 270.817 123.823 269.312 124.765 268.057C125.708 266.803 127.279 265.548 128.851 264.795C130.736 264.043 132.622 263.541 134.822 263.541C136.708 263.541 138.279 263.792 139.85 264.294C141.422 264.796 142.679 265.548 143.622 266.552L141.107 268.559C139.536 267.304 137.65 266.552 135.136 266.552C133.565 266.552 132.308 266.803 131.051 267.304C129.794 267.806 128.851 268.559 128.222 269.563C127.594 270.566 127.279 271.57 127.279 272.824C127.279 274.079 127.594 275.082 128.222 276.086C128.851 277.089 129.794 277.842 131.051 278.344C132.308 278.846 133.565 279.097 135.136 279.097C137.336 279.097 139.536 278.344 141.107 277.089L143.622 279.097C142.679 280.1 141.422 280.853 139.85 281.355C138.279 281.856 136.708 282.107 134.822 282.107C132.622 281.606 130.736 281.104 128.851 280.351Z" fill="#DDF0FB"/>
<path d="M63.4822 262.789C61.2823 262.789 59.3967 262.287 57.8253 261.534C55.9397 260.531 52.797 257.771 54.9969 250.997C57.8253 243.47 55.3112 236.946 48.3972 233.685C42.1118 230.674 32.3694 230.674 23.5699 237.448C22.9413 237.95 21.9985 237.95 21.37 237.448C20.7414 236.946 20.7414 236.194 21.37 235.692C29.8553 229.169 41.169 227.663 49.9686 231.678C58.1396 235.441 60.968 242.968 57.8253 251.749C56.8825 254.509 56.254 258.022 59.3967 259.527C62.5394 261.283 68.8248 260.029 73.5389 257.018C78.8815 253.756 81.0813 248.989 78.8815 244.473C78.5672 243.721 78.8815 243.219 79.8243 242.968C80.7671 242.717 81.3956 242.968 81.7099 243.721C84.2241 249.24 81.7099 255.011 75.4245 259.025C71.9675 261.534 67.2534 262.789 63.4822 262.789Z" fill="#DDF0FB"/>
<path d="M136.394 306.193C131.994 306.193 128.223 303.433 128.223 299.67C128.223 295.906 131.68 293.146 136.394 293.146C141.108 293.146 144.565 295.906 144.565 299.67C144.565 303.433 140.793 306.193 136.394 306.193ZM136.394 295.906C133.565 295.906 131.365 297.663 131.365 299.921C131.365 302.179 133.565 303.935 136.394 303.935C139.222 303.935 141.422 302.179 141.422 299.921C141.422 297.663 139.222 295.906 136.394 295.906Z" fill="#DDF0FB"/>
<path d="M7.54286 268.81C4.40015 268.81 1.88599 266.803 1.88599 264.294C1.88599 261.785 4.40015 259.778 7.54286 259.778C10.6856 259.778 13.1997 261.785 13.1997 264.294C13.514 266.803 10.6856 268.81 7.54286 268.81ZM7.54286 261.283C5.65723 261.283 4.08588 262.538 4.08588 264.043C4.08588 265.548 5.65723 266.803 7.54286 266.803C9.42848 266.803 10.9998 265.548 10.9998 264.043C10.9998 262.538 9.42848 261.283 7.54286 261.283Z" fill="#DDF0FB"/>
<path d="M87.0526 228.918C83.9099 228.918 81.3958 226.911 81.3958 224.402C81.3958 221.893 83.9099 219.885 87.0526 219.885C90.1953 219.885 92.7095 221.893 92.7095 224.402C92.7095 226.66 90.1953 228.918 87.0526 228.918ZM87.0526 221.391C85.167 221.391 83.5956 222.645 83.5956 224.151C83.5956 225.656 85.167 226.911 87.0526 226.911C88.9382 226.911 90.5096 225.656 90.5096 224.151C90.5096 222.645 88.9382 221.391 87.0526 221.391Z" fill="#DDF0FB"/>
<path d="M407.295 318.739L392.838 323.004L407.295 327.269V331.534L386.867 325.262V320.746L407.295 314.473V318.739Z" fill="#DDF0FB"/>
<path d="M422.066 338.308L407.923 305.943H413.894L428.037 338.308H422.066Z" fill="#DDF0FB"/>
<path d="M449.722 320.495V325.011L429.294 331.283V327.018L443.75 322.753L429.294 318.488V314.222L449.722 320.495Z" fill="#DDF0FB"/>
<path d="M450.035 237.95L438.407 241.211L434.008 250.745L429.922 241.462L417.98 237.95L429.922 234.437L434.008 225.405L438.407 234.688L450.035 237.95Z" fill="#DDF0FB"/>
<path d="M358.897 324.258L348.84 327.269L344.754 335.799L340.983 327.52L330.612 324.258L341.298 321.247L344.754 312.968L348.526 321.247L358.897 324.258Z" fill="#DDF0FB"/>
<path d="M328.098 299.921L321.813 301.677L319.299 306.695L317.099 301.677L310.813 299.921L317.413 298.164L319.299 293.146L321.813 298.164L328.098 299.921Z" fill="#DDF0FB"/>
<path d="M340.355 260.029H351.355V290.387H374.925V297.413H340.355V260.029Z" fill="#DDF0FB"/>
<path d="M402.581 277.34H391.581L389.381 281.355H385.296L395.038 263.792H399.124L408.866 281.355H404.466L402.581 277.34ZM401.323 274.581L397.238 267.054L393.152 274.581H401.323Z" fill="#DDF0FB"/>
<path d="M430.236 273.828C430.865 274.581 431.179 275.584 431.179 276.588C431.179 278.093 430.55 279.348 428.979 280.1C427.408 280.853 425.522 281.355 422.694 281.355H411.694V263.792H422.065C424.579 263.792 426.779 264.294 428.036 265.046C429.293 265.799 430.236 267.054 430.236 268.308C430.236 269.061 429.922 270.064 429.608 270.566C429.293 271.068 428.351 271.821 427.408 272.072C428.665 272.573 429.608 273.075 430.236 273.828ZM416.094 266.301V271.068H421.751C423.322 271.068 424.265 270.817 424.894 270.566C425.522 270.064 426.151 269.563 426.151 268.81C426.151 268.057 425.836 267.305 424.894 267.054C424.265 266.552 423.008 266.552 421.751 266.552H416.094V266.301ZM427.408 276.337C427.408 274.581 425.836 273.828 422.694 273.828H416.094V278.846H422.694C425.836 278.846 427.408 277.842 427.408 276.337Z" fill="#DDF0FB"/>
<path d="M439.979 280.351C438.094 279.598 436.836 278.595 435.894 277.089C434.951 275.835 434.322 274.079 434.322 272.573C434.322 270.817 434.951 269.312 435.894 268.057C436.836 266.803 438.408 265.548 439.979 264.795C441.865 264.043 443.75 263.541 445.95 263.541C447.836 263.541 449.407 263.792 450.979 264.294C452.55 264.796 453.807 265.548 454.75 266.552L452.236 268.559C450.664 267.304 448.779 266.552 446.265 266.552C444.693 266.552 443.436 266.803 442.179 267.304C440.922 267.806 439.979 268.559 439.351 269.563C438.722 270.566 438.408 271.57 438.408 272.824C438.408 274.079 438.722 275.082 439.351 276.086C439.979 277.089 440.922 277.842 442.179 278.344C443.436 278.846 444.693 279.097 446.265 279.097C448.464 279.097 450.664 278.344 452.236 277.089L454.75 279.097C453.807 280.1 452.55 280.853 450.979 281.355C449.407 281.856 447.836 282.107 445.95 282.107C443.75 281.606 441.55 281.104 439.979 280.351Z" fill="#DDF0FB"/>
<path d="M374.296 262.789C372.096 262.789 370.211 262.287 368.639 261.534C366.754 260.531 363.611 257.771 365.811 250.997C368.639 243.47 366.125 236.946 359.211 233.685C352.926 230.674 343.183 230.674 334.384 237.448C333.755 237.95 332.812 237.95 332.184 237.448C331.555 236.946 331.555 236.194 332.184 235.692C340.669 229.169 351.983 227.663 360.783 231.678C368.954 235.441 371.782 242.968 368.639 251.749C367.697 254.509 367.068 258.022 370.211 259.527C373.353 261.283 379.639 260.029 384.353 257.018C389.695 253.756 391.895 248.989 389.695 244.473C389.381 243.721 389.695 243.219 390.638 242.968C391.581 242.717 392.21 242.968 392.524 243.721C395.038 249.24 392.524 255.011 386.238 259.025C382.781 261.534 378.382 262.789 374.296 262.789Z" fill="#DDF0FB"/>
<path d="M447.521 306.193C443.121 306.193 439.35 303.433 439.35 299.67C439.35 295.906 442.807 293.146 447.521 293.146C452.235 293.146 455.692 295.906 455.692 299.67C455.692 303.433 451.921 306.193 447.521 306.193ZM447.521 295.906C444.692 295.906 442.493 297.663 442.493 299.921C442.493 302.179 444.692 303.935 447.521 303.935C450.349 303.935 452.549 302.179 452.549 299.921C452.549 297.663 450.035 295.906 447.521 295.906Z" fill="#DDF0FB"/>
<path d="M318.671 268.81C315.528 268.81 313.014 266.803 313.014 264.294C313.014 261.785 315.528 259.778 318.671 259.778C321.813 259.778 324.327 261.785 324.327 264.294C324.327 266.803 321.813 268.81 318.671 268.81ZM318.671 261.283C316.785 261.283 315.214 262.538 315.214 264.043C315.214 265.548 316.785 266.803 318.671 266.803C320.556 266.803 322.128 265.548 322.128 264.043C322.128 262.538 320.556 261.283 318.671 261.283Z" fill="#DDF0FB"/>
<path d="M397.867 228.918C394.724 228.918 392.21 226.911 392.21 224.402C392.21 221.893 394.724 219.885 397.867 219.885C401.009 219.885 403.524 221.893 403.524 224.402C403.838 226.66 401.324 228.918 397.867 228.918ZM397.867 221.391C395.981 221.391 394.41 222.645 394.41 224.151C394.41 225.656 395.981 226.911 397.867 226.911C399.752 226.911 401.324 225.656 401.324 224.151C401.638 222.645 400.067 221.391 397.867 221.391Z" fill="#DDF0FB"/>
<path d="M251.731 318.739L237.274 323.004L251.731 327.269V331.534L231.303 325.262V320.746L251.731 314.473V318.739Z" fill="#DDF0FB"/>
<path d="M266.816 338.308L252.674 305.943H258.645L272.787 338.308H266.816Z" fill="#DDF0FB"/>
<path d="M294.472 320.495V325.011L274.045 331.283V327.018L288.501 322.753L274.045 318.488V314.222L294.472 320.495Z" fill="#DDF0FB"/>
<path d="M294.472 237.95L282.844 241.211L278.444 250.745L274.358 241.462L262.73 237.95L274.673 234.437L278.444 225.405L282.844 234.688L294.472 237.95Z" fill="#DDF0FB"/>
<path d="M203.647 324.258L193.276 327.269L189.191 335.799L185.734 327.52L175.048 324.258L185.734 321.247L189.191 312.968L193.276 321.247L203.647 324.258Z" fill="#DDF0FB"/>
<path d="M172.535 299.921L166.249 301.677L164.049 306.695L161.849 301.677L155.564 299.921L161.849 298.164L164.049 293.146L166.249 298.164L172.535 299.921Z" fill="#DDF0FB"/>
<path d="M184.791 260.029H195.791V290.387H219.361V297.413H184.791V260.029Z" fill="#DDF0FB"/>
<path d="M247.331 277.34H236.331L234.131 281.355H230.046L239.788 263.792H243.874L253.616 281.355H249.216L247.331 277.34ZM245.759 274.581L241.674 267.054L237.588 274.581H245.759Z" fill="#DDF0FB"/>
<path d="M274.986 273.828C275.615 274.581 275.929 275.584 275.929 276.588C275.929 278.093 275.301 279.348 273.729 280.1C272.158 280.853 270.272 281.355 267.444 281.355H256.444V263.792H266.815C269.329 263.792 271.529 264.294 272.786 265.046C274.043 265.799 274.986 267.054 274.986 268.308C274.986 269.061 274.672 270.064 274.358 270.566C274.043 271.068 273.101 271.821 272.158 272.072C273.101 272.573 274.043 273.075 274.986 273.828ZM260.53 266.301V271.068H266.187C267.758 271.068 268.701 270.817 269.329 270.566C269.958 270.064 270.587 269.563 270.587 268.81C270.587 268.057 270.272 267.305 269.329 267.054C268.701 266.552 267.444 266.552 266.187 266.552H260.53V266.301ZM271.844 276.337C271.844 274.581 270.272 273.828 267.13 273.828H260.53V278.846H267.13C270.272 278.846 271.844 277.842 271.844 276.337Z" fill="#DDF0FB"/>
<path d="M284.415 280.351C282.529 279.598 281.272 278.595 280.329 277.089C279.386 275.835 278.758 274.079 278.758 272.573C278.758 270.817 279.386 269.312 280.329 268.057C281.272 266.803 282.843 265.548 284.415 264.795C286.3 264.043 288.186 263.541 290.386 263.541C292.271 263.541 293.843 263.792 295.414 264.294C296.985 264.796 298.242 265.548 299.185 266.552L296.671 268.559C295.1 267.304 293.214 266.552 290.7 266.552C289.129 266.552 287.872 266.803 286.614 267.304C285.357 267.806 284.415 268.559 283.786 269.563C283.157 270.566 282.843 271.57 282.843 272.824C282.843 274.079 283.157 275.082 283.786 276.086C284.415 277.089 285.357 277.842 286.614 278.344C287.872 278.846 289.129 279.097 290.7 279.097C292.9 279.097 295.1 278.344 296.671 277.089L299.185 279.097C298.242 280.1 296.985 280.853 295.414 281.355C293.843 281.856 292.271 282.107 290.386 282.107C288.186 281.606 286.3 281.104 284.415 280.351Z" fill="#DDF0FB"/>
<path d="M219.046 262.789C216.846 262.789 214.961 262.287 213.389 261.534C211.504 260.531 208.361 257.771 210.561 250.997C213.389 243.47 210.875 236.946 203.961 233.685C197.676 230.674 187.934 230.674 179.134 237.448C178.505 237.95 177.563 237.95 176.934 237.448C176.306 236.946 176.306 236.194 176.934 235.692C185.419 229.169 196.733 227.663 205.533 231.678C213.704 235.441 216.532 242.968 213.389 251.749C212.447 254.509 211.818 258.022 214.961 259.527C218.103 261.283 224.389 260.029 229.103 257.018C234.446 253.756 236.645 248.989 234.446 244.473C234.131 243.721 234.446 243.219 235.388 242.968C236.331 242.717 236.96 242.968 237.274 243.721C239.788 249.24 237.274 255.011 230.989 259.025C227.217 261.534 222.818 262.789 219.046 262.789Z" fill="#DDF0FB"/>
<path d="M291.957 306.193C287.558 306.193 283.786 303.433 283.786 299.67C283.786 295.906 287.243 293.146 291.957 293.146C296.671 293.146 300.128 295.906 300.128 299.67C300.128 303.433 296.357 306.193 291.957 306.193ZM291.957 295.906C289.129 295.906 286.929 297.663 286.929 299.921C286.929 302.179 289.129 303.935 291.957 303.935C294.786 303.935 296.986 302.179 296.986 299.921C296.986 297.663 294.472 295.906 291.957 295.906Z" fill="#DDF0FB"/>
<path d="M163.107 268.81C159.964 268.81 157.45 266.803 157.45 264.294C157.45 261.785 159.964 259.778 163.107 259.778C166.25 259.778 168.764 261.785 168.764 264.294C168.764 266.803 166.25 268.81 163.107 268.81ZM163.107 261.283C161.221 261.283 159.65 262.538 159.65 264.043C159.65 265.548 161.221 266.803 163.107 266.803C164.992 266.803 166.564 265.548 166.564 264.043C166.564 262.538 164.992 261.283 163.107 261.283Z" fill="#DDF0FB"/>
<path d="M242.617 228.918C239.474 228.918 236.96 226.911 236.96 224.402C236.96 221.893 239.474 219.886 242.617 219.886C245.759 219.886 248.273 221.893 248.273 224.402C248.273 226.66 245.759 228.918 242.617 228.918ZM242.617 221.391C240.731 221.391 239.16 222.646 239.16 224.151C239.16 225.656 240.731 226.911 242.617 226.911C244.502 226.911 246.074 225.656 246.074 224.151C246.074 222.646 244.502 221.391 242.617 221.391Z" fill="#DDF0FB"/>
<path d="M96.1673 194.795L81.7109 199.06L96.1673 203.326V207.591L75.7397 201.319V196.802L96.1673 190.53V194.795Z" fill="#DDF0FB"/>
<path d="M111.252 214.365L97.1101 182H103.081L117.223 214.365H111.252Z" fill="#DDF0FB"/>
<path d="M138.908 196.802V201.319L118.481 207.591V203.326L132.937 199.06L118.481 194.795V190.53L138.908 196.802Z" fill="#DDF0FB"/>
<path d="M138.908 114.258L127.594 117.52L123.194 126.803L118.794 117.52L107.166 114.258L119.109 110.746L123.194 101.462L127.28 110.996L138.908 114.258Z" fill="#DDF0FB"/>
<path d="M48.0834 200.566L37.7124 203.326L33.9412 211.857L30.1699 203.577L19.4847 200.566L30.1699 197.305L33.9412 189.025L37.7124 197.556L48.0834 200.566Z" fill="#DDF0FB"/>
<path d="M16.9706 176.23L10.9995 177.986L8.4853 183.004L6.28541 177.986L0 176.23L6.28541 174.222L8.4853 169.455L10.6852 174.473L16.9706 176.23Z" fill="#DDF0FB"/>
<path d="M29.2273 136.086H40.2268V166.445H63.797V173.47H29.2273V136.086Z" fill="#DDF0FB"/>
<path d="M91.7669 153.398H80.7675L78.5676 157.412H74.4821L84.2244 139.85H88.31L98.0523 157.412H93.6525L91.7669 153.398ZM90.5098 150.889L86.4243 143.362L82.3388 150.889H90.5098Z" fill="#DDF0FB"/>
<path d="M119.422 149.885C120.051 150.638 120.365 151.642 120.365 152.645C120.365 154.151 119.737 155.405 118.165 156.158C116.594 156.911 114.708 157.412 111.88 157.412H100.88V139.85H111.251C113.766 139.85 115.965 140.351 117.223 141.104C118.48 141.857 119.422 143.111 119.422 144.366C119.422 145.118 119.108 146.122 118.794 146.624C118.48 147.126 117.537 147.878 116.594 148.129C117.851 148.631 118.794 149.133 119.422 149.885ZM104.966 142.609V147.376H110.623C112.194 147.376 113.137 147.126 113.766 146.875C114.394 146.373 115.023 145.871 115.023 145.118C115.023 144.366 114.708 143.613 113.766 143.362C113.137 142.86 111.88 142.86 110.623 142.86H104.966V142.609ZM116.28 152.394C116.28 150.638 114.708 149.885 111.566 149.885H104.966V154.903H111.566C114.708 154.903 116.28 154.151 116.28 152.394Z" fill="#DDF0FB"/>
<path d="M128.851 156.66C126.965 155.907 125.708 154.903 124.765 153.398C123.823 152.144 123.194 150.387 123.194 148.882C123.194 147.126 123.823 145.62 124.765 144.366C125.708 143.111 127.279 141.857 128.851 141.104C130.736 140.351 132.622 139.85 134.822 139.85C136.708 139.85 138.279 140.1 139.85 140.602C141.422 141.104 142.679 141.857 143.622 142.86L141.107 144.868C139.536 143.362 137.336 142.609 135.136 142.609C133.565 142.609 132.308 142.86 131.051 143.362C129.794 143.864 128.851 144.617 128.222 145.62C127.594 146.624 127.279 147.627 127.279 148.882C127.279 150.136 127.594 151.14 128.222 152.144C128.851 153.147 129.794 153.9 131.051 154.402C132.308 154.903 133.565 155.154 135.136 155.154C137.336 155.154 139.536 154.402 141.107 153.147L143.622 155.154C142.679 156.158 141.422 156.911 139.85 157.412C138.279 157.914 136.708 158.165 134.822 158.165C132.622 157.663 130.736 157.412 128.851 156.66Z" fill="#DDF0FB"/>
<path d="M63.4823 138.846C61.2824 138.846 59.3968 138.344 57.8255 137.591C55.9398 136.588 52.7971 133.828 54.997 127.054C57.8255 119.527 55.3113 113.003 48.3973 109.742C42.1119 106.731 32.3696 106.731 23.57 113.505C22.9414 114.007 21.9986 114.007 21.3701 113.505C20.7415 113.003 20.7415 112.251 21.3701 111.749C29.8554 105.226 41.1691 103.72 49.9687 107.735C58.1397 111.498 60.9682 119.025 57.8255 127.806C56.8826 130.566 56.2541 134.079 59.3968 135.584C62.5395 137.34 68.8249 136.086 73.539 133.075C78.8816 129.813 81.0815 125.046 78.8816 120.53C78.5673 119.778 78.8816 119.276 79.8244 119.025C80.7672 118.774 81.3957 119.025 81.71 119.778C84.2242 125.297 81.71 131.068 75.4246 135.082C71.9676 137.591 67.2536 138.846 63.4823 138.846Z" fill="#DDF0FB"/>
<path d="M136.394 182.502C131.994 182.502 128.223 179.742 128.223 175.979C128.223 172.215 131.68 169.455 136.394 169.455C141.108 169.455 144.565 172.215 144.565 175.979C144.565 179.742 140.793 182.502 136.394 182.502ZM136.394 172.215C133.565 172.215 131.365 173.971 131.365 176.23C131.365 178.488 133.565 180.244 136.394 180.244C139.222 180.244 141.422 178.488 141.422 176.23C141.422 173.971 139.222 172.215 136.394 172.215Z" fill="#DDF0FB"/>
<path d="M7.54286 144.867C4.40015 144.867 1.88599 142.86 1.88599 140.351C1.88599 137.842 4.40015 135.834 7.54286 135.834C10.6856 135.834 13.1997 137.842 13.1997 140.351C13.514 142.86 10.6856 144.867 7.54286 144.867ZM7.54286 137.591C5.65723 137.591 4.08588 138.845 4.08588 140.351C4.08588 141.856 5.65723 143.11 7.54286 143.11C9.42848 143.11 10.9998 141.856 10.9998 140.351C10.9998 138.845 9.42848 137.591 7.54286 137.591Z" fill="#DDF0FB"/>
<path d="M87.0526 104.975C83.9099 104.975 81.3958 102.967 81.3958 100.459C81.3958 97.9495 83.9099 95.9424 87.0526 95.9424C90.1953 95.9424 92.7095 97.9495 92.7095 100.459C92.7095 102.967 90.1953 104.975 87.0526 104.975ZM87.0526 97.6986C85.167 97.6986 83.5956 98.9531 83.5956 100.459C83.5956 101.964 85.167 103.218 87.0526 103.218C88.9382 103.218 90.5096 101.964 90.5096 100.459C90.5096 98.9531 88.9382 97.6986 87.0526 97.6986Z" fill="#DDF0FB"/>
<path d="M407.295 194.795L392.838 199.06L407.295 203.326V207.591L386.867 201.319V196.802L407.295 190.53V194.795Z" fill="#DDF0FB"/>
<path d="M422.066 214.365L407.923 182H413.894L428.037 214.365H422.066Z" fill="#DDF0FB"/>
<path d="M449.722 196.802V201.319L429.294 207.591V203.326L443.75 199.06L429.294 194.795V190.53L449.722 196.802Z" fill="#DDF0FB"/>
<path d="M450.035 114.258L438.407 117.52L434.008 126.803L429.922 117.52L417.98 114.258L429.922 110.746L434.008 101.462L438.407 110.996L450.035 114.258Z" fill="#DDF0FB"/>
<path d="M358.897 200.566L348.84 203.326L344.755 211.857L340.983 203.577L330.612 200.566L341.298 197.305L344.755 189.025L348.526 197.556L358.897 200.566Z" fill="#DDF0FB"/>
<path d="M328.098 176.23L321.813 177.986L319.299 183.004L317.099 177.986L310.813 176.23L317.413 174.222L319.299 169.455L321.813 174.473L328.098 176.23Z" fill="#DDF0FB"/>
<path d="M340.355 136.086H351.355V166.445H374.925V173.47H340.355V136.086Z" fill="#DDF0FB"/>
<path d="M402.58 153.398H391.581L389.381 157.412H385.296L395.038 139.85H399.123L408.866 157.412H404.466L402.58 153.398ZM401.323 150.889L397.238 143.362L393.152 150.889H401.323Z" fill="#DDF0FB"/>
<path d="M430.236 149.885C430.865 150.638 431.179 151.642 431.179 152.645C431.179 154.151 430.55 155.405 428.979 156.158C427.408 156.911 425.522 157.412 422.694 157.412H411.694V139.85H422.065C424.579 139.85 426.779 140.351 428.036 141.104C429.293 141.857 430.236 143.111 430.236 144.366C430.236 145.118 429.922 146.122 429.608 146.624C429.293 147.126 428.351 147.878 427.408 148.129C428.665 148.631 429.608 149.133 430.236 149.885ZM416.094 142.609V147.376H421.751C423.322 147.376 424.265 147.126 424.894 146.875C425.522 146.373 426.151 145.871 426.151 145.118C426.151 144.366 425.836 143.613 424.894 143.362C424.265 142.86 423.008 142.86 421.751 142.86H416.094V142.609ZM427.408 152.394C427.408 150.638 425.836 149.885 422.694 149.885H416.094V154.903H422.694C425.836 154.903 427.408 154.151 427.408 152.394Z" fill="#DDF0FB"/>
<path d="M439.979 156.66C438.094 155.907 436.836 154.903 435.894 153.398C434.951 152.144 434.322 150.387 434.322 148.882C434.322 147.126 434.951 145.62 435.894 144.366C436.836 143.111 438.408 141.857 439.979 141.104C441.865 140.351 443.75 139.85 445.95 139.85C447.836 139.85 449.407 140.1 450.979 140.602C452.55 141.104 453.807 141.857 454.75 142.86L452.236 144.868C450.664 143.613 448.779 142.86 446.265 142.86C444.693 142.86 443.436 143.111 442.179 143.613C440.922 144.115 439.979 144.868 439.351 145.871C438.722 146.875 438.408 147.878 438.408 149.133C438.408 150.387 438.722 151.391 439.351 152.394C439.979 153.398 440.922 154.151 442.179 154.652C443.436 155.154 444.693 155.405 446.265 155.405C448.464 155.405 450.664 154.652 452.236 153.398L454.75 155.405C453.807 156.409 452.55 157.161 450.979 157.663C449.407 158.165 447.836 158.416 445.95 158.416C443.75 157.663 441.55 157.412 439.979 156.66Z" fill="#DDF0FB"/>
<path d="M374.296 138.846C372.096 138.846 370.211 138.344 368.639 137.591C366.754 136.588 363.611 133.828 365.811 127.054C368.639 119.527 366.125 113.003 359.211 109.742C352.926 106.731 343.183 106.731 334.384 113.505C333.755 114.007 332.812 114.007 332.184 113.505C331.555 113.003 331.555 112.251 332.184 111.749C340.669 105.226 351.983 103.72 360.783 107.735C368.954 111.498 371.782 119.025 368.639 127.806C367.697 130.566 367.068 134.079 370.211 135.584C373.353 137.34 379.639 136.086 384.353 133.075C389.695 129.813 391.895 125.046 389.695 120.53C389.381 119.778 389.695 119.276 390.638 119.025C391.581 118.774 392.21 119.025 392.524 119.778C395.038 125.297 392.524 131.068 386.238 135.082C382.781 137.591 378.382 138.846 374.296 138.846Z" fill="#DDF0FB"/>
<path d="M447.521 182.502C443.121 182.502 439.35 179.742 439.35 175.979C439.35 172.215 442.807 169.456 447.521 169.456C452.235 169.456 455.692 172.215 455.692 175.979C455.692 179.742 451.921 182.502 447.521 182.502ZM447.521 172.215C444.692 172.215 442.493 173.972 442.493 176.23C442.493 178.488 444.692 180.244 447.521 180.244C450.349 180.244 452.549 178.488 452.549 176.23C452.549 173.972 450.035 172.215 447.521 172.215Z" fill="#DDF0FB"/>
<path d="M318.671 144.868C315.528 144.868 313.014 142.861 313.014 140.352C313.014 137.843 315.528 135.835 318.671 135.835C321.813 135.835 324.327 137.843 324.327 140.352C324.327 142.861 321.813 144.868 318.671 144.868ZM318.671 137.592C316.785 137.592 315.214 138.846 315.214 140.352C315.214 141.857 316.785 143.111 318.671 143.111C320.556 143.111 322.128 141.857 322.128 140.352C322.128 138.846 320.556 137.592 318.671 137.592Z" fill="#DDF0FB"/>
<path d="M397.867 104.975C394.724 104.975 392.21 102.967 392.21 100.459C392.21 97.9495 394.724 95.9424 397.867 95.9424C401.009 95.9424 403.524 97.9495 403.524 100.459C403.838 102.967 401.324 104.975 397.867 104.975ZM397.867 97.6986C395.981 97.6986 394.41 98.9531 394.41 100.459C394.41 101.964 395.981 103.218 397.867 103.218C399.752 103.218 401.324 101.964 401.324 100.459C401.638 98.9531 400.067 97.6986 397.867 97.6986Z" fill="#DDF0FB"/>
<path d="M251.731 194.795L237.274 199.06L251.731 203.326V207.591L231.303 201.319V196.802L251.731 190.53V194.795Z" fill="#DDF0FB"/>
<path d="M266.816 214.365L252.674 182H258.645L272.787 214.365H266.816Z" fill="#DDF0FB"/>
<path d="M294.472 196.802V201.319L274.045 207.591V203.326L288.501 199.06L274.045 194.795V190.53L294.472 196.802Z" fill="#DDF0FB"/>
<path d="M294.472 114.258L282.844 117.52L278.444 126.803L274.358 117.52L262.73 114.258L274.673 110.746L278.444 101.462L282.844 110.996L294.472 114.258Z" fill="#DDF0FB"/>
<path d="M203.647 200.566L193.276 203.326L189.191 211.857L185.734 203.577L175.049 200.566L185.734 197.305L189.191 189.025L193.276 197.556L203.647 200.566Z" fill="#DDF0FB"/>
<path d="M172.535 176.23L166.249 177.986L164.049 183.004L161.849 177.986L155.564 176.23L161.849 174.222L164.049 169.455L166.249 174.473L172.535 176.23Z" fill="#DDF0FB"/>
<path d="M184.791 136.086H195.791V166.445H219.361V173.47H184.791V136.086Z" fill="#DDF0FB"/>
<path d="M247.33 153.398H236.331L234.131 157.412H230.046L239.788 139.85H243.873L253.616 157.412H249.216L247.33 153.398ZM245.759 150.889L241.674 143.362L237.588 150.889H245.759Z" fill="#DDF0FB"/>
<path d="M274.986 149.885C275.615 150.638 275.929 151.642 275.929 152.645C275.929 154.151 275.301 155.405 273.729 156.158C272.158 156.911 270.272 157.412 267.444 157.412H256.444V139.85H266.815C269.329 139.85 271.529 140.351 272.786 141.104C274.043 141.857 274.986 143.111 274.986 144.366C274.986 145.118 274.672 146.122 274.358 146.624C274.043 147.126 273.101 147.878 272.158 148.129C273.101 148.631 274.043 149.133 274.986 149.885ZM260.53 142.609V147.376H266.187C267.758 147.376 268.701 147.126 269.329 146.875C269.958 146.373 270.587 145.871 270.587 145.118C270.587 144.366 270.272 143.613 269.329 143.362C268.701 142.86 267.444 142.86 266.187 142.86H260.53V142.609ZM271.844 152.394C271.844 150.638 270.272 149.885 267.13 149.885H260.53V154.903H267.13C270.272 154.903 271.844 154.151 271.844 152.394Z" fill="#DDF0FB"/>
<path d="M284.415 156.66C282.529 155.907 281.272 154.903 280.329 153.398C279.386 152.144 278.758 150.387 278.758 148.882C278.758 147.126 279.386 145.62 280.329 144.366C281.272 143.111 282.843 141.857 284.415 141.104C286.3 140.351 288.186 139.85 290.386 139.85C292.271 139.85 293.843 140.1 295.414 140.602C296.985 141.104 298.242 141.857 299.185 142.86L296.671 144.868C295.1 143.613 293.214 142.86 290.7 142.86C289.129 142.86 287.872 143.111 286.614 143.613C285.357 144.115 284.415 144.868 283.786 145.871C283.157 146.624 282.843 147.627 282.843 148.631C282.843 149.885 283.157 150.889 283.786 151.893C284.415 152.896 285.357 153.649 286.614 154.151C287.872 154.652 289.129 154.903 290.7 154.903C292.9 154.903 295.1 154.151 296.671 152.896L299.185 154.903C298.242 155.907 296.985 156.66 295.414 157.161C293.843 157.663 292.271 157.663 290.386 157.663C288.186 157.663 286.3 157.412 284.415 156.66Z" fill="#DDF0FB"/>
<path d="M219.046 138.846C216.846 138.846 214.961 138.344 213.389 137.591C211.504 136.588 208.361 133.828 210.561 127.054C213.389 119.527 210.875 113.003 203.961 109.742C197.676 106.731 187.934 106.731 179.134 113.505C178.505 114.007 177.563 114.007 176.934 113.505C176.306 113.003 176.306 112.251 176.934 111.749C185.419 105.226 196.733 103.72 205.533 107.735C213.704 111.498 216.532 119.025 213.389 127.806C212.447 130.566 211.818 134.079 214.961 135.584C218.103 137.34 224.389 136.086 229.103 133.075C234.446 129.813 236.645 125.046 234.446 120.53C234.131 119.778 234.446 119.276 235.388 119.025C236.331 118.774 236.96 119.025 237.274 119.778C239.788 125.297 237.274 131.068 230.989 135.082C227.217 137.591 222.818 138.846 219.046 138.846Z" fill="#DDF0FB"/>
<path d="M291.957 182.502C287.558 182.502 283.786 179.742 283.786 175.979C283.786 172.215 287.243 169.455 291.957 169.455C296.671 169.455 300.128 172.215 300.128 175.979C300.128 179.742 296.357 182.502 291.957 182.502ZM291.957 172.215C289.129 172.215 286.929 173.971 286.929 176.23C286.929 178.488 289.129 180.244 291.957 180.244C294.786 180.244 296.986 178.488 296.986 176.23C296.986 173.971 294.472 172.215 291.957 172.215Z" fill="#DDF0FB"/>
<path d="M163.107 144.867C159.964 144.867 157.45 142.86 157.45 140.351C157.45 137.842 159.964 135.834 163.107 135.834C166.249 135.834 168.764 137.842 168.764 140.351C168.764 142.86 166.249 144.867 163.107 144.867ZM163.107 137.591C161.221 137.591 159.65 138.845 159.65 140.351C159.65 141.856 161.221 143.11 163.107 143.11C164.992 143.11 166.564 141.856 166.564 140.351C166.564 138.845 164.992 137.591 163.107 137.591Z" fill="#DDF0FB"/>
<path d="M242.617 104.975C239.474 104.975 236.96 102.968 236.96 100.459C236.96 97.9498 239.474 95.9426 242.617 95.9426C245.759 95.9426 248.273 97.9498 248.273 100.459C248.273 102.968 245.759 104.975 242.617 104.975ZM242.617 97.6989C240.731 97.6989 239.16 98.9534 239.16 100.459C239.16 101.964 240.731 103.219 242.617 103.219C244.502 103.219 246.074 101.964 246.074 100.459C246.074 98.9534 244.502 97.6989 242.617 97.6989Z" fill="#DDF0FB"/>
<path d="M96.1673 71.1038L81.7109 75.369L96.1673 79.6342V83.8995L75.7397 77.3762V72.86L96.1673 66.5876V71.1038Z" fill="#DDF0FB"/>
<path d="M111.252 90.6737L97.1101 58.3081H103.081L117.223 90.6737H111.252Z" fill="#DDF0FB"/>
<path d="M138.908 72.86V77.3762L118.481 83.6486V79.3833L132.937 75.1181L118.481 70.8529V66.5876L138.908 72.86Z" fill="#DDF0FB"/>
<path d="M138.908 -9.68469L127.594 -6.42304L123.194 3.11101L118.794 -6.17215L107.166 -9.68469L119.109 -13.1972L123.194 -22.2295L127.28 -12.9463L138.908 -9.68469Z" fill="#DDF0FB"/>
<path d="M48.0835 76.6233L37.7125 79.6341L33.9413 88.1645L30.1701 79.885L19.4849 76.6233L30.1701 73.6126L33.9413 65.333L37.7125 73.6126L48.0835 76.6233Z" fill="#DDF0FB"/>
<path d="M16.9706 52.2866L10.9995 54.0429L8.4853 59.0608L6.28541 54.2938L0 52.2866L6.28541 50.5304L8.4853 45.5125L10.6852 50.5304L16.9706 52.2866Z" fill="#DDF0FB"/>
<path d="M29.2274 12.3945H40.2269V42.753H63.7972V49.778H29.2274V12.3945Z" fill="#DDF0FB"/>
<path d="M91.7671 29.7061H80.7676L78.5677 33.7204H74.4822L84.2246 16.1577H88.3101L98.0525 33.7204H93.6527L91.7671 29.7061ZM90.51 27.1971L86.4245 19.6703L82.3389 27.1971H90.51Z" fill="#DDF0FB"/>
<path d="M119.422 26.1936C120.051 26.9462 120.365 27.9498 120.365 28.9534C120.365 30.4588 119.737 31.7133 118.165 32.466C116.594 33.2186 114.708 33.7204 111.88 33.7204H100.88V16.1577H111.251C113.766 16.1577 115.965 16.6595 117.223 17.4122C118.48 18.1649 119.422 19.4194 119.422 20.6738C119.422 21.4265 119.108 22.4301 118.794 22.9319C118.48 23.4337 117.537 24.1864 116.594 24.4373C117.851 24.9391 118.794 25.4409 119.422 26.1936ZM104.966 18.6667V23.4337H110.623C112.194 23.4337 113.137 23.1828 113.766 22.9319C114.394 22.4301 115.023 21.9283 115.023 21.1756C115.023 20.4229 114.708 19.6703 113.766 19.4194C113.137 18.9176 111.88 18.9176 110.623 18.9176H104.966V18.6667ZM116.28 28.7025C116.28 26.9462 114.708 26.1936 111.566 26.1936H104.966V31.2115H111.566C114.708 31.2115 116.28 30.2079 116.28 28.7025Z" fill="#DDF0FB"/>
<path d="M128.851 32.7168C126.965 31.9641 125.708 30.9605 124.765 29.4551C123.823 28.2006 123.194 26.4444 123.194 24.939C123.194 23.1827 123.823 21.6773 124.765 20.4229C125.708 19.1684 127.279 17.9139 128.851 17.1612C130.736 16.4085 132.622 15.9067 134.822 15.9067C136.708 15.9067 138.279 16.1576 139.85 16.6594C141.422 17.1612 142.679 17.9139 143.622 18.9175L141.107 20.9247C139.536 19.6702 137.65 18.9175 135.136 18.9175C133.565 18.9175 132.308 19.1684 131.051 19.6702C129.794 20.172 128.851 20.9247 128.222 21.9282C127.594 22.9318 127.279 23.9354 127.279 25.1899C127.279 26.4444 127.594 27.448 128.222 28.4515C128.851 29.4551 129.794 30.2078 131.051 30.7096C132.308 31.2114 133.565 31.4623 135.136 31.4623C137.336 31.4623 139.536 30.7096 141.107 29.4551L143.622 31.4623C142.679 32.4659 141.422 33.2186 139.85 33.7204C138.279 34.2222 136.708 34.473 134.822 34.473C132.622 33.9713 130.736 33.4695 128.851 32.7168Z" fill="#DDF0FB"/>
<path d="M63.4822 15.1539C61.2823 15.1539 59.3967 14.6521 57.8253 13.8994C55.9397 12.8958 52.797 10.1359 54.9969 3.36175C57.8253 -4.16513 55.3112 -10.6884 48.3972 -13.9501C42.1118 -16.9608 32.3694 -16.9608 23.5699 -10.1866C22.9413 -9.68484 21.9985 -9.68484 21.37 -10.1866C20.7414 -10.6884 20.7414 -11.4411 21.37 -11.9429C29.8553 -18.4662 41.169 -19.9716 49.9686 -15.9572C58.1396 -12.1938 60.968 -4.66692 57.8253 4.11444C56.8825 6.87429 56.254 10.3868 59.3967 11.8922C62.5394 13.6485 68.8248 12.394 73.5389 9.38325C78.8815 6.1216 81.0813 1.35458 78.8815 -3.16155C78.5672 -3.91424 78.8815 -4.41603 79.8243 -4.66692C80.7671 -4.91782 81.3956 -4.66692 81.7099 -3.91424C84.2241 1.60548 81.7099 7.37609 75.4245 11.3904C71.9675 13.8994 67.2534 15.1539 63.4822 15.1539Z" fill="#DDF0FB"/>
<path d="M136.394 58.559C131.994 58.559 128.223 55.7992 128.223 52.0357C128.223 48.2723 131.68 45.5125 136.394 45.5125C141.108 45.5125 144.565 48.7741 144.565 52.2866C144.565 55.7992 140.793 58.559 136.394 58.559ZM136.394 48.2723C133.565 48.2723 131.365 50.0286 131.365 52.2866C131.365 54.5447 133.565 56.301 136.394 56.301C139.222 56.301 141.422 54.5447 141.422 52.2866C141.422 50.0286 139.222 48.2723 136.394 48.2723Z" fill="#DDF0FB"/>
<path d="M7.54286 21.1756C4.40015 21.1756 1.88599 19.1684 1.88599 16.6594C1.88599 14.1505 4.40015 12.1433 7.54286 12.1433C10.6856 12.1433 13.1997 14.1505 13.1997 16.6594C13.514 19.1684 10.6856 21.1756 7.54286 21.1756ZM7.54286 13.8996C5.65723 13.8996 4.08588 15.1541 4.08588 16.6594C4.08588 18.1648 5.65723 19.4193 7.54286 19.4193C9.42848 19.4193 10.9998 18.1648 10.9998 16.6594C10.9998 15.1541 9.42848 13.8996 7.54286 13.8996Z" fill="#DDF0FB"/>
<path d="M407.294 71.1038L392.838 75.369L407.294 79.6342V83.8995L386.552 77.3762V72.86L406.98 66.5876V71.1038H407.294Z" fill="#DDF0FB"/>
<path d="M422.065 90.6737L407.923 58.3081H413.894L428.036 90.6737H422.065Z" fill="#DDF0FB"/>
<path d="M449.721 72.86V77.3762L429.294 83.6486V79.3833L443.75 75.1181L429.294 70.8529V66.5876L449.721 72.86Z" fill="#DDF0FB"/>
<path d="M450.035 -9.68469L438.407 -6.42304L434.008 3.11101L429.922 -6.17215L417.98 -9.68469L429.922 -13.1972L434.008 -22.2295L438.407 -12.9463L450.035 -9.68469Z" fill="#DDF0FB"/>
<path d="M358.897 76.6233L348.84 79.6341L344.755 88.1645L340.983 79.885L330.613 76.6233L341.298 73.6126L344.755 65.333L348.526 73.6126L358.897 76.6233Z" fill="#DDF0FB"/>
<path d="M328.098 52.2866L321.813 54.0429L319.299 59.0608L317.099 54.2938L310.813 52.2866L317.413 50.5304L319.299 45.5125L321.813 50.5304L328.098 52.2866Z" fill="#DDF0FB"/>
<path d="M340.355 12.3945H351.355V42.753H374.925V49.778H340.355V12.3945Z" fill="#DDF0FB"/>
<path d="M402.581 29.7061H391.581L389.381 33.7204H385.296L395.038 16.1577H399.124L408.866 33.7204H404.466L402.581 29.7061ZM401.323 27.1971L397.238 19.6703L393.152 27.1971H401.323Z" fill="#DDF0FB"/>
<path d="M430.236 26.1936C430.865 26.9462 431.179 27.9498 431.179 28.9534C431.179 30.4588 430.55 31.7133 428.979 32.466C427.408 33.2186 425.522 33.7204 422.694 33.7204H411.694V16.1577H422.065C424.579 16.1577 426.779 16.6595 428.036 17.4122C429.293 18.1649 430.236 19.4194 430.236 20.6738C430.236 21.4265 429.922 22.4301 429.608 22.9319C429.293 23.4337 428.351 24.1864 427.408 24.4373C428.665 24.9391 429.608 25.4409 430.236 26.1936ZM416.094 18.6667V23.4337H421.751C423.322 23.4337 424.265 23.1828 424.894 22.9319C425.522 22.4301 426.151 21.9283 426.151 21.1756C426.151 20.4229 425.836 19.6703 424.894 19.4194C424.265 18.9176 423.008 18.9176 421.751 18.9176H416.094V18.6667ZM427.408 28.7025C427.408 26.9462 425.836 26.1936 422.694 26.1936H416.094V31.2115H422.694C425.836 31.2115 427.408 30.2079 427.408 28.7025Z" fill="#DDF0FB"/>
<path d="M439.979 32.7168C438.094 31.9641 436.836 30.9605 435.894 29.4551C434.951 28.2006 434.322 26.4444 434.322 24.939C434.322 23.1827 434.951 21.6773 435.894 20.4229C436.836 19.1684 438.408 17.9139 439.979 17.1612C441.865 16.4085 443.75 15.9067 445.95 15.9067C447.836 15.9067 449.407 16.1576 450.979 16.6594C452.55 17.1612 453.807 17.9139 454.75 18.9175L452.236 20.9247C450.664 19.6702 448.779 18.9175 446.265 18.9175C444.693 18.9175 443.436 19.1684 442.179 19.6702C440.922 20.172 439.979 20.9247 439.351 21.9282C438.722 22.9318 438.408 23.9354 438.408 25.1899C438.408 26.4444 438.722 27.448 439.351 28.4515C439.979 29.4551 440.922 30.2078 442.179 30.7096C443.436 31.2114 444.693 31.4623 446.265 31.4623C448.464 31.4623 450.664 30.7096 452.236 29.4551L454.75 31.4623C453.807 32.4659 452.55 33.2186 450.979 33.7204C449.407 34.2222 447.836 34.473 445.95 34.473C443.75 33.9713 441.55 33.4695 439.979 32.7168Z" fill="#DDF0FB"/>
<path d="M374.296 15.1539C372.096 15.1539 370.211 14.6521 368.639 13.8994C366.754 12.8958 363.611 10.1359 365.811 3.36175C368.639 -4.16513 366.125 -10.6884 359.211 -13.9501C352.926 -16.9608 343.183 -16.9608 334.384 -10.1866C333.755 -9.68484 332.812 -9.68484 332.184 -10.1866C331.555 -10.6884 331.555 -11.4411 332.184 -11.9429C340.669 -18.4662 351.983 -19.9716 360.783 -15.9572C368.954 -12.1938 371.782 -4.66692 368.639 4.11444C367.697 6.87429 367.068 10.3868 370.211 11.8922C373.353 13.6485 379.639 12.394 384.353 9.38325C389.695 6.1216 391.895 1.35458 389.695 -3.16155C389.381 -3.91424 389.695 -4.41603 390.638 -4.66692C391.581 -4.91782 392.21 -4.66692 392.524 -3.91424C395.038 1.60548 392.524 7.37609 386.238 11.3904C382.781 13.8994 378.382 15.1539 374.296 15.1539Z" fill="#DDF0FB"/>
<path d="M447.521 58.559C443.121 58.559 439.35 55.7992 439.35 52.0357C439.35 48.2723 442.807 45.5125 447.521 45.5125C452.235 45.5125 455.692 48.2723 455.692 52.0357C455.692 55.7992 451.921 58.559 447.521 58.559ZM447.521 48.2723C444.692 48.2723 442.492 50.0286 442.492 52.2866C442.492 54.5447 444.692 56.301 447.521 56.301C450.349 56.301 452.549 54.5447 452.549 52.2866C452.549 50.0286 450.035 48.2723 447.521 48.2723Z" fill="#DDF0FB"/>
<path d="M318.671 21.1758C315.528 21.1758 313.014 19.1686 313.014 16.6597C313.014 14.1507 315.528 12.1436 318.671 12.1436C321.813 12.1436 324.328 14.1507 324.328 16.6597C324.328 19.1686 321.813 21.1758 318.671 21.1758ZM318.671 13.8998C316.785 13.8998 315.214 15.1543 315.214 16.6597C315.214 18.1651 316.785 19.4195 318.671 19.4195C320.556 19.4195 322.128 18.1651 322.128 16.6597C322.128 15.1543 320.556 13.8998 318.671 13.8998Z" fill="#DDF0FB"/>
<path d="M251.731 71.1038L237.274 75.369L251.731 79.6342V83.8995L231.303 77.3762V72.86L251.731 66.5876V71.1038Z" fill="#DDF0FB"/>
<path d="M266.816 90.6737L252.674 58.3081H258.645L272.787 90.6737H266.816Z" fill="#DDF0FB"/>
<path d="M294.472 72.86V77.3762L274.045 83.6486V79.3833L288.501 75.1181L274.045 70.8529V66.5876L294.472 72.86Z" fill="#DDF0FB"/>
<path d="M294.472 -9.68469L282.844 -6.42304L278.444 3.11101L274.358 -6.17215L262.73 -9.68469L274.673 -13.1972L278.444 -22.2295L282.844 -12.9463L294.472 -9.68469Z" fill="#DDF0FB"/>
<path d="M203.647 76.6233L193.276 79.6341L189.191 88.1645L185.734 79.885L175.048 76.6233L185.734 73.6126L189.191 65.333L193.276 73.6126L203.647 76.6233Z" fill="#DDF0FB"/>
<path d="M172.535 52.2866L166.249 54.0429L164.049 59.0608L161.849 54.2938L155.564 52.2866L161.849 50.5304L164.049 45.5125L166.249 50.5304L172.535 52.2866Z" fill="#DDF0FB"/>
<path d="M184.791 12.3945H195.791V42.753H219.361V49.778H184.791V12.3945Z" fill="#DDF0FB"/>
<path d="M247.331 29.7061H236.331L234.131 33.7204H230.046L239.788 16.1577H243.874L253.616 33.7204H249.216L247.331 29.7061ZM245.759 27.1971L241.674 19.6703L237.588 27.1971H245.759Z" fill="#DDF0FB"/>
<path d="M274.986 26.1936C275.615 26.9462 275.929 27.9498 275.929 28.9534C275.929 30.4588 275.301 31.7133 273.729 32.466C272.158 33.2186 270.272 33.7204 267.444 33.7204H256.444V16.1577H266.815C269.329 16.1577 271.529 16.6595 272.786 17.4122C274.043 18.1649 274.986 19.4194 274.986 20.6738C274.986 21.4265 274.672 22.4301 274.358 22.9319C274.043 23.4337 273.101 24.1864 272.158 24.4373C273.101 24.9391 274.043 25.4409 274.986 26.1936ZM260.53 18.6667V23.4337H266.187C267.758 23.4337 268.701 23.1828 269.329 22.9319C269.958 22.4301 270.587 21.9283 270.587 21.1756C270.587 20.4229 270.272 19.6703 269.329 19.4194C268.701 18.9176 267.444 18.9176 266.187 18.9176H260.53V18.6667ZM271.844 28.7025C271.844 26.9462 270.272 26.1936 267.13 26.1936H260.53V31.2115H267.13C270.272 31.2115 271.844 30.2079 271.844 28.7025Z" fill="#DDF0FB"/>
<path d="M284.415 32.7168C282.529 31.9641 281.272 30.9605 280.329 29.4551C279.386 28.2006 278.758 26.4444 278.758 24.939C278.758 23.1827 279.386 21.6773 280.329 20.4229C281.272 19.1684 282.843 17.9139 284.415 17.1612C286.3 16.4085 288.186 15.9067 290.386 15.9067C292.271 15.9067 293.843 16.1576 295.414 16.6594C296.985 17.1612 298.242 17.9139 299.185 18.9175L296.671 20.9247C295.1 19.6702 293.214 18.9175 290.7 18.9175C289.129 18.9175 287.872 19.1684 286.614 19.6702C285.357 20.172 284.415 20.9247 283.786 21.9282C283.157 22.9318 282.843 23.9354 282.843 25.1899C282.843 26.4444 283.157 27.448 283.786 28.4515C284.415 29.4551 285.357 30.2078 286.614 30.7096C287.872 31.2114 289.129 31.4623 290.7 31.4623C292.9 31.4623 295.1 30.7096 296.671 29.4551L299.185 31.4623C298.242 32.4659 296.985 33.2186 295.414 33.7204C293.843 34.2222 292.271 34.473 290.386 34.473C288.186 33.9713 286.3 33.4695 284.415 32.7168Z" fill="#DDF0FB"/>
<path d="M219.046 15.1539C216.846 15.1539 214.961 14.6521 213.389 13.8994C211.504 12.8958 208.361 10.1359 210.561 3.36175C213.389 -4.16513 210.875 -10.6884 203.961 -13.9501C197.676 -16.9608 187.934 -16.9608 179.134 -10.1866C178.505 -9.68484 177.563 -9.68484 176.934 -10.1866C176.306 -10.6884 176.306 -11.4411 176.934 -11.9429C185.419 -18.4662 196.733 -19.9716 205.533 -15.9572C213.704 -12.1938 216.532 -4.66692 213.389 4.11444C212.447 6.87429 211.818 10.3868 214.961 11.8922C218.103 13.6485 224.389 12.394 229.103 9.38325C234.446 6.1216 236.645 1.35458 234.446 -3.16155C234.131 -3.91424 234.446 -4.41603 235.388 -4.66692C236.331 -4.91782 236.96 -4.66692 237.274 -3.91424C239.788 1.60548 237.274 7.37609 230.989 11.3904C227.217 13.8994 222.818 15.1539 219.046 15.1539Z" fill="#DDF0FB"/>
<path d="M291.957 58.559C287.558 58.559 283.786 55.7992 283.786 52.0357C283.786 48.2723 287.243 45.5125 291.957 45.5125C296.671 45.5125 300.128 48.2723 300.128 52.0357C300.128 55.7992 296.357 58.559 291.957 58.559ZM291.957 48.2723C289.129 48.2723 286.929 50.0286 286.929 52.2866C286.929 54.5447 289.129 56.301 291.957 56.301C294.786 56.301 296.986 54.5447 296.986 52.2866C296.986 50.0286 294.472 48.2723 291.957 48.2723Z" fill="#DDF0FB"/>
<path d="M163.107 21.1756C159.964 21.1756 157.45 19.1684 157.45 16.6594C157.45 14.1505 159.964 12.1433 163.107 12.1433C166.25 12.1433 168.764 14.1505 168.764 16.6594C168.764 19.1684 166.25 21.1756 163.107 21.1756ZM163.107 13.8996C161.221 13.8996 159.65 15.1541 159.65 16.6594C159.65 18.1648 161.221 19.4193 163.107 19.4193C164.992 19.4193 166.564 18.1648 166.564 16.6594C166.564 15.1541 164.992 13.8996 163.107 13.8996Z" fill="#DDF0FB"/>
</g>
</svg>
