<svg width="1266" height="1690" viewBox="0 0 1266 1690" fill="none" xmlns="http://www.w3.org/2000/svg">
<path opacity="0.1" d="M56.0967 1214.5C54.5956 1214.5 50.6707 1215.4 43.8065 1218.76C34.1975 1223.48 25.7167 1239.57 15.7241 1261.85C4.69201 1286.45 6.21173 1305.11 4.53612 1322.45C0.909276 1359.97 7.35719 1389.34 14.8892 1398.93C23.0584 1409.34 36.186 1419.67 52.5916 1431.17C71.0814 1444.13 94.0077 1454.99 117.943 1464.93C142.44 1475.11 169.272 1480.72 194.626 1485.15C218.642 1489.34 250.019 1489.01 285.105 1487.97C314.373 1487.1 347.893 1476.09 399.056 1456.78C430.27 1444.99 469.892 1425.45 493.727 1415.29C523.093 1402.76 535.306 1402.37 547.949 1401.74C565.636 1400.87 614.806 1408.37 633.997 1419C672.787 1440.48 682.19 1464.8 700.997 1485.15C727.816 1514.16 732.295 1539.97 735.997 1553C747.453 1593.33 729.384 1626.74 718.189 1646.32C707.544 1664.95 678.188 1674.34 628.152 1681.86C579.648 1689.15 541.997 1686 522.997 1672.5C516.724 1668.04 500.997 1649.52 500.997 1642.5C500.997 1633 503.825 1624.76 507.997 1619.5C512.943 1613.26 520.562 1609.79 534.596 1604.42C554.99 1596.63 598.542 1595.43 648.031 1594.74C677.889 1594.33 709.76 1602.44 751.745 1614.14C771.92 1620.02 789.8 1625.79 801.202 1629.04C812.603 1632.28 816.984 1632.84 821.497 1633.42" stroke="#602B7A" stroke-width="7" stroke-linecap="round" stroke-dasharray="1 20"/>
<path opacity="0.1" d="M1261.66 782.5C1261.66 784.87 1261.66 810.786 1259.67 860.538C1258.67 885.653 1253.71 910.264 1248.46 932.816C1243.2 955.367 1236.8 975.053 1229.65 993.255C1215.97 1028.06 1204.03 1047.71 1192.58 1059.27C1170.93 1081.14 1149.79 1095.3 1131.52 1103.3C1118.48 1109.01 1097.09 1116.32 1053.75 1126.32C1010.41 1136.32 945.592 1148.34 869.535 1155.76C793.478 1163.19 708.149 1165.67 661.691 1166.73C610.245 1167.9 598.952 1165.68 586.423 1162.44C558.792 1155.3 539.168 1135.95 531.617 1125.97C527.998 1121.19 527.862 1110.61 528.146 1099.13C528.459 1086.48 544.768 1074.47 554.372 1067.77C563.554 1061.37 581.283 1062.09 592.073 1066.83C604.565 1072.32 609.049 1089.84 614.223 1104.12C619.333 1118.21 614.897 1138.72 609.896 1147.95C605.123 1156.76 589.721 1167.24 565.362 1183.42C508.095 1221.45 491.221 1222.63 481.065 1227.79C476.092 1230.79 471.423 1233.16 466.86 1234.35C464.496 1234.75 462.034 1234.75 459.497 1234.75" stroke="#602B7A" stroke-width="7" stroke-linecap="round" stroke-dasharray="1 20"/>
<path opacity="0.1" d="M432.497 3.5C432.497 5.00031 433.081 41.9323 434.908 100.582C436.487 151.277 460.54 191.718 501.64 239.961C531.479 274.986 574.114 278.173 598.869 279.74C629.279 281.666 620.647 217.376 615.413 209.391C609.293 200.054 582.815 179.841 570.944 178.553C561.037 177.478 552.505 180.04 545.165 184.774C527.316 196.286 528.407 226.878 528.416 272.892C528.42 296.936 540.013 311.275 552.109 327.942C562.575 342.362 595.537 367.072 622.735 394.226C643.528 414.984 644.364 483.783 640.712 519.203C638.933 536.458 616.387 548.111 598.182 556.091C588.381 560.387 574.382 560.445 562.057 558.728C557.485 558.091 557.428 553.576 559.727 550.537C572.792 533.27 611.746 538.475 632.771 540.165C640.486 540.785 652.036 546.579 679.064 560.824C728.552 588.476 765.141 608.3 796.661 624.008C822.809 637.561 869.571 662.446 925.497 692.5" stroke="#602B7A" stroke-width="7" stroke-linecap="round" stroke-linejoin="round" stroke-dasharray="1 20"/>
</svg>
