<svg width="1283" height="800" viewBox="0 0 1283 800" fill="none" xmlns="http://www.w3.org/2000/svg">
<path d="M28.4337 503.399C28.4337 503.399 325.352 263.1 511.648 294.493C697.944 325.886 831.515 451.559 1143.74 339.116C1455.96 226.673 1347.41 4.99962 1207.57 47.7531C1067.73 90.5066 1284.86 464.333 1654.51 220.343C2231.68 -160.65 2435.66 439.118 2110.49 646.602" stroke="#613182" stroke-width="2" stroke-miterlimit="10" stroke-linecap="round" stroke-dasharray="0.3 8"/>
<path d="M275.662 367.508C285.535 364.49 291.092 354.039 288.073 344.166C285.055 334.293 274.604 328.736 264.731 331.755C254.858 334.773 249.301 345.224 252.32 355.097C255.338 364.97 265.789 370.527 275.662 367.508Z" fill="#613182"/>
<path d="M999.929 389.624C1008.19 387.097 1012.85 378.348 1010.32 370.083C1007.79 361.818 999.044 357.166 990.779 359.693C982.513 362.22 977.861 370.969 980.388 379.234C982.915 387.499 991.664 392.151 999.929 389.624Z" fill="#613182"/>
<path d="M1271.94 51.2892C1275.89 52.7915 1280.32 50.8016 1281.82 46.8446C1283.32 42.8877 1281.33 38.4621 1277.38 36.9598C1273.42 35.4576 1268.99 37.4475 1267.49 41.4044C1265.99 45.3614 1267.98 49.7869 1271.94 51.2892Z" fill="#613182"/>
<path d="M342.557 305.667L309.058 315.909L319.299 349.408L352.798 339.166L342.557 305.667Z" stroke="#613182" stroke-width="1.92" stroke-miterlimit="10"/>
<path d="M1049.89 355.122L1029.33 361.409L1035.62 381.975L1056.18 375.687L1049.89 355.122Z" stroke="#613182" stroke-width="1.92" stroke-miterlimit="10"/>
</svg>
