<svg width="129" height="118" viewBox="0 0 129 118" fill="none" xmlns="http://www.w3.org/2000/svg">
<path d="M0.783513 117.843C0.470108 117.843 0 117.53 0 117.216C0 116.746 0.156717 116.433 0.626825 116.276C0.94023 116.276 27.1095 111.889 37.7653 107.031L39.1757 106.404C49.9882 101.546 62.0543 96.0616 73.3369 98.2555C78.8214 99.3524 83.5225 103.27 88.2236 107.188C93.5515 111.732 99.0361 116.433 105.618 116.433H128.183C128.653 116.433 128.966 116.746 128.966 117.216C128.966 117.687 128.653 118 128.183 118H105.618C98.4093 118 92.768 113.142 87.1267 108.441C82.4256 104.524 78.0379 100.763 73.0234 99.8225C62.2109 97.7854 50.3016 103.113 39.8025 107.971L38.3922 108.598C27.5797 113.456 2.03713 117.687 0.783513 117.843Z" fill="white"/>
<path d="M58.2927 110.321C58.136 110.321 57.8226 110.164 57.6659 110.008C57.3525 109.694 57.5093 109.224 57.8227 108.911L64.5609 103.426C63.7773 100.135 62.5237 97.4714 61.4268 94.8074C58.2927 87.5991 55.6288 81.4877 63.464 70.8319C63.7774 70.5185 64.2474 70.3618 64.5609 70.6752C64.8743 70.9886 65.031 71.4587 64.7176 71.7721C57.3525 81.8011 59.8598 87.2857 62.8371 94.1806C64.0907 97.0012 65.3444 99.9786 66.1279 103.583L66.2846 104.053L58.7629 110.164C58.6062 110.321 58.4495 110.321 58.2927 110.321Z" fill="#602B7A"/>
<path d="M83.3643 107.031C83.2076 107.031 83.2076 107.031 83.0509 107.031C82.5808 106.874 82.424 106.404 82.5807 105.934L85.8715 98.5693C77.0962 95.9053 72.7085 93.3981 71.2982 90.264C70.0446 87.2867 71.6116 84.1526 73.492 80.5485C75.059 77.4144 76.7828 73.967 77.5663 69.5793C77.5663 69.1092 78.0364 68.7958 78.5065 68.9525C78.9766 68.9525 79.29 69.4226 79.1333 69.8927C78.3498 74.5938 76.4693 78.3546 74.9023 81.332C73.1786 84.7794 71.7683 87.4434 72.8652 89.7939C73.9621 92.4579 78.6632 94.9651 87.2818 97.4724L88.0653 97.7858L84.1478 106.875C83.9911 106.875 83.6777 107.031 83.3643 107.031Z" fill="#602B7A"/>
<path d="M98.8784 49.6776C98.2516 90.4202 37.6077 90.4202 36.8242 49.6776C37.6077 8.93494 98.2516 8.93494 98.8784 49.6776Z" fill="#684B99"/>
<path d="M51.2412 46.7002C51.3979 62.3704 26.9523 62.3704 27.2657 46.7002C26.9523 31.0299 51.5546 31.0299 51.2412 46.7002Z" fill="white"/>
<path d="M39.1748 59.08C36.6676 59.08 34.1603 58.4532 32.1232 57.1995C28.3623 55.0057 26.3252 51.2448 26.3252 46.5438C26.3252 41.8427 28.3623 38.0818 32.1232 35.888C36.3542 33.3808 41.9955 33.3808 46.2265 35.888C49.9873 38.0818 52.0244 41.8427 52.0244 46.5438C52.0244 51.2448 49.9873 55.0057 46.2265 57.1995C44.1893 58.4532 41.6821 59.08 39.1748 59.08ZM39.1748 35.7313C36.981 35.7313 34.7872 36.2014 32.9067 37.2983C29.616 39.1787 27.8922 42.4695 27.8922 46.5438C27.8922 50.618 29.616 53.9088 32.9067 55.7892C36.6676 57.983 41.6821 57.983 45.4429 55.7892C48.7337 53.9088 50.4574 50.618 50.4574 46.5438C50.4574 42.4695 48.7337 39.1787 45.4429 37.2983C43.5625 36.2014 41.3687 35.7313 39.1748 35.7313Z" fill="#684B99"/>
<path d="M76.1572 46.7002C76.3139 62.3704 51.8683 62.3704 52.1817 46.7002C51.8683 31.0299 76.3139 31.0299 76.1572 46.7002Z" fill="white"/>
<path d="M64.0918 59.0797C61.5846 59.0797 59.0773 58.4529 57.0402 57.1993C53.2793 55.0055 51.2422 51.2446 51.2422 46.5435C51.2422 41.8425 53.2793 38.0816 57.0402 35.8878C61.2712 33.3805 66.9125 33.3805 71.1434 35.8878C74.9043 38.0816 76.9414 41.8425 76.9414 46.5435C76.9414 51.2446 74.9043 55.0055 71.1434 57.1993C68.9496 58.4529 66.5991 59.0797 64.0918 59.0797ZM64.0918 35.731C61.898 35.731 59.7042 36.2011 57.8237 37.2981C54.533 39.1785 52.8092 42.4693 52.8092 46.5435C52.8092 50.6178 54.533 53.9085 57.8237 55.789C61.5846 57.9828 66.5991 57.9828 70.3599 55.789C73.6507 53.9085 75.3744 50.6178 75.3744 46.5435C75.3744 42.4693 73.6507 39.1785 70.3599 37.2981C68.4795 36.2011 66.2857 35.731 64.0918 35.731Z" fill="#684B99"/>
<path d="M60.8009 71.459C51.0853 71.459 42.9368 66.9147 42.4667 66.6013C42.1532 66.4446 41.9966 65.9744 42.1533 65.5043C42.31 65.1909 42.7801 65.0342 43.2502 65.1909C43.4069 65.1909 57.04 72.7127 69.2628 68.4817C76.001 66.1312 81.1722 60.6466 84.463 52.1846C84.6197 51.7145 85.0898 51.5578 85.5599 51.7145C86.03 51.8712 86.1867 52.3413 86.03 52.8114C82.4259 61.7435 76.9412 67.5415 69.8896 70.0487C66.7556 70.9889 63.7782 71.459 60.8009 71.459Z" fill="white"/>
<path d="M53.904 20.6878C53.904 20.6878 20.683 18.964 44.0317 27.8961C67.3804 36.9848 87.9084 33.224 87.9084 33.224L53.904 20.6878Z" fill="#FFD631"/>
<path d="M77.253 34.9479C68.9478 34.9479 56.8817 33.851 43.8753 28.8365C35.5701 25.7025 34.7866 23.9788 35.1 22.7251C35.7268 19.4344 48.5764 19.7478 54.061 20.0612H54.2177L90.8861 33.6943L88.0655 34.1644C88.0655 34.1644 83.8345 34.9479 77.253 34.9479ZM48.263 21.3148C41.8382 21.3148 36.667 21.9416 36.5103 22.8818C36.5103 22.8818 36.5103 24.1354 44.3454 27.2695C61.8961 34.0077 78.0365 33.5376 84.618 32.9108L53.7476 21.4715C51.8672 21.4715 50.1434 21.3148 48.263 21.3148Z" fill="#602B7A"/>
<path d="M53.9043 21.1577C53.9043 21.1577 60.6425 27.8959 75.0592 33.8506C88.2222 39.1785 97.1542 38.8651 97.1542 38.8651C126.614 8.30812 59.3889 -21.3086 53.9043 21.1577Z" fill="#95C11F"/>
<path d="M87.4386 14.1066C85.8715 14.1066 76.6261 8.15194 75.8426 10.9726L71.925 20.5314C70.9848 22.5686 74.4323 23.0387 75.6859 23.6655C76.4694 26.4861 77.0962 26.7995 79.6034 25.2325C80.8571 25.5459 83.6777 27.583 84.4612 25.5459C84.3045 24.2923 90.2592 14.8901 87.4386 14.1066Z" fill="#684B99"/>
<path d="M89.4773 53.1245C89.1639 53.1245 88.8504 52.8111 88.6937 52.4977C88.0669 49.6771 86.97 48.1101 85.7164 47.7967C83.9927 47.3266 82.1123 49.0503 82.1123 49.0503C81.7989 49.3637 81.3287 49.3637 81.0153 49.0503C80.7019 48.7369 80.7019 48.2668 81.0153 47.9534C81.172 47.7966 83.5226 45.4461 86.1865 46.2296C88.067 46.6997 89.4773 48.7369 90.2608 52.1843C90.4175 52.6544 90.1041 52.9678 89.634 53.1245H89.4773Z" fill="white"/>
<path d="M32.7503 47.7971C32.5936 47.7971 32.4368 47.797 32.2801 47.6403C31.9667 47.4836 31.8101 47.0135 31.9668 46.5434C32.1235 46.3867 35.2575 40.7454 39.6452 40.9021C42.1524 40.9021 44.3462 42.7826 46.3834 46.23C46.5401 46.5434 46.3834 47.0135 46.07 47.3269C45.7566 47.4836 45.2865 47.3269 44.9731 47.0135C43.2493 44.0362 41.5256 42.4692 39.6452 42.4692C36.1977 42.4692 33.3771 47.3269 33.3771 47.3269C33.2204 47.6403 33.0637 47.7971 32.7503 47.7971Z" fill="#602B7A"/>
<path d="M57.509 47.7973C57.3523 47.7973 57.1957 47.7973 57.039 47.6406C56.7256 47.4839 56.5688 47.0138 56.7255 46.5437C56.8822 46.387 60.173 40.7457 64.404 40.9024C66.9112 40.9024 69.1051 42.7828 71.1422 46.2303C71.2989 46.5437 71.1422 47.0138 70.8288 47.3272C70.5154 47.4839 70.0453 47.3272 69.7319 47.0138C68.0082 44.0364 66.2844 42.4694 64.404 42.4694C60.9565 42.4694 58.1358 47.3272 58.1358 47.3272C57.9791 47.6406 57.8225 47.7973 57.509 47.7973Z" fill="#602B7A"/>
<path d="M84.7771 80.5482C82.1131 80.5482 78.1956 76.3172 76.6286 74.2801C76.3152 73.9667 76.3152 73.4966 76.7853 73.1832C77.0987 72.8697 77.5688 72.8697 77.8822 73.3398C81.643 77.8842 84.4637 79.2945 85.0905 78.9811C87.1276 77.8842 99.6638 68.7955 101.388 65.9748C102.641 64.0944 100.291 58.4531 98.4102 55.3191C98.2535 55.0056 98.2536 54.5355 98.7237 54.2221C99.0371 54.0654 99.5071 54.0654 99.8205 54.5355C100.291 55.4758 104.835 63.6243 102.641 66.7583C100.604 69.7357 87.9111 79.1378 85.7173 80.2348C85.5606 80.3915 85.2472 80.5482 84.7771 80.5482Z" fill="#602B7A"/>
<path d="M112.043 91.8307C108.909 94.808 90.2615 98.7256 89.6347 91.674C88.8512 83.8389 91.3584 49.0509 107.656 52.4984C114.394 53.9087 115.647 88.2265 112.043 91.8307Z" fill="#95C11F"/>
<path d="M97.3131 96.3749C95.4327 96.3749 93.5523 96.2182 92.2987 95.5914C89.7914 94.6512 89.0079 92.9275 88.8512 91.6739C88.3811 86.0326 89.478 62.3705 98.5668 54.0653C101.231 51.7147 104.365 50.7745 107.812 51.558C109.693 52.0281 111.26 54.2219 112.513 58.4529C115.334 68.3252 115.804 89.0099 112.67 92.144C110.476 94.3378 103.111 96.3749 97.3131 96.3749ZM105.462 53.125C103.268 53.125 101.387 53.9086 99.6637 55.4756C91.6718 62.6839 89.7914 84.6223 90.4182 91.6739C90.5749 92.9275 91.3584 93.711 92.7687 94.3378C97.9399 96.2182 109.379 93.3976 111.416 91.3604C113.767 89.0099 113.924 69.7355 110.946 59.2364C109.536 54.5354 108.126 53.5951 107.499 53.4384C106.715 53.125 106.088 53.125 105.462 53.125Z" fill="#602B7A"/>
<path d="M97.1556 95.1217C96.6855 95.1217 96.3721 94.8083 96.3721 94.3382C96.3721 93.5547 96.3721 73.3401 98.4092 64.5647C100.603 55.1626 110.162 56.2595 110.319 56.2595C110.789 56.2595 111.102 56.7296 110.945 57.1997C110.945 57.6698 110.475 57.9832 110.005 57.8265C109.692 57.8265 101.7 57.043 99.8195 65.0348C97.7824 73.6535 97.7824 94.1815 97.7824 94.3382C97.9391 94.8083 97.6257 95.1217 97.1556 95.1217Z" fill="#602B7A"/>
<path d="M100.917 56.5726C100.604 56.5726 100.29 56.2592 100.133 55.9458C99.9767 55.319 99.0365 49.9911 100.604 47.7973C101.074 47.1705 101.7 46.8571 102.327 46.8571C103.424 46.8571 104.521 47.1705 105.305 48.1107C106.872 49.8344 107.185 52.6551 106.872 54.0654C106.872 54.5355 106.402 54.8489 105.931 54.6922C105.461 54.6922 105.148 54.2221 105.305 53.752C105.461 52.655 105.148 50.3045 104.051 49.0509C103.581 48.5808 102.954 48.2674 102.327 48.2674C102.014 48.2674 101.857 48.4241 101.7 48.5808C100.76 49.8344 101.074 53.4386 101.544 55.4757C101.857 56.1025 101.544 56.4159 100.917 56.5726C101.074 56.5726 101.074 56.5726 100.917 56.5726Z" fill="#602B7A"/>
<path d="M101.858 76.6306C102.328 75.8471 111.103 73.1832 111.73 74.2801C112.357 75.377 112.2 89.3235 111.103 89.9503C110.163 90.5772 101.701 93.8679 101.231 92.9277C100.761 91.9875 100.761 78.3544 101.858 76.6306Z" fill="#602B7A"/>
<path d="M102.014 64.5647C101.7 65.1916 100.603 71.4597 101.7 71.6164C102.797 71.7731 110.476 70.5194 110.632 69.5792C110.789 68.639 111.416 63.1544 110.162 62.841C109.065 62.5276 102.014 64.5647 102.014 64.5647Z" fill="#602B7A"/>
<path d="M28.0498 95.592C22.8786 95.592 20.0579 95.4353 20.0579 95.4353C19.5878 95.4353 19.2744 94.9652 19.2744 94.6518C19.2744 94.1817 19.5878 93.8683 20.0579 93.8683C20.0579 93.8683 24.4456 94.1817 32.5941 94.025C46.384 93.7116 47.0108 73.9671 47.0108 73.8104C47.0108 73.3403 47.3242 73.0269 47.7943 73.0269C48.2644 73.0269 48.5778 73.3403 48.5778 73.8104C48.5778 73.9671 47.951 95.2786 32.7509 95.592C31.0271 95.592 29.4601 95.592 28.0498 95.592Z" fill="#602B7A"/>
<path d="M49.2048 86.6593L16.7673 82.5851C16.6106 82.5851 16.454 82.5851 16.2973 82.7418L5.01465 91.2037L41.5264 95.7481L49.5182 88.0697C49.9883 87.5996 49.8316 86.816 49.2048 86.6593Z" fill="#632A86"/>
<path d="M41.6828 93.5547L42.3096 93.0846L40.8993 92.9279L40.2725 93.398L41.6828 93.5547Z" fill="#DDF0FB"/>
<path d="M42.467 92.7703L43.2505 91.9868L41.9969 91.8301L41.3701 92.6136L42.467 92.7703Z" fill="#DDF0FB"/>
<path d="M45.6003 89.7933L46.3838 89.1665L45.1302 89.0098L44.3467 89.6366L45.6003 89.7933Z" fill="#DDF0FB"/>
<path d="M46.6979 88.8528L47.4815 88.226L46.0711 87.9126L45.4443 88.6961L46.6979 88.8528Z" fill="#DDF0FB"/>
<path d="M43.5636 91.8302L44.3471 91.0467L42.6234 90.89L41.8398 91.5168L43.5636 91.8302Z" fill="#DDF0FB"/>
<path d="M44.6601 90.734L45.2869 90.1072L43.0931 89.7938L42.3096 90.4206L44.6601 90.734Z" fill="#DDF0FB"/>
<path d="M41.0573 92.6137L41.8408 91.8302L40.5872 91.6735L39.8037 92.457L41.0573 92.6137Z" fill="#DDF0FB"/>
<path d="M44.0339 89.6366L44.8174 88.8531L43.4071 88.6964L42.7803 89.4799L44.0339 89.6366Z" fill="#DDF0FB"/>
<path d="M44.9743 88.6962L45.7578 87.9127L44.5042 87.756L43.7207 88.5395L44.9743 88.6962Z" fill="#DDF0FB"/>
<path d="M42.3098 89.4798L43.0933 88.6962L41.8397 88.5396L41.2129 89.3231L42.3098 89.4798Z" fill="#DDF0FB"/>
<path d="M43.4069 88.54L44.1904 87.7564L42.9368 87.5997L42.1533 88.3832L43.4069 88.54Z" fill="#DDF0FB"/>
<path d="M42.1529 91.517L42.9364 90.8902L41.056 90.7335L40.2725 91.3603L42.1529 91.517Z" fill="#DDF0FB"/>
<path d="M41.9975 90.4198L42.7811 89.793L40.5872 89.4796L39.8037 90.1064L41.9975 90.4198Z" fill="#DDF0FB"/>
<path d="M41.2125 68.0117L6.89464 63.7808C6.26783 63.7808 5.79769 64.2509 5.64099 64.8777L5.1709 91.2037L41.6826 95.7481L42.1527 69.422C42.3094 68.6385 41.8393 68.0117 41.2125 68.0117Z" fill="#602B7A"/>
<path d="M25.8558 76.9436L21.4681 76.4735C21.1547 76.4735 20.8413 76.7869 20.6846 77.1003V82.2715C20.6846 82.7416 20.8413 83.055 21.3114 83.055L22.565 83.2117L23.0351 84.1519C23.1918 84.3087 23.3485 84.3087 23.5052 84.1519L24.2888 83.3684L25.5424 83.5251C25.8558 83.5251 26.1692 83.2117 26.3259 82.8983V77.7271C26.4826 77.4137 26.1692 76.9436 25.8558 76.9436Z" fill="white"/>
</svg>
