<svg width="440" height="225" viewBox="0 0 440 225" fill="none" xmlns="http://www.w3.org/2000/svg">
<g clip-path="url(#clip0_320_113486)">
<path d="M144.716 90.4301C147.859 86.0883 138.565 75.6488 135.333 65.3862C130.439 49.8972 118.123 28.3377 100.613 33.9045C91.7983 36.7083 110.67 64.2429 104.025 68.6664C98.4729 72.3686 98.5028 77.6768 95.5396 78.7248C94.1478 79.2284 93.639 80.78 94.522 81.8825C99.7299 88.4293 111.208 102.149 115.324 97.2491C120.307 91.3148 137.039 101.006 144.716 90.4165V90.4301Z" fill="#602B7A"/>
<path d="M114.89 69.6872C115.144 69.6872 115.399 69.5647 115.534 69.347C115.743 69.0203 115.608 68.612 115.249 68.4214L106.165 63.6985C105.806 63.5079 105.357 63.6304 105.147 63.9571C104.938 64.2838 105.073 64.6921 105.432 64.8826L114.516 69.6056C114.636 69.66 114.755 69.7008 114.89 69.7008V69.6872Z" fill="white"/>
<path d="M114.351 64.066C114.606 64.066 114.86 63.9435 114.995 63.7258C115.204 63.3991 115.07 62.9908 114.71 62.8002L105.626 58.0773C105.267 57.8867 104.818 58.0092 104.609 58.3359C104.399 58.6625 104.534 59.0709 104.893 59.2614L113.977 63.9844C114.097 64.0388 114.217 64.0796 114.351 64.0796V64.066Z" fill="white"/>
<path d="M113.513 58.7034C113.768 58.7034 114.022 58.5809 114.157 58.3631C114.366 58.0364 114.232 57.6281 113.872 57.4375L104.788 52.7146C104.429 52.5241 103.965 52.6465 103.771 52.9732C103.561 53.2999 103.696 53.7082 104.055 53.8987L113.139 58.6217C113.259 58.6761 113.378 58.717 113.513 58.717V58.7034Z" fill="white"/>
<path d="M189.972 149.419C183.028 130.949 172.193 116.304 118.646 131.371C96.8566 137.496 71.939 149.419 71.939 149.419C71.939 149.419 127.296 100.08 125.59 92.989C123.69 85.1628 104.938 69.5648 101.047 69.9051C97.1409 70.2453 12.4812 148.072 15.145 166.338C18.2728 187.693 29.2126 196.935 62.6604 196.322C74.3634 196.104 159.128 189.095 168.945 184.644C187.203 176.369 195.389 163.806 189.972 149.419Z" fill="white"/>
<path d="M59.4578 197.03C60.5204 197.03 61.5829 197.03 62.6904 197.003C74.4084 196.785 159.337 189.762 169.289 185.257C188.266 176.655 196.078 163.506 190.69 149.202C183.731 130.704 172.986 115.379 118.437 130.718C102.169 135.291 84.0012 143.172 75.9049 146.833C88.6705 135.319 127.895 99.2771 126.339 92.8392C125.066 87.5583 117.045 80.0723 114.606 77.8946C110.864 74.56 103.816 68.9523 100.987 69.2245C97.8443 69.4967 59.9517 104.068 36.2763 131.14C20.9068 148.712 13.5587 160.58 14.4118 166.419C17.6892 188.795 29.5868 197.016 59.4578 197.016V197.03ZM189.268 149.637C194.446 163.425 187.113 175.647 168.616 184.032C158.799 188.482 74.3335 195.424 62.6605 195.642C27.2222 196.322 18.6919 185.365 15.8933 166.256C14.8158 158.879 28.9732 139.728 55.7315 112.33C77.0573 90.4982 98.9817 71.2117 101.182 70.5856C101.212 70.5856 101.226 70.5856 101.256 70.5856C104.399 70.5856 122.986 85.3397 124.872 93.1523C126.069 98.0794 93.5642 129.221 71.4302 148.943L67.7786 152.196L72.2982 150.032C72.5526 149.909 97.4103 138.068 118.871 132.025C172.133 117.039 182.564 131.807 189.268 149.651V149.637Z" fill="#602B7A"/>
<path d="M101.75 73.0491C97.6497 73.6752 43.4298 128.064 35.3933 138.503C27.3419 148.943 15.8335 158.647 17.8538 167.944C19.8592 177.253 24.1692 186.835 32.7893 190.075C41.4094 193.314 58.081 194.73 87.6677 191.341C117.269 187.951 155.581 187.761 169.559 181.473C183.537 175.185 200.926 159.9 182.205 137.755C158.35 109.553 76.4137 149.787 72.1485 152.141C62.9597 157.218 66.6861 150.454 68.7065 147.35C70.7268 144.247 93.4294 123.164 105.207 111.132C116.985 99.1002 124.019 96.7455 121.505 91.4509C118.99 86.1427 108.14 72.0556 101.75 73.0355V73.0491Z" fill="#DDF0FB"/>
<path d="M112.301 74.2877C112.301 74.2877 109.817 80.0314 107.377 81.3925C105.701 82.3317 102.439 75.6896 98.5776 75.1179C94.7165 74.5463 91.1996 73.9474 93.3097 71.8377C95.4199 69.7281 102.813 68.8842 104.938 67.6456C107.078 66.407 113.483 72.5047 112.301 74.2741V74.2877Z" fill="#602B7A"/>
<path d="M93.3097 36.8036C93.6839 31.6179 79.9456 26.718 71.55 19.2593C58.8742 7.98953 32.0112 -7.34983 24.7529 3.97434C20.0537 11.3106 50.284 29.7396 46.1086 36.1911C41.9333 42.6562 43.5645 47.3928 43.5645 47.3928C43.5645 47.3928 70.3527 63.3582 71.4602 55.9676C72.5676 48.5769 92.3819 49.4752 93.2948 36.8172L93.3097 36.8036Z" fill="#602B7A"/>
<path d="M55.7165 32.2712C56.1355 32.2712 56.4648 31.9717 56.4648 31.5906C56.4648 31.2095 56.1355 30.9101 55.7165 30.9101H45.2556V30.8965C44.8366 30.8965 44.5073 31.1959 44.5073 31.577C44.5073 31.9581 44.8366 32.2576 45.2556 32.2576H55.7165V32.2712Z" fill="white"/>
<path d="M52.1996 27.6299C52.6186 27.6299 52.9478 27.3304 52.9478 26.9493C52.9478 26.5682 52.6186 26.2688 52.1996 26.2688H41.7387V26.2552C41.3197 26.2552 40.9904 26.5546 40.9904 26.9357C40.9904 27.3168 41.3197 27.6163 41.7387 27.6163H52.1996V27.6299Z" fill="white"/>
<path d="M48.548 23.3425C48.967 23.3425 49.2963 23.0431 49.2963 22.662C49.2963 22.2809 48.967 21.9814 48.548 21.9814L38.0871 21.9542C37.6681 21.9542 37.3389 22.2537 37.3389 22.6348C37.3389 23.0159 37.6681 23.3153 38.0871 23.3153L48.548 23.3425Z" fill="white"/>
<path d="M189.583 140.286C170.936 122.905 157.736 112.983 105.641 132.31C82.3101 140.967 64.6658 151.529 51.9601 148.181C42.5319 145.69 78.5239 57.0292 73.8397 51.9796C69.1555 46.93 49.5058 37.4297 45.6148 37.7563C41.7088 38.0966 -1.79588 152.686 0.88295 170.965C4.01073 192.32 19.8143 200.092 53.2621 199.48C64.9651 199.262 166.985 199.384 182.594 186.931C198.203 174.477 200.238 150.209 189.613 140.3L189.583 140.286Z" fill="white"/>
<path d="M49.7004 200.174C50.8677 200.174 52.035 200.174 53.2472 200.147C54.2199 200.133 55.8212 200.119 57.9314 200.092C131.322 199.371 173.42 195.111 183.043 187.421C191.259 180.86 196.437 170.462 196.901 159.6C197.245 151.379 194.776 144.165 190.091 139.81C170.696 121.735 157.197 112.439 105.327 131.671C99.0864 133.985 93.3546 136.394 87.8174 138.721C72.9268 144.969 61.1639 149.909 52.1397 147.527C47.5752 146.316 57.7218 114.14 64.4413 92.8528C72.2683 68.0675 76.5783 53.9259 74.3784 51.544C69.8888 46.6986 49.9398 36.7355 45.51 37.0894C45.076 37.1302 44.7617 37.4297 44.5223 37.6883C39.015 43.9901 -2.55911 152.849 0.0897675 171.06C3.09784 191.626 17.5395 200.201 49.6704 200.201L49.7004 200.174ZM189.583 140.273L189.044 140.749C193.429 144.832 195.763 151.692 195.419 159.546C194.97 170.04 189.987 180.084 182.07 186.4C175.635 191.531 148.877 197.846 57.9164 198.731C55.7913 198.758 54.19 198.772 53.2172 198.786C19.5748 199.412 4.59439 191.313 1.6013 170.856C-1.07751 152.509 41.4245 42.207 45.8093 38.4096H45.8692C49.9847 38.4096 68.7664 47.5425 73.256 52.4015C75.0519 54.3479 68.6616 74.6007 63.0196 92.4581C52.2595 126.54 46.1386 147.337 51.7357 148.82C61.3136 151.352 73.3009 146.316 88.4609 139.946C93.9832 137.632 99.7 135.223 105.911 132.923C156.883 114.031 170.098 123.096 189.029 140.749L189.568 140.273H189.583Z" fill="#602B7A"/>
<path d="M149.206 124.43C162.046 125.464 182.175 130.841 189.972 149.419C197.769 168.012 186.769 182.493 176.832 186.699C166.91 190.919 133.896 194.008 91.2445 195.165C48.5929 196.308 31.2778 196.145 19.6347 190.932C7.99152 185.719 2.4543 173.538 4.59436 161.955C6.73444 150.372 42.906 41.7851 46.9916 40.601C52.6037 38.9677 71.939 50.8499 71.6697 54.2662C71.4003 57.6825 38.2517 145.023 48.3235 149.882C63.9026 157.382 127.356 122.674 149.191 124.43H149.206Z" fill="#DDF0FB"/>
<path d="M40.0776 44.412C40.0776 44.412 41.2598 41.2271 48.0242 43.5818C52.5588 45.1606 52.1846 35.4697 60.9095 36.79C65.8781 37.5522 47.6351 34.1223 47.6351 34.1223C47.6351 34.1223 35.7376 44.9292 40.0776 44.3984V44.412Z" fill="#602B7A"/>
<path d="M319.438 178.683C319.438 178.683 346.795 188.959 350.102 187.883C353.41 186.808 349.07 182.249 331.171 175.089C313.287 167.916 319.423 178.696 319.423 178.696L319.438 178.683Z" fill="white"/>
<path d="M349.534 188.618C349.878 188.618 350.147 188.591 350.357 188.523C351.629 188.101 351.853 187.312 351.868 186.89C352.018 183.242 339.163 177.539 331.485 174.463C324.601 171.7 320.366 171.224 318.555 172.98C316.535 174.926 318.555 178.587 318.78 179.009L318.899 179.227L319.154 179.322C323.494 180.956 344.221 188.632 349.534 188.632V188.618ZM321.818 173.293C323.479 173.293 326.247 173.851 330.887 175.702C346.376 181.908 350.432 185.624 350.387 186.835C350.387 186.89 350.387 187.067 349.863 187.244C347.678 187.938 330.498 182.085 319.992 178.165C319.468 177.145 318.63 174.899 319.648 173.919C319.962 173.619 320.59 173.306 321.818 173.306V173.293Z" fill="#602B7A"/>
<path d="M338.265 175.906C338.265 175.906 345.149 172.585 349.07 172.408C352.991 172.245 366.594 179.39 366.31 180.711C366.026 182.031 352.302 176.26 350.566 176.845C348.83 177.43 341.812 180.411 341.812 180.411" fill="white"/>
<path d="M365.816 181.582C366.13 181.582 366.385 181.527 366.564 181.432C366.819 181.296 366.983 181.092 367.043 180.833C367.133 180.37 366.819 179.976 366.564 179.703C364.559 177.607 353.245 171.714 349.189 171.714C349.13 171.714 349.085 171.714 349.025 171.714C344.984 171.891 338.19 175.144 337.906 175.293C337.546 175.47 337.397 175.879 337.591 176.219C337.786 176.546 338.235 176.682 338.609 176.505C338.669 176.478 345.388 173.252 349.1 173.088C352.452 172.925 362.12 178.002 364.873 180.098C363.347 179.758 360.638 178.873 358.678 178.233C353.604 176.573 351.27 175.879 350.297 176.205C348.546 176.791 341.767 179.662 341.482 179.785C341.108 179.948 340.944 180.343 341.123 180.683C341.303 181.024 341.737 181.173 342.111 181.01C342.186 180.983 349.13 178.043 350.821 177.471C351.554 177.321 355.535 178.642 358.169 179.499C362.404 180.887 364.619 181.568 365.801 181.568L365.816 181.582Z" fill="#602B7A"/>
<path d="M327.385 168.924C334.897 168.964 340.285 170.516 350.207 174.3C359.022 177.662 376.591 186.699 375.304 188.564C374.017 190.442 355.939 181.595 349.609 181.01C343.278 180.425 330.662 183.378 324.287 183.133C317.912 182.888 300.103 187.584 282.249 177.403L298.023 166.052C298.023 166.052 318.226 168.883 327.385 168.924Z" fill="white"/>
<path d="M374.511 189.517C375.229 189.517 375.678 189.326 375.948 188.931C376.082 188.727 376.217 188.401 376.053 187.938C374.96 184.807 357.346 176.287 350.506 173.674C340.539 169.876 335.137 168.284 327.4 168.243C318.406 168.202 298.352 165.398 298.157 165.371L297.828 165.33L280.962 177.471L281.86 177.988C296.197 186.168 310.444 184.889 318.974 184.127C321.129 183.936 322.985 183.759 324.257 183.814C327.31 183.936 331.62 183.351 336.17 182.739C341.138 182.072 346.271 181.377 349.549 181.677C352.377 181.935 357.989 184.045 362.943 185.91C369.288 188.292 372.73 189.517 374.526 189.517H374.511ZM374.586 188.237C373.434 188.401 367.717 186.25 363.511 184.658C358.229 182.67 352.751 180.615 349.698 180.329C346.241 180.003 341.003 180.711 335.945 181.391C331.47 181.99 327.235 182.562 324.317 182.453C322.94 182.398 321.114 182.562 318.825 182.766C310.683 183.501 297.155 184.698 283.566 177.321L298.247 166.759C300.881 167.127 318.914 169.563 327.385 169.604C334.868 169.645 340.15 171.21 349.923 174.926C359.531 178.587 373.628 186.223 374.586 188.224V188.237Z" fill="#602B7A"/>
<path d="M336.828 176.083C336.828 176.083 345.538 176.478 351.21 178.887C356.867 181.296 368.046 188.237 366.714 189.558C365.397 190.878 352.751 183.664 348.082 182.984C343.413 182.303 337.681 181.895 334.134 182.33" fill="white"/>
<path d="M366.175 190.388C366.669 190.388 367.013 190.265 367.268 190.007C367.522 189.748 367.627 189.408 367.537 189.027C366.998 186.522 356.014 180.18 351.524 178.261C345.792 175.824 337.232 175.402 336.873 175.389C336.469 175.348 336.11 175.661 336.095 176.028C336.08 176.41 336.394 176.723 336.798 176.736C336.888 176.736 345.433 177.145 350.896 179.486C356.403 181.827 365.098 187.393 366.011 189.081C364.948 189.013 360.982 187.271 358.034 185.964C354.308 184.317 350.462 182.616 348.202 182.289C344.116 181.691 337.95 181.16 334.029 181.636C333.625 181.691 333.326 182.031 333.386 182.398C333.446 182.766 333.805 183.052 334.224 182.984C337.307 182.602 342.694 182.861 347.962 183.623C349.998 183.923 353.919 185.651 357.376 187.176C362.135 189.285 364.739 190.361 366.175 190.361V190.388Z" fill="#602B7A"/>
<path d="M335.406 166.433C339.671 168.42 345.957 180.234 337.008 184.072C328.073 187.911 275.559 207.238 252.004 201.753C212.525 192.565 192.561 133.712 202.199 119.407C207.556 111.459 234.12 102.612 244.416 119.407C255.236 137.061 234.12 165.575 269.783 165.344C299.564 165.153 325.065 161.628 335.391 166.433H335.406Z" fill="white"/>
<path d="M261.806 203.4C287.846 203.4 329.136 188.196 337.322 184.685C340.524 183.31 342.246 180.847 342.29 177.553C342.365 172.789 338.774 167.236 335.736 165.834C328.477 162.472 314.275 163.084 296.302 163.874C288.265 164.228 279.151 164.623 269.783 164.677C269.648 164.677 269.513 164.677 269.379 164.677C261.432 164.677 255.985 163.207 252.737 160.185C248.083 155.844 248.322 148.616 248.577 140.953C248.831 133.413 249.085 125.628 245.075 119.081C240.181 111.091 232.159 109.281 226.308 109.172C215.638 109.009 204.877 114.126 201.555 119.054C196.901 125.968 198.846 142.464 206.299 159.165C216.476 181.976 233.491 198.146 251.809 202.406C254.742 203.087 258.125 203.386 261.806 203.386V203.4ZM335.062 167.045C337.427 168.148 340.884 173.034 340.809 177.539C340.764 180.316 339.372 182.317 336.693 183.46C327.43 187.434 275.455 206.517 252.183 201.099C234.315 196.948 217.673 181.078 207.676 158.661C200.507 142.587 198.472 126.226 202.812 119.761C205.85 115.243 216.266 110.411 226.263 110.533C231.725 110.642 239.208 112.316 243.758 119.734C247.574 125.954 247.32 133.549 247.065 140.899C246.796 148.861 246.556 156.374 251.645 161.125C255.236 164.473 261.222 166.12 269.783 166.024C279.181 165.97 288.31 165.562 296.361 165.221C314.125 164.446 328.148 163.833 335.047 167.032L335.062 167.045Z" fill="#602B7A"/>
<path d="M213.587 114.004C202.962 117.012 201.51 124.348 202.214 134.202C202.917 144.057 212.39 172.394 227.086 185.256C241.767 198.119 249.295 199.316 259.412 199.956C269.543 200.596 300.267 193.981 311.102 190.742C321.937 187.516 336.858 183.95 338.459 179.921C340.061 175.892 338.639 168.311 331.979 167.168C325.32 166.024 321.743 165.221 306.029 166.024C290.315 166.827 262.435 170.067 254.084 164.568C245.733 159.069 246.451 153.911 246.092 150.508C245.733 147.105 247.873 123.205 241.124 117.706C234.374 112.207 227.266 110.111 213.587 113.99V114.004Z" fill="#95C11F"/>
<path d="M256.344 88.7424C248.726 85.2172 221.833 101.06 201.376 114.97C180.918 128.881 152.423 109.444 135.168 115.964C117.913 122.484 117.509 194.757 138.775 201.154C160.041 207.551 247.813 197.357 267.358 174.245C286.903 151.134 283.955 129.234 279.391 115.964C274.826 102.693 256.329 88.7424 256.329 88.7424H256.344Z" fill="white"/>
<path d="M158.44 203.781C193.01 203.781 252.468 192.974 267.957 174.654C283.027 156.837 287.232 136.462 280.109 115.746C275.529 102.435 257.571 88.7696 256.808 88.1979L256.673 88.1163C247.499 83.8697 214.62 105.089 200.912 114.399C189.463 122.17 175.545 119.299 162.076 116.508C151.989 114.412 142.456 112.439 134.869 115.311C125.231 118.945 121.026 141.089 121.849 161.07C122.567 178.533 127.326 198.405 138.535 201.766C142.995 203.114 149.969 203.754 158.425 203.754L158.44 203.781ZM255.925 89.314C257.137 90.2395 274.377 103.633 278.687 116.168C285.661 136.435 281.531 156.374 266.775 173.837C258.334 183.814 235.302 192.661 203.575 198.091C176.787 202.678 149.64 203.699 139.014 200.501C130.379 197.901 124.228 182.412 123.346 161.043C122.433 138.653 127.626 119.544 135.453 116.59C142.606 113.895 151.9 115.814 161.762 117.856C174.917 120.578 189.822 123.668 201.824 115.515C229.376 96.7863 250.088 86.7552 255.94 89.314H255.925Z" fill="#602B7A"/>
<path d="M376.337 196.091H279.989C279.555 196.091 279.465 195.519 279.884 195.424L312.629 187.38C312.629 187.38 312.689 187.38 312.734 187.38L408.902 188.006C409.336 188.006 409.411 188.578 408.992 188.673L376.427 196.091C376.427 196.091 376.367 196.091 376.337 196.091Z" fill="#602B7A"/>
<path d="M439.955 81.1747L412.074 187.162C411.94 187.679 411.491 188.088 410.922 188.224L378.896 195.519C377.743 195.778 376.711 194.852 376.965 193.804L403.634 87.7488C403.768 87.2179 404.217 86.796 404.801 86.6735L438.054 79.4326C439.207 79.1876 440.239 80.1267 439.955 81.1611V81.1747Z" fill="#602B7A"/>
<path d="M327.355 188.986L312.689 193.709H369.123L375.14 188.986H327.355Z" fill="#DDF0FB"/>
<path d="M416.774 131.984L410.728 132.95C410.249 133.032 409.725 133.631 409.56 134.284L408.513 141.647C408.363 142.219 408.602 142.627 409.036 142.573L410.653 142.369L411.117 143.362C411.266 143.526 411.536 143.499 411.805 143.281L412.912 142.083L414.574 141.879C415.038 141.824 415.561 141.307 415.756 140.708L417.312 133.059C417.522 132.379 417.297 131.889 416.789 131.97L416.774 131.984Z" fill="white"/>
<path d="M146.662 198.663C136.53 196.921 129.167 189.653 126.249 170.856C123.331 152.06 127.222 119.925 137.862 118.128C148.502 116.331 176.907 125.274 191.633 122.143C206.359 118.999 231.74 92.2267 255.67 92.8937C279.6 93.5742 279.271 120.578 280.064 128.05C281.141 138.041 276.697 163.615 258.738 177.362C240.795 191.109 168.436 202.406 146.662 198.677V198.663Z" fill="#95C11F"/>
<path d="M267.134 123.532C261.911 123.014 217.074 114.113 212.914 92.5533C210.25 78.7928 217.658 11.8278 271.923 15.6524C310.13 18.3473 313.422 73.893 311.985 89.0009C309.741 112.52 281.77 121.544 281.77 121.544C281.77 121.544 273.165 124.13 267.149 123.532H267.134Z" fill="white"/>
<path d="M269.094 124.307C274.886 124.307 281.68 122.293 282.009 122.198C282.309 122.102 310.474 112.752 312.734 89.069C313.991 75.9074 311.476 43.2551 295.658 26.296C289.268 19.4498 281.306 15.6388 271.983 14.9855C256.299 13.8694 243.144 18.5243 232.893 28.7732C213.423 48.2775 210.175 82.3861 212.166 92.6759C216.341 114.317 260.519 123.559 267.044 124.212C267.702 124.28 268.376 124.307 269.079 124.307H269.094ZM267.553 16.1832C268.975 16.1832 270.411 16.2377 271.878 16.3329C280.782 16.959 288.4 20.6067 294.521 27.1671C310.04 43.8131 312.494 75.9754 311.252 88.9465C309.067 111.745 281.8 120.809 281.531 120.905C281.456 120.918 273.015 123.436 267.239 122.851C264.335 122.565 251.974 120.142 239.956 115.311C229.136 110.955 215.802 103.456 213.677 92.4445C211.791 82.6719 215.189 48.5769 234.03 29.6851C242.979 20.7156 254.248 16.1832 267.553 16.1832Z" fill="#602B7A"/>
<path d="M292.68 112.085C299.295 107.131 309.98 94.1458 308.932 81.4198C307.271 61.1669 302.782 17.9118 272.551 17.9118C234.629 17.9118 225.694 45.4737 221.624 61.5072C214.126 91.0017 212.674 109.567 264.904 121.109C276.023 123.572 288.834 114.97 292.665 112.098L292.68 112.085Z" fill="#95C11F"/>
<path d="M298.651 47.2158C299.07 47.2158 299.399 46.9164 299.399 46.5353C299.399 43.1326 298.621 39.7979 298.591 39.6482C298.501 39.2807 298.112 39.0494 297.708 39.131C297.304 39.2127 297.05 39.5666 297.14 39.9341C297.14 39.9613 297.918 43.2823 297.918 46.5353C297.918 46.9164 298.247 47.2158 298.666 47.2158H298.651Z" fill="#602B7A"/>
<path d="M280.737 117.556C280.842 117.556 280.962 117.529 281.067 117.488C315.951 102.231 299.295 56.2806 299.13 55.8179C298.995 55.464 298.576 55.2734 298.187 55.3959C297.798 55.5184 297.588 55.8995 297.723 56.2534C297.888 56.7026 314.125 101.523 280.423 116.263C280.049 116.427 279.899 116.835 280.079 117.175C280.214 117.42 280.468 117.556 280.752 117.556H280.737Z" fill="#602B7A"/>
<path d="M272.462 26.9493H272.476C284.916 26.9493 295 36.1204 295 47.4336V84.0466C295 95.3597 284.916 104.531 272.476 104.531H272.462C260.022 104.531 249.938 95.3597 249.938 84.0466V47.4336C249.938 36.1204 260.022 26.9493 272.462 26.9493Z" fill="white"/>
<path d="M272.461 105.211C285.302 105.211 295.733 95.7111 295.733 84.0466V47.4472C295.733 35.7691 285.287 26.2824 272.461 26.2824C259.636 26.2824 249.19 35.7827 249.19 47.4472V84.0466C249.19 95.7247 259.636 105.211 272.461 105.211ZM272.461 27.6299C284.464 27.6299 294.236 36.5177 294.236 47.4336V84.033C294.236 94.9625 284.464 103.837 272.461 103.837C260.459 103.837 250.687 94.9488 250.687 84.033V47.4336C250.687 36.5041 260.459 27.6299 272.461 27.6299Z" fill="#602B7A"/>
<path d="M277.49 79.6912H285.302L281.516 65.3182C281.426 64.9507 281.022 64.7193 280.618 64.8146C280.214 64.8962 279.974 65.2637 280.064 65.6312L283.416 78.3301H277.505C277.086 78.3301 276.757 78.6295 276.757 79.0106C276.757 79.3917 277.086 79.6912 277.505 79.6912H277.49Z" fill="#602B7A"/>
<path d="M249.938 47.1206C249.938 47.1206 252.782 47.4608 256.882 47.8828C263.123 48.5225 272.237 49.3255 278.597 49.3255C288.909 49.3255 294.985 47.1069 294.985 47.1069C294.985 47.1069 306.254 19.8037 271.923 20.144C238.759 20.4842 249.938 47.1069 249.938 47.1069V47.1206Z" fill="#602B7A"/>
<path d="M256.882 47.8828C256.882 47.8828 286.694 56.6073 308.289 54.7018C329.884 52.7826 294.985 47.1205 294.985 47.1205C294.985 47.1205 288.909 49.3391 278.597 49.3391C272.237 49.3391 263.123 48.5361 256.882 47.8964V47.8828Z" fill="#FFD631"/>
<path d="M301.794 55.6545C304.039 55.6545 306.239 55.5728 308.364 55.3823C314.709 54.8243 316.041 53.9804 316.086 52.8915C316.191 50.4007 304.742 48.0189 295.119 46.4536L294.91 46.4128L294.715 46.4808C294.715 46.4808 288.624 48.645 278.612 48.645C271.908 48.645 262.18 47.7466 256.987 47.2022H252.213L256.658 48.5225C256.927 48.6041 281.261 55.6409 301.809 55.6409L301.794 55.6545ZM314.544 52.8235C314.29 53.014 313.153 53.5993 308.214 54.0348C293.892 55.3006 275.724 51.789 265.353 49.3663C269.798 49.7202 274.691 50.0333 278.597 50.0333C288.011 50.0333 293.892 48.2366 295.059 47.8419C303.859 49.2847 313.587 51.5577 314.544 52.8371V52.8235Z" fill="#602B7A"/>
<path d="M280.737 117.556C281.111 117.556 281.426 117.311 281.486 116.958C281.531 116.59 281.246 116.25 280.842 116.195C280.528 116.154 249.519 112.262 243.952 84.8224C240.331 66.9106 248.098 39.0357 248.187 38.7499C248.292 38.3824 248.053 38.0149 247.649 37.9196C247.245 37.8244 246.841 38.0421 246.736 38.4096C246.661 38.6955 238.789 66.8562 242.486 85.0674C248.247 113.5 280.333 117.502 280.663 117.543C280.692 117.543 280.722 117.543 280.752 117.543L280.737 117.556Z" fill="#602B7A"/>
<path d="M277.385 30.284L287.622 30.3793C288.355 30.3793 289.013 30.9645 289.073 31.6723L289.896 40.111C289.956 40.7779 289.447 41.3904 288.744 41.4721L286.065 41.7987L284.883 43.3231C284.554 43.609 284.06 43.677 283.671 43.4865L282.084 42.2751L278.971 42.6426C278.074 42.7515 277.265 42.2207 277.161 41.4585L275.859 31.7676C275.754 30.9509 276.442 30.2976 277.37 30.3112L277.385 30.284Z" fill="white"/>
<path d="M267.074 62.8138C267.074 65.0323 268.241 66.8426 269.678 66.8426C270.92 66.8426 271.953 65.4951 272.222 63.6985C272.267 63.4126 272.282 63.1132 272.282 62.8138C272.282 62.5143 272.267 62.2013 272.222 61.9155C271.953 60.1188 270.92 58.785 269.678 58.785C268.241 58.785 267.074 60.5816 267.074 62.8138Z" fill="#602B7A"/>
<path d="M270.022 62.8138C270.022 63.2902 271.01 63.6849 272.222 63.6985C272.267 63.4127 272.282 63.1132 272.282 62.8138C272.282 62.5143 272.267 62.2013 272.222 61.9155C271.01 61.9291 270.022 62.3374 270.022 62.8138Z" fill="white"/>
<path d="M288.115 62.8138C288.115 65.0323 289.283 66.8426 290.719 66.8426C291.962 66.8426 292.994 65.4951 293.264 63.6985C293.308 63.4126 293.323 63.1132 293.323 62.8138C293.323 62.5143 293.308 62.2013 293.264 61.9155C292.994 60.1188 291.962 58.785 290.719 58.785C289.283 58.785 288.115 60.5816 288.115 62.8138Z" fill="#602B7A"/>
<path d="M291.064 62.8138C291.064 63.2902 292.051 63.6849 293.264 63.6985C293.308 63.4127 293.323 63.1132 293.323 62.8138C293.323 62.5143 293.308 62.2013 293.264 61.9155C292.051 61.9291 291.064 62.3374 291.064 62.8138Z" fill="white"/>
<path d="M279.929 91.342C280.483 91.342 281.037 91.2876 281.59 91.1923C285.317 90.5254 287.188 87.8304 287.277 87.7079C287.502 87.3949 287.382 86.973 287.038 86.7688C286.694 86.5646 286.23 86.6735 286.005 86.9866C285.99 87.0138 284.374 89.314 281.291 89.8448C278.822 90.2804 276.053 89.491 273.075 87.5038C272.746 87.286 272.267 87.3405 272.027 87.6535C271.788 87.9529 271.848 88.3885 272.192 88.6063C274.901 90.4165 277.505 91.3284 279.944 91.3284L279.929 91.342Z" fill="#602B7A"/>
<path d="M279.615 158.348C279.839 158.348 280.064 158.253 280.214 158.076C280.468 157.776 280.393 157.354 280.064 157.123C279.735 156.905 272.162 151.57 276.846 142.478C278.687 138.912 278.942 134.815 279.196 130.473C279.42 126.907 279.645 123.218 280.812 119.816C281.216 118.632 281.546 118.468 281.546 118.468C282.982 119.04 285.466 129.983 285.856 135.482C285.99 137.333 285.452 139.579 284.943 141.77C284 145.758 283.027 149.868 286.2 151.733C286.544 151.937 287.008 151.842 287.232 151.529C287.457 151.216 287.352 150.794 287.008 150.59C284.703 149.242 285.526 145.758 286.409 142.056C286.948 139.783 287.502 137.428 287.352 135.4C287.352 135.223 285.317 117.543 281.635 117.134C280.229 116.958 279.615 118.741 279.39 119.407C278.148 122.974 277.924 126.744 277.699 130.391C277.445 134.597 277.206 138.571 275.485 141.893C270.262 152.005 279.076 158.144 279.166 158.198C279.301 158.294 279.45 158.334 279.615 158.334V158.348Z" fill="#602B7A"/>
<path d="M306.508 189.231C306.508 189.231 335.317 195.396 338.399 193.858C341.482 192.32 336.394 188.455 317.478 183.963C298.561 179.472 306.523 189.231 306.523 189.231H306.508Z" fill="white"/>
<path d="M336.469 194.757C337.546 194.757 338.34 194.661 338.759 194.457C339.941 193.858 340.031 193.055 339.971 192.62C339.477 188.999 325.784 185.229 317.657 183.31C310.384 181.582 306.119 181.718 304.637 183.718C302.991 185.937 305.61 189.258 305.909 189.639L306.074 189.843L306.343 189.898C310.564 190.796 329.465 194.757 336.469 194.757ZM309.441 183.46C311.162 183.46 313.661 183.759 317.283 184.617C333.67 188.496 338.325 191.572 338.489 192.783C338.489 192.838 338.519 193.015 338.04 193.26C336.005 194.28 318.016 190.987 306.957 188.618C306.254 187.679 305.041 185.597 305.879 184.467C306.224 184.004 307.122 183.446 309.441 183.446V183.46Z" fill="#602B7A"/>
<path d="M324.422 180.751C324.422 180.751 331.336 177.485 335.257 177.349C339.178 177.212 352.706 184.494 352.407 185.814C352.108 187.135 338.459 181.228 336.708 181.799C334.957 182.371 327.909 185.284 327.909 185.284" fill="white"/>
<path d="M351.943 186.672C352.242 186.672 352.482 186.631 352.661 186.536C352.916 186.413 353.081 186.196 353.14 185.937C353.245 185.474 352.931 185.066 352.676 184.807C350.686 182.684 339.372 176.654 335.346 176.654C335.302 176.654 335.257 176.654 335.227 176.654C331.186 176.791 324.362 179.989 324.062 180.125C323.688 180.302 323.554 180.71 323.748 181.037C323.943 181.364 324.392 181.5 324.751 181.323C324.811 181.296 331.56 178.124 335.272 178.002C338.594 177.893 348.247 183.024 350.97 185.161C349.459 184.807 346.75 183.895 344.805 183.242C339.746 181.527 337.427 180.819 336.439 181.146C334.688 181.718 327.879 184.535 327.594 184.644C327.22 184.794 327.056 185.202 327.22 185.542C327.385 185.883 327.834 186.032 328.208 185.883C328.283 185.855 335.257 182.983 336.948 182.425C337.666 182.276 341.647 183.637 344.281 184.521C348.531 185.964 350.746 186.658 351.928 186.658L351.943 186.672Z" fill="#602B7A"/>
<path d="M312.629 178.437C320.052 177.389 325.634 178.138 336.11 180.438C345.403 182.48 364.335 188.85 363.392 190.878C362.449 192.906 343.054 186.808 336.708 187.148C330.363 187.489 318.42 192.239 312.075 192.919C305.73 193.6 288.983 200.827 269.573 193.355L283.162 179.853C283.162 179.853 303.605 179.717 312.644 178.437H312.629Z" fill="white"/>
<path d="M287.906 197.397C295.628 197.397 302.243 195.805 307.002 194.661C309.097 194.158 310.893 193.722 312.165 193.586C315.203 193.26 319.348 192.062 323.733 190.796C328.522 189.421 333.461 187.992 336.753 187.815C339.597 187.666 345.508 188.931 350.716 190.047C360.069 192.048 363.407 192.62 364.095 191.136C364.2 190.919 364.26 190.565 364.02 190.143C362.389 187.216 343.503 181.364 336.289 179.771C325.783 177.471 320.171 176.682 312.524 177.757C303.635 179.023 283.356 179.172 283.147 179.172H282.818L268.301 193.6L269.274 193.981C275.889 196.526 282.204 197.397 287.906 197.397ZM337.247 186.454C337.038 186.454 336.843 186.454 336.663 186.468C333.191 186.658 328.163 188.101 323.284 189.517C318.959 190.769 314.889 191.939 311.985 192.252C310.608 192.402 308.843 192.824 306.613 193.355C298.696 195.26 285.571 198.418 270.845 193.11L283.476 180.547C286.14 180.52 304.368 180.316 312.749 179.118C320.142 178.07 325.634 178.846 335.93 181.105C346.047 183.324 361.312 188.822 362.614 190.66C361.506 190.987 355.475 189.694 351.045 188.741C345.807 187.625 340.42 186.468 337.232 186.468L337.247 186.454Z" fill="#602B7A"/>
<path d="M323.209 184.127C323.209 184.127 331.874 183.242 337.891 184.807C343.907 186.373 356.148 191.599 355.071 193.083C353.993 194.566 340.255 189.299 335.526 189.299C330.797 189.299 325.065 189.734 321.638 190.687" fill="white"/>
<path d="M354.128 194.035C354.921 194.035 355.415 193.858 355.7 193.464C355.909 193.178 355.939 192.81 355.804 192.457C354.832 190.061 342.874 185.406 338.1 184.154C332.009 182.575 323.494 183.419 323.135 183.446C322.731 183.487 322.431 183.827 322.476 184.195C322.521 184.562 322.895 184.835 323.299 184.794C323.389 184.794 331.889 183.95 337.696 185.461C343.533 186.985 353.096 191.204 354.293 192.742C353.215 192.838 349.01 191.681 345.882 190.823C341.916 189.734 337.816 188.618 335.541 188.618C331.396 188.618 325.215 188.986 321.429 190.034C321.039 190.143 320.815 190.524 320.935 190.878C321.054 191.232 321.473 191.436 321.863 191.327C324.841 190.497 330.213 189.966 335.526 189.966C337.591 189.966 341.767 191.109 345.448 192.116C349.923 193.341 352.602 194.008 354.128 194.022V194.035Z" fill="#602B7A"/>
<path d="M301.494 175.28C308.214 177.308 312.135 188.727 308.678 194.961C305.236 201.195 214.979 231.438 190.69 222.809C166.416 214.166 186.979 128.336 205.446 119.625C223.913 110.928 248.247 114.589 247.724 130.432C247.2 146.275 214.964 179.118 219.184 184.875C223.405 190.633 285.601 170.475 301.48 175.28H301.494Z" fill="white"/>
<path d="M202.288 225C236.11 225 306.239 200.895 309.351 195.274C311.267 191.803 311.147 186.536 309.022 181.867C307.346 178.165 304.682 175.538 301.734 174.64C293.204 172.054 271.923 176.45 253.156 180.329C238.34 183.392 221.549 186.863 219.828 184.508C218.122 182.167 224.632 172.83 230.947 163.792C239.044 152.196 248.217 139.048 248.502 130.459C248.681 125.07 246.122 120.7 241.079 117.829C232.204 112.752 217.419 113.242 205.117 119.026C191.962 125.219 177.326 170.53 179.017 199.834C179.765 212.9 183.716 221.066 190.436 223.448C193.474 224.524 197.529 225.014 202.303 225.014L202.288 225ZM294.85 175.212C297.439 175.212 299.609 175.429 301.255 175.933C303.784 176.695 306.119 179.05 307.63 182.385C309.591 186.699 309.741 191.517 308.005 194.662C306.493 197.397 284 206.367 257.272 213.812C225.275 222.741 201.106 225.776 190.96 222.169C183.222 219.42 180.993 208.449 180.499 199.752C178.838 170.843 193.01 126.254 205.79 120.238C217.448 114.753 231.935 114.222 240.256 118.972C244.82 121.585 247.14 125.532 246.975 130.419C246.706 138.64 237.652 151.611 229.66 163.071C221.13 175.28 216.416 182.344 218.571 185.27C220.756 188.251 232.653 185.964 253.485 181.663C268.301 178.601 284.688 175.225 294.85 175.225V175.212Z" fill="#602B7A"/>
<path d="M223.674 116.876C212.465 117.801 205.581 120.578 200.627 128.69C195.674 136.802 181.771 176.668 183.252 197.166C184.734 217.664 188.49 222.822 211.163 219.896C233.851 216.97 262.45 209.048 277.475 204.094C292.5 199.14 310.534 198.704 305.445 184.916C300.896 172.571 292.859 178.247 278.148 180.275C263.452 182.303 227.341 191.259 217.688 186.971C208.02 182.698 230.019 156.674 235.976 148.371C241.917 140.055 247.14 128.5 243.488 123.6C239.088 117.72 230.019 116.331 223.674 116.862V116.876Z" fill="#95C11F"/>
<path d="M206.06 194.035C206.254 194.035 206.449 193.967 206.583 193.831C209.023 191.613 213.243 189.503 216.042 188.115C219.05 186.618 219.858 186.209 219.588 185.433C219.349 184.726 218.376 184.821 217.733 184.875C213.393 185.27 208.469 183.351 208.424 183.337C208.05 183.188 207.601 183.337 207.436 183.691C207.272 184.032 207.436 184.44 207.826 184.59C208.02 184.671 212.24 186.332 216.595 186.291C216.191 186.495 215.757 186.713 215.338 186.917C212.465 188.346 208.125 190.51 205.536 192.865C205.237 193.137 205.237 193.559 205.536 193.831C205.686 193.967 205.88 194.035 206.06 194.035Z" fill="#602B7A"/>
<path d="M38.596 160.43C38.596 160.43 38.7157 160.43 38.7756 160.417C42.2326 159.655 47.1862 154.687 50.2242 151.298L48.0093 158.498C47.9045 158.865 48.129 159.233 48.5331 159.342C48.9222 159.45 49.3412 159.233 49.461 158.865L52.7833 148.099L51.6309 147.527L51.197 147.99C47.3209 152.659 41.649 158.375 38.4463 159.083C38.0423 159.165 37.8028 159.532 37.8926 159.9C37.9824 160.213 38.2817 160.417 38.6259 160.417L38.596 160.43Z" fill="#602B7A"/>
<path d="M300.402 140.014L305.864 141.756L307.96 146.901L309.935 141.865L315.532 140.014L309.875 138.109L307.96 133.127L305.924 138.218L300.402 140.014Z" fill="#602B7A"/>
<path d="M403.769 57.9139L407.749 59.1797L409.276 62.9227L410.713 59.2614L414.768 57.9139L410.668 56.5256L409.276 52.9188L407.794 56.6073L403.769 57.9139Z" fill="#602B7A"/>
<path d="M330.393 72.2461L334.374 73.5119L335.9 77.2412L337.337 73.5935L341.392 72.2461L337.292 70.8578L335.9 67.2509L334.419 70.9394L330.393 72.2461Z" fill="#602B7A"/>
<path d="M396.211 82.4406C396.495 82.4406 396.765 82.3453 396.974 82.1547C397.378 81.7736 397.378 81.1747 396.959 80.8073L396.929 80.78C396.51 80.4125 395.837 80.4262 395.433 80.8073C395.029 81.1884 395.044 81.8008 395.463 82.1683C395.672 82.3453 395.942 82.4406 396.211 82.4406ZM387.067 74.3421C387.351 74.3421 387.621 74.2469 387.83 74.0563C388.234 73.6752 388.234 73.0763 387.815 72.7088L387.785 72.6816C387.366 72.3141 386.693 72.3277 386.289 72.7088C385.885 73.0899 385.9 73.7024 386.319 74.0699C386.528 74.2468 386.798 74.3421 387.067 74.3421ZM377.923 66.2437C378.193 66.2437 378.477 66.1484 378.671 65.9579C379.076 65.5768 379.091 64.9779 378.671 64.6104L378.642 64.5832C378.223 64.2157 377.549 64.2157 377.145 64.5968C376.741 64.9779 376.741 65.5904 377.16 65.9579C377.369 66.1484 377.654 66.2437 377.923 66.2437ZM368.779 58.1453C369.049 58.1453 369.318 58.05 369.528 57.8731C369.947 57.492 369.962 56.8931 369.543 56.5256L369.513 56.4984C369.094 56.1173 368.42 56.1173 368.016 56.4984C367.597 56.8795 367.597 57.492 368.016 57.8595C368.226 58.05 368.51 58.1453 368.794 58.1453H368.779ZM359.635 50.0469C359.905 50.0469 360.189 49.9516 360.384 49.761C360.788 49.3799 360.803 48.7811 360.384 48.4136L360.354 48.3863C359.935 48.0189 359.261 48.0189 358.857 48.4C358.453 48.7811 358.453 49.3935 358.872 49.761C359.082 49.9516 359.366 50.0469 359.635 50.0469ZM350.491 41.9484C350.776 41.9484 351.045 41.8532 351.255 41.6626C351.659 41.2815 351.659 40.6826 351.24 40.3151L351.21 40.2879C350.791 39.9204 350.117 39.934 349.713 40.3151C349.309 40.6963 349.324 41.3087 349.743 41.6762C349.953 41.8532 350.222 41.9484 350.491 41.9484ZM341.348 33.85C341.632 33.85 341.901 33.7547 342.111 33.5642C342.515 33.1831 342.515 32.5842 342.096 32.2167L342.066 32.1895C341.647 31.822 340.973 31.8356 340.569 32.2167C340.165 32.5978 340.18 33.2103 340.599 33.5778C340.809 33.7547 341.078 33.85 341.348 33.85ZM332.204 25.7516C332.473 25.7516 332.757 25.6563 332.952 25.4658C333.356 25.0847 333.371 24.4858 332.952 24.1183L332.922 24.0911C332.503 23.7236 331.83 23.7236 331.425 24.1047C331.021 24.4858 331.021 25.0983 331.44 25.4658C331.65 25.6563 331.934 25.7516 332.204 25.7516ZM323.06 17.6532C323.329 17.6532 323.599 17.5579 323.808 17.381C324.227 16.9999 324.242 16.401 323.823 16.0335L323.793 16.0063C323.374 15.6252 322.701 15.6252 322.297 16.0063C321.877 16.3874 321.877 16.9999 322.297 17.3674C322.506 17.5579 322.79 17.6532 323.075 17.6532H323.06ZM313.916 9.55476C314.185 9.55476 314.47 9.45948 314.664 9.26893C315.068 8.88783 315.083 8.28895 314.664 7.92146L314.634 7.89424C314.215 7.52675 313.542 7.52675 313.138 7.90785C312.734 8.28895 312.734 8.90144 313.153 9.26893C313.362 9.45948 313.646 9.55476 313.916 9.55476Z" fill="#602B7A"/>
<path d="M313.287 155C313.287 155 313.362 155 313.392 155C313.976 154.945 314.425 154.469 314.365 153.938C314.305 153.407 313.781 153.026 313.227 153.081H313.183C312.599 153.135 312.18 153.611 312.24 154.142C312.3 154.632 312.764 155.013 313.287 155.013V155ZM325.993 153.87C325.993 153.87 326.068 153.87 326.098 153.87C326.681 153.816 327.13 153.339 327.071 152.808C327.011 152.278 326.502 151.91 325.933 151.951H325.888C325.305 152.005 324.886 152.482 324.945 153.013C325.005 153.503 325.469 153.884 325.993 153.884V153.87ZM338.699 152.74C338.699 152.74 338.774 152.74 338.818 152.74C339.402 152.686 339.851 152.21 339.776 151.679C339.716 151.148 339.208 150.767 338.624 150.821H338.579C337.995 150.876 337.576 151.352 337.636 151.883C337.696 152.373 338.16 152.74 338.684 152.74H338.699ZM351.404 151.611C351.404 151.611 351.479 151.611 351.509 151.611C352.093 151.556 352.542 151.08 352.482 150.549C352.422 150.018 351.898 149.651 351.345 149.692H351.3C350.716 149.746 350.297 150.222 350.357 150.753C350.417 151.243 350.881 151.624 351.404 151.624V151.611ZM364.11 150.481C364.11 150.481 364.185 150.481 364.215 150.481C364.798 150.426 365.247 149.95 365.188 149.419C365.128 148.888 364.619 148.521 364.05 148.562H364.005C363.422 148.616 363.003 149.093 363.062 149.623C363.122 150.113 363.586 150.495 364.11 150.495V150.481ZM376.816 149.351C376.816 149.351 376.891 149.351 376.921 149.351C377.504 149.297 377.953 148.82 377.893 148.29C377.833 147.759 377.31 147.378 376.756 147.432H376.711C376.127 147.487 375.708 147.963 375.768 148.494C375.828 148.984 376.292 149.365 376.816 149.365V149.351Z" fill="#602B7A"/>
<path d="M379.375 117.679C379.719 117.679 380.063 117.529 380.273 117.243C380.587 116.794 380.467 116.209 379.988 115.923L379.959 115.896C379.465 115.61 378.806 115.733 378.492 116.182C378.178 116.631 378.312 117.23 378.806 117.516C378.986 117.624 379.195 117.679 379.405 117.679H379.375ZM368.6 111.445C368.959 111.445 369.303 111.282 369.513 110.996C369.812 110.547 369.677 109.962 369.183 109.676H369.153C368.66 109.376 368.001 109.526 367.702 109.975C367.402 110.424 367.552 111.023 368.046 111.295C368.226 111.391 368.42 111.445 368.615 111.445H368.6ZM357.825 105.211C358.169 105.211 358.513 105.062 358.723 104.776C359.037 104.327 358.917 103.741 358.438 103.456L358.408 103.428C357.914 103.143 357.256 103.265 356.942 103.714C356.627 104.163 356.762 104.762 357.256 105.048C357.435 105.157 357.645 105.211 357.855 105.211H357.825ZM347.049 98.9777C347.409 98.9777 347.753 98.8143 347.962 98.5285C348.262 98.0794 348.127 97.4941 347.633 97.2083H347.603C347.109 96.9088 346.451 97.0586 346.152 97.5077C345.852 97.9569 346.002 98.5557 346.496 98.828C346.675 98.9232 346.87 98.9777 347.064 98.9777H347.049Z" fill="#602B7A"/>
<path d="M363.033 51.163L359.411 47.7603L367.013 32.9653L370.904 36.613L366.624 44.6978L375.619 41.0229L379.539 44.6978L363.048 51.163H363.033ZM361.207 47.488L363.392 49.5433L376.95 44.2351L375.274 42.6698L363.496 47.4744L369.109 36.8852L367.462 35.3336L361.207 47.488Z" fill="#602B7A"/>
<path d="M378.252 40.7235L374.421 37.1302L382.024 30.4201L385.855 34.0134L378.252 40.7235ZM376.531 37.1574L378.282 38.8044L383.73 33.9997L381.979 32.3528L376.531 37.1574Z" fill="#602B7A"/>
<path d="M390.18 35.2928L386.259 31.6179L390.569 23.5603L381.56 27.208L377.669 23.5603L394.161 17.0952L397.782 20.4979L390.18 35.2928ZM388.07 31.3593L389.746 32.9245L396.001 20.7701L393.817 18.7148L380.258 24.023L381.904 25.5747L393.712 20.7973L388.07 31.3593Z" fill="#602B7A"/>
<path d="M370.141 94.35C369.453 94.35 368.764 94.2683 368.076 94.0914C366.1 93.5878 364.454 92.4309 363.437 90.7976C362.419 89.1779 362.165 87.286 362.718 85.4894C363.272 83.6928 364.544 82.1956 366.34 81.27C368.121 80.3445 370.201 80.1131 372.176 80.6167C374.152 81.1203 375.798 82.2772 376.816 83.9105C377.833 85.5302 378.088 87.4221 377.534 89.2187C376.98 91.0154 375.708 92.5126 373.912 93.4381C372.745 94.037 371.443 94.35 370.126 94.35H370.141ZM370.126 81.7192C369.064 81.7192 368.031 81.9642 367.088 82.4542C365.651 83.1892 364.619 84.4005 364.17 85.8569C363.736 87.3132 363.93 88.824 364.754 90.1307C365.562 91.4373 366.894 92.3764 368.495 92.7848C370.081 93.1795 371.757 93.0025 373.194 92.2539C376.157 90.7295 377.205 87.286 375.529 84.5775C374.721 83.2708 373.389 82.3317 371.787 81.9234C371.234 81.7872 370.68 81.7192 370.126 81.7192Z" fill="#602B7A"/>
<path d="M369.842 88.2796L367.777 84.9722C367.567 84.6455 367.702 84.2236 368.061 84.0466C368.42 83.8561 368.884 83.9786 369.079 84.3052L370.41 86.4285L372.251 85.4758C372.61 85.2852 373.059 85.4077 373.269 85.7344C373.478 86.061 373.344 86.483 372.985 86.6599L369.842 88.2796Z" fill="#602B7A"/>
<path d="M336.738 131.766C335.691 131.766 334.643 131.426 333.805 130.759L327.849 125.954C326.966 125.247 326.427 124.253 326.352 123.178C326.277 122.102 326.666 121.068 327.46 120.251L332.727 114.834C334.344 113.174 337.157 113.01 338.998 114.48L344.954 119.285C345.837 119.993 346.376 120.986 346.451 122.062C346.526 123.137 346.137 124.171 345.343 124.988L340.076 130.405C339.193 131.303 337.98 131.766 336.753 131.766H336.738ZM336.05 114.834C335.242 114.834 334.419 115.134 333.85 115.733L328.582 121.15C328.058 121.681 327.804 122.375 327.849 123.082C327.894 123.79 328.253 124.443 328.836 124.92L334.793 129.724C336.005 130.704 337.876 130.596 338.953 129.493L344.221 124.076C344.745 123.545 344.999 122.851 344.954 122.143C344.909 121.436 344.55 120.782 343.967 120.306L338.01 115.501C337.457 115.052 336.753 114.834 336.065 114.834H336.05Z" fill="#602B7A"/>
<path d="M335.227 124.117L333.7 125.682C333.895 125.791 334.089 125.818 334.299 125.777C334.508 125.737 334.688 125.628 334.867 125.464C335.077 125.247 335.182 125.002 335.152 124.729H335.706C335.735 124.92 335.706 125.097 335.646 125.287C335.571 125.478 335.451 125.655 335.287 125.818C335.077 126.036 334.838 126.199 334.583 126.281C334.329 126.376 334.059 126.39 333.805 126.349C333.551 126.308 333.311 126.186 333.087 126.022C332.862 125.859 332.727 125.655 332.638 125.423C332.548 125.192 332.533 124.961 332.593 124.729C332.653 124.498 332.772 124.28 332.967 124.076C333.161 123.872 333.371 123.749 333.61 123.668C333.85 123.586 334.104 123.572 334.359 123.627C334.613 123.681 334.853 123.79 335.077 123.981C335.107 124.008 335.167 124.049 335.227 124.117ZM333.146 124.906C333.146 125.083 333.206 125.26 333.356 125.41L334.463 124.28C334.284 124.171 334.104 124.13 333.895 124.158C333.7 124.185 333.521 124.267 333.371 124.416C333.221 124.566 333.146 124.729 333.146 124.92V124.906Z" fill="#602B7A"/>
<path d="M336.708 124.239C336.514 124.362 336.334 124.43 336.169 124.471L335.96 123.981C336.11 123.94 336.274 123.872 336.439 123.79C336.603 123.695 336.738 123.586 336.858 123.463C337.127 123.178 337.187 122.974 337.023 122.851C336.948 122.783 336.858 122.783 336.753 122.824C336.648 122.865 336.514 122.96 336.334 123.096C336.14 123.232 335.99 123.341 335.855 123.423C335.721 123.504 335.571 123.532 335.406 123.545C335.242 123.545 335.077 123.491 334.927 123.355C334.718 123.191 334.628 122.974 334.658 122.715C334.688 122.456 334.838 122.198 335.092 121.925C335.227 121.789 335.376 121.667 335.541 121.558C335.706 121.449 335.87 121.367 336.005 121.327L336.214 121.817C335.945 121.898 335.706 122.048 335.496 122.252C335.361 122.388 335.287 122.511 335.257 122.62C335.227 122.729 335.257 122.81 335.331 122.865C335.421 122.933 335.511 122.946 335.616 122.892C335.721 122.837 335.87 122.756 336.05 122.62C336.229 122.484 336.394 122.375 336.529 122.307C336.663 122.239 336.813 122.198 336.963 122.184C337.112 122.184 337.277 122.239 337.427 122.361C337.636 122.524 337.711 122.742 337.681 123.001C337.651 123.259 337.486 123.532 337.217 123.817C337.052 123.981 336.888 124.117 336.678 124.239H336.708Z" fill="#602B7A"/>
<path d="M338.714 122.034C338.459 122.116 338.205 122.143 337.935 122.102C337.681 122.062 337.442 121.953 337.217 121.776C336.993 121.599 336.858 121.395 336.768 121.177C336.693 120.946 336.678 120.714 336.738 120.469C336.798 120.224 336.933 120.006 337.142 119.789C337.337 119.598 337.546 119.448 337.771 119.38C338.01 119.299 338.235 119.299 338.474 119.353L338.354 119.897C338.19 119.87 338.055 119.897 337.92 119.925C337.786 119.966 337.666 120.047 337.576 120.142C337.412 120.319 337.322 120.51 337.337 120.728C337.352 120.946 337.457 121.136 337.666 121.299C337.876 121.463 338.1 121.544 338.325 121.531C338.564 121.531 338.759 121.422 338.938 121.245C339.043 121.136 339.103 121.027 339.133 120.905C339.163 120.782 339.163 120.646 339.118 120.51L339.701 120.333C339.791 120.537 339.806 120.755 339.746 120.973C339.686 121.191 339.567 121.395 339.372 121.599C339.178 121.803 338.938 121.953 338.684 122.034H338.714Z" fill="#602B7A"/>
</g>
<defs>
<clipPath id="clip0_320_113486">
<rect width="440" height="225" fill="white" transform="matrix(-1 0 0 1 440 0)"/>
</clipPath>
</defs>
</svg>
