<svg width="346" height="371" viewBox="0 0 346 371" fill="none" xmlns="http://www.w3.org/2000/svg">
<ellipse cx="214.533" cy="72.5566" rx="2.73801" ry="2.73801" fill="white"/>
<ellipse cx="336.375" cy="142.377" rx="2.73801" ry="2.73801" fill="white"/>
<ellipse cx="220.009" cy="290.228" rx="2.73801" ry="2.73801" fill="white"/>
<ellipse cx="307.625" cy="282.015" rx="2.73801" ry="2.73801" fill="white"/>
<ellipse cx="22.8728" cy="105.413" rx="2.73801" ry="2.73801" fill="white"/>
<ellipse cx="254.234" cy="125.949" rx="2.73801" ry="2.73801" fill="white"/>
<ellipse cx="147.453" cy="117.734" rx="2.73801" ry="2.73801" fill="white"/>
<ellipse cx="152.927" cy="331.299" rx="2.73801" ry="2.73801" fill="white"/>
<ellipse cx="243.283" cy="327.192" rx="2.73801" ry="2.73801" fill="white"/>
<ellipse cx="343.219" cy="47.9143" rx="2.73801" ry="2.73801" fill="white"/>
<ellipse cx="3.70676" cy="220.41" rx="2.73801" ry="2.73801" fill="white"/>
<ellipse cx="48.8835" cy="216.302" rx="2.73801" ry="2.73801" fill="white"/>
<ellipse cx="161.141" cy="15.0592" rx="2.73801" ry="2.73801" fill="white"/>
<ellipse cx="289.828" cy="245.052" rx="2.73801" ry="2.73801" fill="white"/>
<ellipse cx="192.63" cy="257.373" rx="2.73801" ry="2.73801" fill="white"/>
<ellipse cx="16.0271" cy="199.874" rx="2.73801" ry="2.73801" fill="white"/>
<ellipse cx="79.0007" cy="323.085" rx="2.73801" ry="2.73801" fill="white"/>
<ellipse cx="170.725" cy="302.55" rx="2.73801" ry="2.73801" fill="white"/>
<ellipse cx="103.643" cy="347.727" rx="2.73801" ry="2.73801" fill="white"/>
<ellipse cx="122.81" cy="360.048" rx="2.73801" ry="2.73801" fill="white"/>
<ellipse cx="298.042" cy="355.941" rx="2.73801" ry="2.73801" fill="white"/>
<ellipse cx="96.7995" cy="60.2359" rx="2.73801" ry="2.73801" fill="white"/>
<ellipse cx="72.157" cy="208.088" rx="2.73801" ry="2.73801" fill="white"/>
<ellipse cx="10.5515" cy="43.8079" rx="2.73801" ry="2.73801" fill="white"/>
<ellipse cx="61.2048" cy="138.269" rx="2.73801" ry="2.73801" fill="white"/>
<ellipse cx="248.759" cy="171.125" rx="2.73801" ry="2.73801" fill="white"/>
<ellipse cx="270.662" cy="277.908" rx="2.73801" ry="2.73801" fill="white"/>
<ellipse cx="313.101" cy="84.8778" rx="2.73801" ry="2.73801" fill="white"/>
<ellipse cx="202.212" cy="146.483" rx="2.73801" ry="2.73801" fill="white"/>
<ellipse cx="176.201" cy="97.1989" rx="2.73801" ry="2.73801" fill="white"/>
<ellipse cx="29.7175" cy="39.701" rx="2.73801" ry="2.73801" fill="white"/>
<ellipse cx="84.4773" cy="240.944" rx="2.73801" ry="2.73801" fill="white"/>
<ellipse cx="261.079" cy="23.2735" rx="2.73801" ry="2.73801" fill="white"/>
<ellipse cx="316.523" cy="86.9322" rx="0.684501" ry="0.684502" fill="white"/>
<ellipse cx="208.372" cy="156.751" rx="0.684501" ry="0.684502" fill="white"/>
<ellipse cx="37.247" cy="41.7544" rx="0.684501" ry="0.684502" fill="white"/>
<ellipse cx="92.0077" cy="251.212" rx="0.684501" ry="0.684502" fill="white"/>
<ellipse cx="265.87" cy="25.3268" rx="0.684501" ry="0.684502" fill="white"/>
<ellipse cx="327.476" cy="111.574" rx="0.684501" ry="0.684502" fill="white"/>
<ellipse cx="301.465" cy="185.5" rx="0.684501" ry="0.684502" fill="white"/>
<ellipse cx="68.7343" cy="41.7544" rx="0.684501" ry="0.684502" fill="white"/>
<ellipse cx="33.1406" cy="70.5031" rx="0.684501" ry="0.684502" fill="white"/>
<ellipse cx="165.934" cy="29.4332" rx="0.684501" ry="0.684502" fill="white"/>
<ellipse cx="111.173" cy="185.5" rx="0.684501" ry="0.684502" fill="white"/>
<ellipse cx="127.601" cy="255.319" rx="0.684501" ry="0.684502" fill="white"/>
<ellipse cx="319.262" cy="41.7544" rx="0.684501" ry="0.684502" fill="white"/>
<ellipse cx="187.838" cy="86.9322" rx="0.684501" ry="0.684502" fill="white"/>
<ellipse cx="144.029" cy="13.0057" rx="0.684501" ry="0.684502" fill="white"/>
<ellipse cx="34.5087" cy="259.426" rx="0.684501" ry="0.684502" fill="white"/>
<ellipse cx="100.222" cy="164.965" rx="0.684501" ry="0.684502" fill="white"/>
<ellipse cx="209.741" cy="54.0756" rx="0.684501" ry="0.684502" fill="white"/>
<ellipse cx="264.502" cy="103.36" rx="0.684501" ry="0.684502" fill="white"/>
<ellipse cx="320.631" cy="259.426" rx="0.684501" ry="0.684502" fill="white"/>
<ellipse cx="324.737" cy="193.714" rx="0.684501" ry="0.684502" fill="white"/>
<ellipse cx="41.3544" cy="247.105" rx="0.684501" ry="0.684502" fill="white"/>
<ellipse cx="112.542" cy="144.43" rx="0.684501" ry="0.684502" fill="white"/>
<ellipse cx="223.432" cy="29.4332" rx="0.684501" ry="0.684502" fill="white"/>
<ellipse cx="274.085" cy="86.9322" rx="0.684501" ry="0.684502" fill="white"/>
<ellipse cx="328.845" cy="247.105" rx="0.684501" ry="0.684502" fill="white"/>
<ellipse cx="109.805" cy="66.3968" rx="0.684501" ry="0.684502" fill="white"/>
<ellipse cx="197.421" cy="156.751" rx="0.684501" ry="0.684502" fill="white"/>
<ellipse cx="239.859" cy="17.1121" rx="0.684501" ry="0.684502" fill="white"/>
<ellipse cx="304.203" cy="222.463" rx="0.684501" ry="0.684502" fill="white"/>
<ellipse cx="156.35" cy="247.105" rx="0.684501" ry="0.684502" fill="white"/>
<ellipse cx="108.435" cy="304.604" rx="0.684501" ry="0.684502" fill="white"/>
<ellipse cx="167.303" cy="255.319" rx="0.684501" ry="0.684502" fill="white"/>
<ellipse cx="53.6747" cy="345.674" rx="0.684501" ry="0.684502" fill="white"/>
<ellipse cx="38.6161" cy="86.9322" rx="0.684501" ry="0.684502" fill="white"/>
<ellipse cx="179.623" cy="41.7544" rx="0.684501" ry="0.684502" fill="white"/>
<ellipse cx="64.6269" cy="86.9322" rx="0.684501" ry="0.684502" fill="white"/>
<ellipse cx="26.2949" cy="13.0057" rx="0.684501" ry="0.684502" fill="white"/>
<ellipse cx="275.454" cy="132.108" rx="0.684501" ry="0.684502" fill="white"/>
<ellipse cx="317.893" cy="0.684502" rx="0.684501" ry="0.684502" fill="white"/>
<ellipse cx="233.015" cy="222.463" rx="0.684501" ry="0.684502" fill="white"/>
<ellipse cx="118.018" cy="193.714" rx="0.684501" ry="0.684502" fill="white"/>
<ellipse cx="0.284111" cy="304.604" rx="0.684501" ry="0.684502" fill="white"/>
<ellipse cx="135.815" cy="263.533" rx="0.684501" ry="0.684502" fill="white"/>
<ellipse cx="331.583" cy="41.7544" rx="0.684501" ry="0.684502" fill="white"/>
<ellipse cx="35.8779" cy="242.998" rx="0.684501" ry="0.684502" fill="white"/>
<ellipse cx="107.066" cy="136.215" rx="0.684501" ry="0.684502" fill="white"/>
<ellipse cx="211.11" cy="25.3268" rx="0.684501" ry="0.684502" fill="white"/>
<ellipse cx="267.239" cy="82.8243" rx="0.684501" ry="0.684502" fill="white"/>
<ellipse cx="323.369" cy="247.105" rx="0.684501" ry="0.684502" fill="white"/>
<ellipse cx="55.0439" cy="251.212" rx="0.684501" ry="0.684502" fill="white"/>
<ellipse cx="119.387" cy="156.751" rx="0.684501" ry="0.684502" fill="white"/>
<ellipse cx="234.384" cy="41.7544" rx="0.684501" ry="0.684502" fill="white"/>
<ellipse cx="285.036" cy="91.0386" rx="0.684501" ry="0.684502" fill="white"/>
<ellipse cx="339.797" cy="255.319" rx="0.684501" ry="0.684502" fill="white"/>
<ellipse cx="133.077" cy="86.9322" rx="0.684501" ry="0.684502" fill="white"/>
<ellipse cx="52.3066" cy="164.965" rx="0.684501" ry="0.684502" fill="white"/>
<ellipse cx="205.635" cy="201.929" rx="0.684501" ry="0.684502" fill="white"/>
<ellipse cx="286.406" cy="156.751" rx="0.684501" ry="0.684502" fill="white"/>
<ellipse cx="87.9003" cy="25.3268" rx="0.684501" ry="0.684502" fill="white"/>
<ellipse cx="138.554" cy="238.891" rx="0.684501" ry="0.684502" fill="white"/>
<ellipse cx="7.12884" cy="255.319" rx="0.684501" ry="0.684502" fill="white"/>
<ellipse cx="42.7226" cy="91.0386" rx="0.684501" ry="0.684502" fill="white"/>
<ellipse cx="189.206" cy="54.0756" rx="0.684501" ry="0.684502" fill="white"/>
<ellipse cx="330.214" cy="86.9322" rx="0.684501" ry="0.684502" fill="white"/>
<ellipse cx="302.833" cy="13.0057" rx="0.684501" ry="0.684502" fill="white"/>
<ellipse cx="128.971" cy="201.929" rx="0.684501" ry="0.684502" fill="white"/>
<ellipse cx="19.4501" cy="201.929" rx="0.684501" ry="0.684502" fill="white"/>
<ellipse cx="39.9853" cy="304.604" rx="0.684501" ry="0.684502" fill="white"/>
<ellipse cx="142.66" cy="300.496" rx="0.684501" ry="0.684502" fill="white"/>
<ellipse cx="44.0917" cy="247.105" rx="0.684501" ry="0.684502" fill="white"/>
<ellipse cx="115.28" cy="148.537" rx="0.684501" ry="0.684502" fill="white"/>
<ellipse cx="231.645" cy="37.6475" rx="0.684501" ry="0.684502" fill="white"/>
<ellipse cx="282.299" cy="86.9322" rx="0.684501" ry="0.684502" fill="white"/>
<ellipse cx="332.952" cy="251.212" rx="0.684501" ry="0.684502" fill="white"/>
<ellipse cx="139.923" cy="111.574" rx="0.684501" ry="0.684502" fill="white"/>
<ellipse cx="65.996" cy="103.36" rx="0.684501" ry="0.684502" fill="white"/>
<ellipse cx="207.003" cy="66.3968" rx="0.684501" ry="0.684502" fill="white"/>
<ellipse cx="137.184" cy="210.142" rx="0.684501" ry="0.684502" fill="white"/>
<ellipse cx="45.4609" cy="337.46" rx="0.684501" ry="0.684502" fill="white"/>
<ellipse cx="116.648" cy="279.962" rx="0.684501" ry="0.684502" fill="white"/>
<ellipse cx="67.3652" cy="214.249" rx="0.684501" ry="0.684502" fill="white"/>
<ellipse cx="75.579" cy="308.71" rx="0.684501" ry="0.684502" fill="white"/>
<ellipse cx="198.79" cy="300.496" rx="0.684501" ry="0.684502" fill="white"/>
<ellipse cx="56.413" cy="255.319" rx="0.684501" ry="0.684502" fill="white"/>
<ellipse cx="126.232" cy="156.751" rx="0.684501" ry="0.684502" fill="white"/>
<ellipse cx="238.49" cy="41.7544" rx="0.684501" ry="0.684502" fill="white"/>
<ellipse cx="293.251" cy="103.36" rx="0.684501" ry="0.684502" fill="white"/>
<ellipse cx="346.642" cy="255.319" rx="0.684501" ry="0.684502" fill="white"/>
<ellipse cx="157.72" cy="156.751" rx="0.684501" ry="0.684502" fill="white"/>
<ellipse cx="90.6386" cy="185.5" rx="0.684501" ry="0.684502" fill="white"/>
<ellipse cx="257.656" cy="214.249" rx="0.684501" ry="0.684502" fill="white"/>
<ellipse cx="326.106" cy="164.965" rx="0.684501" ry="0.684502" fill="white"/>
<ellipse cx="130.339" cy="29.4332" rx="0.684501" ry="0.684502" fill="white"/>
<ellipse cx="196.052" cy="247.105" rx="0.684501" ry="0.684502" fill="white"/>
<ellipse cx="57.7812" cy="263.533" rx="0.684501" ry="0.684502" fill="white"/>
<ellipse cx="89.2695" cy="107.466" rx="0.684501" ry="0.684502" fill="white"/>
<ellipse cx="235.753" cy="66.3968" rx="0.684501" ry="0.684502" fill="white"/>
<ellipse cx="164.564" cy="214.249" rx="0.684501" ry="0.684502" fill="white"/>
<ellipse cx="93.3759" cy="247.105" rx="0.684501" ry="0.684502" fill="white"/>
<ellipse cx="186.469" cy="321.031" rx="0.684501" ry="0.684502" fill="white"/>
<ellipse cx="224.801" cy="193.714" rx="0.684501" ry="0.684502" fill="white"/>
<ellipse cx="294.62" cy="370.316" rx="0.684501" ry="0.684502" fill="white"/>
<ellipse cx="141.291" cy="370.316" rx="0.684501" ry="0.684502" fill="white"/>
<ellipse cx="113.91" cy="321.031" rx="0.684501" ry="0.684502" fill="white"/>
<ellipse cx="283.668" cy="304.604" rx="0.684501" ry="0.684502" fill="white"/>
<ellipse cx="237.121" cy="181.393" rx="0.684501" ry="0.684502" fill="white"/>
<ellipse cx="131.708" cy="255.319" rx="0.684501" ry="0.684502" fill="white"/>
<ellipse cx="134.446" cy="337.46" rx="0.684501" ry="0.684502" fill="white"/>
<ellipse cx="322" cy="304.604" rx="0.684501" ry="0.684502" fill="white"/>
</svg>
