<svg width="194" height="81" viewBox="0 0 194 81" fill="none" xmlns="http://www.w3.org/2000/svg">
<path fill-rule="evenodd" clip-rule="evenodd" d="M187.102 0H7.78333C3.49948 0 0 3.52223 0 7.83392V58.7089C0 63.0205 3.49948 66.5428 7.78333 66.5428H16.0946C17.9801 66.5428 19.6544 67.1804 20.9064 68.6531L30.7411 78.5518C33.7428 81.573 38.5999 81.573 41.6016 78.5518L51.4363 68.6531C52.6883 67.393 54.3626 66.5428 56.2481 66.5428H186.227C190.511 66.5428 193.995 63.0206 193.995 58.724V6.95336C193.784 3.15786 190.857 0 187.102 0Z" fill="white"/>
<path d="M21.3589 16.002H26.9249C27.4076 16.002 27.7998 16.3967 27.7998 16.8825V40.5968C27.7998 41.0826 28.192 41.4774 28.6746 41.4774H42.5971C43.0798 41.4774 43.472 41.8721 43.472 42.3579V46.4874C43.472 46.9733 43.0798 47.368 42.5971 47.368H21.3589C20.8762 47.368 20.484 46.9733 20.484 46.4874V16.8825C20.484 16.3967 20.8762 16.002 21.3589 16.002Z" fill="#602B7A"/>
<path d="M52.8844 46.1079C50.8179 45.0604 49.3548 43.6029 48.1179 41.7355C48.0877 41.7052 48.0726 41.6596 48.0575 41.6292C47.0318 39.7467 46.4134 37.6516 46.4134 35.1617C46.4134 32.6719 47.0469 30.5312 48.0877 28.6334C49.1285 26.7357 50.8028 25.263 52.8995 24.2155C54.9962 23.1679 57.0778 22.5303 59.7929 22.5303C62.2968 22.5303 64.6047 23.1679 66.4751 24.2155C68.5717 25.263 70.0349 26.7357 71.0757 28.6334C72.1165 30.5312 72.75 32.6415 72.75 35.1617C72.75 37.6819 72.1165 39.7922 71.0757 41.69C70.0349 43.5877 68.3606 45.0604 66.4751 46.1079C64.3784 47.1555 62.2968 47.7931 59.7929 47.7931C57.0778 47.7931 54.7699 47.1555 52.8995 46.1079H52.8844ZM63.9711 40.2173C65.0119 38.9572 65.6455 37.272 65.6455 35.3743C65.6455 33.4765 65.0119 31.7913 63.9711 30.5312C62.9303 29.2711 61.256 28.6334 59.5817 28.6334C57.9074 28.6334 56.2331 29.2711 55.1923 30.5312C53.9403 31.7913 53.5179 33.264 53.5179 35.3743C53.5179 37.4846 54.1515 38.9572 55.1923 40.2173C56.4442 41.4774 57.9074 42.1151 59.5817 42.1151C61.256 42.1151 62.9303 41.4774 63.9711 40.2173Z" fill="#602B7A"/>
<path d="M102.179 23.1674C102.662 23.1674 103.054 23.5621 103.054 24.0479V43.3746C103.054 47.7926 102.013 51.163 99.7051 53.2733C97.4123 55.3836 94.0637 56.4312 89.6742 56.4312C87.3815 56.4312 85.0736 56.2186 82.992 55.5962C81.2121 55.0648 79.7339 54.3664 78.4216 53.5162C78.0445 53.2733 77.9238 52.7571 78.135 52.3624L79.9903 48.9009C80.2467 48.4303 80.835 48.3088 81.2725 48.5973C82.1172 49.159 83.0825 49.6296 84.1686 50.0851C84.2138 50.0851 84.2591 50.1155 84.2893 50.1306C85.7373 50.5406 87.3815 50.9505 88.8295 50.9505C91.3335 50.9505 93.0078 50.3128 94.2598 49.2653C95.3006 48.2177 95.9341 46.5325 95.9341 44.2097V43.1621C94.0486 45.2724 91.5446 46.1074 88.4072 46.1074C86.1144 46.1074 84.2289 45.6823 82.3434 44.6348C80.4579 43.5872 78.9948 42.3119 77.954 40.4293C76.9132 38.7441 76.2797 36.6338 76.2797 34.3262C76.2797 32.0185 76.9132 29.9082 77.954 28.223C78.9948 26.5378 80.4579 25.0651 82.3434 24.0176C84.2289 22.97 86.0993 22.5449 88.4072 22.5449C91.967 22.5449 94.4709 23.5925 96.3564 25.9153V24.0631C96.3564 23.5773 96.7486 23.1826 97.2313 23.1826H102.179V23.1674ZM94.486 38.9415C95.738 37.8939 96.1603 36.4213 96.1603 34.7361C96.1603 33.0509 95.5268 31.5782 94.486 30.5307C93.234 29.4831 91.7709 28.8455 89.8854 28.8455C87.9999 28.8455 86.5368 29.4831 85.2848 30.5307C84.0328 31.5782 83.3993 33.0509 83.3993 34.7361C83.3993 36.4213 84.0328 37.8939 85.2848 38.9415C86.5368 39.9891 87.9999 40.6267 89.8854 40.6267C91.7709 40.4142 93.234 39.9891 94.486 38.9415Z" fill="#602B7A"/>
<path d="M109.962 18.7348C109.133 17.8998 108.71 17.0496 108.71 16.002C108.71 14.9544 109.133 13.8917 109.962 13.2692C110.792 12.4342 111.848 12.2217 113.1 12.2217C113.824 12.2217 114.472 12.3583 115.061 12.6012C116.871 13.3451 117.896 15.4251 117.308 17.2925C117.112 17.9149 116.75 18.4311 116.237 18.9473C115.407 19.7823 114.352 19.9949 113.1 19.9949C111.848 19.7823 110.807 19.3572 109.962 18.7348ZM110.415 23.1527H115.558C116.041 23.1527 116.433 23.5475 116.433 24.0333V46.4875C116.433 46.9733 116.041 47.368 115.558 47.368H110.415C109.932 47.368 109.54 46.9733 109.54 46.4875V24.0485C109.54 23.5626 109.932 23.1679 110.415 23.1679V23.1527Z" fill="#602B7A"/>
<path d="M130.024 35.8451V46.5029C130.024 46.9887 129.632 47.3835 129.149 47.3835H124.005C123.523 47.3835 123.13 46.9887 123.13 46.5029V14.985C123.13 14.4992 123.523 14.1045 124.005 14.1045H129.149C129.632 14.1045 130.024 14.4992 130.024 14.985V31.0173C130.024 31.7915 130.944 32.1863 131.502 31.6549L140.009 23.6084C140.175 23.4566 140.387 23.3655 140.613 23.3655H146.541C147.325 23.3655 147.717 24.3068 147.174 24.8685L139.135 33.1276C138.833 33.4464 138.803 33.9474 139.074 34.2966L148.351 46.1537C148.803 46.7306 148.396 47.5808 147.657 47.5808H141.533C141.261 47.5808 141.005 47.4594 140.839 47.2468L131.593 35.2986C131.08 34.6306 130.024 34.9949 130.024 35.8451Z" fill="#602B7A"/>
<path d="M170.373 25.475C172.47 27.1602 173.3 29.893 173.3 33.4759V46.4869C173.3 46.9727 172.908 47.3675 172.425 47.3675H167.704C167.221 47.3675 166.829 46.9727 166.829 46.4869V44.4221C165.577 46.745 163.058 47.7926 159.513 47.7926C157.628 47.7926 156.164 47.58 154.701 46.9575C153.479 46.3351 152.454 45.5304 151.624 44.5132C151.579 44.4525 151.534 44.407 151.503 44.3462C150.9 43.3139 150.508 42.0841 150.508 40.6418C150.508 38.319 151.337 36.6338 153.012 35.3737C154.686 34.1136 157.19 33.4759 160.75 33.4759H165.441C165.969 33.4759 166.391 32.9901 166.316 32.4739C166.15 31.4263 165.728 30.5458 164.928 29.9081C164.099 29.0731 162.635 28.648 160.75 28.648C159.498 28.648 158.246 28.8606 156.979 29.2857C156.044 29.6045 155.214 30.0296 154.505 30.5002C154.113 30.7583 153.6 30.6369 153.313 30.2573L151.368 27.6005C151.096 27.2361 151.141 26.7199 151.473 26.4315C152.831 25.2473 154.46 24.3971 155.923 24.0175C157.809 23.5924 159.694 23.1825 161.564 23.1825C165.32 22.97 168.247 23.8201 170.343 25.5054L170.373 25.475ZM164.385 42.2663C165.154 41.6742 165.909 40.8847 166.15 39.9283C166.165 39.8372 166.18 39.7613 166.18 39.6702V38.152C166.18 37.6661 165.788 37.2714 165.305 37.2714H161.58C158.653 37.2714 157.19 38.1064 157.19 40.0042C157.19 40.8392 157.612 41.6894 158.231 42.1145C158.864 42.5396 159.905 42.9495 161.157 42.9495C162.364 43.1469 163.375 42.7673 164.204 42.3574C164.264 42.327 164.325 42.2967 164.37 42.2511H164.385V42.2663Z" fill="#602B7A"/>
</svg>
