<svg xmlns="http://www.w3.org/2000/svg" viewBox="0 0 102 153" role="img" aria-hidden="true"><g transform="translate(-101 -21)"><g transform="matrix(1 0 0 1 101 21)"><g transform="matrix(1 0 0 1 69.21551513671875 33.92219924926758)"><path d="M 0.5003966689109802 22.96161460876465 C 0.3403966724872589 22.96161460876465 0.19039682298898697 22.89161552488804 0.09039682149887085 22.751615524291992 C -0.06960317492485046 22.521615520119667 -0.00960424542427063 22.21161475777626 0.21039575338363647 22.05161476135254 L 9.810394287109375 15.311614036560059 C 11.350394248962402 14.231613993644714 12.230393830686808 12.611616253852844 12.290393829345703 10.741616249084473 L 13.460395812988281 2.9816160202026367 L 17.260395050048828 0.10161487013101578 C 17.480395048856735 -0.06838513165712357 17.790395811200142 -0.01838475465774536 17.96039581298828 0.20161524415016174 C 18.13039581477642 0.42161524295806885 18.080397337675095 0.7316160351037979 17.860397338867188 0.9016160368919373 L 14.380393981933594 3.5416154861450195 L 13.2803955078125 10.83161449432373 C 13.220395509153605 12.931614398956299 12.160393953323364 14.881614446640015 10.380393981933594 16.121614456176758 L 0.7803954482078552 22.861616134643555 C 0.6903954446315765 22.92161613330245 0.5903945341706276 22.951616287231445 0.4903945326805115 22.951616287231445 L 0.5003966689109802 22.96161460876465 Z" fill="#613182"/></g><g transform="matrix(1 0 0 1 6.1120476722717285 107.27241516113281)"><path d="M 0.5029807686805725 19.011316299438477 C 0.5029807686805725 19.011316299438477 0.46298079565167427 19.011316299438477 0.4429807960987091 19.011316299438477 C 0.17298078536987305 18.98131630010903 -0.02701925253495574 18.73131874203682 0.0029807467944920063 18.451318740844727 L 0.9229808449745178 10.821322441101074 L 1.672980785369873 12.121317863464355 C 1.7529807835817337 12.27131786942482 3.782980442047119 15.691316962242126 7.242980480194092 14.831316947937012 C 10.132980585098267 14.111316919326782 11.472981184720993 4.211317747831345 11.752981185913086 0.4613177478313446 C 11.772981185466051 0.19131773710250854 12.01298114657402 -0.018681326298974454 12.292981147766113 0.0013186732539907098 C 12.572981148958206 0.021318672806955874 12.772982139140368 0.2613196074962616 12.752982139587402 0.5413196086883545 C 12.642982140183449 2.001319646835327 11.59298038482666 14.791320323944092 7.492980480194092 15.811320304870605 C 4.672980546951294 16.511320292949677 2.6429805755615234 14.85132086277008 1.602980613708496 13.671320915222168 L 1.0129809379577637 18.581315994262695 C 0.9829809386283159 18.831315994262695 0.7629809975624084 19.021318435668945 0.5129809975624084 19.021318435668945 L 0.5029807686805725 19.011316299438477 Z" fill="#613182"/></g><g transform="matrix(1 0 0 1 27.864389419555664 110.586181640625)"><path d="M 2.3199996948242188 23.29155731201172 C 2.0899996906518936 23.29155731201172 1.8899999223649502 23.141560062766075 1.8299999237060547 22.91156005859375 L 0 15.441557884216309 L 1.1599998474121094 16.391563415527344 C 1.2899998426437378 16.501563414931297 4.399999618530273 18.991557598114014 7.319999694824219 16.9715576171875 C 9.789999723434448 15.271557569503784 8.169999897480011 4.571561813354492 7.329999923706055 0.6015617847442627 C 7.269999925047159 0.33156177401542664 7.449999302625656 0.0615616412833333 7.719999313354492 0.011561640538275242 C 7.989999324083328 -0.04843835812062025 8.259999465197325 0.1315610110759735 8.309999465942383 0.40156102180480957 C 8.629999458789825 1.93156099319458 11.339999437332153 15.411559343338013 7.8899993896484375 17.801559448242188 C 5.499999284744263 19.45155942440033 3.009998917579651 18.61155915260315 1.6199989318847656 17.871559143066406 L 2.799999237060547 22.681564331054688 C 2.86999923735857 22.951564341783524 2.7000003159046173 23.221562806516886 2.4300003051757812 23.28156280517578 C 2.390000306069851 23.28156280517578 2.349999465048313 23.29155731201172 2.309999465942383 23.29155731201172 L 2.3199996948242188 23.29155731201172 Z" fill="#613182"/></g><g transform="matrix(0.17654535174369812 -0.9842925071716309 0.9840981364250183 0.17762568593025208 2.348928689956665 105.37364959716797)"><path d="M 4.37999963760376 0 L 29.910001754760742 0 C 32.32900905609131 0 34.28999710083008 1.960993766784668 34.28999710083008 4.380001068115234 L 34.28999710083008 29.90999984741211 C 34.28999710083008 32.329007148742676 32.32900905609131 34.290000915527344 29.910001754760742 34.290000915527344 L 4.37999963760376 34.290000915527344 C 1.9609923362731934 34.290000915527344 0 32.329007148742676 0 29.90999984741211 L 0 4.380001068115234 C 0 1.960993766784668 1.9609923362731934 0 4.37999963760376 0 Z" fill="#613182"/></g><g transform="matrix(1 0 0 1 15.484295845031738 55.44709014892578)"><path d="M 22.88997459411621 30.121213912963867 C 22.659974589943886 30.121213912963867 22.42997406423092 30.101212538778782 22.199974060058594 30.06121253967285 L 3.149975061416626 26.631216049194336 C 1.0699751377105713 26.261216044425964 -0.31002504378557205 24.261213541030884 0.05997496098279953 22.191213607788086 L 3.4899752140045166 3.1412136554718018 C 3.669975221157074 2.131213665008545 4.229975402355194 1.2612125277519226 5.06997537612915 0.6812125444412231 C 5.909975349903107 0.10121256113052368 6.919974088668823 -0.11878637224435806 7.92997407913208 0.06121363490819931 L 26.97997283935547 3.4912121295928955 C 27.989972829818726 3.671212136745453 28.85997575521469 4.231213748455048 29.43997573852539 5.071213722229004 C 30.01997572183609 5.91121369600296 30.239974677562714 6.92121434211731 30.059974670410156 7.931214332580566 L 26.629974365234375 26.98121452331543 C 26.449974358081818 27.991214513778687 25.88997632265091 28.861213624477386 25.049976348876953 29.441213607788086 C 24.39997637271881 29.891213595867157 23.64997434616089 30.121213912963867 22.879974365234375 30.121213912963867 L 22.88997459411621 30.121213912963867 Z M 7.249974727630615 0.9912139177322388 C 6.679974734783173 0.9912139177322388 6.119975060224533 1.161214143037796 5.639975070953369 1.5012141466140747 C 5.019975066184998 1.931214153766632 4.60997499525547 2.58121395111084 4.469974994659424 3.321213960647583 L 1.0399744510650635 22.371213912963867 C 0.7599744498729706 23.901213884353638 1.7899751663208008 25.37121269106865 3.3199751377105713 25.651212692260742 L 22.36997413635254 29.081212997436523 C 23.109974145889282 29.22121299803257 23.859972834587097 29.051213920116425 24.47997283935547 28.621213912963867 C 25.09997284412384 28.19121390581131 25.509974822402 27.54121422767639 25.649974822998047 26.80121421813965 L 29.079975128173828 7.751214027404785 C 29.35997512936592 6.221214056015015 28.329976320266724 4.751211434602737 26.799976348876953 4.4712114334106445 L 7.749975681304932 1.0412131547927856 C 7.579975679516792 1.011213155463338 7.409975454211235 0.9912139177322388 7.239975452423096 0.9912139177322388 L 7.249974727630615 0.9912139177322388 Z" fill="#6553a3"/></g><g transform="matrix(1 0 0 1 12.976844787597656 22.02948760986328)"><g transform="matrix(1 0 0 1 0 0)"><g transform="matrix(1 0 0 1 0 0)"><g transform="matrix(1 0 0 1 0.9258336424827576 0.8968406319618225)"><path d="M 16.761260986328125 8.15999984741211 C 16.921260982751846 19.039999961853027 -0.16874005552381277 19.039999961853027 0.0012599462643265724 8.15999984741211 C -0.15874005015939474 -2.7200002670288086 16.931260988116264 -2.7200002670288086 16.761260986328125 8.15999984741211 Z" fill="#ffffff"/></g><g transform="matrix(1 0 0 1 0 0)"><path d="M 8.881285667419434 17.3125 C 7.161285638809204 17.3125 5.4512856006622314 16.88249933719635 3.981285572052002 16.032499313354492 C 1.36128568649292 14.502499341964722 -0.048714496311731637 11.882500171661377 0.0012855044333264232 8.65250015258789 C -0.048714496311731637 5.432500123977661 1.3712856769561768 2.8125 3.981285572052002 1.2825000286102295 C 6.911285638809204 -0.42750000953674316 10.851285219192505 -0.42750000953674316 13.781285285949707 1.2825000286102295 C 16.391285181045532 2.8125 17.81128578260541 5.43250036239624 17.76128578186035 8.662500381469727 C 17.801285780966282 11.892500400543213 16.391285181045532 14.512499570846558 13.781285285949707 16.042499542236328 C 12.321285247802734 16.902499556541443 10.601285696029663 17.322500228881836 8.881285667419434 17.322500228881836 L 8.881285667419434 17.3125 Z M 8.881285667419434 0.9925000667572021 C 7.341285705566406 0.9925000667572021 5.801285743713379 1.372499704360962 4.491285800933838 2.1424996852874756 C 2.2012858390808105 3.4824997186660767 0.9612850770354271 5.792500019073486 1.0012850761413574 8.642499923706055 C 0.9612850770354271 11.512499809265137 2.2012858390808105 13.822500348091125 4.491285800933838 15.162500381469727 C 7.121285915374756 16.702500343322754 10.651285171508789 16.702500343322754 13.281285285949707 15.162500381469727 C 15.571285247802734 13.822500348091125 16.811286009848118 11.512500047683716 16.771286010742188 8.65250015258789 C 16.811286009848118 5.782500267028809 15.571285247802734 3.4724994897842407 13.281285285949707 2.1324994564056396 C 11.971285343170166 1.362499475479126 10.431285858154297 0.9824998378753662 8.89128589630127 0.9824998378753662 L 8.881285667419434 0.9925000667572021 Z" fill="#6553a3"/></g></g><g transform="matrix(1 0 0 1 31.40416717529297 1.933903881479182e-8)"><g transform="matrix(1 0 0 1 0.9076798558235168 0.8968406319618225)"><path d="M 16.761259078979492 8.15999984741211 C 16.921259075403214 19.039999961853027 -0.16874005540739745 19.039999961853027 0.0012599463807418942 8.15999984741211 C -0.15874005004297942 -2.7200002670288086 16.93125908076763 -2.7200002670288086 16.761259078979492 8.15999984741211 Z" fill="#ffffff"/></g><g transform="matrix(1 0 0 1 0 0)"><path d="M 8.88128662109375 17.3125 C 7.1612865924835205 17.3125 5.451285123825073 16.88249933719635 3.9812850952148438 16.032499313354492 C 1.3612852096557617 14.502499341964722 -0.04871449584607035 11.882500171661377 0.0012855048989877105 8.65250015258789 C -0.04871449584607035 5.432500123977661 1.3712852001190186 2.8125 3.9812850952148438 1.2825000286102295 C 6.911285161972046 -0.42750000953674316 10.851284265518188 -0.42750000953674316 13.78128433227539 1.2825000286102295 C 16.391284227371216 2.8125 17.811283875256777 5.43250036239624 17.76128387451172 8.662500381469727 C 17.80128387361765 11.892500400543213 16.391284227371216 14.512499570846558 13.78128433227539 16.042499542236328 C 12.321284294128418 16.892499566078186 10.60128664970398 17.322500228881836 8.88128662109375 17.322500228881836 L 8.88128662109375 17.3125 Z M 8.88128662109375 0.9925000667572021 C 7.341286659240723 0.9925000667572021 5.801285266876221 1.372499704360962 4.49128532409668 2.1424996852874756 C 2.2012853622436523 3.4824997186660767 0.9612855538725853 5.792500019073486 1.0012855529785156 8.642499923706055 C 0.9612855538725853 11.512499809265137 2.2012853622436523 13.822500348091125 4.49128532409668 15.162500381469727 C 7.121285438537598 16.692500352859497 10.651284217834473 16.692500352859497 13.28128433227539 15.162500381469727 C 15.571284294128418 13.822500348091125 16.811286009848118 11.512500047683716 16.771286010742188 8.65250015258789 C 16.811286009848118 5.782500267028809 15.571284294128418 3.4724994897842407 13.28128433227539 2.1324994564056396 C 11.97128438949585 1.362499475479126 10.43128490447998 0.9824998378753662 8.891284942626953 0.9824998378753662 L 8.88128662109375 0.9925000667572021 Z" fill="#6553a3"/></g></g></g><g transform="matrix(1 0 0 1 10.406665802001953 8.708227157592773)"><path d="M 5.498435974121094 4.460373878479004 C 5.278435975313187 4.460373878479004 5.078436430543661 4.320373043417931 5.018436431884766 4.0903730392456055 C 4.2284364104270935 1.250373125076294 3.468435972929001 1.0103728864341974 3.2484359741210938 1.0003728866577148 C 2.5084359645843506 0.9703728873282671 1.428437203168869 2.8503739833831787 0.9684371948242188 4.130373954772949 C 0.8784371912479401 4.390373945236206 0.5884368419647217 4.520373195409775 0.32843685150146484 4.430373191833496 C 0.06843686103820801 4.340373188257217 -0.06156334839761257 4.050373792648315 0.028436655178666115 3.7903738021850586 C 0.25843665935099125 3.1503738164901733 1.5184369087219238 -0.039627098507480696 3.2884368896484375 0.0003729005984496325 C 4.408436894416809 0.04037289970437996 5.258437395095825 1.2603745460510254 5.978437423706055 3.8203744888305664 C 6.048437424004078 4.0903744995594025 5.898437052965164 4.360373422503471 5.628437042236328 4.440373420715332 C 5.588437043130398 4.450373420491815 5.538437653332949 4.460373878479004 5.488437652587891 4.460373878479004 L 5.498435974121094 4.460373878479004 Z" fill="#613182"/></g><g transform="matrix(1 0 0 1 43.07421875 8.909217834472656)"><path d="M 0.5024594664573669 4.350000381469727 C 0.4524594657123089 4.350000381469727 0.39245961979031563 4.3499996941536665 0.34245961904525757 4.319999694824219 C 0.08245962858200073 4.22999969124794 -0.05754007026553154 3.950000524520874 0.022459927946329117 3.690000534057617 C 0.8524599112570286 1.2100005149841309 1.7924612760543823 0 2.912461280822754 0 C 4.662461280822754 0 5.772458836436272 3.0800005197525024 5.972458839416504 3.690000534057617 C 6.062458842992783 3.950000524520874 5.912459135055542 4.22999969124794 5.652459144592285 4.319999694824219 C 5.392459154129028 4.409999698400497 5.112461894750595 4.259999990463257 5.022461891174316 4 C 4.622461885213852 2.7899999618530273 3.6724612712860107 0.9899997711181641 2.912461280822754 0.9899997711181641 C 2.632461279630661 0.9899997711181641 1.8824607133865356 1.2799999713897705 0.9724606871604919 4 C 0.9024606868624687 4.209999993443489 0.7024594694375992 4.340000152587891 0.5024594664573669 4.340000152587891 L 0.5024594664573669 4.350000381469727 Z" fill="#613182"/></g></g><g transform="matrix(1 0 0 1 30.9685001373291 66.08390808105469)"><path d="M 2.8600006103515625 0 L 5.819999694824219 0.529998779296875 L 3.4099998474121094 13.950000762939453 L 11.730001449584961 15.439998626708984 L 11.280000686645508 17.939998626708984 L 0 15.919998168945312 L 2.8600006103515625 0 Z" fill="#ffffff"/></g><g transform="matrix(1 0 0 1 0.010584951378405094 24.98293685913086)"><path d="M 8.344169616699219 27.740610122680664 C 8.184169620275497 27.740610122680664 8.024168588221073 27.66061271727085 7.924168586730957 27.520612716674805 L 0.9541689157485962 17.0006103515625 C -0.08583104610443115 15.430610299110413 -0.2858310639858246 13.550611734390259 0.4041689336299896 11.850611686706543 L 3.3341689109802246 4.630612373352051 L 1.434169054031372 0.7206114530563354 C 1.314169056713581 0.47061145305633545 1.4141689538955688 0.17061233147978783 1.6641689538955688 0.05061233416199684 C 1.9141689538955688 -0.06938766315579414 2.2141689136624336 0.030611872673034668 2.3341689109802246 0.28061187267303467 L 4.434168815612793 4.590611457824707 L 1.3341690301895142 12.220612525939941 C 0.7741690278053284 13.610612511634827 0.9341689348220825 15.15061092376709 1.7941689491271973 16.440610885620117 L 8.774168968200684 26.96061134338379 C 8.924168974161148 27.190611347556114 8.864169582724571 27.50060996413231 8.634169578552246 27.650609970092773 C 8.554169580340385 27.71060996875167 8.454168893396854 27.73061180114746 8.354168891906738 27.73061180114746 L 8.344169616699219 27.740610122680664 Z" fill="#613182"/></g><g transform="matrix(1 0 0 1 45.472503662109375 5.426565647125244)"><path d="M 6.560001373291016 3.2800002098083496 L 4.190000534057617 4.110000133514404 L 3.280000686645508 6.559999942779541 L 2.4200000762939453 4.159999847412109 L 0 3.2800002098083496 L 2.450000762939453 2.369999885559082 L 3.280000686645508 0 L 4.159999847412109 2.4200000762939453 L 6.560001373291016 3.2800002098083496 Z" fill="#613182"/></g><g transform="matrix(1 0 0 1 67.36466217041016 0)"><path d="M 3.729999542236328 1.8700000047683716 L 2.3800010681152344 2.3399999141693115 L 1.8600006103515625 3.740000009536743 L 1.3800010681152344 2.369999885559082 L 0 1.8700000047683716 L 1.3899993896484375 1.350000023841858 L 1.8600006103515625 0 L 2.3699989318847656 1.3799999952316284 L 3.729999542236328 1.8700000047683716 Z" fill="#613182"/></g><g transform="matrix(1 0 0 1 75.95088958740234 7.174720287322998)"><path d="M 6.490001678466797 13.059999465942383 L 4.790000915527344 8.289999008178711 L 0 6.539999485015869 L 4.829998016357422 4.749999523162842 L 6.5 0 L 8.259998321533203 4.830000400543213 L 13.069999694824219 6.549999713897705 L 8.299999237060547 8.219999313354492 L 6.5 13.059999465942383 L 6.490001678466797 13.059999465942383 Z M 2.8899993896484375 6.539999485015869 L 5.569999694824219 7.519999980926514 L 6.509998321533203 10.139999389648438 L 7.520000457763672 7.429999828338623 L 10.060001373291016 6.539999485015869 L 7.470001220703125 5.62000036239624 L 6.509998321533203 2.9800000190734863 L 5.6100006103515625 5.539999485015869 L 2.8899993896484375 6.549999713897705 L 2.8899993896484375 6.539999485015869 Z" fill="#613182"/></g><g transform="matrix(1 0 0 1 21.410154342651367 56.17748260498047)"><path d="M 0.3855237066745758 0.00011769302363973111 L 21.6655216217041 0.590117871761322 C 21.95552161335945 0.590117871761322 22.155522227287292 0.9601157605648041 22.025522232055664 1.2501157522201538 C 21.33552223443985 2.7801157236099243 15.835522651672363 6.1201187670230865 12.755522727966309 6.460118770599365 C 7.205522537231445 7.07011878490448 3.9055239409208298 2.9901179671287537 0.22552387416362762 0.840117871761322 C -0.14447613060474396 0.6201178729534149 -0.034476518630981445 -0.009882306752842851 0.37552347779273987 0.00011769302363973111 L 0.3855237066745758 0.00011769302363973111 Z" fill="#ffd441"/></g></g></g></svg>
