<svg xmlns="http://www.w3.org/2000/svg" viewBox="0 0 146 132" role="img" aria-hidden="true"><g transform="translate(-64.666015625 -36)"><g transform="matrix(-1 0 0 1 210.666015625 36)"><g transform="matrix(1 0 0 1 36.2366828918457 88.3376235961914)"><path d="M 0.502044677734375 22.14640998840332 C 0.27204467356204987 22.14640998840332 0.06204489804804325 21.986410602927208 0.012044897302985191 21.756410598754883 C -0.0479551013559103 21.486410588026047 0.12204405665397644 21.216412123292685 0.3920440673828125 21.15641212463379 L 7.28204345703125 19.636415481567383 C 6.9920434653759 18.256415486335754 6.262043535709381 14.316410779953003 6.702043533325195 11.346410751342773 C 7.222043514251709 7.766410827636719 11.712042391300201 0.5364102572202682 11.902042388916016 0.2364102452993393 C 12.05204239487648 0.00641024112701416 12.36204482614994 -0.07358961552381516 12.592044830322266 0.07641039043664932 C 12.82204483449459 0.2264103963971138 12.90204468369484 0.536412850022316 12.752044677734375 0.7664128541946411 C 12.702044676989317 0.8364128544926643 8.182043313980103 8.116412162780762 7.692043304443359 11.49641227722168 C 7.192043304443359 14.896412372589111 8.352043610066175 19.85641212388873 8.37204360961914 19.90641212463379 L 8.492044448852539 20.39640998840332 L 0.6120433807373047 22.126413345336914 C 0.6120433807373047 22.126413345336914 0.5420446768403053 22.136415481567383 0.502044677734375 22.136415481567383 L 0.502044677734375 22.14640998840332 Z" fill="#613182"/></g><g transform="matrix(1 0 0 1 63.94448471069336 89.98518371582031)"><path d="M 6.4698405265808105 24.50545883178711 C 6.34984052926302 24.50545883178711 6.229840375483036 24.46546158194542 6.12984037399292 24.37546157836914 L 1.2498390674591064 19.825458526611328 L 1.4698402881622314 19.475460052490234 C 1.4698402881622314 19.475460052490234 3.169839084148407 16.715460300445557 3.9998390674591064 12.195460319519043 C 4.819839060306549 7.775460243225098 0.13983925804495811 0.8454588130116463 0.08983925729990005 0.775458812713623 C -0.07016073912382126 0.5454588085412979 -0.010159686207771301 0.23546017706394196 0.21984031796455383 0.08546017110347748 C 0.44984032213687897 -0.064539834856987 0.7598389685153961 -0.014538764953613281 0.9098389744758606 0.21546123921871185 C 1.1098389774560928 0.5154612511396408 5.869838833808899 7.555462837219238 4.979838848114014 12.385462760925293 C 4.269838869571686 16.195462703704834 3.0198395252227783 18.755460381507874 2.5198395252227783 19.655460357666016 L 6.809840679168701 23.645458221435547 C 7.009840682148933 23.83545821905136 7.019841134548187 24.145457312464714 6.829841136932373 24.355457305908203 C 6.729841135442257 24.465457305312157 6.599842205643654 24.515460968017578 6.459842205047607 24.515460968017578 L 6.4698405265808105 24.50545883178711 Z" fill="#613182"/></g><g transform="matrix(1 0 0 1 78.59427642822266 43.34736633300781)"><path d="M 11.341615676879883 14.627320289611816 C 10.77161568403244 14.627320289611816 10.17161476612091 14.367321491241455 9.551614761352539 13.847321510314941 C 7.041614770889282 11.75732159614563 5.461615204811096 8.877321481704712 4.071615219116211 6.327321529388428 C 2.8616151809692383 4.117321491241455 1.7216164469718933 2.0373209714889526 0.20161646604537964 0.8973209857940674 C -0.018383532762527466 0.727320984005928 -0.06838581711053848 0.41732025146484375 0.10161418467760086 0.19732025265693665 C 0.2716141864657402 -0.02267974615097046 0.5816149413585663 -0.06268012523651123 0.8016149401664734 0.09731987118721008 C 2.4916149973869324 1.3673198521137238 3.6816141605377197 3.5473201274871826 4.941614151000977 5.847320079803467 C 6.361614108085632 8.437319993972778 7.821615934371948 11.10732102394104 10.181615829467773 13.07732105255127 C 11.081615805625916 13.82732105255127 11.551614612340927 13.607320137321949 11.711614608764648 13.537320137023926 C 13.471614599227905 12.747320115566254 14.311613693833351 6.707321405410767 14.421613693237305 3.0873215198516846 L 14.421613693237305 2.727320909500122 L 20.191614151000977 1.0873215198516846 C 20.451614141464233 1.0173215195536613 20.731616899371147 1.1673197746276855 20.811616897583008 1.4273197650909424 C 20.89161689579487 1.6973197758197784 20.73161292076111 1.9673206061124802 20.47161293029785 2.047320604324341 L 15.411615371704102 3.487321138381958 C 15.321615368127823 5.467321157455444 14.811614513397217 13.247322082519531 12.121614456176758 14.457322120666504 C 11.871614456176758 14.567322120070457 11.60161566734314 14.627320289611816 11.341615676879883 14.627320289611816 Z" fill="#613182"/></g><g transform="matrix(0.9699383974075317 -0.24335044622421265 0.24050070345401764 0.9706490635871887 20.123937606811523 45.124000549316406)"><path d="M 4.380000114440918 0 L 29.90999984741211 0 C 32.329007148742676 0 34.290000915527344 1.960993766784668 34.290000915527344 4.380001068115234 L 34.290000915527344 29.90999984741211 C 34.290000915527344 32.329007148742676 32.329007148742676 34.290000915527344 29.90999984741211 34.290000915527344 L 4.380000114440918 34.290000915527344 C 1.9609928131103516 34.290000915527344 0 32.329007148742676 0 29.90999984741211 L 0 4.380001068115234 C 0 1.960993766784668 1.9609928131103516 0 4.380000114440918 0 Z" fill="#613182"/></g><g transform="matrix(1 0 0 1 33.77681350708008 40.46962356567383)"><path d="M 8.495786666870117 31.11578941345215 C 7.805786669254303 31.11578941345215 7.135787129402161 30.92578637599945 6.535787105560303 30.565786361694336 C 5.655787110328674 30.035786390304565 5.045787334442139 29.205787897109985 4.795787334442139 28.215787887573242 L 0.11578717082738876 9.435789108276367 C -0.13421282917261124 8.445789098739624 0.02578747272491455 7.415787100791931 0.5457874536514282 6.535787105560303 C 1.0757874250411987 5.655787110328674 1.9057860374450684 5.045787334442139 2.8957860469818115 4.795787334442139 L 21.6757869720459 0.11578717082738876 C 22.66578698158264 -0.13421282917261124 23.695788502693176 0.02578747272491455 24.575788497924805 0.5457874536514282 C 25.455788493156433 1.0757874250411987 26.065786361694336 1.9057879447937012 26.315786361694336 2.8957879543304443 L 30.995786666870117 21.6757869720459 C 31.505786657333374 23.725786924362183 30.255785703659058 25.80578637123108 28.205785751342773 26.315786361694336 L 9.425786972045898 30.995786666870117 C 9.115786969661713 31.075786665081978 8.805786669254303 31.10578727722168 8.495786666870117 31.10578727722168 L 8.495786666870117 31.11578941345215 Z M 22.60578727722168 1.0057884454727173 C 22.375787273049355 1.0057884454727173 22.14578865468502 1.0357885994017124 21.915788650512695 1.095788598060608 L 3.1357858180999756 5.775786876678467 C 2.4057857990264893 5.955786883831024 1.7857859134674072 6.4157878160476685 1.395785927772522 7.0657877922058105 C 1.0057859420776367 7.715787768363953 0.8957862257957458 8.475789546966553 1.0757862329483032 9.205789566040039 L 5.755786418914795 27.985788345336914 C 5.935786426067352 28.7157883644104 6.395787358283997 29.335790038108826 7.045787334442139 29.72579002380371 C 7.695787310600281 30.115790009498596 8.455787181854248 30.225789725780487 9.185787200927734 30.04578971862793 L 27.965787887573242 25.36578941345215 C 29.4757878780365 24.98578941822052 30.395785450935364 23.455787420272827 30.025785446166992 21.94578742980957 L 25.34578514099121 3.165788412094116 C 25.165785133838654 2.43578839302063 24.705788016319275 1.8157885074615479 24.055788040161133 1.4257885217666626 C 23.60578805208206 1.1557885110378265 23.115787267684937 1.0257869958877563 22.60578727722168 1.0257869958877563 L 22.60578727722168 1.0057884454727173 Z" fill="#6553a3"/></g><g transform="matrix(1 0 0 1 15.602102279663086 9.115039825439453)"><g transform="matrix(1 0 0 1 0 0)"><g transform="matrix(1 0 0 1 -0.000001213560040014272 7.680997371673584)"><g transform="matrix(1 0 0 1 0.880525529384613 0.8666913509368896)"><path d="M 16.546051025390625 6.038080215454102 C 19.516051054000854 16.498080253601074 3.006052166223526 20.91808032989502 0.35605207085609436 10.378080368041992 C -2.613947957754135 -0.08191967010498047 13.896050930023193 -4.501919746398926 16.546051025390625 6.038080215454102 Z" fill="#ffffff"/></g><g transform="matrix(1 0 0 1 0 0)"><path d="M 8.572848320007324 17.423583984375 C 7.742848336696625 17.423583984375 6.922849237918854 17.32358428835869 6.132849216461182 17.10358428955078 C 3.2128491401672363 16.303584277629852 1.162848800420761 14.133584022521973 0.372848778963089 11.003583908081055 C -0.5071512162685394 7.903584003448486 0.18284916877746582 5.003583908081055 2.312849283218384 2.853583812713623 C 4.702849388122559 0.44358372688293457 8.502849102020264 -0.5764158666133881 11.772849082946777 0.32358410954475403 C 14.692849159240723 1.123584121465683 16.732850253582 3.283583164215088 17.53285026550293 6.413583278656006 C 18.412850260734558 9.523583173751831 17.722848892211914 12.423585414886475 15.592848777770996 14.573585510253906 C 13.782848834991455 16.40358555316925 11.162848234176636 17.423583984375 8.572848320007324 17.423583984375 Z M 9.33284854888916 0.9935842156410217 C 7.012848615646362 0.9935842156410217 4.652848601341248 1.913584589958191 3.032848596572876 3.553584575653076 C 1.1628485918045044 5.433584570884705 0.5628490447998047 7.993585586547852 1.3428490161895752 10.743585586547852 C 2.0428490042686462 13.533585548400879 3.8428497314453125 15.443585216999054 6.4028496742248535 16.143585205078125 C 9.342849731445312 16.943585216999054 12.752847909927368 16.03358483314514 14.892848014831543 13.873584747314453 C 16.762848019599915 11.993584752082825 17.362849473953247 9.433583736419678 16.582849502563477 6.683583736419678 C 15.882849514484406 3.9035837650299072 14.092849254608154 1.9835841059684753 11.532849311828613 1.2835841178894043 C 10.822849333286285 1.09358412027359 10.08284878730774 0.9935842156410217 9.342848777770996 0.9935842156410217 L 9.33284854888916 0.9935842156410217 Z" fill="#6553a3"/></g></g><g transform="matrix(1 0 0 1 28.47076416015625 -8.012770535970049e-7)"><g transform="matrix(1 0 0 1 0.8805244565010071 0.8666916489601135)"><path d="M 16.546052932739258 6.038079738616943 C 19.516052961349487 16.498079776763916 3.006052166223526 20.91808032989502 0.35605207085609436 10.378080368041992 C -2.613947957754135 -0.08191967010498047 13.896052837371826 -4.501920223236084 16.546052932739258 6.038079738616943 Z" fill="#ffffff"/></g><g transform="matrix(1 0 0 1 0 0)"><path d="M 8.572847366333008 17.423583984375 C 7.742847383022308 17.423583984375 6.922849237918854 17.32358428835869 6.132849216461182 17.10358428955078 C 3.2128491401672363 16.303584277629852 1.162848800420761 14.133584022521973 0.372848778963089 11.003583908081055 C -0.5071512162685394 7.903584003448486 0.18284916877746582 5.003584384918213 2.312849283218384 2.8535842895507812 C 4.702849388122559 0.4435842037200928 8.502848148345947 -0.5764159262180328 11.772848129272461 0.32358404994010925 C 14.692848205566406 1.1235840618610382 16.732850253582 3.283583641052246 17.53285026550293 6.413583755493164 C 18.412850260734558 9.52358365058899 17.722847938537598 12.413583517074585 15.59284782409668 14.573583602905273 C 13.782847881317139 16.403583645820618 11.16284728050232 17.423583984375 8.572847366333008 17.423583984375 Z M 9.332849502563477 0.9935840964317322 C 7.012849569320679 0.9935840964317322 4.652848601341248 1.9135841131210327 3.032848596572876 3.553584098815918 C 1.1628485918045044 5.443584084510803 0.5628480911254883 7.993583679199219 1.3428480625152588 10.743583679199219 C 2.04284805059433 13.533583641052246 3.8428497314453125 15.443583309650421 6.4028496742248535 16.143583297729492 C 9.342849731445312 16.94358330965042 12.752846956253052 16.03358483314514 14.892847061157227 13.873584747314453 C 16.762847065925598 11.993584752082825 17.362849473953247 9.433584213256836 16.582849502563477 6.683584213256836 C 15.882849514484406 3.9035842418670654 14.09285020828247 1.9835841059684753 11.53285026550293 1.2835841178894043 C 10.822850286960602 1.09358412027359 10.082847833633423 0.9935840964317322 9.34284782409668 0.9935840964317322 L 9.332849502563477 0.9935840964317322 Z" fill="#6553a3"/></g></g></g><g transform="matrix(1 0 0 1 12.168375015258789 9.948140144348145)"><g transform="matrix(1 0 0 1 28.47077178955078 8.047582582548785e-7)"><g transform="matrix(1 0 0 1 0 0)"><path d="M 3.7310116291046143 2.4712562561035156 C 4.851011633872986 6.501256465911865 1.0610112100839615 7.101255893707275 0.21101118624210358 3.4112558364868164 C -0.8989888280630112 -0.1987440586090088 2.68101167678833 -1.5887436866760254 3.7310116291046143 2.4712562561035156 Z" fill="#613182"/></g><g transform="matrix(1 0 0 1 0.13802370429039001 4.509357929229736)"><path d="M 1.6599998474121094 0.37113848328590393 C 1.749999850988388 0.7211384773254395 1.1699984669685364 1.2011386454105377 0.34999847412109375 1.4211386442184448 C 0.1799984723329544 1.0111386477947235 0.05000000074505806 0.5311389937996864 0 0.10113898664712906 C 0.8199999928474426 -0.10886100679636002 1.5699998438358307 0.021138489246368408 1.6599998474121094 0.37113848328590393 Z" fill="#ffffff"/></g></g><g transform="matrix(1 0 0 1 3.5911727991333464e-7 7.663851737976074)"><g transform="matrix(1 0 0 1 0 0)"><path d="M 3.7310116291046143 2.4712557792663574 C 4.851011633872986 6.501255989074707 1.0610112100839615 7.101256370544434 0.21101118624210358 3.4112563133239746 C -0.8989888280630112 -0.19874358177185059 2.68101167678833 -1.5887441635131836 3.7310116291046143 2.4712557792663574 Z" fill="#613182"/></g><g transform="matrix(1 0 0 1 0.13802753388881683 4.5265045166015625)"><path d="M 1.6600017547607422 0.37113919854164124 C 1.7500017583370209 0.7211391925811768 1.1700003743171692 1.2011384069919586 0.35000038146972656 1.4211384057998657 C 0.18000037968158722 1.0111384093761444 0.05000000074505806 0.5311387553811073 0 0.10113874822854996 C 0.8199999928474426 -0.10886124521493912 1.5700017511844635 0.021139204502105713 1.6600017547607422 0.37113919854164124 Z" fill="#ffffff"/></g></g></g></g><g transform="matrix(-0.8871135115623474 0.461551308631897 0.461551308631897 0.8871135115623474 65.7771224975586 49.751834869384766)"><path d="M 0.010000228881835938 0.7299995422363281 L 2.9200000762939453 0 L 6.220001220703125 13.229999542236328 L 14.420001983642578 11.180000305175781 L 15.040000915527344 13.64999771118164 L 3.920001983642578 16.43000030517578 L 0 0.7399978637695312 L 0.010000228881835938 0.7299995422363281 Z" fill="#ffffff"/></g><g transform="matrix(1 0 0 1 0.0020267132204025984 52.538978576660156)"><path d="M 5.2288103103637695 19.976242065429688 L 0.2388104796409607 16.896244049072266 C -0.0011895149946212769 16.7462440431118 -0.0711895227432251 16.446241602301598 0.07881048321723938 16.206241607666016 C 0.22881048917770386 15.97624160349369 0.5288104563951492 15.896241754293442 0.7688104510307312 16.046241760253906 L 5.258810520172119 18.816242218017578 C 14.078810214996338 13.77624225616455 18.53880973905325 0.47624197602272034 18.57880973815918 0.3462419807910919 C 18.66880974173546 0.08624199032783508 18.948808908462524 -0.06375773064792156 19.20880889892578 0.026242272928357124 C 19.468808889389038 0.11624227650463581 19.608810499310493 0.3962414264678955 19.528810501098633 0.6562414169311523 C 19.33881050348282 1.226241409778595 14.818809986114502 14.716242790222168 5.488810062408447 19.83624267578125 L 5.2288103103637695 19.976242065429688 Z" fill="#613182"/></g><g transform="matrix(1 0 0 1 89.63938903808594 7.76285457611084)"><g transform="matrix(1 0 0 1 5.953676700592041 1.180116200316661e-7)"><g transform="matrix(1 0 0 1 0.8493406772613525 0.8923041224479675)"><path d="M 4.84623384475708 18.701812744140625 C 5.736233830451965 17.881812751293182 7.236231863498688 15.431813955307007 6.926231861114502 14.461813926696777 C 6.13623183965683 11.95181393623352 5.376232624053955 9.43181324005127 4.626232624053955 6.911813259124756 C 4.356232613325119 6.001813232898712 3.7462345957756042 5.371813356876373 3.046234607696533 4.791813373565674 C 2.0762345790863037 3.981813371181488 1.1062347143888474 3.1618130803108215 0.13623468577861786 2.341813087463379 C -0.013765320181846619 2.221813090145588 -0.03376546502113342 2.1118129938840866 0.046234533190727234 1.9418129920959473 C 0.406234547495842 1.0918129682540894 1.0962347984313965 0.7118130289018154 1.976234793663025 0.6518130302429199 C 3.2562347650527954 0.5618130266666412 4.4062336683273315 0.9818133115768433 5.5062336921691895 1.5818133354187012 C 6.616233706474304 2.191813349723816 7.416232585906982 3.1118133068084717 8.146232604980469 4.1218132972717285 C 8.946232616901398 5.2418133020401 9.776235938072205 6.3418132066726685 10.626235961914062 7.4918131828308105 L 10.936233520507812 7.181812763214111 C 13.026233434677124 5.071812868118286 15.126232385635376 2.961812973022461 17.216232299804688 0.8418130874633789 C 17.69623228907585 0.35181307792663574 18.256230175495148 0.031813440029509366 18.95623016357422 0.0018134407000616193 C 20.246230125427246 -0.04818656004499644 21.24623565748334 0.9418132305145264 21.19623565673828 2.221813201904297 C 21.176235657185316 2.641813188791275 21.106236267834902 3.071812927722931 21.056236267089844 3.521812915802002 C 21.40623626112938 3.421812914311886 21.73623290657997 3.3318131864070892 22.07623291015625 3.2418131828308105 C 23.016232907772064 3.0018131881952286 23.81623136997223 3.221813201904297 24.426231384277344 3.9918131828308105 C 25.006231367588043 4.721813201904297 25.056234747171402 5.521813094615936 24.656234741210938 6.361813068389893 C 24.52623474597931 6.6418130695819855 24.376230165362358 6.921813637018204 24.20623016357422 7.261813640594482 C 24.556230157613754 7.3118136413395405 24.886230170726776 7.351813029497862 25.20623016357422 7.40181303024292 C 26.20623016357422 7.561813026666641 26.91623291373253 8.25181394815445 27.07623291015625 9.211813926696777 C 27.186232909560204 9.881813943386078 26.986235052347183 10.471813142299652 26.58623504638672 11.011813163757324 C 26.436235040426254 11.211813166737556 26.30623047053814 11.411814466118813 26.13623046875 11.651814460754395 C 26.406230479478836 11.741814464330673 26.63623046875 11.831814002245665 26.88623046875 11.881814002990723 C 28.676230430603027 12.31181401014328 29.206233859062195 14.411814332008362 27.866233825683594 15.73181438446045 C 25.046233892440796 18.521814346313477 22.26623225212097 21.37181258201599 19.466232299804688 24.19181251525879 C 18.646232306957245 25.02181249856949 17.6762353181839 25.52181351184845 16.5162353515625 25.651813507080078 C 16.286235347390175 25.681813506409526 16.046235039830208 25.721813581883907 15.836235046386719 25.821813583374023 C 15.686235040426254 25.891813583672047 12.696229554712772 29.291811522096395 12.596229553222656 29.2318115234375 Z" fill="#ffffff"/></g><g transform="matrix(1 0 0 1 0 0)"><path d="M 13.06472396850586 30.272254943847656 C 12.97472396492958 30.272254943847656 12.904729463160038 30.232256468385458 12.804729461669922 30.172256469726562 L 13.054729461669922 29.74225616455078 L 12.794727325439453 29.322254180908203 C 12.97472733259201 29.182254180312157 13.944722771644592 28.112256228923798 14.594722747802734 27.412256240844727 C 15.934722781181335 25.942256212234497 15.954722747206688 25.93225532397628 16.094722747802734 25.872255325317383 C 16.32472275197506 25.772255323827267 16.5947245657444 25.702256239950657 16.924724578857422 25.662256240844727 C 17.944724559783936 25.552256241440773 18.81472611427307 25.122254848480225 19.574726104736328 24.35225486755371 L 21.984722137451172 21.912256240844727 C 23.974722146987915 19.892256259918213 25.964727640151978 17.88225555419922 27.974727630615234 15.882255554199219 C 28.48472762107849 15.372255563735962 28.684728547930717 14.692256093025208 28.514728546142578 14.072256088256836 C 28.34472854435444 13.472256064414978 27.874727606773376 13.032255560159683 27.224727630615234 12.882255554199219 C 27.044727623462677 12.842255555093288 26.874726712703705 12.782255705446005 26.68472671508789 12.72225570678711 L 25.794727325439453 12.432254791259766 L 26.334728240966797 11.65225601196289 C 26.44472824037075 11.502256006002426 26.534725800156593 11.362255707383156 26.644725799560547 11.22225570678711 C 26.994725793600082 10.752255707979202 27.124727323651314 10.302255630493164 27.044727325439453 9.802255630493164 C 26.924727328121662 9.052255630493164 26.37472826242447 8.532256007194519 25.584728240966797 8.40225601196289 C 25.36472824215889 8.36225601285696 25.13472793996334 8.332255629822612 24.904727935791016 8.302255630493164 L 23.904727935791016 8.16225528717041 L 24.384723663330078 7.222256183624268 C 24.484723664820194 7.022256180644035 24.584722444415092 6.842256486415863 24.664722442626953 6.652256488800049 C 24.994722455739975 5.9722564816474915 24.934724271297455 5.362256348133087 24.49472427368164 4.812256336212158 C 24.024724274873734 4.222256362438202 23.434722423553467 4.042256638407707 22.664722442626953 4.2422566413879395 C 22.434722438454628 4.302256640046835 22.214722141623497 4.362256221473217 21.984722137451172 4.43225622177124 L 20.94472885131836 4.722256183624268 L 21.084728240966797 3.5422558784484863 C 21.124728240072727 3.2622558772563934 21.154724579304457 2.9922559559345245 21.174724578857422 2.7122559547424316 C 21.194724578410387 2.2322559654712677 21.03472548723221 1.7922562956809998 20.714725494384766 1.482256293296814 C 20.394725501537323 1.1622563004493713 19.93472334742546 0.9922560267150402 19.454723358154297 1.0122560262680054 C 18.934723377227783 1.0322560258209705 18.494727313518524 1.2522560954093933 18.044727325439453 1.7022560834884644 L 11.044727325439453 8.772255897521973 L 9.93472671508789 7.272256374359131 C 9.354726731777191 6.482256352901459 8.774725496768951 5.712256193161011 8.214725494384766 4.93225622177124 C 7.594725489616394 4.082256197929382 6.824723839759827 3.122256100177765 5.744723796844482 2.5322561264038086 C 4.514723777770996 1.862256109714508 3.5047237873077393 1.5922561213374138 2.4947237968444824 1.662256121635437 C 1.774723768234253 1.712256122380495 1.3047248423099518 1.9922561049461365 1.0347248315811157 2.5522561073303223 C 1.494724839925766 2.9422560930252075 1.9447236359119415 3.3222557306289673 2.404723644256592 3.7022557258605957 C 2.8847236335277557 4.112255722284317 3.374724417924881 4.52225598692894 3.854724407196045 4.922255992889404 C 4.534724414348602 5.48225599527359 5.26472607254982 6.212256550788879 5.594726085662842 7.282256603240967 C 6.344726085662842 9.80225658416748 7.1047253012657166 12.322256326675415 7.894725322723389 14.832256317138672 C 8.30472531914711 16.142256259918213 6.554724097251892 18.782256543636322 5.674724102020264 19.592256546020508 L 4.994723796844482 18.85225486755371 C 5.8947237730026245 18.02225488424301 7.144724562764168 15.772255301475525 6.9447245597839355 15.122255325317383 C 6.154724538326263 12.612255334854126 5.394725322723389 10.082256317138672 4.644725322723389 7.562256336212158 C 4.394725322723389 6.742256343364716 3.8147271275520325 6.172256231307983 3.224727153778076 5.68225622177124 C 2.734727144241333 5.272256225347519 2.254724383354187 4.862255722284317 1.7647243738174438 4.452255725860596 C 1.28472438454628 4.042255729436874 0.7947235703468323 3.632256418466568 0.31472358107566833 3.2322564125061035 C 0.09472358226776123 3.052256405353546 -0.12527596205472946 2.732256382703781 0.08472403138875961 2.252256393432617 C 0.4947240278124809 1.2922564148902893 1.304726243019104 0.7422561198472977 2.4347262382507324 0.662256121635437 C 4.014726281166077 0.542256124317646 5.354725480079651 1.1722559034824371 6.234725475311279 1.652255892753601 C 7.494725465774536 2.3422558903694153 8.354725182056427 3.4022560715675354 9.034725189208984 4.34225606918335 C 9.59472519159317 5.12225604057312 10.164724290370941 5.892256021499634 10.74472427368164 6.672255992889404 L 11.164722442626953 7.2322564125061035 L 17.344722747802734 0.9922560453414917 C 17.964722752571106 0.3622560501098633 18.64472460746765 0.04225629009306431 19.424724578857422 0.00225629098713398 C 20.194724559783936 -0.027743708342313766 20.904724597930908 0.2422560453414917 21.424724578857422 0.7622560262680054 C 21.944724559783936 1.282256007194519 22.214724577963352 1.9822561740875244 22.174724578857422 2.7422561645507812 C 22.174724578857422 2.9422561675310135 22.144729156047106 3.1422560662031174 22.12472915649414 3.3422560691833496 C 22.224729157984257 3.312256069853902 22.324724577367306 3.2922561448067427 22.424724578857422 3.262256145477295 C 23.58472454547882 2.972256153821945 24.574725210666656 3.282256245613098 25.284725189208984 4.18225622177124 C 25.96472519636154 5.042256236076355 26.06472611427307 6.042256593704224 25.574726104736328 7.072256565093994 C 25.534726105630398 7.162256568670273 25.48472671583295 7.262256294488907 25.43472671508789 7.3522562980651855 C 25.544726714491844 7.372256297618151 25.644726410508156 7.382256489247084 25.75472640991211 7.402256488800049 C 26.964726448059082 7.592256486415863 27.84472519159317 8.452255368232727 28.034725189208984 9.622255325317383 C 28.154725186526775 10.38225531578064 27.964723348617554 11.11225563287735 27.454723358154297 11.802255630493164 C 27.43472335860133 11.82225563004613 27.414727935567498 11.852255325764418 27.404727935791016 11.872255325317383 C 27.42472793534398 11.872255325317383 27.4447254948318 11.882255783304572 27.464725494384766 11.892255783081055 C 28.464725494384766 12.132255777716637 29.214722126722336 12.842255413532257 29.484722137451172 13.792255401611328 C 29.754722148180008 14.772255420684814 29.454726696014404 15.822256326675415 28.68472671508789 16.582256317138672 C 26.674726724624634 18.572256326675415 24.684728860855103 20.582254886627197 22.69472885131836 22.60225486755371 L 20.284725189208984 25.042255401611328 C 19.364725172519684 25.96225541830063 18.274725198745728 26.50225578248501 17.034725189208984 26.642255783081055 C 16.84472519159317 26.66225578263402 16.68472945690155 26.70225616544485 16.554729461669922 26.74225616455078 C 16.374729454517365 26.91225616633892 15.804728239774704 27.542255878448486 15.334728240966797 28.062255859375 C 13.724728226661682 29.822255849838257 13.334723979234695 30.252254486083984 13.06472396850586 30.252254486083984 L 13.06472396850586 30.272254943847656 Z" fill="#613182"/></g></g><g transform="matrix(0.7015413045883179 -0.7126288414001465 0.7082263231277466 0.705985426902771 -0.0000016333085568476235 40.83816909790039)"><path d="M 0.9099998474121094 0 L 9.680004119873047 0 C 10.182583212852478 0 10.59000015258789 0.4074207544326782 10.59000015258789 0.9099998474121094 L 10.59000015258789 17.21000099182129 C 10.59000015258789 17.71258008480072 10.182583212852478 18.1200008392334 9.680004119873047 18.1200008392334 L 0.9099998474121094 18.1200008392334 C 0.4074207544326782 18.1200008392334 0 17.71258008480072 0 17.21000099182129 L 0 0.9099998474121094 C 0 0.4074207544326782 0.4074207544326782 0 0.9099998474121094 0 Z" fill="#613182"/></g></g><g transform="matrix(1 0 0 1 36.853538513183594 39.05649948120117)"><path d="M 0 3.5 L 13.030000686645508 0 C 13.030000686645508 0 13.320001125335693 6.129999756813049 8.880001068115234 7.739999771118164 C 4.440001010894775 9.339999794960022 0 3.5 0 3.5 Z" fill="#ffd441"/></g><g transform="matrix(1 0 0 1 103.32749938964844 13.459912300109863)"><path d="M 9.155254364013672 22.639404296875 C 9.155254364013672 22.639404296875 9.915251612663269 21.039404451847076 11.28525161743164 20.72940444946289 C 12.655251622200012 20.419404447078705 20.85525070130825 13.379403948783875 20.745250701904297 12.499403953552246 C 20.635250702500343 11.619403958320618 18.83524826169014 11.669403672218323 18.555248260498047 11.069403648376465 C 18.275248259305954 10.469403624534607 19.715250998735428 8.769403100013733 19.425251007080078 8.129403114318848 C 19.13525101542473 7.489403128623962 16.925252839922905 7.8194040060043335 16.755252838134766 7.439404010772705 C 16.585252836346626 7.059404015541077 17.91525313258171 5.219404399394989 17.435253143310547 4.539404392242432 C 16.955253154039383 3.8594043850898743 14.845248878002167 5.229404121637344 14.41524887084961 4.819404125213623 C 13.985248863697052 4.409404128789902 15.105254054069519 2.189404398202896 14.47525405883789 1.7894043922424316 C 13.845254063606262 1.3894043862819672 12.60525095462799 2.1194040775299072 11.425251007080078 3.6494040489196777 C 10.245251059532166 5.179404020309448 7.845250070095062 8.369402656331658 6.885250091552734 8.359402656555176 C 5.9252501130104065 8.349402656778693 4.025251626968384 4.269403696060181 3.2852516174316406 3.009403705596924 C 2.6952516436576843 1.999403715133667 0.7952512502670288 -0.23059608414769173 0.1052512526512146 0.019403915852308273 C -0.5847487449645996 0.2694039158523083 2.3052525520324707 3.6694040298461914 3.3252525329589844 6.979403972625732 C 4.345252513885498 10.289403915405273 5.075254052877426 12.219403386116028 4.725254058837891 13.309403419494629 C 4.375254064798355 14.39940345287323 3.1152496337890625 16.669404983520508 3.1152496337890625 16.669404983520508 L 9.155254364013672 22.659404754638672 L 9.155254364013672 22.639404296875 Z" fill="#ffd441"/></g><g transform="matrix(1 0 0 1 102.60380554199219 3.32527756690979)"><path d="M 5.6399993896484375 3.2105066776275635 C 5.449999392032623 3.2105066776275635 5.27000030875206 3.1005067229270935 5.180000305175781 2.920506715774536 C 4.280000329017639 0.9105067253112793 0.5499983206391335 0.9905066397041082 0.5099983215332031 1.0005066394805908 C 0.22999832034111023 0.9805066399276257 0 0.7905065715312958 0 0.5105065703392029 C 0 0.23050656914710999 0.20999953150749207 0.0005065813311375678 0.4799995422363281 0.0005065813311375678 C 0.6599995493888855 0.0005065813311375678 4.909996390342712 -0.09949350357055664 6.089996337890625 2.5105063915252686 C 6.1999963372945786 2.7605063915252686 6.089996337890625 3.0605067163705826 5.839996337890625 3.170506715774536 C 5.769996337592602 3.200506715103984 5.699999388307333 3.2105066776275635 5.6399993896484375 3.2105066776275635 Z" fill="#613182"/></g><g transform="matrix(1 0 0 1 108.12416076660156 -0.01701519638299942)"><path d="M 1.8199996948242188 1.4199999570846558 C 1.6699996888637543 1.4199999570846558 1.5199981704354286 1.350000023841858 1.4199981689453125 1.2200000286102295 C 1.3399981707334518 1.110000029206276 0.9000000059604645 1.0199999995529652 0.5 1 C 0.2199999988079071 1 0 0.7800000011920929 0 0.5 C 0 0.2199999988079071 0.2199999988079071 0 0.5 0 C 0.7099999934434891 0 1.7800012230873108 0.020000040531158447 2.220001220703125 0.6100000143051147 C 2.3900012224912643 0.8300000131130219 2.3400027453899384 1.1399999409914017 2.1200027465820312 1.309999942779541 C 2.0300027430057526 1.3799999430775642 1.9199996963143349 1.409999966621399 1.8199996948242188 1.409999966621399 L 1.8199996948242188 1.4199999570846558 Z" fill="#613182"/></g><g transform="matrix(1 0 0 1 92.26164245605469 19.71458625793457)"><path d="M 3.3699989318847656 3.9413182735443115 C 3.3699989318847656 3.9413182735443115 3.2699974067509174 3.941318769007921 3.2199974060058594 3.921318769454956 C 0.8999974727630615 3.1913187503814697 0.009999999776482582 1.0113191604614258 0 0.5213191509246826 C 0 0.24131914973258972 0.20999953150749207 0.011318667558953166 0.4799995422363281 0.001318667782470584 C 0.759999543428421 -0.01868133177049458 0.9699978642165661 0.19131869077682495 0.9899978637695312 0.461318701505661 C 1.0499978624284267 0.76131871342659 1.7199983596801758 2.4013187289237976 3.509998321533203 2.9613187313079834 C 3.76999831199646 3.041318729519844 3.9200001507997513 3.3213188350200653 3.8400001525878906 3.5913188457489014 C 3.7700001522898674 3.8013188391923904 3.579996794462204 3.9413182735443115 3.359996795654297 3.9413182735443115 L 3.3699989318847656 3.9413182735443115 Z" fill="#613182"/></g></g></g></svg>
