<svg xmlns="http://www.w3.org/2000/svg" viewBox="0 0 161 131" role="img" aria-hidden="true"><g transform="translate(-49 -36)"><g transform="matrix(1 0 0 1 111 49)"><g transform="matrix(1 0 0 1 28.764503479003906 76.56825256347656)"><path d="M 5.94999885559082 25.505102157592773 C 5.829998858273029 25.505102157592773 5.700000382959843 25.455102771520615 5.600000381469727 25.365102767944336 L 0 20.005102157592773 L 0.20999908447265625 19.66510581970215 C 0.239999083802104 19.61510581895709 3.450000047683716 14.415105104446411 4.75 11.175105094909668 C 6.330000042915344 7.215105056762695 5.5300004575401545 0.6351043656468391 5.520000457763672 0.5651043653488159 C 5.490000458434224 0.29510435461997986 5.679998844861984 0.045103004202246666 5.94999885559082 0.005103005096316338 C 6.219998866319656 -0.03489699400961399 6.470000229775906 0.16510328650474548 6.510000228881836 0.43510329723358154 C 6.550000227987766 0.7151032984256744 7.360000252723694 7.335103988647461 5.680000305175781 11.545104026794434 C 4.530000329017639 14.415103912353516 2.029998779296875 18.615106105804443 1.279998779296875 19.84510612487793 L 6.299999237060547 24.64510154724121 C 6.499999240040779 24.835101544857025 6.509999692440033 25.155100628733635 6.319999694824219 25.355100631713867 C 6.219999693334103 25.455100633203983 6.089999079704285 25.505102157592773 5.959999084472656 25.505102157592773 L 5.94999885559082 25.505102157592773 Z" fill="#95c11f"/></g><g transform="matrix(1 0 0 1 53.54566955566406 76.31932830810547)"><path d="M 7.918344974517822 23.958341598510742 C 7.828344970941544 23.958341598510742 7.738342836499214 23.93834190443158 7.6583428382873535 23.888341903686523 L 1.3683420419692993 20.008337020874023 L 1.3883424997329712 19.708341598510742 C 1.3883424997329712 19.708341598510742 1.648344337940216 16.238338947296143 1.4683443307876587 11.958338737487793 C 1.2683443278074265 7.288338661193848 0.02834147121757269 0.6483396254479885 0.008341471664607525 0.588339626789093 C -0.041658529080450535 0.31833961606025696 0.1383429765701294 0.05834160652011633 0.40834298729896545 0.00834160577505827 C 0.6683429777622223 -0.04165839496999979 0.9383448474109173 0.1383393108844757 0.9883448481559753 0.40833932161331177 C 0.9983448479324579 0.478339321911335 2.2583423107862473 7.188340187072754 2.4583423137664795 11.928339958190918 C 2.608342319726944 15.528339862823486 2.458344753831625 18.548340380191803 2.3983447551727295 19.488340377807617 L 8.16834545135498 23.048337936401367 C 8.408345445990562 23.19833794236183 8.478345304727554 23.498340383172035 8.32834529876709 23.738340377807617 C 8.238345295190811 23.88834038376808 8.06834451854229 23.97833824157715 7.89834451675415 23.97833824157715 L 7.918344974517822 23.958341598510742 Z" fill="#95c11f"/></g><g transform="matrix(1 0 0 1 66.63581085205078 12.2147216796875)"><path d="M 4.742537498474121 20.300701141357422 C 2.9625375270843506 20.300701141357422 1.4125383011996746 18.47070050239563 0.03253830596804619 14.730700492858887 C -0.06746169552206993 14.47070050239563 0.07253539562225342 14.180701106786728 0.3225353956222534 14.09070110321045 C 0.5825353860855103 13.990701101720333 0.8725347816944122 14.13070011138916 0.9625347852706909 14.38070011138916 C 2.15253484249115 17.60070013999939 3.462535858154297 19.300701141357422 4.752535820007324 19.300701141357422 C 4.782535819336772 19.300701141357422 4.802537651732564 19.300701141357422 4.832537651062012 19.300701141357422 C 8.4925377368927 19.090701147913933 12.332535862922668 6.680700421333313 13.502535820007324 1.920700192451477 L 13.572535514831543 1.6407004594802856 L 19.252534866333008 0.020700586959719658 C 19.522534877061844 -0.059299411252141 19.79253761470318 0.1007007360458374 19.87253761291504 0.36070072650909424 C 19.9525376111269 0.6307007372379303 19.792537450790405 0.9007006138563156 19.53253746032715 0.9807006120681763 L 14.40253734588623 2.4407007694244385 C 13.70253735780716 5.230700731277466 9.752535343170166 20.02070114016533 4.892535209655762 20.300701141357422 C 4.842535208910704 20.300701141357422 4.792537499219179 20.300701141357422 4.742537498474121 20.300701141357422 Z" fill="#95c11f"/></g><g transform="matrix(1 0 0 1 17.70123291015625 26.169879913330078)"><path d="M 4.380000114440918 0 L 29.90999984741211 0 C 32.329007148742676 0 34.28999710083008 1.9609918594360352 34.28999710083008 4.379999160766602 L 34.28999710083008 29.90999984741211 C 34.28999710083008 32.329007148742676 32.329007148742676 34.290000915527344 29.90999984741211 34.290000915527344 L 4.380000114440918 34.290000915527344 C 1.9609928131103516 34.290000915527344 0 32.329007148742676 0 29.90999984741211 L 0 4.379999160766602 C 0 1.9609918594360352 1.9609928131103516 0 4.380000114440918 0 Z" fill="#95c11f"/></g><g transform="matrix(1 0 0 1 27.902217864990234 33.75605773925781)"><path d="M 23.170000076293945 26.999998092651367 L 3.8199996948242188 26.999998092651367 C 1.7099997997283936 26.999998092651367 0 25.279998302459717 0 23.17999839782715 L 0 3.8199996948242188 C 0 1.7099997997283936 1.7199997901916504 0 3.8199996948242188 0 L 23.170000076293945 0 C 25.27999997138977 0 26.989999771118164 1.7199997901916504 26.989999771118164 3.8199996948242188 L 26.989999771118164 23.170000076293945 C 26.989999771118164 25.27999997138977 25.269999980926514 26.989999771118164 23.170000076293945 26.989999771118164 L 23.170000076293945 26.999998092651367 Z M 3.8199996948242188 1 C 2.2599997520446777 1 1 2.2699997425079346 1 3.8199996948242188 L 1 23.170000076293945 C 1 24.730000019073486 2.2699997425079346 25.989999771118164 3.8199996948242188 25.989999771118164 L 23.170000076293945 25.989999771118164 C 24.730000019073486 25.989999771118164 25.989999771118164 24.72000002861023 25.989999771118164 23.170000076293945 L 25.989999771118164 3.8199996948242188 C 25.989999771118164 2.2599997520446777 24.72000002861023 1 23.170000076293945 1 L 3.8199996948242188 1 Z" fill="#684b99"/></g><g transform="matrix(1 0 0 1 17.06463050842285 0.012183262035250664)"><g transform="matrix(1 0 0 1 0 0)"><g transform="matrix(1 0 0 1 0 0)"><g transform="matrix(1 0 0 1 0.829787015914917 0.8000410199165344)"><path d="M 16.761260986328125 8.15999984741211 C 16.921260982751846 19.039999961853027 -0.16874005552381277 19.039999961853027 0.0012599462643265724 8.15999984741211 C -0.15874005015939474 -2.7200002670288086 16.931260988116264 -2.7200002670288086 16.761260986328125 8.15999984741211 Z" fill="#ffffff"/></g><g transform="matrix(1 0 0 1 0 0)"><path d="M 8.88128662109375 17.3125 C 7.1612865924835205 17.3125 5.45128607749939 16.882501244544983 3.98128604888916 16.032501220703125 C 1.3612861633300781 14.502501249313354 -0.048714496777392924 11.882500171661377 0.0012855039676651359 8.65250015258789 C -0.048714496777392924 5.432500123977661 1.3712854385375977 2.8125 3.9912853240966797 1.2825000286102295 C 6.921285390853882 -0.42750000953674316 10.861286401748657 -0.42750000953674316 13.79128646850586 1.2825000286102295 C 16.401286363601685 2.8125 17.821286011487246 5.43250036239624 17.771286010742188 8.662500381469727 C 17.811286009848118 11.892500400543213 16.401286125183105 14.512499570846558 13.781286239624023 16.042499542236328 C 12.32128620147705 16.892499566078186 10.60128664970398 17.322500228881836 8.88128662109375 17.322500228881836 L 8.88128662109375 17.3125 Z M 8.88128662109375 0.9925000667572021 C 7.341286659240723 0.9925000667572021 5.801285266876221 1.3725001811981201 4.49128532409668 2.142500162124634 C 2.2012853622436523 3.482500195503235 0.9612855538725853 5.792500257492065 1.0012855529785156 8.65250015258789 C 0.9612855538725853 11.522500038146973 2.2012853622436523 13.832500576972961 4.49128532409668 15.172500610351562 C 7.121285438537598 16.702500581741333 10.651286125183105 16.71250057220459 13.281286239624023 15.172500610351562 C 15.57128620147705 13.832500576972961 16.811286009848118 11.522500276565552 16.771286010742188 8.662500381469727 C 16.811286009848118 5.7925004959106445 15.57128620147705 3.482500195503235 13.281286239624023 2.142500162124634 C 11.971286296844482 1.3725001811981201 10.431286573410034 0.9925000667572021 8.88128662109375 0.9925000667572021 Z" fill="#684b99"/></g></g><g transform="matrix(1 0 0 1 28.146263122558594 -3.3252187114918286e-10)"><g transform="matrix(1 0 0 1 0.8135163187980652 0.8000410199165344)"><path d="M 16.761259078979492 8.15999984741211 C 16.921259075403214 19.039999961853027 -0.16874005540739745 19.039999961853027 0.0012599463807418942 8.15999984741211 C -0.15874005004297942 -2.7200002670288086 16.93125908076763 -2.7200002670288086 16.761259078979492 8.15999984741211 Z" fill="#ffffff"/></g><g transform="matrix(1 0 0 1 0 0)"><path d="M 8.881282806396484 17.3125 C 7.161282777786255 17.3125 5.451285123825073 16.882501244544983 3.9812850952148438 16.032501220703125 C 1.3612852096557617 14.502501249313354 -0.04871449584607035 11.882500171661377 0.0012855048989877105 8.65250015258789 C -0.04871449584607035 5.432500123977661 1.3712852001190186 2.8125 3.9812850952148438 1.2825000286102295 C 6.911285161972046 -0.42750000953674316 10.851284265518188 -0.42750000953674316 13.78128433227539 1.2825000286102295 C 16.391284227371216 2.8125 17.811283875256777 5.43250036239624 17.76128387451172 8.662500381469727 C 17.80128387361765 11.892500400543213 16.391284227371216 14.512499570846558 13.78128433227539 16.042499542236328 C 12.321284294128418 16.892499566078186 10.601282835006714 17.322500228881836 8.881282806396484 17.322500228881836 L 8.881282806396484 17.3125 Z M 8.881282806396484 0.9925000667572021 C 7.341282844543457 0.9925000667572021 5.801283359527588 1.3725001811981201 4.491283416748047 2.142500162124634 C 2.2012834548950195 3.482500195503235 0.9612855538725853 5.792500019073486 1.0012855529785156 8.642499923706055 C 0.9612855538725853 11.512499809265137 2.2012834548950195 13.822500348091125 4.491283416748047 15.162500381469727 C 7.121283531188965 16.702500343322754 10.651284217834473 16.702500343322754 13.28128433227539 15.162500381469727 C 15.571284294128418 13.822500348091125 16.811286009848118 11.512500047683716 16.771286010742188 8.65250015258789 C 16.811286009848118 5.782500267028809 15.571284294128418 3.472500205039978 13.28128433227539 2.132500171661377 C 11.97128438949585 1.3625001907348633 10.43128490447998 0.9825000762939453 8.891284942626953 0.9825000762939453 L 8.881282806396484 0.9925000667572021 Z" fill="#684b99"/></g></g></g><g transform="matrix(1 0 0 1 6.1926422119140625 11.9100980758667)"><g transform="matrix(1 0 0 1 28.12999153137207 1.5855800938879838e-7)"><g transform="matrix(1 0 0 1 0.002005412708967924 3.552713678800501e-15)"><path d="M 3.6437559127807617 2.990724802017212 C 3.683755911886692 7.170724630355835 -0.12624350818805397 6.770724773406982 0.0037564870435744524 2.990724802017212 C -0.136243513552472 -0.7892751693725586 3.683755911886692 -1.199275255203247 3.6437559127807617 2.990724802017212 Z" fill="#602b7a"/></g><g transform="matrix(1 0 0 1 -4.848439516536018e-7 3.7374114990234375)"><path d="M 1.5849989652633667 0.6899995803833008 C 1.5849989652633667 1.0599995851516724 0.895000021904707 1.3599998857825994 0.044999998062849045 1.369999885559082 C -0.015000000596046448 0.9299998879432678 -0.015000000596046448 0.4300000071525574 0.044999998062849045 0 C 0.895000021904707 0.009999999776482582 1.5849989652633667 0.3199995756149292 1.5849989652633667 0.6899995803833008 Z" fill="#ffffff"/></g></g><g transform="matrix(1 0 0 1 0 0)"><g transform="matrix(1 0 0 1 0.0020027789287269115 1.9792413752384164e-7)"><path d="M 3.643756866455078 2.990724802017212 C 3.6837568655610085 7.170724630355835 -0.12624350911937654 6.770724773406982 0.003756486112251878 2.990724802017212 C -0.13624351448379457 -0.7892751693725586 3.6837568655610085 -1.199275255203247 3.643756866455078 2.990724802017212 Z" fill="#602b7a"/></g><g transform="matrix(1 0 0 1 -4.6848981583025306e-8 3.7374117374420166)"><path d="M 1.584999918937683 0.6899995803833008 C 1.584999918937683 1.0599995851516724 0.895000021904707 1.3599998857825994 0.044999998062849045 1.369999885559082 C -0.015000000596046448 0.9299998879432678 -0.015000000596046448 0.4300000071525574 0.044999998062849045 0 C 0.895000021904707 0.009999999776482582 1.584999918937683 0.3199995756149292 1.584999918937683 0.6899995803833008 Z" fill="#ffffff"/></g></g></g></g><g transform="matrix(1 0 0 1 7.152135507169683e-16 39.3106803894043)"><path d="M 4.199999809265137 23.270612716674805 C 4.079999811947346 23.270612716674805 3.9599998965859413 23.23061165213585 3.859999895095825 23.14061164855957 L 0 19.580610275268555 L 0.5099999904632568 19.220609664916992 C 2.6500000953674316 17.740609645843506 3.5900001525878906 14.62061071395874 4.590000152587891 11.3106107711792 C 5.880000114440918 7.050610542297363 7.329999923706055 2.220612410455942 11.779999732971191 0.05061233416199684 C 12.029999732971191 -0.06938766315579414 12.329999811947346 0.030611872673034668 12.449999809265137 0.28061187267303467 C 12.569999806582928 0.5306118726730347 12.470000267028809 0.830611951649189 12.220000267028809 0.95061194896698 C 8.160000324249268 2.9306119680404663 6.830000162124634 7.340611457824707 5.550000190734863 11.600611686706543 C 4.570000171661377 14.83061170578003 3.649999976158142 17.90061044692993 1.5700000524520874 19.670610427856445 L 4.539999961853027 22.400609970092773 C 4.73999996483326 22.590609967708588 4.760000169277191 22.900612875819206 4.570000171661377 23.110612869262695 C 4.470000170171261 23.22061286866665 4.339999809861183 23.270612716674805 4.199999809265137 23.270612716674805 Z" fill="#95c11f"/></g><g transform="matrix(1 0 0 1 36.751075744628906 30.66169548034668)"><path d="M 5.8110809326171875 0.014867887832224369 C 4.301080942153931 0.08486788813024759 -0.07891841779928654 0.17486798763275146 0.0010815804125741124 1.6848679780960083 C 0.08108157862443477 3.194867968559265 2.3910810947418213 4.944868475198746 5.571081161499023 4.794868469238281 C 8.751081228256226 4.644868463277817 12.901081085205078 -0.30513210501521826 5.8110809326171875 0.014867887832224369 Z" fill="#602b7a"/></g><g transform="matrix(1 0 0 1 41.031715393066406 45.939430236816406)"><path d="M 11.730001449584961 4.469999313354492 L 11.730001449584961 7.670000076293945 L 0 12.129999160766602 L 0 9.05000114440918 L 8.210000991821289 6.069997787475586 L 0 3.059999465942383 L 0 0 L 11.730001449584961 4.460000991821289 L 11.730001449584961 4.469999313354492 Z" fill="#602b7a"/></g></g><g transform="matrix(1 0 0 1 49 36)"><g transform="matrix(1 0 0 1 24.677419662475586 76.06834411621094)"><path d="M 6.710000038146973 25.36713409423828 C 6.630000039935112 25.36713409423828 6.540000267326832 25.34712890535593 6.470000267028809 25.30712890625 L 0 21.73712921142578 L 0.22999954223632812 21.297134399414062 C 0.25999954156577587 21.237134400755167 3.329999953508377 15.497130632400513 3.7899999618530273 12.087130546569824 C 4.339999973773956 8.027130603790283 2.3599991984665394 0.7071314603090286 2.339999198913574 0.627131462097168 C 2.269999198615551 0.3571314513683319 2.4199995696544647 0.08713087998330593 2.689999580383301 0.017130879685282707 C 2.959999591112137 -0.05286912061274052 3.23000019043684 0.09712934494018555 3.3000001907348633 0.3671293556690216 C 3.380000188946724 0.6771293580532074 5.359999716281891 7.957129955291748 4.779999732971191 12.227129936218262 C 4.359999746084213 15.287129878997803 2.0799992084503174 19.897135257720947 1.3399991989135742 21.337135314941406 L 6.949999809265137 24.4371337890625 C 7.189999803900719 24.56713378429413 7.280000567436218 24.8771340996027 7.15000057220459 25.11713409423828 C 7.060000568628311 25.28713409602642 6.89000004529953 25.37712860107422 6.710000038146973 25.37712860107422 L 6.710000038146973 25.36713409423828 Z" fill="#602b7a"/></g><g transform="matrix(1 0 0 1 44.09366226196289 75.78629302978516)"><path d="M 7.971930027008057 25.271926879882812 C 7.911930028349161 25.271926879882812 7.851928044110537 25.271928099915385 7.8019280433654785 25.241928100585938 L 0.11192941665649414 22.41192626953125 L 0.2119278907775879 21.98192596435547 C 0.22192789055407047 21.921925965696573 1.6519287824630737 15.711930274963379 2.5019288063049316 11.091930389404297 C 3.3219287991523743 6.64193058013916 0.0919282715767622 0.801928099244833 0.06192827224731445 0.7419281005859375 C -0.06807172298431396 0.5019281059503555 0.01192881166934967 0.2019278071820736 0.25192880630493164 0.061927806586027145 C 0.4919288009405136 -0.06807218864560127 0.7919291108846664 0.01193024218082428 0.9319291114807129 0.25193023681640625 C 1.0719291120767593 0.5019302368164062 4.371928334236145 6.461930751800537 3.4819283485412598 11.271930694580078 C 2.7519283294677734 15.20193076133728 1.6119295060634613 20.28192687034607 1.2819294929504395 21.771926879882812 L 8.141927719116211 24.301925659179688 C 8.401927709579468 24.391925662755966 8.531926959753036 24.6819326877594 8.441926956176758 24.941932678222656 C 8.371926955878735 25.14193268120289 8.171930029988289 25.271926879882812 7.971930027008057 25.271926879882812 Z" fill="#602b7a"/></g><g transform="matrix(1 0 0 1 0.004346685018390417 46.06425857543945)"><path d="M 5.797305107116699 28.021970748901367 C 5.62730510532856 28.021970748901367 5.467305034399033 27.941971212625504 5.377305030822754 27.79197120666504 C 5.227305024862289 27.561971202492714 5.297304883599281 27.25197258591652 5.537304878234863 27.101972579956055 L 8.9873046875 24.941972732543945 C 6.937304735183716 23.011972784996033 -0.5926949419081211 15.351972103118896 0.03730505332350731 8.081972122192383 C 0.3173050545156002 4.8519721031188965 2.177304983139038 2.161971688270569 5.567305088043213 0.07197177410125732 C 5.807305082678795 -0.06802822649478912 6.107305139303207 0.001971617341041565 6.257305145263672 0.2319716215133667 C 6.397305145859718 0.47197161614894867 6.327304825186729 0.7719702422618866 6.097304821014404 0.9219702482223511 C 2.997304916381836 2.83197021484375 1.2973049879074097 5.271972179412842 1.0373049974441528 8.171972274780273 C 0.3673049807548523 15.90197229385376 10.037305258214474 24.561971813440323 10.13730525970459 24.6519718170166 L 10.63730525970459 25.091970443725586 L 6.067305088043213 27.95197105407715 C 5.987305089831352 28.001971054822206 5.897305108606815 28.031972885131836 5.797305107116699 28.031972885131836 L 5.797305107116699 28.021970748901367 Z" fill="#602b7a"/></g><g transform="matrix(1 0 0 1 61.650238037109375 35.761802673339844)"><path d="M 8.496853828430176 24.336851119995117 L 8.336853981018066 24.116849899291992 C 8.176853984594345 23.896849900484085 4.3768510222435 18.606850624084473 3.466850996017456 15.976850509643555 C 2.6568509936332703 13.61685061454773 2.626852063462138 11.416851997375488 2.5968520641326904 9.28685188293457 C 2.55685206502676 6.176851987838745 2.5268509685993195 3.496850907802582 0.12685087323188782 0.8368508219718933 C -0.053149133920669556 0.6268508285284042 -0.04314820468425751 0.31685173511505127 0.16685178875923157 0.12685173749923706 C 0.3668517917394638 -0.05314826965332031 0.686850905418396 -0.04314924776554108 0.8768509030342102 0.166850745677948 C 3.526850998401642 3.106850802898407 3.55685206502676 6.106851577758789 3.5968520641326904 9.276851654052734 C 3.626852063462138 11.326851606369019 3.6468536853790283 13.446852445602417 4.406853675842285 15.646852493286133 C 5.166853666305542 17.84685254096985 8.246851682662964 22.266852378845215 8.986851692199707 23.306852340698242 L 13.946850776672363 23.0168514251709 C 14.226850777864456 23.006851425394416 14.456853371113539 23.20685264468193 14.476853370666504 23.486852645874023 C 14.496853370219469 23.766852647066116 14.286852151155472 23.996851425617933 14.006852149963379 24.0168514251709 L 8.496853828430176 24.34684944152832 L 8.496853828430176 24.336851119995117 Z" fill="#602b7a"/></g><g transform="matrix(1 0 0 1 8.54838752746582 25.99462127685547)"><path d="M 4.380000114440918 0 L 29.90999984741211 0 C 32.329007148742676 0 34.290000915527344 1.9609918594360352 34.290000915527344 4.379999160766602 L 34.290000915527344 29.90999984741211 C 34.290000915527344 32.329007148742676 32.329007148742676 34.290000915527344 29.90999984741211 34.290000915527344 L 4.380000114440918 34.290000915527344 C 1.9609928131103516 34.290000915527344 0 32.329007148742676 0 29.90999984741211 L 0 4.379999160766602 C 0 1.9609918594360352 1.9609928131103516 0 4.380000114440918 0 Z" fill="#602b7a"/></g><g transform="matrix(1 0 0 1 17.322580337524414 35.208106994628906)"><path d="M 23.170000076293945 27 L 3.820000648498535 27 C 1.71000075340271 27 0 25.280001878738403 0 23.170001983642578 L 0 3.8199996948242188 C 0 1.7099997997283936 1.7200007438659668 0 3.820000648498535 0 L 23.170000076293945 0 C 25.27999997138977 0 26.989999771118164 1.7199997901916504 26.989999771118164 3.8199996948242188 L 26.989999771118164 23.170001983642578 C 26.989999771118164 25.280001878738403 25.269999980926514 27 23.170000076293945 27 Z M 3.820000648498535 1 C 2.260000705718994 1 1 2.2699997425079346 1 3.8199996948242188 L 1 23.170001983642578 C 1 24.73000192642212 2.270000696182251 26 3.820000648498535 26 L 23.170000076293945 26 C 24.730000019073486 26 25.989999771118164 24.73000192642212 25.989999771118164 23.170001983642578 L 25.989999771118164 3.8199996948242188 C 25.989999771118164 2.2599997520446777 24.72000002861023 1 23.170000076293945 1 L 3.820000648498535 1 Z" fill="#684b99"/></g><g transform="matrix(1 0 0 1 7.93341064453125 0.012101670727133751)"><g transform="matrix(1 0 0 1 0 0)"><g transform="matrix(1 0 0 1 0 0)"><g transform="matrix(1 0 0 1 0.8064928650856018 0.7946832180023193)"><path d="M 16.761260986328125 8.15999984741211 C 16.921260982751846 19.039999961853027 -0.16874005552381277 19.039999961853027 0.0012599462643265724 8.15999984741211 C -0.15874005015939474 -2.7200002670288086 16.931260988116264 -2.7200002670288086 16.761260986328125 8.15999984741211 Z" fill="#ffffff"/></g><g transform="matrix(1 0 0 1 0 0)"><path d="M 8.881285667419434 17.3125 C 7.161285638809204 17.3125 5.451285123825073 16.882501244544983 3.9812850952148438 16.032501220703125 C 1.3612852096557617 14.502501249313354 -0.04871449584607035 11.882500171661377 0.0012855048989877105 8.65250015258789 C -0.04871449584607035 5.432500123977661 1.3712852001190186 2.8125 3.9812850952148438 1.2825000286102295 C 6.911285161972046 -0.42750000953674316 10.851286172866821 -0.42750000953674316 13.781286239624023 1.2825000286102295 C 16.39128613471985 2.8125 17.81128578260541 5.43250036239624 17.76128578186035 8.662500381469727 C 17.801285780966282 11.892500400543213 16.39128613471985 14.512499570846558 13.781286239624023 16.042499542236328 C 12.32128620147705 16.892499566078186 10.601285696029663 17.322500228881836 8.881285667419434 17.322500228881836 L 8.881285667419434 17.3125 Z M 8.881285667419434 0.9925000667572021 C 7.341285705566406 0.9925000667572021 5.801285266876221 1.3725001811981201 4.49128532409668 2.142500162124634 C 2.2012853622436523 3.482500195503235 0.9612855538725853 5.792500257492065 1.0012855529785156 8.65250015258789 C 0.9612855538725853 11.522500038146973 2.2012853622436523 13.832500576972961 4.49128532409668 15.172500610351562 C 7.121285438537598 16.71250057220459 10.651286125183105 16.71250057220459 13.281286239624023 15.172500610351562 C 15.57128620147705 13.832500576972961 16.811286009848118 11.522500276565552 16.771286010742188 8.662500381469727 C 16.811286009848118 5.7925004959106445 15.57128620147705 3.482500195503235 13.281286239624023 2.142500162124634 C 11.971286296844482 1.3725001811981201 10.431285858154297 0.9925000667572021 8.89128589630127 0.9925000667572021 L 8.881285667419434 0.9925000667572021 Z" fill="#684b99"/></g></g><g transform="matrix(1 0 0 1 27.903223037719727 2.63838395575533e-10)"><g transform="matrix(1 0 0 1 0.8064925074577332 0.7946832180023193)"><path d="M 16.761260986328125 8.15999984741211 C 16.921260982751846 19.039999961853027 -0.16874005552381277 19.039999961853027 0.0012599462643265724 8.15999984741211 C -0.15874005015939474 -2.7200002670288086 16.931260988116264 -2.7200002670288086 16.761260986328125 8.15999984741211 Z" fill="#ffffff"/></g><g transform="matrix(1 0 0 1 0 0)"><path d="M 8.88128662109375 17.3125 C 7.1612865924835205 17.3125 5.451287031173706 16.882501244544983 3.9812870025634766 16.032501220703125 C 1.3612871170043945 14.502501249313354 -0.04871449759230018 11.882500171661377 0.001285503152757883 8.65250015258789 C -0.04871449759230018 5.432500123977661 1.3712871074676514 2.8125 3.9812870025634766 1.2825000286102295 C 6.911287069320679 -0.42750000953674316 10.851286172866821 -0.42750000953674316 13.781286239624023 1.2825000286102295 C 16.39128613471985 2.8125 17.81128578260541 5.43250036239624 17.76128578186035 8.662500381469727 C 17.801285780966282 11.892500400543213 16.39128613471985 14.512499570846558 13.781286239624023 16.042499542236328 C 12.32128620147705 16.892499566078186 10.60128664970398 17.322500228881836 8.88128662109375 17.322500228881836 L 8.88128662109375 17.3125 Z M 8.88128662109375 0.9925000667572021 C 7.341286659240723 0.9925000667572021 5.801285266876221 1.3725001811981201 4.49128532409668 2.142500162124634 C 2.2012853622436523 3.482500195503235 0.9612855538725853 5.792500257492065 1.0012855529785156 8.65250015258789 C 0.9612855538725853 11.522500038146973 2.2012853622436523 13.832500576972961 4.49128532409668 15.172500610351562 C 7.121285438537598 16.71250057220459 10.651286125183105 16.71250057220459 13.281286239624023 15.172500610351562 C 15.57128620147705 13.832500576972961 16.81128791719675 11.522500276565552 16.77128791809082 8.662500381469727 C 16.81128791719675 5.7925004959106445 15.57128620147705 3.482500195503235 13.281286239624023 2.142500162124634 C 11.971286296844482 1.3725001811981201 10.431286811828613 0.9925000667572021 8.891286849975586 0.9925000667572021 L 8.88128662109375 0.9925000667572021 Z" fill="#684b99"/></g></g></g><g transform="matrix(1 0 0 1 18.413362503051758 12.830750465393066)"><g transform="matrix(1 0 0 1 27.887096405029297 -5.774945321945779e-8)"><g transform="matrix(1 0 0 1 0.0017706251237541437 -3.552713678800501e-15)"><path d="M 3.6437559127807617 2.990724802017212 C 3.683755911886692 7.170724630355835 -0.12624350818805397 6.770724773406982 0.0037564870435744524 2.990724802017212 C -0.136243513552472 -0.7892751693725586 3.683755911886692 -1.199275255203247 3.6437559127807617 2.990724802017212 Z" fill="#602b7a"/></g><g transform="matrix(1 0 0 1 6.299842993939819e-7 3.7123818397521973)"><path d="M 1.5850008726119995 0.6899995803833008 C 1.5850008726119995 1.0599995851516724 0.895000021904707 1.3599998857825994 0.044999998062849045 1.369999885559082 C -0.015000000596046448 0.9299998879432678 -0.015000000596046448 0.4300000071525574 0.044999998062849045 0 C 0.895000021904707 0.009999999776482582 1.5850008726119995 0.3199995756149292 1.5850008726119995 0.6899995803833008 Z" fill="#ffffff"/></g></g><g transform="matrix(1 0 0 1 0 0)"><g transform="matrix(1 0 0 1 0.0017727402737364173 -4.0947008983494015e-7)"><path d="M 3.6437559127807617 2.990724802017212 C 3.683755911886692 7.170724630355835 -0.12624350818805397 6.770724773406982 0.0037564870435744524 2.990724802017212 C -0.136243513552472 -0.7892751693725586 3.683755911886692 -1.199275255203247 3.6437559127807617 2.990724802017212 Z" fill="#602b7a"/></g><g transform="matrix(1 0 0 1 -8.121146493067499e-7 3.7123818397521973)"><path d="M 1.5850008726119995 0.6899995803833008 C 1.5850008726119995 1.0599995851516724 0.895000021904707 1.3599998857825994 0.044999998062849045 1.369999885559082 C -0.015000000596046448 0.9299998879432678 -0.015000000596046448 0.4300000071525574 0.044999998062849045 0 C 0.895000021904707 0.009999999776482582 1.5850008726119995 0.3199995756149292 1.5850008726119995 0.6899995803833008 Z" fill="#ffffff"/></g></g></g></g><g transform="matrix(1 0 0 1 24.096773147583008 29.818782806396484)"><path d="M 0 0.720001220703125 C 0 0.720001220703125 5.649999618530273 1.989999920129776 8.279999732971191 1.8299999237060547 C 10.90999984741211 1.6699999272823334 16.720001220703125 0 16.720001220703125 0 C 16.720001220703125 0 14.489999771118164 3.9000009894371033 8.279999732971191 4.460000991821289 C 2.0699996948242188 5.020000994205475 0 0.720001220703125 0 0.720001220703125 Z" fill="#ffd631"/></g><g transform="matrix(1 0 0 1 29.3709659576416 47.18080139160156)"><path d="M 11.730001449584961 3.0500011444091797 L 3.520000457763672 6.059999465942383 L 11.730001449584961 9.039999008178711 L 11.730001449584961 12.120000839233398 L 0 7.660001754760742 L 0 4.460000991821289 L 11.730001449584961 0 L 11.730001449584961 3.059999465942383 L 11.730001449584961 3.0500011444091797 Z" fill="#ffffff"/></g></g></g></svg>
