<svg xmlns="http://www.w3.org/2000/svg" viewBox="0 0 115 125" role="img" aria-hidden="true"><g transform="translate(-95.333984375 -37)"><g transform="matrix(-1 0 0 1 210.333984375 37)"><g transform="matrix(1 0 0 1 27.463804244995117 87.12337493896484)"><path d="M 6.5 20.247329711914062 C 6.420000001788139 20.247329711914062 6.329999998211861 20.227330017834902 6.25 20.177330017089844 L 0 16.587329864501953 L 1.1700000762939453 16.277328491210938 C 3.130000114440918 15.747328519821167 8.080000221729279 13.84732985496521 7.510000228881836 11.37732982635498 C 6.740000247955322 8.007329940795898 3.0099993124604225 0.8073284178972244 2.969999313354492 0.7273284196853638 C 2.8399993181228638 0.47732841968536377 2.9400003105401993 0.17733022943139076 3.1800003051757812 0.05733023211359978 C 3.420000299811363 -0.07266976311802864 3.7300003841519356 0.02732931077480316 3.8500003814697266 0.26732930541038513 C 4.010000377893448 0.5673293173313141 7.669999301433563 7.667330265045166 8.469999313354492 11.147330284118652 C 9.169999301433563 14.197330236434937 4.690000534057617 16.1373291015625 2.520000457763672 16.8873291015625 L 6.739999771118164 19.307327270507812 C 6.979999765753746 19.44732727110386 7.060000076889992 19.747327581048012 6.920000076293945 19.987327575683594 C 6.830000072717667 20.147327572107315 6.659999772906303 20.237327575683594 6.489999771118164 20.237327575683594 L 6.5 20.247329711914062 Z" fill="#613182"/></g><g transform="matrix(1 0 0 1 49.84102249145508 94.36005401611328)"><path d="M 9.988890647888184 15.918890953063965 C 9.908890649676323 15.918890953063965 9.838889427483082 15.8988879006356 9.768889427185059 15.868887901306152 L 3.638890504837036 12.7988920211792 L 3.998889207839966 12.318888664245605 C 5.418889164924622 10.438888669013977 7.208890646696091 7.388891875743866 6.738890647888184 6.458891868591309 C 5.488890647888184 4.008891820907593 0.2988891191780567 0.9588893931359053 0.24888911843299866 0.9288893938064575 C 0.008889123797416687 0.7888893932104111 -0.07111119478940964 0.4788891226053238 0.06888880580663681 0.24888911843299866 C 0.20888880640268326 0.008889123797416687 0.5088890939950943 -0.07111119478940964 0.7488890886306763 0.06888880580663681 C 0.9688890874385834 0.19888880103826523 6.238890051841736 3.288891077041626 7.628890037536621 6.0088911056518555 C 8.438890039920807 7.5888911485672 6.168890476226807 11.028891444206238 5.148890495300293 12.438891410827637 L 10.208888053894043 14.968894004821777 C 10.458888053894043 15.088894002139568 10.558889269828796 15.38889217376709 10.428889274597168 15.63889217376709 C 10.33888927102089 15.818892180919647 10.168888509273529 15.918890953063965 9.978888511657715 15.918890953063965 L 9.988890647888184 15.918890953063965 Z" fill="#613182"/></g><g transform="matrix(0.327403724193573 -0.9448845386505127 0.9448990821838379 0.32736191153526306 11.93271255493164 82.74237060546875)"><path d="M 4.380000114440918 0 L 29.90999984741211 0 C 32.329007148742676 0 34.290000915527344 1.9609918594360352 34.290000915527344 4.379999160766602 L 34.290000915527344 29.90999984741211 C 34.290000915527344 32.329007148742676 32.329007148742676 34.290000915527344 29.90999984741211 34.290000915527344 L 4.380000114440918 34.290000915527344 C 1.9609928131103516 34.290000915527344 0 32.329007148742676 0 29.90999984741211 L 0 4.379999160766602 C 0 1.9609918594360352 1.9609928131103516 0 4.380000114440918 0 Z" fill="#613182"/></g><g transform="matrix(1 0 0 1 26.54558753967285 36.16521072387695)"><path d="M 22.11080551147461 32.27752685546875 C 21.700805515050888 32.27752685546875 21.280805498361588 32.20752777159214 20.86080551147461 32.067527770996094 L 2.5708067417144775 25.737524032592773 C 0.5808067321777344 25.04752403497696 -0.47919394075870514 22.867525100708008 0.21080605685710907 20.867525100708008 L 6.540805816650391 2.577524423599243 C 6.8708058297634125 1.6075243949890137 7.560806334018707 0.837523877620697 8.480806350708008 0.387523889541626 C 9.400806367397308 -0.06247609853744507 10.440806448459625 -0.12247619032859802 11.400806427001953 0.21752381324768066 L 29.690807342529297 6.547523498535156 C 31.68080735206604 7.2375234961509705 32.740807950496674 9.417524337768555 32.05080795288086 11.417524337768555 L 25.720806121826172 29.7075252532959 C 25.170806109905243 31.287525296211243 23.690807223320007 32.27752685546875 22.100807189941406 32.27752685546875 L 22.11080551147461 32.27752685546875 Z M 21.190807342529297 31.117525100708008 C 22.660807371139526 31.627525091171265 24.27080750465393 30.84752345085144 24.780807495117188 29.37752342224121 L 31.11080551147461 11.0875244140625 C 31.620805501937866 9.61752438545227 30.840807676315308 8.007524251937866 29.370807647705078 7.497524261474609 L 11.080806732177734 1.1675245761871338 C 10.370806753635406 0.9175245761871338 9.600806891918182 0.9675237238407135 8.920806884765625 1.2975237369537354 C 8.240806877613068 1.6275237500667572 7.730806350708008 2.1975245475769043 7.480806350708008 2.917524576187134 L 1.1508065462112427 21.2075252532959 C 0.6408065557479858 22.677525281906128 1.4208064079284668 24.287525415420532 2.8908064365386963 24.79752540588379 L 21.180805206298828 31.12752342224121 L 21.190807342529297 31.117525100708008 Z" fill="#6553a3"/></g><g transform="matrix(1 0 0 1 34.0172004699707 -0.006746821105480194)"><g transform="matrix(1 0 0 1 0 0)"><g transform="matrix(1 0 0 1 0.9453789591789246 0.9391208291053772)"><path d="M 16.431739807128906 10.84158992767334 C 13.20173978805542 21.231590270996094 -3.0382577776908875 15.921590328216553 0.5017421841621399 5.631590366363525 C 3.731742203235626 -4.7584099769592285 19.971739768981934 0.5515899658203125 16.431739807128906 10.84158992767334 Z" fill="#ffffff"/></g><g transform="matrix(1 0 0 1 0 0)"><path d="M 9.40706729888916 17.47360610961914 C 6.647067308425903 17.47360610961914 3.847067713737488 16.283607006072998 2.0170676708221436 14.223607063293457 C 0.007067680358886719 11.953607082366943 -0.5229340195655823 9.023606777191162 0.5270659327507019 5.963606834411621 C 1.4870659112930298 2.8936069011688232 3.6470675468444824 0.8336065858602524 6.607067584991455 0.20360659062862396 C 9.927067518234253 -0.5163934379816055 13.667065620422363 0.713606595993042 15.917065620422363 3.2536065578460693 C 17.92706561088562 5.513606548309326 18.457066297531128 8.443606853485107 17.407066345214844 11.503606796264648 C 16.447066366672516 14.583606719970703 14.287067413330078 16.633607268333435 11.327067375183105 17.27360725402832 C 10.697067379951477 17.413607254624367 10.047067046165466 17.47360610961914 9.397067070007324 17.47360610961914 L 9.40706729888916 17.47360610961914 Z M 8.547066688537598 1.0036065578460693 C 7.967066705226898 1.0036065578460693 7.387066662311554 1.063606508076191 6.817066669464111 1.183606505393982 C 4.2270667552948 1.7436065077781677 2.327066659927368 3.5536069869995117 1.4770666360855103 6.283607006072998 C 0.5470666289329529 9.003607034683228 1.0070676803588867 11.583607196807861 2.7670676708221436 13.563607215881348 C 4.787067651748657 15.843607187271118 8.147066354751587 16.933607697486877 11.117066383361816 16.293607711791992 C 13.707066297531128 15.733607709407806 15.607065558433533 13.923606395721436 16.45706558227539 11.19360637664795 C 17.387065589427948 8.47360634803772 16.92706561088562 5.893606662750244 15.167065620422363 3.913606643676758 C 13.527065634727478 2.0736066102981567 11.017066478729248 1.0036065578460693 8.537066459655762 1.0036065578460693 L 8.547066688537598 1.0036065578460693 Z" fill="#6553a3"/></g></g><g transform="matrix(1 0 0 1 30.756467819213867 10.064352989196777)"><g transform="matrix(1 0 0 1 0.9453744888305664 0.9391202926635742)"><path d="M 16.43174171447754 10.84158992767334 C 13.201741695404053 21.231590270996094 -3.0382578372955322 15.921590328216553 0.5017421245574951 5.631590366363525 C 3.7317421436309814 -4.7584099769592285 19.971741676330566 0.5515899658203125 16.43174171447754 10.84158992767334 Z" fill="#ffffff"/></g><g transform="matrix(1 0 0 1 0 0)"><path d="M 9.407064437866211 17.47360610961914 C 6.647064447402954 17.47360610961914 3.8470648527145386 16.283607006072998 2.0170648097991943 14.223607063293457 C 0.0070648193359375 11.953607082366943 -0.5229330658912659 9.023606777191162 0.5270668864250183 5.963606834411621 C 1.4870668649673462 2.8936069011688232 3.647064685821533 0.83360655605793 6.607064723968506 0.20360656082630157 C 9.927064657211304 -0.5163934677839279 13.66706657409668 0.7136068344116211 15.91706657409668 3.2536067962646484 C 17.927066564559937 5.513606786727905 18.457064390182495 8.443605899810791 17.40706443786621 11.503605842590332 C 16.447064459323883 14.583605766296387 14.287066459655762 16.633605360984802 11.327066421508789 17.273605346679688 C 10.69706642627716 17.413605347275734 10.04706609249115 17.47360610961914 9.397066116333008 17.47360610961914 L 9.407064437866211 17.47360610961914 Z M 8.547063827514648 1.0036067962646484 C 7.967063844203949 1.0036067962646484 7.387063801288605 1.0636066272854805 6.817063808441162 1.1836066246032715 C 4.227063894271851 1.7436066269874573 2.3270639181137085 3.5536065101623535 1.4770638942718506 6.28360652923584 C 0.5470638871192932 9.00360655784607 1.0070648193359375 11.583607196807861 2.7670648097991943 13.563607215881348 C 4.787064790725708 15.843607187271118 8.147067308425903 16.933605790138245 11.117067337036133 16.29360580444336 C 13.707067251205444 15.733605802059174 15.607067465782166 13.923606395721436 16.457067489624023 11.19360637664795 C 17.38706749677658 8.47360634803772 16.927066564559937 5.893606662750244 15.16706657409668 3.913606643676758 C 13.527066588401794 2.0736066102981567 11.017065525054932 1.0036067962646484 8.537065505981445 1.0036067962646484 L 8.547063827514648 1.0036067962646484 Z" fill="#6553a3"/></g></g></g><g transform="matrix(-0.7287454605102539 -0.6847847104072571 -0.6847847104072571 0.7287454605102539 73.76161193847656 60.52630615234375)"><path d="M 5.290000915527344 0.019998550415039062 L 8.129999160766602 1 L 3.6700000762939453 13.879999160766602 L 11.660001754760742 16.639997482299805 L 10.829999923706055 19.03999900817871 L 0 15.289999008178711 L 5.290000915527344 0 L 5.290000915527344 0.019998550415039062 Z" fill="#ffffff"/></g><g transform="matrix(1 0 0 1 40.710636138916016 35.55796813964844)"><path d="M 1.0792808532714844 0.032135263085365295 L 20.81928253173828 6.4821343421936035 C 21.34928250312805 6.652134343981743 21.559282392263412 7.2821343541145325 21.22928237915039 7.7321343421936035 C 19.619282364845276 9.99213433265686 14.939280033111572 15.522133350372314 8.629280090332031 14.042133331298828 C 2.3092799186706543 12.552133321762085 0.47928113490343094 4.1821348667144775 0.009281136095523834 0.9321348667144775 C -0.08071886748075485 0.33213484287261963 0.4992808699607849 -0.1478664129972458 1.0792808532714844 0.04213358461856842 L 1.0792808532714844 0.032135263085365295 Z" fill="#ffd441"/></g><g transform="matrix(1 0 0 1 44.297019958496094 13.027889251708984)"><path d="M 5.32227897644043 4.365810871124268 C 5.102278977632523 4.365810871124268 4.902279432862997 4.225811213254929 4.842279434204102 4.0058112144470215 L 4.07227897644043 1.3558106422424316 C 4.032278977334499 1.2058106362819672 3.9122799783945084 1.0858107171952724 3.772279977798462 1.025810718536377 C 3.6222799718379974 0.9758107177913189 3.462279438972473 0.9858109056949615 3.3322794437408447 1.0758109092712402 L 0.7722798585891724 2.7558112144470215 C 0.5422798544168472 2.905811220407486 0.23227933794260025 2.8458108752965927 0.08227933198213577 2.6158108711242676 C -0.0677206739783287 2.3858108669519424 -0.007721275091171265 2.0758112967014313 0.22227872908115387 1.9258112907409668 L 2.782278299331665 0.24581097066402435 C 3.1822783052921295 -0.014189019799232483 3.6722782254219055 -0.07418912649154663 4.122278213500977 0.09581087529659271 C 4.572278201580048 0.26581087708473206 4.902278289198875 0.6258111298084259 5.042278289794922 1.0858111381530762 L 5.812278747558594 3.7258105278015137 C 5.892278745770454 3.9958105385303497 5.73227858543396 4.2658113688230515 5.472278594970703 4.345811367034912 C 5.422278594225645 4.355811366811395 5.382279206067324 4.365810871124268 5.332279205322266 4.365810871124268 L 5.32227897644043 4.365810871124268 Z" fill="#613182"/></g><g transform="matrix(1 0 0 1 75.42765045166016 22.77422523498535)"><path d="M 5.322277069091797 4.365811347961426 C 5.10227707028389 4.365811347961426 4.902277525514364 4.22581073641777 4.842277526855469 4.005810737609863 L 4.072277069091797 1.355810284614563 C 4.0322770699858665 1.2058102786540985 3.9122780710458755 1.0858103595674038 3.772278070449829 1.0258103609085083 C 3.6222780644893646 0.9658103622496128 3.462279438972473 0.9858105480670929 3.3322794437408447 1.0758105516433716 L 0.7722779512405396 2.7558109760284424 C 0.5422779470682144 2.905810981988907 0.23227933794260025 2.8458106368780136 0.08227933198213577 2.6158106327056885 C -0.0677206739783287 2.3858106285333633 -0.007721275091171265 2.0758109390735626 0.22227872908115387 1.9258109331130981 L 2.7822763919830322 0.24581065773963928 C 3.1822763979434967 -0.014189332723617554 3.6722763180732727 -0.0741889700293541 4.122276306152344 0.09581103175878525 C 4.572276294231415 0.2658110335469246 4.902278289198875 0.6158105432987213 5.042278289794922 1.0758105516433716 L 5.812278747558594 3.7258102893829346 C 5.892278745770454 3.9958103001117706 5.73227858543396 4.265810891985893 5.472278594970703 4.345810890197754 C 5.422278594225645 4.3558108899742365 5.382279206067324 4.365811347961426 5.332279205322266 4.365811347961426 L 5.322277069091797 4.365811347961426 Z" fill="#613182"/></g><g transform="matrix(1 0 0 1 82.06340789794922 56.14120864868164)"><path d="M 0.8453205823898315 16.989154815673828 L 0.005320423748344183 11.119155883789062 C -0.034679575357586145 10.849155873060226 0.15532240271568298 10.589156188070774 0.42532241344451904 10.549156188964844 C 0.6953224241733551 10.509156189858913 0.9553221091628075 10.69915434718132 0.9953221082687378 10.969154357910156 L 1.675322413444519 15.769153594970703 C 5.775322318077087 14.809153616428375 10.10532146692276 13.229154348373413 10.295321464538574 12.219154357910156 C 10.505321457982063 11.089154362678528 6.705321788787842 5.529153823852539 2.9053218364715576 0.8091540336608887 C 2.7353218346834183 0.5991540402173996 2.7653198540210724 0.2791551873087883 2.9853198528289795 0.10915518552064896 C 3.2053198516368866 -0.06084481626749039 3.5153206139802933 -0.030844882130622864 3.6853206157684326 0.18915511667728424 C 5.025320649147034 1.8491550832986832 11.685321003198624 10.259152889251709 11.275321006774902 12.40915298461914 C 10.865321010351181 14.5991530418396 3.585321068763733 16.37915587425232 1.3653210401535034 16.869155883789062 L 0.8353222608566284 16.989154815673828 L 0.8453205823898315 16.989154815673828 Z" fill="#613182"/></g><g transform="matrix(1 0 0 1 0.01819959469139576 36.361759185791016)"><path d="M 0.710271954536438 22.31245994567871 C 0.710271954536438 22.31245994567871 0.6302719488739967 22.312459487468004 0.5902719497680664 22.29245948791504 C 0.32027193903923035 22.222459487617016 0.16027192026376724 21.952458888292313 0.23027192056179047 21.682458877563477 L 1.3902719020843506 17.04245948791504 C 1.020271897315979 16.04245948791504 -0.8997280597686768 10.50246000289917 0.5102719068527222 7.692460060119629 C 2.0002719163894653 4.722460031509399 14.900273323059082 0.49245974607765675 16.360273361206055 0.02245974726974964 C 16.62027335166931 -0.057540250942111015 16.900272518396378 0.08246135711669922 16.990272521972656 0.34246134757995605 C 17.070272520184517 0.6024613380432129 16.930272817611694 0.8824605047702789 16.670272827148438 0.9724605083465576 C 11.07027292251587 2.772460460662842 2.3902719020843506 6.1724607944488525 1.4002718925476074 8.142460823059082 C 0.08027184009552002 10.782460927963257 2.350271912291646 16.772460404783487 2.3802719116210938 16.832460403442383 L 2.4402718544006348 16.982458114624023 L 1.2002719640731812 21.922460556030273 C 1.1402719654142857 22.1524605602026 0.9402719438076019 22.302461624145508 0.7202719449996948 22.302461624145508 L 0.710271954536438 22.31245994567871 Z" fill="#613182"/></g><g transform="matrix(1 0 0 1 15.448781967163086 0.18278652429580688)"><path d="M 6.492290019989014 8.862289428710938 C 6.342290014028549 8.862289428710938 6.192290402948856 8.79228961467743 6.09229040145874 8.6622896194458 L 0.102289579808712 0.802289605140686 C -0.06771042197942734 0.5822896063327789 -0.017710253596305847 0.2722896412014961 0.19228973984718323 0.10228963941335678 C 0.41228973865509033 -0.06771036237478256 0.7222895175218582 -0.017710357904434204 0.8922895193099976 0.19228963553905487 L 6.892289638519287 8.062289237976074 C 7.0622896403074265 8.282289236783981 7.012290433049202 8.592289045453072 6.802290439605713 8.762289047241211 C 6.712290436029434 8.832289047539234 6.602290250360966 8.862289428710938 6.50229024887085 8.862289428710938 L 6.492290019989014 8.862289428710938 Z" fill="#613182"/></g><g transform="matrix(1 0 0 1 11.933120727539062 20.50006103515625)"><path d="M 5.751487731933594 2.501487970352173 C 5.751487731933594 2.501487970352173 5.661487389355898 2.501487512141466 5.61148738861084 2.481487512588501 L 0.3614872992038727 0.9814876317977905 C 0.09148728847503662 0.9014876335859299 -0.0585123673081398 0.6314877569675446 0.021487630903720856 0.3614877462387085 C 0.10148762911558151 0.09148773550987244 0.3714875280857086 -0.058512408286333084 0.6414875388145447 0.021487589925527573 L 5.891488075256348 1.5214875936508179 C 6.161488085985184 1.6014875918626785 6.3114872723817825 1.8714883029460907 6.231487274169922 2.1414883136749268 C 6.171487275511026 2.361488312482834 5.971487730741501 2.501487970352173 5.751487731933594 2.501487970352173 Z" fill="#613182"/></g><g transform="matrix(1 0 0 1 99.10710906982422 37.10511016845703)"><path d="M 0.4950961172580719 3.9950928688049316 C 0.29509611427783966 3.9950928688049316 0.10509322583675385 3.875093400478363 0.03509322553873062 3.685093402862549 C -0.0649067759513855 3.425093412399292 0.055095821619033813 3.1350937858223915 0.31509581208229065 3.0350937843322754 L 7.805093765258789 0.0350937694311142 C 8.055093765258789 -0.06490623205900192 8.35509528964758 0.05509254336357117 8.455095291137695 0.315092533826828 C 8.555095292627811 0.5750925242900848 8.435096502304077 0.8650921806693077 8.17509651184082 0.9650921821594238 L 0.6850947737693787 3.965092182159424 C 0.6250947751104832 3.985092181712389 0.5650961175560951 4.005093097686768 0.4950961172580719 4.005093097686768 L 0.4950961172580719 3.9950928688049316 Z" fill="#613182"/></g><g transform="matrix(1 0 0 1 99.09546661376953 48.33368682861328)"><path d="M 0.5013186931610107 1.3627454042434692 C 0.2413187026977539 1.3627454042434692 0.021318672806955874 1.1627444624900818 0.0013186732539907098 0.902744472026825 C -0.018681326298974454 0.6227444708347321 0.19131773710250854 0.3927437849342823 0.4613177478313446 0.37274378538131714 L 5.711317539215088 0.0027448441833257675 C 5.991317540407181 -0.02725515514612198 6.221316318958998 0.1927439272403717 6.241316318511963 0.46274393796920776 C 6.261316318064928 0.7427439391613007 6.051317244768143 0.9727446250617504 5.781317234039307 0.9927446246147156 L 0.5313174724578857 1.3627454042434692 C 0.5313174724578857 1.3627454042434692 0.5113165266811848 1.3627454042434692 0.4913165271282196 1.3627454042434692 L 0.5013186931610107 1.3627454042434692 Z" fill="#613182"/></g><g transform="matrix(1 0 0 1 98.09617614746094 53.6226806640625)"><path d="M 3.4054598808288574 3.0154612064361572 C 3.3054598793387413 3.0154612064361572 3.205461099743843 2.985461052507162 3.1254611015319824 2.9254610538482666 L 0.21546123921871185 0.9154607057571411 C -0.014538764953613281 0.7554607093334198 -0.064539834856987 0.4454599618911743 0.08546017110347748 0.21545995771884918 C 0.2454601675271988 -0.014540046453475952 0.5554609447717667 -0.06453921645879745 0.7854609489440918 0.08546078950166702 L 3.695460796356201 2.095461130142212 C 3.9254608005285263 2.2554611265659332 3.9754580557346344 2.565459981560707 3.82545804977417 2.7954599857330322 C 3.725458048284054 2.9354599863290787 3.575458198785782 3.0154612064361572 3.4154582023620605 3.0154612064361572 L 3.4054598808288574 3.0154612064361572 Z" fill="#613182"/></g></g></g></svg>
