<svg width="596" height="153" viewBox="0 0 596 153" fill="none" xmlns="http://www.w3.org/2000/svg">
<g clip-path="url(#clip0_0_1)">
<path d="M70.1232 75.7352C69.8328 75.7352 69.5605 75.6078 69.3789 75.3528C69.0885 74.934 69.1974 74.3695 69.5968 74.0781L87.0234 61.8046C89.8189 59.8379 91.4163 56.8879 91.5252 53.4827L93.6491 39.3517L100.547 34.1073C100.946 33.7977 101.509 33.8888 101.818 34.2894C102.126 34.69 102.036 35.2545 101.636 35.5641L95.3191 40.3715L93.3223 53.6466C93.2134 57.4706 91.2892 61.0216 88.0581 63.2796L70.6315 75.5531C70.4681 75.6624 70.2866 75.717 70.105 75.717L70.1232 75.7352Z" fill="#613182"/>
<path d="M7.02437 141.892C7.02437 141.892 6.95176 141.892 6.91546 141.892C6.42533 141.837 6.06228 141.382 6.11674 140.872L7.78679 126.978L9.14824 129.345C9.29346 129.618 12.9785 135.846 19.2593 134.28C24.5054 132.969 26.9379 114.941 27.4462 108.113C27.4825 107.621 27.9181 107.238 28.4264 107.275C28.9347 107.311 29.2977 107.748 29.2614 108.258C29.0618 110.917 27.1557 134.207 19.7131 136.065C14.594 137.339 10.9091 134.317 9.02117 132.168L7.95016 141.109C7.8957 141.564 7.49634 141.91 7.04253 141.91L7.02437 141.892Z" fill="#613182"/>
<path d="M32.0767 153C31.6591 153 31.2961 152.727 31.1872 152.308L27.8652 138.705L29.9709 140.435C30.2069 140.635 35.8524 145.17 41.153 141.491C45.6367 138.396 42.696 118.911 41.1712 111.682C41.0622 111.19 41.389 110.698 41.8791 110.607C42.3692 110.498 42.8594 110.826 42.9501 111.317C43.531 114.104 48.4504 138.651 42.1877 143.003C37.8492 146.007 33.3292 144.478 30.806 143.13L32.948 151.889C33.0751 152.381 32.7665 152.873 32.2763 152.982C32.2037 152.982 32.1311 153 32.0585 153H32.0767Z" fill="#613182"/>
<path d="M11.9644 51.7685L3.75759 97.5238C2.97998 101.859 5.85308 106.006 10.1748 106.786L55.7862 115.019C60.108 115.799 64.2418 112.917 65.0194 108.581L73.2262 62.826C74.0038 58.4906 71.1307 54.3437 66.809 53.5637L21.1976 45.331C16.8758 44.551 12.742 47.4331 11.9644 51.7685Z" fill="#613182"/>
<path d="M57.0359 110.298C56.6183 110.298 56.2008 110.261 55.7833 110.188L21.2024 103.942C17.4267 103.269 14.9216 99.6267 15.5932 95.8572L21.8196 61.1673C22.1464 59.3281 23.1629 57.7438 24.6877 56.6876C26.2126 55.6315 28.046 55.2308 29.8794 55.5586L64.4603 61.8046C66.2937 62.1324 67.873 63.1522 68.9259 64.6818C69.9787 66.2114 70.3781 68.0506 70.0513 69.8898L63.825 104.58C63.4982 106.419 62.4817 108.003 60.9568 109.059C59.7769 109.879 58.4155 110.298 57.0177 110.298H57.0359ZM28.645 57.2521C27.6103 57.2521 26.5938 57.5617 25.7225 58.1808C24.597 58.9639 23.8527 60.1475 23.5986 61.4951L17.3722 96.185C16.8639 98.9711 18.7337 101.648 21.511 102.158L56.0919 108.404C57.4352 108.659 58.7967 108.349 59.9221 107.566C61.0476 106.783 61.7919 105.6 62.046 104.252L68.2724 69.5621C68.7806 66.7759 66.9109 64.0991 64.1336 63.5892L29.5527 57.3432C29.2441 57.2886 28.9355 57.2521 28.6269 57.2521H28.645Z" fill="#6553A3"/>
<path d="M44.3286 37.7857C44.619 57.5981 13.596 57.5981 13.9046 37.7857C13.6142 17.9733 44.6371 17.9733 44.3286 37.7857Z" fill="white"/>
<path d="M29.0985 53.5555C25.9762 53.5555 22.8721 52.7725 20.2037 51.2246C15.4477 48.4385 12.8881 43.6675 12.9789 37.7857C12.8881 31.9221 15.4658 27.1511 20.2037 24.365C25.5224 21.2511 32.6746 21.2511 37.9933 24.365C42.7312 27.1511 45.3088 31.9221 45.2181 37.8039C45.2907 43.6857 42.7312 48.4567 37.9933 51.2429C35.343 52.8089 32.2208 53.5737 29.0985 53.5737V53.5555ZM29.0985 23.8369C26.303 23.8369 23.5075 24.5289 21.1295 25.931C16.9725 28.3712 14.7216 32.5777 14.7942 37.7675C14.7216 42.9937 16.9725 47.2002 21.1295 49.6404C25.9036 52.4447 32.3115 52.4447 37.0857 49.6404C41.2426 47.2002 43.4936 42.9937 43.421 37.7857C43.4936 32.5594 41.2426 28.3529 37.0857 25.9128C34.7077 24.5106 31.9122 23.8187 29.1166 23.8187L29.0985 23.8369Z" fill="#6553A3"/>
<path d="M75.7153 37.7857C76.0057 57.5981 44.9828 57.5981 45.2913 37.7857C45.0009 17.9733 76.0239 17.9733 75.7153 37.7857Z" fill="white"/>
<path d="M60.5028 53.5555C57.3805 53.5555 54.2764 52.7725 51.608 51.2246C46.852 48.4385 44.2924 43.6675 44.3832 37.7857C44.2924 31.9221 46.8701 27.1511 51.608 24.365C56.9267 21.2511 64.0789 21.2511 69.3976 24.365C74.1355 27.1511 76.7131 31.9221 76.6224 37.8039C76.695 43.6857 74.1355 48.4567 69.3976 51.2429C66.7473 52.7907 63.6251 53.5737 60.5028 53.5737V53.5555ZM60.5028 23.8369C57.7073 23.8369 54.9118 24.5289 52.5338 25.931C48.3768 28.3712 46.1259 32.5777 46.1985 37.7675C46.1259 42.9937 48.3768 47.2002 52.5338 49.6404C57.3079 52.4265 63.7158 52.4265 68.49 49.6404C72.6469 47.2002 74.8979 42.9937 74.8253 37.7857C74.8979 32.5594 72.6469 28.3529 68.49 25.9128C66.112 24.5106 63.3165 23.8187 60.5209 23.8187L60.5028 23.8369Z" fill="#6553A3"/>
<path d="M33.364 38.8601C32.9646 38.8601 32.6015 38.6052 32.4926 38.1863C31.0586 33.0147 29.679 32.5777 29.2796 32.5595C27.9363 32.5048 25.9758 35.9283 25.1408 38.2592C24.9774 38.7326 24.451 38.9694 23.979 38.8055C23.507 38.6416 23.2711 38.1135 23.4344 37.64C23.8519 36.4746 26.1392 30.6656 29.3522 30.7385C31.3853 30.8113 32.9283 33.0329 34.2353 37.6947C34.3624 38.1863 34.0901 38.678 33.5999 38.8237C33.5273 38.8419 33.4366 38.8601 33.3458 38.8601H33.364Z" fill="#613182"/>
<path d="M56.9629 38.86C56.8721 38.86 56.7632 38.86 56.6724 38.8054C56.2005 38.6415 55.9463 38.1317 56.0916 37.6582C57.5982 33.1421 59.3046 30.9387 61.3377 30.9387C64.5144 30.9387 66.5294 36.5474 66.8924 37.6582C67.0558 38.1317 66.7835 38.6415 66.3115 38.8054C65.8395 38.9693 65.3313 38.6962 65.1679 38.2227C64.4418 36.0193 62.7173 32.7415 61.3377 32.7415C60.8294 32.7415 59.468 33.2696 57.8161 38.2227C57.689 38.6051 57.3259 38.8418 56.9629 38.8418V38.86Z" fill="#613182"/>
<path d="M36.1604 66.0839L41.5336 67.049L37.1588 91.4867L52.2619 94.2L51.445 98.7525L30.9688 95.0741L36.1604 66.0839Z" fill="white"/>
<path d="M15.1567 75.4984C14.8662 75.4984 14.5758 75.3527 14.3943 75.0978L1.74184 55.9409C-0.146041 53.082 -0.509095 49.6585 0.743441 46.5628L6.06218 33.4152L2.61317 26.2951C2.39534 25.8399 2.57686 25.2936 3.03068 25.0751C3.4845 24.8566 4.02908 25.0387 4.24691 25.4939L8.05898 33.3424L2.43164 47.2366C1.41509 49.7678 1.70553 52.5721 3.26667 54.9212L15.9372 74.0781C16.2095 74.4969 16.1006 75.0614 15.6831 75.3345C15.5379 75.4438 15.3564 75.4802 15.1748 75.4802L15.1567 75.4984Z" fill="#613182"/>
<path d="M57.3808 11.3994L53.0786 12.9108L51.4267 17.3722L49.8656 13.0019L45.4727 11.3994L49.9201 9.74227L51.4267 5.42651L53.0242 9.83332L57.3808 11.3994Z" fill="#613182"/>
<path d="M74.1362 3.40526L71.6856 4.26113L70.7416 6.81052L69.8703 4.31576L67.3652 3.40526L69.8885 2.45834L70.7416 0L71.6674 2.51297L74.1362 3.40526Z" fill="#613182"/>
<path d="M87.7323 30.9569L84.6463 22.2707L75.9512 19.084L84.7189 15.8244L87.7504 7.17468L90.9453 15.9701L99.6767 19.1022L91.0179 22.1433L87.7504 30.9569H87.7323ZM81.1973 19.084L86.0622 20.8686L87.7686 25.6396L89.602 20.7047L94.2128 19.084L89.5112 17.4087L87.7686 12.6012L86.1348 17.263L81.1973 19.1022V19.084Z" fill="#613182"/>
<path d="M22.11 56.1777L60.7389 57.2521C61.2653 57.2521 61.6284 57.9259 61.3924 58.4539C60.1399 61.2401 50.1559 67.3222 44.5649 67.9413C34.4901 69.0521 28.4997 61.6225 21.8195 57.7073C21.1479 57.3067 21.3476 56.1595 22.0918 56.1777H22.11Z" fill="#FFD441"/>
</g>
<g clip-path="url(#clip1_0_1)">
<path d="M315.908 141.308C316.3 141.308 316.658 141.034 316.743 140.639C316.845 140.176 316.556 139.713 316.096 139.61L304.356 137.004C304.851 134.638 306.094 127.883 305.345 122.791C304.459 116.653 296.809 104.257 296.485 103.743C296.229 103.349 295.701 103.211 295.309 103.469C294.917 103.726 294.781 104.257 295.037 104.652C295.122 104.772 302.823 117.253 303.658 123.048C304.51 128.878 302.533 137.382 302.499 137.467L302.295 138.307L315.721 141.274C315.721 141.274 315.84 141.291 315.908 141.291V141.308Z" fill="#613182"/>
<path d="M278.031 147C278.236 147 278.44 146.931 278.611 146.777L286.925 138.976L286.55 138.376C286.55 138.376 283.654 133.644 282.24 125.894C280.843 118.316 288.816 106.435 288.902 106.315C289.174 105.92 289.072 105.389 288.68 105.132C288.288 104.875 287.76 104.96 287.504 105.355C287.164 105.869 279.054 117.939 280.57 126.22C281.78 132.752 283.909 137.142 284.761 138.685L277.452 145.526C277.111 145.851 277.094 146.383 277.418 146.743C277.588 146.931 277.81 147.017 278.048 147.017L278.031 147Z" fill="#613182"/>
<path d="M255.082 83.4261C256.053 83.4261 257.076 82.9803 258.132 82.0888C262.409 78.5054 265.101 73.5677 267.469 69.1957C269.531 65.4066 271.473 61.8404 274.063 59.8859C274.438 59.5944 274.523 59.0629 274.233 58.6857C273.943 58.3085 273.415 58.2399 273.04 58.5143C270.161 60.6917 268.133 64.4293 265.987 68.3727C263.567 72.8133 261.08 77.391 257.059 80.7686C255.525 82.0545 254.724 81.6773 254.452 81.5573C251.453 80.2028 250.022 69.8472 249.834 63.6407V63.0234L240.003 60.2116C239.56 60.0916 239.083 60.3488 238.947 60.7946C238.811 61.2575 239.083 61.7204 239.526 61.8576L248.148 64.3265C248.301 67.7212 249.17 81.0601 253.753 83.1346C254.179 83.3232 254.639 83.4261 255.082 83.4261Z" fill="#613182"/>
<path d="M283.43 47.718L325.636 58.3073C329.635 59.3106 332.069 63.3863 331.072 67.4105L320.548 109.882C319.551 113.906 315.501 116.355 311.502 115.351L269.296 104.762C265.296 103.759 262.863 99.6832 263.86 95.659L274.383 53.1878C275.38 49.1636 279.43 46.7147 283.43 47.718Z" fill="#613182"/>
<path d="M304.747 108.818C305.923 108.818 307.065 108.492 308.087 107.875C309.586 106.966 310.626 105.543 311.052 103.846L319.025 71.6473C319.451 69.95 319.179 68.184 318.293 66.6753C317.39 65.1665 315.976 64.1206 314.289 63.692L282.291 55.6681C280.604 55.2395 278.849 55.5138 277.35 56.4054C275.851 57.3141 274.811 58.7371 274.385 60.4345L266.412 92.6329C265.543 96.1477 267.672 99.7138 271.165 100.588L303.163 108.612C303.691 108.749 304.219 108.801 304.747 108.801V108.818ZM280.707 57.194C281.098 57.194 281.49 57.2455 281.882 57.3483L313.88 65.3722C315.124 65.6809 316.18 66.4695 316.844 67.584C317.509 68.6984 317.696 70.0014 317.39 71.253L309.416 103.451C309.109 104.703 308.325 105.766 307.218 106.435C306.11 107.103 304.816 107.292 303.572 106.983L271.574 98.9595C269.001 98.3079 267.434 95.6847 268.064 93.0958L276.038 60.8974C276.345 59.6458 277.129 58.5828 278.236 57.9141C279.003 57.4512 279.838 57.2283 280.707 57.2283V57.194Z" fill="#6553A3"/>
<path d="M308.326 43.0151C303.266 60.9488 331.396 68.5269 335.911 50.456C340.971 32.5223 312.841 24.9441 308.326 43.0151Z" fill="white"/>
<path d="M322.792 61.6689C324.206 61.6689 325.603 61.4975 326.949 61.1203C331.924 59.7487 335.417 56.0282 336.763 50.6618C338.263 45.3468 337.087 40.3747 333.458 36.6885C329.386 32.5565 322.911 30.8078 317.34 32.3508C312.365 33.7224 308.889 37.4258 307.526 42.7922C306.026 48.1243 307.202 53.0964 310.831 56.7826C313.915 59.9201 318.379 61.6689 322.792 61.6689ZM321.497 33.4995C325.45 33.4995 329.471 35.0769 332.231 37.8887C335.417 41.1119 336.439 45.5011 335.11 50.216C333.918 54.9995 330.851 58.2742 326.489 59.4743C321.48 60.8459 315.67 59.2857 312.024 55.5824C308.838 52.3591 307.815 47.97 309.144 43.2551C310.337 38.4887 313.387 35.1969 317.749 33.9967C318.958 33.671 320.219 33.4995 321.48 33.4995H321.497Z" fill="#6553A3"/>
<path d="M279.855 35.334C274.795 53.2678 302.925 60.8459 307.44 42.775C312.501 24.8412 284.371 17.2631 279.855 35.334Z" fill="white"/>
<path d="M294.321 53.9879C295.735 53.9879 297.132 53.8164 298.478 53.4392C303.454 52.0676 306.946 48.3471 308.292 42.9807C309.792 37.6658 308.616 32.6937 304.987 29.0075C300.915 24.8755 294.44 23.1267 288.869 24.6698C283.894 26.0414 280.418 29.7447 279.055 35.1111C277.556 40.4433 278.731 45.3982 282.36 49.1015C285.444 52.2391 289.908 53.9879 294.321 53.9879ZM293.026 25.8185C296.979 25.8185 301 27.3958 303.76 30.2076C306.946 33.4481 307.969 37.8201 306.64 42.535C305.447 47.3184 302.38 50.5931 298.018 51.7933C293.009 53.1649 287.199 51.6047 283.553 47.9014C280.367 44.6781 279.345 40.2889 280.674 35.5741C281.866 30.8077 284.916 27.5159 289.278 26.3157C290.488 25.9899 291.748 25.8185 293.009 25.8185H293.026Z" fill="#6553A3"/>
<path d="M290.403 38.3001C288.495 45.2096 294.952 46.2383 296.4 39.9117C298.291 33.7224 292.192 31.3392 290.403 38.3001Z" fill="#613182"/>
<path d="M293.793 39.2088C293.639 39.8089 294.628 40.6319 296.025 41.0091C296.314 40.3061 296.536 39.4832 296.621 38.7459C295.224 38.3859 293.946 38.6088 293.793 39.2088Z" fill="white"/>
<path d="M318.874 45.9639C316.965 52.8734 323.423 53.9021 324.871 47.5756C326.762 41.3862 320.663 39.003 318.874 45.9639Z" fill="#613182"/>
<path d="M322.263 46.8897C322.11 47.4898 323.098 48.3128 324.495 48.69C324.785 47.987 325.007 47.1641 325.092 46.4268C323.695 46.0668 322.417 46.2897 322.263 46.8897Z" fill="white"/>
<path d="M286.66 65.87L291.636 67.0481L286.155 89.7656L300.171 93.0961L299.154 97.3404L280.146 92.8239L286.637 65.8773L286.66 65.87Z" fill="white"/>
<path d="M344.089 101.788L352.591 96.5077C353 96.2505 353.119 95.7362 352.864 95.3247C352.608 94.9303 352.097 94.7932 351.688 95.0504L344.038 99.7995C329.01 91.1584 321.411 68.3555 321.343 68.1326C321.19 67.6868 320.713 67.4296 320.27 67.5839C319.827 67.7382 319.588 68.2183 319.725 68.6641C320.048 69.6413 327.75 92.7701 343.646 101.548L344.089 101.788Z" fill="#613182"/>
<path d="M248.302 55.7196C246.785 54.3137 244.229 50.1131 244.758 48.4501C246.104 44.1466 247.398 39.8261 248.676 35.5055C249.136 33.9453 250.176 32.8652 251.368 31.8708C253.021 30.482 254.674 29.0761 256.326 27.6702C256.582 27.4645 256.616 27.2759 256.48 26.9844C255.866 25.5271 254.691 24.8756 253.191 24.7727C251.011 24.6184 249.051 25.3385 247.177 26.3672C245.286 27.413 243.923 28.9904 242.679 30.722C241.316 32.6423 239.902 34.5282 238.453 36.4999L237.925 35.9684C234.364 32.3508 230.786 28.7332 227.225 25.0984C226.407 24.2583 225.453 23.7097 224.261 23.6583C222.063 23.5725 220.359 25.2699 220.444 27.4645C220.478 28.1846 220.597 28.9218 220.683 29.6933C220.086 29.5219 219.524 29.3676 218.945 29.2133C217.343 28.8018 215.98 29.179 214.941 30.4991C213.953 31.7507 213.867 33.1223 214.549 34.5625C214.77 35.0426 215.026 35.5227 215.316 36.1056C214.719 36.1913 214.157 36.2599 213.612 36.3456C211.908 36.6199 210.698 37.803 210.426 39.4489C210.238 40.5976 210.579 41.6092 211.261 42.535C211.516 42.8779 211.738 43.2208 212.027 43.6323C211.567 43.7866 211.175 43.9409 210.749 44.0266C207.7 44.7639 206.797 48.3643 209.08 50.6275C213.884 55.411 218.621 60.2973 223.392 65.1322C224.789 66.5553 226.442 67.4125 228.418 67.6354C228.81 67.6868 229.219 67.7554 229.577 67.9269C229.832 68.0469 234.927 73.8762 235.097 73.7733" fill="white"/>
<path d="M235.148 74.6649C235.302 74.6649 235.421 74.5963 235.591 74.4934L235.165 73.7562L235.608 73.0361C235.302 72.796 233.649 70.9615 232.541 69.7614C230.258 67.241 230.224 67.2239 229.986 67.121C229.594 66.9496 229.134 66.8296 228.572 66.761C226.834 66.5724 225.351 65.8351 224.056 64.515L219.95 60.3316C216.56 56.8683 213.169 53.4221 209.744 49.9931C208.875 49.1187 208.535 47.9528 208.824 46.8898C209.114 45.8611 209.915 45.1067 211.022 44.8496C211.329 44.781 211.619 44.6781 211.942 44.5752L213.459 44.078L212.539 42.7407C212.351 42.4835 212.198 42.2435 212.01 42.0035C211.414 41.1977 211.193 40.4261 211.329 39.5689C211.533 38.283 212.471 37.3914 213.817 37.1686C214.191 37.1 214.583 37.0485 214.975 36.9971L216.679 36.7571L215.861 35.1454C215.691 34.8025 215.52 34.4939 215.384 34.1682C214.822 33.0023 214.924 31.9565 215.674 31.0135C216.474 30.0019 217.48 29.6933 218.792 30.0362C219.184 30.1391 219.558 30.2419 219.95 30.362L221.722 30.8592L221.484 28.836C221.416 28.356 221.364 27.8931 221.33 27.413C221.296 26.59 221.569 25.8357 222.114 25.3042C222.659 24.7555 223.443 24.464 224.261 24.4983C225.147 24.5326 225.897 24.9098 226.663 25.6813L238.59 37.8029L240.481 35.2312C241.469 33.8767 242.458 32.5565 243.412 31.2192C244.468 29.7619 245.78 28.116 247.62 27.1044C249.716 25.9557 251.437 25.4928 253.158 25.6128C254.384 25.6985 255.185 26.1786 255.645 27.1387C254.861 27.8073 254.095 28.4589 253.311 29.1104C252.493 29.8133 251.658 30.5163 250.84 31.2021C249.682 32.1622 248.438 33.4138 247.876 35.2483C246.598 39.5689 245.303 43.8894 243.957 48.1928C243.258 50.4389 246.24 54.9652 247.74 56.3539L248.898 55.0852C247.365 53.6621 245.235 49.8045 245.576 48.6901C246.922 44.3866 248.217 40.0489 249.494 35.7284C249.92 34.3225 250.909 33.3452 251.914 32.5051C252.749 31.8021 253.567 31.0992 254.401 30.3962C255.219 29.6933 256.054 28.9904 256.872 28.3045C257.247 27.9959 257.622 27.4473 257.264 26.6243C256.565 24.9784 255.185 24.0354 253.26 23.8983C250.568 23.6925 248.285 24.7727 246.785 25.5956C244.639 26.7786 243.173 28.596 242.015 30.2077C241.061 31.545 240.089 32.8651 239.101 34.2025L238.386 35.1626L227.856 24.464C226.8 23.3839 225.641 22.8353 224.312 22.7667C223 22.7153 221.79 23.1782 220.904 24.0697C220.018 24.9613 219.558 26.1614 219.627 27.4644C219.627 27.8073 219.678 28.1502 219.712 28.4931C219.541 28.4417 219.371 28.4074 219.201 28.356C217.224 27.8588 215.537 28.3903 214.328 29.9333C213.169 31.4078 212.999 33.1223 213.834 34.8883C213.902 35.0426 213.987 35.214 214.072 35.3683C213.885 35.4026 213.714 35.4198 213.527 35.454C211.465 35.7798 209.966 37.2543 209.642 39.2603C209.438 40.5633 209.761 41.8149 210.63 42.9979C210.664 43.0322 210.699 43.0836 210.716 43.1179C210.682 43.1179 210.647 43.135 210.613 43.1522C208.91 43.5637 207.632 44.781 207.172 46.4098C206.712 48.09 207.223 49.8902 208.535 51.1932C211.959 54.6051 215.35 58.0513 218.741 61.5146L222.847 65.698C224.414 67.2753 226.271 68.2012 228.384 68.4412C228.708 68.4755 228.98 68.5441 229.202 68.6126C229.509 68.9041 230.48 69.9842 231.281 70.8758C234.024 73.8933 234.688 74.6306 235.148 74.6306V74.6649Z" fill="#613182"/>
<path d="M251.754 51.8103L262.27 62.4925C262.873 63.1047 262.868 64.0926 262.26 64.699L242.53 84.3668C241.921 84.9732 240.94 84.9685 240.337 84.3564L229.821 73.6742C229.218 73.062 229.223 72.0742 229.831 71.4677L249.561 51.7999C250.17 51.1935 251.152 51.1982 251.754 51.8103Z" fill="#613182"/>
<path d="M316.146 60.0573L293.946 54.0565C293.946 54.0565 293.452 64.5665 301.017 67.3268C308.582 70.07 316.146 60.0573 316.146 60.0573Z" fill="#FFD441"/>
<path d="M234.073 67.2754C234.073 67.2754 232.778 64.5322 230.444 64.0007C228.11 63.4692 214.138 51.3991 214.326 49.8903C214.513 48.3815 217.58 48.4672 218.057 47.4385C218.534 46.4098 216.081 43.4952 216.575 42.3979C217.069 41.3006 220.834 41.8664 221.124 41.2149C221.414 40.5634 219.148 37.4087 219.965 36.2428C220.783 35.0769 224.378 37.4258 225.111 36.7229C225.844 36.0199 223.935 32.2137 225.009 31.5279C226.082 30.8421 228.195 32.0937 230.205 34.7169C232.216 37.3401 236.305 42.8094 237.941 42.7922C239.576 42.7751 242.814 35.7799 244.074 33.6196C245.08 31.888 248.317 28.0646 249.493 28.4932C250.668 28.9219 245.744 34.7512 244.006 40.4262C242.268 46.1012 241.025 49.4102 241.621 51.279C242.217 53.1479 244.364 57.0398 244.364 57.0398L234.073 67.3097V67.2754Z" fill="#FFD441"/>
<path d="M240.787 23.8298C241.111 23.8298 241.417 23.6412 241.571 23.3326C243.104 19.8864 249.459 20.0235 249.528 20.0407C250.005 20.0064 250.396 19.6806 250.396 19.2006C250.396 18.7205 250.039 18.3262 249.579 18.3262C249.272 18.3262 242.031 18.1547 240.02 22.6296C239.833 23.0582 240.02 23.5726 240.446 23.7612C240.565 23.8126 240.685 23.8298 240.787 23.8298Z" fill="#613182"/>
<path d="M241.774 17.4176C242.03 17.4176 242.285 17.2976 242.456 17.0747C242.592 16.8861 243.342 16.7318 244.023 16.6975C244.5 16.6975 244.875 16.3203 244.875 15.8403C244.875 15.3602 244.5 14.983 244.023 14.983C243.665 14.983 241.842 15.0173 241.093 16.0289C240.803 16.4061 240.888 16.9376 241.263 17.229C241.416 17.3491 241.604 17.4005 241.774 17.4005V17.4176Z" fill="#613182"/>
<path d="M254.996 41.472C254.996 41.472 255.167 41.472 255.252 41.4377C259.205 40.1861 260.721 36.4485 260.738 35.6084C260.738 35.1283 260.38 34.734 259.92 34.7169C259.443 34.6826 259.086 35.0426 259.052 35.5055C258.949 36.0199 257.808 38.8317 254.758 39.7918C254.315 39.929 254.059 40.409 254.196 40.8719C254.315 41.232 254.639 41.472 255.013 41.472H254.996Z" fill="#613182"/>
</g>
<g clip-path="url(#clip2_0_1)">
<path d="M556.377 141C556.526 141 556.695 140.963 556.844 140.869L568.537 134.153L566.348 133.573C562.681 132.582 553.421 129.028 554.487 124.407C555.928 118.103 562.906 104.634 562.981 104.484C563.224 104.016 563.037 103.455 562.588 103.231C562.139 102.987 561.559 103.175 561.334 103.624C561.035 104.185 554.188 117.467 552.691 123.977C551.382 129.682 559.763 133.311 563.823 134.714L555.928 139.242C555.479 139.503 555.329 140.065 555.591 140.514C555.759 140.813 556.077 140.981 556.395 140.981L556.377 141Z" fill="#613182"/>
<path d="M527.471 140.14C527.62 140.14 527.751 140.102 527.882 140.046L539.35 134.303L538.677 133.405C536.02 129.888 532.672 124.182 533.551 122.443C535.889 117.86 545.599 112.154 545.693 112.098C546.142 111.836 546.291 111.256 546.029 110.826C545.767 110.377 545.206 110.227 544.757 110.489C544.346 110.732 534.486 116.513 531.886 121.601C530.37 124.557 534.617 130.992 536.525 133.63L527.059 138.362C526.591 138.587 526.404 139.148 526.648 139.616C526.816 139.952 527.134 140.14 527.489 140.14H527.471Z" fill="#613182"/>
<path d="M565.747 45.8733L581.384 91.0003C582.865 95.2762 580.6 99.9434 576.324 101.425L531.194 117.06C526.917 118.542 522.25 116.277 520.768 112.001L505.132 66.8737C503.65 62.5978 505.915 57.9306 510.192 56.4491L555.322 40.8137C559.598 39.3322 564.266 41.5975 565.747 45.8733Z" fill="#613182"/>
<path d="M528.089 112.547C528.857 112.547 529.642 112.416 530.428 112.154L564.646 100.312C568.368 99.0215 570.352 94.9434 569.061 91.202L557.218 56.9869C556.601 55.1724 555.31 53.7319 553.589 52.8901C551.868 52.0483 549.922 51.936 548.126 52.5721L513.909 64.4136C510.186 65.7044 508.203 69.7825 509.493 73.5239L521.336 107.739C522.365 110.695 525.134 112.547 528.108 112.547H528.089ZM529.811 110.377C527.061 111.331 524.048 109.872 523.094 107.122L511.252 72.9066C510.298 70.1566 511.757 67.1448 514.507 66.1908L548.725 54.3492C550.053 53.8816 551.494 53.9751 552.766 54.5924C554.038 55.2098 554.992 56.2761 555.46 57.623L567.302 91.838C568.256 94.5879 566.797 97.5998 564.047 98.5538L529.829 110.395L529.811 110.377Z" fill="#6553A3"/>
<path d="M530.296 37.2137C536.339 56.6503 566.721 46.7169 560.098 27.4674C554.056 8.03083 523.673 17.9642 530.296 37.2137Z" fill="white"/>
<path d="M544.383 48.6811C549.547 48.6811 554.785 46.455 558.209 42.6013C561.969 38.3549 562.961 32.8737 560.996 27.1494C559.2 21.4063 555.159 17.5527 549.622 16.3742C543.411 15.0273 536.414 17.3282 532.204 22.0798C528.444 26.3076 527.452 31.7887 529.417 37.5131C531.213 43.2748 535.254 47.1097 540.791 48.307C541.97 48.5689 543.186 48.6811 544.402 48.6811H544.383ZM545.992 17.8707C547.077 17.8707 548.162 17.983 549.229 18.2075C554.074 19.255 557.629 22.641 559.219 27.748C560.959 32.8363 560.098 37.6627 556.806 41.3667C553.027 45.6319 546.741 47.6709 541.184 46.4737C536.339 45.4261 532.784 42.0401 531.194 36.9331C529.454 31.8448 530.315 27.0184 533.607 23.3145C536.676 19.8724 541.371 17.8707 546.011 17.8707H545.992Z" fill="#6553A3"/>
<path d="M499.54 47.278C505.583 66.7146 535.965 56.7812 529.343 37.5317C523.3 18.0952 492.917 28.0286 499.54 47.278Z" fill="white"/>
<path d="M513.628 58.7454C518.791 58.7454 524.029 56.5193 527.453 52.6657C531.213 48.4192 532.205 42.9381 530.241 37.2137C528.445 31.4707 524.404 27.617 518.866 26.4385C512.655 25.0916 505.658 27.3926 501.448 32.1441C497.688 36.3719 496.697 41.853 498.661 47.5774C500.457 53.3391 504.498 57.1741 510.036 58.3713C511.214 58.6332 512.43 58.7454 513.646 58.7454H513.628ZM515.236 27.9351C516.322 27.9351 517.407 28.0473 518.473 28.2718C523.318 29.3194 526.873 32.7053 528.463 37.8123C530.203 42.9006 529.343 47.727 526.05 51.431C522.271 55.6962 515.985 57.7353 510.428 56.538C505.583 55.4904 502.028 52.1045 500.438 46.9975C498.698 41.9092 499.559 37.0828 502.852 33.3788C505.92 29.9367 510.615 27.9351 515.255 27.9351H515.236Z" fill="#6553A3"/>
<path d="M529.476 69.7765L534.603 67.4742L545.022 90.7467L559.451 84.2732L561.394 88.6084L541.825 97.3706L529.45 69.7493L529.476 69.7765Z" fill="white"/>
<path d="M553.27 51.6181L516.34 63.6841C515.348 64.0021 514.955 65.1807 515.573 66.0225C518.585 70.2502 527.34 80.5952 539.145 77.8266C550.969 75.0392 554.392 59.3815 555.272 53.3017C555.44 52.1793 554.355 51.2814 553.27 51.6368V51.6181Z" fill="#FFD441"/>
<path d="M541.746 37.1949C542.158 37.1949 542.532 36.933 542.644 36.5215L544.085 31.5641C544.159 31.2835 544.384 31.0591 544.646 30.9468C544.926 30.8533 545.226 30.872 545.469 31.0403L550.258 34.1831C550.689 34.4637 551.269 34.3515 551.549 33.9212C551.83 33.491 551.718 32.911 551.287 32.6304L546.498 29.4877C545.75 29.0013 544.833 28.889 543.991 29.2071C543.149 29.5251 542.532 30.1985 542.27 31.0591L540.829 35.9977C540.68 36.5028 540.979 37.0079 541.465 37.1575C541.559 37.1762 541.634 37.1949 541.727 37.1949H541.746Z" fill="#613182"/>
<path d="M510.615 46.9413C511.027 46.9413 511.401 46.6794 511.513 46.2678L512.954 41.3105C513.029 41.0299 513.253 40.8054 513.515 40.6932C513.796 40.5809 514.095 40.6183 514.338 40.7867L519.127 43.9295C519.558 44.2101 520.138 44.0978 520.418 43.6676C520.699 43.2373 520.587 42.6574 520.156 42.3768L515.367 39.234C514.619 38.7476 513.702 38.6354 512.86 38.9534C512.018 39.2714 511.401 39.9262 511.139 40.7867L509.698 45.744C509.549 46.2491 509.848 46.7542 510.335 46.9039C510.428 46.9226 510.503 46.9413 510.596 46.9413H510.615Z" fill="#613182"/>
<path d="M512.356 103.923L513.928 92.9418C514.002 92.4367 513.647 91.9503 513.142 91.8755C512.637 91.8007 512.15 92.1561 512.075 92.6612L510.803 101.641C503.133 99.8447 495.032 96.889 494.677 94.9996C494.284 92.8857 501.393 82.4846 508.502 73.6549C508.82 73.2621 508.764 72.6635 508.352 72.3454C507.941 72.0274 507.361 72.0835 507.043 72.4951C504.536 75.6004 492.076 91.333 492.843 95.355C493.61 99.4518 507.23 102.782 511.383 103.698L512.375 103.923H512.356Z" fill="#613182"/>
<path d="M594.654 94.1017C594.654 94.1017 594.803 94.1017 594.878 94.0643C595.383 93.9333 595.683 93.4282 595.552 92.9231L593.381 84.2431C594.074 82.3724 597.666 72.0087 595.028 66.7521C592.24 61.1961 568.107 53.2831 565.375 52.4038C564.889 52.2542 564.365 52.5161 564.196 53.0025C564.047 53.4888 564.309 54.0126 564.795 54.181C575.272 57.5483 591.511 63.9086 593.363 67.5939C595.832 72.5325 591.585 83.738 591.529 83.8503L591.417 84.1309L593.737 93.3721C593.849 93.8024 594.223 94.083 594.635 94.083L594.654 94.1017Z" fill="#613182"/>
<path d="M568.405 32.7614C568.685 32.7614 568.966 32.6305 569.153 32.3873L580.359 17.6836C580.677 17.272 580.584 16.6921 580.191 16.3741C579.779 16.0561 579.199 16.1496 578.881 16.5425L567.656 31.2648C567.338 31.6764 567.432 32.2563 567.825 32.5743C567.993 32.7053 568.199 32.7614 568.386 32.7614H568.405Z" fill="#613182"/>
<path d="M573.306 41.1795C573.306 41.1795 573.475 41.1795 573.568 41.1421L583.39 38.3361C583.895 38.1864 584.176 37.6813 584.026 37.1762C583.877 36.6711 583.371 36.3905 582.866 36.5402L573.044 39.3462C572.539 39.4959 572.259 40.001 572.408 40.5061C572.521 40.9176 572.895 41.1795 573.306 41.1795Z" fill="#613182"/>
<path d="M495.966 60.5787C496.341 60.5787 496.696 60.3542 496.827 59.9988C497.014 59.5124 496.79 58.9699 496.303 58.7828L482.291 53.1708C481.823 52.9837 481.262 53.2082 481.075 53.6945C480.887 54.1809 481.112 54.7234 481.598 54.9105L495.611 60.5226C495.723 60.56 495.835 60.5974 495.966 60.5974V60.5787Z" fill="#613182"/>
<path d="M495.966 66.883C496.453 66.883 496.864 66.5089 496.902 66.0225C496.939 65.4987 496.546 65.0684 496.041 65.031L486.219 64.3389C485.696 64.2828 485.265 64.6943 485.228 65.1994C485.19 65.7232 485.583 66.1535 486.088 66.1909L495.91 66.883C495.91 66.883 495.948 66.883 495.985 66.883H495.966Z" fill="#613182"/>
<path d="M491.533 75.2637C491.72 75.2637 491.907 75.2076 492.057 75.0953L497.501 71.3352C497.931 71.0359 498.025 70.456 497.744 70.0257C497.445 69.5955 496.865 69.5019 496.435 69.7826L490.991 73.5427C490.56 73.842 490.467 74.4219 490.748 74.8521C490.935 75.114 491.215 75.2637 491.515 75.2637H491.533Z" fill="#613182"/>
</g>
<defs>
<clipPath id="clip0_0_1">
<rect width="102" height="153" fill="white"/>
</clipPath>
<clipPath id="clip1_0_1">
<rect width="146" height="132" fill="white" transform="matrix(-1 0 0 1 353 15)"/>
</clipPath>
<clipPath id="clip2_0_1">
<rect width="115" height="125" fill="white" transform="matrix(-1 0 0 1 596 16)"/>
</clipPath>
</defs>
</svg>