<svg width="634" height="172" viewBox="0 0 634 172" fill="none" xmlns="http://www.w3.org/2000/svg">
<g clip-path="url(#clip0_0_1)">
<path d="M100.444 167C100.249 167 100.037 166.919 99.8746 166.773L90.7637 158.066L91.1053 157.513C91.1541 157.432 96.3767 148.985 98.4917 143.722C101.062 137.289 99.7607 126.6 99.7444 126.486C99.6956 126.048 100.005 125.642 100.444 125.577C100.883 125.512 101.29 125.836 101.355 126.275C101.42 126.73 102.738 137.484 100.005 144.323C98.1338 148.985 94.0664 155.808 92.8462 157.806L101.013 165.603C101.339 165.912 101.355 166.431 101.046 166.756C100.883 166.919 100.672 167 100.46 167H100.444Z" fill="#95C11F"/>
<path d="M128.428 164.238C128.281 164.238 128.135 164.206 128.005 164.125L117.771 157.822L117.804 157.335C117.804 157.335 118.227 151.698 117.934 144.745C117.608 137.159 115.591 126.373 115.558 126.275C115.477 125.836 115.77 125.414 116.209 125.333C116.632 125.252 117.072 125.544 117.153 125.983C117.169 126.096 119.219 136.996 119.545 144.696C119.789 150.544 119.545 155.45 119.447 156.977L128.834 162.76C129.225 163.004 129.339 163.491 129.095 163.881C128.948 164.125 128.672 164.271 128.395 164.271L128.428 164.238Z" fill="#95C11F"/>
<path d="M136.353 94.1922C133.457 94.1922 130.935 91.2194 128.69 85.144C128.527 84.7216 128.755 84.2506 129.161 84.1044C129.584 83.9419 130.056 84.1693 130.203 84.5754C132.139 89.8062 134.27 92.5677 136.369 92.5677C136.418 92.5677 136.45 92.5677 136.499 92.5677C142.454 92.2266 148.701 72.0672 150.605 64.3348L150.719 63.88L159.96 61.2483C160.399 61.1184 160.838 61.3783 160.968 61.8007C161.099 62.2393 160.838 62.6779 160.415 62.8078L152.069 65.1795C150.93 69.7117 144.504 93.7373 136.597 94.1922C136.515 94.1922 136.434 94.1922 136.353 94.1922Z" fill="#95C11F"/>
<path d="M128.363 75.1699H86.8272C82.8916 75.1699 79.7012 78.3555 79.7012 82.285V123.757C79.7012 127.687 82.8916 130.872 86.8272 130.872H128.363C132.299 130.872 135.489 127.687 135.489 123.757V82.285C135.489 78.3555 132.299 75.1699 128.363 75.1699Z" fill="#95C11F"/>
<path d="M127.599 126.616H96.1173C92.6844 126.616 89.9023 123.822 89.9023 120.411V88.9615C89.9023 85.5339 92.7007 82.7561 96.1173 82.7561H127.599C131.032 82.7561 133.814 85.5502 133.814 88.9615V120.395C133.814 123.822 131.015 126.6 127.599 126.6V126.616ZM96.1173 84.3806C93.5793 84.3806 91.5293 86.4436 91.5293 88.9615V120.395C91.5293 122.929 93.5955 124.976 96.1173 124.976H127.599C130.137 124.976 132.187 122.912 132.187 120.395V88.9615C132.187 86.4274 130.121 84.3806 127.599 84.3806H96.1173Z" fill="#684B99"/>
<path d="M107.164 63.0678C107.425 80.7418 79.62 80.7418 79.8966 63.0678C79.6363 45.3938 107.441 45.3938 107.164 63.0678Z" fill="white"/>
<path d="M93.5139 77.1355C90.7155 77.1355 87.9334 76.437 85.5418 75.0562C81.2792 72.5708 78.9852 68.3147 79.0665 63.0678C78.9852 57.837 81.2955 53.581 85.5581 51.0956C90.325 48.3178 96.7352 48.3178 101.502 51.0956C105.749 53.581 108.059 57.837 107.977 63.084C108.043 68.331 105.749 72.587 101.486 75.0724C99.1106 76.4532 96.3122 77.1517 93.5139 77.1517V77.1355ZM93.5139 50.6245C91.0084 50.6245 88.5029 51.2418 86.3716 52.4926C82.6458 54.6694 80.6284 58.4218 80.6935 63.0678C80.6284 67.7299 82.6458 71.4824 86.3716 73.6592C90.6504 76.1446 96.3936 76.1608 100.672 73.6592C104.398 71.4824 106.416 67.7299 106.351 63.084C106.416 58.4218 104.398 54.6694 100.672 52.4926C98.5412 51.2418 96.0357 50.6245 93.5139 50.6245Z" fill="#684B99"/>
<path d="M135.295 63.0678C135.555 80.7418 107.751 80.7418 108.027 63.0678C107.767 45.3938 135.572 45.3938 135.295 63.0678Z" fill="white"/>
<path d="M121.66 77.1355C118.862 77.1355 116.08 76.437 113.688 75.0562C109.426 72.5708 107.132 68.3147 107.213 63.0678C107.132 57.837 109.442 53.581 113.688 51.0956C118.455 48.3178 124.865 48.3178 129.632 51.0956C133.879 53.581 136.189 57.837 136.108 63.084C136.173 68.331 133.879 72.587 129.632 75.0724C127.257 76.4532 124.459 77.1517 121.66 77.1517V77.1355ZM121.66 50.6245C119.155 50.6245 116.649 51.2418 114.518 52.4926C110.792 54.6694 108.775 58.4218 108.84 63.0515C108.775 67.7137 110.792 71.4662 114.518 73.6429C118.797 76.1446 124.54 76.1446 128.819 73.6429C132.545 71.4662 134.562 67.7137 134.497 63.0678C134.562 58.4056 132.545 54.6531 128.819 52.4763C126.688 51.2255 124.182 50.6082 121.677 50.6082L121.66 50.6245Z" fill="#684B99"/>
<path d="M119.319 65.7806C119.384 72.5708 113.185 71.9211 113.397 65.7806C113.169 59.6402 119.384 58.9742 119.319 65.7806Z" fill="#602B7A"/>
<path d="M115.967 65.7807C115.967 66.3817 114.845 66.869 113.462 66.8853C113.364 66.1705 113.364 65.3583 113.462 64.6598C114.845 64.676 115.967 65.1796 115.967 65.7807Z" fill="white"/>
<path d="M91.188 65.7806C91.2531 72.5708 85.0544 71.9211 85.2659 65.7806C85.0381 59.6402 91.2531 58.9742 91.188 65.7806Z" fill="#602B7A"/>
<path d="M87.8365 65.7807C87.8365 66.3817 86.7139 66.869 85.331 66.8853C85.2334 66.1705 85.2334 65.3583 85.331 64.6598C86.7139 64.676 87.8365 65.1796 87.8365 65.7807Z" fill="white"/>
<path d="M68.8332 126.113C68.638 126.113 68.4427 126.048 68.28 125.901L62 120.118L62.8297 119.534C66.3114 117.129 67.8408 112.061 69.4677 106.684C71.5665 99.764 73.9256 91.9179 81.1655 88.3929C81.5722 88.198 82.0603 88.3604 82.2555 88.7665C82.4508 89.1726 82.2881 89.66 81.8813 89.8549C75.2759 93.0713 73.1121 100.235 71.0296 107.155C69.4352 112.402 67.9384 117.389 64.5543 120.265L69.3864 124.699C69.7118 125.008 69.7443 125.512 69.4352 125.853C69.2725 126.031 69.061 126.113 68.8332 126.113Z" fill="#95C11F"/>
<path d="M108.206 79.6859C105.75 79.7996 98.6236 79.9458 98.7537 82.3987C98.8839 84.8516 102.642 87.6944 107.816 87.4508C112.99 87.2071 119.741 79.1661 108.206 79.6859Z" fill="#602B7A"/>
<path d="M122.115 102.201V107.399L103.031 114.644V109.641L116.389 104.8L103.031 99.9103V94.9395L122.115 102.184V102.201Z" fill="#602B7A"/>
</g>
<g clip-path="url(#clip1_0_1)">
<path d="M35.5003 153C35.3713 153 35.2261 152.968 35.1132 152.903L24.6777 147.143L25.0487 146.433C25.0971 146.336 30.0487 137.074 30.7906 131.572C31.6777 125.021 28.4842 113.209 28.4519 113.08C28.339 112.645 28.581 112.209 29.0164 112.096C29.4519 111.983 29.8874 112.225 30.0003 112.661C30.1293 113.161 33.3229 124.908 32.3874 131.798C31.71 136.735 28.0326 144.174 26.839 146.497L35.8874 151.499C36.2745 151.709 36.4197 152.209 36.21 152.597C36.0648 152.871 35.7906 153.016 35.5003 153.016V153Z" fill="#602B7A"/>
<path d="M56.9517 152.564C56.8549 152.564 56.7582 152.564 56.6775 152.516L44.2743 147.949L44.4356 147.256C44.4517 147.159 46.7582 137.139 48.1291 129.684C49.4517 122.503 44.242 113.08 44.1936 112.983C43.984 112.596 44.113 112.112 44.5001 111.886C44.8872 111.676 45.3711 111.806 45.5969 112.193C45.8227 112.596 51.1452 122.213 49.7098 129.974C48.5323 136.316 46.6936 144.513 46.1614 146.917L57.2259 150.999C57.6452 151.144 57.8549 151.612 57.7098 152.032C57.5969 152.355 57.2743 152.564 56.9517 152.564Z" fill="#602B7A"/>
<path d="M9.3544 127.28C9.0802 127.28 8.82214 127.151 8.67698 126.909C8.43504 126.537 8.54795 126.037 8.93504 125.795L14.4996 122.31C11.1931 119.196 -0.952053 106.836 0.0640757 95.105C0.515689 89.8932 3.51569 85.5527 8.98343 82.1803C9.37053 81.9544 9.8544 82.0674 10.0963 82.4385C10.3221 82.8258 10.2092 83.3098 9.83827 83.5519C4.83827 86.6338 2.09633 90.5709 1.67698 95.2503C0.596334 107.723 16.1931 121.697 16.3544 121.842L17.1609 122.552L9.78988 127.167C9.66085 127.247 9.51569 127.296 9.3544 127.296V127.28Z" fill="#602B7A"/>
<path d="M75.355 111.031L75.0969 110.676C74.8389 110.321 68.7098 101.785 67.2421 97.5416C65.9356 93.7336 65.8872 90.1837 65.8389 86.7468C65.7743 81.7286 65.726 77.4043 61.855 73.1122C61.5647 72.7733 61.5808 72.2731 61.9195 71.9665C62.2421 71.6761 62.7582 71.6922 63.0647 72.0311C67.3389 76.775 67.3872 81.6157 67.4518 86.7307C67.5002 90.0385 67.5324 93.4593 68.7582 97.0091C69.984 100.559 74.9518 107.691 76.1453 109.369L84.1453 108.901C84.5969 108.885 84.9679 109.208 85.0002 109.66C85.0324 110.111 84.6937 110.482 84.2421 110.515L75.355 111.047V111.031Z" fill="#602B7A"/>
<path d="M56.7908 61.9946H15.6133C11.7117 61.9946 8.54883 65.1588 8.54883 69.0621V110.257C8.54883 114.16 11.7117 117.324 15.6133 117.324H56.7908C60.6924 117.324 63.8553 114.16 63.8553 110.257V69.0621C63.8553 65.1588 60.6924 61.9946 56.7908 61.9946Z" fill="#602B7A"/>
<path d="M54.6932 114.775H23.4836C20.0803 114.775 17.3223 111.999 17.3223 108.595V77.372C17.3223 73.9673 20.0965 71.2081 23.4836 71.2081H54.6932C58.0965 71.2081 60.8545 73.9835 60.8545 77.372V108.595C60.8545 111.999 58.0803 114.775 54.6932 114.775ZM23.4836 72.8217C20.9674 72.8217 18.9352 74.8709 18.9352 77.372V108.595C18.9352 111.112 20.9836 113.161 23.4836 113.161H54.6932C57.2094 113.161 59.2416 111.112 59.2416 108.595V77.372C59.2416 74.8548 57.1932 72.8217 54.6932 72.8217H23.4836Z" fill="#684B99"/>
<path d="M35.7745 49.9735C36.0326 67.5291 8.46807 67.5291 8.74227 49.9735C8.4842 32.4179 36.0487 32.4179 35.7745 49.9735Z" fill="white"/>
<path d="M22.2582 63.947C19.4841 63.947 16.726 63.2532 14.355 61.8817C10.1292 59.4129 7.85502 55.1853 7.93567 49.9735C7.85502 44.7778 10.1453 40.5503 14.355 38.0815C19.0808 35.3223 25.4357 35.3223 30.1615 38.0815C34.3712 40.5503 36.6615 44.7778 36.5808 49.9896C36.6453 55.2015 34.3712 59.429 30.1615 61.8978C27.8066 63.2693 25.0324 63.9632 22.2582 63.9632V63.947ZM22.2582 37.6136C19.7744 37.6136 17.2905 38.2267 15.1776 39.4692C11.4841 41.6313 9.48405 45.3587 9.54857 49.9735C9.48405 54.6045 11.4841 58.3318 15.1776 60.494C19.4195 62.9789 25.1131 62.9789 29.355 60.494C33.0486 58.3318 35.0486 54.6045 34.9841 49.9896C35.0486 45.3587 33.0486 41.6313 29.355 39.4692C27.2421 38.2267 24.7582 37.6136 22.2744 37.6136H22.2582Z" fill="#684B99"/>
<path d="M63.6769 49.9735C63.9349 67.5291 36.3704 67.5291 36.6446 49.9735C36.3865 32.4179 63.9511 32.4179 63.6769 49.9735Z" fill="white"/>
<path d="M50.1606 63.947C47.3864 63.947 44.6283 63.2532 42.2574 61.8817C38.0316 59.4129 35.7574 55.1853 35.838 49.9735C35.7574 44.7778 38.0477 40.5503 42.2574 38.0815C46.9832 35.3223 53.338 35.3223 58.0638 38.0815C62.2735 40.5503 64.5638 44.7778 64.4832 49.9896C64.5477 55.2015 62.2735 59.429 58.0638 61.8978C55.709 63.2693 52.9348 63.9632 50.1606 63.9632V63.947ZM50.1606 37.6136C47.6767 37.6136 45.1928 38.2267 43.0799 39.4692C39.3864 41.6313 37.3864 45.3587 37.4509 49.9735C37.3864 54.6045 39.3864 58.3318 43.0799 60.494C47.3219 62.9789 53.0154 62.9789 57.2574 60.494C60.9509 58.3318 62.9509 54.6045 62.8864 49.9896C62.9509 45.3587 60.9509 41.6313 57.2574 39.4692C55.1445 38.2267 52.6606 37.6136 50.1767 37.6136H50.1606Z" fill="#684B99"/>
<path d="M60.1134 53.6686C60.1779 60.4134 54.0327 59.7679 54.2424 53.6686C54.0166 47.5693 60.1779 46.9078 60.1134 53.6686Z" fill="#602B7A"/>
<path d="M56.7908 53.6687C56.7908 54.2657 55.6779 54.7498 54.307 54.7659C54.2102 54.0559 54.2102 53.2491 54.307 52.5553C55.6779 52.5714 56.7908 53.0716 56.7908 53.6687Z" fill="white"/>
<path d="M32.2266 53.6686C32.2912 60.4134 26.146 59.7679 26.3557 53.6686C26.1299 47.5693 32.2912 46.9078 32.2266 53.6686Z" fill="#602B7A"/>
<path d="M28.9041 53.6687C28.9041 54.2657 27.7912 54.7498 26.4202 54.7659C26.3235 54.0559 26.3235 53.2491 26.4202 52.5553C27.7912 52.5714 28.9041 53.0716 28.9041 53.6687Z" fill="white"/>
<path d="M24.0977 66.9805C24.0977 66.9805 33.2106 69.0297 37.4525 68.7716C41.6944 68.5134 51.0654 65.8187 51.0654 65.8187C51.0654 65.8187 47.4686 72.1117 37.4525 73.0153C27.4364 73.9189 24.0977 66.9805 24.0977 66.9805Z" fill="#FFD631"/>
<path d="M48.2905 88.1022L35.0485 92.959L48.2905 97.7675V102.737L29.3711 95.5407V90.3773L48.2905 83.1808V88.1183V88.1022Z" fill="white"/>
</g>
<g clip-path="url(#clip2_0_1)">
<path d="M302.623 70.9603H298.38C295.178 70.9603 292.568 73.5544 292.568 76.7729V87.6455C292.568 90.848 295.146 93.4261 298.332 93.4581C298.332 93.4581 298.332 93.4581 298.332 93.4741C298.332 94.8031 299.405 95.876 300.734 95.876C302.063 95.876 303.136 94.8031 303.136 93.4741C303.136 93.4581 303.136 93.426 303.136 93.41C306.098 93.1538 308.435 90.6879 308.435 87.6455V76.7729C308.435 73.5704 305.842 70.9603 302.623 70.9603Z" fill="#613182"/>
<path d="M300.494 77.2213C310.238 77.2213 318.138 69.3209 318.138 59.5754C318.138 49.8298 310.238 41.9294 300.494 41.9294C290.749 41.9294 282.85 49.8298 282.85 59.5754C282.85 69.3209 290.749 77.2213 300.494 77.2213Z" fill="white"/>
<path d="M300.494 78.0219C293.209 78.0219 282.049 69.7594 282.049 59.5753C282.049 49.3913 290.327 41.1288 300.494 41.1288C310.661 41.1288 318.938 49.4073 318.938 59.5753C318.938 69.7434 307.779 78.0219 300.494 78.0219ZM300.494 42.73C291.207 42.73 283.65 50.288 283.65 59.5753C283.65 68.8627 293.993 76.4206 300.494 76.4206C306.994 76.4206 317.337 68.7185 317.337 59.5753C317.337 50.4321 309.78 42.73 300.494 42.73Z" fill="#613182"/>
<path d="M300.925 71.0404C308.3 71.0404 314.279 65.0613 314.279 57.6858C314.279 50.3103 308.3 44.3313 300.925 44.3313C293.551 44.3313 287.572 50.3103 287.572 57.6858C287.572 65.0613 293.551 71.0404 300.925 71.0404Z" fill="#FFD441"/>
<path d="M302.302 48.0303C306.064 49.7116 310.371 53.1863 310.676 60.2479C310.74 61.7691 308.658 62.3456 307.922 61.0005C306.209 57.9581 303.663 53.8749 300.573 50.3201C299.532 49.1352 300.861 47.3738 302.302 48.0143V48.0303Z" fill="white"/>
<path d="M271.801 77.9258C271.513 77.9258 271.241 77.7657 271.097 77.5095C270.889 77.1252 271.033 76.6288 271.433 76.4206L279.903 71.9051C280.303 71.6969 280.784 71.841 280.992 72.2413C281.2 72.6256 281.056 73.122 280.655 73.3302L272.186 77.8298C272.058 77.8938 271.929 77.9258 271.817 77.9258H271.801Z" fill="#613182"/>
<path d="M308.178 36.4851C308.178 36.4851 308.034 36.4851 307.954 36.4531C307.521 36.325 307.281 35.8927 307.409 35.4603L308.834 30.5765C308.962 30.1601 309.395 29.9039 309.827 30.032C310.259 30.1601 310.5 30.5925 310.371 31.0248L308.946 35.9087C308.85 36.261 308.53 36.4851 308.178 36.4851Z" fill="#613182"/>
<path d="M323.757 54.7715C323.421 54.7715 323.117 54.5633 323.005 54.2431C322.86 53.8267 323.069 53.3624 323.485 53.2183L335.557 48.9269C335.973 48.7828 336.438 48.9909 336.582 49.4073C336.726 49.8236 336.518 50.288 336.102 50.4321L324.029 54.7235C323.933 54.7555 323.853 54.7715 323.757 54.7715Z" fill="#613182"/>
<path d="M281.52 40.1841C281.296 40.1841 281.071 40.088 280.911 39.8959L275.019 32.9464C274.731 32.6101 274.779 32.0977 275.115 31.8095C275.452 31.5213 275.964 31.5693 276.252 31.9056L282.128 38.8551C282.416 39.1913 282.368 39.7037 282.032 39.9919C281.888 40.12 281.696 40.1841 281.52 40.1841Z" fill="#613182"/>
<path d="M344.187 172C344.059 172 343.947 171.968 343.835 171.92L334.9 167.452L336.806 134.018C336.838 133.57 337.238 133.233 337.654 133.265C338.103 133.297 338.439 133.666 338.407 134.114L336.566 166.492L344.555 170.479C344.955 170.671 345.115 171.151 344.907 171.552C344.763 171.84 344.491 172 344.187 172Z" fill="#613182"/>
<path d="M357.541 167.773C357.444 167.773 357.364 167.773 357.268 167.725L347.598 164.234L348.558 134.05C348.558 133.602 348.927 133.233 349.391 133.281C349.839 133.281 350.175 133.666 350.159 134.114L349.231 163.145L357.797 166.235C358.213 166.38 358.421 166.844 358.277 167.26C358.165 167.58 357.845 167.789 357.525 167.789L357.541 167.773Z" fill="#613182"/>
<path d="M379.043 97.1249C373.76 97.1249 367.66 95.2034 366.619 94.8511C366.203 94.707 365.962 94.2587 366.106 93.8423C366.251 93.426 366.699 93.1858 367.115 93.3299C371.358 94.723 382.886 97.4292 385.112 93.3139C387.289 89.2948 377.714 78.15 373.84 74.1948L373.536 73.8746L375.617 65.3559C375.729 64.9235 376.145 64.6673 376.578 64.7634C377.01 64.8755 377.266 65.3078 377.17 65.7242L375.297 73.3782C377.779 75.9562 389.499 88.5742 386.521 94.0505C385.272 96.3563 382.31 97.0929 379.043 97.0929V97.1249Z" fill="#613182"/>
<path d="M360.46 81.2453L319.97 86.85C316.134 87.381 313.454 90.9219 313.985 94.7588L319.589 135.253C320.12 139.09 323.661 141.77 327.497 141.239L367.987 135.634C371.824 135.103 374.503 131.562 373.972 127.725L368.368 87.2311C367.837 83.3942 364.297 80.7143 360.46 81.2453Z" fill="#613182"/>
<path d="M335.14 135.892C332.13 135.892 329.504 133.666 329.072 130.607L324.829 99.9112C324.605 98.2939 325.021 96.6766 326.014 95.3796C327.006 94.0826 328.431 93.2339 330.064 93.0097L360.758 88.7664C364.104 88.318 367.194 90.6559 367.658 93.9865L371.901 124.683C372.125 126.3 371.709 127.917 370.716 129.214C369.724 130.511 368.299 131.36 366.666 131.584L335.972 135.827C335.684 135.86 335.412 135.892 335.124 135.892H335.14ZM361.59 90.3036C361.382 90.3036 361.174 90.3036 360.966 90.3516L330.272 94.595C329.072 94.7551 328.015 95.3796 327.294 96.3404C326.558 97.3011 326.254 98.4861 326.414 99.687L330.657 130.383C330.993 132.849 333.283 134.595 335.764 134.242L366.457 129.999C367.658 129.839 368.715 129.214 369.435 128.254C370.156 127.293 370.476 126.108 370.316 124.907L366.073 94.2107C365.753 91.9529 363.816 90.3036 361.59 90.3036Z" fill="#6553A3"/>
<path d="M337.67 74.387C340.6 91.5526 313.589 95.7799 311.156 78.5343C308.225 61.3688 335.236 57.1414 337.67 74.387Z" fill="white"/>
<path d="M324.012 90.3516C322.123 90.3516 320.234 90.0154 318.489 89.3268C313.973 87.5494 311.092 83.7544 310.371 78.6304C309.506 73.5544 311.092 69.0548 314.854 65.9804C319.065 62.5537 325.293 61.577 330.353 63.5625C334.868 65.3239 337.75 69.1189 338.47 74.2429C339.335 79.351 337.75 83.8345 333.987 86.8929C331.233 89.1347 327.615 90.3356 324.012 90.3356V90.3516ZM324.797 64.155C321.579 64.155 318.328 65.2278 315.863 67.2454C312.565 69.9355 311.172 73.8907 311.956 78.4062C312.597 82.9538 315.126 86.3165 319.081 87.8537C323.612 89.6311 329.2 88.7664 332.979 85.676C336.277 82.9858 337.67 79.0307 336.885 74.5152C336.245 69.9676 333.715 66.6049 329.76 65.0677C328.191 64.4592 326.494 64.155 324.797 64.155Z" fill="#6553A3"/>
<path d="M365.033 70.1117C367.963 87.2772 340.952 91.5045 338.519 74.2589C335.589 57.0934 362.599 52.8661 365.033 70.1117Z" fill="white"/>
<path d="M351.376 86.0763C349.486 86.0763 347.597 85.74 345.852 85.0514C341.337 83.274 338.455 79.4791 337.734 74.355C336.87 69.279 338.455 64.7795 342.217 61.705C346.428 58.2783 352.657 57.3016 357.716 59.2871C362.231 61.0485 365.113 64.8595 365.834 69.9675C366.698 75.0596 365.113 79.5591 361.351 82.6175C358.597 84.8593 354.978 86.0602 351.376 86.0602V86.0763ZM352.16 59.8796C348.942 59.8796 345.692 60.9524 343.226 62.97C339.928 65.6602 338.535 69.6153 339.319 74.1308C339.96 78.6784 342.49 82.0411 346.444 83.5783C350.975 85.3557 356.563 84.491 360.342 81.4006C363.64 78.7104 365.033 74.7553 364.249 70.2398C363.608 65.6922 361.078 62.3295 357.124 60.7923C355.555 60.1838 353.857 59.8796 352.16 59.8796Z" fill="#6553A3"/>
<path d="M348.75 69.3431C349.838 75.9403 343.722 76.2605 342.986 70.2398C341.833 64.2991 347.773 62.7139 348.75 69.3431Z" fill="#613182"/>
<path d="M345.482 69.8555C345.579 70.432 344.554 71.0885 343.225 71.3127C343.033 70.6241 342.905 69.8395 342.889 69.151C344.234 68.9588 345.402 69.2791 345.498 69.8555H345.482Z" fill="white"/>
<path d="M321.386 73.6185C322.475 80.2157 316.359 80.5359 315.622 74.5152C314.47 68.5745 320.41 66.9892 321.386 73.6185Z" fill="#613182"/>
<path d="M318.137 74.1149C318.233 74.6914 317.208 75.3479 315.879 75.5721C315.687 74.8835 315.559 74.0989 315.543 73.4104C316.888 73.2182 318.057 73.5385 318.153 74.1149H318.137Z" fill="white"/>
<path d="M338.182 100.103L342.953 99.4468L345.963 121.064L359.38 119.206L359.941 123.242L341.768 125.772L338.198 100.119L338.182 100.103Z" fill="white"/>
<path d="M334.356 90.3036C336.966 88.8144 348.91 87.9978 350.896 89.535C352.881 91.0722 348.59 95.86 343.547 96.4524C338.503 97.0449 331.266 92.081 334.372 90.3036H334.356Z" fill="#FFD441"/>
<path d="M312.452 152.385C312.452 152.385 312.388 152.385 312.356 152.385C311.923 152.32 311.603 151.92 311.667 151.488L312.66 143.738C310.899 141.016 304.078 130.351 303.966 127.997C303.854 125.547 314.037 106.38 316.07 102.553C316.278 102.169 316.759 102.025 317.159 102.217C317.543 102.425 317.703 102.905 317.495 103.306C311.715 114.114 305.583 126.412 305.583 127.917C305.647 129.294 310.066 136.772 314.181 143.113L314.341 143.353L313.268 151.696C313.22 152.096 312.868 152.401 312.468 152.401L312.452 152.385Z" fill="#613182"/>
</g>
<g clip-path="url(#clip3_0_1)">
<path d="M584.12 59.5155L581.041 50.9268L572.365 47.7757L581.113 44.5527L584.138 36L587.326 44.6968L596.038 47.7938L587.398 50.8007L584.138 59.5155H584.12ZM577.6 47.7757L582.454 49.5403L584.156 54.2578L585.986 49.3783L590.586 47.7757L585.895 46.1192L584.156 41.3657L582.526 45.9752L577.6 47.7938V47.7757Z" fill="#613182"/>
<path d="M550.965 95.6812L550.465 141.647C550.417 146.002 553.93 149.571 558.312 149.619L604.549 150.116C608.93 150.163 612.52 146.671 612.568 142.315L613.068 96.3493C613.115 91.994 609.602 88.4251 605.221 88.3779L558.984 87.8805C554.603 87.8334 551.013 91.3259 550.965 95.6812Z" fill="#613182"/>
<path d="M603.826 145.385H603.753L568.706 145.007C566.859 144.989 565.12 144.25 563.834 142.936C562.548 141.622 561.842 139.893 561.86 138.038L562.24 103.197C562.276 99.3982 565.355 96.4092 569.249 96.3912L604.296 96.7694C608.118 96.8054 611.197 99.9384 611.143 103.738L610.763 138.579C610.726 142.342 607.629 145.385 603.844 145.385H603.826ZM603.771 143.584H603.826C606.615 143.584 608.915 141.334 608.933 138.561L609.314 103.72C609.35 100.911 607.068 98.6059 604.26 98.5879L569.213 98.2098C566.37 98.1378 564.069 100.443 564.051 103.233L563.671 138.074C563.635 140.883 565.917 143.188 568.724 143.206L603.771 143.584Z" fill="#6553A3"/>
<path d="M581.764 74.7123C581.837 94.3026 550.901 93.9604 551.409 74.3882C551.336 54.798 582.272 55.1401 581.764 74.7123Z" fill="white"/>
<path d="M566.623 90.1432C563.454 90.1432 560.266 89.3329 557.567 87.7304C552.858 84.9215 550.341 80.186 550.504 74.3522C550.485 68.5543 553.094 63.8548 557.857 61.154C563.2 58.129 570.318 58.201 575.607 61.352C580.316 64.1429 582.816 68.8964 582.671 74.7123C582.671 80.5281 580.081 85.2096 575.317 87.9105C572.709 89.387 569.666 90.1252 566.623 90.1252V90.1432ZM566.551 60.7578C563.816 60.7578 561.099 61.4241 558.745 62.7385C554.561 65.0972 552.279 69.2385 552.297 74.3882C552.17 79.5558 554.361 83.7512 558.491 86.1999C563.218 89.0088 569.612 89.0809 574.412 86.38C578.595 84.0213 580.878 79.8799 580.86 74.7303C580.986 69.5627 578.795 65.3853 574.665 62.9185C572.256 61.4781 569.395 60.7578 566.551 60.7578Z" fill="#6553A3"/>
<path d="M613.098 75.0544C613.171 94.6446 582.235 94.3025 582.742 74.7303C582.67 55.14 613.606 55.4821 613.098 75.0544Z" fill="white"/>
<path d="M597.938 90.4853C594.768 90.4853 591.58 89.675 588.882 88.0725C584.173 85.2636 581.655 80.5281 581.818 74.6943C581.8 68.8964 584.408 64.1969 589.172 61.5141C594.515 58.4891 601.651 58.5611 606.921 61.7121C611.631 64.521 614.13 69.2565 613.985 75.0724C613.985 80.8883 611.395 85.5697 606.632 88.2706C604.024 89.7471 600.981 90.4853 597.938 90.4853ZM597.883 61.1C595.149 61.1 592.432 61.7662 590.077 63.0806C585.893 65.4393 583.611 69.5807 583.629 74.7303C583.502 79.8979 585.694 84.0933 589.824 86.542C594.551 89.3509 600.944 89.423 605.744 86.7221C609.928 84.3634 612.21 80.222 612.192 75.0724C612.319 69.9048 610.127 65.7274 605.998 63.2606C603.589 61.8202 600.727 61.1 597.883 61.1Z" fill="#6553A3"/>
<path d="M577.128 105.628L582.562 105.682L582.308 130.224L597.631 130.386L597.577 134.96L576.82 134.743L577.128 105.628Z" fill="white"/>
<path d="M571.604 95.491C571.604 95.491 579.048 104.998 594.207 96.0131L571.604 95.491Z" fill="#FFD441"/>
<path d="M574.139 77.2692C573.885 77.2692 573.632 77.1611 573.451 76.9631C567.383 70.0849 559.033 76.783 558.689 77.0711C558.309 77.3952 557.729 77.3412 557.422 76.9451C557.095 76.567 557.15 75.9908 557.548 75.6847C557.657 75.5946 567.601 67.5821 574.827 75.7927C575.153 76.1708 575.117 76.729 574.737 77.0711C574.574 77.2152 574.356 77.2872 574.139 77.2872V77.2692Z" fill="#613182"/>
<path d="M606.18 77.2692C605.926 77.2692 605.673 77.1611 605.492 76.9631C599.424 70.0669 591.075 76.783 590.73 77.0711C590.35 77.3952 589.77 77.3412 589.463 76.9451C589.137 76.567 589.191 75.9908 589.589 75.6847C589.698 75.5946 599.642 67.5821 606.868 75.7927C607.194 76.1708 607.158 76.729 606.778 77.0711C606.615 77.2152 606.397 77.2872 606.18 77.2872V77.2692Z" fill="#613182"/>
<path d="M533.623 106.744C533.297 106.744 532.971 106.726 532.663 106.672C531.739 106.546 531.015 106.024 530.562 105.196C527.791 100.118 536.104 81.3924 538.078 77.089L531.304 72.1014C530.906 71.8134 530.815 71.2372 531.123 70.8411C531.413 70.4449 531.993 70.3549 532.391 70.661L540.361 76.5129L540.053 77.1791C535.814 86.1639 530.236 100.821 532.156 104.332C532.337 104.674 532.572 104.836 532.935 104.89C538.133 105.628 549.236 97.9217 553.075 94.8787C553.474 94.5726 554.035 94.6266 554.343 95.0227C554.651 95.4189 554.597 95.977 554.198 96.2831C553.637 96.7333 540.904 106.726 533.641 106.726L533.623 106.744Z" fill="#613182"/>
<path d="M630.378 106.745C623.115 106.745 610.383 96.7514 609.821 96.3012C609.423 95.9951 609.368 95.419 609.676 95.0408C609.984 94.6447 610.564 94.5907 610.944 94.8968C614.784 97.9217 625.868 105.628 631.085 104.908C631.447 104.854 631.682 104.692 631.864 104.35C633.784 100.839 628.205 86.182 623.985 77.1791L623.677 76.5129L631.646 70.6611C632.045 70.373 632.624 70.445 632.914 70.8411C633.204 71.2373 633.131 71.8134 632.733 72.1015L625.959 77.0891C627.933 81.3925 636.247 100.118 633.476 105.196C633.023 106.024 632.298 106.546 631.356 106.673C631.049 106.709 630.723 106.745 630.397 106.745H630.378Z" fill="#613182"/>
<path d="M548.293 168C547.695 168 547.224 167.928 546.88 167.766C546.264 167.478 546.028 167.01 545.938 166.668C545.63 165.461 546.626 160.456 572.201 146.843C572.635 146.609 573.197 146.771 573.432 147.221C573.668 147.654 573.505 148.212 573.052 148.446C556.787 157.089 547.224 164.417 547.677 166.235C549.669 167.622 569.792 159.681 587.252 151.489L587.686 151.273L600.111 158.817C600.546 159.069 600.673 159.627 600.419 160.059C600.166 160.492 599.604 160.618 599.17 160.366L587.578 153.325C581.148 156.332 555.664 168.018 548.256 168.018L548.293 168Z" fill="#613182"/>
<path d="M613.081 168C605.637 168 580.045 156.296 573.615 153.307L561.244 160.366C560.81 160.618 560.248 160.456 560.013 160.023C559.759 159.591 559.922 159.051 560.357 158.799L573.543 151.273L573.977 151.471C591.51 159.663 611.705 167.604 613.77 166.109C614.277 163.949 600.584 155.18 587.435 148.428C586.982 148.194 586.819 147.654 587.054 147.221C587.29 146.771 587.833 146.609 588.268 146.843C614.711 160.438 615.78 165.461 615.472 166.668C615.382 167.01 615.146 167.478 614.53 167.766C614.186 167.928 613.697 168 613.1 168H613.081Z" fill="#613182"/>
</g>
<path d="M509.076 110.017C509.266 109.927 509.398 109.732 509.403 109.505L509.939 84.5462C509.953 83.9631 509.735 83.4084 509.332 82.9865C508.929 82.5646 508.384 82.3276 507.801 82.3134L496.21 82.0669L491.835 86.2622L478.325 85.973C477.742 85.9588 477.187 86.1721 476.765 86.5798C476.343 86.9828 476.106 87.5279 476.092 88.111L475.898 97.2032C475.888 97.5255 476.144 97.791 476.466 97.7957C476.784 97.8052 477.054 97.5492 477.059 97.2269L477.253 88.1347C477.258 87.8597 477.372 87.6085 477.566 87.4189C477.761 87.2293 478.021 87.1297 478.296 87.1344L492.285 87.4331L496.661 83.2378L507.768 83.4748C508.043 83.4796 508.294 83.5933 508.483 83.7924C508.673 83.9915 508.773 84.2475 508.768 84.5225L508.232 109.481C508.223 109.803 508.479 110.069 508.801 110.074C508.896 110.074 508.986 110.055 509.071 110.017H509.076Z" fill="#612A7A"/>
<path d="M480.164 110.282L507.251 110.86C508.322 110.884 509.09 109.836 508.744 108.822L503.245 92.6333C503.037 92.0171 502.468 91.5999 501.818 91.5857L474.731 91.0074C473.66 90.9837 472.892 92.0313 473.238 93.0458L478.737 109.234C478.946 109.851 479.514 110.268 480.164 110.282Z" fill="#612A7A"/>
<path d="M493.574 66.0915L494.641 64.8732C497.205 61.9436 508.573 65.7644 512.73 67.4852L513.124 67.6464L513.304 67.2624C520.713 51.6568 509.27 36.8524 509.156 36.7054L509.033 36.549L508.834 36.5348L482.932 34.6433L483.681 35.4729C496.404 49.5331 493.887 64.3518 493.859 64.4987L493.569 66.0915H493.574ZM503.231 63.5506C499.998 62.8538 496.755 62.5788 494.873 63.5791C495.191 59.9289 495.361 47.618 485.079 35.6957L508.568 37.4117C509.734 38.9951 519.092 52.3821 512.674 66.4945C511.384 65.9825 507.312 64.4276 503.226 63.5459L503.231 63.5506Z" fill="#612A7A"/>
<path d="M495.314 43.9914C495.352 44.0009 495.395 44.0056 495.433 44.0104C495.869 44.0673 496.295 43.9251 496.575 43.6264C496.627 43.707 496.694 43.7876 496.784 43.8587C497.315 44.2948 497.888 43.9156 498.192 43.7165C498.301 43.6454 498.476 43.5269 498.542 43.5221C498.542 43.5316 498.623 43.6217 498.675 43.6833C498.846 43.8824 499.168 44.2474 499.675 44.1526C500.083 44.072 500.268 43.7497 500.382 43.5553C500.41 43.5032 500.458 43.4273 500.481 43.4036C500.505 43.3941 500.633 43.3846 500.789 43.4558C500.88 43.4937 500.965 43.5458 501.05 43.5932C501.245 43.7023 501.458 43.8208 501.719 43.8871C502.24 44.0104 502.785 43.854 503.183 43.5126L503.714 44.1716C503.795 44.2711 503.985 44.4892 504.297 44.5366C504.805 44.5935 505.046 44.1621 505.146 43.9772C505.255 43.7923 505.464 43.7165 505.677 43.7307C505.961 43.7497 506.269 43.8919 506.563 44.0293L507.023 44.2427L507.507 43.2993L507.948 43.5126L508.412 42.5645L507.037 41.8961L506.54 42.8679C506.298 42.7731 506.032 42.6973 505.748 42.6783C505.179 42.6404 504.643 42.8679 504.345 43.2709L502.951 41.5311L502.652 42.4792C502.572 42.7399 502.25 42.9201 501.984 42.8632H501.97C501.847 42.83 501.709 42.7542 501.562 42.6688C501.448 42.6025 501.335 42.5408 501.216 42.4887C500.666 42.2422 500.107 42.2991 499.756 42.6309C499.628 42.7494 499.547 42.8869 499.481 43.0007C499.481 42.9959 499.472 42.9912 499.467 42.9864C499.325 42.8253 499.135 42.6025 498.836 42.5124C498.32 42.3417 497.912 42.6309 497.609 42.8348C497.552 42.8727 497.471 42.9248 497.409 42.9627C497.409 42.958 497.4 42.9485 497.4 42.9438C497.305 42.7731 497.106 42.4271 496.679 42.3892C496.248 42.356 496.002 42.6688 495.869 42.8348C495.769 42.9533 495.674 42.977 495.575 42.9675C495.49 42.958 495.395 42.9106 495.362 42.849L494.418 43.3183C494.589 43.6643 494.921 43.9108 495.319 43.9962L495.314 43.9914Z" fill="#612A7A"/>
<path d="M501.88 48.5756C502.321 48.3385 502.415 48.4002 502.415 48.4002C502.453 48.4239 502.486 48.457 502.52 48.4855C502.686 48.6324 503.084 48.9785 503.558 48.7178C503.733 48.6182 503.828 48.476 503.885 48.3765C503.913 48.3859 503.951 48.3954 503.989 48.4144C504.307 48.5708 504.681 48.7557 505.103 48.6087C505.317 48.5376 505.459 48.4049 505.568 48.3053C505.601 48.2769 505.653 48.2295 505.672 48.2153C505.629 48.2437 505.743 48.367 505.819 48.4476C506.051 48.6988 506.407 49.0733 506.933 49.0164C507.407 48.9643 507.654 48.604 507.815 48.367C507.881 48.2722 507.957 48.1631 508.004 48.1299C508.066 48.092 508.241 48.1062 508.474 48.2248L508.673 48.329C508.938 48.476 509.242 48.6419 509.616 48.6798L509.711 47.6275C509.555 47.6227 509.374 47.5137 509.18 47.4047L508.948 47.2814C508.374 46.9922 507.834 46.9828 507.426 47.2482C507.203 47.3952 507.061 47.6038 506.943 47.7697C506.89 47.8455 506.815 47.9546 506.777 47.9783C506.791 47.9498 506.663 47.8123 506.587 47.727C506.35 47.4758 505.961 47.0491 505.388 47.2008C505.141 47.2624 504.975 47.4141 504.852 47.5232C504.819 47.5564 504.767 47.6038 504.748 47.6132C504.733 47.6038 504.601 47.5374 504.52 47.4947C503.923 47.2103 503.416 47.2672 503.122 47.6085C503.084 47.5753 503.046 47.5469 503.008 47.5232C502.392 47.0965 501.652 47.4947 501.377 47.6417L501.88 48.5708V48.5756Z" fill="#612A7A"/>
<path d="M498.808 59.0377C499.045 58.9144 499.253 58.7438 499.414 58.5352C499.424 58.5447 499.438 58.5589 499.448 58.5684C499.85 58.9476 500.509 59.0045 500.974 58.7011C501.069 58.6395 501.149 58.5636 501.235 58.4878C501.273 58.4499 501.311 58.4167 501.353 58.3882C501.529 58.2697 501.913 58.4451 502.192 58.6774C502.477 58.9144 502.78 59.1799 503.211 59.2131C503.335 59.2225 503.467 59.2131 503.6 59.1988C503.667 59.1941 503.761 59.1846 503.795 59.1894C503.752 59.2036 503.69 59.1514 503.648 59.0756L504.562 58.5494C504.288 58.0706 503.757 58.1228 503.501 58.1512C503.434 58.1559 503.363 58.1654 503.302 58.1607C503.207 58.1465 503.065 58.028 502.937 57.9189C502.15 57.2647 501.348 57.132 500.775 57.5112C500.68 57.5729 500.599 57.644 500.519 57.7198C500.481 57.753 500.443 57.7909 500.4 57.8194C500.343 57.8573 500.23 57.8478 500.178 57.8004C500.14 57.7672 500.111 57.7293 500.078 57.6866C499.922 57.5065 499.632 57.1699 499.168 57.2316L498.827 57.279L498.732 57.6108C498.675 57.8194 498.523 57.9995 498.334 58.0991L498.817 59.0377H498.808Z" fill="#612A7A"/>
<path d="M448.81 41.2894L471.01 34.648L471.052 34.3683C473.83 16.7575 450.431 0.777436 449.436 0.10429L449.279 0L411 8.11567L413.783 8.41906C436.859 10.9315 448.545 40.6021 448.658 40.9007L448.805 41.2894H448.81ZM470.208 33.9512L449.341 40.1991C447.938 36.8192 437.115 12.3726 416.902 8.02086C416.712 7.9782 416.528 7.94027 416.338 7.90235L449.09 0.957573C451.133 2.38445 472.498 17.7341 470.208 33.9512Z" fill="#612A7A"/>
<path d="M433.409 12.823C434.826 13.1264 435.504 12.6476 436.163 12.183C436.784 11.7469 437.424 11.2918 438.927 11.2112C439.202 11.197 439.439 11.1069 439.652 11.0263C439.828 10.96 439.989 10.8983 440.098 10.9173C440.359 10.9695 440.581 11.0169 440.833 10.9363C441.212 10.8178 441.387 10.5049 441.501 10.301C441.529 10.2536 441.553 10.2062 441.582 10.1636C441.752 9.91707 442.141 9.85544 442.43 9.90285C442.838 9.96922 443.246 10.2205 443.639 10.4575L444.36 10.8983L444.44 10.0593C444.488 9.55206 444.544 8.97372 444.81 8.56604C444.999 8.27213 445.417 8.05407 445.687 8.1868C445.881 8.30057 446.042 8.39064 446.241 8.42383C446.986 8.5376 447.341 7.82653 447.536 7.44255L447.607 7.30034C447.806 6.9211 448.247 6.65563 448.673 6.65563C449.109 6.65563 449.541 6.91162 449.74 7.2956L450.674 6.79785C450.285 6.06782 449.493 5.59851 448.669 5.59851C447.844 5.59851 447.057 6.07256 446.668 6.80733L446.583 6.97324C446.526 7.08702 446.426 7.28611 446.355 7.3667C446.351 7.35248 446.327 7.33826 446.303 7.32878C446.256 7.30034 446.208 7.27189 446.156 7.24819C445.336 6.84051 444.374 7.2956 443.919 7.9877C443.677 8.35746 443.554 8.76514 443.483 9.16334C443.212 9.0306 442.918 8.93106 442.601 8.86469C441.833 8.73196 441.084 9.01164 440.705 9.56628C440.662 9.63264 440.619 9.70375 440.577 9.7796C440.548 9.827 440.51 9.89337 440.487 9.93129C440.487 9.91707 440.444 9.90759 440.406 9.89811L440.254 9.86967C439.875 9.80804 439.538 9.93129 439.273 10.0356C439.121 10.0925 438.979 10.1446 438.865 10.1541C437.054 10.2489 436.22 10.8415 435.547 11.3155C434.907 11.7659 434.514 12.0266 433.362 11.7184L433.077 12.7329C433.191 12.7661 433.295 12.7898 433.404 12.8135L433.409 12.823Z" fill="#612A7A"/>
<path d="M451.636 13.3444C451.735 13.2591 451.901 13.2307 452.02 13.2828C452.148 13.3349 452.366 13.4298 452.626 13.3492C452.916 13.2496 453.034 13.0126 453.077 12.9273L453.143 12.7945C453.252 12.5622 453.38 12.3063 453.518 12.2541C453.622 12.2162 453.826 12.2589 454.025 12.3015C454.399 12.3821 454.911 12.4864 455.357 12.1356C455.585 11.9555 455.694 11.7279 455.779 11.5383L456.021 11.6663L456.514 10.7324L456.006 10.4622C455.94 10.429 455.765 10.3342 455.542 10.3674C455.366 10.3911 455.22 10.4812 455.096 10.6329C454.968 10.7846 454.892 10.9552 454.831 11.088C454.793 11.1686 454.741 11.2823 454.708 11.3108C454.655 11.3534 454.414 11.3013 454.248 11.2681C453.94 11.2017 453.551 11.1211 453.167 11.2634C452.664 11.4435 452.418 11.8938 452.243 12.2541C451.768 12.1356 451.304 12.2541 450.963 12.5433L451.645 13.3492L451.636 13.3444Z" fill="#612A7A"/>
<path d="M439.007 17.5492C439.078 17.3217 439.159 17.0847 439.282 16.933C439.367 16.8239 439.467 16.8002 439.533 16.786C439.576 16.7955 439.652 16.8382 439.728 16.8761C439.822 16.9282 439.917 16.9804 440.017 17.0183C440.467 17.1937 441.045 17.0752 441.249 16.5822C441.273 16.53 441.287 16.4779 441.297 16.4305C441.339 16.44 441.42 16.4589 441.482 16.4921C442.358 16.9188 442.894 16.6485 443.112 16.2551C443.207 16.0892 443.226 15.928 443.24 15.8095C443.273 15.6151 443.401 15.4966 443.529 15.4824C443.667 15.4682 443.852 15.5345 444.051 15.6009C444.146 15.6341 444.236 15.6673 444.326 15.6957C444.975 15.8853 445.558 15.7431 445.866 15.3165C445.914 15.2548 445.947 15.1885 445.985 15.1174C445.985 15.0984 446.137 15.1316 446.35 15.2738L446.947 14.4016C446.26 13.9275 445.615 13.9133 445.226 14.3589C445.141 14.4537 445.089 14.558 445.051 14.6338C444.989 14.7192 444.842 14.7429 444.634 14.6813C444.558 14.6575 444.482 14.6338 444.406 14.6054C444.117 14.5059 443.79 14.3873 443.411 14.4347C442.828 14.5011 442.321 14.9752 442.216 15.5535L442.202 15.6388C442.14 15.6246 442.055 15.5962 441.951 15.544C441.643 15.3923 441.169 15.2833 440.789 15.4445C440.557 15.544 440.386 15.7289 440.311 15.9659C440.311 15.9754 440.311 15.9801 440.306 15.9849C440.282 15.9754 440.258 15.9612 440.24 15.947C440.107 15.8711 439.941 15.781 439.732 15.7431C439.277 15.6578 438.789 15.8569 438.462 16.2693C438.215 16.5727 438.102 16.933 438.007 17.2221L439.012 17.5445L439.007 17.5492Z" fill="#612A7A"/>
<path d="M454.457 18.8955L456.016 18.0659C456.348 17.8905 456.642 17.7483 456.884 17.7767C457.069 17.8052 457.291 17.8384 457.524 17.7341C457.875 17.5824 457.984 17.2411 458.04 17.0562C458.055 17.0183 458.064 16.9803 458.078 16.9424C458.102 16.895 458.192 16.8334 458.325 16.8192C458.5 16.8002 458.718 16.8429 458.946 16.8998C459.079 16.9377 459.368 17.004 459.647 16.8523C459.771 16.786 459.851 16.6959 459.899 16.6438L460.785 16.0939C460.638 15.8284 460.349 15.6293 460.041 15.6009C459.723 15.5535 459.406 15.653 459.188 15.8616L459.178 15.8711C458.832 15.7952 458.524 15.7336 458.197 15.7715C457.709 15.8284 457.306 16.1034 457.121 16.5016C457.088 16.5774 457.059 16.6627 457.031 16.7433C457.031 16.7481 457.031 16.7528 457.026 16.7623C456.381 16.677 455.884 16.9424 455.519 17.1368L453.964 17.9664L454.457 18.9002V18.8955Z" fill="#612A7A"/>
<path d="M446.738 21.7113C447.184 21.8061 447.63 21.5738 447.905 21.2609C448.014 21.1377 448.104 21.0002 448.194 20.858C448.255 20.7584 448.317 20.6589 448.398 20.5736C448.459 20.5072 448.526 20.474 448.554 20.474C448.54 20.474 448.578 20.5262 448.606 20.5546C448.715 20.6779 448.886 20.8627 449.156 20.9386C449.44 21.0144 449.962 21.0192 450.426 20.218L450.976 19.2699C451.37 19.341 451.749 19.4548 452.114 19.597L452.498 18.611C451.948 18.3977 451.365 18.246 450.777 18.1607L450.422 18.1085L449.512 19.6871C449.469 19.7629 449.431 19.8151 449.398 19.853C449.398 19.853 449.393 19.8483 449.388 19.8435C449.303 19.7487 449.189 19.6207 449.019 19.5307C448.587 19.3031 448.009 19.4311 447.615 19.8578C447.497 19.9905 447.397 20.1374 447.302 20.2891C447.241 20.3839 447.184 20.4788 447.108 20.5641C447.042 20.6399 446.966 20.6731 446.937 20.6778L446.52 21.6449C446.591 21.6781 446.658 21.7018 446.729 21.716L446.738 21.7113Z" fill="#612A7A"/>
<path d="M442.016 22.4129L442.988 22.0005C443.04 22.119 443.026 22.2612 442.95 22.3608C442.883 22.4509 442.803 22.4556 442.751 22.4509L442.86 22.484C442.959 22.5172 443.097 22.5694 443.263 22.5741C443.675 22.5978 443.993 22.3561 444.197 22.1759C444.334 22.0527 444.438 21.9579 444.495 21.9436C444.367 21.8915 444.329 21.8156 444.325 21.7445L445.377 21.6687C445.358 21.4317 445.235 21.2136 445.036 21.0714C444.808 20.9055 444.509 20.8486 444.235 20.9197C443.922 21.0003 443.708 21.1946 443.538 21.3511C443.367 21.5075 443.315 21.5217 443.305 21.5217C443.301 21.5217 443.248 21.5028 443.215 21.4886C443.12 21.4554 443.007 21.4127 442.86 21.3985C442.575 21.37 442.277 21.498 442.106 21.7303C441.959 21.9342 441.926 22.1854 442.021 22.4129H442.016Z" fill="#612A7A"/>
<path d="M459.444 22.8158C459.562 22.8395 459.685 22.8442 459.813 22.8158C460.202 22.7399 460.558 22.4366 460.7 22.0573C460.78 21.8345 460.804 21.6165 460.828 21.4268C460.837 21.3273 460.847 21.2325 460.866 21.1471L462.383 21.4979C462.383 21.4979 462.425 21.5074 462.444 21.5122C463.587 21.7587 463.976 21.2135 464.094 20.9623C464.17 20.8011 464.189 20.6447 464.203 20.5261C464.208 20.4835 464.217 20.4219 464.222 20.4029C464.175 20.5167 464.089 20.5356 464.032 20.5356C463.895 20.5404 463.757 20.4598 463.691 20.3365L464.625 19.8388C464.497 19.6018 464.251 19.469 463.98 19.4785C463.667 19.4927 463.364 19.7108 463.246 20C463.189 20.1422 463.17 20.2796 463.155 20.3887C463.151 20.4313 463.141 20.4882 463.136 20.5072C463.136 20.5072 462.937 20.5261 462.625 20.4598L461.07 20.0948C460.908 20.0568 460.596 19.9857 460.292 20.1659C460.126 20.2654 460.003 20.4219 459.918 20.6352C459.828 20.8675 459.799 21.095 459.78 21.2988C459.766 21.4411 459.752 21.5785 459.714 21.6781C459.7 21.7113 459.648 21.7587 459.619 21.7681C459.652 21.7587 459.733 21.7729 459.78 21.8298L458.998 22.5361C459.121 22.6736 459.278 22.7636 459.448 22.7968L459.444 22.8158Z" fill="#612A7A"/>
<path d="M446.09 27.7459C446.237 27.5942 446.441 27.4947 446.649 27.4662C446.858 27.4425 447.085 27.4236 447.294 27.2624C447.555 27.0585 447.626 26.7646 447.664 26.5513C447.782 26.6035 447.958 26.6272 448.147 26.5703C448.65 26.4186 448.711 25.9303 448.745 25.698C448.754 25.6411 448.764 25.5558 448.773 25.5274C448.783 25.5274 448.901 25.5274 449.067 25.5606C449.095 25.5653 449.124 25.5748 449.152 25.5843C449.607 25.7217 450.2 25.8971 450.702 25.5369C451.03 25.2998 451.148 24.9443 451.248 24.6599C451.286 24.5556 451.342 24.3802 451.38 24.3423C451.404 24.347 451.556 24.4039 451.613 24.4228L452.836 24.8637C453.049 24.9396 453.409 25.0723 453.788 24.9301C454.168 24.7926 454.343 24.475 454.476 24.2474C454.509 24.1906 454.542 24.1337 454.575 24.0815C454.699 23.9061 454.931 23.854 455.106 23.8635C455.282 23.8682 455.514 23.9441 455.618 24.1242L456.533 23.5933C456.263 23.124 455.746 22.8253 455.149 22.8063C454.556 22.7826 454.016 23.0339 453.708 23.4795C453.656 23.5553 453.604 23.6407 453.556 23.726C453.514 23.8018 453.447 23.9204 453.414 23.9441C453.4 23.9251 453.239 23.8872 453.191 23.8682L451.963 23.4273C451.75 23.3515 451.395 23.2235 451.015 23.3562C450.513 23.5316 450.352 24.0104 450.243 24.3233C450.2 24.4513 450.134 24.6456 450.077 24.6836C450.001 24.7357 449.683 24.6456 449.513 24.5935C448.702 24.3517 448.048 24.5556 447.806 25.096C447.749 25.224 447.721 25.3567 447.702 25.4705C447.569 25.442 447.417 25.4183 447.256 25.461C446.754 25.5937 446.668 26.0773 446.626 26.3095C446.621 26.338 446.616 26.3759 446.607 26.4044L446.512 26.4138C446.066 26.466 445.644 26.6746 445.327 27.0017L446.08 27.7412L446.09 27.7459Z" fill="#612A7A"/>
<path d="M456.343 30.2394C456.409 30.1256 456.542 30.0355 456.698 30.0023C456.855 29.9692 457.011 29.9929 457.12 30.0687L457.684 30.4622L457.916 29.8127C457.983 29.6231 458.158 29.4572 458.376 29.3719C458.599 29.2865 458.836 29.2818 459.016 29.3719L459.746 29.7321L459.779 28.9215C459.784 28.7793 459.884 28.6324 460.035 28.5328C460.187 28.4333 460.363 28.4048 460.495 28.4522C460.547 28.4712 460.595 28.4949 460.647 28.5233C460.822 28.6086 461.059 28.7272 461.353 28.7129C462.041 28.6798 462.316 28.054 462.5 27.6416C462.567 27.4899 462.681 27.2387 462.747 27.196C462.756 27.2007 462.837 27.2339 462.88 27.2481L465.127 28.073C465.255 28.1204 465.52 28.2152 465.809 28.0967C466.193 27.9402 466.283 27.5515 466.321 27.3666C466.364 27.1818 466.435 27.0159 466.535 26.8642L466.829 26.8025L467.004 26.21L466.591 25.7691C466.468 25.7312 466.141 25.6885 465.847 26.0346C465.601 26.319 465.421 26.6603 465.321 27.0253L463.245 26.2669C463.107 26.2147 462.913 26.1389 462.676 26.1531C461.993 26.1815 461.714 26.8073 461.533 27.2244C461.467 27.3761 461.353 27.6274 461.282 27.6748C461.268 27.6653 461.173 27.6179 461.112 27.5895C461.031 27.5515 460.95 27.5136 460.87 27.4804C460.415 27.305 459.888 27.3761 459.452 27.6653C459.211 27.8217 459.021 28.0351 458.893 28.2721C458.594 28.2436 458.281 28.2863 457.983 28.4048C457.665 28.5328 457.395 28.7319 457.191 28.9831H457.172C456.945 28.931 456.708 28.931 456.471 28.9831C456.025 29.078 455.646 29.3434 455.428 29.7084L456.338 30.2489L456.343 30.2394ZM466.449 26.3759L466.312 26.7788C466.312 26.7788 466.307 26.7788 466.302 26.7788L466.426 26.3522L466.449 26.3759ZM466.378 26.2953L465.985 26.4423C465.947 26.2906 466.004 26.1294 466.127 26.0156L466.383 26.2953H466.378Z" fill="#612A7A"/>
<path d="M468.596 81.1946L469.213 80.1233C471.592 75.9849 482.609 75.1458 482.723 75.1363L483.074 75.1126L483.131 74.7618C485.306 61.4269 475.56 51.7042 475.461 51.6094L475.271 51.4198L453.749 58.2413L455.802 58.4878C464.69 59.5971 468.35 79.7725 468.383 79.9763L468.596 81.1946ZM482.301 74.2736C480.447 74.4442 472.175 75.3734 469.07 78.8102C468.25 74.8329 464.856 60.6637 457.518 57.9853L475.02 52.439C476.323 53.8232 484.031 62.5836 482.301 74.2736Z" fill="#612A7A"/>
<path d="M466.468 58.7533L467.425 58.3029C467.468 58.3882 467.468 58.4925 467.425 58.5731C467.397 58.6253 467.359 58.6537 467.297 58.6679C467.326 58.6679 467.43 58.7058 467.497 58.7295C467.691 58.8054 468.193 58.9571 468.634 58.739C468.781 58.6679 468.904 58.5589 468.99 58.4214C469.222 58.6253 469.544 58.8244 469.943 58.6727L470.346 58.521L470.279 58.0991C470.379 58.0469 470.436 58.0801 470.483 58.1085C470.639 58.1986 470.848 58.3219 471.132 58.3171C471.625 58.3076 471.891 57.9521 472.066 57.7151C472.119 57.644 472.213 57.5207 472.251 57.497C472.318 57.4875 472.521 57.5824 472.635 57.6345C473.356 57.9569 473.967 57.8431 474.252 57.3927C474.351 57.241 474.384 57.0846 474.408 56.9566C474.422 56.9614 474.437 56.9661 474.446 56.9708C474.655 57.0562 474.934 57.1794 475.252 57.1368L475.114 56.0891C475.072 56.0891 474.939 56.0322 474.858 55.999C474.593 55.8853 474.091 55.6719 473.669 56.0701C473.446 56.2835 473.403 56.5442 473.375 56.7196C473.375 56.7433 473.365 56.7765 473.361 56.8049C473.346 56.767 473.261 56.7528 473.161 56.7101C472.777 56.5347 472.318 56.3214 471.844 56.5252C471.54 56.6532 471.365 56.8902 471.223 57.0846C471.18 57.1368 471.128 57.2126 471.09 57.2553C471.09 57.2363 471.047 57.2126 471.019 57.1984C470.924 57.1462 470.81 57.0751 470.668 57.0325C470.303 56.9139 469.928 57.0088 469.63 57.2647C469.573 57.3122 469.521 57.3643 469.478 57.4212C469.288 57.2742 469.032 57.1557 468.758 57.1842C468.53 57.2079 468.331 57.3264 468.212 57.516C468.146 57.6155 468.118 57.7151 468.103 57.7957C468.051 57.7957 467.985 57.7815 467.918 57.7578C467.681 57.6677 467.43 57.5729 467.132 57.625C466.866 57.6724 466.624 57.8478 466.496 58.0848C466.383 58.2982 466.378 58.5447 466.477 58.7533H466.468Z" fill="#612A7A"/>
<path d="M463.082 60.3698L464.097 60.0759C464.125 60.1802 464.106 60.294 464.049 60.3746C463.988 60.4552 463.921 60.4599 463.893 60.4599C463.912 60.4599 463.969 60.4741 464.011 60.4836C464.111 60.5073 464.211 60.531 464.315 60.5358C464.651 60.5547 464.993 60.4078 465.225 60.1376C465.268 60.0901 465.301 60.038 465.334 59.9859L465.524 60.0427L465.822 59.0283L464.253 58.5637L464.438 59.436C464.343 59.4786 464.296 59.4739 464.263 59.4549C464.154 59.4265 464.021 59.398 463.864 59.398C463.604 59.4028 463.343 59.5355 463.191 59.7441C463.059 59.9242 463.016 60.1518 463.078 60.3651L463.082 60.3698Z" fill="#612A7A"/>
<path d="M473.2 62.3608L474.252 62.2944C474.243 62.1854 474.3 62.0622 474.385 61.9958C474.475 61.9294 474.608 61.9105 474.712 61.9437L475.106 62.0764L475.329 61.7256C475.39 61.6213 475.466 61.5265 475.547 61.4412C475.836 61.626 476.22 61.8773 476.703 61.8157C477.016 61.773 477.305 61.5929 477.49 61.3179C477.528 61.261 477.561 61.2041 477.59 61.1425C477.718 61.171 477.846 61.2089 477.969 61.2515L478.301 60.2513C477.95 60.1328 477.58 60.0522 477.21 60.0095L476.452 59.929L476.642 60.6685L476.571 60.7728C476.471 60.7822 476.267 60.6542 476.111 60.55L476.002 60.4789C475.926 60.4314 475.75 60.3177 475.509 60.3177C475.191 60.3177 474.982 60.5263 474.911 60.5926C474.817 60.6779 474.731 60.7728 474.646 60.877C474.328 60.8676 474.006 60.9671 473.75 61.1662C473.385 61.4459 473.172 61.9105 473.2 62.3703V62.3608Z" fill="#612A7A"/>
<path d="M466.187 64.6646L467.064 64.0768C467.126 64.1668 467.14 64.2948 467.098 64.3849C467.069 64.4465 467.036 64.4655 466.989 64.4702C467.027 64.4702 467.102 64.475 467.169 64.4892C467.278 64.5034 467.415 64.5271 467.567 64.5176C467.904 64.4987 468.226 64.3185 468.439 64.0294C468.491 63.9583 468.534 63.8872 468.572 63.8113L468.999 63.9109C469.103 63.944 469.198 63.9535 469.335 63.9346C469.729 63.8682 469.876 63.5601 469.942 63.361C469.985 63.3847 470.032 63.4084 470.079 63.4321C470.184 63.489 470.288 63.5458 470.397 63.5838C470.719 63.707 471.108 63.6881 471.388 63.5316C471.615 63.4036 471.767 63.1951 471.81 62.9438L471.824 62.7589C471.824 62.7589 471.833 62.7732 471.777 62.8585C471.701 62.977 471.544 63.0671 471.402 63.0007L472.236 62.3607C472.156 62.2659 472.018 62.1095 471.8 62.0242C471.459 61.8772 471.065 62.0005 470.881 62.2991C470.819 62.3987 470.79 62.5029 470.776 62.5883C470.677 62.5598 470.625 62.5314 470.572 62.5029C470.373 62.3987 470.127 62.2659 469.819 62.2564C469.643 62.2517 469.487 62.2896 469.354 62.3702C469.146 62.4982 469.046 62.6926 468.994 62.849L467.444 62.4698L467.629 63.2899C467.629 63.2899 467.629 63.3562 467.591 63.3989C467.557 63.4416 467.52 63.4653 467.496 63.4653C467.458 63.4653 467.392 63.4558 467.32 63.4463C467.188 63.4273 467.027 63.4036 466.846 63.4273C466.538 63.4653 466.259 63.6738 466.131 63.9535C466.022 64.1906 466.041 64.4608 466.183 64.6693L466.187 64.6646Z" fill="#612A7A"/>
<path d="M473.057 67.8645C473.47 67.9024 473.83 67.6227 473.996 67.1297C474 67.1107 474.015 67.0823 474.024 67.0491C474.237 67.1107 474.527 67.1487 474.792 66.9211C474.996 66.7457 475.048 66.504 475.072 66.3902C475.11 66.1958 475.171 66.101 475.195 66.0726C475.186 66.0915 475.257 66.1105 475.299 66.1247C475.508 66.1769 475.954 66.3096 476.295 65.9588C476.423 65.8308 476.48 65.6839 476.508 65.5559C476.996 65.9635 477.518 66.2717 478.077 66.485L478.807 66.7694L478.793 65.9825C478.793 65.9825 478.859 65.9351 478.931 65.9256C479.111 65.8972 479.352 65.9825 479.566 66.0536L479.902 65.0534C479.589 64.9491 479.201 64.8163 478.765 64.8827C478.452 64.9301 478.182 65.0818 477.997 65.2951C477.708 65.1434 477.437 64.9633 477.186 64.7547C477.039 64.6315 476.887 64.4987 476.669 64.4182C476.29 64.2854 475.901 64.385 475.674 64.6694C475.56 64.8116 475.517 64.9586 475.494 65.0866C475.37 65.0534 475.224 65.0249 475.058 65.0344C474.588 65.0676 474.237 65.4184 474.067 65.9967C473.948 65.9778 473.825 65.9683 473.697 65.9967C473.214 66.1058 473.057 66.5703 472.981 66.7931C472.958 66.8595 473.043 66.8073 473.142 66.8168L473.038 67.8692L473.057 67.8645Z" fill="#612A7A"/>
<path d="M467.98 68.9358L468.961 68.5423C468.994 68.6324 468.994 68.7319 468.951 68.8078C468.923 68.8599 468.885 68.8884 468.828 68.8979C468.852 68.8979 468.942 68.9121 468.994 68.9263L469.136 68.9548C469.544 69.0211 469.885 68.9121 470.099 68.6561C470.174 68.566 470.217 68.4712 470.25 68.3859C470.26 68.3859 470.265 68.3954 470.274 68.4001L470.781 67.4757C470.089 67.0965 469.686 67.343 469.511 67.5279C469.388 67.6559 469.331 67.7981 469.293 67.9118L469.207 67.8976C469.056 67.8644 468.852 67.8218 468.624 67.8644C468.368 67.9119 468.146 68.0778 468.018 68.3053C467.909 68.5044 467.894 68.7367 467.975 68.9405L467.98 68.9358Z" fill="#612A7A"/>
<defs>
<clipPath id="clip0_0_1">
<rect width="99" height="118" fill="white" transform="translate(62 49)"/>
</clipPath>
<clipPath id="clip1_0_1">
<rect width="85" height="117" fill="white" transform="translate(0 36)"/>
</clipPath>
<clipPath id="clip2_0_1">
<rect width="116" height="142" fill="white" transform="translate(271 30)"/>
</clipPath>
<clipPath id="clip3_0_1">
<rect width="104" height="132" fill="white" transform="translate(530 36)"/>
</clipPath>
</defs>
</svg>