<svg xmlns="http://www.w3.org/2000/svg" viewBox="0 0 223 168" role="img" aria-hidden="true"><g transform="translate(26.666015625 0)"><g transform="matrix(1 0 0 1 92.333984375 36)"><g transform="matrix(1 0 0 1 42.36433410644531 1.5992300740307595e-15)"><path d="M 6.489999771118164 13.0600004196167 L 4.790000915527344 8.289999961853027 L 0 6.539999961853027 L 4.829999923706055 4.75 L 6.5 0 L 8.260000228881836 4.829999923706055 L 13.069999694824219 6.550000190734863 L 8.30000114440918 8.220000267028809 L 6.5 13.0600004196167 L 6.489999771118164 13.0600004196167 Z M 2.8900012969970703 6.539999961853027 L 5.569999694824219 7.519999980926514 L 6.510000228881836 10.140000343322754 L 7.520000457763672 7.429999828338623 L 10.060001373291016 6.539999961853027 L 7.470001220703125 5.619999885559082 L 6.510000228881836 2.9800000190734863 L 5.6100006103515625 5.539999961853027 L 2.8900012969970703 6.550000190734863 L 2.8900012969970703 6.539999961853027 Z" fill="#613182"/></g><g transform="matrix(0.010884781368076801 -0.9999407529830933 0.9999421834945679 0.01075725443661213 20.379776000976562 113.533203125)"><path d="M 4.380000114440918 0 L 29.90999984741211 0 C 32.329007148742676 0 34.290000915527344 1.960993766784668 34.290000915527344 4.380001068115234 L 34.290000915527344 29.90999984741211 C 34.290000915527344 32.329007148742676 32.329007148742676 34.290000915527344 29.90999984741211 34.290000915527344 L 4.380000114440918 34.290000915527344 C 1.9609928131103516 34.290000915527344 0 32.329007148742676 0 29.90999984741211 L 0 4.380001068115234 C 0 1.960993766784668 1.9609928131103516 0 4.380000114440918 0 Z" fill="#613182"/></g><g transform="matrix(1 0 0 1 31.858945846557617 60.39122009277344)"><path d="M 23.170185089111328 27.209999084472656 L 23.13018798828125 27.209999084472656 L 3.7801883220672607 27 C 2.760188341140747 26.990000000223517 1.8001877665519714 26.57999849319458 1.0901877880096436 25.849998474121094 C 0.3801878094673157 25.119998455047607 -0.009812343327212147 24.15999722480774 0.00018765644927043468 23.12999725341797 L 0.21018673479557037 3.779998779296875 C 0.23018673434853554 1.6699988842010498 1.930187702178955 0.009999999776482582 4.080187797546387 0 L 23.430187225341797 0.20999908447265625 C 25.540187120437622 0.22999908402562141 27.24018600396812 1.9699981212615967 27.210186004638672 4.079998016357422 L 27.000186920166016 23.43000030517578 C 26.98018692061305 25.520000219345093 25.27018713951111 27.209999084472656 23.180187225341797 27.209999084472656 L 23.170185089111328 27.209999084472656 Z M 23.140186309814453 26.209999084472656 L 23.170185089111328 26.209999084472656 C 24.710185050964355 26.209999084472656 25.98018859885633 24.95999813079834 25.990188598632812 23.419998168945312 L 26.20018768310547 4.069999694824219 C 26.220187682658434 2.5099997520446777 24.96018671989441 1.229997405782342 23.410186767578125 1.2199974060058594 L 4.060187339782715 1.0099983215332031 C 2.4901872873306274 0.9699983224272728 1.2201867196708918 2.2499992847442627 1.2101867198944092 3.799999237060547 L 1.000187635421753 23.14999771118164 C 0.9801876358687878 24.70999765396118 2.2401866912841797 25.990000000223517 3.790186643600464 26 L 23.140186309814453 26.209999084472656 Z" fill="#6553a3"/></g><g transform="matrix(1 0 0 1 20.495512008666992 22.935941696166992)"><g transform="matrix(1 0 0 1 0.9068883657455444 0.9273390769958496)"><path d="M 16.763404846191406 8.246840476989746 C 16.803404845297337 19.126840591430664 -0.27659459924325347 18.936840057373047 0.003405401948839426 8.066840171813965 C -0.0365945971570909 -2.813159942626953 17.0434048473835 -2.623159408569336 16.763404846191406 8.246840476989746 Z" fill="#ffffff"/></g><g transform="matrix(1 0 0 1 0 0)"><path d="M 8.904111862182617 17.331865310668945 C 7.154111862182617 17.331865310668945 5.394112825393677 16.881864190101624 3.9041128158569336 15.991864204406738 C 1.3041129112243652 14.431864261627197 -0.08588765421882272 11.8018639087677 0.004112349357455969 8.561863899230957 C -0.005887650419026613 5.3418638706207275 1.434112548828125 2.731865167617798 4.064112663269043 1.2318651676177979 C 7.014112710952759 -0.44813477993011475 10.944112777709961 -0.40813517570495605 13.864112854003906 1.341864824295044 C 16.464112758636475 2.891864776611328 17.84411247074604 5.531864643096924 17.76411247253418 8.76186466217041 C 17.76411247253418 11.991864681243896 16.334113121032715 14.591865539550781 13.704113006591797 16.09186553955078 C 12.264112949371338 16.911865532398224 10.58411180973053 17.32186508178711 8.904111862182617 17.32186508178711 L 8.904111862182617 17.331865310668945 Z M 8.864112854003906 1.0118649005889893 C 7.354112863540649 1.0118649005889893 5.854112386703491 1.3818652629852295 4.554112434387207 2.111865282058716 C 2.244112491607666 3.421865224838257 0.9841130878776312 5.721864461898804 0.9941130876541138 8.581864356994629 C 0.9241130873560905 11.451864242553711 2.1341121196746826 13.781863808631897 4.414112091064453 15.141863822937012 C 7.024111986160278 16.701863765716553 10.554112911224365 16.74186420440674 13.204113006591797 15.241864204406738 C 15.514112949371338 13.931864261627197 16.774112472310662 11.631864786148071 16.76411247253418 8.771864891052246 C 16.834112472832203 5.901865005493164 15.624112367630005 3.5818647146224976 13.344112396240234 2.211864709854126 C 12.01411235332489 1.411864697933197 10.434112906455994 1.0118649005889893 8.864112854003906 1.0118649005889893 Z" fill="#6553a3"/></g></g><g transform="matrix(1 0 0 1 51.811431884765625 23.296056747436523)"><g transform="matrix(1 0 0 1 0.9250032305717468 0.9093338847160339)"><path d="M 16.763404846191406 8.246840476989746 C 16.803404845297337 19.126840591430664 -0.27659459924325347 18.936840057373047 0.003405401948839426 8.066840171813965 C -0.0365945971570909 -2.813159942626953 17.0434048473835 -2.623159408569336 16.763404846191406 8.246840476989746 Z" fill="#ffffff"/></g><g transform="matrix(1 0 0 1 0 0)"><path d="M 8.904109954833984 17.32186508178711 C 7.154109954833984 17.32186508178711 5.3941099643707275 16.871864914894104 3.9041099548339844 15.981864929199219 C 1.304110050201416 14.421864986419678 -0.08588764630258083 11.79186463356018 0.004112357273697853 8.551864624023438 C -0.005887642502784729 5.331864595413208 1.4341096878051758 2.721865177154541 4.064109802246094 1.2318651676177979 C 7.01410984992981 -0.44813477993011475 10.954112768173218 -0.40813517570495605 13.864112854003906 1.341864824295044 C 16.464112758636475 2.901864767074585 17.844110563397408 5.53186559677124 17.764110565185547 8.761865615844727 C 17.764110565185547 11.991865634918213 16.334113121032715 14.591865539550781 13.704113006591797 16.09186553955078 C 12.264112949371338 16.911865532398224 10.584109902381897 17.32186508178711 8.904109954833984 17.32186508178711 Z M 8.87411117553711 1.0018646717071533 C 7.3641111850738525 1.0018646717071533 5.864109754562378 1.3718650341033936 4.564109802246094 2.10186505317688 C 2.2541098594665527 3.411864995956421 0.9941123630851507 5.711865186691284 1.0041123628616333 8.57186508178711 C 0.9341123625636101 11.441864967346191 2.1441104412078857 13.771864533424377 4.424110412597656 15.131864547729492 C 7.0341103076934814 16.691864490509033 10.564111232757568 16.73186492919922 13.214111328125 15.231864929199219 C 15.524111270904541 13.921864986419678 16.784112701192498 11.621865510940552 16.774112701416016 8.761865615844727 C 16.84411270171404 5.8918657302856445 15.634110689163208 3.571865439414978 13.354110717773438 2.2018654346466064 C 12.024110674858093 1.4018654227256775 10.444111227989197 1.0018646717071533 8.87411117553711 1.0018646717071533 Z" fill="#6553a3"/></g></g><g transform="matrix(1 0 0 1 46.81992721557617 69.6281509399414)"><path d="M 0.1700000762939453 0 L 3.1700000762939453 0.030002593994140625 L 3.029998779296875 13.660003662109375 L 11.489999771118164 13.75 L 11.460000991821289 16.290000915527344 L 0 16.170001983642578 L 0.1700000762939453 0 Z" fill="#ffffff"/></g><g transform="matrix(1 0 0 1 41.60362243652344 59.49093246459961)"><path d="M 0 0 C 0 0 4.110001564025879 5.280000686645508 12.480001449584961 0.29000091552734375 Z" fill="#ffd441"/></g><g transform="matrix(1 0 0 1 27.209280014038086 36.09492874145508)"><path d="M 9.347339630126953 2.8736445903778076 C 9.207339629530907 2.8736445903778076 9.067338563501835 2.813644513487816 8.967338562011719 2.7036445140838623 C 5.61733865737915 -1.1163554191589355 1.00733882188797 2.603643983602524 0.8173388242721558 2.763643980026245 C 0.6073388308286667 2.9436439871788025 0.2873390167951584 2.9136442840099335 0.11733901500701904 2.6936442852020264 C -0.06266099214553833 2.4836442917585373 -0.03266128897666931 2.1636454313993454 0.1873387098312378 1.993645429611206 C 0.24733870849013329 1.943645428866148 5.7373387813568115 -2.506355047225952 9.727338790893555 2.053644895553589 C 9.907338798046112 2.263644888997078 9.887339547276497 2.573643982410431 9.677339553833008 2.763643980026245 C 9.58733955025673 2.8436439782381058 9.467339627444744 2.8836448192596436 9.347339630126953 2.8836448192596436 L 9.347339630126953 2.8736445903778076 Z" fill="#613182"/></g><g transform="matrix(1 0 0 1 59.24968719482422 36.09492874145508)"><path d="M 9.347338676452637 2.8736445903778076 C 9.20733867585659 2.8736445903778076 9.067337609827518 2.813644513487816 8.967337608337402 2.7036445140838623 C 5.617337703704834 -1.1263554096221924 1.0073359608650208 2.603643983602524 0.8173359632492065 2.763643980026245 C 0.6073359698057175 2.9436439871788025 0.2873390167951584 2.9136442840099335 0.11733901500701904 2.6936442852020264 C -0.06266099214553833 2.4836442917585373 -0.03266128897666931 2.1636454313993454 0.1873387098312378 1.993645429611206 C 0.24733870849013329 1.943645428866148 5.737335920333862 -2.506355047225952 9.727335929870605 2.053644895553589 C 9.907335937023163 2.263644888997078 9.887336686253548 2.573643982410431 9.677336692810059 2.763643980026245 C 9.58733668923378 2.8436439782381058 9.467338673770428 2.8836448192596436 9.347338676452637 2.8836448192596436 L 9.347338676452637 2.8736445903778076 Z" fill="#613182"/></g><g transform="matrix(1 0 0 1 0.0015483667375519872 34.478065490722656)"><path d="M 1.9991451501846313 20.14161491394043 C 1.819145143032074 20.14161491394043 1.6391451805830002 20.131613997742534 1.4691451787948608 20.101613998413086 C 0.959145188331604 20.031613998115063 0.5591451227664948 19.741614311933517 0.30914512276649475 19.281614303588867 C -1.2208548486232758 16.46161437034607 3.3691450357437134 6.061614751815796 4.4591450691223145 3.671614646911621 L 0.7191451787948608 0.9016141295433044 C 0.49914517998695374 0.7416141331195831 0.4491451531648636 0.42161524295806885 0.6191451549530029 0.20161524415016174 C 0.7791451513767242 -0.01838475465774536 1.0991452038288116 -0.06838513165712357 1.3191452026367188 0.10161487013101578 L 5.719144821166992 3.3516149520874023 L 5.549145221710205 3.721615791320801 C 3.2091453075408936 8.711615562438965 0.12914526462554932 16.851614713668823 1.1891452074050903 18.80161476135254 C 1.2891452088952065 18.991614758968353 1.4191451519727707 19.08161232061684 1.619145154953003 19.11161231994629 C 4.489145040512085 19.52161231637001 10.619145393371582 15.241615772247314 12.739145278930664 13.551615715026855 C 12.959145277738571 13.381615713238716 13.269145086407661 13.41161373257637 13.4391450881958 13.631613731384277 C 13.60914508998394 13.851613730192184 13.579145163297653 14.161614492535591 13.359145164489746 14.33161449432373 C 13.04914516210556 14.58161449432373 6.019145250320435 20.13161277770996 2.0091450214385986 20.13161277770996 L 1.9991451501846313 20.14161491394043 Z" fill="#613182"/></g><g transform="matrix(1 0 0 1 79.47766876220703 34.48579788208008)"><path d="M 11.539152145385742 20.13732147216797 C 7.529151916503906 20.13732147216797 0.4991539567708969 14.587321281433105 0.18915395438671112 14.337321281433105 C -0.030846044421195984 14.167321279644966 -0.0608440637588501 13.847320511937141 0.10915593802928925 13.637320518493652 C 0.2791559398174286 13.417320519685745 0.5991529077291489 13.387318685650826 0.8091529011726379 13.557318687438965 C 2.92915278673172 15.237318634986877 9.049155235290527 19.51732102036476 11.929155349731445 19.117321014404297 C 12.129155352711678 19.08732101507485 12.25915565341711 18.997319638729095 12.359155654907227 18.80731964111328 C 13.419155597686768 16.857319593429565 10.339153289794922 8.717320680618286 8.009153366088867 3.717320680618286 L 7.839155673980713 3.3473198413848877 L 12.239152908325195 0.09731987118721008 C 12.459152907133102 -0.06268012523651123 12.779153674840927 -0.02267974615097046 12.939153671264648 0.19732025265693665 C 13.09915366768837 0.41732025146484375 13.059155195951462 0.7373190820217133 12.839155197143555 0.8973190784454346 L 9.099153518676758 3.6673195362091064 C 10.189153552055359 6.057319641113281 14.779155015945435 16.45732092857361 13.249155044555664 19.277320861816406 C 12.999155044555664 19.737320870161057 12.5991530418396 20.0273205563426 12.079153060913086 20.097320556640625 C 11.909153059124947 20.11732055619359 11.729154288768768 20.13732147216797 11.549154281616211 20.13732147216797 L 11.539152145385742 20.13732147216797 Z" fill="#613182"/></g><g transform="matrix(1 0 0 1 15.901158332824707 110.736572265625)"><path d="M 1.3207265138626099 11.809259414672852 C 0.990726500749588 11.809259414672852 0.730725884437561 11.769262164831161 0.5407258868217468 11.679262161254883 C 0.20072588324546814 11.519262164831161 0.07072637602686882 11.259261548519135 0.02072637528181076 11.06926155090332 C -0.14927362650632858 10.39926153421402 0.4007253646850586 7.619263105094433 14.52072525024414 0.059263162314891815 C 14.760725244879723 -0.0707368329167366 15.070725560188293 0.019262254238128662 15.200725555419922 0.26926225423812866 C 15.33072555065155 0.5092622488737106 15.240726470947266 0.8192625641822815 14.990726470947266 0.9492625594139099 C 6.0107269287109375 5.749262750148773 0.730726420879364 9.819263696670532 0.980726420879364 10.829263687133789 C 2.080726444721222 11.599263668060303 13.190726280212402 7.189261436462402 22.830726623535156 2.639261245727539 L 23.07072639465332 2.519258499145508 L 29.93072509765625 6.709260940551758 C 30.170725092291832 6.849260941147804 30.240727081894875 7.159263387322426 30.100727081298828 7.399263381958008 C 29.96072708070278 7.63926337659359 29.65072463452816 7.709261551499367 29.410724639892578 7.56926155090332 L 23.010726928710938 3.6592655181884766 C 19.460726976394653 5.329265475273132 5.390726208686829 11.81926155090332 1.300726056098938 11.81926155090332 L 1.3207265138626099 11.809259414672852 Z" fill="#613182"/></g><g transform="matrix(1 0 0 1 29.89163589477539 110.736572265625)"><path d="M 29.36636734008789 11.809259414672852 C 25.256367206573486 11.809259414672852 11.12636923789978 5.309263348579407 7.576369285583496 3.649263381958008 L 0.7463692426681519 7.56926155090332 C 0.5063692480325699 7.709261551499367 0.19636891782283783 7.619259104132652 0.06636892259120941 7.37925910949707 C -0.07363107800483704 7.139259114861488 0.016369447112083435 6.8392588049173355 0.2563694417476654 6.699258804321289 L 7.536370277404785 2.519258499145508 L 7.776370048522949 2.6292591094970703 C 17.45637035369873 7.179259300231934 28.60636842250824 11.58926397562027 29.746368408203125 10.75926399230957 C 30.026368409395218 9.559263944625854 22.466368675231934 4.689260423183441 15.206368446350098 0.9392604231834412 C 14.956368446350098 0.8092604279518127 14.866369366645813 0.5092622488737106 14.996369361877441 0.26926225423812866 C 15.12636935710907 0.019262254238128662 15.426367536187172 -0.0707368329167366 15.666367530822754 0.059263162314891815 C 30.26636791229248 7.609263353049755 30.85636703670025 10.39926153421402 30.68636703491211 11.06926155090332 C 30.63636703416705 11.259261548519135 30.506366580724716 11.519262164831161 30.166366577148438 11.679262161254883 C 29.976366579532623 11.769262164831161 29.70636948943138 11.809259414672852 29.37636947631836 11.809259414672852 L 29.36636734008789 11.809259414672852 Z" fill="#613182"/></g></g><g transform="matrix(-1 0 0 1 78.1327133178711 0)"><g transform="matrix(1 0 0 1 5.859955787658691 82.0668716430664)"><g transform="matrix(1 0 0 1 0 0)"><path d="M 1.8213801383972168 58.96000671386719 C 1.4213801324367523 58.77000671625137 1.1413805577903986 58.360004872083664 1.131380558013916 57.8800048828125 L 0.001380434026941657 5.230010986328125 C -0.02861956530250609 4.000010967254639 0.43138015270233154 2.8300024271011353 1.2813801765441895 1.94000244140625 C 2.1313802003860474 1.0500024557113647 3.2813796997070312 0.5500042717903852 4.511379718780518 0.5200042724609375 L 28.961381912231445 0 L 38.191383361816406 8.850006103515625 L 66.69137573242188 8.240005493164062 C 67.92137575149536 8.210005493834615 69.09137666225433 8.660004258155823 69.98137664794922 9.520004272460938 C 70.8713766336441 10.370004296302795 71.37137481756508 11.519999980926514 71.40137481689453 12.75 L 71.8113784790039 31.930007934570312 C 71.83137847855687 32.61000794172287 71.29138153791428 33.17000793479383 70.61138153076172 33.18000793457031 C 69.94138151407242 33.20000793412328 69.3713815305382 32.66001099348068 69.36138153076172 31.980010986328125 L 68.95137786865234 12.800003051757812 C 68.94137786887586 12.220003068447113 68.70138183236122 11.69000855088234 68.2913818359375 11.290008544921875 C 67.88138183951378 10.89000853896141 67.33138090372086 10.680002441629767 66.75138092041016 10.69000244140625 L 37.24138259887695 11.32000732421875 L 28.011381149291992 2.470001220703125 L 4.581381320953369 2.970001220703125 C 4.00138133764267 2.9800012204796076 3.4713801443576813 3.2199994027614594 3.071380138397217 3.6399993896484375 C 2.6713801324367523 4.059999376535416 2.461380710825324 4.600007951259613 2.4713807106018066 5.1800079345703125 L 3.6013808250427246 57.83000183105469 C 3.6213808245956898 58.510001838207245 3.0813810229301453 59.070001831278205 2.401381015777588 59.08000183105469 C 2.2013810127973557 59.08000183105469 2.01138037443161 59.04000671207905 1.8313803672790527 58.96000671386719 L 1.8213801383972168 58.96000671386719 Z" fill="#612a7a"/></g><g transform="matrix(1 0 0 1 1.1112475395202637 8.940116882324219)"><path d="M 60.46709442138672 40.66083526611328 L 3.3270962238311768 41.880836486816406 C 1.06709623336792 41.930836487561464 -0.5529043674468994 39.72083353996277 0.17709565162658691 37.580833435058594 L 11.777094841003418 3.4308407306671143 C 12.217094838619232 2.13084077835083 13.417095065116882 1.2508340161293745 14.787095069885254 1.2208340167999268 L 71.92709350585938 0.0008328261901624501 C 74.18709349632263 -0.04916717455489561 75.80709505081177 2.1608359813690186 75.07709503173828 4.300836086273193 L 63.47709655761719 38.450828552246094 C 63.03709656000137 39.75082850456238 61.83709442615509 40.63083526678383 60.46709442138672 40.66083526611328 Z" fill="#612a7a"/></g></g><g transform="matrix(1 0 0 1 0 0)"><g transform="matrix(1 0 0 1 1.1368683772161603e-13 34.64329528808594)"><g transform="matrix(1 0 0 1 0 0)"><path d="M 46.882843017578125 66.33999633789062 L 44.632843017578125 63.77000427246094 C 39.222843170166016 57.590004444122314 15.242846012115479 65.64999866485596 6.472845554351807 69.27999877929688 L 5.642845630645752 69.6199951171875 L 5.262845516204834 68.80999755859375 C -10.367154598236084 35.88999938964844 13.77284599840641 4.6599984765052795 14.012845993041992 4.349998474121094 L 14.272845268249512 4.019996643066406 L 14.692845344543457 3.9899978637695312 L 69.33283996582031 0 L 67.75284576416016 1.75 C 40.912845611572266 31.40999984741211 46.222844544798136 62.66999572515488 46.28284454345703 62.97999572753906 L 46.892845153808594 66.33999633789062 L 46.882843017578125 66.33999633789062 Z M 26.512845993041992 60.97999572753906 C 33.33284616470337 59.50999569892883 40.172845125198364 58.92999339103699 44.142845153808594 61.03999328613281 C 43.47284513711929 53.339993476867676 43.11284065246582 27.3700008392334 64.80284118652344 2.220001220703125 L 15.252845764160156 5.839996337890625 C 12.792845726013184 9.179996252059937 -6.947154521942139 37.42000198364258 6.592845439910889 67.19000244140625 C 9.312845468521118 66.1100023984909 17.902846336364746 62.83000123500824 26.522846221923828 60.970001220703125 L 26.512845993041992 60.97999572753906 Z" fill="#612a7a"/></g><g transform="matrix(1 0 0 1 7.387007236480713 6.88787317276001)"><path d="M 27.630001068115234 5.19000244140625 C 27.550001069903374 5.210002440959215 27.460001066327095 5.21999572776258 27.380001068115234 5.2299957275390625 C 26.460001051425934 5.3499957248568535 25.56000119447708 5.049998164176941 24.970001220703125 4.4199981689453125 C 24.86000122129917 4.589998170733452 24.71999877691269 4.759996026754379 24.529998779296875 4.909996032714844 C 23.409998774528503 5.829996049404144 22.2000013589859 5.030000597238541 21.560001373291016 4.6100006103515625 C 21.33000136911869 4.460000604391098 20.959999695420265 4.20999694801867 20.81999969482422 4.1999969482421875 C 20.81999969482422 4.219996947795153 20.650000914931297 4.410000920295715 20.540000915527344 4.540000915527344 C 20.18000090122223 4.960000902414322 19.50000035762787 5.729998782277107 18.43000030517578 5.529998779296875 C 17.570000290870667 5.359998777508736 17.179998621344566 4.679996639490128 16.939998626708984 4.269996643066406 C 16.87999862805009 4.159996643662453 16.779999542981386 3.9999969489872456 16.729999542236328 3.9499969482421875 C 16.67999954149127 3.9299969486892223 16.409999936819077 3.9099975526332855 16.079999923706055 4.05999755859375 C 15.88999992609024 4.139997556805611 15.710000693798065 4.249998472630978 15.530000686645508 4.349998474121094 C 15.120000690221786 4.579998478293419 14.669998943805695 4.8300012201070786 14.119998931884766 4.970001220703125 C 13.019998908042908 5.230001211166382 11.870000660419464 4.900000333786011 11.030000686645508 4.180000305175781 L 9.90999984741211 5.569999694824219 C 9.73999984562397 5.779999688267708 9.340000331401825 6.239996336400509 8.680000305175781 6.339996337890625 C 7.610000252723694 6.459996335208416 7.099999383091927 5.549996018409729 6.8899993896484375 5.159996032714844 C 6.659999385476112 4.7699960470199585 6.220000445842743 4.60999939031899 5.770000457763672 4.6399993896484375 C 5.170000433921814 4.679999388754368 4.519999623298645 4.9799966514110565 3.8999996185302734 5.269996643066406 L 2.9300003051757812 5.720001220703125 L 1.9099998474121094 3.7299957275390625 L 0.9799995422363281 4.180000305175781 L 0 2.1800003051757812 L 2.8999996185302734 0.7699966430664062 L 3.950000762939453 2.8199996948242188 C 4.46000075340271 2.6199996918439865 5.019998908042908 2.459998168051243 5.619998931884766 2.4199981689453125 C 6.8199989795684814 2.339998170733452 7.949999928474426 2.8199981451034546 8.579999923706055 3.6699981689453125 L 11.520000457763672 0 L 12.149999618530273 2 C 12.319999620318413 2.550000011920929 12.999999463558197 2.929997555911541 13.559999465942383 2.80999755859375 L 13.59000015258789 2.80999755859375 C 13.850000143051147 2.7399975582957268 14.140000760555267 2.5800015330314636 14.450000762939453 2.4000015258789062 C 14.690000757575035 2.26000152528286 14.930000305175781 2.12999664247036 15.180000305175781 2.0199966430664062 C 16.34000027179718 1.4999966621398926 17.51999831199646 1.6199997067451477 18.259998321533203 2.3199996948242188 C 18.52999833226204 2.5699996948242188 18.700000151991844 2.859998479485512 18.84000015258789 3.0999984741210938 C 18.84000015258789 3.089998474344611 18.859998932108283 3.0799996946007013 18.869998931884766 3.0699996948242188 C 19.169998943805695 2.72999969124794 19.570000767707825 2.259999692440033 20.200000762939453 2.0699996948242188 C 21.290000796318054 1.709999680519104 22.15000092983246 2.3199999928474426 22.790000915527344 2.75 C 22.910000912845135 2.8299999982118607 23.079999089241028 2.9399966448545456 23.209999084472656 3.0199966430664062 C 23.209999084472656 3.0099966432899237 23.229999542236328 2.989995727315545 23.229999542236328 2.9799957275390625 C 23.42999954521656 2.6199957132339478 23.850000023841858 1.8899975568056107 24.75 1.80999755859375 C 25.660000026226044 1.7399975582957268 26.179999083280563 2.4000000059604645 26.459999084472656 2.75 C 26.669999077916145 3 26.869998022913933 3.04999877884984 27.079998016357422 3.029998779296875 C 27.25999802350998 3.00999877974391 27.45999877899885 2.9099987745285034 27.529998779296875 2.779998779296875 L 29.520000457763672 3.7699966430664062 C 29.160000443458557 4.499996662139893 28.459998905658722 5.01999694108963 27.619998931884766 5.1999969482421875 L 27.630001068115234 5.19000244140625 Z" fill="#612a7a"/></g><g transform="matrix(1 0 0 1 6.088125228881836 12.413163185119629)"><path d="M 16.520000457763672 3.204402208328247 C 15.590000450611115 2.704402208328247 15.389999389648438 2.834399461746216 15.389999389648438 2.834399461746216 C 15.309999391436577 2.884399462491274 15.240000076591969 2.9543997682631016 15.170000076293945 3.014399766921997 C 14.82000008225441 3.324399769306183 13.979999542236328 4.054397642612457 12.979999542236328 3.5043976306915283 C 12.609999537467957 3.2943976372480392 12.409999005496502 2.9944040328264236 12.289999008178711 2.7844040393829346 C 12.229999009519815 2.8044040389358997 12.14999969303608 2.8243982419371605 12.069999694824219 2.864398241043091 C 11.399999678134918 3.1943982541561127 10.609999299049377 3.5844019055366516 9.719999313354492 3.274401903152466 C 9.269999325275421 3.1244018971920013 8.96999977529049 2.8444025069475174 8.739999771118164 2.6344025135040283 C 8.66999977082014 2.574402514845133 8.560000456869602 2.474400071427226 8.520000457763672 2.4444000720977783 C 8.61000046133995 2.504400070756674 8.369999080896378 2.7643979340791702 8.209999084472656 2.9343979358673096 C 7.719999074935913 3.46439790725708 6.969998717308044 4.254402749240398 5.85999870300293 4.134402751922607 C 4.85999870300293 4.024402752518654 4.340000003576279 3.264399766921997 4 2.764399766921997 C 3.8599999994039536 2.564399763941765 3.7000003829598427 2.3343997672200203 3.6000003814697266 2.264399766921997 C 3.470000386238098 2.1843997687101364 3.0999996662139893 2.214404344558716 2.609999656677246 2.464404344558716 L 2.189999580383301 2.6843979358673096 C 1.629999577999115 2.9943979382514954 0.9899998307228088 3.3444034308195114 0.19999980926513672 3.424403429031372 L 0 1.2044023275375366 C 0.33000001311302185 1.194402327761054 0.7099998891353607 0.9644011110067368 1.119999885559082 0.7344011068344116 L 1.609999656677246 0.4743989408016205 C 2.8199996948242188 -0.13560107350349426 3.959999680519104 -0.15560075640678406 4.819999694824219 0.40439924597740173 C 5.289999693632126 0.7143992483615875 5.590000152587891 1.1543977558612823 5.840000152587891 1.5043977499008179 C 5.950000151991844 1.6643977463245392 6.1100005358457565 1.8944001905620098 6.190000534057617 1.9444001913070679 C 6.160000534728169 1.8844001926481724 6.430000156164169 1.5944014191627502 6.590000152587891 1.4144014120101929 C 7.090000152587891 0.8844014406204224 7.909998893737793 -0.015599220991134644 9.119998931884766 0.304400771856308 C 9.63999891281128 0.4344007670879364 9.990000009536743 0.7544011026620865 10.25 0.9844011068344116 C 10.320000000298023 1.0544011071324348 10.429999314248562 1.1544035486876965 10.469999313354492 1.1744035482406616 C 10.49999931268394 1.1544035486876965 10.779998853802681 1.0144035518169403 10.94999885559082 0.9244035482406616 C 12.209998846054077 0.3244035243988037 13.279999613761902 0.4444013833999634 13.899999618530273 1.1644014120101929 C 13.979999616742134 1.0944014117121696 14.059999391436577 1.0344011075794697 14.139999389648438 0.9844011068344116 C 15.439999341964722 0.08440113067626953 16.999999940395355 0.9244011044502258 17.579999923706055 1.2344011068344116 L 16.520000457763672 3.1944000720977783 L 16.520000457763672 3.204402208328247 Z" fill="#612a7a"/></g><g transform="matrix(1 0 0 1 11.236259460449219 22.58085060119629)"><path d="M 12.139999389648438 3.8256781101226807 C 11.639999389648438 3.565678119659424 11.200000613927841 3.205680549144745 10.860000610351562 2.7656805515289307 C 10.840000610798597 2.785680551081896 10.810000915080309 2.8156802468001842 10.790000915527344 2.8356802463531494 C 9.940000891685486 3.6356802582740784 8.550001621246338 3.7556790113449097 7.570001602172852 3.1156790256500244 C 7.370001599192619 2.985679030418396 7.200000464916229 2.825674444437027 7.020000457763672 2.6656744480133057 C 6.940000459551811 2.585674449801445 6.860000461339951 2.515675362199545 6.770000457763672 2.4556753635406494 C 6.4000004529953 2.2056753635406494 5.589999973773956 2.5756759643554688 5 3.065675973892212 C 4.399999976158142 3.565675973892212 3.7600004076957703 4.125681094825268 2.8500003814697266 4.195681095123291 C 2.5900003910064697 4.215681094676256 2.3100006878376007 4.1956746857613325 2.030000686645508 4.165674686431885 C 1.8900006860494614 4.155674686655402 1.6900008395314217 4.135678043588996 1.6200008392333984 4.1456780433654785 C 1.7100008428096771 4.175678042694926 1.8400003015995026 4.0656799376010895 1.9300003051757812 3.905679941177368 L 0 2.7956793308258057 C 0.5799999833106995 1.7856793403625488 1.7000016570091248 1.8956754840910435 2.240001678466797 1.955675482749939 C 2.3800016790628433 1.9656754825264215 2.5300017595291138 1.985679754987359 2.660001754760742 1.9756797552108765 C 2.8600017577409744 1.9456797558814287 3.160000294446945 1.6956776231527328 3.4300003051757812 1.4656776189804077 C 5.09000027179718 0.0856776237487793 6.780001640319824 -0.19432300329208374 7.990001678466797 0.6056770086288452 C 8.19000168144703 0.7356770038604736 8.360002592206001 0.8856794536113739 8.53000259399414 1.0456794500350952 C 8.610002592206001 1.1156794503331184 8.690002590417862 1.195678535848856 8.78000259399414 1.2556785345077515 C 8.900002591311932 1.3356785327196121 9.140000000596046 1.3156776204705238 9.25 1.2156776189804077 C 9.32999999821186 1.1456776186823845 9.389999084174633 1.0656797587871552 9.459999084472656 0.9756797552108765 C 9.789999097585678 0.595679759979248 10.400001049041748 -0.11431934684515 11.380001068115234 0.015680648386478424 L 12.10000228881836 0.11567912250757217 L 12.299999237060547 0.8156760931015015 C 12.419999234378338 1.2556760907173157 12.739999383687973 1.6356748789548874 13.139999389648438 1.8456748723983765 L 12.120002746582031 3.8256781101226807 L 12.139999389648438 3.8256781101226807 Z" fill="#612a7a"/></g></g><g transform="matrix(1 0 0 1 44.51763153076172 0)"><g transform="matrix(1 0 0 1 0 0)"><path d="M 47.40297317504883 87.0999984741211 L 0.5729638934135437 73.08999633789062 L 0.4829675555229187 72.5 C -5.377032577991486 35.349998474121094 43.98296594619751 1.6399999558925629 46.08296585083008 0.2199999988079071 L 46.412967681884766 0 L 127.16297149658203 17.1200008392334 L 121.29297637939453 17.760000228881836 C 72.61297607421875 23.0600004196167 47.9629652351141 85.64999878406525 47.722965240478516 86.27999877929688 L 47.412967681884766 87.0999984741211 L 47.40297317504883 87.0999984741211 Z M 2.2629663944244385 71.62000274658203 L 46.282962799072266 84.80000305175781 C 49.24296283721924 77.6700029373169 72.0729751586914 26.100000381469727 114.71297454833984 16.920000076293945 C 115.11297455430031 16.830000072717667 115.50297698378563 16.750000074505806 115.9029769897461 16.670000076293945 L 46.81296157836914 2.0199999809265137 C 42.5029616355896 5.0299999713897705 -2.567033529281616 37.410003662109375 2.2629663944244385 71.62000274658203 Z" fill="#612a7a"/></g><g transform="matrix(1 0 0 1 20.608274459838867 5.598484039306641)"><path d="M 36.41999816894531 15.239998817443848 C 33.42999815940857 15.879998803138733 32.00000059604645 14.87000036239624 30.610000610351562 13.890000343322754 C 29.30000066757202 12.970000326633453 27.94999885559082 12.009999200701714 24.779998779296875 11.839999198913574 C 24.199998795986176 11.809999199584126 23.69999998807907 11.619999811053276 23.25 11.449999809265137 C 22.87999999523163 11.30999980866909 22.539997562766075 11.180000267922878 22.30999755859375 11.220000267028809 C 21.75999754667282 11.330000266432762 21.289994478225708 11.429999276995659 20.759994506835938 11.25999927520752 C 19.95999449491501 11.00999927520752 19.590006098151207 10.349999129772186 19.350006103515625 9.919999122619629 C 19.29000610485673 9.819999121129513 19.240007933229208 9.720000118017197 19.180007934570312 9.630000114440918 C 18.820007920265198 9.110000133514404 17.999999403953552 8.979998968541622 17.389999389648438 9.079998970031738 C 16.529999375343323 9.219998970627785 15.669996321201324 9.749999046325684 14.839996337890625 10.249999046325684 L 13.32000732421875 11.179999351501465 L 13.149993896484375 9.409998893737793 C 13.049993894994259 8.339998841285706 12.929995119571686 7.119999289512634 12.3699951171875 6.2599992752075195 C 11.969995111227036 5.639999270439148 11.09000426530838 5.18000003695488 10.520004272460938 5.460000038146973 C 10.110004276037216 5.700000032782555 9.770006090402603 5.890000037848949 9.350006103515625 5.960000038146973 C 7.780006051063538 6.200000032782555 7.029995113611221 4.699999392032623 6.6199951171875 3.8899993896484375 L 6.470001220703125 3.589999198913574 C 6.050001233816147 2.7899991869926453 5.120001196861267 2.229999542236328 4.220001220703125 2.229999542236328 C 3.3000012040138245 2.229999542236328 2.390001207590103 2.769999921321869 1.970001220703125 3.5799999237060547 L 0 2.5299997329711914 C 0.8199999928474426 0.9899997711181641 2.4899957180023193 0 4.2299957275390625 0 C 5.969995737075806 0 7.629996955394745 0.9999992847442627 8.449996948242188 2.549999237060547 L 8.6300048828125 2.8999996185302734 C 8.750004880130291 3.1399996131658554 8.960000604391098 3.559999540448189 9.110000610351562 3.729999542236328 C 9.120000610128045 3.6999995429068804 9.170001219958067 3.6699996180832386 9.220001220703125 3.6499996185302734 C 9.320001222193241 3.589999619871378 9.419998779892921 3.529999542981386 9.529998779296875 3.479999542236328 C 11.259998798370361 2.6199995279312134 13.290000021457672 3.5799999237060547 14.25 5.039999961853027 C 14.759999990463257 5.819999933242798 15.019998162984848 6.679999530315399 15.169998168945312 7.5199995040893555 C 15.739998161792755 7.239999502897263 16.359998762607574 7.0300003439188 17.029998779296875 6.890000343322754 C 18.649998784065247 6.610000342130661 20.229998767375946 7.199999928474426 21.029998779296875 8.369999885559082 C 21.119998782873154 8.509999886155128 21.210003048181534 8.659998744726181 21.300003051757812 8.819998741149902 C 21.360003050416708 8.919998742640018 21.440005492419004 9.060000345110893 21.490005493164062 9.140000343322754 C 21.490005493164062 9.110000343993306 21.580003663897514 9.089998740702868 21.660003662109375 9.069998741149902 L 21.979995727539062 9.00999927520752 C 22.77999573945999 8.879999279975891 23.490003049373627 9.139999657869339 24.050003051757812 9.359999656677246 C 24.370003044605255 9.479999653995037 24.670003667473793 9.589999657124281 24.910003662109375 9.609999656677246 C 28.730003595352173 9.809999659657478 30.49000370502472 11.0600004196167 31.910003662109375 12.0600004196167 C 33.26000368595123 13.01000040769577 34.090004205703735 13.559998869895935 36.52000427246094 12.909998893737793 L 37.1199951171875 15.050000190734863 C 36.87999512255192 15.120000191032887 36.66000793874264 15.17000026628375 36.43000793457031 15.220000267028809 L 36.41999816894531 15.239998817443848 Z" fill="#612a7a"/></g><g transform="matrix(1 0 0 1 14.767992973327637 10.360450744628906)"><path d="M 10.290000915527344 6.294638156890869 C 10.080000922083855 6.114638149738312 9.730003356933594 6.054638996720314 9.480003356933594 6.164638996124268 C 9.210003346204758 6.274638995528221 8.750004589557648 6.474638387560844 8.200004577636719 6.304638385772705 C 7.590004563331604 6.094638392329216 7.34000763297081 5.594639003276825 7.250007629394531 5.414638996124268 L 7.109992980957031 5.13463830947876 C 6.879992976784706 4.644638299942017 6.6099996864795685 4.104638919234276 6.319999694824219 3.9946389198303223 C 6.099999696016312 3.9146389216184616 5.670007616281509 4.00463929772377 5.250007629394531 4.094639301300049 C 4.460007607936859 4.264639303088188 3.380002439022064 4.484638929367065 2.44000244140625 3.7446389198303223 C 1.960002452135086 3.364638924598694 1.7300030589103699 2.884638696908951 1.5500030517578125 2.4846386909484863 L 1.0400009155273438 2.754639148712158 L 0 0.7846378684043884 L 1.0699996948242188 0.21463815867900848 C 1.2099996954202652 0.14463815838098526 1.5800030529499054 -0.055360691621899605 2.0500030517578125 0.014639308676123619 C 2.420003056526184 0.06463930942118168 2.7299978733062744 0.25463879108428955 2.9899978637695312 0.5746387839317322 C 3.2599978744983673 0.8946387767791748 3.419995427131653 1.2546378076076508 3.5499954223632812 1.5346378087997437 C 3.629995420575142 1.704637810587883 3.740005187690258 1.9446391500532627 3.8100051879882812 2.004639148712158 C 3.920005187392235 2.094639152288437 4.430006414651871 1.9846388772130013 4.780006408691406 1.914638876914978 C 5.430006384849548 1.7746388763189316 6.2500051856040955 1.6046386361122131 7.060005187988281 1.904638648033142 C 8.120005130767822 2.2846386432647705 8.640002131462097 3.2346389293670654 9.010002136230469 3.9946389198303223 C 10.010002136230469 3.7446389198303223 10.989999055862427 3.994637608528137 11.709999084472656 4.604637622833252 L 10.269996643066406 6.304638385772705 L 10.290000915527344 6.294638156890869 Z" fill="#612a7a"/></g><g transform="matrix(1 0 0 1 24.334270477294922 14.034995079040527)"><path d="M 16.75 7.413196086883545 C 16.599999994039536 6.933196097612381 16.42999815940857 6.433196842670441 16.169998168945312 6.113196849822998 C 15.989998161792755 5.883196845650673 15.779999390244484 5.83319547586143 15.639999389648438 5.803195476531982 C 15.549999386072159 5.823195476084948 15.389995723962784 5.913194105029106 15.229995727539062 5.993194103240967 C 15.02999572455883 6.10319410264492 14.829995110630989 6.213197156786919 14.6199951171875 6.293197154998779 C 13.669995129108429 6.663197159767151 12.450004279613495 6.4131951332092285 12.020004272460938 5.373195171356201 C 11.97000427171588 5.263195171952248 11.939998168498278 5.1531954780220985 11.919998168945312 5.053195476531982 C 11.829998165369034 5.073195476084948 11.659998774528503 5.113196544349194 11.529998779296875 5.183196544647217 C 9.679998755455017 6.083196520805359 8.549996346235275 5.513196527957916 8.089996337890625 4.683196544647217 C 7.889996334910393 4.333196550607681 7.850007323548198 3.993194341659546 7.82000732421875 3.743194341659546 C 7.750007323920727 3.3331943452358246 7.480006724596024 3.0831957142800093 7.2100067138671875 3.0531957149505615 C 6.920006722211838 3.0231957156211138 6.530000597238541 3.163195714354515 6.1100006103515625 3.3031957149505615 C 5.91000060737133 3.3731957152485847 5.719998776912689 3.443196479231119 5.529998779296875 3.5031964778900146 C 4.159998774528503 3.903196483850479 2.929998755455017 3.60319721698761 2.279998779296875 2.7031972408294678 C 2.179998777806759 2.5731972455978394 2.1099987775087357 2.433195263147354 2.029998779296875 2.2831952571868896 C 2.029998779296875 2.2431952580809593 1.7099944949150085 2.313197076320648 1.2599945068359375 2.613197088241577 L 0 0.7731949687004089 C 1.4500000476837158 -0.22680503129959106 2.8100048899650574 -0.2568032741546631 3.6300048828125 0.6831967234611511 C 3.8100048899650574 0.8831967264413834 3.9200000017881393 1.1031965911388397 4 1.263196587562561 C 4.129999995231628 1.4431965947151184 4.440004885196686 1.4931950569152832 4.8800048828125 1.3631950616836548 C 5.040004879236221 1.3131950609385967 5.200000613927841 1.263195212930441 5.3600006103515625 1.2031952142715454 C 5.970000624656677 0.9931952208280563 6.6600067019462585 0.7431965693831444 7.4600067138671875 0.8431965708732605 C 8.690006732940674 0.983196571469307 9.759995728731155 1.9831972122192383 9.979995727539062 3.2031972408294678 L 10.009994506835938 3.383197546005249 C 10.139994502067566 3.3531975466758013 10.319993287324905 3.2931967824697495 10.539993286132812 3.183196783065796 C 11.189993262290955 2.8631967902183533 12.190005481243134 2.633197695016861 12.990005493164062 2.9731976985931396 C 13.480005502700806 3.1831976920366287 13.840000003576279 3.5731959342956543 14 4.073195934295654 C 14 4.0931959338486195 13.999994507059455 4.1031968500465155 14.009994506835938 4.113196849822998 C 14.059994507580996 4.093196850270033 14.109993897378445 4.063195018097758 14.149993896484375 4.0331950187683105 C 14.429993897676468 3.8731950223445892 14.78000122308731 3.683194950222969 15.220001220703125 3.6031949520111084 C 16.180001199245453 3.423194944858551 17.20999389886856 3.84319531917572 17.899993896484375 4.713195323944092 C 18.41999387741089 5.353195309638977 18.66000060737133 6.113197445869446 18.860000610351562 6.7231974601745605 L 16.740005493164062 7.403193950653076 L 16.75 7.413196086883545 Z" fill="#612a7a"/></g><g transform="matrix(1 0 0 1 10.496831893920898 15.589229583740234)"><path d="M 13.350006103515625 6.974541187286377 L 10.060005187988281 5.224541187286377 C 9.36000519990921 4.854541182518005 8.74000334739685 4.554540578275919 8.230003356933594 4.6145405769348145 C 7.8400033712387085 4.67454057559371 7.370004892349243 4.744540423154831 6.8800048828125 4.524540424346924 C 6.140004873275757 4.204540431499481 5.910000912845135 3.4845398664474487 5.790000915527344 3.0945398807525635 C 5.760000916197896 3.014539882540703 5.739999083802104 2.934542015194893 5.709999084472656 2.8545420169830322 C 5.659999083727598 2.754542015492916 5.470002442598343 2.6245398800820112 5.19000244140625 2.5945398807525635 C 4.820002436637878 2.554539881646633 4.360004872083664 2.6445418670773506 3.8800048828125 2.7645418643951416 C 3.600004881620407 2.8445418626070023 2.9900014996528625 2.984539568424225 2.4000015258789062 2.6645395755767822 C 2.1400015354156494 2.524539574980736 1.9700027480721474 2.3345409482717514 1.8700027465820312 2.224540948867798 L 0 1.0645411014556885 C 0.3100000023841858 0.5045410990715027 0.9199997186660767 0.08454021252691746 1.5699996948242188 0.024540213868021965 C 2.2399997115135193 -0.07545978762209415 2.910002738237381 0.1345394253730774 3.3700027465820312 0.5745394229888916 L 3.3899993896484375 0.5945398807525635 C 4.119999408721924 0.43453988432884216 4.769999086856842 0.30454082787036896 5.459999084472656 0.3845408260822296 C 6.489999055862427 0.5045408234000206 7.3400033712387085 1.0845417380332947 7.730003356933594 1.924541711807251 C 7.800003357231617 2.0845417082309723 7.860005799680948 2.2645400315523148 7.920005798339844 2.434540033340454 C 7.920005798339844 2.4445400331169367 7.920000305399299 2.4545409493148327 7.930000305175781 2.474540948867798 C 9.290000319480896 2.2945409417152405 10.340000629425049 2.8545418679714203 11.110000610351562 3.2645418643951416 L 14.389999389648438 5.014542102813721 L 13.350006103515625 6.98453950881958 L 13.350006103515625 6.974541187286377 Z" fill="#612a7a"/></g><g transform="matrix(1 0 0 1 18.78314971923828 18.108562469482422)"><path d="M 12.150009155273438 7.599998474121094 C 11.210009157657623 7.799998477101326 10.27000242471695 7.309997737407684 9.69000244140625 6.649997711181641 C 9.460002437233925 6.389997720718384 9.270001828670502 6.099999248981476 9.080001831054688 5.799999237060547 C 8.950001835823059 5.589999243617058 8.820009157061577 5.3800007700920105 8.650009155273438 5.200000762939453 C 8.520009160041809 5.060000762343407 8.380007322877645 4.989997863769531 8.32000732421875 4.989997863769531 C 8.350007323548198 4.989997863769531 8.270006712526083 5.099999848753214 8.210006713867188 5.159999847412109 C 7.980006709694862 5.419999837875366 7.620003044605255 5.809997409582138 7.0500030517578125 5.969997406005859 C 6.450003027915955 6.129997402429581 5.350010395050049 6.140000820159912 4.3700103759765625 4.450000762939453 L 3.2100067138671875 2.450000762939453 C 2.380006730556488 2.6000007688999176 1.5800127983093262 2.8399993777275085 0.8100128173828125 3.1399993896484375 L 0 1.05999755859375 C 1.159999966621399 0.609997570514679 2.390004873275757 0.2900006175041199 3.6300048828125 0.1100006103515625 L 4.3800048828125 0 L 6.3000030517578125 3.329998016357422 C 6.390003055334091 3.489998012781143 6.470008544623852 3.6000003069639206 6.540008544921875 3.6800003051757812 C 6.540008544921875 3.6800003051757812 6.55001281760633 3.669999847188592 6.5600128173828125 3.6599998474121094 C 6.74001282453537 3.459999844431877 6.980011582374573 3.189999997615814 7.3400115966796875 3 C 8.250011622905731 2.520000010728836 9.470003068447113 2.7899986505508423 10.300003051757812 3.6899986267089844 C 10.550003051757812 3.9699986279010773 10.760006710886955 4.279998481273651 10.960006713867188 4.599998474121094 C 11.090006709098816 4.799998477101326 11.210010379552841 5.000000298023224 11.370010375976562 5.180000305175781 C 11.510010376572609 5.340000301599503 11.67001098766923 5.40999816916883 11.730010986328125 5.4199981689453125 L 12.610000610351562 7.459999084472656 C 12.460000604391098 7.5299990847706795 12.32001343369484 7.580000611022115 12.170013427734375 7.6100006103515625 L 12.150009155273438 7.599998474121094 Z" fill="#612a7a"/></g><g transform="matrix(1 0 0 1 25.903331756591797 20.889612197875977)"><path d="M 7.089996337890625 3.2133827209472656 L 5.040008544921875 2.3433837890625 C 4.9300085455179214 2.5933837890625 4.959995120763779 2.893382117152214 5.1199951171875 3.103382110595703 C 5.2599951177835464 3.2933821082115173 5.4300085455179214 3.3033845517784357 5.540008544921875 3.293384552001953 L 5.30999755859375 3.363384246826172 C 5.099997565150261 3.433384247124195 4.810006707906723 3.5433828737586737 4.4600067138671875 3.5533828735351562 C 3.590006709098816 3.6033828742802143 2.92000550031662 3.093382716178894 2.4900054931640625 2.7133827209472656 C 2.2000055015087128 2.453382730484009 1.9800006076693535 2.253384856507182 1.8600006103515625 2.2233848571777344 C 2.1300006210803986 2.113384857773781 2.2100012209266424 1.9533828794956207 2.220001220703125 1.8033828735351562 L 0 1.6433830261230469 C 0.03999999910593033 1.1433830261230469 0.30000123381614685 0.6833847165107727 0.720001220703125 0.38338470458984375 C 1.200001209974289 0.03338471055030823 1.8300036787986755 -0.08661500364542007 2.410003662109375 0.0633850023150444 C 3.0700036883354187 0.23338500410318375 3.5200048685073853 0.6433848440647125 3.8800048828125 0.9733848571777344 C 4.240004897117615 1.3033848702907562 4.349995117634535 1.3333854675292969 4.3699951171875 1.3333854675292969 C 4.379995116963983 1.3333854675292969 4.489997558295727 1.2933857720345259 4.55999755859375 1.2633857727050781 C 4.759997561573982 1.193385772407055 4.999997556209564 1.1033833306282759 5.30999755859375 1.0733833312988281 C 5.909997582435608 1.0133833326399326 6.540009140968323 1.283384084701538 6.9000091552734375 1.7733840942382812 C 7.210009157657623 2.2033841013908386 7.28000183403492 2.7333827316761017 7.0800018310546875 3.2133827209472656 L 7.089996337890625 3.2133827209472656 Z" fill="#612a7a"/></g><g transform="matrix(1 0 0 1 6.657069683074951 19.478076934814453)"><path d="M 10.930000305175781 7.041003704071045 C 10.680000305175781 7.091003704816103 10.420001536607742 7.10100370272994 10.150001525878906 7.041003704071045 C 9.330001533031464 6.881003707647324 8.579998791217804 6.2410014271736145 8.279998779296875 5.4410014152526855 C 8.109998777508736 4.971001416444778 8.060002136975527 4.511003404855728 8.010002136230469 4.111003398895264 C 7.990002136677504 3.9010034054517746 7.970000304281712 3.7010034918785095 7.930000305175781 3.521003484725952 L 4.730003356933594 4.261001110076904 C 4.730003356933594 4.261001110076904 4.639998473227024 4.281003704294562 4.599998474121094 4.291003704071045 C 2.1899983882904053 4.811003684997559 1.3700027465820312 3.661004066467285 1.1200027465820312 3.1310040950775146 C 0.9600027501583099 2.791004091501236 0.9199993889778852 2.4610021114349365 0.8899993896484375 2.2110021114349365 C 0.8799993898719549 2.121002107858658 0.8599984738975763 1.9910037890076637 0.8499984741210938 1.9510037899017334 C 0.9499984756112099 2.1910037845373154 1.130000002682209 2.2310025691986084 1.25 2.2310025691986084 C 1.5399999916553497 2.241002568975091 1.8300012201070786 2.0710043907165527 1.970001220703125 1.811004400253296 L 0 0.7610012888908386 C 0.27000001072883606 0.2610012888908386 0.7900006175041199 -0.018997011124156415 1.3600006103515625 0.0010029884288087487 C 2.020000636577606 0.031002987758256495 2.660003662109375 0.4910014867782593 2.910003662109375 1.101001501083374 C 3.030003659427166 1.401001513004303 3.069998474791646 1.6910011917352676 3.0999984741210938 1.9210011959075928 C 3.1099984738975763 2.0110011994838715 3.129999389871955 2.1310011968016624 3.1399993896484375 2.1710011959075928 C 3.1399993896484375 2.1710011959075928 3.5600011944770813 2.2110027223825455 4.220001220703125 2.071002721786499 L 7.5 1.3010022640228271 C 7.840000003576279 1.2210022658109665 8.499999403953552 1.071003794670105 9.139999389648438 1.4510037899017334 C 9.489999383687973 1.6610037833452225 9.750000298023224 1.9910016655921936 9.930000305175781 2.4410016536712646 C 10.120000302791595 2.931001663208008 10.180001221597195 3.4110031723976135 10.220001220703125 3.841003179550171 C 10.250001220032573 4.1410031914711 10.280000612139702 4.43100218474865 10.360000610351562 4.641002178192139 C 10.39000060968101 4.711002178490162 10.499997559934855 4.811000805348158 10.55999755859375 4.831000804901123 C 10.489997558295727 4.811000805348158 10.320001222193241 4.841001875698566 10.220001220703125 4.961001873016357 L 11.870002746582031 6.451003551483154 C 11.610002756118774 6.741003543138504 11.279998183250427 6.931002788245678 10.919998168945312 7.001002788543701 L 10.930000305175781 7.041003704071045 Z" fill="#612a7a"/></g><g transform="matrix(1 0 0 1 14.749011993408203 22.804821014404297)"><path d="M 22.029998779296875 10.42324447631836 C 21.71999877691269 10.103244483470917 21.29000610113144 9.893244322389364 20.850006103515625 9.833244323730469 C 20.41000610589981 9.78324432298541 19.930005490779877 9.743244022130966 19.490005493164062 9.403244018554688 C 18.940005481243134 8.97324401140213 18.790006712079048 8.353244006633759 18.710006713867188 7.9032440185546875 C 18.460006713867188 8.013244017958641 18.090002447366714 8.063244931399822 17.69000244140625 7.943244934082031 C 16.63000249862671 7.623244941234589 16.500007934868336 6.593244791030884 16.430007934570312 6.103244781494141 C 16.410007935017347 5.98324478417635 16.389995116740465 5.803244169801474 16.3699951171875 5.743244171142578 C 16.349995117634535 5.743244171142578 16.099999994039536 5.743243865668774 15.75 5.813243865966797 C 15.690000001341105 5.8232438657432795 15.630007322877645 5.843246918171644 15.57000732421875 5.863246917724609 C 14.610007345676422 6.153246909379959 13.360002994537354 6.523244619369507 12.300003051757812 5.76324462890625 C 11.610003054141998 5.26324462890625 11.359993889927864 4.513246417045593 11.149993896484375 3.9132463932037354 C 11.069993898272514 3.6932463943958282 10.94999511539936 3.323244407773018 10.8699951171875 3.2432444095611572 C 10.819995116442442 3.25324440933764 10.500004880130291 3.373246394097805 10.3800048828125 3.4132463932037354 L 7.8000030517578125 4.3432464599609375 C 7.3500030636787415 4.503246456384659 6.590008556842804 4.783245861530304 5.790008544921875 4.483245849609375 C 4.990008533000946 4.193245857954025 4.619996339082718 3.5232474505901337 4.339996337890625 3.0432474613189697 C 4.269996337592602 2.9232474640011787 4.200004883110523 2.803245171904564 4.1300048828125 2.6932451725006104 C 3.870004892349243 2.3232451677322388 3.379994511604309 2.213246088474989 3.0099945068359375 2.233246088027954 C 2.639994502067566 2.2432460878044367 2.1500003039836884 2.4032453298568726 1.9300003051757812 2.783245325088501 L 0 1.6632463932037354 C 0.5699999928474426 0.6732463836669922 1.6599981784820557 0.04324651253409684 2.9199981689453125 0.0032465134281665087 C 4.1699981689453125 -0.04675348731689155 5.310006737709045 0.48324471712112427 5.9600067138671875 1.4232447147369385 C 6.070006713271141 1.5832447111606598 6.179998777806759 1.763245165348053 6.279998779296875 1.9432451725006104 C 6.369998782873154 2.1032451689243317 6.510001830756664 2.3532442562282085 6.5800018310546875 2.4032442569732666 C 6.610001830384135 2.3632442578673363 6.950003050267696 2.2832444086670876 7.0500030517578125 2.2432444095611572 L 9.639999389648438 1.313244104385376 C 10.089999377727509 1.1532441079616547 10.839999377727509 0.8832463920116425 11.639999389648438 1.1632463932037354 C 12.699999332427979 1.533246397972107 13.040004268288612 2.5432472825050354 13.270004272460938 3.203247308731079 C 13.360004276037216 3.473247319459915 13.499995119869709 3.8832456320524216 13.6199951171875 3.9632456302642822 C 13.779995113611221 4.073245629668236 14.449997544288635 3.8832470029592514 14.80999755859375 3.773247003555298 C 16.519997596740723 3.263247013092041 17.900003671646118 3.6932443380355835 18.410003662109375 4.833244323730469 C 18.530003659427166 5.103244334459305 18.59000488370657 5.3832452446222305 18.6300048828125 5.6232452392578125 C 18.910004884004593 5.563245240598917 19.23000732064247 5.513244777917862 19.57000732421875 5.603244781494141 C 20.63000726699829 5.8832447826862335 20.809993892908096 6.903245687484741 20.899993896484375 7.393245697021484 C 20.909993896260858 7.45324569568038 20.920002441853285 7.533246461302042 20.94000244140625 7.5932464599609375 L 21.139999389648438 7.613246917724609 C 22.07999938726425 7.723246917128563 22.969999372959137 8.163244783878326 23.639999389648438 8.85324478149414 L 22.050003051757812 10.413246154785156 L 22.029998779296875 10.42324447631836 Z" fill="#612a7a"/></g><g transform="matrix(1 0 0 1 4.27734899520874 25.744173049926758)"><path d="M 22.48999786376953 9.482681274414062 C 22.349997863173485 9.24268127977848 22.069997876882553 9.052681274712086 21.73999786376953 8.982681274414062 C 21.40999785065651 8.91268127411604 21.07999847829342 8.962680667638779 20.849998474121094 9.1226806640625 L 19.659996032714844 9.952682495117188 L 19.169998168945312 8.582679748535156 C 19.029998168349266 8.182679742574692 18.659996956586838 7.832679450511932 18.199996948242188 7.652679443359375 C 17.72999694943428 7.472679436206818 17.229998469352722 7.462679445743561 16.849998474121094 7.652679443359375 L 15.30999755859375 8.412681579589844 L 15.239997863769531 6.702678680419922 C 15.229997863993049 6.402678668498993 15.01999694108963 6.092678979039192 14.699996948242188 5.882678985595703 C 14.379996955394745 5.672678992152214 14.009995728731155 5.6126808151602745 13.729995727539062 5.712680816650391 C 13.619995728135109 5.752680815756321 13.519996032118797 5.802678529173136 13.409996032714844 5.862678527832031 C 13.039996027946472 6.042678534984589 12.539998173713684 6.292680053040385 11.919998168945312 6.2626800537109375 C 10.469998121261597 6.192680053412914 9.889999985694885 4.872681736946106 9.5 4.002681732177734 C 9.359999999403954 3.6826817393302917 9.119995728135109 3.152679294347763 8.979995727539062 3.0626792907714844 C 8.959995727986097 3.072679290547967 8.789996951818466 3.142679901793599 8.699996948242188 3.172679901123047 L 3.9599990844726562 4.912681579589844 C 3.68999907374382 5.01268158107996 3.129996657371521 5.212680816650391 2.5199966430664062 4.962680816650391 C 1.7099966406822205 4.632680803537369 1.5199948102235794 3.812679886817932 1.4399948120117188 3.422679901123047 C 1.34999480843544 3.0326799154281616 1.1999978572130203 2.682678520679474 0.9899978637695312 2.3626785278320312 L 0.3699951171875 2.2326812744140625 L 0 0.9826812744140625 L 0.8699951171875 0.05268096178770065 C 1.1299951076507568 -0.027319036424160004 1.8199948072433472 -0.11732149124145508 2.4399948120117188 0.6126785278320312 C 2.9599947929382324 1.2126785516738892 3.339995428919792 1.9326786994934082 3.5499954223632812 2.702678680419922 L 7.930000305175781 1.1026802062988281 C 8.220000296831131 0.9926802068948746 8.629997253417969 0.8326785285025835 9.129997253417969 0.8626785278320312 C 10.569997310638428 0.9226785264909267 11.160000920295715 2.2426806688308716 11.540000915527344 3.1226806640625 C 11.68000091612339 3.4426806569099426 11.919999688863754 3.972681425511837 12.069999694824219 4.072681427001953 C 12.099999694153666 4.052681427448988 12.300000309944153 3.9526811204850674 12.430000305175781 3.892681121826172 C 12.60000030696392 3.812681123614311 12.76999481022358 3.732681579887867 12.939994812011719 3.6626815795898438 C 13.899994790554047 3.292681574821472 15.01000028848648 3.4426809549331665 15.930000305175781 4.052680969238281 C 16.440000295639038 4.382680982351303 16.840000599622726 4.832679748535156 17.110000610351562 5.332679748535156 C 17.74000060558319 5.272679749876261 18.399998784065247 5.362678527832031 19.029998779296875 5.612678527832031 C 19.699998795986176 5.882678538560867 20.26999694108963 6.302679777145386 20.699996948242188 6.832679748535156 L 20.73999786376953 6.832679748535156 C 21.219997853040695 6.722679749131203 21.720001220703125 6.722679749131203 22.220001220703125 6.832679748535156 C 23.16000121831894 7.0326797515153885 23.959998160600662 7.592678546905518 24.419998168945312 8.362678527832031 L 22.5 9.502681732177734 L 22.48999786376953 9.482681274414062 Z M 1.1699981689453125 1.3326797485351562 L 1.4599990844726562 2.1826820373535156 C 1.4599990844726562 2.1826820373535156 1.46999572776258 2.1826820373535156 1.4799957275390625 2.1826820373535156 L 1.220001220703125 1.2826805114746094 L 1.1699981689453125 1.3326797485351562 Z M 1.3199996948242188 1.1626815795898438 L 2.149993896484375 1.4726791381835938 C 2.2299938946962357 1.1526791453361511 2.1099984645843506 0.8126814216375351 1.8499984741210938 0.5726814270019531 L 1.30999755859375 1.1626815795898438 L 1.3199996948242188 1.1626815795898438 Z" fill="#612a7a"/></g></g><g transform="matrix(1 0 0 1 32.351219177246094 51.4197883605957)"><g transform="matrix(1 0 0 1 0 0)"><path d="M 31.328012466430664 62.80999755859375 L 30.02800941467285 60.55000305175781 C 25.008009433746338 51.820003509521484 1.7680088132619858 50.04999877884984 1.5280088186264038 50.029998779296875 L 0.7880109548568726 49.97999572753906 L 0.6680082082748413 49.24000549316406 C -3.9219919443130493 21.11000633239746 16.63800911605358 0.6000015288591385 16.84800910949707 0.40000152587890625 L 17.248010635375977 0 L 62.64800262451172 14.389999389648438 L 58.31800842285156 14.909996032714844 C 39.56800842285156 17.249995946884155 31.848009414970875 59.810005486011505 31.77800941467285 60.24000549316406 L 31.328012466430664 62.80999755859375 Z M 2.418008327484131 48.209991455078125 C 6.328008413314819 48.56999146938324 23.7780122756958 50.529998779296875 30.328012466430664 57.779998779296875 C 32.05801248550415 49.38999843597412 39.2180061340332 19.499998569488525 54.69800567626953 13.849998474121094 L 17.77800941467285 2.1500015258789062 C 15.028009414672852 5.070001602172852 -1.2319917678833008 23.549991607666016 2.418008327484131 48.209991455078125 Z" fill="#612a7a"/></g><g transform="matrix(1 0 0 1 8.195316314697266 4.419344902038574)"><path d="M 18.529998779296875 6.147375583648682 L 16.51000213623047 5.197371006011963 C 16.42000213265419 5.37737101316452 16.42000213265419 5.597370699048042 16.51000213623047 5.767370700836182 C 16.570002134889364 5.877370700240135 16.649998784065247 5.937375279143453 16.779998779296875 5.9673752784729 C 16.71999878063798 5.9673752784729 16.50000061094761 6.047372531145811 16.360000610351562 6.097372531890869 C 15.950000613927841 6.2573725283145905 14.889999091625214 6.577376812696457 13.959999084472656 6.117376804351807 C 13.64999908208847 5.967376798391342 13.389999091625214 5.737370997667313 13.209999084472656 5.447371006011963 C 12.719999074935913 5.87737101316452 12.039996922016144 6.2973697781562805 11.199996948242188 5.977369785308838 L 10.349998474121094 5.657370090484619 L 10.489997863769531 4.767370700836182 C 10.279997870326042 4.657370701432228 10.159997560083866 4.727374974638224 10.05999755859375 4.787374973297119 C 9.729997545480728 4.977374970912933 9.290002465248108 5.2373697850853205 8.69000244140625 5.227369785308838 C 7.650002479553223 5.207369785755873 7.090001225471497 4.457373142242432 6.720001220703125 3.9573731422424316 C 6.6100012212991714 3.807373136281967 6.410001829266548 3.5473740585148335 6.3300018310546875 3.4973740577697754 C 6.190001830458641 3.4773740582168102 5.759996637701988 3.6773749738931656 5.519996643066406 3.787374973297119 C 3.9999966621398926 4.4673749804496765 2.7100006341934204 4.227372825145721 2.1100006103515625 3.2773728370666504 C 1.9000006169080734 2.9573728442192078 1.829998780041933 2.627374678850174 1.779998779296875 2.357374668121338 C 1.7499987799674273 2.3673746678978205 1.7199969477951527 2.3773734476417303 1.6999969482421875 2.387373447418213 C 1.2599969506263733 2.5673734545707703 0.6700000166893005 2.8273719251155853 0 2.7373719215393066 L 0.29000091552734375 0.5273728370666504 C 0.38000091910362244 0.5273728370666504 0.6600018292665482 0.407370425760746 0.8300018310546875 0.3373704254627228 C 1.3900018334388733 0.09737043082714081 2.4499963521957397 -0.35262802243232727 3.339996337890625 0.48737195134162903 C 3.809996336698532 0.9373719394207001 3.8999990858137608 1.4873746633529663 3.9599990844726562 1.857374668121338 C 3.9599990844726562 1.907374668866396 3.9799978639930487 1.9773749746382236 3.9899978637695312 2.037374973297119 C 4.019997863098979 1.9573749750852585 4.199996039271355 1.927370399236679 4.409996032714844 1.8373703956604004 C 5.2199960350990295 1.4673703908920288 6.19000244140625 1.0173709988594055 7.19000244140625 1.447371006011963 C 7.830002427101135 1.717371016740799 8.199999988079071 2.217371314764023 8.5 2.627371311187744 C 8.590000003576279 2.7373713105916977 8.699998781085014 2.897371917963028 8.779998779296875 2.9873719215393066 C 8.779998779296875 2.9473719224333763 8.870000306516886 2.8973768036812544 8.930000305175781 2.8673768043518066 C 9.130000308156013 2.757376804947853 9.369998157024384 2.6073707044124603 9.669998168945312 2.5173707008361816 C 10.439998149871826 2.2673707008361816 11.230000615119934 2.467376172542572 11.860000610351562 3.007376194000244 C 11.980000607669353 3.1073761954903603 12.090000301599503 3.2173703983426094 12.180000305175781 3.3373703956604004 C 12.580000311136246 3.0273703932762146 13.119996964931488 2.777370397001505 13.699996948242188 2.8373703956604004 C 14.179996937513351 2.8873703964054585 14.599998474121094 3.1373749673366547 14.849998474121094 3.537374973297119 C 14.98999847471714 3.747374966740608 15.05000183172524 3.957371309399605 15.080001831054688 4.127371311187744 C 15.190001830458641 4.127371311187744 15.330001220107079 4.097369480878115 15.470001220703125 4.047369480133057 C 15.970001220703125 3.8573694825172424 16.49999725818634 3.657370701432228 17.12999725341797 3.7673707008361816 C 17.689997255802155 3.8673707023262978 18.20000120997429 4.237371921539307 18.470001220703125 4.737371921539307 C 18.710001215338707 5.187371909618378 18.720002129673958 5.707375586032867 18.51000213623047 6.147375583648682 L 18.529998779296875 6.147375583648682 Z" fill="#612a7a"/></g><g transform="matrix(1 0 0 1 17.624101638793945 7.143866062164307)"><path d="M 5.779998779296875 3.80999755859375 L 3.6399993896484375 3.19000244140625 C 3.579999390989542 3.410002440214157 3.6199978664517403 3.6499996930360794 3.7399978637695312 3.8199996948242188 C 3.8699978590011597 3.989999696612358 4.009999696165323 4 4.069999694824219 4 C 4.029999695718288 4 3.9099996984004974 4.029995422810316 3.8199996948242188 4.049995422363281 C 3.6099997013807297 4.099995423108339 3.4000003039836884 4.149996032938361 3.1800003051757812 4.159996032714844 C 2.4700003266334534 4.199996031820774 1.750002145767212 3.8899996876716614 1.2600021362304688 3.3199996948242188 C 1.17000213265419 3.2199996933341026 1.0999987795948982 3.1099999994039536 1.029998779296875 3 L 0.6299972534179688 3.1200027465820312 L 0 0.9799957275390625 L 3.30999755859375 0 L 2.9199981689453125 1.839996337890625 C 3.1199981719255447 1.9299963414669037 3.2200009152293205 1.919997252523899 3.2900009155273438 1.8799972534179688 C 3.520000919699669 1.8199972547590733 3.799997240304947 1.7600021362304688 4.129997253417969 1.7600021362304688 C 4.679997265338898 1.7700021360069513 5.23000305891037 2.049997866153717 5.5500030517578125 2.4899978637695312 C 5.830003052949905 2.8699978590011597 5.920000910758972 3.34999543428421 5.790000915527344 3.7999954223632812 L 5.779998779296875 3.80999755859375 Z" fill="#612a7a"/></g><g transform="matrix(1 0 0 1 5.147231578826904 8.509106636047363)"><path d="M 10.760002136230469 5.1300048828125 L 8.540000915527344 4.9900054931640625 C 8.560000915080309 4.760005488991737 8.440002143383026 4.500000610947609 8.260002136230469 4.3600006103515625 C 8.070002138614655 4.220000609755516 7.789999693632126 4.179999999701977 7.569999694824219 4.25 L 6.739997863769531 4.529998779296875 L 6.269996643066406 3.790008544921875 C 6.139996647834778 3.570008546113968 5.979997560381889 3.3700024485588074 5.80999755859375 3.19000244140625 C 5.199997544288635 3.5800024271011353 4.390002727508545 4.109995722770691 3.3700027465820312 3.9799957275390625 C 2.7100027203559875 3.889995723962784 2.0999990701675415 3.510007917881012 1.7099990844726562 2.9300079345703125 C 1.6299990862607956 2.8100079372525215 1.5599999986588955 2.6899975538253784 1.5 2.55999755859375 C 1.229999989271164 2.6199975572526455 0.9599969387054443 2.7000085413455963 0.6999969482421875 2.790008544921875 L 0 0.6800003051757812 C 0.7400000095367432 0.43000030517578125 1.520003080368042 0.2599981725215912 2.3000030517578125 0.1699981689453125 L 3.9000015258789062 0 L 3.5 1.5600051879882812 L 3.6500015258789062 1.779998779296875 C 3.8600015193223953 1.7999987788498402 4.290002733469009 1.5300051867961884 4.620002746582031 1.3100051879882812 L 4.849998474121094 1.160003662109375 C 5.009998470544815 1.0600036606192589 5.379999399185181 0.8199996948242188 5.8899993896484375 0.8199996948242188 C 6.559999406337738 0.8199996948242188 7.000001519918442 1.2600015252828598 7.150001525878906 1.4000015258789062 C 7.3500015288591385 1.5800015330314636 7.529999077320099 1.780000001192093 7.709999084472656 2 C 8.379999101161957 1.9800000004470348 9.059998452663422 2.1900006234645844 9.599998474121094 2.6100006103515625 C 10.369998455047607 3.200000584125519 10.820002134889364 4.180009126663208 10.760002136230469 5.1500091552734375 L 10.760002136230469 5.1300048828125 Z" fill="#612a7a"/></g><g transform="matrix(1 0 0 1 11.21024227142334 10.542407035827637)"><path d="M 12.760002136230469 5.700794696807861 L 10.909996032714844 4.460789203643799 C 10.779996037483215 4.650789201259613 10.749996334314346 4.920798361301422 10.839996337890625 5.110798358917236 C 10.89999633654952 5.240798354148865 10.969999693334103 5.280791034922004 11.069999694824219 5.290791034698486 C 10.989999696612358 5.290791034698486 10.829994812607765 5.300784321501851 10.689994812011719 5.330784320831299 C 10.459994807839394 5.360784320160747 10.169998466968536 5.4107971377670765 9.849998474121094 5.390797138214111 C 9.139998495578766 5.350797139108181 8.46000212430954 4.970798373222351 8.010002136230469 4.360798358917236 C 7.900002136826515 4.210798352956772 7.809995725750923 4.06079164147377 7.7299957275390625 3.900791645050049 L 6.8300018310546875 4.110798358917236 C 6.61000183224678 4.1807983592152596 6.40999510884285 4.200786150991917 6.1199951171875 4.160786151885986 C 5.2899951338768005 4.02078615128994 4.9799963384866714 3.3707946836948395 4.839996337890625 2.9507946968078613 C 4.749996334314346 3.0007946975529194 4.649995423853397 3.0507885925471783 4.549995422363281 3.1007885932922363 C 4.329995423555374 3.2207885906100273 4.109997257590294 3.3407959192991257 3.8799972534179688 3.4207959175109863 C 3.1999972462654114 3.680795907974243 2.3800008893013 3.6407953202724457 1.7900009155273438 3.310795307159424 C 1.3100009262561798 3.0407952964305878 0.9900015294551849 2.600789785385132 0.9000015258789062 2.0707898139953613 L 0.8699951171875 1.6807904243469238 C 0.8699951171875 1.6807904243469238 0.850001223385334 1.710797131061554 0.970001220703125 1.8907971382141113 C 1.1300012171268463 2.1407971382141113 1.4600021243095398 2.3307849317789078 1.7600021362304688 2.1907849311828613 L 0 0.8407940864562988 C 0.17000000178813934 0.6407940834760666 0.45999816060066223 0.3107873648405075 0.9199981689453125 0.13078735768795013 C 1.639998197555542 -0.17921264469623566 2.4700006246566772 0.08078920841217041 2.8600006103515625 0.7107892036437988 C 2.990000605583191 0.9207891970872879 3.0500018317252398 1.140789806842804 3.0800018310546875 1.3207898139953613 C 3.2900018244981766 1.2607898153364658 3.400002136826515 1.2007971368730068 3.5100021362304688 1.1407971382141113 C 3.930002123117447 0.9207971394062042 4.449998497962952 0.640792865306139 5.099998474121094 0.6207928657531738 C 5.469998478889465 0.6107928659766912 5.800001829862595 0.690798357129097 6.0800018310546875 0.8607983589172363 C 6.520001828670502 1.1307983696460724 6.7299963384866714 1.540792852640152 6.839996337890625 1.8707928657531738 L 10.110000610351562 1.0707898139953613 L 9.720001220703125 2.800785541534424 C 9.720001220703125 2.800785541534424 9.71999542415142 2.94079652428627 9.799995422363281 3.030796527862549 C 9.869995422661304 3.1207965314388275 9.949999999254942 3.1707959175109863 10 3.1707959175109863 C 10.07999999821186 3.1707959175109863 10.219995111227036 3.1507873721420765 10.3699951171875 3.1307873725891113 C 10.649995118379593 3.090787373483181 10.989995121955872 3.0407940857112408 11.3699951171875 3.090794086456299 C 12.019995093345642 3.1707940846681595 12.609997242689133 3.610794723033905 12.879997253417969 4.200794696807861 C 13.109997257590294 4.700794696807861 13.069996654987335 5.270789206027985 12.769996643066406 5.710789203643799 L 12.760002136230469 5.700794696807861 Z" fill="#612a7a"/></g><g transform="matrix(1 0 0 1 3.5449533462524414 12.940298080444336)"><path d="M 14.439994812011719 7.392445087432861 C 13.569994807243347 7.472445085644722 12.809999078512192 6.882441997528076 12.459999084472656 5.842442035675049 C 12.449999084696174 5.8024420365691185 12.41999389603734 5.7424438670277596 12.399993896484375 5.672443866729736 C 11.949993908405304 5.802443861961365 11.33999878168106 5.882439583539963 10.779998779296875 5.402439594268799 C 10.349998772144318 5.032439589500427 10.239994812756777 4.522444471716881 10.189994812011719 4.282444477081299 C 10.109994813799858 3.8724444806575775 9.98000030592084 3.672446545213461 9.930000305175781 3.6124465465545654 C 9.950000304728746 3.6524465456604958 9.799999088048935 3.69244715757668 9.709999084472656 3.722447156906128 C 9.269999086856842 3.8324471563100815 8.32999300956726 4.112441062927246 7.609992980957031 3.372441053390503 C 7.339992970228195 3.102441042661667 7.219996031373739 2.792434960603714 7.159996032714844 2.522434949874878 C 6.129996061325073 3.3824349641799927 5.029998421669006 4.032441437244415 3.8499984741210938 4.482441425323486 L 2.30999755859375 5.082447528839111 L 2.339996337890625 3.4224441051483154 C 2.339996337890625 3.4224441051483154 2.1999954283237457 3.3224489875137806 2.0499954223632812 3.3024489879608154 C 1.6699954271316528 3.24244898930192 1.1599990725517273 3.422437995672226 0.7099990844726562 3.5724380016326904 L 0 1.462437391281128 C 0.6600000262260437 1.2424373924732208 1.4799938797950745 0.962436780333519 2.399993896484375 1.1024367809295654 C 3.0599939227104187 1.2024367824196815 3.629996657371521 1.5224471688270569 4.019996643066406 1.972447156906128 C 4.629996657371521 1.6524471640586853 5.199995756149292 1.2724477052688599 5.7299957275390625 0.8324477076530457 C 6.039995729923248 0.5724477171897888 6.3599996864795685 0.2924410104751587 6.819999694824219 0.12244100868701935 C 7.619999706745148 -0.15755899250507355 8.439998179674149 0.052439749240875244 8.919998168945312 0.6524397730827332 C 9.159998163580894 0.9524397850036621 9.249995421618223 1.2624447047710419 9.299995422363281 1.532444715499878 C 9.559995412826538 1.4624447152018547 9.869993597269058 1.4024441055953503 10.219993591308594 1.4224441051483154 C 11.209993600845337 1.4924441054463387 11.949997544288635 2.232442855834961 12.30999755859375 3.4524428844451904 C 12.55999755859375 3.41244288533926 12.819996327161789 3.392442885786295 13.089996337890625 3.4524428844451904 C 14.109996318817139 3.6824428886175156 14.439998477697372 4.662435322999954 14.599998474121094 5.132435321807861 C 14.649998474866152 5.272435322403908 14.469994500279427 5.162438374012709 14.259994506835938 5.182438373565674 L 14.479995727539062 7.402439594268799 L 14.439994812011719 7.392445087432861 Z" fill="#612a7a"/></g><g transform="matrix(1 0 0 1 12.665596961975098 15.856938362121582)"><path d="M 5.909996032714844 3.499779462814331 L 3.839996337890625 2.6697776317596436 C 3.7699963375926018 2.8597776293754578 3.770000606775284 3.0697751939296722 3.8600006103515625 3.2297751903533936 C 3.920000609010458 3.339775189757347 3.999995119869709 3.3997776322066784 4.1199951171875 3.4197776317596436 C 4.069995116442442 3.4197776317596436 3.87999664247036 3.449775191023946 3.7699966430664062 3.4797751903533936 L 3.470001220703125 3.539788007736206 C 2.6100012063980103 3.6797880083322525 1.890002429485321 3.449783146381378 1.44000244140625 2.909783124923706 C 1.2800024449825287 2.719783127307892 1.1899951174855232 2.5197758078575134 1.1199951171875 2.339775800704956 C 1.0999951176345348 2.339775800704956 1.089999694377184 2.3597745802253485 1.0699996948242188 2.369774580001831 L 0 0.4197775423526764 C 1.4600000381469727 -0.38022246956825256 2.3100003004074097 0.13977819681167603 2.6800003051757812 0.5297781825065613 C 2.940000295639038 0.7997781932353973 3.059999391436577 1.0997756868600845 3.1399993896484375 1.3397756814956665 L 3.3199996948242188 1.3097769021987915 C 3.6399996876716614 1.2397769019007683 4.069995433092117 1.1497848331928253 4.549995422363281 1.239784836769104 C 5.089995443820953 1.3397848382592201 5.560001820325851 1.6897776424884796 5.8300018310546875 2.1697776317596436 C 6.060001835227013 2.5897776186466217 6.089998170733452 3.079773962497711 5.9199981689453125 3.5097739696502686 L 5.909996032714844 3.499779462814331 Z" fill="#612a7a"/></g></g></g></g></g></svg>
