<svg xmlns="http://www.w3.org/2000/svg" viewBox="0 0 116 142" role="img" aria-hidden="true"><g transform="translate(-76.666015625 -30)"><g transform="matrix(1 0 0 1 76.666015625 30)"><g transform="matrix(1 0 0 1 0.0012919938890263438 -0.001232445822097361)"><g transform="matrix(1 0 0 1 11.046327590942383 11.130009651184082)"><g transform="matrix(1 0 0 1 10.519255638122559 29.83152961730957)"><path d="M 6.279999732971191 0 L 3.630000114440918 0 C 1.630000114440918 0 0 1.6199991703033447 0 3.6299991607666016 L 0 10.420000076293945 C 0 12.420000076293945 1.609999418258667 14.030001144856215 3.59999942779541 14.05000114440918 C 3.59999942779541 14.05000114440918 3.59999942779541 14.0499994661659 3.59999942779541 14.059999465942383 C 3.59999942779541 14.889999449253082 4.269999444484711 15.559999465942383 5.09999942779541 15.559999465942383 C 5.92999941110611 15.559999465942383 6.59999942779541 14.889999449253082 6.59999942779541 14.059999465942383 C 6.59999942779541 14.0499994661659 6.59999942779541 14.029998550191522 6.59999942779541 14.019998550415039 C 8.449999451637268 13.859998553991318 9.909998893737793 12.320000052452087 9.909998893737793 10.420000076293945 L 9.909998893737793 3.6299991607666016 C 9.909998893737793 1.6299991607666016 8.289999723434448 0 6.279999732971191 0 Z" fill="#613182"/></g><g transform="matrix(1 0 0 1 0 0)"><g transform="matrix(1 0 0 1 0.8005520105361938 0.8006313443183899)"><path d="M 22.040000915527344 11.019999504089355 C 22.040000915527344 17.10617733001709 17.106178283691406 22.040000915527344 11.020000457763672 22.040000915527344 C 4.9338226318359375 22.040000915527344 0 17.10617733001709 0 11.019999504089355 C 0 4.933821678161621 4.9338226318359375 0 11.020000457763672 0 C 17.106178283691406 0 22.040000915527344 4.933821678161621 22.040000915527344 11.019999504089355 Z" fill="#ffffff"/></g><g transform="matrix(1 0 0 1 0 0)"><path d="M 11.520000457763672 23.040000915527344 C 6.970000267028809 23.040000915527344 0 17.87999963760376 0 11.519999504089355 C 0 5.159999370574951 5.1700005531311035 0 11.520000457763672 0 C 17.87000036239624 0 23.040000915527344 5.169999599456787 23.040000915527344 11.519999504089355 C 23.040000915527344 17.869999408721924 16.070000648498535 23.040000915527344 11.520000457763672 23.040000915527344 Z M 11.520000457763672 1 C 5.720000267028809 1 1 5.719999313354492 1 11.519999504089355 C 1 17.31999969482422 7.460000514984131 22.040000915527344 11.520000457763672 22.040000915527344 C 15.580000400543213 22.040000915527344 22.040000915527344 17.229999542236328 22.040000915527344 11.519999504089355 C 22.040000915527344 5.809999465942383 17.320000648498535 1 11.520000457763672 1 Z" fill="#613182"/></g></g><g transform="matrix(1 0 0 1 5.523809909820557 3.2025258541107178)"><path d="M 16.68000030517578 8.340001106262207 C 16.68000030517578 12.946055889129639 12.946054935455322 16.68000030517578 8.34000015258789 16.68000030517578 C 3.733945369720459 16.68000030517578 0 12.946055889129639 0 8.340001106262207 C 0 3.7339463233947754 3.733945369720459 0 8.34000015258789 0 C 12.946054935455322 0 16.68000030517578 3.7339463233947754 16.68000030517578 8.340001106262207 Z" fill="#ffd441"/></g><g transform="matrix(1 0 0 1 18.15326690673828 6.749213218688965)"><path d="M 1.3120335340499878 0.09506848454475403 C 3.662033438682556 1.1450684368610382 6.352035105228424 3.315067768096924 6.542035102844238 7.725067615509033 C 6.582035101950169 8.675067603588104 5.2820338904857635 9.035069286823273 4.822033882141113 8.195069313049316 C 3.752033829689026 6.295069336891174 2.1620335280895233 3.745067834854126 0.23203358054161072 1.5250678062438965 C -0.41796639561653137 0.7850677967071533 0.4120335578918457 -0.3149317502975464 1.3120335340499878 0.08506825566291809 L 1.3120335340499878 0.09506848454475403 Z" fill="#ffffff"/></g></g><g transform="matrix(1 0 0 1 -0.00011190497752977535 41.81138610839844)"><path d="M 0.4992629587650299 3.819263458251953 C 0.31926295161247253 3.819263458251953 0.1492629535496235 3.7192632257938385 0.0592629499733448 3.559263229370117 C -0.07073704525828362 3.319263234734535 0.019262969493865967 3.0092629194259644 0.26926296949386597 2.879262924194336 L 5.559262752532959 0.059263162314891815 C 5.809262752532959 -0.0707368329167366 6.109262585639954 0.019262254238128662 6.239262580871582 0.26926225423812866 C 6.3692625761032104 0.5092622488737106 6.279263019561768 0.8192625641822815 6.029263019561768 0.9492625594139099 L 0.7392629384994507 3.7592639923095703 C 0.65926294028759 3.7992639914155006 0.5792629197239876 3.819263458251953 0.5092629194259644 3.819263458251953 L 0.4992629587650299 3.819263458251953 Z" fill="#613182"/></g><g transform="matrix(1 0 0 1 36.373416900634766 0.00011060410179197788)"><path d="M 0.501487135887146 4.050700664520264 C 0.501487135887146 4.050700664520264 0.41148774698376656 4.050700683146715 0.3614877462387085 4.03070068359375 C 0.09148773550987244 3.9507006853818893 -0.058512408286333084 3.680700808763504 0.021487589925527573 3.410700798034668 L 0.9114869832992554 0.3607006072998047 C 0.991486981511116 0.10070061683654785 1.2614878118038177 -0.0592994000762701 1.5314878225326538 0.020700598135590553 C 1.8014878332614899 0.10070059634745121 1.951487973332405 0.37070056796073914 1.8714879751205444 0.6407005786895752 L 0.9814885854721069 3.6907007694244385 C 0.9214885868132114 3.9107007682323456 0.7214871346950531 4.050700664520264 0.501487135887146 4.050700664520264 Z" fill="#613182"/></g><g transform="matrix(1 0 0 1 51.9570426940918 18.882625579833984)"><path d="M 0.4984380006790161 3.6784372329711914 C 0.28843800723552704 3.6784372329711914 0.09843676723539829 3.548437312245369 0.02843676693737507 3.3484373092651367 C -0.06156323663890362 3.08843731880188 0.06843602657318115 2.7984369695186615 0.328436017036438 2.708436965942383 L 7.868436813354492 0.028436655178666115 C 8.128436803817749 -0.06156334839761257 8.418436199426651 0.06843686103820801 8.50843620300293 0.32843685150146484 C 8.598436206579208 0.5884368419647217 8.46843695640564 0.8784371912479401 8.208436965942383 0.9684371948242188 L 0.6684361696243286 3.6484365463256836 C 0.6084361709654331 3.6684365458786488 0.5584379993379116 3.6784372329711914 0.4984380006790161 3.6784372329711914 Z" fill="#613182"/></g><g transform="matrix(1 0 0 1 3.8282430171966553 1.6214041709899902)"><path d="M 4.178191661834717 5.348191738128662 C 4.03819166123867 5.348191738128662 3.898191548883915 5.288191430270672 3.798191547393799 5.168191432952881 L 0.11819141358137131 0.8281913995742798 C -0.061808593571186066 0.6181914061307907 -0.031808629631996155 0.2981913760304451 0.17819136381149292 0.11819136887788773 C 0.388191357254982 -0.06180863827466965 0.7081913948059082 -0.03180857002735138 0.8881914019584656 0.1781914234161377 L 4.558191299438477 4.518191814422607 C 4.738191306591034 4.7281918078660965 4.708191350102425 5.0481913685798645 4.4981913566589355 5.228191375732422 C 4.408191353082657 5.3081913739442825 4.28819166123867 5.348191738128662 4.178191661834717 5.348191738128662 Z" fill="#613182"/></g></g><g transform="matrix(1 0 0 1 63.90007400512695 103.2633285522461)"><path d="M 5.799999237060547 24.191320419311523 C 5.719999238848686 24.191320419311523 5.650001831352711 24.17131736688316 5.5800018310546875 24.14131736755371 L 0 21.351316452026367 L 1.1899986267089844 0.4713190197944641 C 1.2099986262619495 0.19131901860237122 1.4600012302398682 -0.018682200694456697 1.720001220703125 0.0013177988585084677 C 2.000001221895218 0.021317798411473632 2.2099986262619495 0.2513165771961212 2.1899986267089844 0.5313165783882141 L 1.0400009155273438 20.751317977905273 L 6.029998779296875 23.241323471069336 C 6.279998779296875 23.361323468387127 6.379999995231628 23.66132164001465 6.25 23.91132164001465 C 6.159999996423721 24.091321647167206 5.989999234676361 24.191320419311523 5.799999237060547 24.191320419311523 Z" fill="#613182"/></g><g transform="matrix(1 0 0 1 76.59683227539062 103.27723693847656)"><path d="M 6.209999084472656 21.542638778686523 C 6.149999085813761 21.542638778686523 6.100000914186239 21.542639998719096 6.040000915527344 21.51263999938965 L 0 19.332639694213867 L 0.5999984741210938 0.4826412796974182 C 0.5999984741210938 0.20264127850532532 0.8299989402294159 -0.02736207563430071 1.1199989318847656 0.0026379236951470375 C 1.3999989330768585 0.0026379236951470375 1.6099984738975763 0.24263456463813782 1.5999984741210938 0.5226345658302307 L 1.0200004577636719 18.652639389038086 L 6.369998931884766 20.582639694213867 C 6.6299989223480225 20.672639697790146 6.759998172521591 20.962639093399048 6.6699981689453125 21.222639083862305 C 6.599998168647289 21.422639086842537 6.400000765919685 21.552640914916992 6.200000762939453 21.552640914916992 L 6.209999084472656 21.542638778686523 Z" fill="#613182"/></g><g transform="matrix(1 0 0 1 95.06358337402344 34.74329376220703)"><path d="M 8.106244087219238 20.222566604614258 C 4.806244134902954 20.222566604614258 0.996241956949234 19.022568434476852 0.3462419807910919 18.802568435668945 C 0.08624199032783508 18.712568432092667 -0.06375773064792156 18.432567358016968 0.026242272928357124 18.17256736755371 C 0.11624227650463581 17.912567377090454 0.3962395191192627 17.762567669153214 0.6562395095825195 17.852567672729492 C 3.306239604949951 18.722567677497864 10.506237387657166 20.412569284439087 11.89623737335205 17.84256935119629 C 13.256237387657166 15.332569360733032 7.276244163513184 8.372568368911743 4.856244087219238 5.902568340301514 L 4.666241645812988 5.7025675773620605 L 5.9662370681762695 0.38256776332855225 C 6.036237068474293 0.11256775259971619 6.2962431609630585 -0.047433070838451385 6.5662431716918945 0.012566927820444107 C 6.836243182420731 0.08256692811846733 6.99623828753829 0.35256731510162354 6.9362382888793945 0.6125673055648804 L 5.766240119934082 5.392568111419678 C 7.316240072250366 7.0025681257247925 14.636242270469666 14.882568359375 12.77624225616455 18.302568435668945 C 11.99624228477478 19.742568492889404 10.146244049072266 20.20256996154785 8.106244087219238 20.20256996154785 L 8.106244087219238 20.222566604614258 Z" fill="#613182"/></g><g transform="matrix(0.9905555248260498 -0.13711212575435638 0.1370854526758194 0.9905592203140259 42.02354431152344 57.81156921386719)"><path d="M 4.379999160766602 0 L 29.909997940063477 0 C 32.32900524139404 0 34.290000915527344 1.960993766784668 34.290000915527344 4.380001068115234 L 34.290000915527344 29.90999984741211 C 34.290000915527344 32.329007148742676 32.32900524139404 34.28999710083008 29.909997940063477 34.28999710083008 L 4.379999160766602 34.28999710083008 C 1.9609918594360352 34.28999710083008 0 32.329007148742676 0 29.90999984741211 L 0 4.380001068115234 C 0 1.960993766784668 1.9609918594360352 0 4.379999160766602 0 Z" fill="#613182"/></g><g transform="matrix(1 0 0 1 53.769935607910156 58.71126937866211)"><path d="M 6.4769697189331055 29.464397430419922 C 4.596969723701477 29.464397430419922 2.9569685757160187 28.07440197467804 2.6869685649871826 26.16440200805664 L 0.03696710243821144 6.994399547576904 C -0.103032898157835 5.9843995571136475 0.15696877241134644 4.974401533603668 0.776968777179718 4.164401531219482 C 1.3969687819480896 3.3544015288352966 2.2869675159454346 2.824398174881935 3.3069674968719482 2.6843981742858887 L 22.47696876525879 0.03440042957663536 C 24.5669686794281 -0.24559957161545753 26.49696633219719 1.2143988609313965 26.78696632385254 3.294398784637451 L 29.436967849731445 22.464401245117188 C 29.57696785032749 23.474401235580444 29.31696617603302 24.484399259090424 28.69696617126465 25.29439926147461 C 28.076966166496277 26.104399263858795 27.186967372894287 26.63439880311489 26.166967391967773 26.774398803710938 L 6.996970176696777 29.424396514892578 C 6.81697016954422 29.444396514445543 6.646967589855194 29.464397430419922 6.466967582702637 29.464397430419922 L 6.4769697189331055 29.464397430419922 Z M 22.99696922302246 0.9943994879722595 C 22.866969227790833 0.9943994879722595 22.736966013908386 0.9943983275443316 22.606966018676758 1.0243983268737793 L 3.4369685649871826 3.6743998527526855 C 2.6869685649871826 3.7743998542428017 2.0269680619239807 4.164399981498718 1.5769680738449097 4.764400005340576 C 1.1169680655002594 5.364400029182434 0.9269688352942467 6.104400157928467 1.0269688367843628 6.854400157928467 L 3.676966428756714 26.024398803710938 C 3.886966422200203 27.564398765563965 5.316969156265259 28.654398649930954 6.866969108581543 28.434398651123047 L 26.03696632385254 25.784400939941406 C 26.78696632385254 25.68440093845129 27.44696694612503 25.294400811195374 27.8969669342041 24.694400787353516 C 28.346966922283173 24.094400763511658 28.546966172754765 23.354400634765625 28.44696617126465 22.604400634765625 L 25.796968460083008 3.4343981742858887 C 25.596968457102776 2.0243982076644897 24.386969208717346 0.9943994879722595 22.99696922302246 0.9943994879722595 Z" fill="#6553a3"/></g><g transform="matrix(1 0 0 1 39.140769958496094 28.26877212524414)"><g transform="matrix(1 0 0 1 0 0)"><g transform="matrix(1 0 0 1 9.589457476977259e-7 4.275371551513672)"><g transform="matrix(1 0 0 1 0.7930182218551636 0.8231286406517029)"><path d="M 16.69859504699707 6.881903171539307 C 18.528595089912415 17.601903438568115 1.6585961729288101 20.24190330505371 0.13859619200229645 9.471902847290039 C -1.6914038509130478 -1.2480974197387695 15.178595066070557 -3.8880972862243652 16.69859504699707 6.881903171539307 Z" fill="#ffffff"/></g><g transform="matrix(1 0 0 1 0 0)"><path d="M 8.66388988494873 17.365951538085938 C 7.483889937400818 17.365951538085938 6.303889155387878 17.155952155590057 5.213889122009277 16.7259521484375 C 2.3938891887664795 15.615952134132385 0.5938895046710968 13.245954751968384 0.14388951659202576 10.045954704284668 C -0.39611050486564636 6.875954627990723 0.5938887596130371 4.065952897071838 2.9438886642456055 2.1459529399871826 C 5.573888778686523 0.0059528350830078125 9.463888883590698 -0.6040473580360413 12.623888969421387 0.6359526515007019 C 15.443888902664185 1.7359526753425598 17.24388962984085 4.105952501296997 17.693889617919922 7.305952548980713 C 18.233889639377594 10.495952606201172 17.243889331817627 13.295952677726746 14.893889427185059 15.205952644348145 C 13.173889398574829 16.605952620506287 10.91388988494873 17.355953216552734 8.66388988494873 17.355953216552734 L 8.66388988494873 17.365951538085938 Z M 9.153887748718262 1.0059535503387451 C 7.143887758255005 1.0059535503387451 5.113889694213867 1.6759538650512695 3.57388973236084 2.9359538555145264 C 1.5138897895812988 4.615953803062439 0.643889307975769 7.0859534740448 1.1338893175125122 9.905953407287598 C 1.5338893234729767 12.74595332145691 3.1138899326324463 14.845954954624176 5.583889961242676 15.805954933166504 C 8.41388988494873 16.91595494747162 11.903888463973999 16.375954270362854 14.263888359069824 14.445954322814941 C 16.323888301849365 12.765954375267029 17.193891763687134 10.295952558517456 16.70389175415039 7.475952625274658 C 16.303891748189926 4.635952711105347 14.72389006614685 2.5359532237052917 12.253890037536621 1.5759532451629639 C 11.273890018463135 1.1959532499313354 10.213887691497803 1.0059535503387451 9.153887748718262 1.0059535503387451 Z" fill="#6553a3"/></g></g><g transform="matrix(1 0 0 1 27.362873077392578 -5.067981874162797e-7)"><g transform="matrix(1 0 0 1 0.7930154204368591 0.8231284618377686)"><path d="M 16.698596954345703 6.881903171539307 C 18.528596997261047 17.601903438568115 1.658596158027649 20.24190330505371 0.13859617710113525 9.471902847290039 C -1.691403865814209 -1.2480974197387695 15.17859697341919 -3.8880972862243652 16.698596954345703 6.881903171539307 Z" fill="#ffffff"/></g><g transform="matrix(1 0 0 1 0 0)"><path d="M 8.66388988494873 17.36595344543457 C 7.483889937400818 17.36595344543457 6.303889155387878 17.15595406293869 5.213889122009277 16.725954055786133 C 2.3938891887664795 15.615954041481018 0.5938895046710968 13.245952844619751 0.14388951659202576 10.045952796936035 C -0.39611050486564636 6.87595272064209 0.5938887596130371 4.065951466560364 2.9438886642456055 2.145951509475708 C 5.573888778686523 0.005951404571533203 9.463888883590698 -0.6040468215942383 12.623888969421387 0.6359531879425049 C 15.443888902664185 1.7359532117843628 17.24388962984085 4.1159515380859375 17.693889617919922 7.3059515953063965 C 18.233889639377594 10.485951662063599 17.243889331817627 13.295952677726746 14.893889427185059 15.205952644348145 C 13.173889398574829 16.605952620506287 10.91388988494873 17.3559513092041 8.66388988494873 17.3559513092041 L 8.66388988494873 17.36595344543457 Z M 9.153887748718262 1.0059521198272705 C 7.143887758255005 1.0059521198272705 5.113889694213867 1.675952434539795 3.57388973236084 2.9359524250030518 C 1.5138897895812988 4.615952372550964 0.6438874006271362 7.085951566696167 1.1338874101638794 9.905951499938965 C 1.5338874161243439 12.745951414108276 3.1138880252838135 14.84595113992691 5.583888053894043 15.805951118469238 C 8.413887977600098 16.915951132774353 11.903888463973999 16.37595045566559 14.263888359069824 14.445950508117676 C 16.323888301849365 12.765950560569763 17.193891763687134 10.29595160484314 16.70389175415039 7.475951671600342 C 16.303891748189926 4.63595175743103 14.72389006614685 2.535951793193817 12.253890037536621 1.5759518146514893 C 11.273890018463135 1.1959518194198608 10.213887691497803 1.0059521198272705 9.153887748718262 1.0059521198272705 Z" fill="#6553a3"/></g></g></g><g transform="matrix(1 0 0 1 5.334234237670898 6.763402938842773)"><g transform="matrix(1 0 0 1 27.362873077392578 -1.0593114296852946e-7)"><g transform="matrix(1 0 0 1 0 0)"><path d="M 3.692296266555786 2.6921589374542236 C 4.3722962737083435 6.812158823013306 0.552294060587883 7.012158393859863 0.09229405224323273 3.2521584033966064 C -0.6277059763669968 -0.4578416347503662 3.0822962522506714 -1.447840929031372 3.692296266555786 2.6921589374542236 Z" fill="#613182"/></g><g transform="matrix(1 0 0 1 0.05170721560716629 4.062841892242432)"><path d="M 1.6199989318847656 0.4748854339122772 C 1.6799989305436611 0.834885448217392 1.0399990677833557 1.2448853105306625 0.20999908447265625 1.384885311126709 C 0.08999908715486526 0.9548853039741516 0.009999999776482582 0.4648868106305599 0 0.03488680347800255 C 0.8399999737739563 -0.08511319383978844 1.5699972547590733 0.11488541960716248 1.6299972534179688 0.4748854339122772 L 1.6199989318847656 0.4748854339122772 Z" fill="#ffffff"/></g></g><g transform="matrix(1 0 0 1 -7.34505221089421e-8 4.27537202835083)"><g transform="matrix(1 0 0 1 0 0)"><path d="M 3.6922926902770996 2.6921589374542236 C 4.372292697429657 6.812158823013306 0.5522941425442696 7.012158393859863 0.0922941341996193 3.2521584033966064 C -0.6277058944106102 -0.4578416347503662 3.082292675971985 -1.447840929031372 3.6922926902770996 2.6921589374542236 Z" fill="#613182"/></g><g transform="matrix(1 0 0 1 0.06771638244390488 4.0468292236328125)"><path d="M 1.6200008392333984 0.4748854339122772 C 1.680000837892294 0.834885448217392 1.0400009751319885 1.2448853105306625 0.21000099182128906 1.384885311126709 C 0.09000099450349808 0.9548853039741516 0.009999999776482582 0.4648868106305599 0 0.03488680347800255 C 0.8399999737739563 -0.08511319383978844 1.5700010694563389 0.11488541960716248 1.6300010681152344 0.4748854339122772 L 1.6200008392333984 0.4748854339122772 Z" fill="#ffffff"/></g></g></g></g><g transform="matrix(1 0 0 1 67.18233489990234 69.44677734375)"><path d="M 0 0.4099998474121094 L 2.979999542236328 0 L 4.8600006103515625 13.5 L 13.240001678466797 12.34000015258789 L 13.59000015258789 14.860000610351562 L 2.240001678466797 16.44000244140625 L 0.01000213623046875 0.4200019836425781 L 0 0.4099998474121094 Z" fill="#ffffff"/></g><g transform="matrix(1 0 0 1 62.62252426147461 58.70993423461914)"><path d="M 0.45791712403297424 0.9952330589294434 C 2.0879171192646027 0.06523305177688599 9.547919034957886 -0.44476646184921265 10.787919044494629 0.5152335166931152 C 12.027919054031372 1.4752334952354431 9.34791898727417 4.465233206748962 6.197918891906738 4.835233211517334 C 3.0479187965393066 5.205233216285706 -1.472080796957016 2.105233073234558 0.467919260263443 0.9952330589294434 L 0.45791712403297424 0.9952330589294434 Z" fill="#ffd441"/></g><g transform="matrix(1 0 0 1 32.9658203125 72.13221740722656)"><path d="M 5.300572872161865 31.382923126220703 C 5.300572872161865 31.382923126220703 5.260573405772448 31.382923126220703 5.240573406219482 31.382923126220703 C 4.970573395490646 31.342923127114773 4.770573101937771 31.09292557835579 4.810573101043701 30.822925567626953 L 5.4305739402771 25.982921600341797 C 4.330573916435242 24.28292155265808 0.07057341164909303 17.622923612594604 0.000573411351069808 16.152923583984375 C -0.06942658894695342 14.622923612594604 6.2905731201171875 2.6529237926006317 7.560573101043701 0.2629236876964569 C 7.69057309627533 0.02292369306087494 7.990572929382324 -0.06707921251654625 8.240572929382324 0.052920784801244736 C 8.480572924017906 0.18292078003287315 8.580573916435242 0.4829210638999939 8.450573921203613 0.7329210638999939 C 4.840574026107788 7.482921063899994 1.0105736255645752 15.162924349308014 1.0105736255645752 16.102924346923828 C 1.0505736246705055 16.962924361228943 3.810572862625122 21.632922172546387 6.38057279586792 25.59292221069336 L 6.4805731773376465 25.742923736572266 L 5.810573101043701 30.952922821044922 C 5.780573101714253 31.202922821044922 5.560573101043701 31.392925262451172 5.310573101043701 31.392925262451172 L 5.300572872161865 31.382923126220703 Z" fill="#613182"/></g></g></g></svg>
