<svg width="36" height="36" viewBox="0 0 36 36" fill="none" xmlns="http://www.w3.org/2000/svg">
<path d="M24 21C25.9891 21 27.8968 21.7902 29.3033 23.1967C30.7098 24.6032 31.5 26.5109 31.5 28.5V30C31.5 30.7956 31.1839 31.5587 30.6213 32.1213C30.0587 32.6839 29.2956 33 28.5 33H7.5C6.70435 33 5.94129 32.6839 5.37868 32.1213C4.81607 31.5587 4.5 30.7956 4.5 30V28.5C4.5 26.5109 5.29018 24.6032 6.6967 23.1967C8.10322 21.7902 10.0109 21 12 21H24ZM32.121 13.6215C32.3903 13.3496 32.7534 13.191 33.1358 13.178C33.5183 13.165 33.8912 13.2987 34.1784 13.5517C34.4655 13.8047 34.6451 14.1579 34.6803 14.5389C34.7156 14.92 34.6038 15.3001 34.368 15.6015L34.242 15.744L30 19.986C29.7417 20.2443 29.3981 20.3994 29.0335 20.4223C28.669 20.4453 28.3086 20.3344 28.02 20.1105L27.879 19.986L25.758 17.865C25.4861 17.5957 25.3274 17.2326 25.3145 16.8502C25.3015 16.4677 25.4352 16.0947 25.6882 15.8076C25.9412 15.5205 26.2944 15.3409 26.6754 15.3057C27.0565 15.2704 27.4366 15.3822 27.738 15.618L27.879 15.744L28.9395 16.8045L32.121 13.6215ZM18 3C19.9891 3 21.8968 3.79018 23.3033 5.1967C24.7098 6.60322 25.5 8.51088 25.5 10.5C25.5 12.4891 24.7098 14.3968 23.3033 15.8033C21.8968 17.2098 19.9891 18 18 18C16.0109 18 14.1032 17.2098 12.6967 15.8033C11.2902 14.3968 10.5 12.4891 10.5 10.5C10.5 8.51088 11.2902 6.60322 12.6967 5.1967C14.1032 3.79018 16.0109 3 18 3Z" fill="#29235C"/>
</svg>
