<svg width="520" height="846" viewBox="0 0 520 846" fill="none" xmlns="http://www.w3.org/2000/svg">
<g opacity="0.1">
<path d="M46.3982 441.533C44.0747 441.998 41.5651 441.534 39.7523 439.722L8.19126 412.451L2.3375 419.423C-0.403561 422.63 -5.37592 423.143 -8.62967 420.169L-29.9647 401.725C-33.1719 398.984 -33.6843 394.012 -30.7109 390.758L13.2391 339.907C15.9801 336.7 20.9525 336.188 24.2063 339.161L82.959 389.987C86.1662 392.728 86.6786 397.7 83.7052 400.954L50.766 439.208C49.558 440.417 48.0246 441.207 46.3982 441.533ZM8.05108 409.337L41.3319 437.956C43.6559 439.907 47.0018 439.721 48.9531 437.396L81.8924 399.142C83.8436 396.818 83.6569 393.472 81.3329 391.521L22.5801 340.695C20.2561 338.744 16.9101 338.93 14.9589 341.254L-29.177 392.384C-31.1282 394.708 -30.9415 398.054 -28.6175 400.005L-7.28241 418.45C-4.95835 420.401 -1.61241 420.214 0.33884 417.89L8.05108 409.337Z" fill="#684B99"/>
<path d="M7.76466 377.737C7.53231 377.783 7.02108 377.644 6.74221 377.458C6.18446 377.086 6.27722 376.343 6.64886 375.785L22.5378 357.378L17.8431 353.243C17.2853 352.872 17.3781 352.128 17.7498 351.571C18.1214 351.013 18.865 351.106 19.4227 351.477L25.8837 357.192L8.41518 377.365C8.18283 377.411 7.997 377.69 7.76466 377.737Z" fill="#684B99"/>
<path d="M4.37291 380.108L4.23245 375.786L3.81311 371.278L8.50776 375.413L13.1559 379.315L8.88058 379.688L4.37291 380.108Z" fill="#684B99"/>
<path d="M318.424 742.787L316.844 742.137L217.292 704.798L218.268 703.636C275.735 626.153 337.362 651.512 337.92 651.884L338.199 652.07L413.031 701.126L408.104 700.662C374.737 696.953 349.829 701.699 334.125 714.994C319.814 726.801 318.656 741.533 318.424 741.579L318.424 742.787ZM221.195 703.775L316.332 739.581C316.935 735.352 320.046 723.13 332.498 712.903C348.016 699.887 371.901 694.862 403.642 697.689L336.945 654.254C334.296 653.093 276.433 630.847 221.195 703.775Z" fill="#684B99"/>
<path d="M100.146 744.93L218.569 796.857C218.569 796.857 258.892 736.341 317.494 741.764L219.244 704.889C219.244 704.889 157.014 688.593 100.146 744.93Z" fill="#684B99"/>
<path d="M257.035 742.758C256.57 742.851 256.105 742.945 255.362 742.852C253.41 742.759 251.644 742.388 250.017 741.505C249.738 741.32 249.227 741.18 248.995 741.227C248.995 741.227 248.809 741.506 248.577 741.552L246.625 743.876C246.254 744.434 245.51 744.341 244.952 743.97C244.395 743.598 244.488 742.854 244.859 742.297L246.81 739.973C247.229 739.647 247.6 739.089 248.251 738.717C249.366 738.252 250.203 738.81 250.993 739.135C252.341 739.832 253.874 740.25 255.315 740.203C255.779 740.11 256.988 740.11 257.592 739.505C257.778 739.226 257.917 738.715 258.056 738.204C258.335 737.181 258.753 735.648 260.379 735.322C261.076 735.183 261.82 735.275 262.377 735.647C262.656 735.833 262.889 735.786 263.121 735.74C263.353 735.693 263.493 735.182 263.911 734.857C264.282 734.299 264.422 733.788 265.026 733.183C265.816 732.3 267.024 732.3 267.953 732.114L275.481 731.089C276.178 730.95 276.783 731.554 276.876 732.019C277.015 732.716 276.411 733.32 275.947 733.413L268.418 734.437C267.721 734.577 267.024 734.716 266.839 734.995C266.653 735.274 266.467 735.553 266.281 735.832C265.956 736.622 265.213 737.737 264.051 737.97C263.354 738.11 262.61 738.017 262.053 737.645C261.774 737.459 261.541 737.506 261.309 737.553C261.077 737.599 260.984 738.343 260.845 738.854C260.705 739.365 260.38 740.155 260.055 740.945C259.079 742.107 258.197 742.526 257.035 742.758Z" fill="#602B7A"/>
<path d="M215.126 778.456C214.894 778.502 214.661 778.549 214.383 778.363C213.825 777.991 213.453 777.341 213.824 776.783C215.357 773.576 217.448 770.741 219.91 768.556C220.096 768.277 220.747 767.905 221.723 767.951C222.234 768.091 222.513 768.276 222.745 768.23C223.256 768.369 223.953 768.23 224.371 767.904C224.79 767.579 225.161 767.021 225.533 766.463C225.719 766.184 225.905 765.906 226.09 765.627C227.019 764.232 228.32 763.488 229.482 763.256C229.715 763.209 230.226 763.349 230.458 763.302C230.69 763.256 230.923 763.209 230.969 763.441C231.109 762.93 231.294 762.651 231.992 762.512C232.689 762.372 233.246 762.744 233.386 763.441C233.479 763.905 233.34 764.417 233.2 764.928C232.829 765.486 232.178 765.858 231.481 765.997C231.016 766.09 230.738 765.904 230.273 765.998C230.041 766.044 230.041 766.044 229.762 765.858C229.065 765.998 228.461 766.602 228.089 767.16C227.903 767.439 227.717 767.718 227.532 767.996C227.16 768.554 226.602 769.391 225.998 769.995C224.976 770.925 223.211 771.762 221.584 770.879C219.121 773.064 217.217 775.62 216.055 778.27C215.823 778.316 215.591 778.363 215.126 778.456ZM221.955 769.113L221.444 770.182C221.677 770.136 221.677 770.136 221.677 770.136L221.955 769.113Z" fill="#602B7A"/>
<path d="M207.458 775.159C207.226 775.206 207.226 775.206 206.947 775.02C206.435 774.881 205.831 774.277 206.156 773.487C206.992 770.419 208.292 767.259 209.918 764.517C210.801 762.89 212.148 762.379 213.403 762.611C213.682 762.796 213.961 762.982 214.193 762.936C214.193 762.936 214.24 763.168 214.472 763.122C214.705 763.075 214.983 763.261 215.634 762.889C217.121 761.866 218.515 760.379 219.165 758.799C219.49 758.008 220.001 756.939 221.116 756.474C221.581 756.381 222.278 756.242 222.836 756.614C223.114 756.799 223.393 756.985 223.44 757.217C223.765 757.636 224.23 757.543 224.927 757.403C225.624 757.263 226.553 757.077 227.157 756.473C227.761 755.869 227.854 755.125 227.761 754.66C227.621 753.963 227.761 753.452 228.411 753.08C229.108 752.941 229.62 753.08 229.992 753.731C230.503 755.078 230.132 756.844 228.924 758.053C228.134 758.936 226.786 759.447 225.16 759.773C223.301 760.145 222.186 759.402 221.86 758.984C221.674 759.263 221.674 759.263 221.535 759.774C220.792 762.098 218.98 763.911 217.029 765.026C215.542 766.049 214.287 765.817 213.729 765.445C213.45 765.26 213.45 765.26 213.171 765.074L212.893 764.888C212.893 764.888 212.474 765.213 212.335 765.725C210.709 768.467 209.548 771.116 208.712 774.183C208.108 774.788 207.923 775.066 207.458 775.159Z" fill="#602B7A"/>
<path d="M248.668 733.556C248.203 733.649 247.971 733.696 247.459 733.556C246.251 733.557 244.95 733.092 243.695 732.86C242.44 732.628 241.418 732.35 240.209 732.35C238.258 732.257 235.934 732.723 235.052 734.349C234.68 734.907 233.983 735.047 233.425 734.675C232.867 734.303 232.728 733.606 233.099 733.049C234.725 730.306 237.978 729.655 240.441 729.887C241.65 729.887 242.951 730.351 244.206 730.583C245.46 730.815 246.483 731.094 247.459 731.14C247.924 731.047 247.923 731.047 247.923 731.047C247.923 731.047 248.109 730.768 248.295 730.489C248.853 729.652 249.41 728.816 249.968 727.979C250.572 727.375 251.129 726.538 252.058 726.352C252.709 725.98 253.685 726.026 254.243 726.398C254.428 726.119 254.614 725.84 254.8 725.561C255.172 725.004 255.822 724.632 256.38 725.003C256.938 725.375 257.31 726.026 256.938 726.583C256.381 727.42 255.823 728.257 254.94 728.675L253.871 729.372L253.174 728.304C253.174 728.304 252.942 728.35 252.709 728.397C252.245 728.49 252.105 729.001 251.687 729.326C251.083 729.931 250.758 730.721 250.433 731.511C250.294 732.022 249.922 732.58 249.272 732.952C249.365 733.417 249.132 733.463 248.668 733.556Z" fill="#602B7A"/>
<path d="M189.238 763.824C189.005 763.871 189.005 763.871 189.238 763.824C188.541 763.964 187.983 763.592 187.843 762.895C187.424 759.596 189.422 756.296 192.349 755.226C193.465 754.761 194.673 754.761 195.835 754.529C197.043 754.528 198.205 754.296 199.087 753.877C199.97 753.459 200.76 752.575 201.55 751.692C202.526 750.53 203.501 749.368 205.081 748.81C205.964 748.392 206.94 748.438 208.102 748.205C209.31 748.205 210.239 748.019 210.843 747.415C211.261 747.089 211.587 746.299 211.912 745.509C212.423 744.44 212.887 743.139 214.188 742.395C215.489 741.651 216.744 741.883 217.766 742.162C218.277 742.301 218.742 742.208 219.253 742.347C220.694 742.3 222.134 741.045 222.32 739.558C222.413 738.815 223.063 738.443 223.574 738.582C224.318 738.675 224.69 739.325 224.551 739.836C224.086 742.346 221.856 744.484 219.207 744.531C218.51 744.671 217.999 744.532 217.256 744.439C216.28 744.393 215.536 744.3 215.071 744.393C214.421 744.765 214.096 745.555 213.771 746.345C213.446 747.135 212.935 748.204 212.145 749.087C210.89 750.064 209.264 750.389 208.056 750.39C207.359 750.529 206.383 750.483 205.732 750.855C204.849 751.273 204.06 752.156 203.037 753.086C202.248 753.969 201.272 755.131 199.971 755.875C198.67 756.619 197.229 756.666 195.789 756.713C194.813 756.666 193.883 756.853 193 757.271C190.956 757.922 189.748 760.339 189.935 762.477C190.074 763.174 189.703 763.731 189.238 763.824Z" fill="#602B7A"/>
<path d="M237.373 723.009L237.141 723.055C236.165 723.009 235.561 722.405 235.235 721.987C235.235 721.987 235.189 721.755 234.956 721.801C234.631 721.383 233.702 721.569 232.633 722.266L229.334 723.894C228.683 724.266 228.125 723.894 227.8 723.476C227.428 722.825 227.8 722.268 228.218 721.942L231.517 720.315C233.701 719.153 235.374 719.059 236.582 720.267C236.629 720.5 236.861 720.453 236.908 720.685L237.14 720.639C237.698 719.802 238.766 719.105 239.975 719.105C240.672 718.965 241.276 719.569 241.137 720.08C241.276 720.777 240.672 721.382 240.161 721.242C239.696 721.335 239.232 721.428 239.092 721.94C238.674 722.265 238.07 722.869 237.373 723.009Z" fill="#602B7A"/>
<path d="M166.93 759.83C166.233 759.97 165.675 759.598 165.535 758.901C165.024 756.345 165.674 753.557 167.439 751.512C169.251 749.699 171.946 748.676 174.688 749.094L174.967 749.279C175.246 749.465 175.71 749.372 175.943 749.326C176.407 749.233 176.779 748.675 177.151 748.117L177.337 747.838C180.078 744.631 184.027 742.632 188.117 742.538C188.581 742.445 188.86 742.631 189.046 742.352C189.278 742.305 189.418 741.794 189.604 741.515L189.789 741.236C191.322 738.029 194.761 735.891 198.2 736.169L198.711 736.308C199.222 736.447 199.919 736.308 200.151 736.261C200.616 736.168 200.941 735.378 201.266 734.588C201.591 733.798 202.149 732.961 202.985 732.31C204.426 731.055 206.424 731.38 208.143 731.519C209.398 731.751 210.374 731.797 211.304 731.611C211.954 731.239 212.326 730.682 212.93 730.077C213.116 729.798 213.348 729.752 213.534 729.473C215.903 726.824 219.249 725.429 222.641 725.474L222.92 724.452C223.059 723.941 223.71 723.569 224.453 723.661C224.964 723.801 225.336 724.451 225.244 725.195L224.361 728.03L223.385 727.984C220.411 727.612 217.251 728.729 215.068 731.099C214.882 731.378 214.649 731.425 214.464 731.703C213.906 732.54 213.116 733.423 212.001 733.888C210.468 734.679 208.934 734.261 207.447 734.075C205.96 733.89 204.937 733.611 204.333 734.215C203.915 734.541 203.544 735.099 203.218 735.889C202.708 736.958 202.197 738.027 200.849 738.538C199.966 738.957 198.99 738.91 198.247 738.818L197.735 738.678C195.272 738.447 192.717 740.167 191.695 742.305L191.509 742.583C191.184 743.373 190.859 744.164 189.976 744.582C189.326 744.954 188.629 745.094 188.117 744.954C184.539 745.188 181.24 746.815 178.871 749.464C178.081 750.347 177.291 751.231 176.129 751.463C175.432 751.603 174.921 751.464 174.41 751.324L174.177 751.371C172.411 750.999 170.367 751.651 169.205 753.091C168.044 754.532 167.44 756.345 167.812 758.204C167.998 759.133 167.627 759.691 166.93 759.83Z" fill="#602B7A"/>
<path d="M143.784 748.034C143.32 748.127 143.041 747.941 142.762 747.755C142.204 747.383 142.297 746.64 142.669 746.082L146.293 742.456C146.711 742.131 147.686 740.969 148.988 741.433C149.499 741.573 149.824 741.991 150.103 742.177C150.103 742.177 150.15 742.409 150.382 742.362C150.708 742.781 151.59 742.362 152.473 741.944C153.774 741.2 154.75 740.038 155.726 738.876C156.515 737.992 157.537 737.063 158.327 736.18C160.418 734.553 163.531 733.204 166.181 734.365C166.506 733.575 166.784 732.553 167.063 731.53L167.248 730.043L168.55 730.508C169.851 730.972 171.57 729.903 173.011 728.648C174.916 727.3 177.239 725.626 179.841 726.555L180.12 726.741L180.399 726.926C180.399 726.926 180.585 726.648 180.817 726.601L184.488 723.208C184.906 722.882 185.696 721.999 186.904 721.999C187.648 722.092 188.159 722.231 188.717 722.603L188.995 722.788C190.343 723.485 192.248 722.137 193.085 721.486C193.27 721.207 193.689 720.882 193.921 720.835C195.175 719.859 196.383 718.651 198.242 718.278C200.101 717.906 201.867 718.277 203.68 718.881C205.213 719.299 206.515 719.763 207.909 719.484C209.303 719.205 210.325 718.275 211.533 717.067C212.973 715.812 214.832 714.231 217.248 714.231C217.992 714.323 218.735 714.416 219.479 714.509C219.99 714.648 220.501 714.788 220.966 714.695C221.431 714.601 221.896 714.508 222.081 714.23C221.942 713.532 222.267 712.742 222.732 712.649C223.429 712.51 223.94 712.649 224.312 713.3C224.684 713.95 224.405 714.972 224.033 715.53C223.476 716.367 222.175 717.111 220.967 717.111C220.223 717.018 219.48 716.925 218.736 716.833C218.225 716.693 217.714 716.554 217.249 716.647C215.808 716.694 214.554 717.67 213.113 718.925C211.673 720.18 210.465 721.389 208.606 721.761C206.748 722.133 204.982 721.762 203.169 721.158C201.635 720.741 200.102 720.323 198.94 720.555C197.778 720.788 196.756 721.718 195.734 722.647C195.316 722.973 195.13 723.252 194.712 723.577C192.435 725.483 190.112 725.948 188.252 725.112C188.02 725.159 187.974 724.926 187.695 724.74C187.416 724.555 187.137 724.369 187.137 724.369C186.905 724.415 186.486 724.741 186.301 725.02L182.63 728.413C182.212 728.738 181.608 729.343 180.864 729.25C180.167 729.389 179.61 729.018 179.331 728.832L179.052 728.646C177.751 728.182 176.45 728.926 174.545 730.274C172.825 731.343 171.153 732.645 169.201 732.552C168.969 733.807 168.458 734.876 167.715 735.992L166.971 737.107L165.856 736.364C164.183 735.249 161.209 736.086 159.582 737.62C158.746 738.271 157.956 739.154 157.166 740.037C155.958 741.246 154.983 742.408 153.496 743.43C151.777 744.5 149.871 744.64 148.709 743.664C148.663 743.432 148.431 743.478 148.384 743.246C148.384 743.246 148.384 743.246 148.337 743.013C148.337 743.013 148.152 743.292 147.919 743.339L144.295 746.965C144.249 747.941 144.017 747.987 143.784 748.034Z" fill="#602B7A"/>
<path d="M209.254 711.722C209.021 711.768 208.789 711.815 208.557 711.862C207.813 711.769 207.255 711.397 206.976 711.211C205.814 710.236 204.095 710.097 202.794 710.841C202.561 710.887 202.376 711.166 202.376 711.166C201.725 711.538 201.075 711.91 200.145 712.096C198.937 712.096 197.821 711.353 196.985 710.796C196.706 710.61 196.427 710.424 196.148 710.238C194.196 708.937 191.315 710.239 189.736 712.006L189.55 712.284C188.76 713.168 187.97 714.051 186.576 714.33C185.647 714.516 184.81 713.959 184.02 713.633C183.741 713.448 183.509 713.494 183.462 713.262C182.672 712.937 181.464 712.937 180.627 713.588C179.791 714.239 178.955 714.889 178.909 715.865C178.816 716.609 178.165 716.981 177.422 716.888C176.678 716.795 176.306 716.145 176.399 715.401C176.817 713.867 177.746 712.473 179.279 711.683C180.813 710.892 182.718 710.752 184.066 711.449C184.345 711.635 184.577 711.589 184.856 711.774C185.367 711.914 185.693 712.332 186.157 712.239C186.622 712.146 187.226 711.541 187.598 710.984L187.783 710.705C189.967 708.334 194.01 706.8 197.031 708.611C197.31 708.797 197.589 708.983 197.914 709.401C198.472 709.773 199.029 710.144 199.541 710.284C199.773 710.237 200.238 710.144 200.656 709.819C200.888 709.772 201.074 709.493 201.306 709.447C203.49 708.284 206.186 708.47 207.952 710.049C208.231 710.235 208.277 710.467 208.51 710.421C208.51 710.421 208.51 710.421 208.696 710.142C210.368 708.84 212.506 707.446 214.644 708.468C215.201 708.839 215.573 709.49 215.202 710.047C214.83 710.605 214.179 710.977 213.622 710.606C212.553 710.095 211.298 711.071 210.044 712.047C210.136 711.304 209.718 711.629 209.254 711.722Z" fill="#602B7A"/>
<path d="M130.306 741.067C129.841 741.16 129.051 740.835 128.958 740.37C127.284 735.631 128.538 733.446 130.072 732.656C131.791 731.586 133.557 731.958 135.09 732.376C136.113 732.654 137.368 732.886 138.018 732.514C138.948 732.328 139.505 731.492 140.295 730.608C141.085 729.725 141.874 728.842 142.943 728.145C144.058 727.68 145.452 727.401 146.661 727.4C148.334 727.307 149.263 727.121 149.867 726.517C150.053 726.238 150.192 725.726 150.378 725.448C150.564 725.169 150.703 724.657 150.889 724.379C151.586 723.031 152.84 722.054 154.42 721.496C156 720.938 157.534 721.356 158.881 722.053L159.16 722.239C159.439 722.425 159.718 722.61 159.718 722.61C159.95 722.564 160.276 721.774 160.229 721.542L160.415 721.263C161.715 718.102 165.479 716.382 168.732 716.939C169.476 717.031 169.848 717.682 169.755 718.426C169.662 719.169 169.012 719.541 168.268 719.448C165.991 718.938 163.575 720.147 162.553 722.285L162.367 722.563C162.088 723.586 161.392 724.934 159.719 725.027C158.789 725.213 157.953 724.656 157.627 724.237L157.348 724.052C156.558 723.727 155.815 723.634 154.885 723.82C153.956 724.006 153.352 724.61 153.027 725.4C152.841 725.679 152.888 725.912 152.702 726.19C152.562 726.702 152.237 727.492 151.866 728.05C150.518 729.769 148.613 729.909 146.94 730.003C145.964 729.956 144.802 730.189 144.152 730.561C143.501 730.933 142.897 731.537 142.108 732.42C141.364 733.536 140.389 734.698 138.762 735.024C137.415 735.535 135.881 735.117 134.626 734.885C133.371 734.653 132.349 734.375 131.466 734.793C130.212 735.769 130.723 738.325 131.282 739.905C131.328 740.137 130.956 740.695 130.306 741.067Z" fill="#602B7A"/>
<path d="M329.333 691.063L329.101 691.11C328.357 691.017 328.032 690.599 327.892 689.902C328.123 686.231 331.794 684.045 335.419 684.045L335.884 683.952C336.627 684.044 337.092 683.951 337.557 683.858C337.975 683.533 338.393 683.207 338.95 682.371C339.508 681.534 340.298 680.651 341.645 680.139C342.761 679.674 344.062 680.139 345.038 680.185C346.06 680.464 346.804 680.556 346.99 680.278C347.222 680.231 347.175 679.999 347.315 679.487C347.501 679.209 347.64 678.697 348.058 678.372C349.08 677.442 350.428 676.931 352.194 677.302C352.426 677.256 352.705 677.441 353.216 677.581C353.96 677.673 354.471 677.813 355.215 677.906C355.679 677.812 356.33 677.441 357.027 677.301C357.445 676.976 358.142 676.836 358.793 676.464C359.908 675.999 361.395 676.185 362.278 676.974C363.115 677.532 363.487 678.182 363.44 679.158C363.348 679.902 362.976 680.46 362.232 680.367C361.489 680.274 361.163 679.856 361.024 679.159C360.466 678.787 359.955 678.648 359.49 678.741C359.025 678.834 358.607 679.159 358.143 679.252C357.492 679.624 356.609 680.043 355.68 680.229C354.75 680.415 353.728 680.136 352.984 680.044C352.752 680.09 352.473 679.904 352.241 679.951C351.265 679.905 350.521 679.812 350.382 680.323C350.196 680.602 350.196 680.602 350.01 680.881C349.871 681.392 349.5 681.95 349.081 682.275C347.873 683.484 346.107 683.113 344.853 682.88C344.109 682.788 343.319 682.463 342.854 682.556C342.389 682.649 341.786 683.253 341.46 684.043C340.903 684.88 340.345 685.716 339.23 686.181C338.347 686.6 337.371 686.554 336.396 686.507L335.931 686.6C333.514 686.601 330.912 688.089 330.82 690.041C330.402 690.366 330.03 690.924 329.333 691.063Z" fill="#684B99"/>
<path d="M292.347 718.765C292.115 718.812 292.115 718.812 291.883 718.858C291.139 718.766 290.767 718.115 290.86 717.371L291.603 713.839C291.788 712.352 292.485 709.796 294.715 708.866C296.063 708.355 297.271 708.354 298.293 708.633C299.037 708.726 300.013 708.772 300.478 708.679C301.36 708.26 302.15 707.377 302.893 706.262C303.637 705.146 304.566 703.752 306.099 702.961C307.214 702.496 308.423 702.496 309.352 702.31C309.584 702.264 310.049 702.17 310.328 702.356C311.257 702.17 312.187 701.984 312.512 701.194C312.698 700.915 312.651 700.683 312.558 700.218C312.465 699.753 312.604 699.242 312.79 698.963C313.208 697.43 314.416 696.221 316.182 695.384C317.529 694.873 318.97 694.826 320.411 694.779C321.154 694.872 321.48 695.29 321.619 695.987C321.526 696.73 321.108 697.056 320.411 697.196C319.203 697.196 317.995 697.196 317.112 697.615C316.229 698.033 315.393 698.684 315.3 699.427C315.346 699.66 315.161 699.939 315.207 700.171C315.068 700.682 315.207 701.379 314.836 701.937C314.139 703.285 312.652 704.308 310.747 704.447C310.514 704.494 310.05 704.587 309.771 704.401C308.795 704.355 308.098 704.495 307.447 704.866C306.564 705.285 305.775 706.168 305.264 707.237C304.335 708.631 303.406 710.026 301.593 710.63C300.478 711.095 299.456 710.817 298.48 710.771C297.504 710.724 296.76 710.632 296.11 711.004C294.995 711.468 294.577 713.002 294.391 714.489L293.648 718.021C292.998 718.393 292.812 718.672 292.347 718.765Z" fill="#684B99"/>
<path d="M316.921 682.19C316.457 682.283 315.666 681.958 315.573 681.493C315.434 680.796 315.573 680.285 316.224 679.913C316.874 679.541 317.71 678.891 318.268 678.054C319.244 676.892 320.451 675.683 322.124 675.59C322.821 675.45 323.565 675.543 324.123 675.915C324.634 676.054 324.866 676.008 325.378 676.147C326.354 676.193 327.329 675.031 327.933 674.427C328.119 674.148 328.491 673.59 328.676 673.311C329.234 672.475 329.791 671.638 330.581 670.755C331.789 669.546 334.066 668.849 335.739 669.964C335.972 669.917 336.018 670.149 336.297 670.335L336.576 670.521C336.576 670.521 337.087 670.66 337.97 669.034C338.527 668.197 339.735 666.988 340.943 666.988C341.64 666.849 342.431 667.174 342.803 667.824C343.081 668.01 343.128 668.242 343.174 668.475L343.221 668.707C343.221 668.707 343.221 668.707 343.453 668.66C344.894 668.614 346.195 667.87 347.264 667.172C347.682 666.847 348.425 666.94 348.983 667.311C349.309 667.73 349.216 668.473 348.844 669.031C347.404 670.286 345.592 670.891 343.733 671.263C343.268 671.356 342.292 671.31 341.688 670.706C341.409 670.52 341.084 670.102 341.037 669.869L340.991 669.637C340.991 669.637 340.34 670.009 339.736 670.613C339.179 671.45 337.692 673.681 335.368 672.938C334.857 672.799 334.578 672.613 334.532 672.38L334.253 672.195C333.463 671.869 332.58 672.288 331.976 672.892C331.372 673.496 331 674.054 330.443 674.891C330.257 675.17 329.885 675.728 329.699 676.006C328.352 677.726 327.098 678.702 325.425 678.796C324.728 678.935 324.216 678.796 323.705 678.657C323.194 678.517 322.683 678.378 322.45 678.425C321.753 678.564 320.917 679.215 320.127 680.098C319.291 680.749 318.548 681.865 316.921 682.19Z" fill="#684B99"/>
<path d="M277.802 714.916C277.569 714.962 277.569 714.962 277.337 715.009C276.594 714.916 276.222 714.265 276.361 713.754C276.871 710.269 277.66 706.969 279.193 703.762C279.333 703.251 280.029 701.903 281.191 701.67C281.888 701.531 282.167 701.717 282.632 701.623L282.864 701.577C284.862 701.902 286.535 699.392 287.092 698.555C287.835 697.44 288.765 696.045 290.159 695.766C290.391 695.72 290.623 695.673 291.088 695.58C291.32 695.534 291.553 695.487 291.553 695.487C291.785 695.441 292.157 694.883 292.575 694.557C292.947 694 293.365 693.674 293.736 693.116C294.573 692.466 295.734 692.233 296.431 692.093C297.129 691.954 297.593 691.861 298.058 691.768C298.29 691.721 298.476 691.442 298.894 691.117C299.312 690.792 299.684 690.234 300.102 689.908C300.753 689.536 301.217 689.443 301.868 689.071C302.333 688.978 302.797 688.885 303.216 688.56C303.587 688.002 304.331 688.095 304.888 688.467C305.446 688.838 305.353 689.582 304.982 690.14C304.192 691.023 303.263 691.209 302.612 691.581C302.147 691.674 301.683 691.767 301.497 692.046C301.265 692.092 301.079 692.371 300.661 692.697C300.242 693.022 300.103 693.533 299.453 693.905C298.616 694.556 297.64 694.51 296.711 694.696C296.014 694.835 295.317 694.975 294.899 695.3C294.713 695.579 294.527 695.858 294.109 696.184C293.505 696.788 292.947 697.624 291.832 698.089C291.368 698.182 291.135 698.229 290.903 698.276C290.67 698.322 290.67 698.322 290.438 698.369C289.973 698.462 289.416 699.298 288.858 700.135C287.047 703.156 284.445 704.644 282.214 704.365L281.935 704.18C281.703 704.226 281.424 704.04 281.424 704.04C281.424 704.04 281.192 704.087 280.867 704.877C279.52 707.805 278.684 710.872 278.359 714.079C278.638 714.265 278.266 714.823 277.802 714.916Z" fill="#684B99"/>
<path d="M303.165 678.657L302.933 678.704C302.189 678.611 301.864 678.193 301.724 677.496C301.91 674.8 303.814 672.244 306.695 670.942C309.158 669.966 311.854 670.151 314.456 671.08C314.735 671.265 314.967 671.219 315.2 671.172L315.386 670.893C317.43 667.826 320.636 665.734 323.935 665.315C324.4 665.222 324.632 665.175 325.143 665.314C326.119 665.361 327.049 665.175 327.699 664.803C327.885 664.524 328.071 664.245 328.489 663.92C328.675 663.641 328.907 663.594 329.093 663.315C330.673 661.549 332.95 660.851 335.18 661.13C335.924 661.222 336.296 661.873 336.156 662.384C336.064 663.128 335.413 663.5 334.902 663.36C333.415 663.175 331.835 663.733 330.859 664.895C330.627 664.941 330.673 665.174 330.488 665.453C330.069 665.778 329.698 666.336 329.28 666.661C328.025 667.637 326.585 667.684 325.376 667.685C325.144 667.731 324.679 667.824 324.4 667.638C321.798 667.918 319.242 669.638 317.802 672.101C317.431 672.659 317.059 673.217 316.362 673.356C315.479 673.775 314.457 673.496 313.899 673.125C311.808 672.335 309.577 672.057 307.811 672.894C306.045 673.731 304.466 675.497 304.327 677.216C304.281 678.192 303.862 678.518 303.165 678.657Z" fill="#684B99"/>
<path d="M262.092 707.671C261.859 707.718 261.627 707.764 261.348 707.578C260.604 707.486 260.232 706.835 260.325 706.091C260.464 705.58 260.883 705.255 261.347 705.162C261.301 704.929 261.487 704.65 261.672 704.372C261.997 702.373 262.601 700.561 263.762 699.12C264.134 698.562 264.738 697.958 265.9 697.725C266.829 697.539 267.619 697.864 268.177 698.236C268.456 698.422 268.688 698.375 268.735 698.607C269.246 698.747 269.85 698.142 270.222 697.585C270.361 697.073 270.779 696.748 270.918 696.237C271.29 695.679 271.383 694.935 271.754 694.378C272.451 693.03 273.752 692.286 274.821 691.589C275.657 690.938 276.726 690.241 278.167 690.194C278.864 690.054 279.654 690.379 280.165 690.519C280.676 690.658 281.187 690.797 281.42 690.751C282.581 690.518 282.953 688.752 283.371 687.218C283.928 683.965 285.461 681.966 287.366 681.827C288.295 681.64 289.085 681.966 289.876 682.291C290.387 682.43 290.944 682.802 291.409 682.709C292.106 682.569 292.711 683.173 292.804 683.638C292.943 684.335 292.339 684.939 291.874 685.032C290.945 685.218 290.155 684.893 289.365 684.568C288.854 684.429 288.342 684.289 288.064 684.104C286.855 684.104 286.159 686.66 286.066 687.403C285.509 690.657 284.208 692.609 282.071 692.795C281.141 692.981 280.351 692.656 279.84 692.517C279.329 692.378 279.05 692.192 278.585 692.285C278.121 692.378 277.47 692.75 276.587 693.168C275.751 693.819 274.682 694.516 274.125 695.353C273.985 695.864 273.567 696.19 273.428 696.701C273.289 697.212 272.917 697.77 272.545 698.328C271.616 699.722 270.176 700.977 268.363 700.373C267.852 700.234 267.573 700.048 267.062 699.909C266.783 699.723 266.504 699.537 266.272 699.584C266.272 699.584 266.04 699.63 265.9 700.142C264.971 701.536 264.275 702.884 264.136 704.603C264.043 705.347 263.811 706.602 262.928 707.02C262.51 707.346 262.324 707.625 262.092 707.671Z" fill="#684B99"/>
<path d="M247.638 701.864C246.941 702.004 246.337 701.4 246.197 700.703C246.057 697.589 246.149 693.221 249.448 691.593C250.331 691.175 251.26 690.989 251.957 690.849L252.654 690.71C255.907 690.058 258.881 688.013 260.786 685.456L261.343 684.62C263.062 682.342 264.874 679.321 268.173 680.11C268.685 680.249 268.963 680.435 269.475 680.575C269.986 680.714 270.776 681.039 270.729 680.807C270.729 680.807 270.869 680.295 271.055 680.017L271.194 679.505C271.658 678.204 272.448 677.321 273.006 676.484C276.165 672.952 279.556 669.372 284.064 668.953L284.529 668.86C285.226 668.72 285.969 668.813 286.155 668.534C286.341 668.255 286.527 667.977 286.898 667.419C287.084 667.14 287.038 666.908 287.224 666.629C288.617 663.933 291.591 663.096 294.612 662.491C296.238 662.165 297.818 661.607 299.119 660.863C299.537 660.538 300.002 660.445 300.188 660.166C301.024 659.515 301.86 658.864 303.022 658.632C304.184 658.399 305.671 658.585 306.554 659.374L306.833 659.56C309.342 657.608 312.734 656.445 315.755 657.049C316.266 657.188 317.01 657.281 317.521 657.42C318.776 657.652 319.798 657.931 320.96 657.698C321.657 657.558 322.307 657.186 322.958 656.815C323.376 656.489 323.794 656.164 324.491 656.024C326.257 655.187 328.441 655.233 329.696 656.673C330.022 657.092 329.929 657.835 329.557 658.393C329.139 658.718 328.396 658.626 327.838 658.254C327.466 657.603 326.304 657.836 325.421 658.255C324.957 658.348 324.538 658.673 324.12 658.998C323.237 659.417 322.401 660.068 321.472 660.254C319.845 660.579 318.358 660.394 317.057 659.93C316.546 659.79 316.034 659.651 315.523 659.512C312.549 659.141 309.389 660.257 307.438 662.581L304.883 665.509L305.3 661.559C305.3 661.559 305.253 661.327 305.207 661.094C304.881 660.676 304.138 660.583 303.72 660.909C303.023 661.048 302.419 661.653 301.768 662.025C301.35 662.35 300.932 662.675 300.514 663.001C299.027 664.023 297.168 664.396 295.309 664.768C292.753 665.28 290.476 665.977 289.64 667.836C289.455 668.115 289.501 668.348 289.269 668.394C288.944 669.184 288.572 669.742 287.968 670.346C286.899 671.044 285.97 671.23 284.994 671.184L284.529 671.277C280.719 671.556 277.978 674.764 275.237 677.971C274.633 678.575 274.075 679.412 273.75 680.202L273.564 680.481C273.425 680.992 273.1 681.782 272.496 682.386C271.241 683.362 269.94 682.898 268.871 682.387C268.592 682.201 268.081 682.062 267.849 682.109C266.315 681.691 264.968 683.41 263.481 685.642L262.924 686.478C260.647 689.592 257.255 691.963 253.538 692.708L252.841 692.847C252.144 692.987 251.447 693.126 251.028 693.452C249.495 694.242 248.752 696.566 249.032 700.377C248.707 701.167 248.335 701.724 247.638 701.864Z" fill="#684B99"/>
<path d="M345.617 386.202C344.223 386.481 342.503 386.342 341.155 385.645L302.533 366.555C300.906 365.672 299.651 364.232 299.093 362.652C298.488 360.84 298.627 359.12 299.463 357.261L318.043 319.707C318.925 318.081 320.366 316.825 321.946 316.267C323.758 315.663 325.477 315.802 327.336 316.638L365.959 335.728C369.445 337.447 370.747 341.536 369.029 345.022L350.449 382.576C349.613 384.435 347.708 385.783 345.617 386.202ZM342.177 383.507C344.315 384.529 347.289 383.692 348.311 381.554L366.891 344C367.402 342.931 367.634 341.676 367.169 340.561C366.704 339.446 366.006 338.377 364.937 337.866L326.315 318.776C325.246 318.265 323.991 318.033 322.876 318.498C321.76 318.963 320.692 319.66 320.181 320.729L301.601 358.283C301.09 359.352 300.858 360.607 301.323 361.722C301.788 362.837 302.485 363.906 303.554 364.417L342.177 383.507Z" fill="#684B99"/>
<path d="M328.273 349.075L319.954 344.941C319.629 345.731 319.815 346.66 320.187 347.311C320.559 347.961 321.21 348.798 322.232 349.076C323.301 349.587 324.556 349.819 325.671 349.354L326.369 351.631C325.718 352.003 324.789 352.189 324.045 352.096C323.069 352.05 322.279 351.725 321.489 351.4C320.42 350.889 319.537 350.099 318.886 349.263C318.235 348.427 317.77 347.311 317.817 346.336C317.863 345.36 317.862 344.151 318.373 343.082C318.884 342.013 319.674 341.13 320.557 340.712C321.393 340.061 322.323 339.875 323.484 339.642C324.46 339.688 325.715 339.92 326.784 340.431C327.853 340.942 328.69 341.5 329.155 342.615C329.806 343.451 329.992 344.381 330.224 345.542C330.178 346.518 329.946 347.773 329.435 348.842C328.645 348.517 328.459 348.796 328.273 349.075ZM322.741 341.966C322.044 342.106 321.44 342.71 320.836 343.314L326.739 346.24C327.064 345.45 326.925 344.753 326.739 343.824C326.367 343.173 325.995 342.523 325.205 342.198C324.182 341.919 323.439 341.826 322.741 341.966Z" fill="#684B99"/>
<path d="M329.436 354.883C328.832 354.279 328.227 353.675 327.855 353.024L329.76 351.676C330.132 352.326 330.458 352.745 331.062 353.349C331.666 353.953 332.224 354.324 333.014 354.649C334.594 355.299 335.338 355.392 335.895 354.556C336.081 354.277 335.988 353.812 335.663 353.394C335.337 352.976 334.78 352.604 333.943 352.047C333.106 351.489 332.502 350.885 331.944 350.514C331.387 350.142 331.247 349.445 330.922 349.027C330.782 348.33 330.875 347.586 331.246 347.028C331.757 345.959 332.594 345.309 333.802 345.308C334.964 345.076 336.219 345.308 337.566 346.004C338.356 346.33 338.914 346.701 339.519 347.305C340.123 347.909 340.681 348.281 341.052 348.931L339.147 350.279C338.45 349.211 337.614 348.653 336.498 347.91C335.708 347.585 335.197 347.446 334.685 347.306C334.221 347.399 333.756 347.492 333.617 348.004C333.431 348.283 333.524 348.747 333.849 349.165C334.175 349.584 334.733 349.955 335.569 350.513C336.406 351.07 336.964 351.442 337.336 352.092C337.893 352.464 338.033 353.161 338.358 353.579C338.498 354.276 338.359 354.787 338.033 355.577C337.523 356.646 336.64 357.065 335.478 357.298C334.316 357.53 333.015 357.066 331.435 356.416C330.877 356.044 330.087 355.719 329.436 354.883Z" fill="#684B99"/>
<path d="M340.916 360.316C340.265 359.48 339.8 358.364 339.847 357.389C339.893 356.413 339.892 355.204 340.403 354.135C340.914 353.066 341.704 352.183 342.587 351.765C343.423 351.114 344.585 350.881 345.561 350.928C346.769 350.927 347.792 351.206 348.861 351.717C349.93 352.228 350.766 352.785 351.185 353.668C351.836 354.504 352.022 355.434 351.975 356.41L349.605 356.643C349.466 355.946 349.373 355.481 349.047 355.063C348.722 354.645 348.164 354.273 347.606 353.901C346.77 353.344 345.794 353.298 344.911 353.716C343.982 353.902 343.424 354.739 342.867 355.575C342.309 356.412 342.31 357.62 342.496 358.55C342.914 359.433 343.518 360.037 344.355 360.594C344.913 360.966 345.424 361.105 346.121 360.965C346.586 360.872 347.283 360.733 347.701 360.407L349.096 362.545C348.259 363.196 347.33 363.382 346.401 363.568C345.425 363.522 344.449 363.475 343.38 362.964C342.45 361.942 341.567 361.152 340.916 360.316Z" fill="#684B99"/>
<path d="M202.486 206.071L191.798 208.211L192.868 213.555L203.556 211.415L202.486 206.071Z" fill="#684B99"/>
<path d="M218.679 286.932L207.991 289.072L209.061 294.416L219.749 292.276L218.679 286.932Z" fill="#684B99"/>
<path d="M214.351 265.321L203.663 267.461L204.733 272.805L215.421 270.665L214.351 265.321Z" fill="#684B99"/>
<path d="M218.572 230.883L207.884 233.023L208.954 238.367L219.642 236.227L218.572 230.883Z" fill="#684B99"/>
<path d="M214.245 209.278L203.557 211.418L204.627 216.762L215.315 214.622L214.245 209.278Z" fill="#684B99"/>
<path d="M220.658 213.547L215.314 214.617L216.384 219.961L221.728 218.891L220.658 213.547Z" fill="#684B99"/>
<path d="M227.119 218.055L221.775 219.125L222.845 224.469L228.189 223.399L227.119 218.055Z" fill="#684B99"/>
<path d="M233.533 222.33L228.189 223.4L230.33 234.088L235.674 233.018L233.533 222.33Z" fill="#684B99"/>
<path d="M241.018 231.947L235.674 233.018L240.001 254.626L245.345 253.556L241.018 231.947Z" fill="#684B99"/>
<path d="M240.001 254.627L234.657 255.697L236.798 266.385L242.141 265.315L240.001 254.627Z" fill="#684B99"/>
<path d="M236.798 266.385L231.454 267.455L232.524 272.799L237.868 271.729L236.798 266.385Z" fill="#684B99"/>
<path d="M232.524 272.797L227.18 273.867L228.25 279.211L233.594 278.141L232.524 272.797Z" fill="#684B99"/>
<path d="M218.626 258.908L213.282 259.979L214.352 265.322L219.696 264.252L218.626 258.908Z" fill="#684B99"/>
<path d="M222.899 252.494L217.555 253.564L218.625 258.908L223.969 257.838L222.899 252.494Z" fill="#684B99"/>
<path d="M224.986 235.158L219.642 236.229L220.712 241.573L226.056 240.502L224.986 235.158Z" fill="#684B99"/>
<path d="M208.954 238.367L203.61 239.437L204.68 244.781L210.024 243.711L208.954 238.367Z" fill="#684B99"/>
<path d="M228.25 279.213L217.562 281.354L218.632 286.698L229.32 284.557L228.25 279.213Z" fill="#684B99"/>
<path d="M208.828 294.461C185.129 299.207 161.75 283.83 156.957 259.898C152.165 235.967 167.588 212.82 191.52 208.027C192.681 207.795 193.797 208.538 194.03 209.7C194.262 210.862 193.519 211.977 192.357 212.21C170.749 216.537 156.812 237.452 161.139 259.061C165.467 280.669 186.382 294.606 207.991 290.279C209.152 290.046 210.268 290.789 210.501 291.951C210.733 293.113 209.99 294.228 208.828 294.461Z" fill="#684B99"/>
<path d="M204.594 272.107C185.866 275.132 180.193 261.285 180.193 261.285C179.728 260.17 180.239 259.101 181.355 258.636C182.47 258.171 183.539 258.682 184.004 259.797C184.097 260.262 188.607 270.717 203.803 268.157C204.965 267.924 206.08 268.668 206.313 269.829C206.545 270.991 205.756 271.874 204.594 272.107Z" fill="#684B99"/>
<path d="M192.32 249.435C191.391 249.621 190.322 249.11 189.903 248.227C189.857 247.995 187.439 241.954 181.63 243.117C175.822 244.28 176.892 249.624 177.031 250.321C177.264 251.483 176.521 252.599 175.359 252.831C174.197 253.064 173.082 252.321 172.849 251.159C172.151 247.674 172.893 240.517 180.793 238.935C188.228 237.446 192.551 243.347 193.9 246.46C194.365 247.575 193.854 248.644 192.738 249.109C192.553 249.388 192.32 249.435 192.32 249.435Z" fill="#684B99"/>
<path d="M252.226 453.287C255.154 455.842 257.06 459.327 257.991 463.974C259.247 470.247 257.669 475.638 253.487 480.101C249.306 484.563 242.429 487.632 233.135 489.493L195.727 496.984L181.303 424.956L216.62 417.884C225.449 416.116 232.513 416.393 237.858 418.947C243.156 421.27 246.41 425.451 247.573 431.26C248.271 434.745 247.993 438.184 246.879 441.066C245.811 444.18 243.906 446.736 241.211 448.967C245.579 449.059 249.019 450.546 252.226 453.287ZM200.266 433.967L203.662 450.928L220.159 447.625C224.341 446.787 227.222 445.485 229.034 443.673C230.846 441.86 231.589 439.536 231.031 436.748C230.472 433.96 228.892 432.101 226.522 431.126C224.151 430.151 220.759 430.105 216.809 430.896L200.312 434.199L200.266 433.967ZM238.707 472.669C240.752 470.809 241.216 468.3 240.611 465.279C239.401 459.238 234.382 457.102 225.552 458.87L206.035 462.778L209.618 480.669L229.135 476.761C233.596 476.109 236.709 474.76 238.707 472.669Z" fill="#684B99"/>
<path d="M271.066 538.928C265.907 537.302 261.771 534.747 258.331 530.845C254.891 526.942 252.52 522.342 251.45 516.998C250.38 511.654 250.75 506.263 252.468 501.569C254.14 496.642 257.206 492.645 261.109 489.205C265.244 485.719 270.123 483.533 275.7 482.417C280.579 481.44 284.947 481.532 289.223 482.367C293.499 483.202 297.263 485.107 300.424 487.616L293.827 496.912C289.226 493.241 284.16 492.081 278.584 493.198C275.098 493.895 272.217 495.197 269.987 497.336C267.478 499.288 265.806 501.798 264.97 504.865C264.134 507.933 263.81 511.139 264.461 514.392C265.159 517.877 266.461 520.758 268.599 522.988C270.552 525.497 273.062 527.17 276.129 528.006C279.196 528.841 282.403 529.166 285.656 528.514C291.232 527.398 295.46 524.376 298.294 519.217L307.962 525.256C306.057 529.021 303.27 531.996 299.692 534.645C296.068 537.063 292.071 538.83 287.192 539.807C281.337 540.738 276.178 540.321 271.066 538.928Z" fill="#684B99"/>
<path d="M236.534 547.533L206.561 553.535L191.731 531.372L140.847 541.561L135.695 567.726L106.186 573.635L134.457 448.108L161.874 442.618L162.246 443.268L236.534 547.533ZM207.49 550.932L232.351 545.954L160.713 445.267L136.317 450.152L109.206 570.614L133.371 565.775L138.523 539.61L192.427 528.815L207.49 550.932ZM181.921 512.553L142.654 520.416L152.912 469.062L181.921 512.553ZM145.674 517.395L177.97 510.927L153.889 475.15L145.674 517.395Z" fill="#684B99"/>
<path d="M95.7046 627.454L93.9386 627.082L-38.8369 604.855L-45.8626 569.77L-45.2121 569.398L69.6488 497.339L76.535 531.726L-0.968548 579.146L88.7719 592.834L95.7046 627.454ZM-36.6067 602.716L92.9155 624.387L86.9599 594.647L-7.52081 580.217L74.0716 530.286L68.1625 500.778L-43.0276 570.652L-36.6067 602.716Z" fill="#684B99"/>
<path d="M342.458 578.041L335.525 543.421L413.075 496.233L323.288 482.313L316.402 447.926L318.168 448.297L450.943 470.525L457.969 505.609L457.319 505.981L342.458 578.041ZM338.128 544.35L344.083 574.09L455.273 504.216L448.899 472.384L319.377 450.713L325.286 480.222L419.813 494.884L338.128 544.35Z" fill="#684B99"/>
<path d="M236.609 640.757C235.912 640.896 235.354 640.525 234.75 639.921C234.332 639.038 234.61 638.015 235.261 637.643C236.144 637.225 237.166 637.504 237.538 638.154C237.956 639.037 237.91 640.013 237.027 640.431C236.841 640.71 236.841 640.71 236.609 640.757ZM226.381 623.472C225.684 623.611 225.126 623.24 224.522 622.636C224.104 621.753 224.382 620.73 225.033 620.358C225.916 619.94 226.938 620.218 227.31 620.869C227.728 621.752 227.682 622.728 226.799 623.146C226.567 623.193 226.381 623.472 226.381 623.472ZM215.874 606.001C215.177 606.14 214.387 605.815 214.015 605.165C213.597 604.282 213.875 603.259 214.526 602.887C215.409 602.469 216.431 602.748 216.803 603.398C217.222 604.281 216.943 605.303 216.292 605.675C216.339 605.908 216.107 605.954 215.874 606.001ZM205.646 588.716C204.949 588.855 204.159 588.53 203.787 587.88C203.369 586.997 203.647 585.974 204.53 585.556C205.413 585.137 206.435 585.416 206.854 586.299C207.272 587.182 206.994 588.204 206.111 588.623C205.832 588.437 205.879 588.669 205.646 588.716Z" fill="#684B99"/>
<path d="M118.885 405.265C118.188 405.405 117.398 405.08 117.026 404.429C116.608 403.546 116.886 402.524 117.537 402.152C118.419 401.734 119.442 402.012 119.814 402.663C120.232 403.545 119.954 404.568 119.303 404.94C119.35 405.172 119.117 405.219 118.885 405.265ZM108.889 387.934C108.192 388.073 107.402 387.748 107.03 387.098C106.612 386.215 106.89 385.192 107.773 384.774C108.656 384.355 109.679 384.634 110.097 385.517C110.516 386.4 110.237 387.422 109.354 387.841C109.075 387.655 109.122 387.887 108.889 387.934ZM98.6149 370.416C97.9179 370.556 97.1277 370.231 96.7558 369.58C96.3374 368.697 96.6159 367.675 97.4988 367.256C98.3817 366.838 99.4041 367.117 99.8226 367.999C100.241 368.882 99.9625 369.905 99.0796 370.323C99.0796 370.323 98.8473 370.37 98.6149 370.416ZM88.5727 352.852C87.8757 352.992 87.0856 352.667 86.7136 352.016C86.2952 351.133 86.5738 350.111 87.4566 349.693C88.3395 349.274 89.3619 349.553 89.7804 350.436C90.1989 351.318 89.9203 352.341 89.0374 352.759C88.8051 352.806 88.8051 352.806 88.5727 352.852ZM78.2982 335.335C77.6011 335.475 76.811 335.149 76.4391 334.499C76.0206 333.616 76.2992 332.594 76.9497 332.222C77.8326 331.803 78.8551 332.082 79.227 332.732C79.5989 333.383 79.3669 334.638 78.7164 335.01C78.7629 335.242 78.5305 335.288 78.2982 335.335ZM68.256 317.771C67.559 317.911 66.7689 317.586 66.3969 316.935C65.9785 316.052 66.2571 315.03 66.9076 314.658C67.7904 314.239 68.8129 314.518 69.1848 315.168C69.6033 316.051 69.3247 317.074 68.6742 317.446C68.4884 317.725 68.4884 317.725 68.256 317.771ZM58.028 300.486C57.331 300.626 56.5409 300.301 56.1689 299.65C55.7505 298.767 56.0291 297.745 56.6796 297.373C57.5624 296.954 58.5849 297.233 58.9568 297.883C59.3288 298.534 59.0967 299.789 58.4462 300.161C58.4927 300.393 58.2604 300.44 58.028 300.486ZM47.9858 282.922C47.2888 283.062 46.4987 282.737 46.1268 282.086C45.7083 281.203 45.9869 280.181 46.6374 279.809C47.5203 279.39 48.5427 279.669 48.9146 280.319C49.2866 280.97 49.0545 282.225 48.404 282.597C48.2182 282.876 48.2182 282.876 47.9858 282.922ZM37.7113 265.405C37.0143 265.544 36.2242 265.219 35.8522 264.569C35.4338 263.686 35.7123 262.663 36.5952 262.245C37.4781 261.826 38.5005 262.105 38.919 262.988C39.3374 263.871 39.0589 264.893 38.176 265.312C38.176 265.312 37.9437 265.358 37.7113 265.405ZM27.6691 247.841C26.9721 247.98 26.182 247.655 25.8101 247.005C25.3916 246.122 25.6702 245.099 26.553 244.681C27.4359 244.263 28.4584 244.541 28.8768 245.424C29.2953 246.307 29.0167 247.329 28.1338 247.748C27.9015 247.794 27.9015 247.794 27.6691 247.841ZM17.4411 230.556C16.7441 230.695 15.954 230.37 15.582 229.72C15.1636 228.837 15.4422 227.814 16.325 227.396C17.2079 226.977 18.2303 227.256 18.6488 228.139C19.0673 229.022 18.7887 230.044 17.9058 230.463C17.9058 230.463 17.6735 230.509 17.4411 230.556ZM7.39895 212.992C6.70191 213.131 5.91181 212.806 5.53988 212.156C5.12141 211.273 5.4 210.25 6.05052 209.879C6.93338 209.46 7.95582 209.739 8.32775 210.389C8.69968 211.04 8.46764 212.295 7.81713 212.666C7.63131 212.945 7.6313 212.945 7.39895 212.992ZM-2.87557 195.474C-3.57261 195.614 -4.36272 195.289 -4.73465 194.638C-5.15311 193.756 -4.87453 192.733 -4.22401 192.361C-3.34115 191.943 -2.3187 192.221 -1.94676 192.872C-1.57483 193.522 -1.80689 194.777 -2.45741 195.149C-2.41088 195.381 -2.64322 195.428 -2.87557 195.474ZM-12.9178 177.911C-13.6148 178.05 -14.1725 177.678 -14.7768 177.074C-15.1953 176.192 -14.9167 175.169 -14.2662 174.797C-13.3833 174.379 -12.4074 174.425 -11.9889 175.308C-11.5705 176.191 -11.6167 177.167 -12.4996 177.585C-12.6854 177.864 -12.6854 177.864 -12.9178 177.911ZM-23.1458 160.625C-23.8428 160.765 -24.4006 160.393 -25.0048 159.789C-25.4233 158.907 -25.1447 157.884 -24.4942 157.512C-23.6113 157.094 -22.5889 157.372 -22.2169 158.023C-21.845 158.673 -21.8447 159.882 -22.7276 160.3C-22.7276 160.3 -22.9134 160.579 -23.1458 160.625ZM-33.1879 143.062C-33.885 143.201 -34.6751 142.876 -35.047 142.226C-35.4655 141.343 -35.1869 140.32 -34.5364 139.948C-33.6535 139.53 -32.6311 139.808 -32.2591 140.459C-31.8407 141.342 -32.1192 142.364 -32.7698 142.736C-32.9556 143.015 -32.9556 143.015 -33.1879 143.062ZM-43.4625 125.544C-44.1595 125.684 -44.9496 125.359 -45.3215 124.708C-45.74 123.825 -45.4614 122.803 -44.8109 122.431C-43.928 122.012 -42.9056 122.291 -42.5336 122.942C-42.1152 123.824 -42.3938 124.847 -43.0443 125.219C-42.9978 125.451 -43.2301 125.498 -43.4625 125.544ZM-53.5046 107.98C-54.2017 108.12 -54.9918 107.795 -55.3637 107.144C-55.7822 106.261 -55.5036 105.239 -54.8531 104.867C-53.9702 104.449 -52.9478 104.727 -52.5758 105.378C-52.1574 106.26 -52.436 107.283 -53.0865 107.655C-53.2723 107.934 -53.5046 107.98 -53.5046 107.98ZM-63.7326 90.6952C-64.4297 90.8348 -64.9874 90.4632 -65.5917 89.8592C-66.0102 88.9763 -65.7316 87.9539 -65.0811 87.5819C-64.1982 87.1635 -63.1758 87.4421 -62.8038 88.0926C-62.3854 88.9754 -62.4316 89.9514 -63.3145 90.3698C-63.3145 90.3698 -63.5003 90.6487 -63.7326 90.6952Z" fill="#684B99"/>
<path d="M292.091 619.736C291.859 619.783 291.626 619.83 291.115 619.69C290.325 619.365 289.674 618.529 289.953 617.506C290.278 616.716 291.161 616.298 292.183 616.576C293.206 616.855 293.392 617.784 293.113 618.807C293.206 619.271 292.788 619.597 292.091 619.736ZM299.15 600.681C298.918 600.728 298.685 600.774 298.174 600.635C297.384 600.31 296.733 599.474 297.012 598.451C297.337 597.661 298.22 597.243 299.242 597.521C300.265 597.8 300.451 598.729 300.172 599.752C300.265 600.216 299.615 600.588 299.15 600.681ZM305.977 581.673C305.745 581.719 305.512 581.766 305.001 581.626C304.211 581.301 303.56 580.465 303.839 579.443C304.164 578.652 305.047 578.234 306.069 578.513C306.859 578.838 307.278 579.72 306.999 580.743C307.092 581.208 306.674 581.533 305.977 581.673ZM313.083 562.85C312.85 562.896 312.618 562.943 312.107 562.804C311.316 562.478 310.666 561.642 310.944 560.62C311.269 559.83 312.152 559.411 313.175 559.69C313.965 560.015 314.383 560.898 314.105 561.92C314.151 562.152 313.547 562.757 313.083 562.85ZM319.909 543.841C319.677 543.888 319.445 543.934 318.933 543.795C318.143 543.47 317.492 542.634 317.771 541.611C318.096 540.821 318.979 540.402 320.001 540.681C320.792 541.006 321.21 541.889 320.931 542.911C320.978 543.144 320.606 543.702 319.909 543.841ZM326.968 524.786C326.736 524.833 326.504 524.879 325.992 524.74C325.202 524.415 324.552 523.578 324.83 522.556C325.155 521.766 326.038 521.347 327.061 521.626C328.083 521.905 328.269 522.834 327.99 523.856C328.084 524.321 327.433 524.693 326.968 524.786Z" fill="#684B99"/>
<path d="M359.103 427.004C358.871 427.051 358.639 427.097 358.127 426.958C357.337 426.633 356.687 425.796 356.965 424.774C357.29 423.984 358.173 423.565 359.196 423.844C359.986 424.169 360.404 425.052 360.126 426.074C360.219 426.539 359.8 426.864 359.103 427.004ZM366.162 407.949C365.93 407.995 365.465 408.088 365.187 407.903C364.396 407.577 363.978 406.695 364.257 405.672C364.582 404.882 365.697 404.417 366.487 404.742C367.277 405.067 367.742 406.183 367.417 406.973C367.045 407.53 366.627 407.856 366.162 407.949ZM372.989 388.94C372.757 388.987 372.525 389.033 372.013 388.894C371.223 388.569 370.572 387.732 370.851 386.71C371.176 385.92 372.059 385.501 373.081 385.78C373.872 386.105 374.29 386.988 374.011 388.01C374.104 388.475 373.686 388.801 372.989 388.94ZM380.095 370.117C379.863 370.164 379.63 370.21 379.119 370.071C378.329 369.746 377.678 368.91 377.957 367.887C378.282 367.097 379.165 366.679 380.187 366.957C381.21 367.236 381.396 368.165 381.117 369.188C381.164 369.42 380.56 370.024 380.095 370.117ZM386.922 351.109C386.689 351.155 386.457 351.202 385.946 351.062C385.156 350.737 384.505 349.901 384.783 348.879C385.108 348.088 385.991 347.67 387.014 347.949C387.804 348.274 388.222 349.157 387.944 350.179C388.037 350.644 387.619 350.969 386.922 351.109ZM393.981 332.054C393.748 332.1 393.516 332.147 393.005 332.007C392.215 331.682 391.564 330.846 391.842 329.823C392.168 329.033 393.05 328.615 394.073 328.893C394.863 329.219 395.281 330.101 395.003 331.124C395.096 331.589 394.445 331.96 393.981 332.054ZM401.04 312.998C400.807 313.045 400.343 313.138 400.064 312.952C399.274 312.627 398.855 311.744 399.134 310.722C399.459 309.932 400.342 309.513 401.364 309.792C402.154 310.117 402.573 311 402.294 312.022C401.923 312.58 401.504 312.905 401.04 312.998ZM407.913 294.222C407.681 294.269 407.448 294.315 406.937 294.176C406.147 293.851 405.496 293.014 405.775 291.992C406.1 291.202 406.983 290.783 408.005 291.062C408.795 291.387 409.214 292.27 408.935 293.292C408.982 293.525 408.61 294.083 407.913 294.222ZM414.972 275.167C414.74 275.213 414.275 275.307 413.996 275.121C413.206 274.796 412.788 273.913 413.066 272.89C413.391 272.1 414.274 271.682 415.297 271.96C416.087 272.285 416.505 273.168 416.227 274.191C416.087 274.702 415.437 275.074 414.972 275.167ZM421.799 256.158C421.567 256.205 421.334 256.251 420.823 256.112C420.033 255.787 419.382 254.951 419.661 253.928C419.986 253.138 420.869 252.72 421.891 252.998C422.681 253.323 423.1 254.206 422.821 255.229C422.914 255.693 422.496 256.019 421.799 256.158Z" fill="#684B99"/>
<path d="M166.4 678.744C165.935 678.837 165.424 678.697 165.098 678.279C164.494 677.675 164.261 676.513 164.865 675.909C165.469 675.305 166.631 675.072 167.235 675.676C167.84 676.28 168.072 677.442 167.468 678.046C167.097 678.604 166.864 678.651 166.4 678.744ZM151.2 665.596C150.735 665.689 150.224 665.55 149.899 665.131C149.294 664.527 149.108 663.598 149.666 662.761C150.27 662.157 151.199 661.971 152.036 662.528C152.64 663.132 152.873 664.294 152.269 664.898C151.851 665.224 151.432 665.549 151.2 665.596ZM135.722 652.262C135.257 652.355 134.746 652.216 134.42 651.798C133.816 651.194 133.584 650.032 134.187 649.428C134.791 648.823 135.953 648.591 136.557 649.195C137.162 649.799 137.394 650.961 136.79 651.565C136.651 652.076 136.186 652.169 135.722 652.262ZM120.522 639.114C120.058 639.207 119.546 639.068 119.221 638.65C118.617 638.046 118.384 636.884 118.988 636.28C119.592 635.676 120.754 635.443 121.358 636.047C121.962 636.651 122.195 637.813 121.591 638.417C121.173 638.742 120.987 639.021 120.522 639.114Z" fill="#684B99"/>
<path d="M5.42912 521.751C4.96443 521.844 4.4532 521.705 4.17433 521.519C3.3377 520.961 3.38393 519.986 3.94139 519.149C4.49885 518.312 5.47476 518.358 6.31139 518.916C7.14802 519.473 7.14831 520.682 6.54433 521.286C6.31198 521.332 5.89382 521.658 5.42912 521.751ZM-10.1885 508.928C-10.6532 509.022 -11.1644 508.882 -11.4899 508.464C-12.3265 507.907 -12.2802 506.931 -11.7228 506.094C-11.1188 505.49 -10.1894 505.304 -9.35278 505.861C-8.51614 506.419 -8.51586 507.627 -9.11985 508.231C-9.49149 508.789 -9.95619 508.882 -10.1885 508.928ZM-25.992 496.385C-26.4567 496.478 -26.9679 496.339 -27.2468 496.153C-28.0834 495.595 -28.0372 494.62 -27.4797 493.783C-26.9223 492.946 -25.9463 492.993 -25.1097 493.55C-24.2731 494.107 -24.2728 495.316 -24.8768 495.92C-25.1091 495.966 -25.5273 496.292 -25.992 496.385ZM-41.6096 483.563C-42.0743 483.656 -42.5856 483.516 -42.911 483.098C-43.5152 482.494 -43.7014 481.565 -43.1439 480.728C-42.5399 480.124 -41.6105 479.938 -40.7739 480.495C-40.1696 481.099 -39.937 482.261 -40.541 482.865C-40.9591 483.191 -41.3773 483.516 -41.6096 483.563ZM-57.4596 470.787C-57.9243 470.88 -58.4356 470.74 -58.761 470.322C-59.3652 469.718 -59.5514 468.789 -58.9939 467.952C-58.3899 467.348 -57.4605 467.162 -56.6239 467.719C-56.0196 468.323 -55.787 469.485 -56.391 470.089C-56.5302 470.6 -56.9949 470.694 -57.4596 470.787ZM-73.0308 458.197C-73.4955 458.29 -74.0067 458.15 -74.3321 457.732C-75.1687 457.175 -75.1225 456.199 -74.565 455.362C-74.0076 454.525 -73.0316 454.572 -72.195 455.129C-71.3584 455.687 -71.3581 456.895 -71.9621 457.499C-72.3802 457.825 -72.7984 458.15 -73.0308 458.197ZM-88.8808 445.421C-89.3454 445.514 -89.8567 445.374 -90.1356 445.189C-90.9722 444.631 -90.9259 443.655 -90.3685 442.819C-89.811 441.982 -88.8351 442.028 -87.9985 442.586C-87.1618 443.143 -87.1616 444.351 -87.7655 444.956C-87.9979 445.002 -88.4161 445.328 -88.8808 445.421ZM-104.498 432.598C-104.963 432.691 -105.474 432.552 -105.753 432.366C-106.59 431.809 -106.544 430.833 -105.986 429.996C-105.429 429.159 -104.453 429.206 -103.616 429.763C-102.779 430.321 -102.779 431.529 -103.383 432.133C-103.801 432.459 -104.266 432.552 -104.498 432.598Z" fill="#684B99"/>
<path d="M76.8689 190.623L70.1309 191.973L71.4802 198.711L78.2183 197.361L76.8689 190.623Z" fill="#684B99"/>
<path d="M390.656 609.907L383.917 611.256L385.267 617.994L392.005 616.645L390.656 609.907Z" fill="#684B99"/>
<path d="M53.5679 688.524L46.8298 689.873L48.1792 696.611L54.9172 695.262L53.5679 688.524Z" fill="#684B99"/>
<path d="M33.1211 692.619L26.3831 693.969L27.7324 700.707L34.4705 699.357L33.1211 692.619Z" fill="#684B99"/>
<path d="M415.142 590.987L408.404 592.336L409.754 599.074L416.492 597.725L415.142 590.987Z" fill="#684B99"/>
<path d="M404.777 585.098L398.039 586.447L399.388 593.185L406.126 591.836L404.777 585.098Z" fill="#684B99"/>
<path d="M233.657 348.481L226.919 349.83L228.268 356.568L235.006 355.219L233.657 348.481Z" fill="#684B99"/>
<path d="M215.437 338.352L208.699 339.701L210.049 346.439L216.787 345.09L215.437 338.352Z" fill="#684B99"/>
</g>
</svg>
