<svg width="344" height="564" viewBox="0 0 344 564" fill="none" xmlns="http://www.w3.org/2000/svg">
<g opacity="0.1">
<path d="M1.9082 184.676V210.438L26.7157 213.936C28.942 226.658 34.0307 238.426 41.0277 248.603L26.0795 268.64L44.2081 286.769L64.2449 271.82C74.4223 278.817 86.19 283.906 98.5938 286.133L102.092 310.94H127.854L131.352 286.133C144.074 283.906 155.842 278.817 166.019 271.82L186.056 286.769L204.185 268.64L189.237 248.603C196.234 238.426 201.322 226.658 203.549 214.254L228.356 210.756V184.994L203.549 181.496C201.322 168.774 196.234 157.006 189.237 146.829L204.185 126.792L186.056 108.664L166.019 123.612C155.842 116.615 144.074 111.526 131.67 109.3L128.49 84.4922H102.728L99.2298 109.3C86.508 111.526 74.7404 116.615 64.563 123.612L44.5262 108.664L26.3976 126.792L41.3457 146.829C34.3487 157.006 29.26 168.774 27.0337 181.178L1.9082 184.676ZM115.132 135.379C149.799 135.379 177.787 163.367 177.787 198.034C177.787 232.701 149.799 260.689 115.132 260.689C80.4652 260.689 52.4773 232.701 52.4773 198.034C52.4773 163.367 80.7832 135.379 115.132 135.379Z" fill="white"/>
<path d="M129.444 313.166H100.502L97.0036 288.041C85.236 285.815 74.1044 281.044 64.245 274.365L43.8901 289.631L23.2172 268.958L38.4834 248.603C31.8045 238.744 27.3518 227.612 25.1255 215.845L0 212.346V183.086L25.1255 179.588C27.3518 167.82 32.1225 156.688 38.8014 146.829L23.5353 126.474L44.2082 105.801L64.563 121.067C74.4224 114.388 85.554 109.936 97.3217 107.71L100.82 82.584H129.762L133.261 107.71C145.028 110.254 156.16 114.707 166.019 121.385L186.374 106.119L207.047 126.792L191.781 147.147C198.46 157.325 202.913 168.138 205.139 179.906L230.264 183.404V212.346L205.139 215.845C202.594 227.612 198.142 238.744 191.463 248.603L206.729 268.958L186.056 289.631L165.701 274.365C155.842 281.044 144.71 285.497 132.943 287.723L129.444 313.166ZM103.683 309.35H126.264L129.762 284.86L131.034 284.542C143.12 282.316 154.57 277.545 165.065 270.548L166.019 269.912L185.738 284.86L201.64 268.958L186.692 249.239L187.328 248.285C194.325 238.108 199.096 226.658 201.322 214.573L201.64 213.3L226.13 209.802V187.221L201.64 183.722L201.322 182.45C199.096 170.364 194.325 158.915 187.328 148.419L186.692 147.465L201.64 127.746L185.738 111.844L166.019 126.792L165.065 126.156C154.888 119.159 143.438 114.388 131.352 112.162L130.08 111.844L126.582 87.3547H104.001L100.502 111.844L99.2299 112.162C87.1442 114.388 75.6947 119.159 65.5172 126.156L64.563 126.792L44.8443 111.844L28.9421 127.746L43.8901 147.465L43.2541 148.419C36.2571 158.597 31.4864 170.046 29.2601 182.132L28.9421 183.404L4.45261 186.903V209.484L28.9421 212.982L29.2601 214.255C31.4864 226.34 36.2571 237.79 43.2541 248.285L43.8901 249.239L28.9421 268.958L44.8443 284.86L64.563 269.912L65.5172 270.548C75.6947 277.545 87.1442 282.316 99.2299 284.542L100.502 284.86L103.683 309.35ZM115.132 262.279C79.5111 262.279 50.5691 233.337 50.5691 197.716C50.5691 162.095 79.5111 133.153 115.132 133.153C150.753 133.153 179.695 162.095 179.695 197.716C179.695 233.337 150.753 262.279 115.132 262.279ZM115.132 137.288C81.7374 137.288 54.3857 164.64 54.3857 198.034C54.3857 231.429 81.7374 258.781 115.132 258.781C148.527 258.781 175.879 231.429 175.879 198.034C175.879 164.64 148.845 137.288 115.132 137.288Z" fill="#602B7A"/>
<path d="M407.733 191.277H99.5479V407.866H407.733V191.277Z" fill="white"/>
<path d="M409.005 409.456H97.6392V189.688H409.005V409.456ZM101.138 406.276H406.143V192.868H101.138V406.276Z" fill="#602B7A"/>
<path d="M401.054 200.504H105.909V236.443H401.054V200.504Z" fill="#602B7A"/>
<path d="M351.121 217.996H341.261V225.629H351.121V217.996Z" fill="#602B7A"/>
<path d="M352.711 227.22H339.671V216.406H352.711V227.22ZM342.852 224.039H349.531V219.587H342.852V224.039Z" fill="white"/>
<path d="M325.677 227.22H314.864C313.91 227.22 313.273 226.583 313.273 225.629C313.273 224.675 313.91 224.039 314.864 224.039H325.677C326.631 224.039 327.267 224.675 327.267 225.629C327.267 226.583 326.631 227.22 325.677 227.22Z" fill="white"/>
<path d="M355.892 273.016H152.661C151.707 273.016 151.071 272.38 151.071 271.426C151.071 270.472 151.707 269.836 152.661 269.836H355.892C356.846 269.836 357.482 270.472 357.482 271.426C357.482 272.38 356.846 273.016 355.892 273.016Z" fill="#602B7A"/>
<path d="M355.892 286.374H152.661C151.707 286.374 151.071 285.738 151.071 284.784C151.071 283.829 151.707 283.193 152.661 283.193H355.892C356.846 283.193 357.482 283.829 357.482 284.784C357.482 285.738 356.846 286.374 355.892 286.374Z" fill="#602B7A"/>
<path d="M355.891 299.731H152.661C151.707 299.731 151.071 299.095 151.071 298.141C151.071 297.187 151.707 296.551 152.661 296.551H355.891C356.845 296.551 357.482 297.187 357.482 298.141C357.482 299.095 356.845 299.731 355.891 299.731Z" fill="#602B7A"/>
<path d="M355.892 313.093H152.661C151.707 313.093 151.071 312.456 151.071 311.502C151.071 310.548 151.707 309.912 152.661 309.912H355.892C356.846 309.912 357.482 310.548 357.482 311.502C357.482 312.456 356.846 313.093 355.892 313.093Z" fill="#602B7A"/>
<path d="M243.303 326.448H152.342C151.388 326.448 150.752 325.812 150.752 324.858C150.752 323.904 151.388 323.268 152.342 323.268H243.303C244.257 323.268 244.893 323.904 244.893 324.858C244.893 325.812 244.257 326.448 243.303 326.448Z" fill="#602B7A"/>
<path d="M334.582 385.605C349.512 385.605 361.616 373.501 361.616 358.571C361.616 343.641 349.512 331.537 334.582 331.537C319.651 331.537 307.548 343.641 307.548 358.571C307.548 373.501 319.651 385.605 334.582 385.605Z" fill="#95C11F"/>
<path d="M322.815 363.977C321.542 363.341 320.588 362.387 319.952 361.115C319.316 359.843 318.998 358.571 318.998 356.98C318.998 355.39 319.316 354.118 319.952 352.846C320.588 351.574 321.542 350.62 322.815 349.983C324.087 349.347 325.359 349.029 326.949 349.029C328.539 349.029 329.812 349.347 331.084 349.983C332.356 350.62 333.31 351.574 333.946 352.846C334.582 354.118 334.9 355.39 334.9 356.98C334.9 358.571 334.582 359.843 333.946 361.115C333.31 362.387 332.356 363.341 331.084 363.977C329.812 364.613 328.539 364.932 326.949 364.932C325.677 364.932 324.087 364.613 322.815 363.977ZM329.811 361.751C330.766 361.433 331.402 360.797 331.72 359.843C332.038 358.889 332.356 358.253 332.356 356.98C332.356 356.026 332.038 355.072 331.72 354.118C331.402 353.164 330.766 352.528 329.811 352.21C328.857 351.892 328.221 351.574 326.949 351.574C325.995 351.574 325.041 351.892 324.087 352.21C323.133 352.528 322.496 353.164 322.178 354.118C321.86 355.072 321.542 355.708 321.542 356.98C321.542 357.935 321.86 358.889 322.178 359.843C322.496 360.797 323.133 361.433 324.087 361.751C325.041 362.069 325.677 362.387 326.949 362.387C328.221 362.387 328.857 362.069 329.811 361.751Z" fill="white"/>
<path d="M342.852 359.844L340.943 361.753V364.933H338.081V348.713H340.943V358.572L346.668 353.484H349.849L345.078 358.254L350.485 364.933H347.304L342.852 359.844Z" fill="white"/>
<path d="M163.793 505.816V517.265L174.606 518.855C175.561 524.58 177.787 529.669 180.967 534.122L174.288 543.027L182.24 550.978L191.145 544.299C195.597 547.479 200.686 549.706 206.411 550.66L208.001 561.473H219.451L221.041 550.66C226.766 549.706 231.854 547.479 236.307 544.299L245.212 550.978L253.164 543.027L246.485 534.122C249.665 529.669 251.891 524.58 252.845 518.855L263.659 517.265V505.816L252.845 504.225C251.891 498.501 249.665 493.412 246.485 488.959L253.164 480.054L245.212 472.103L236.307 478.782C231.854 475.601 226.766 473.375 221.041 472.421L219.451 461.607H208.001L206.411 472.421C200.686 473.375 195.597 475.601 191.145 478.782L182.24 472.103L174.288 480.054L180.967 488.959C177.787 493.412 175.561 498.501 174.606 504.225L163.793 505.816ZM214.044 483.871C229.31 483.871 241.714 496.274 241.714 511.54C241.714 526.807 229.31 539.21 214.044 539.21C198.778 539.21 186.374 526.807 186.374 511.54C186.374 496.274 198.778 483.871 214.044 483.871Z" fill="white"/>
<path d="M221.359 563.701H206.411L204.82 552.57C200.05 551.616 195.597 549.708 191.462 546.845L182.239 553.524L171.744 543.029L178.423 533.805C175.878 529.671 173.97 525.218 173.016 520.447L161.884 518.857V503.909L173.016 502.319C173.97 497.548 175.878 493.096 178.741 488.961L172.062 479.738L182.557 469.242L191.78 475.921C195.915 473.377 200.368 471.469 205.138 470.514L206.729 459.383H221.677L223.267 470.514C228.038 471.469 232.49 473.377 236.625 476.239L245.848 469.56L256.344 480.056L249.665 489.279C252.209 493.414 254.117 497.866 255.071 502.637L266.203 504.227V519.175L255.071 520.765C254.117 525.536 252.209 529.989 249.347 534.123L256.026 543.347L245.53 553.842L236.307 547.163C232.172 549.707 227.72 551.616 222.949 552.57L221.359 563.701ZM209.909 559.567H217.86L219.45 549.071L220.723 548.753C225.811 547.799 230.9 545.891 235.353 542.71L236.625 542.074L245.212 548.435L250.937 542.71L244.576 534.123L245.53 532.851C248.71 528.398 250.619 523.628 251.573 518.221L251.891 516.949L262.704 515.359V507.407L252.209 505.817L251.891 504.545C250.937 499.138 249.029 494.368 245.848 489.915L245.212 488.643L251.573 480.056L245.848 474.331L237.261 480.692L235.989 479.738C231.536 476.557 226.765 474.649 221.359 473.695L220.086 473.377L218.496 462.563H210.545L208.955 473.059L207.683 473.377C202.276 474.331 197.505 476.239 193.053 479.42L191.78 480.056L183.193 473.695L177.468 479.42L183.829 488.007L182.875 489.279C179.695 493.732 177.787 498.502 176.832 503.909L176.514 505.181L165.701 506.771V514.723L176.196 516.313L176.514 517.585C177.468 522.674 179.377 527.762 182.557 532.215L183.193 533.487L176.832 542.074L182.557 547.799L191.144 541.438L192.417 542.392C196.869 545.573 201.64 547.481 207.047 548.435L208.319 548.753L209.909 559.567ZM214.044 541.12C197.823 541.12 184.465 527.762 184.465 511.542C184.465 495.322 197.823 481.964 214.044 481.964C230.264 481.964 243.622 495.322 243.622 511.542C243.622 527.762 230.264 541.12 214.044 541.12ZM214.044 485.78C199.732 485.78 188.282 497.23 188.282 511.542C188.282 525.854 199.732 537.304 214.044 537.304C228.356 537.304 239.805 525.854 239.805 511.542C239.805 497.23 228.038 485.78 214.044 485.78Z" fill="#602B7A"/>
<path d="M394.693 97.7208C394.375 97.7208 394.057 97.7208 393.739 97.7208C391.831 97.4027 389.922 96.4486 388.65 94.8584L366.069 65.9163L360.026 70.687C358.436 71.9591 356.528 72.5952 354.301 72.2772C352.393 71.9591 350.485 71.005 349.213 69.4148L333.629 49.378C331.084 46.1975 331.72 41.4268 334.901 38.8825L382.607 1.67127C384.198 0.399093 386.106 -0.236996 388.332 0.0810486C390.241 0.399093 392.149 1.35321 393.421 2.94343L436.039 57.9652C437.311 59.5554 437.947 61.4637 437.629 63.69C437.311 65.5983 436.357 67.5065 434.767 68.7787L398.828 96.7666C397.874 97.0847 396.283 97.7208 394.693 97.7208ZM366.705 61.1456L391.195 92.632C391.831 93.5862 392.785 94.2223 394.057 94.2223C395.329 94.2223 396.283 93.9043 397.238 93.2682L433.177 65.2802C434.131 64.6441 434.767 63.69 434.767 62.4178C434.767 61.1456 434.449 60.1915 433.813 59.2373L391.195 4.21564C390.559 3.26151 389.604 2.62542 388.332 2.62542C387.06 2.62542 386.106 2.94342 385.152 3.57951L337.445 40.7908C335.537 42.381 335.219 44.9253 336.809 46.8336L352.393 66.8704C353.029 67.8246 353.983 68.4607 355.256 68.4607C356.528 68.4607 357.482 68.1426 358.436 67.5065L366.705 61.1456Z" fill="#DDF0FB"/>
</g>
</svg>
