<svg width="710" height="538" viewBox="0 0 710 538" fill="none" xmlns="http://www.w3.org/2000/svg">
<g opacity="0.05">
<path d="M288.006 516.513L267.994 521.196L288.006 525.879V530.562L259.729 523.675V518.717L288.006 511.83V516.513Z" fill="#DDF0FB"/>
<path d="M308.886 538L289.309 502.464H297.574L317.151 538H308.886Z" fill="#DDF0FB"/>
<path d="M347.172 518.717V523.675L318.895 530.562V525.879L338.906 521.196L318.895 516.513V511.83L347.172 518.717Z" fill="#DDF0FB"/>
<path d="M347.17 428.086L331.073 431.392L324.983 441.86L319.327 431.667L303.23 428.086L319.762 424.229L324.983 414.037L331.073 424.229L347.17 428.086Z" fill="#DDF0FB"/>
<path d="M221.44 522.849L207.084 525.879L201.428 535.245L196.643 526.155L181.852 522.849L196.643 519.268L201.428 510.177L207.084 519.543L221.44 522.849Z" fill="#DDF0FB"/>
<path d="M195.338 452.052H210.564V485.385H243.193V493.098H195.338V452.052Z" fill="#DDF0FB"/>
<path d="M281.912 471.06H266.685L263.64 475.467H257.984L271.471 456.184H277.126L290.613 475.467H284.957L281.912 471.06ZM279.736 468.305L274.081 460.041L268.425 468.305H279.736Z" fill="#DDF0FB"/>
<path d="M320.195 467.203C321.065 468.029 321.5 469.131 321.5 470.233C321.5 471.886 320.63 473.263 318.455 474.09C316.279 474.916 313.669 475.467 309.754 475.467H294.527V456.184H308.884C312.364 456.184 315.409 456.735 317.15 457.561C318.89 458.388 320.195 459.765 320.195 461.143C320.195 461.969 319.76 463.071 319.325 463.622C318.89 464.173 317.585 464.999 316.279 465.275C317.585 465.826 318.89 466.377 320.195 467.203ZM300.183 459.214V464.448H308.014C310.189 464.448 311.494 464.173 312.364 463.897C313.234 463.346 314.104 462.795 314.104 461.969C314.104 461.143 313.669 460.316 312.364 460.041C311.494 459.49 309.754 459.49 308.014 459.49H300.183V459.214ZM315.844 469.958C315.844 468.029 313.669 467.203 309.319 467.203H300.183V472.713H309.319C313.669 472.713 315.844 471.886 315.844 469.958Z" fill="#DDF0FB"/>
<path d="M333.247 474.641C330.637 473.814 328.896 472.712 327.591 471.06C326.286 469.682 325.416 467.754 325.416 466.101C325.416 464.173 326.286 462.52 327.591 461.143C328.896 459.765 331.072 458.388 333.247 457.561C335.857 456.735 338.467 456.184 341.513 456.184C344.123 456.184 346.298 456.46 348.473 457.01C350.648 457.561 352.389 458.388 353.694 459.49L350.213 461.694C348.038 460.316 345.428 459.49 341.948 459.49C339.772 459.49 338.032 459.765 336.292 460.316C334.552 460.867 333.247 461.694 332.377 462.795C331.507 463.897 331.072 464.999 331.072 466.377C331.072 467.754 331.507 468.856 332.377 469.958C333.247 471.06 334.552 471.886 336.292 472.437C338.032 472.988 339.772 473.263 341.948 473.263C344.993 473.263 348.038 472.437 350.213 471.06L353.694 473.263C352.389 474.365 350.648 475.192 348.473 475.743C346.298 476.294 344.123 476.569 341.513 476.569C338.467 475.743 335.857 475.467 333.247 474.641Z" fill="#DDF0FB"/>
<path d="M242.759 455.083C239.714 455.083 237.103 454.532 234.928 453.705C232.318 452.603 227.967 449.573 231.013 442.135C234.928 433.871 231.448 426.709 221.877 423.128C213.176 419.822 199.69 419.822 187.508 427.26C186.638 427.811 185.333 427.811 184.463 427.26C183.593 426.709 183.593 425.882 184.463 425.332C196.209 418.169 211.871 416.516 224.052 420.924C235.363 425.056 239.278 433.32 234.928 442.962C233.623 445.992 232.753 449.849 237.103 451.502C241.454 453.43 250.155 452.052 256.68 448.747C264.076 445.166 267.121 439.932 264.076 434.973C263.641 434.147 264.076 433.596 265.381 433.32C266.686 433.045 267.556 433.32 267.991 434.147C271.472 440.207 267.991 446.543 259.29 450.951C254.07 453.705 247.979 455.083 242.759 455.083Z" fill="#DDF0FB"/>
<path d="M343.688 503.015C337.597 503.015 332.377 499.985 332.377 495.853C332.377 491.721 337.162 488.69 343.688 488.69C350.214 488.69 354.999 491.721 354.999 495.853C354.999 499.985 349.779 503.015 343.688 503.015ZM343.688 491.721C339.773 491.721 336.727 493.649 336.727 496.128C336.727 498.608 339.773 500.536 343.688 500.536C347.603 500.536 350.649 498.608 350.649 496.128C350.649 493.649 347.603 491.721 343.688 491.721Z" fill="#DDF0FB"/>
<path d="M275.385 417.894C271.035 417.894 267.555 415.69 267.555 412.935C267.555 410.181 271.035 407.977 275.385 407.977C279.736 407.977 283.216 410.181 283.216 412.935C283.216 415.69 279.736 417.894 275.385 417.894ZM275.385 409.905C272.775 409.905 270.6 411.282 270.6 412.935C270.6 414.588 272.775 415.966 275.385 415.966C277.996 415.966 280.171 414.588 280.171 412.935C280.171 411.282 277.996 409.905 275.385 409.905Z" fill="#DDF0FB"/>
<path d="M288.006 380.704L267.994 385.387L288.006 390.07V394.753L259.729 387.867V382.908L288.006 376.021V380.704Z" fill="#DDF0FB"/>
<path d="M308.886 402.191L289.309 366.655H297.574L317.151 402.191H308.886Z" fill="#DDF0FB"/>
<path d="M347.172 382.632V387.591L318.895 394.478V389.795L338.906 385.112L318.895 380.429V375.746L347.172 382.632Z" fill="#DDF0FB"/>
<path d="M347.17 292.002L331.073 295.583L324.983 306.051L319.327 295.859L303.23 292.002L319.762 288.145L324.983 278.228L331.073 288.421L347.17 292.002Z" fill="#DDF0FB"/>
<path d="M221.44 386.765L207.084 390.071L201.428 399.437L196.643 390.346L181.852 386.765L196.643 383.459L201.428 374.369L207.084 383.459L221.44 386.765Z" fill="#DDF0FB"/>
<path d="M195.338 316.244H210.564V349.576H243.193V357.289H195.338V316.244Z" fill="#DDF0FB"/>
<path d="M281.914 335.252H266.687L263.642 339.659H257.986L271.473 320.376H277.128L290.615 339.659H284.959L281.914 335.252ZM279.738 332.221L274.083 323.957L268.427 332.221H279.738Z" fill="#DDF0FB"/>
<path d="M320.197 331.395C321.067 332.221 321.502 333.323 321.502 334.425C321.502 336.078 320.632 337.455 318.457 338.282C316.281 339.108 313.671 339.659 309.756 339.659H294.529V320.376H308.886C312.366 320.376 315.411 320.927 317.151 321.753C318.892 322.58 320.197 323.957 320.197 325.334C320.197 326.161 319.762 327.263 319.327 327.814C318.892 328.365 317.587 329.191 316.281 329.467C317.587 330.018 318.892 330.569 320.197 331.395ZM300.185 323.131V328.365H308.016C310.191 328.365 311.496 328.089 312.366 327.814C313.236 327.263 314.106 326.712 314.106 325.885C314.106 325.059 313.671 324.233 312.366 323.957C311.496 323.406 309.756 323.406 308.016 323.406H300.185V323.131ZM315.846 334.15C315.846 332.221 313.671 331.395 309.321 331.395H300.185V336.904H309.321C313.671 336.904 315.846 335.803 315.846 334.15Z" fill="#DDF0FB"/>
<path d="M333.247 338.557C330.637 337.731 328.896 336.629 327.591 334.976C326.286 333.599 325.416 331.67 325.416 330.018C325.416 328.089 326.286 326.436 327.591 325.059C328.896 323.682 331.072 322.304 333.247 321.478C335.857 320.652 338.467 320.101 341.513 320.101C344.123 320.101 346.298 320.376 348.473 320.927C350.648 321.478 352.389 322.304 353.694 323.406L350.213 325.61C348.038 324.233 345.428 323.406 341.948 323.406C339.772 323.406 338.032 323.682 336.292 324.233C334.552 324.784 333.247 325.61 332.377 326.712C331.507 327.814 331.072 328.916 331.072 330.293C331.072 331.67 331.507 332.772 332.377 333.874C333.247 334.976 334.552 335.803 336.292 336.354C338.032 336.904 339.772 337.18 341.948 337.18C344.993 337.18 348.038 336.354 350.213 334.976L353.694 337.18C352.389 338.282 350.648 339.108 348.473 339.659C346.298 340.21 344.123 340.486 341.513 340.486C338.467 339.935 335.857 339.384 333.247 338.557Z" fill="#DDF0FB"/>
<path d="M242.759 319.274C239.714 319.274 237.103 318.723 234.928 317.897C232.318 316.795 227.967 313.765 231.013 306.327C234.928 298.063 231.448 290.9 221.877 287.319C213.176 284.014 199.69 284.014 187.508 291.451C186.638 292.002 185.333 292.002 184.463 291.451C183.593 290.9 183.593 290.074 184.463 289.523C196.209 282.361 211.871 280.708 224.052 285.115C235.363 289.247 239.278 297.512 234.928 307.153C233.623 310.183 232.753 314.04 237.103 315.693C241.454 317.621 250.155 316.244 256.68 312.938C264.076 309.357 267.121 304.123 264.076 299.165C263.641 298.338 264.076 297.787 265.381 297.512C266.686 297.236 267.556 297.512 267.991 298.338C271.472 304.399 267.991 310.734 259.29 315.142C254.07 317.897 247.979 319.274 242.759 319.274Z" fill="#DDF0FB"/>
<path d="M343.688 366.931C337.597 366.931 332.377 363.901 332.377 359.769C332.377 355.636 337.162 352.606 343.688 352.606C350.214 352.606 354.999 355.636 354.999 359.769C354.999 363.901 349.779 366.931 343.688 366.931ZM343.688 355.636C339.773 355.636 336.727 357.565 336.727 360.044C336.727 362.523 339.773 364.452 343.688 364.452C347.603 364.452 350.649 362.523 350.649 360.044C350.649 357.565 347.603 355.636 343.688 355.636Z" fill="#DDF0FB"/>
<path d="M275.385 282.085C271.035 282.085 267.555 279.881 267.555 277.126C267.555 274.372 271.035 272.168 275.385 272.168C279.736 272.168 283.216 274.372 283.216 277.126C283.216 279.606 279.736 282.085 275.385 282.085ZM275.385 273.821C272.775 273.821 270.6 275.198 270.6 276.851C270.6 278.504 272.775 279.881 275.385 279.881C277.996 279.881 280.171 278.504 280.171 276.851C280.171 275.198 277.996 273.821 275.385 273.821Z" fill="#DDF0FB"/>
<path d="M288.006 244.621L267.994 249.304L288.006 253.987V258.67L259.729 251.783V246.825L288.006 239.938V244.621Z" fill="#DDF0FB"/>
<path d="M308.886 266.108L289.309 230.572H297.574L317.151 266.108H308.886Z" fill="#DDF0FB"/>
<path d="M347.172 246.825V251.783L318.895 258.67V253.987L338.906 249.304L318.895 244.621V239.938L347.172 246.825Z" fill="#DDF0FB"/>
<path d="M347.17 156.194L331.073 159.775L324.983 169.967L319.327 159.775L303.23 156.194L319.762 152.337L324.983 142.145L331.073 152.613L347.17 156.194Z" fill="#DDF0FB"/>
<path d="M221.44 250.956L207.084 253.987L201.428 263.353L196.643 254.262L181.852 250.956L196.643 247.375L201.428 238.285L207.084 247.651L221.44 250.956Z" fill="#DDF0FB"/>
<path d="M195.338 180.16H210.564V213.492H243.193V221.205H195.338V180.16Z" fill="#DDF0FB"/>
<path d="M281.912 199.168H266.685L263.64 203.575H257.984L271.471 184.292H277.126L290.613 203.575H284.957L281.912 199.168ZM279.736 196.413L274.081 188.149L268.425 196.413H279.736Z" fill="#DDF0FB"/>
<path d="M320.195 195.311C321.065 196.137 321.5 197.239 321.5 198.341C321.5 199.994 320.63 201.371 318.455 202.198C316.279 203.024 313.669 203.575 309.754 203.575H294.527V184.292H308.884C312.364 184.292 315.409 184.843 317.15 185.669C318.89 186.496 320.195 187.873 320.195 189.251C320.195 190.077 319.76 191.179 319.325 191.73C318.89 192.281 317.585 193.107 316.279 193.383C317.585 193.934 318.89 194.485 320.195 195.311ZM300.183 187.322V192.556H308.014C310.189 192.556 311.494 192.281 312.364 192.005C313.234 191.454 314.104 190.903 314.104 190.077C314.104 189.251 313.669 188.424 312.364 188.149C311.494 187.598 309.754 187.598 308.014 187.598H300.183V187.322ZM315.844 198.066C315.844 196.137 313.669 195.311 309.319 195.311H300.183V200.82H309.319C313.669 200.82 315.844 199.994 315.844 198.066Z" fill="#DDF0FB"/>
<path d="M333.247 202.749C330.637 201.922 328.896 200.82 327.591 199.168C326.286 197.79 325.416 195.862 325.416 194.209C325.416 192.281 326.286 190.628 327.591 189.251C328.896 187.873 331.072 186.496 333.247 185.669C335.857 184.843 338.467 184.292 341.513 184.292C344.123 184.292 346.298 184.567 348.473 185.118C350.648 185.669 352.389 186.496 353.694 187.598L350.213 189.801C348.038 188.424 345.428 187.598 341.948 187.598C339.772 187.598 338.032 187.873 336.292 188.424C334.552 188.975 333.247 189.801 332.377 190.903C331.507 192.005 331.072 193.107 331.072 194.485C331.072 195.862 331.507 196.964 332.377 198.066C333.247 199.168 334.552 199.994 336.292 200.545C338.032 201.096 339.772 201.371 341.948 201.371C344.993 201.371 348.038 200.545 350.213 199.168L353.694 201.371C352.389 202.473 350.648 203.3 348.473 203.851C346.298 204.402 344.123 204.677 341.513 204.677C338.467 203.851 335.857 203.575 333.247 202.749Z" fill="#DDF0FB"/>
<path d="M242.759 183.19C239.714 183.19 237.103 182.639 234.928 181.813C232.318 180.711 227.967 177.68 231.013 170.243C234.928 161.978 231.448 154.816 221.877 151.235C213.176 147.929 199.69 147.929 187.508 155.367C186.638 155.918 185.333 155.918 184.463 155.367C183.593 154.816 183.593 153.99 184.463 153.439C196.209 146.276 211.871 144.624 224.052 149.031C235.363 153.163 239.278 161.427 234.928 171.069C233.623 174.099 232.753 177.956 237.103 179.609C241.454 181.537 250.155 180.16 256.68 176.854C264.076 173.273 267.121 168.039 264.076 163.08C263.641 162.254 264.076 161.703 265.381 161.427C266.686 161.152 267.556 161.427 267.991 162.254C271.472 168.314 267.991 174.65 259.29 179.058C254.07 181.813 247.979 183.19 242.759 183.19Z" fill="#DDF0FB"/>
<path d="M343.688 231.122C337.597 231.122 332.377 228.092 332.377 223.96C332.377 219.828 337.162 216.798 343.688 216.798C350.214 216.798 354.999 219.828 354.999 223.96C354.999 228.092 349.779 231.122 343.688 231.122ZM343.688 219.828C339.773 219.828 336.727 221.756 336.727 224.236C336.727 226.715 339.773 228.643 343.688 228.643C347.603 228.643 350.649 226.715 350.649 224.236C350.649 221.756 347.603 219.828 343.688 219.828Z" fill="#DDF0FB"/>
<path d="M275.385 146.001C271.035 146.001 267.555 143.797 267.555 141.043C267.555 138.288 271.035 136.084 275.385 136.084C279.736 136.084 283.216 138.288 283.216 141.043C283.216 143.797 279.736 146.001 275.385 146.001ZM275.385 138.012C272.775 138.012 270.6 139.39 270.6 141.043C270.6 142.695 272.775 144.073 275.385 144.073C277.996 144.073 280.171 142.695 280.171 141.043C280.171 139.39 277.996 138.012 275.385 138.012Z" fill="#DDF0FB"/>
<path d="M288.006 108.812L267.994 113.496L288.006 118.179V122.862L259.729 115.975V111.016L288.006 104.129V108.812Z" fill="#DDF0FB"/>
<path d="M308.886 130.299L289.309 94.7632H297.574L317.151 130.299H308.886Z" fill="#DDF0FB"/>
<path d="M347.172 110.741V115.699L318.895 122.586V117.903L338.906 113.22L318.895 108.537V103.854L347.172 110.741Z" fill="#DDF0FB"/>
<path d="M347.17 20.1096L331.073 23.6908L324.983 34.1588L319.327 23.9663L303.23 20.1096L319.762 16.253L324.983 6.33594L331.073 16.5285L347.17 20.1096Z" fill="#DDF0FB"/>
<path d="M221.44 114.872L207.084 118.178L201.428 127.544L196.643 118.454L181.852 114.872L196.643 111.567L201.428 102.476L207.084 111.567L221.44 114.872Z" fill="#DDF0FB"/>
<path d="M195.338 44.3513H210.564V77.6836H243.193V85.3969H195.338V44.3513Z" fill="#DDF0FB"/>
<path d="M281.914 63.3587H266.687L263.642 67.7663H257.986L271.473 48.4832H277.128L290.615 67.7663H284.959L281.914 63.3587ZM279.738 60.604L274.083 52.3398L268.427 60.604H279.738Z" fill="#DDF0FB"/>
<path d="M320.197 59.5021C321.067 60.3285 321.502 61.4304 321.502 62.5323C321.502 64.1852 320.632 65.5625 318.457 66.3889C316.281 67.2154 313.671 67.7663 309.756 67.7663H294.529V48.4832H308.886C312.366 48.4832 315.411 49.0341 317.151 49.8605C318.892 50.6869 320.197 52.0643 320.197 53.4417C320.197 54.2681 319.762 55.37 319.327 55.9209C318.892 56.4719 317.587 57.2983 316.281 57.5738C317.587 58.1247 318.892 58.6757 320.197 59.5021ZM300.185 51.2379V56.4719H308.016C310.191 56.4719 311.496 56.1964 312.366 55.9209C313.236 55.37 314.106 54.819 314.106 53.9926C314.106 53.1662 313.671 52.3398 312.366 52.0643C311.496 51.5134 309.756 51.5134 308.016 51.5134H300.185V51.2379ZM315.846 62.2568C315.846 60.3285 313.671 59.5021 309.321 59.5021H300.185V65.0116H309.321C313.671 65.0116 315.846 63.9097 315.846 62.2568Z" fill="#DDF0FB"/>
<path d="M333.247 66.6645C330.637 65.8381 328.896 64.7362 327.591 63.0833C326.286 61.706 325.416 59.7777 325.416 58.1248C325.416 56.1965 326.286 54.5437 327.591 53.1663C328.896 51.7889 331.072 50.4116 333.247 49.5851C335.857 48.7587 338.467 48.2078 341.513 48.2078C344.123 48.2078 346.298 48.4832 348.473 49.0342C350.648 49.5851 352.389 50.4116 353.694 51.5134L350.213 53.7172C348.038 52.3399 345.428 51.5134 341.948 51.5134C339.772 51.5134 338.032 51.7889 336.292 52.3399C334.552 52.8908 333.247 53.7172 332.377 54.8191C331.507 55.921 331.072 57.0229 331.072 58.4003C331.072 59.7777 331.507 60.8796 332.377 61.9814C333.247 63.0833 334.552 63.9098 336.292 64.4607C338.032 65.0117 339.772 65.2871 341.948 65.2871C344.993 65.2871 348.038 64.4607 350.213 63.0833L353.694 65.2871C352.389 66.389 350.648 67.2154 348.473 67.7664C346.298 68.3173 344.123 68.5928 341.513 68.5928C338.467 68.0419 335.857 67.4909 333.247 66.6645Z" fill="#DDF0FB"/>
<path d="M242.759 47.3813C239.714 47.3813 237.103 46.8303 234.928 46.0039C232.318 44.902 227.967 41.8718 231.013 34.434C234.928 26.1698 231.448 19.0075 221.877 15.4264C213.176 12.1207 199.69 12.1207 187.508 19.5585C186.638 20.1094 185.333 20.1094 184.463 19.5585C183.593 19.0075 183.593 18.1811 184.463 17.6301C196.209 10.4678 211.871 8.81499 224.052 13.2226C235.363 17.3547 239.278 25.6189 234.928 35.2605C233.623 38.2907 232.753 42.1473 237.103 43.8001C241.454 45.7285 250.155 44.3511 256.68 41.0454C264.076 37.4642 267.121 32.2302 264.076 27.2717C263.641 26.4453 264.076 25.8944 265.381 25.6189C266.686 25.3434 267.556 25.6189 267.991 26.4453C271.472 32.5057 267.991 38.8416 259.29 43.2492C254.07 46.0039 247.979 47.3813 242.759 47.3813Z" fill="#DDF0FB"/>
<path d="M343.688 95.0385C337.597 95.0385 332.377 92.0083 332.377 87.8762C332.377 83.7441 337.162 80.7139 343.688 80.7139C350.214 80.7139 354.999 83.7441 354.999 87.8762C354.999 92.0083 349.779 95.0385 343.688 95.0385ZM343.688 83.7441C339.773 83.7441 336.727 85.6724 336.727 88.1517C336.727 90.6309 339.773 92.5592 343.688 92.5592C347.603 92.5592 350.649 90.6309 350.649 88.1517C350.649 85.6724 347.603 83.7441 343.688 83.7441Z" fill="#DDF0FB"/>
<path d="M275.385 10.1924C271.035 10.1924 267.555 7.98865 267.555 5.23392C267.555 2.47918 271.035 0.275391 275.385 0.275391C279.736 0.275391 283.216 2.47918 283.216 5.23392C283.216 7.98865 279.736 10.1924 275.385 10.1924ZM275.385 1.92823C272.775 1.92823 270.6 3.3056 270.6 4.95844C270.6 6.61128 272.775 7.98865 275.385 7.98865C277.996 7.98865 280.171 6.61128 280.171 4.95844C280.171 3.3056 277.996 1.92823 275.385 1.92823Z" fill="#DDF0FB"/>
<path d="M104.85 516.513L84.8381 521.196L104.85 525.879V530.562L76.5723 523.675V518.717L104.85 511.83V516.513Z" fill="#DDF0FB"/>
<path d="M125.298 538L105.721 502.464H113.986L133.563 538H125.298Z" fill="#DDF0FB"/>
<path d="M163.58 518.717V523.675L135.303 530.562V525.879L155.315 521.196L135.303 516.513V511.83L163.58 518.717Z" fill="#DDF0FB"/>
<path d="M164.017 428.086L147.92 431.392L141.83 441.86L136.174 431.667L119.643 428.086L136.174 424.229L141.83 414.037L147.92 424.229L164.017 428.086Z" fill="#DDF0FB"/>
<path d="M37.853 522.849L23.9317 525.879L18.2761 535.245L13.0556 526.155L-1.30078 522.849L13.4907 519.268L18.2761 510.177L23.4967 519.543L37.853 522.849Z" fill="#DDF0FB"/>
<path d="M12.1855 452.052H27.412V485.385H60.0402V493.098H12.1855V452.052Z" fill="#DDF0FB"/>
<path d="M98.3258 471.06H83.0993L80.054 475.467H74.3984L87.8847 456.184H93.5403L107.027 475.467H100.936L98.3258 471.06ZM96.5856 468.305L90.9301 460.041L85.2745 468.305H96.5856Z" fill="#DDF0FB"/>
<path d="M136.609 467.203C137.479 468.029 137.914 469.131 137.914 470.233C137.914 471.886 137.044 473.263 134.869 474.09C132.694 474.916 130.083 475.467 126.168 475.467H110.941V456.184H125.298C128.778 456.184 131.823 456.735 133.564 457.561C135.304 458.388 136.609 459.765 136.609 461.143C136.609 461.969 136.174 463.071 135.739 463.622C135.304 464.173 133.999 464.999 132.694 465.275C134.434 465.826 135.739 466.377 136.609 467.203ZM117.032 459.214V464.448H124.863C127.038 464.448 128.343 464.173 129.213 463.897C130.083 463.346 130.953 462.795 130.953 461.969C130.953 461.143 130.518 460.316 129.213 460.041C128.343 459.49 126.603 459.49 124.863 459.49H117.032V459.214ZM132.694 469.958C132.694 468.029 130.518 467.203 126.168 467.203H117.032V472.713H126.168C130.518 472.713 132.694 471.886 132.694 469.958Z" fill="#DDF0FB"/>
<path d="M150.096 474.641C147.486 473.814 145.746 472.712 144.441 471.06C143.136 469.682 142.266 467.754 142.266 466.101C142.266 464.173 143.136 462.52 144.441 461.143C145.746 459.765 147.921 458.388 150.096 457.561C152.707 456.735 155.317 456.184 158.362 456.184C160.972 456.184 163.148 456.46 165.323 457.01C167.498 457.561 169.238 458.388 170.543 459.49L167.063 461.694C164.888 460.316 162.278 459.49 158.797 459.49C156.622 459.49 154.882 459.765 153.142 460.316C151.402 460.867 150.096 461.694 149.226 462.795C148.356 463.897 147.921 464.999 147.921 466.377C147.921 467.754 148.356 468.856 149.226 469.958C150.096 471.06 151.402 471.886 153.142 472.437C154.882 472.988 156.622 473.263 158.797 473.263C161.843 473.263 164.888 472.437 167.063 471.06L170.543 473.263C169.238 474.365 167.498 475.192 165.323 475.743C163.148 476.294 160.972 476.569 158.362 476.569C155.317 475.743 152.272 475.467 150.096 474.641Z" fill="#DDF0FB"/>
<path d="M59.1709 455.083C56.1256 455.083 53.5154 454.532 51.3402 453.705C48.7299 452.603 44.3795 449.573 47.4248 442.135C51.3402 433.871 47.8598 426.709 38.2889 423.128C29.5881 419.822 16.1017 419.822 3.92054 427.26C3.05045 427.811 1.74531 427.811 0.87522 427.26C0.005135 426.709 0.005135 425.882 0.87522 425.332C12.6214 418.169 28.2829 416.516 40.4641 420.924C51.7752 425.056 55.6906 433.32 51.3402 442.962C50.035 445.992 49.165 449.849 53.5154 451.502C57.8658 453.43 66.5667 452.052 73.0923 448.747C80.488 445.166 83.5333 439.932 80.488 434.973C80.053 434.147 80.488 433.596 81.7932 433.32C83.0983 433.045 83.9684 433.32 84.4034 434.147C87.8837 440.207 84.4034 446.543 75.7026 450.951C70.9171 453.705 64.8265 455.083 59.1709 455.083Z" fill="#DDF0FB"/>
<path d="M160.534 503.015C154.443 503.015 149.223 499.985 149.223 495.853C149.223 491.721 154.008 488.69 160.534 488.69C167.059 488.69 171.845 491.721 171.845 495.853C171.845 499.985 166.624 503.015 160.534 503.015ZM160.534 491.721C156.618 491.721 153.573 493.649 153.573 496.128C153.573 498.608 156.618 500.536 160.534 500.536C164.449 500.536 167.494 498.608 167.494 496.128C167.494 493.649 164.014 491.721 160.534 491.721Z" fill="#DDF0FB"/>
<path d="M91.7995 417.894C87.4491 417.894 83.9688 415.69 83.9688 412.935C83.9688 410.181 87.4491 407.977 91.7995 407.977C96.1499 407.977 99.6302 410.181 99.6302 412.935C99.6302 415.69 96.585 417.894 91.7995 417.894ZM91.7995 409.905C89.1892 409.905 87.014 411.282 87.014 412.935C87.014 414.588 89.1892 415.966 91.7995 415.966C94.4097 415.966 96.585 414.588 96.585 412.935C96.585 411.282 94.8448 409.905 91.7995 409.905Z" fill="#DDF0FB"/>
<path d="M104.85 380.704L84.8381 385.387L104.85 390.07V394.753L76.5723 387.867V382.908L104.85 376.021V380.704Z" fill="#DDF0FB"/>
<path d="M125.298 402.191L105.721 366.655H113.986L133.563 402.191H125.298Z" fill="#DDF0FB"/>
<path d="M163.58 382.632V387.591L135.303 394.478V389.795L155.315 385.112L135.303 380.429V375.746L163.58 382.632Z" fill="#DDF0FB"/>
<path d="M164.017 292.002L147.92 295.583L141.83 306.051L136.174 295.859L119.643 292.002L136.174 288.145L141.83 278.228L147.92 288.421L164.017 292.002Z" fill="#DDF0FB"/>
<path d="M37.853 386.765L23.9317 390.071L18.2761 399.437L13.0556 390.346L-1.30078 386.765L13.4907 383.459L18.2761 374.369L23.4967 383.459L37.853 386.765Z" fill="#DDF0FB"/>
<path d="M12.1855 316.244H27.412V349.576H60.0402V357.289H12.1855V316.244Z" fill="#DDF0FB"/>
<path d="M98.3258 335.252H83.0993L80.054 339.659H74.3984L87.8847 320.376H93.5403L107.027 339.659H100.936L98.3258 335.252ZM96.5856 332.221L90.9301 323.957L85.2745 332.221H96.5856Z" fill="#DDF0FB"/>
<path d="M136.609 331.395C137.479 332.221 137.914 333.323 137.914 334.425C137.914 336.078 137.044 337.455 134.869 338.282C132.694 339.108 130.083 339.659 126.168 339.659H110.941V320.376H125.298C128.778 320.376 131.823 320.927 133.564 321.753C135.304 322.58 136.609 323.957 136.609 325.334C136.609 326.161 136.174 327.263 135.739 327.814C135.304 328.365 133.999 329.191 132.694 329.467C134.434 330.018 135.739 330.569 136.609 331.395ZM117.032 323.131V328.365H124.863C127.038 328.365 128.343 328.089 129.213 327.814C130.083 327.263 130.953 326.712 130.953 325.885C130.953 325.059 130.518 324.233 129.213 323.957C128.343 323.406 126.603 323.406 124.863 323.406H117.032V323.131ZM132.694 334.15C132.694 332.221 130.518 331.395 126.168 331.395H117.032V336.904H126.168C130.518 336.904 132.694 335.803 132.694 334.15Z" fill="#DDF0FB"/>
<path d="M150.096 338.557C147.486 337.731 145.746 336.629 144.441 334.976C143.136 333.599 142.266 331.67 142.266 330.018C142.266 328.089 143.136 326.436 144.441 325.059C145.746 323.682 147.921 322.304 150.096 321.478C152.707 320.652 155.317 320.101 158.362 320.101C160.972 320.101 163.148 320.376 165.323 320.927C167.498 321.478 169.238 322.304 170.543 323.406L167.063 325.61C164.888 324.233 162.278 323.406 158.797 323.406C156.622 323.406 154.882 323.682 153.142 324.233C151.402 324.784 150.096 325.61 149.226 326.712C148.356 327.814 147.921 328.916 147.921 330.293C147.921 331.67 148.356 332.772 149.226 333.874C150.096 334.976 151.402 335.803 153.142 336.354C154.882 336.904 156.622 337.18 158.797 337.18C161.843 337.18 164.888 336.354 167.063 334.976L170.543 337.18C169.238 338.282 167.498 339.108 165.323 339.659C163.148 340.21 160.972 340.486 158.362 340.486C155.317 339.935 152.272 339.384 150.096 338.557Z" fill="#DDF0FB"/>
<path d="M59.1709 319.274C56.1256 319.274 53.5154 318.723 51.3402 317.897C48.7299 316.795 44.3795 313.765 47.4248 306.327C51.3402 298.063 47.8598 290.9 38.2889 287.319C29.5881 284.014 16.1017 284.014 3.92054 291.451C3.05045 292.002 1.74531 292.002 0.87522 291.451C0.005135 290.9 0.005135 290.074 0.87522 289.523C12.6214 282.361 28.2829 280.708 40.4641 285.115C51.7752 289.247 55.6906 297.512 51.3402 307.153C50.035 310.183 49.165 314.04 53.5154 315.693C57.8658 317.621 66.5667 316.244 73.0923 312.938C80.488 309.357 83.5333 304.123 80.488 299.165C80.053 298.338 80.488 297.787 81.7932 297.512C83.0983 297.236 83.9684 297.512 84.4034 298.338C87.8837 304.399 84.4034 310.734 75.7026 315.142C70.9171 317.897 64.8265 319.274 59.1709 319.274Z" fill="#DDF0FB"/>
<path d="M160.534 366.931C154.443 366.931 149.223 363.901 149.223 359.769C149.223 355.636 154.008 352.606 160.534 352.606C167.059 352.606 171.845 355.636 171.845 359.769C171.845 363.901 166.624 366.931 160.534 366.931ZM160.534 355.636C156.618 355.636 153.573 357.565 153.573 360.044C153.573 362.523 156.618 364.452 160.534 364.452C164.449 364.452 167.494 362.523 167.494 360.044C167.494 357.565 164.014 355.636 160.534 355.636Z" fill="#DDF0FB"/>
<path d="M91.7995 282.085C87.4491 282.085 83.9688 279.881 83.9688 277.126C83.9688 274.372 87.4491 272.168 91.7995 272.168C96.1499 272.168 99.6302 274.372 99.6302 277.126C100.065 279.606 96.585 282.085 91.7995 282.085ZM91.7995 273.821C89.1892 273.821 87.014 275.198 87.014 276.851C87.014 278.504 89.1892 279.881 91.7995 279.881C94.4097 279.881 96.585 278.504 96.585 276.851C97.02 275.198 94.8448 273.821 91.7995 273.821Z" fill="#DDF0FB"/>
<path d="M104.85 244.621L84.8381 249.304L104.85 253.987V258.67L76.5723 251.783V246.825L104.85 239.938V244.621Z" fill="#DDF0FB"/>
<path d="M125.298 266.108L105.721 230.572H113.986L133.563 266.108H125.298Z" fill="#DDF0FB"/>
<path d="M163.58 246.825V251.783L135.303 258.67V253.987L155.315 249.304L135.303 244.621V239.938L163.58 246.825Z" fill="#DDF0FB"/>
<path d="M164.017 156.194L147.92 159.775L141.83 169.967L136.174 159.775L119.643 156.194L136.174 152.337L141.83 142.145L147.92 152.613L164.017 156.194Z" fill="#DDF0FB"/>
<path d="M37.853 250.956L23.9317 253.987L18.2761 263.353L13.0556 254.262L-1.30078 250.956L13.4907 247.375L18.2761 238.285L23.4967 247.651L37.853 250.956Z" fill="#DDF0FB"/>
<path d="M12.1855 180.159H27.412V213.492H60.0402V221.205H12.1855V180.159Z" fill="#DDF0FB"/>
<path d="M98.3258 199.168H83.0993L80.054 203.575H74.3984L87.8847 184.292H93.5403L107.027 203.575H100.936L98.3258 199.168ZM96.5856 196.413L90.9301 188.149L85.2745 196.413H96.5856Z" fill="#DDF0FB"/>
<path d="M136.609 195.311C137.479 196.137 137.914 197.239 137.914 198.341C137.914 199.994 137.044 201.371 134.869 202.198C132.694 203.024 130.083 203.575 126.168 203.575H110.941V184.292H125.298C128.778 184.292 131.823 184.843 133.564 185.669C135.304 186.496 136.609 187.873 136.609 189.251C136.609 190.077 136.174 191.179 135.739 191.73C135.304 192.281 133.999 193.107 132.694 193.383C134.434 193.934 135.739 194.485 136.609 195.311ZM117.032 187.322V192.556H124.863C127.038 192.556 128.343 192.281 129.213 192.005C130.083 191.454 130.953 190.903 130.953 190.077C130.953 189.251 130.518 188.424 129.213 188.149C128.343 187.598 126.603 187.598 124.863 187.598H117.032V187.322ZM132.694 198.066C132.694 196.137 130.518 195.311 126.168 195.311H117.032V200.82H126.168C130.518 200.82 132.694 199.994 132.694 198.066Z" fill="#DDF0FB"/>
<path d="M150.096 202.749C147.486 201.922 145.746 200.82 144.441 199.168C143.136 197.79 142.266 195.862 142.266 194.209C142.266 192.281 143.136 190.628 144.441 189.251C145.746 187.873 147.921 186.496 150.096 185.669C152.707 184.843 155.317 184.292 158.362 184.292C160.972 184.292 163.148 184.567 165.323 185.118C167.498 185.669 169.238 186.496 170.543 187.598L167.063 189.801C164.888 188.424 162.278 187.598 158.797 187.598C156.622 187.598 154.882 187.873 153.142 188.424C151.402 188.975 150.096 189.801 149.226 190.903C148.356 192.005 147.921 193.107 147.921 194.485C147.921 195.862 148.356 196.964 149.226 198.066C150.096 199.168 151.402 199.994 153.142 200.545C154.882 201.096 156.622 201.371 158.797 201.371C161.843 201.371 164.888 200.545 167.063 199.168L170.543 201.371C169.238 202.473 167.498 203.3 165.323 203.851C163.148 204.402 160.972 204.677 158.362 204.677C155.317 203.851 152.272 203.575 150.096 202.749Z" fill="#DDF0FB"/>
<path d="M59.1709 183.19C56.1256 183.19 53.5154 182.639 51.3402 181.813C48.7299 180.711 44.3795 177.68 47.4248 170.243C51.3402 161.978 47.8598 154.816 38.2889 151.235C29.5881 147.929 16.1017 147.929 3.92054 155.367C3.05045 155.918 1.74531 155.918 0.87522 155.367C0.005135 154.816 0.005135 153.99 0.87522 153.439C12.6214 146.276 28.2829 144.624 40.4641 149.031C51.7752 153.163 55.6906 161.427 51.3402 171.069C50.035 174.099 49.165 177.956 53.5154 179.609C57.8658 181.537 66.5667 180.16 73.0923 176.854C80.488 173.273 83.5333 168.039 80.488 163.08C80.053 162.254 80.488 161.703 81.7932 161.427C83.0983 161.152 83.9684 161.427 84.4034 162.254C87.8837 168.314 84.4034 174.65 75.7026 179.058C70.9171 181.813 64.8265 183.19 59.1709 183.19Z" fill="#DDF0FB"/>
<path d="M160.534 231.122C154.443 231.122 149.223 228.092 149.223 223.96C149.223 219.828 154.008 216.798 160.534 216.798C167.059 216.798 171.845 219.828 171.845 223.96C171.845 228.092 166.624 231.122 160.534 231.122ZM160.534 219.828C156.618 219.828 153.573 221.756 153.573 224.236C153.573 226.715 156.618 228.643 160.534 228.643C164.449 228.643 167.494 226.715 167.494 224.236C167.494 221.756 164.014 219.828 160.534 219.828Z" fill="#DDF0FB"/>
<path d="M91.7995 146.001C87.4491 146.001 83.9688 143.797 83.9688 141.043C83.9688 138.288 87.4491 136.084 91.7995 136.084C96.1499 136.084 99.6302 138.288 99.6302 141.043C100.065 143.797 96.585 146.001 91.7995 146.001ZM91.7995 138.012C89.1892 138.012 87.014 139.39 87.014 141.043C87.014 142.695 89.1892 144.073 91.7995 144.073C94.4097 144.073 96.585 142.695 96.585 141.043C97.02 139.39 94.8448 138.012 91.7995 138.012Z" fill="#DDF0FB"/>
<path d="M104.852 108.812L84.8395 113.495L104.852 118.178V122.861L76.1387 115.699V110.741L104.416 103.854V108.812H104.852Z" fill="#DDF0FB"/>
<path d="M125.298 130.299L105.721 94.7632H113.986L133.563 130.299H125.298Z" fill="#DDF0FB"/>
<path d="M163.582 110.741V115.699L135.305 122.586V117.903L155.317 113.22L135.305 108.537V103.854L163.582 110.741Z" fill="#DDF0FB"/>
<path d="M164.017 20.1096L147.92 23.6908L141.83 34.1588L136.174 23.9663L119.643 20.1096L136.174 16.253L141.83 6.33594L147.92 16.5285L164.017 20.1096Z" fill="#DDF0FB"/>
<path d="M37.853 114.872L23.9317 118.178L18.2761 127.544L13.0556 118.454L-1.30078 114.872L13.4907 111.567L18.2761 102.476L23.4967 111.567L37.853 114.872Z" fill="#DDF0FB"/>
<path d="M12.1855 44.3513H27.412V77.6836H60.0402V85.3969H12.1855V44.3513Z" fill="#DDF0FB"/>
<path d="M98.3258 63.3587H83.0993L80.054 67.7663H74.3984L87.8847 48.4832H93.5403L107.027 67.7663H100.936L98.3258 63.3587ZM96.5856 60.604L90.9301 52.3398L85.2745 60.604H96.5856Z" fill="#DDF0FB"/>
<path d="M136.609 59.5021C137.479 60.3285 137.914 61.4304 137.914 62.5323C137.914 64.1852 137.044 65.5625 134.869 66.3889C132.694 67.2154 130.083 67.7663 126.168 67.7663H110.941V48.4832H125.298C128.778 48.4832 131.823 49.0341 133.564 49.8605C135.304 50.6869 136.609 52.0643 136.609 53.4417C136.609 54.2681 136.174 55.37 135.739 55.9209C135.304 56.4719 133.999 57.2983 132.694 57.5738C134.434 58.1247 135.739 58.6757 136.609 59.5021ZM117.032 51.2379V56.4719H124.863C127.038 56.4719 128.343 56.1964 129.213 55.9209C130.083 55.37 130.953 54.819 130.953 53.9926C130.953 53.1662 130.518 52.3398 129.213 52.0643C128.343 51.5134 126.603 51.5134 124.863 51.5134H117.032V51.2379ZM132.694 62.2568C132.694 60.3285 130.518 59.5021 126.168 59.5021H117.032V65.0116H126.168C130.518 65.0116 132.694 63.9097 132.694 62.2568Z" fill="#DDF0FB"/>
<path d="M150.096 66.6645C147.486 65.8381 145.746 64.7362 144.441 63.0833C143.136 61.706 142.266 59.7777 142.266 58.1248C142.266 56.1965 143.136 54.5437 144.441 53.1663C145.746 51.7889 147.921 50.4116 150.096 49.5851C152.707 48.7587 155.317 48.2078 158.362 48.2078C160.972 48.2078 163.148 48.4832 165.323 49.0342C167.498 49.5851 169.238 50.4116 170.543 51.5134L167.063 53.7172C164.888 52.3399 162.278 51.5134 158.797 51.5134C156.622 51.5134 154.882 51.7889 153.142 52.3399C151.402 52.8908 150.096 53.7172 149.226 54.8191C148.356 55.921 147.921 57.0229 147.921 58.4003C147.921 59.7777 148.356 60.8796 149.226 61.9814C150.096 63.0833 151.402 63.9098 153.142 64.4607C154.882 65.0117 156.622 65.2871 158.797 65.2871C161.843 65.2871 164.888 64.4607 167.063 63.0833L170.543 65.2871C169.238 66.389 167.498 67.2154 165.323 67.7664C163.148 68.3173 160.972 68.5928 158.362 68.5928C155.317 68.0419 152.272 67.4909 150.096 66.6645Z" fill="#DDF0FB"/>
<path d="M59.1709 47.3813C56.1256 47.3813 53.5154 46.8303 51.3402 46.0039C48.7299 44.902 44.3795 41.8718 47.4248 34.434C51.3402 26.1698 47.8598 19.0075 38.2889 15.4264C29.5881 12.1207 16.1017 12.1207 3.92054 19.5585C3.05045 20.1094 1.74531 20.1094 0.87522 19.5585C0.005135 19.0075 0.005135 18.1811 0.87522 17.6301C12.6214 10.4678 28.2829 8.81499 40.4641 13.2226C51.7752 17.3547 55.6906 25.6189 51.3402 35.2605C50.035 38.2907 49.165 42.1473 53.5154 43.8001C57.8658 45.7285 66.5667 44.3511 73.0923 41.0454C80.488 37.4642 83.5333 32.2302 80.488 27.2717C80.053 26.4453 80.488 25.8944 81.7932 25.6189C83.0983 25.3434 83.9684 25.6189 84.4034 26.4453C87.8837 32.5057 84.4034 38.8416 75.7026 43.2492C70.9171 46.0039 64.8265 47.3813 59.1709 47.3813Z" fill="#DDF0FB"/>
<path d="M160.534 95.0385C154.443 95.0385 149.223 92.0083 149.223 87.8762C149.223 83.7441 154.008 80.7139 160.534 80.7139C167.059 80.7139 171.845 83.7441 171.845 87.8762C171.845 92.0083 166.624 95.0385 160.534 95.0385ZM160.534 83.7441C156.618 83.7441 153.573 85.6724 153.573 88.1517C153.573 90.6309 156.618 92.5592 160.534 92.5592C164.449 92.5592 167.494 90.6309 167.494 88.1517C167.494 85.6724 164.014 83.7441 160.534 83.7441Z" fill="#DDF0FB"/>
<path d="M91.7995 10.1924C87.4491 10.1924 83.9688 7.98865 83.9688 5.23392C83.9688 2.47918 87.4491 0.275391 91.7995 0.275391C96.1499 0.275391 99.6302 2.47918 99.6302 5.23392C99.6302 7.98865 96.585 10.1924 91.7995 10.1924ZM91.7995 1.92823C89.1892 1.92823 87.014 3.3056 87.014 4.95844C87.014 6.61128 89.1892 7.98865 91.7995 7.98865C94.4097 7.98865 96.585 6.61128 96.585 4.95844C96.585 3.3056 94.8448 1.92823 91.7995 1.92823Z" fill="#DDF0FB"/>
</g>
<g opacity="0.05">
<path d="M488.123 516.513L468.112 521.196L488.123 525.879V530.562L459.846 523.675V518.717L488.123 511.83V516.513Z" fill="#DDF0FB"/>
<path d="M509.005 538L489.428 502.464H497.694L517.27 538H509.005Z" fill="#DDF0FB"/>
<path d="M547.289 518.717V523.675L519.012 530.562V525.879L539.024 521.196L519.012 516.513V511.83L547.289 518.717Z" fill="#DDF0FB"/>
<path d="M547.289 428.086L531.627 431.392L525.537 441.86L519.446 431.667L503.35 428.086L519.881 424.229L525.537 414.037L531.192 424.229L547.289 428.086Z" fill="#DDF0FB"/>
<path d="M421.562 522.849L407.205 525.879L401.985 535.245L396.764 526.155L381.973 522.849L396.764 519.268L401.985 510.177L407.205 519.543L421.562 522.849Z" fill="#DDF0FB"/>
<path d="M378.492 496.128L370.226 497.781L366.746 503.566L363.701 498.056L355 496.128L363.701 493.924L366.746 488.69L369.791 494.2L378.492 496.128Z" fill="#DDF0FB"/>
<path d="M395.459 452.052H410.685V485.385H443.314V493.098H395.459V452.052Z" fill="#DDF0FB"/>
<path d="M482.033 471.06H466.806L463.761 475.467H458.105L471.592 456.184H477.247L490.734 475.467H484.643L482.033 471.06ZM480.293 468.305L474.637 460.041L468.982 468.305H480.293Z" fill="#DDF0FB"/>
<path d="M520.316 467.203C521.186 468.029 521.621 469.131 521.621 470.233C521.621 471.886 520.751 473.263 518.576 474.09C516.401 474.916 513.79 475.467 509.875 475.467H494.648V456.184H509.005C512.485 456.184 515.53 456.735 517.271 457.561C519.011 458.388 520.316 459.765 520.316 461.143C520.316 461.969 519.881 463.071 519.446 463.622C519.011 464.173 517.706 464.999 516.401 465.275C518.141 465.826 519.446 466.377 520.316 467.203ZM500.304 459.214V464.448H508.135C510.31 464.448 511.615 464.173 512.485 463.897C513.355 463.346 514.225 462.795 514.225 461.969C514.225 461.143 513.79 460.316 512.485 460.041C511.615 459.49 509.875 459.49 508.135 459.49H500.304V459.214ZM515.966 469.958C515.966 468.029 513.79 467.203 509.44 467.203H500.304V472.713H509.44C513.79 472.713 515.966 471.886 515.966 469.958Z" fill="#DDF0FB"/>
<path d="M533.368 474.641C530.758 473.814 529.017 472.712 527.712 471.06C526.407 469.682 525.537 467.754 525.537 466.101C525.537 464.173 526.407 462.52 527.712 461.143C529.017 459.765 531.193 458.388 533.368 457.561C535.978 456.735 538.588 456.184 541.634 456.184C544.244 456.184 546.419 456.46 548.594 457.01C550.77 457.561 552.51 458.388 553.815 459.49L550.335 461.694C548.159 460.316 545.549 459.49 542.069 459.49C539.894 459.49 538.153 459.765 536.413 460.316C534.673 460.867 533.368 461.694 532.498 462.795C531.628 463.897 531.193 464.999 531.193 466.377C531.193 467.754 531.628 468.856 532.498 469.958C533.368 471.06 534.673 471.886 536.413 472.437C538.153 472.988 539.894 473.263 542.069 473.263C545.114 473.263 548.159 472.437 550.335 471.06L553.815 473.263C552.51 474.365 550.77 475.192 548.594 475.743C546.419 476.294 544.244 476.569 541.634 476.569C538.588 475.743 535.978 475.467 533.368 474.641Z" fill="#DDF0FB"/>
<path d="M442.878 455.083C439.833 455.083 437.222 454.532 435.047 453.705C432.437 452.603 428.087 449.573 431.132 442.135C435.047 433.871 431.567 426.709 421.996 423.128C413.295 419.822 399.809 419.822 387.628 427.26C386.757 427.811 385.452 427.811 384.582 427.26C383.712 426.709 383.712 425.882 384.582 425.332C396.328 418.169 411.99 416.516 424.171 420.924C435.482 425.056 439.398 433.32 435.047 442.962C433.742 445.992 432.872 449.849 437.222 451.502C441.573 453.43 450.274 452.052 456.799 448.747C464.195 445.166 467.24 439.932 464.195 434.973C463.76 434.147 464.195 433.596 465.5 433.32C466.805 433.045 467.675 433.32 468.11 434.147C471.591 440.207 468.11 446.543 459.41 450.951C454.624 453.705 448.098 455.083 442.878 455.083Z" fill="#DDF0FB"/>
<path d="M543.809 503.015C537.719 503.015 532.498 499.985 532.498 495.853C532.498 491.72 537.284 488.69 543.809 488.69C550.335 488.69 555.12 491.72 555.12 495.853C555.12 499.985 549.9 503.015 543.809 503.015ZM543.809 491.72C539.894 491.72 536.848 493.649 536.848 496.128C536.848 498.607 539.894 500.536 543.809 500.536C547.725 500.536 550.77 498.607 550.77 496.128C550.77 493.649 547.725 491.72 543.809 491.72Z" fill="#DDF0FB"/>
<path d="M365.44 461.694C361.09 461.694 357.609 459.49 357.609 456.735C357.609 453.981 361.09 451.777 365.44 451.777C369.791 451.777 373.271 453.981 373.271 456.735C373.271 459.49 369.791 461.694 365.44 461.694ZM365.44 453.705C362.83 453.705 360.655 455.083 360.655 456.735C360.655 458.388 362.83 459.766 365.44 459.766C368.05 459.766 370.226 458.388 370.226 456.735C370.226 455.083 368.05 453.705 365.44 453.705Z" fill="#DDF0FB"/>
<path d="M475.507 417.894C471.156 417.894 467.676 415.69 467.676 412.935C467.676 410.181 471.156 407.977 475.507 407.977C479.857 407.977 483.337 410.181 483.337 412.935C483.337 415.69 479.857 417.894 475.507 417.894ZM475.507 409.905C472.896 409.905 470.721 411.282 470.721 412.935C470.721 414.588 472.896 415.966 475.507 415.966C478.117 415.966 480.292 414.588 480.292 412.935C480.292 411.282 478.117 409.905 475.507 409.905Z" fill="#DDF0FB"/>
<path d="M703.471 516.513L683.459 521.196L703.471 525.879V530.562L675.193 523.675V518.717L703.471 511.83V516.513Z" fill="#DDF0FB"/>
<path d="M724.352 538L704.775 502.464H713.041L732.618 538H724.352Z" fill="#DDF0FB"/>
<path d="M636.907 522.849L622.551 525.879L616.895 535.245L612.11 526.155L597.318 522.849L612.11 519.268L616.895 510.177L622.551 519.543L636.907 522.849Z" fill="#DDF0FB"/>
<path d="M593.838 496.128L585.137 497.781L582.092 503.566L579.047 498.056L570.346 496.128L579.047 493.924L582.092 488.69L585.137 494.2L593.838 496.128Z" fill="#DDF0FB"/>
<path d="M610.805 452.052H626.031V485.385H658.659V493.098H610.805V452.052Z" fill="#DDF0FB"/>
<path d="M697.377 471.06H682.15L679.105 475.467H673.449L686.936 456.184H692.591L706.077 475.467H699.987L697.377 471.06ZM695.201 468.305L689.546 460.041L683.89 468.305H695.201Z" fill="#DDF0FB"/>
<path d="M735.66 467.203C736.53 468.029 736.965 469.131 736.965 470.233C736.965 471.886 736.095 473.263 733.92 474.09C731.744 474.916 729.134 475.467 725.219 475.467H709.992V456.184H724.349C727.829 456.184 730.874 456.735 732.614 457.561C734.355 458.388 735.66 459.765 735.66 461.143C735.66 461.969 735.225 463.071 734.79 463.622C734.355 464.173 733.049 464.999 731.744 465.275C733.049 465.826 734.355 466.377 735.66 467.203ZM715.648 459.214V464.448H723.478C725.654 464.448 726.959 464.173 727.829 463.897C728.699 463.346 729.569 462.795 729.569 461.969C729.569 461.143 729.134 460.316 727.829 460.041C726.959 459.49 725.219 459.49 723.478 459.49H715.648V459.214ZM731.309 469.958C731.309 468.029 729.134 467.203 724.784 467.203H715.648V472.713H724.784C729.134 472.713 731.309 471.886 731.309 469.958Z" fill="#DDF0FB"/>
<path d="M658.224 455.083C655.178 455.083 652.568 454.532 650.393 453.705C647.783 452.603 643.432 449.573 646.478 442.135C650.393 433.871 646.913 426.709 637.342 423.128C628.641 419.822 615.154 419.822 602.973 427.26C602.103 427.811 600.798 427.811 599.928 427.26C599.058 426.709 599.058 425.882 599.928 425.332C611.674 418.169 627.336 416.516 639.517 420.924C650.828 425.056 654.743 433.32 650.393 442.962C649.088 445.992 648.218 449.849 652.568 451.502C656.919 453.43 665.619 452.052 672.145 448.747C679.541 445.166 682.586 439.932 679.541 434.973C679.106 434.147 679.541 433.596 680.846 433.32C682.151 433.045 683.021 433.32 683.456 434.147C686.936 440.207 683.456 446.543 674.755 450.951C669.535 453.705 663.444 455.083 658.224 455.083Z" fill="#DDF0FB"/>
<path d="M580.788 461.694C576.437 461.694 572.957 459.49 572.957 456.735C572.957 453.981 576.437 451.777 580.788 451.777C585.138 451.777 588.619 453.981 588.619 456.735C588.619 459.49 585.138 461.694 580.788 461.694ZM580.788 453.705C578.178 453.705 576.002 455.083 576.002 456.735C576.002 458.388 578.178 459.766 580.788 459.766C583.398 459.766 585.573 458.388 585.573 456.735C585.573 455.083 583.398 453.705 580.788 453.705Z" fill="#DDF0FB"/>
<path d="M690.852 417.894C686.502 417.894 683.021 415.69 683.021 412.935C683.021 410.181 686.502 407.977 690.852 407.977C695.203 407.977 698.683 410.181 698.683 412.935C698.683 415.69 695.203 417.894 690.852 417.894ZM690.852 409.905C688.242 409.905 686.067 411.282 686.067 412.935C686.067 414.588 688.242 415.966 690.852 415.966C693.462 415.966 695.638 414.588 695.638 412.935C695.638 411.282 693.462 409.905 690.852 409.905Z" fill="#DDF0FB"/>
<path d="M488.123 380.704L468.112 385.387L488.123 390.07V394.753L459.846 387.867V382.908L488.123 376.021V380.704Z" fill="#DDF0FB"/>
<path d="M509.005 402.191L489.428 366.655H497.694L517.27 402.191H509.005Z" fill="#DDF0FB"/>
<path d="M547.289 382.632V387.591L519.012 394.478V389.795L539.024 385.112L519.012 380.429V375.746L547.289 382.632Z" fill="#DDF0FB"/>
<path d="M547.289 292.002L531.627 295.583L525.537 306.051L519.446 295.859L503.35 292.002L519.881 288.145L525.537 278.228L531.192 288.421L547.289 292.002Z" fill="#DDF0FB"/>
<path d="M421.562 386.765L407.205 390.071L401.985 399.437L396.764 390.346L381.973 386.765L396.764 383.459L401.985 374.369L407.205 383.459L421.562 386.765Z" fill="#DDF0FB"/>
<path d="M378.492 360.044L370.226 361.972L366.746 367.482L363.701 361.972L355 360.044L363.701 358.116L366.746 352.606L369.791 358.116L378.492 360.044Z" fill="#DDF0FB"/>
<path d="M395.459 316.244H410.685V349.576H443.314V357.289H395.459V316.244Z" fill="#DDF0FB"/>
<path d="M482.033 335.252H466.806L463.761 339.659H458.105L471.592 320.376H477.247L490.734 339.659H484.643L482.033 335.252ZM480.293 332.221L474.637 323.957L468.982 332.221H480.293Z" fill="#DDF0FB"/>
<path d="M520.316 331.395C521.186 332.221 521.621 333.323 521.621 334.425C521.621 336.078 520.751 337.455 518.576 338.282C516.401 339.108 513.79 339.659 509.875 339.659H494.648V320.376H509.005C512.485 320.376 515.53 320.927 517.271 321.753C519.011 322.58 520.316 323.957 520.316 325.334C520.316 326.161 519.881 327.263 519.446 327.814C519.011 328.365 517.706 329.191 516.401 329.467C518.141 330.018 519.446 330.569 520.316 331.395ZM500.304 323.131V328.365H508.135C510.31 328.365 511.615 328.089 512.485 327.814C513.355 327.263 514.225 326.712 514.225 325.885C514.225 325.059 513.79 324.233 512.485 323.957C511.615 323.406 509.875 323.406 508.135 323.406H500.304V323.131ZM515.966 334.15C515.966 332.221 513.79 331.395 509.44 331.395H500.304V336.904H509.44C513.79 336.904 515.966 335.803 515.966 334.15Z" fill="#DDF0FB"/>
<path d="M533.368 338.557C530.758 337.731 529.017 336.629 527.712 334.976C526.407 333.599 525.537 331.67 525.537 330.018C525.537 328.089 526.407 326.436 527.712 325.059C529.017 323.682 531.193 322.304 533.368 321.478C535.978 320.652 538.588 320.101 541.634 320.101C544.244 320.101 546.419 320.376 548.594 320.927C550.77 321.478 552.51 322.304 553.815 323.406L550.335 325.61C548.159 324.233 545.549 323.406 542.069 323.406C539.894 323.406 538.153 323.682 536.413 324.233C534.673 324.784 533.368 325.61 532.498 326.712C531.628 327.814 531.193 328.916 531.193 330.293C531.193 331.67 531.628 332.772 532.498 333.874C533.368 334.976 534.673 335.803 536.413 336.354C538.153 336.904 539.894 337.18 542.069 337.18C545.114 337.18 548.159 336.354 550.335 334.976L553.815 337.18C552.51 338.282 550.77 339.108 548.594 339.659C546.419 340.21 544.244 340.486 541.634 340.486C538.588 339.935 535.978 339.384 533.368 338.557Z" fill="#DDF0FB"/>
<path d="M442.878 319.274C439.833 319.274 437.222 318.723 435.047 317.897C432.437 316.795 428.087 313.765 431.132 306.327C435.047 298.063 431.567 290.9 421.996 287.319C413.295 284.014 399.809 284.014 387.628 291.451C386.757 292.002 385.452 292.002 384.582 291.451C383.712 290.9 383.712 290.074 384.582 289.523C396.328 282.361 411.99 280.708 424.171 285.115C435.482 289.247 439.398 297.512 435.047 307.153C433.742 310.183 432.872 314.04 437.222 315.693C441.573 317.621 450.274 316.244 456.799 312.938C464.195 309.357 467.24 304.123 464.195 299.165C463.76 298.338 464.195 297.787 465.5 297.512C466.805 297.236 467.675 297.512 468.11 298.338C471.591 304.399 468.11 310.734 459.41 315.142C454.624 317.897 448.098 319.274 442.878 319.274Z" fill="#DDF0FB"/>
<path d="M543.809 366.931C537.719 366.931 532.498 363.901 532.498 359.769C532.498 355.636 537.284 352.606 543.809 352.606C550.335 352.606 555.12 355.636 555.12 359.769C555.12 363.901 549.9 366.931 543.809 366.931ZM543.809 355.636C539.894 355.636 536.848 357.565 536.848 360.044C536.848 362.523 539.894 364.452 543.809 364.452C547.725 364.452 550.77 362.523 550.77 360.044C550.77 357.565 547.725 355.636 543.809 355.636Z" fill="#DDF0FB"/>
<path d="M365.44 325.885C361.09 325.885 357.609 323.682 357.609 320.927C357.609 318.172 361.09 315.968 365.44 315.968C369.791 315.968 373.271 318.172 373.271 320.927C373.706 323.682 369.791 325.885 365.44 325.885ZM365.44 317.621C362.83 317.621 360.655 318.998 360.655 320.651C360.655 322.304 362.83 323.682 365.44 323.682C368.05 323.682 370.226 322.304 370.226 320.651C370.226 318.998 368.05 317.621 365.44 317.621Z" fill="#DDF0FB"/>
<path d="M475.507 282.085C471.156 282.085 467.676 279.881 467.676 277.126C467.676 274.372 471.156 272.168 475.507 272.168C479.857 272.168 483.337 274.372 483.337 277.126C483.337 279.606 479.857 282.085 475.507 282.085ZM475.507 273.821C472.896 273.821 470.721 275.198 470.721 276.851C470.721 278.504 472.896 279.881 475.507 279.881C478.117 279.881 480.292 278.504 480.292 276.851C480.292 275.198 478.117 273.821 475.507 273.821Z" fill="#DDF0FB"/>
<path d="M703.471 380.704L683.459 385.387L703.471 390.07V394.753L675.193 387.867V382.908L703.471 376.021V380.704Z" fill="#DDF0FB"/>
<path d="M724.352 402.191L704.775 366.655H713.041L732.618 402.191H724.352Z" fill="#DDF0FB"/>
<path d="M636.907 386.765L622.551 390.071L616.895 399.437L612.11 390.346L597.318 386.765L612.11 383.459L616.895 374.369L622.551 383.459L636.907 386.765Z" fill="#DDF0FB"/>
<path d="M593.838 360.044L585.137 361.972L582.092 367.482L579.047 361.972L570.346 360.044L579.047 358.116L582.092 352.606L585.137 358.116L593.838 360.044Z" fill="#DDF0FB"/>
<path d="M610.805 316.244H626.031V349.576H658.659V357.289H610.805V316.244Z" fill="#DDF0FB"/>
<path d="M697.377 335.252H682.15L679.105 339.659H673.449L686.936 320.376H692.591L706.077 339.659H699.987L697.377 335.252ZM695.201 332.221L689.546 323.957L683.89 332.221H695.201Z" fill="#DDF0FB"/>
<path d="M735.66 331.395C736.53 332.221 736.965 333.323 736.965 334.425C736.965 336.078 736.095 337.455 733.92 338.282C731.744 339.108 729.134 339.659 725.219 339.659H709.992V320.376H724.349C727.829 320.376 730.874 320.927 732.614 321.753C734.355 322.58 735.66 323.957 735.66 325.334C735.66 326.161 735.225 327.263 734.79 327.814C734.355 328.365 733.049 329.191 731.744 329.467C733.049 330.018 734.355 330.569 735.66 331.395ZM715.648 323.131V328.365H723.478C725.654 328.365 726.959 328.089 727.829 327.814C728.699 327.263 729.569 326.712 729.569 325.885C729.569 325.059 729.134 324.233 727.829 323.957C726.959 323.406 725.219 323.406 723.478 323.406H715.648V323.131ZM731.309 334.15C731.309 332.221 729.134 331.395 724.784 331.395H715.648V336.904H724.784C729.134 336.904 731.309 335.803 731.309 334.15Z" fill="#DDF0FB"/>
<path d="M658.224 319.274C655.178 319.274 652.568 318.723 650.393 317.897C647.783 316.795 643.432 313.765 646.478 306.327C650.393 298.063 646.913 290.9 637.342 287.319C628.641 284.014 615.154 284.014 602.973 291.451C602.103 292.002 600.798 292.002 599.928 291.451C599.058 290.9 599.058 290.074 599.928 289.523C611.674 282.361 627.336 280.708 639.517 285.115C650.828 289.247 654.743 297.512 650.393 307.153C649.088 310.183 648.218 314.04 652.568 315.693C656.919 317.621 665.619 316.244 672.145 312.938C679.541 309.357 682.586 304.123 679.541 299.165C679.106 298.338 679.541 297.787 680.846 297.512C682.151 297.236 683.021 297.512 683.456 298.338C686.936 304.399 683.456 310.734 674.755 315.142C669.535 317.897 663.444 319.274 658.224 319.274Z" fill="#DDF0FB"/>
<path d="M580.788 325.885C576.437 325.885 572.957 323.682 572.957 320.927C572.957 318.172 576.437 315.968 580.788 315.968C585.138 315.968 588.619 318.172 588.619 320.927C588.619 323.682 585.138 325.885 580.788 325.885ZM580.788 317.621C578.178 317.621 576.002 318.998 576.002 320.651C576.002 322.304 578.178 323.682 580.788 323.682C583.398 323.682 585.573 322.304 585.573 320.651C585.573 318.998 583.398 317.621 580.788 317.621Z" fill="#DDF0FB"/>
<path d="M690.852 282.085C686.502 282.085 683.021 279.881 683.021 277.126C683.021 274.372 686.502 272.168 690.852 272.168C695.203 272.168 698.683 274.372 698.683 277.126C698.683 279.606 695.203 282.085 690.852 282.085ZM690.852 273.821C688.242 273.821 686.067 275.198 686.067 276.851C686.067 278.504 688.242 279.881 690.852 279.881C693.462 279.881 695.638 278.504 695.638 276.851C695.638 275.198 693.462 273.821 690.852 273.821Z" fill="#DDF0FB"/>
<path d="M488.123 244.621L468.112 249.304L488.123 253.987V258.67L459.846 251.783V246.825L488.123 239.938V244.621Z" fill="#DDF0FB"/>
<path d="M509.005 266.108L489.428 230.572H497.694L517.27 266.108H509.005Z" fill="#DDF0FB"/>
<path d="M547.289 246.825V251.783L519.012 258.67V253.987L539.024 249.304L519.012 244.621V239.938L547.289 246.825Z" fill="#DDF0FB"/>
<path d="M547.289 156.194L531.627 159.775L525.537 169.967L519.446 159.775L503.35 156.194L519.881 152.337L525.537 142.145L531.192 152.613L547.289 156.194Z" fill="#DDF0FB"/>
<path d="M421.562 250.956L407.205 253.987L401.985 263.353L396.764 254.262L381.973 250.956L396.764 247.375L401.985 238.285L407.205 247.651L421.562 250.956Z" fill="#DDF0FB"/>
<path d="M378.492 224.236L370.226 226.164L366.746 231.673L363.701 226.164L355 224.236L363.701 222.032L366.746 216.798L369.791 222.307L378.492 224.236Z" fill="#DDF0FB"/>
<path d="M395.459 180.159H410.685V213.492H443.314V221.205H395.459V180.159Z" fill="#DDF0FB"/>
<path d="M482.033 199.168H466.806L463.761 203.575H458.105L471.592 184.292H477.247L490.734 203.575H484.643L482.033 199.168ZM480.293 196.413L474.637 188.149L468.982 196.413H480.293Z" fill="#DDF0FB"/>
<path d="M520.316 195.311C521.186 196.137 521.621 197.239 521.621 198.341C521.621 199.994 520.751 201.371 518.576 202.198C516.401 203.024 513.79 203.575 509.875 203.575H494.648V184.292H509.005C512.485 184.292 515.53 184.843 517.271 185.669C519.011 186.496 520.316 187.873 520.316 189.251C520.316 190.077 519.881 191.179 519.446 191.73C519.011 192.281 517.706 193.107 516.401 193.383C518.141 193.934 519.446 194.485 520.316 195.311ZM500.304 187.322V192.556H508.135C510.31 192.556 511.615 192.281 512.485 192.005C513.355 191.454 514.225 190.903 514.225 190.077C514.225 189.251 513.79 188.424 512.485 188.149C511.615 187.598 509.875 187.598 508.135 187.598H500.304V187.322ZM515.966 198.066C515.966 196.137 513.79 195.311 509.44 195.311H500.304V200.82H509.44C513.79 200.82 515.966 199.994 515.966 198.066Z" fill="#DDF0FB"/>
<path d="M533.368 202.749C530.758 201.922 529.017 200.82 527.712 199.168C526.407 197.79 525.537 195.862 525.537 194.209C525.537 192.281 526.407 190.628 527.712 189.251C529.017 187.873 531.193 186.496 533.368 185.669C535.978 184.843 538.588 184.292 541.634 184.292C544.244 184.292 546.419 184.567 548.594 185.118C550.77 185.669 552.51 186.496 553.815 187.598L550.335 189.801C548.159 188.149 545.114 187.322 542.069 187.322C539.894 187.322 538.153 187.598 536.413 188.149C534.673 188.7 533.368 189.526 532.498 190.628C531.628 191.73 531.193 192.832 531.193 194.209C531.193 195.586 531.628 196.688 532.498 197.79C533.368 198.892 534.673 199.719 536.413 200.269C538.153 200.82 539.894 201.096 542.069 201.096C545.114 201.096 548.159 200.269 550.335 198.892L553.815 201.096C552.51 202.198 550.77 203.024 548.594 203.575C546.419 204.126 544.244 204.402 541.634 204.402C538.588 203.851 535.978 203.575 533.368 202.749Z" fill="#DDF0FB"/>
<path d="M442.878 183.19C439.833 183.19 437.222 182.639 435.047 181.813C432.437 180.711 428.087 177.68 431.132 170.243C435.047 161.978 431.567 154.816 421.996 151.235C413.295 147.929 399.809 147.929 387.628 155.367C386.757 155.918 385.452 155.918 384.582 155.367C383.712 154.816 383.712 153.99 384.582 153.439C396.328 146.276 411.99 144.624 424.171 149.031C435.482 153.163 439.398 161.427 435.047 171.069C433.742 174.099 432.872 177.956 437.222 179.609C441.573 181.537 450.274 180.16 456.799 176.854C464.195 173.273 467.24 168.039 464.195 163.08C463.76 162.254 464.195 161.703 465.5 161.427C466.805 161.152 467.675 161.427 468.11 162.254C471.591 168.314 468.11 174.65 459.41 179.058C454.624 181.813 448.098 183.19 442.878 183.19Z" fill="#DDF0FB"/>
<path d="M543.809 231.122C537.719 231.122 532.498 228.092 532.498 223.96C532.498 219.828 537.284 216.798 543.809 216.798C550.335 216.798 555.12 219.828 555.12 223.96C555.12 228.092 549.9 231.122 543.809 231.122ZM543.809 219.828C539.894 219.828 536.848 221.756 536.848 224.236C536.848 226.715 539.894 228.643 543.809 228.643C547.725 228.643 550.77 226.715 550.77 224.236C550.77 221.756 547.725 219.828 543.809 219.828Z" fill="#DDF0FB"/>
<path d="M365.44 189.801C361.09 189.801 357.609 187.598 357.609 184.843C357.609 182.088 361.09 179.884 365.44 179.884C369.791 179.884 373.271 182.088 373.271 184.843C373.706 187.598 369.791 189.801 365.44 189.801ZM365.44 181.813C362.83 181.813 360.655 183.19 360.655 184.843C360.655 186.496 362.83 187.873 365.44 187.873C368.05 187.873 370.226 186.496 370.226 184.843C370.226 183.19 368.05 181.813 365.44 181.813Z" fill="#DDF0FB"/>
<path d="M475.507 146.001C471.156 146.001 467.676 143.797 467.676 141.043C467.676 138.288 471.156 136.084 475.507 136.084C479.857 136.084 483.337 138.288 483.337 141.043C483.337 143.797 479.857 146.001 475.507 146.001ZM475.507 138.012C472.896 138.012 470.721 139.39 470.721 141.043C470.721 142.695 472.896 144.073 475.507 144.073C478.117 144.073 480.292 142.695 480.292 141.043C480.292 139.39 478.117 138.012 475.507 138.012Z" fill="#DDF0FB"/>
<path d="M703.471 244.621L683.459 249.304L703.471 253.987V258.67L675.193 251.783V246.825L703.471 239.938V244.621Z" fill="#DDF0FB"/>
<path d="M724.352 266.108L704.775 230.572H713.041L732.618 266.108H724.352Z" fill="#DDF0FB"/>
<path d="M636.907 250.956L622.551 253.987L616.895 263.353L612.11 254.262L597.318 250.956L612.11 247.375L616.895 238.285L622.551 247.651L636.907 250.956Z" fill="#DDF0FB"/>
<path d="M593.838 224.236L585.137 226.164L582.092 231.673L579.047 226.164L570.346 224.236L579.047 222.032L582.092 216.798L585.137 222.307L593.838 224.236Z" fill="#DDF0FB"/>
<path d="M610.805 180.159H626.031V213.492H658.659V221.205H610.805V180.159Z" fill="#DDF0FB"/>
<path d="M697.377 199.168H682.15L679.105 203.575H673.449L686.936 184.292H692.591L706.077 203.575H699.987L697.377 199.168ZM695.201 196.413L689.546 188.149L683.89 196.413H695.201Z" fill="#DDF0FB"/>
<path d="M735.66 195.311C736.53 196.137 736.965 197.239 736.965 198.341C736.965 199.994 736.095 201.371 733.92 202.198C731.744 203.024 729.134 203.575 725.219 203.575H709.992V184.292H724.349C727.829 184.292 730.874 184.843 732.614 185.669C734.355 186.496 735.66 187.873 735.66 189.251C735.66 190.077 735.225 191.179 734.79 191.73C734.355 192.281 733.049 193.107 731.744 193.383C733.049 193.934 734.355 194.485 735.66 195.311ZM715.648 187.322V192.556H723.478C725.654 192.556 726.959 192.281 727.829 192.005C728.699 191.454 729.569 190.903 729.569 190.077C729.569 189.251 729.134 188.424 727.829 188.149C726.959 187.598 725.219 187.598 723.478 187.598H715.648V187.322ZM731.309 198.066C731.309 196.137 729.134 195.311 724.784 195.311H715.648V200.82H724.784C729.134 200.82 731.309 199.994 731.309 198.066Z" fill="#DDF0FB"/>
<path d="M658.224 183.19C655.178 183.19 652.568 182.639 650.393 181.813C647.783 180.711 643.432 177.68 646.478 170.243C650.393 161.978 646.913 154.816 637.342 151.235C628.641 147.929 615.154 147.929 602.973 155.367C602.103 155.918 600.798 155.918 599.928 155.367C599.058 154.816 599.058 153.99 599.928 153.439C611.674 146.276 627.336 144.624 639.517 149.031C650.828 153.163 654.743 161.427 650.393 171.069C649.088 174.099 648.218 177.956 652.568 179.609C656.919 181.537 665.619 180.16 672.145 176.854C679.541 173.273 682.586 168.039 679.541 163.08C679.106 162.254 679.541 161.703 680.846 161.427C682.151 161.152 683.021 161.427 683.456 162.254C686.936 168.314 683.456 174.65 674.755 179.058C669.535 181.813 663.444 183.19 658.224 183.19Z" fill="#DDF0FB"/>
<path d="M580.788 189.801C576.437 189.801 572.957 187.598 572.957 184.843C572.957 182.088 576.437 179.884 580.788 179.884C585.138 179.884 588.619 182.088 588.619 184.843C588.619 187.598 585.138 189.801 580.788 189.801ZM580.788 181.813C578.178 181.813 576.002 183.19 576.002 184.843C576.002 186.496 578.178 187.873 580.788 187.873C583.398 187.873 585.573 186.496 585.573 184.843C585.573 183.19 583.398 181.813 580.788 181.813Z" fill="#DDF0FB"/>
<path d="M690.852 146.001C686.502 146.001 683.021 143.797 683.021 141.043C683.021 138.288 686.502 136.084 690.852 136.084C695.203 136.084 698.683 138.288 698.683 141.043C698.683 143.797 695.203 146.001 690.852 146.001ZM690.852 138.012C688.242 138.012 686.067 139.39 686.067 141.043C686.067 142.695 688.242 144.073 690.852 144.073C693.462 144.073 695.638 142.695 695.638 141.043C695.638 139.39 693.462 138.012 690.852 138.012Z" fill="#DDF0FB"/>
<path d="M488.123 108.812L468.112 113.495L488.123 118.178V122.861L459.846 115.699V110.741L488.123 103.854V108.812Z" fill="#DDF0FB"/>
<path d="M509.005 130.299L489.428 94.7632H497.694L517.27 130.299H509.005Z" fill="#DDF0FB"/>
<path d="M547.289 110.741V115.699L519.012 122.586V117.903L539.024 113.22L519.012 108.537V103.854L547.289 110.741Z" fill="#DDF0FB"/>
<path d="M547.289 20.1096L531.627 23.6908L525.537 34.1588L519.446 23.9663L503.35 20.1096L519.881 16.253L525.537 6.33594L531.192 16.5285L547.289 20.1096Z" fill="#DDF0FB"/>
<path d="M421.562 114.872L407.205 118.178L401.985 127.544L396.764 118.454L381.973 114.872L396.764 111.567L401.985 102.476L407.205 111.567L421.562 114.872Z" fill="#DDF0FB"/>
<path d="M378.492 88.1517L370.226 90.08L366.746 95.5894L363.701 90.3554L355 88.1517L363.701 86.2233L366.746 80.7139L369.791 86.2233L378.492 88.1517Z" fill="#DDF0FB"/>
<path d="M395.459 44.3513H410.685V77.6836H443.314V85.3969H395.459V44.3513Z" fill="#DDF0FB"/>
<path d="M482.033 63.3587H466.806L463.761 67.7663H458.105L471.592 48.4832H477.247L490.734 67.7663H484.643L482.033 63.3587ZM480.293 60.604L474.637 52.3398L468.982 60.604H480.293Z" fill="#DDF0FB"/>
<path d="M520.316 59.5021C521.186 60.3285 521.621 61.4304 521.621 62.5323C521.621 64.1852 520.751 65.5625 518.576 66.3889C516.401 67.2154 513.79 67.7663 509.875 67.7663H494.648V48.4832H509.005C512.485 48.4832 515.53 49.0341 517.271 49.8605C519.011 50.6869 520.316 52.0643 520.316 53.4417C520.316 54.2681 519.881 55.37 519.446 55.9209C519.011 56.4719 517.706 57.2983 516.401 57.5738C518.141 58.1247 519.446 58.6757 520.316 59.5021ZM500.304 51.2379V56.4719H508.135C510.31 56.4719 511.615 56.1964 512.485 55.9209C513.355 55.37 514.225 54.819 514.225 53.9926C514.225 53.1662 513.79 52.3398 512.485 52.0643C511.615 51.5134 509.875 51.5134 508.135 51.5134H500.304V51.2379ZM515.966 62.2568C515.966 60.3285 513.79 59.5021 509.44 59.5021H500.304V65.0116H509.44C513.79 65.0116 515.966 63.9097 515.966 62.2568Z" fill="#DDF0FB"/>
<path d="M533.368 66.6645C530.758 65.8381 529.017 64.7362 527.712 63.0833C526.407 61.706 525.537 59.7777 525.537 58.1248C525.537 56.1965 526.407 54.5437 527.712 53.1663C529.017 51.7889 531.193 50.4116 533.368 49.5851C535.978 48.7587 538.588 48.2078 541.634 48.2078C544.244 48.2078 546.419 48.4832 548.594 49.0342C550.77 49.5851 552.51 50.4116 553.815 51.5134L550.335 53.7172C548.159 52.3399 545.549 51.5134 542.069 51.5134C539.894 51.5134 538.153 51.7889 536.413 52.3399C534.673 52.8908 533.368 53.7172 532.498 54.8191C531.628 55.921 531.193 57.0229 531.193 58.4003C531.193 59.7777 531.628 60.8796 532.498 61.9814C533.368 63.0833 534.673 63.9098 536.413 64.4607C538.153 65.0117 539.894 65.2871 542.069 65.2871C545.114 65.2871 548.159 64.4607 550.335 63.0833L553.815 65.2871C552.51 66.389 550.77 67.2154 548.594 67.7664C546.419 68.3173 544.244 68.5928 541.634 68.5928C538.588 68.0419 535.978 67.4909 533.368 66.6645Z" fill="#DDF0FB"/>
<path d="M442.878 47.3813C439.833 47.3813 437.222 46.8303 435.047 46.0039C432.437 44.902 428.087 41.8718 431.132 34.434C435.047 26.1698 431.567 19.0075 421.996 15.4264C413.295 12.1207 399.809 12.1207 387.628 19.5585C386.757 20.1094 385.452 20.1094 384.582 19.5585C383.712 19.0075 383.712 18.1811 384.582 17.6301C396.328 10.4678 411.99 8.81499 424.171 13.2226C435.482 17.3547 439.398 25.6189 435.047 35.2605C433.742 38.2907 432.872 42.1473 437.222 43.8001C441.573 45.7285 450.274 44.3511 456.799 41.0454C464.195 37.4642 467.24 32.2302 464.195 27.2717C463.76 26.4453 464.195 25.8944 465.5 25.6189C466.805 25.3434 467.675 25.6189 468.11 26.4453C471.591 32.5057 468.11 38.8416 459.41 43.2492C454.624 46.0039 448.098 47.3813 442.878 47.3813Z" fill="#DDF0FB"/>
<path d="M543.809 95.0385C537.719 95.0385 532.498 92.0083 532.498 87.8762C532.498 83.7441 537.284 80.7139 543.809 80.7139C550.335 80.7139 555.12 84.295 555.12 88.1517C555.12 92.0083 549.9 95.0385 543.809 95.0385ZM543.809 83.7441C539.894 83.7441 536.848 85.6724 536.848 88.1517C536.848 90.6309 539.894 92.5592 543.809 92.5592C547.725 92.5592 550.77 90.6309 550.77 88.1517C550.77 85.6724 547.725 83.7441 543.809 83.7441Z" fill="#DDF0FB"/>
<path d="M365.44 53.993C361.09 53.993 357.609 51.7892 357.609 49.0345C357.609 46.2797 361.09 44.0759 365.44 44.0759C369.791 44.0759 373.271 46.2797 373.271 49.0345C373.706 51.7892 369.791 53.993 365.44 53.993ZM365.44 46.0042C362.83 46.0042 360.655 47.3816 360.655 49.0345C360.655 50.6873 362.83 52.0647 365.44 52.0647C368.05 52.0647 370.226 50.6873 370.226 49.0345C370.226 47.3816 368.05 46.0042 365.44 46.0042Z" fill="#DDF0FB"/>
<path d="M475.507 10.1925C471.156 10.1925 467.676 7.98874 467.676 5.234C467.676 2.47926 471.156 0 475.507 0C479.857 0 483.337 2.20379 483.337 4.95853C483.337 7.71326 479.857 10.1925 475.507 10.1925ZM475.507 1.92832C472.896 1.92832 470.721 3.30568 470.721 4.95853C470.721 6.61137 472.896 7.98874 475.507 7.98874C478.117 7.98874 480.292 6.61137 480.292 4.95853C480.292 3.30568 478.117 1.92832 475.507 1.92832Z" fill="#DDF0FB"/>
<path d="M703.471 108.812L683.459 113.495L703.471 118.178V122.861L675.193 115.699V110.741L703.471 103.854V108.812Z" fill="#DDF0FB"/>
<path d="M724.352 130.299L704.775 94.7632H713.041L732.618 130.299H724.352Z" fill="#DDF0FB"/>
<path d="M636.907 114.872L622.551 118.178L616.895 127.544L612.11 118.454L597.318 114.872L612.11 111.567L616.895 102.476L622.551 111.567L636.907 114.872Z" fill="#DDF0FB"/>
<path d="M593.838 88.1517L585.137 90.08L582.092 95.5894L579.047 90.3554L570.346 88.1517L579.047 86.2233L582.092 80.7139L585.137 86.2233L593.838 88.1517Z" fill="#DDF0FB"/>
<path d="M610.805 44.3513H626.031V77.6836H658.659V85.3969H610.805V44.3513Z" fill="#DDF0FB"/>
<path d="M697.377 63.3587H682.15L679.105 67.7663H673.449L686.936 48.4832H692.591L706.077 67.7663H699.987L697.377 63.3587ZM695.201 60.604L689.546 52.3398L683.89 60.604H695.201Z" fill="#DDF0FB"/>
<path d="M735.66 59.5021C736.53 60.3285 736.965 61.4304 736.965 62.5323C736.965 64.1852 736.095 65.5625 733.92 66.3889C731.744 67.2154 729.134 67.7663 725.219 67.7663H709.992V48.4832H724.349C727.829 48.4832 730.874 49.0341 732.614 49.8605C734.355 50.6869 735.66 52.0643 735.66 53.4417C735.66 54.2681 735.225 55.37 734.79 55.9209C734.355 56.4719 733.049 57.2983 731.744 57.5738C733.049 58.1247 734.355 58.6757 735.66 59.5021ZM715.648 51.2379V56.4719H723.478C725.654 56.4719 726.959 56.1964 727.829 55.9209C728.699 55.37 729.569 54.819 729.569 53.9926C729.569 53.1662 729.134 52.3398 727.829 52.0643C726.959 51.5134 725.219 51.5134 723.478 51.5134H715.648V51.2379ZM731.309 62.2568C731.309 60.3285 729.134 59.5021 724.784 59.5021H715.648V65.0116H724.784C729.134 65.0116 731.309 63.9097 731.309 62.2568Z" fill="#DDF0FB"/>
<path d="M658.224 47.3813C655.178 47.3813 652.568 46.8303 650.393 46.0039C647.783 44.902 643.432 41.8718 646.478 34.434C650.393 26.1698 646.913 19.0075 637.342 15.4264C628.641 12.1207 615.154 12.1207 602.973 19.5585C602.103 20.1094 600.798 20.1094 599.928 19.5585C599.058 19.0075 599.058 18.1811 599.928 17.6301C611.674 10.4678 627.336 8.81499 639.517 13.2226C650.828 17.3547 654.743 25.6189 650.393 35.2605C649.088 38.2907 648.218 42.1473 652.568 43.8001C656.919 45.7285 665.619 44.3511 672.145 41.0454C679.541 37.4642 682.586 32.2302 679.541 27.2717C679.106 26.4453 679.541 25.8944 680.846 25.6189C682.151 25.3434 683.021 25.6189 683.456 26.4453C686.936 32.5057 683.456 38.8416 674.755 43.2492C669.535 46.0039 663.444 47.3813 658.224 47.3813Z" fill="#DDF0FB"/>
<path d="M580.788 53.993C576.437 53.993 572.957 51.7892 572.957 49.0345C572.957 46.2797 576.437 44.0759 580.788 44.0759C585.138 44.0759 588.619 46.2797 588.619 49.0345C588.619 51.7892 585.138 53.993 580.788 53.993ZM580.788 46.0042C578.178 46.0042 576.002 47.3816 576.002 49.0345C576.002 50.6873 578.178 52.0647 580.788 52.0647C583.398 52.0647 585.573 50.6873 585.573 49.0345C585.573 47.3816 583.398 46.0042 580.788 46.0042Z" fill="#DDF0FB"/>
<path d="M690.852 10.1925C686.502 10.1925 683.021 7.98874 683.021 5.234C683.021 2.47926 686.502 0 690.852 0C695.203 0 698.683 2.20379 698.683 4.95853C698.683 7.71326 695.203 10.1925 690.852 10.1925ZM690.852 1.92832C688.242 1.92832 686.067 3.30568 686.067 4.95853C686.067 6.61137 688.242 7.98874 690.852 7.98874C693.462 7.98874 695.638 6.61137 695.638 4.95853C695.638 3.30568 693.462 1.92832 690.852 1.92832Z" fill="#DDF0FB"/>
</g>
</svg>
