<svg width="1455" height="800" viewBox="0 0 1455 800" fill="none" xmlns="http://www.w3.org/2000/svg">
<path d="M2282.18 646.602C2607.35 439.117 2403.37 -160.65 1826.19 220.343C1456.55 464.333 1239.41 90.5065 1379.25 47.753C1519.09 4.99952 1627.64 226.672 1315.42 339.116C1003.2 451.559 869.631 325.886 683.335 294.493C497.039 263.1 322.379 432.101 256.5 471C190.621 509.899 96 413.5 55.0001 435.5C14.0002 457.5 0.999333 398.5 0.999333 398.5" stroke="#374C92" stroke-width="2" stroke-miterlimit="10" stroke-linecap="round" stroke-dasharray="0.3 8"/>
<path d="M447.349 367.508C457.222 364.49 462.778 354.039 459.76 344.166C456.741 334.293 446.291 328.736 436.418 331.755C426.545 334.773 420.988 345.224 424.006 355.097C427.025 364.97 437.476 370.527 447.349 367.508Z" fill="#374C92"/>
<path d="M1171.62 389.624C1179.88 387.097 1184.53 378.348 1182.01 370.083C1179.48 361.818 1170.73 357.166 1162.47 359.693C1154.2 362.22 1149.55 370.969 1152.08 379.234C1154.6 387.499 1163.35 392.151 1171.62 389.624Z" fill="#374C92"/>
<path d="M1443.62 51.2892C1447.58 52.7914 1452.01 50.8015 1453.51 46.8446C1455.01 42.8877 1453.02 38.4621 1449.06 36.9598C1445.11 35.4575 1440.68 37.4475 1439.18 41.4044C1437.68 45.3613 1439.67 49.7869 1443.62 51.2892Z" fill="#374C92"/>
<path d="M514.243 305.667L480.744 315.909L490.986 349.408L524.485 339.166L514.243 305.667Z" stroke="#374C92" stroke-width="1.92" stroke-miterlimit="10"/>
<path d="M1221.58 355.121L1201.02 361.409L1207.31 381.974L1227.87 375.687L1221.58 355.121Z" stroke="#374C92" stroke-width="1.92" stroke-miterlimit="10"/>
</svg>
