<svg width="246" height="209" viewBox="0 0 246 209" fill="none" xmlns="http://www.w3.org/2000/svg">
<path d="M21.7391 116.66L13.8854 119.406L10.8626 127.522L8.03311 119.586L0 116.66L8.11593 113.637L10.8626 105.783L13.8026 113.816L21.7391 116.66Z" fill="#612A7A"/>
<path d="M245.01 117.502L241.049 118.896L239.53 122.981L238.109 118.979L234.051 117.502L238.15 115.984L239.53 112.022L241.007 116.08L245.01 117.502Z" fill="#612A7A"/>
<path d="M109.993 21.8913L106.032 23.2853L104.513 27.3709L103.078 23.3681L99.0338 21.8913L103.119 20.373L104.513 16.4116L105.99 20.4558L109.993 21.8913Z" fill="#612A7A"/>
<path d="M219.42 63.7961H42.3602C41.4073 63.7961 40.6348 64.5686 40.6348 65.5215V180.263C40.6348 181.215 41.4073 181.988 42.3602 181.988H219.42C220.373 181.988 221.145 181.215 221.145 180.263V65.5215C221.145 64.5686 220.373 63.7961 219.42 63.7961Z" fill="#612A7A"/>
<path d="M215.128 69.7441H46.6668C45.7139 69.7441 44.9415 70.5166 44.9415 71.4695V174.34C44.9415 175.293 45.7139 176.066 46.6668 176.066H215.128C216.08 176.066 216.853 175.293 216.853 174.34V71.4695C216.853 70.5166 216.08 69.7441 215.128 69.7441Z" fill="white"/>
<path d="M143.782 178.771H117.998V200.262H143.782V178.771Z" fill="#612A7A"/>
<path d="M130.89 208.861C148.103 208.861 162.056 205.493 162.056 201.339C162.056 197.184 148.103 193.816 130.89 193.816C113.678 193.816 99.7239 197.184 99.7239 201.339C99.7239 205.493 113.678 208.861 130.89 208.861Z" fill="#612A7A"/>
<path d="M58.8547 120.386L67.3847 96.6179C67.6883 95.7759 68.6131 95.3343 69.4551 95.6379L80.2625 99.5164L82.8712 105.065L95.9561 109.772C96.798 110.075 97.2397 111 96.936 111.842L93.8305 120.496" fill="white"/>
<path d="M93.8439 121.187C93.7611 121.187 93.6921 121.187 93.6093 121.145C93.2504 121.021 93.071 120.621 93.1952 120.262L96.3008 111.608C96.3836 111.373 96.3698 111.125 96.2732 110.89C96.1766 110.655 95.9833 110.49 95.7487 110.407L82.3878 105.604L79.7653 100.055L69.2339 96.273C68.9992 96.1902 68.7508 96.204 68.5161 96.3006C68.2953 96.411 68.1159 96.5904 68.0331 96.8251L59.503 120.593C59.3788 120.952 58.9786 121.131 58.6197 121.007C58.2608 120.883 58.0814 120.483 58.2056 120.124L66.7356 96.3558C66.9426 95.7761 67.3705 95.3068 67.9226 95.0445C68.4747 94.7823 69.1097 94.7547 69.6894 94.9617L80.7591 98.9369L83.3815 104.486L96.2042 109.096C96.7839 109.303 97.2532 109.731 97.5154 110.283C97.7777 110.849 97.8053 111.47 97.5982 112.049L94.4926 120.704C94.396 120.98 94.12 121.159 93.8439 121.159V121.187Z" fill="#612A7A"/>
<path d="M85.6314 131.511L59.8343 122.249C58.8129 121.877 58.4679 120.621 59.158 119.779L70.2139 106.473C70.628 105.962 71.3181 105.783 71.9392 106.004L97.7363 115.265C98.7577 115.638 99.1027 116.894 98.4126 117.736L87.3567 131.042C86.9426 131.552 86.2525 131.732 85.6314 131.511Z" fill="#612A7A"/>
<path d="M126.308 130.269C129.11 130.283 131.663 131.014 133.954 132.436C136.246 133.871 138.068 135.886 139.406 138.481C140.745 141.076 141.353 143.533 141.077 145.59C140.8 147.646 139.738 149.165 137.888 150.117C136.894 150.628 135.942 150.835 135.017 150.71C134.092 150.6 133.278 150.172 132.56 149.454C132.243 151.884 130.849 153.747 128.378 155.031C126.97 155.762 125.535 156.08 124.058 155.997C122.581 155.914 121.201 155.431 119.945 154.575C118.689 153.706 117.667 152.519 116.881 150.986C116.094 149.454 115.721 147.964 115.749 146.445C115.776 144.927 116.19 143.547 116.977 142.291C117.764 141.035 118.868 140.041 120.262 139.323C121.353 138.757 122.443 138.44 123.506 138.357C124.569 138.274 125.59 138.44 126.57 138.854L125.535 136.839L128.972 135.058L134.41 145.59C134.796 146.335 135.224 146.79 135.694 146.97C136.163 147.149 136.632 147.108 137.115 146.86C137.957 146.418 138.357 145.617 138.302 144.416C138.247 143.229 137.75 141.725 136.812 139.903C135.68 137.722 134.189 136.038 132.326 134.893C130.462 133.733 128.392 133.154 126.115 133.154C123.837 133.154 121.532 133.747 119.199 134.962C116.867 136.176 115.017 137.75 113.706 139.655C112.395 141.573 111.705 143.671 111.608 145.935C111.525 148.198 112.05 150.448 113.209 152.67C114.368 154.893 115.914 156.701 117.792 157.943C119.682 159.185 121.767 159.848 124.072 159.889C126.377 159.944 128.696 159.365 131.028 158.164C132.036 157.639 133.002 157.004 133.927 156.231C134.852 155.472 135.652 154.617 136.328 153.706L138.44 155.748C137.778 156.687 136.894 157.612 135.79 158.481C134.686 159.365 133.54 160.11 132.339 160.731C129.455 162.222 126.584 162.926 123.74 162.857C120.897 162.788 118.302 161.987 115.97 160.483C113.637 158.964 111.76 156.853 110.352 154.133C108.944 151.414 108.337 148.723 108.475 145.949C108.613 143.174 109.482 140.593 111.097 138.219C112.712 135.845 114.962 133.913 117.874 132.408C120.787 130.904 123.492 130.241 126.294 130.255L126.308 130.269ZM130.103 148.681C130.504 147.356 130.324 145.949 129.538 144.444C128.751 142.94 127.729 142.001 126.432 141.573C125.135 141.145 123.809 141.283 122.457 141.973C121.09 142.677 120.221 143.685 119.821 144.996C119.434 146.307 119.613 147.701 120.359 149.165C121.104 150.628 122.167 151.621 123.464 152.063C124.776 152.519 126.101 152.381 127.467 151.69C128.806 151 129.676 149.993 130.09 148.668L130.103 148.681Z" fill="#D1EDF8"/>
<path d="M75.9141 145.769C76.3834 145.769 76.8665 145.769 77.3358 145.769C77.5981 145.797 77.8603 145.824 78.1226 145.866C80.6484 146.252 82.7878 147.356 84.5132 149.22C85.9348 150.752 86.832 152.56 87.1909 154.617C87.2599 155.003 87.3013 155.403 87.3565 155.79V157.211C87.3565 157.211 87.3289 157.349 87.3151 157.418C87.2599 157.791 87.2461 158.15 87.1633 158.523C86.6388 161.145 85.3413 163.312 83.2433 164.955C80.8555 166.818 78.1226 167.536 75.1274 167.149C73.3469 166.915 71.7043 166.28 70.2827 165.175C66.9425 162.608 65.4794 159.199 65.9901 155.017C66.2937 152.491 67.467 150.352 69.3303 148.626C70.8624 147.205 72.6705 146.307 74.7409 145.948C75.1274 145.879 75.5139 145.838 75.9003 145.783L75.9141 145.769ZM76.066 153.305C76.066 153.305 76.0246 153.291 76.0108 153.291C74.5753 153.291 73.1398 153.291 71.7182 153.291C71.6629 153.291 71.5663 153.374 71.5663 153.429C71.4697 154.12 71.3593 154.81 71.3041 155.5C71.1937 156.839 71.3041 158.178 71.5387 159.503C71.5663 159.668 71.6215 159.723 71.801 159.723C73.1536 159.723 74.4925 159.723 75.8451 159.723C75.9141 159.723 75.9832 159.723 76.066 159.723V153.319V153.305ZM77.1702 159.696C77.1702 159.696 77.2116 159.71 77.2254 159.71C78.6609 159.71 80.0963 159.71 81.518 159.71C81.5732 159.71 81.6698 159.627 81.6698 159.572C81.7664 158.882 81.8769 158.205 81.9321 157.515C82.0425 156.162 81.9321 154.81 81.6836 153.471C81.656 153.319 81.6008 153.264 81.4352 153.264C80.0687 153.264 78.7161 153.264 77.3496 153.264C77.2944 153.264 77.2254 153.264 77.1564 153.264V159.668L77.1702 159.696ZM70.4759 153.291H67.536C66.7768 155.072 66.7906 158.385 67.536 159.71H70.4621C70.0618 157.57 70.0618 155.431 70.4621 153.291H70.4759ZM82.7602 153.291C83.1605 155.445 83.1605 157.57 82.7602 159.696C82.8154 159.71 82.8154 159.723 82.8292 159.723C83.7402 159.723 84.665 159.723 85.576 159.723C85.6312 159.723 85.714 159.654 85.7278 159.599C85.9762 158.882 86.1419 158.15 86.2109 157.405C86.3489 156.052 86.1695 154.741 85.7554 153.457C85.714 153.319 85.6588 153.278 85.507 153.278C84.665 153.278 83.8092 153.278 82.9673 153.278C82.9121 153.278 82.8431 153.278 82.7464 153.278L82.7602 153.291ZM76.066 146.901C75.2654 147.053 74.6305 147.481 74.0784 148.046C73.1536 148.971 72.5739 150.103 72.1322 151.304C72.0218 151.594 71.939 151.884 71.8424 152.173H76.066V146.887V146.901ZM81.38 152.187C81.38 152.187 81.3662 152.091 81.3524 152.049C81.1177 151.249 80.8141 150.476 80.4138 149.758C79.9445 148.902 79.3648 148.115 78.5642 147.536C78.1502 147.232 77.6947 146.997 77.1702 146.915V152.201H81.38V152.187ZM76.066 160.828H71.8424C71.9252 161.104 72.008 161.352 72.0908 161.601C72.5325 162.843 73.126 164.016 74.0784 164.968C74.6305 165.534 75.2654 165.948 76.066 166.114V160.841V160.828ZM77.1702 166.1C77.8327 165.99 78.578 165.576 79.1578 164.968C80.0687 164.03 80.6622 162.912 81.1039 161.697C81.2143 161.407 81.2972 161.118 81.3938 160.828H77.1702V166.1ZM67.9776 152.201C68.1019 152.201 68.1709 152.201 68.2399 152.201C68.9852 152.201 69.7306 152.201 70.4759 152.201C70.6692 152.201 70.7382 152.146 70.7934 151.966C71.1246 150.752 71.6077 149.592 72.3117 148.543C72.5325 148.212 72.781 147.908 73.0432 147.536C70.7934 148.502 69.1233 150.02 67.9914 152.201H67.9776ZM80.2344 147.591C80.469 147.908 80.7175 148.226 80.9383 148.557C81.6422 149.606 82.1115 150.766 82.4428 151.98C82.4842 152.16 82.567 152.201 82.7464 152.201C83.4918 152.201 84.2233 152.201 84.9687 152.201C85.0515 152.201 85.1343 152.201 85.2585 152.201C84.1267 150.034 82.4566 148.502 80.2482 147.591H80.2344ZM73.0294 165.465C72.7672 165.106 72.5187 164.789 72.2979 164.458C71.5939 163.395 71.1108 162.236 70.7796 161.007C70.7382 160.841 70.6692 160.786 70.4897 160.786C69.7306 160.786 68.9714 160.786 68.2123 160.786C68.1433 160.786 68.0743 160.786 67.9776 160.786C69.1095 162.953 70.7658 164.472 73.0294 165.438V165.465ZM80.2068 165.41C82.4428 164.499 84.1129 162.981 85.2447 160.8C85.1205 160.8 85.0515 160.8 84.9687 160.8C84.2371 160.8 83.5056 160.8 82.774 160.8C82.5808 160.8 82.4842 160.855 82.429 161.049C82.0425 162.443 81.4628 163.768 80.5932 164.927C80.469 165.093 80.3448 165.245 80.2206 165.396L80.2068 165.41Z" fill="#8DC63F"/>
<path d="M53.8855 187.246C67.1189 187.246 77.8468 176.518 77.8468 163.285C77.8468 150.051 67.1189 139.324 53.8855 139.324C40.652 139.324 29.9241 150.051 29.9241 163.285C29.9241 176.518 40.652 187.246 53.8855 187.246Z" fill="white"/>
<path d="M53.8854 187.757C40.3864 187.757 29.4134 176.77 29.4134 163.285C29.4134 149.799 40.4002 138.799 53.8854 138.799C67.3705 138.799 78.3712 149.786 78.3712 163.285C78.3712 176.784 67.3843 187.757 53.8854 187.757ZM53.8854 139.834C40.9523 139.834 30.4486 150.352 30.4486 163.285C30.4486 176.218 40.9661 186.721 53.8854 186.721C66.8046 186.721 77.336 176.204 77.336 163.285C77.336 150.365 66.8184 139.834 53.8854 139.834Z" fill="#612A7A"/>
<path d="M53.885 184.375C65.5329 184.375 74.9754 174.933 74.9754 163.285C74.9754 151.637 65.5329 142.194 53.885 142.194C42.2371 142.194 32.7947 151.637 32.7947 163.285C32.7947 174.933 42.2371 184.375 53.885 184.375Z" fill="white"/>
<path d="M53.9266 184.872C46.8873 184.872 39.986 181.449 35.8452 175.141C32.6706 170.324 31.5802 164.555 32.7396 158.896C33.9128 153.25 37.2117 148.392 42.0288 145.217C46.8459 142.043 52.6154 140.939 58.2744 142.112C63.9197 143.285 68.7782 146.584 71.9528 151.401C78.4952 161.353 75.7209 174.783 65.7692 181.325C62.1254 183.727 58.0122 184.872 53.9404 184.872H53.9266ZM53.8438 142.705C49.8686 142.705 45.9901 143.865 42.5947 146.087C37.9984 149.11 34.8652 153.734 33.7472 159.103C32.6292 164.486 33.6782 169.979 36.701 174.562C42.9259 184.044 55.7071 186.68 65.1895 180.455C74.6719 174.23 77.3082 161.449 71.0832 151.967C68.0605 147.371 63.4366 144.237 58.0674 143.119C56.6733 142.83 55.2517 142.692 53.8576 142.692L53.8438 142.705Z" fill="#612A7A"/>
<mask id="mask0_320_114059" style="mask-type:luminance" maskUnits="userSpaceOnUse" x="32" y="142" width="43" height="43">
<mask id="mask1_320_114059" style="mask-type:luminance" maskUnits="userSpaceOnUse" x="32" y="142" width="43" height="43">
<path d="M53.885 184.375C65.5329 184.375 74.9754 174.933 74.9754 163.285C74.9754 151.637 65.5329 142.194 53.885 142.194C42.2371 142.194 32.7947 151.637 32.7947 163.285C32.7947 174.933 42.2371 184.375 53.885 184.375Z" fill="white"/>
</mask>
<g mask="url(#mask1_320_114059)">
<path d="M53.9265 184.872C46.8871 184.872 39.9858 181.449 35.8451 175.141C32.6705 170.324 31.5801 164.555 32.7395 158.896C33.9127 153.25 37.2115 148.392 42.0286 145.217C46.8457 142.043 52.6152 140.939 58.2743 142.112C63.9196 143.285 68.7781 146.584 71.9527 151.401C78.4951 161.353 75.7208 174.783 65.7691 181.325C62.1252 183.727 58.012 184.872 53.9403 184.872H53.9265ZM53.8437 142.705C49.8685 142.705 45.99 143.865 42.5945 146.087C37.9983 149.11 34.8651 153.734 33.7471 159.103C32.6291 164.486 33.6781 169.979 36.7008 174.562C42.9258 184.044 55.707 186.68 65.1894 180.455C74.6718 174.23 77.3081 161.449 71.0831 151.967C68.0603 147.371 63.4365 144.237 58.0673 143.119C56.6732 142.83 55.2515 142.692 53.8575 142.692L53.8437 142.705Z" fill="white"/>
</g>
</mask>
<g mask="url(#mask0_320_114059)">
<path d="M60.2066 144.734C60.8691 144.734 61.5455 144.734 62.208 144.734C62.5807 144.776 62.9533 144.817 63.3122 144.872C66.8595 145.411 69.8684 146.97 72.3115 149.607C74.3129 151.76 75.5689 154.3 76.0796 157.198C76.1762 157.75 76.2314 158.302 76.3143 158.854V160.856C76.3005 160.952 76.2728 161.049 76.259 161.132C76.19 161.643 76.1624 162.167 76.052 162.678C75.3205 166.363 73.4847 169.413 70.531 171.732C67.1631 174.369 63.326 175.362 59.1024 174.824C56.5903 174.507 54.2853 173.596 52.2701 172.05C47.5634 168.433 45.5068 163.63 46.2246 157.736C46.6525 154.175 48.295 151.166 50.9313 148.737C53.0983 146.736 55.638 145.466 58.5503 144.955C59.0886 144.859 59.6407 144.803 60.179 144.721L60.2066 144.734ZM60.4275 155.349C60.4275 155.349 60.3722 155.321 60.3584 155.321C58.3433 155.321 56.3281 155.321 54.3129 155.321C54.2301 155.321 54.1059 155.431 54.0921 155.514C53.954 156.48 53.8022 157.46 53.7194 158.44C53.5676 160.331 53.7194 162.208 54.0645 164.072C54.1059 164.306 54.1887 164.389 54.4371 164.389C56.3419 164.389 58.2328 164.389 60.1376 164.389C60.2342 164.389 60.3308 164.389 60.4413 164.389V155.362L60.4275 155.349ZM61.9872 164.348C61.9872 164.348 62.0424 164.375 62.07 164.375C64.0852 164.375 66.1003 164.375 68.1155 164.375C68.1845 164.375 68.3225 164.251 68.3363 164.182C68.4744 163.216 68.6262 162.264 68.709 161.298C68.8608 159.393 68.709 157.488 68.364 155.597C68.3225 155.376 68.2397 155.307 68.0189 155.307C66.1003 155.307 64.1818 155.307 62.2632 155.307C62.1804 155.307 62.0976 155.307 61.9872 155.321V164.348ZM52.56 155.321H48.433C47.3702 157.833 47.384 162.485 48.4468 164.362H52.56C51.9941 161.339 51.9941 158.344 52.56 155.321ZM69.8546 155.321C70.4343 158.358 70.4205 161.353 69.8546 164.334C69.9237 164.362 69.9375 164.375 69.9651 164.375C71.2487 164.375 72.5461 164.375 73.8298 164.375C73.8988 164.375 74.023 164.279 74.0506 164.21C74.4095 163.202 74.6303 162.167 74.7408 161.118C74.934 159.227 74.6855 157.378 74.092 155.569C74.0368 155.376 73.954 155.307 73.747 155.307C72.5599 155.307 71.3591 155.307 70.1721 155.307C70.0893 155.307 69.9927 155.307 69.8546 155.321ZM60.4275 146.322C59.3094 146.543 58.4123 147.136 57.6255 147.923C56.3281 149.22 55.5137 150.808 54.8926 152.519C54.7408 152.919 54.6304 153.333 54.4785 153.747H60.4275V146.308V146.322ZM67.9085 153.761C67.8947 153.678 67.8947 153.623 67.8671 153.568C67.5358 152.45 67.1079 151.36 66.542 150.338C65.8795 149.137 65.0651 148.033 63.9471 147.205C63.3536 146.777 62.7187 146.46 61.9872 146.322V153.761H67.9085ZM60.4275 165.921H54.4785C54.6028 166.308 54.7132 166.667 54.8374 167.012C55.4723 168.765 56.3005 170.407 57.6255 171.746C58.4123 172.533 59.3094 173.126 60.4275 173.361V165.935V165.921ZM61.9872 173.333C62.9257 173.182 63.9609 172.588 64.7891 171.746C66.0727 170.435 66.9009 168.848 67.522 167.15C67.6738 166.75 67.7842 166.335 67.9361 165.921H61.9872V173.347V173.333ZM49.0541 153.775C49.2197 153.775 49.3164 153.775 49.413 153.775C50.462 153.775 51.511 153.775 52.5738 153.775C52.836 153.775 52.9464 153.692 53.0155 153.444C53.4848 151.732 54.1611 150.104 55.1411 148.627C55.4447 148.157 55.8036 147.73 56.1763 147.219C53.0017 148.572 50.6552 150.711 49.0541 153.775ZM66.3074 147.288C66.6386 147.743 66.9837 148.171 67.3012 148.641C68.2811 150.117 68.9575 151.746 69.4268 153.458C69.4958 153.706 69.6062 153.775 69.8546 153.775C70.8898 153.761 71.9388 153.775 72.974 153.775C73.0844 153.775 73.2087 153.775 73.3743 153.775C71.787 150.711 69.4406 148.572 66.3074 147.288ZM56.1763 172.464C55.8036 171.953 55.4447 171.511 55.1411 171.056C54.1473 169.565 53.471 167.937 53.0017 166.211C52.9465 165.99 52.8498 165.908 52.6014 165.908C51.5248 165.921 50.462 165.908 49.3854 165.908C49.2888 165.908 49.2059 165.908 49.0541 165.921C50.6414 168.958 52.9879 171.111 56.1625 172.464H56.1763ZM66.2798 172.381C69.4268 171.097 71.7732 168.958 73.3605 165.894C73.1949 165.894 73.0844 165.894 72.974 165.894C71.9388 165.894 70.9036 165.894 69.8822 165.894C69.6062 165.894 69.482 165.963 69.3992 166.253C68.847 168.226 68.0465 170.076 66.8043 171.718C66.6386 171.939 66.4454 172.16 66.266 172.381H66.2798Z" fill="#8DC63F"/>
</g>
<path d="M28.8061 180.456C28.5852 180.456 28.3644 180.345 28.2264 180.138C28.0193 179.821 28.1021 179.393 28.4196 179.186L32.726 176.356C33.0435 176.149 33.4713 176.232 33.6784 176.55C33.8854 176.867 33.8026 177.295 33.4852 177.502L29.1787 180.332C29.0683 180.414 28.9303 180.442 28.8061 180.442V180.456Z" fill="#612A7A"/>
<path d="M26.1896 176.895L11.7264 186.403C10.8537 186.976 10.6113 188.149 11.185 189.022L13.3231 192.274C13.8968 193.147 15.0693 193.389 15.9419 192.816L30.4052 183.308C31.2778 182.734 31.5202 181.562 30.9465 180.689L28.8084 177.436C28.2347 176.564 27.0622 176.321 26.1896 176.895Z" fill="#8DC63F"/>
<path d="M205.246 110.302L227.948 87.6006L221.136 80.7882L198.434 103.49L205.246 110.302Z" fill="#8DC63F"/>
<path d="M233.359 82.187L229.133 86.413L222.321 79.6006L226.547 75.3745C226.723 75.1989 227.006 75.2086 227.172 75.3745L233.35 81.5526C233.525 81.7282 233.516 82.0113 233.35 82.1772L233.359 82.187Z" fill="#612A7A"/>
<path d="M197.791 107.204L199.586 108.999L201.38 110.793L198.923 111.456L196.466 112.118L197.129 109.661L197.791 107.204ZM197.073 104.54L195.804 109.302L194.534 114.064L199.296 112.794L204.058 111.525L200.566 108.032L197.073 104.54Z" fill="#612A7A"/>
<path d="M91.415 89.0816L59.9588 80.0271L71.4978 39.9167L95.3211 46.7766L101.132 55.3343L91.415 89.0816Z" fill="white"/>
<path d="M91.884 89.9378L59.1028 80.5106L71.0282 39.0752L95.7487 46.1835L101.877 55.2104L91.884 89.9378ZM60.8143 79.5582L90.9454 88.2263L100.373 55.4451L94.8791 47.3706L71.9668 40.7729L60.8143 79.5582Z" fill="#612A7A"/>
<path d="M95.1139 47.4675L93.4438 53.3198L100.262 55.2798" fill="white"/>
<path d="M100.732 56.1355L92.5881 53.789L94.6447 46.6255L95.9697 46.9982L94.2996 52.8367L101.118 54.8104L100.732 56.1355Z" fill="#612A7A"/>
<path d="M79.1924 53.1389L72.9133 51.3514L72.3049 53.4887L78.584 55.2762L79.1924 53.1389Z" fill="#612A7A"/>
<path d="M87.4011 55.4907L81.1219 53.7032L80.5135 55.8406L86.7926 57.628L87.4011 55.4907Z" fill="#612A7A"/>
<path d="M95.6136 57.8159L89.3344 56.0284L88.726 58.1657L95.0052 59.9532L95.6136 57.8159Z" fill="#612A7A"/>
<path d="M78.0388 57.2069L71.7597 55.4194L71.1512 57.5567L77.4304 59.3442L78.0388 57.2069Z" fill="#612A7A"/>
<path d="M86.2513 59.5453L79.9722 57.7578L79.3638 59.8951L85.6429 61.6826L86.2513 59.5453Z" fill="#612A7A"/>
<path d="M94.4639 61.8849L88.1847 60.0974L87.5763 62.2347L93.8554 64.0222L94.4639 61.8849Z" fill="#612A7A"/>
<path d="M76.8889 61.2787L70.6097 59.4912L70.0013 61.6285L76.2804 63.416L76.8889 61.2787Z" fill="#612A7A"/>
<path d="M85.0844 63.6133L78.8052 61.8258L78.1968 63.9631L84.4759 65.7506L85.0844 63.6133Z" fill="#612A7A"/>
<path d="M93.2969 65.9528L87.0177 64.1653L86.4093 66.3026L92.6884 68.0901L93.2969 65.9528Z" fill="#612A7A"/>
<path d="M75.7358 65.3466L69.4566 63.5591L68.8482 65.6964L75.1274 67.4839L75.7358 65.3466Z" fill="#612A7A"/>
<path d="M83.9346 67.6688L77.6555 65.8813L77.047 68.0187L83.3262 69.8061L83.9346 67.6688Z" fill="#612A7A"/>
<path d="M92.1435 70.0208L85.8644 68.2333L85.256 70.3706L91.5351 72.1581L92.1435 70.0208Z" fill="#612A7A"/>
<path d="M74.5685 69.4157L68.2893 67.6282L67.6809 69.7655L73.9601 71.553L74.5685 69.4157Z" fill="#612A7A"/>
<path d="M82.7807 71.754L76.5016 69.9666L75.8931 72.1039L82.1723 73.8913L82.7807 71.754Z" fill="#612A7A"/>
<path d="M90.9802 74.0753L84.701 72.2878L84.0926 74.4251L90.3717 76.2126L90.9802 74.0753Z" fill="#612A7A"/>
<path d="M62.2774 54.2716L80.1104 57.4048L73.8164 79.2957L56.991 72.6291L62.2774 54.2716Z" fill="#8DC63F"/>
<path d="M68.3784 71.3596L67.1499 67.909L64.2238 70.1726L61.27 69.3307L66.1976 65.6454L64.0444 60.0277L67.0809 60.8973L68.2818 64.1823L71.0837 62.0429L73.9684 62.8572L69.2065 66.4321L71.4564 72.2292L68.3922 71.3596H68.3784Z" fill="#612A7A"/>
<path d="M130.311 119.71C129.772 119.71 129.331 119.296 129.331 118.758V118.716C129.331 118.178 129.772 117.736 130.311 117.736C130.849 117.736 131.291 118.178 131.291 118.716C131.291 119.254 130.849 119.71 130.311 119.71ZM130.117 107.936C129.579 107.936 129.137 107.522 129.137 106.984V106.943C129.137 106.404 129.579 105.963 130.117 105.963C130.656 105.963 131.097 106.404 131.097 106.943C131.097 107.481 130.656 107.936 130.117 107.936ZM129.924 96.1627C129.386 96.1627 128.944 95.7486 128.944 95.2103V95.1689C128.944 94.6306 129.386 94.189 129.924 94.189C130.462 94.189 130.904 94.6306 130.904 95.1689C130.904 95.7072 130.462 96.1627 129.924 96.1627ZM129.731 84.3891C129.206 84.3891 128.778 83.9888 128.751 83.4643V83.4229C128.737 82.8846 129.151 82.4291 129.689 82.4153C130.214 82.3601 130.683 82.8156 130.697 83.3539C130.711 83.8922 130.297 84.3615 129.758 84.3891H129.717H129.731ZM129.538 72.6155C129.013 72.6155 128.585 72.2152 128.558 71.6907V71.6493C128.544 71.111 128.958 70.6555 129.496 70.6417H129.524C130.048 70.6417 130.49 71.0558 130.504 71.5803C130.518 72.1186 130.103 72.5879 129.565 72.6155H129.524H129.538ZM129.358 60.8419C128.82 60.8419 128.378 60.4278 128.378 59.8895V59.8481C128.378 59.3098 128.82 58.8681 129.358 58.8681C129.896 58.8681 130.338 59.3098 130.338 59.8481C130.338 60.3864 129.896 60.8419 129.358 60.8419ZM129.165 49.0683C128.627 49.0683 128.185 48.6542 128.185 48.1159V48.0745C128.185 47.5362 128.627 47.0945 129.165 47.0945C129.703 47.0945 130.145 47.5362 130.145 48.0745C130.145 48.6128 129.703 49.0683 129.165 49.0683ZM128.972 37.2946C128.447 37.2946 128.019 36.8944 127.992 36.3699V36.3284C127.978 35.7901 128.392 35.3347 128.93 35.3209H128.958C129.482 35.3209 129.924 35.7349 129.938 36.2594C129.952 36.7977 129.538 37.267 128.999 37.2946H128.958H128.972ZM128.778 25.521C128.254 25.521 127.826 25.1207 127.798 24.5962V24.5548C127.785 24.0165 128.199 23.561 128.737 23.5472C129.331 23.492 129.731 23.9475 129.745 24.4858C129.758 25.0241 129.344 25.4934 128.806 25.521H128.765H128.778ZM128.599 13.7474C128.061 13.7474 127.619 13.3333 127.619 12.795V12.7536C127.619 12.2153 128.061 11.7736 128.599 11.7736C129.137 11.7736 129.579 12.2153 129.579 12.7536C129.579 13.2919 129.137 13.7474 128.599 13.7474ZM128.406 1.97377C127.867 1.97377 127.426 1.55969 127.426 1.02139V0.979985C127.426 0.441683 127.867 0 128.406 0C128.944 0 129.386 0.441683 129.386 0.979985C129.386 1.51829 128.944 1.97377 128.406 1.97377Z" fill="#612A7A"/>
<path d="M102.857 162.857C102.54 162.857 102.222 162.692 102.043 162.388V162.36C101.739 161.905 101.891 161.297 102.36 161.021C102.829 160.745 103.423 160.897 103.699 161.353C103.975 161.808 103.837 162.429 103.368 162.705C103.202 162.802 103.023 162.843 102.857 162.843V162.857ZM96.7563 152.795C96.4389 152.795 96.1352 152.643 95.942 152.353V152.326C95.6383 151.87 95.7764 151.263 96.2318 150.973C96.6873 150.683 97.2946 150.821 97.5845 151.277C97.8744 151.732 97.7363 152.353 97.2808 152.643C97.1152 152.754 96.9358 152.795 96.7563 152.795ZM90.6418 142.733C90.3243 142.733 90.0069 142.567 89.8274 142.264V142.236C89.5238 141.781 89.6756 141.173 90.1449 140.897C90.6142 140.621 91.2077 140.773 91.4837 141.228C91.7598 141.684 91.6218 142.305 91.1525 142.581C90.9869 142.678 90.8074 142.719 90.6418 142.719V142.733ZM84.541 132.671C84.2236 132.671 83.9199 132.519 83.7267 132.229V132.202C83.423 131.746 83.5611 131.139 84.0165 130.849C84.472 130.559 85.0793 130.697 85.3692 131.153C85.659 131.608 85.521 132.229 85.0655 132.519C84.8999 132.629 84.7205 132.671 84.541 132.671ZM78.4265 122.609C78.109 122.609 77.7916 122.443 77.6121 122.139V122.112C77.3085 121.656 77.4603 121.049 77.9296 120.773C78.3989 120.497 78.9924 120.649 79.2684 121.104C79.5445 121.56 79.4065 122.181 78.9372 122.457C78.7715 122.554 78.5921 122.595 78.4265 122.595V122.609ZM72.3257 112.547C72.0083 112.547 71.7046 112.395 71.5114 112.105V112.077C71.2077 111.622 71.3458 111.015 71.8012 110.725C72.2567 110.435 72.864 110.573 73.1539 111.028C73.4437 111.484 73.3057 112.105 72.8502 112.395C72.6846 112.505 72.5052 112.547 72.3257 112.547ZM66.2112 102.485C65.8937 102.485 65.5763 102.319 65.3968 102.015V101.988C65.0932 101.532 65.245 100.925 65.7143 100.649C66.1836 100.373 66.7771 100.525 67.0531 100.98C67.3292 101.436 67.1912 102.057 66.7219 102.333C66.5562 102.429 66.3768 102.471 66.2112 102.471V102.485ZM60.0966 92.4225C59.7792 92.4225 59.4755 92.2706 59.2823 91.9808V91.9532C58.9786 91.4977 59.1166 90.8904 59.5721 90.6005C60.0276 90.3106 60.6349 90.4487 60.9248 90.9042C61.2146 91.3596 61.0766 91.9808 60.6211 92.2706C60.4555 92.381 60.2761 92.4225 60.0966 92.4225ZM53.9821 82.3604C53.6646 82.3604 53.3472 82.1947 53.1677 81.8911V81.8635C52.8641 81.408 53.0159 80.8007 53.4852 80.5246C53.9545 80.2486 54.548 80.4004 54.824 80.8559C55.1001 81.3114 54.9621 81.9325 54.4928 82.2085C54.3271 82.3051 54.1477 82.3465 53.9821 82.3465V82.3604ZM47.8675 72.2982C47.5639 72.2982 47.2602 72.1464 47.0808 71.8704L47.0532 71.8428C46.7495 71.3873 46.8737 70.78 47.3292 70.4901C47.7847 70.1865 48.392 70.3107 48.6819 70.7662C48.9855 71.2216 48.8751 71.8428 48.4196 72.1464C48.254 72.2568 48.0608 72.3121 47.8675 72.3121V72.2982ZM41.753 62.2361C41.4355 62.2361 41.1181 62.0705 40.9386 61.7669V61.7393C40.635 61.2838 40.7868 60.6765 41.2561 60.4004C41.7254 60.1244 42.3189 60.2762 42.5949 60.7317C42.871 61.1872 42.733 61.8083 42.2637 62.0843C42.098 62.1809 41.9186 62.2223 41.753 62.2223V62.2361ZM35.6522 52.1741C35.3348 52.1741 35.0311 52.0222 34.8379 51.7324V51.7048C34.5342 51.2493 34.6722 50.642 35.1277 50.3521C35.5832 50.0623 36.1905 50.2003 36.4804 50.6558C36.7702 51.1113 36.6322 51.7324 36.1767 52.0222C36.0111 52.1326 35.8317 52.1741 35.6522 52.1741ZM29.5377 42.112C29.2202 42.112 28.9027 41.9463 28.7233 41.6427V41.6151C28.4197 41.1596 28.5715 40.5523 29.0408 40.2762C29.5101 40.0002 30.1036 40.152 30.3796 40.6075C30.6557 41.063 30.5177 41.6841 30.0484 41.9601C29.8827 42.0567 29.7033 42.0982 29.5377 42.0982V42.112ZM23.4369 32.0499C23.1195 32.0499 22.8158 31.898 22.6226 31.6082V31.5806C22.3189 31.1251 22.4569 30.5178 22.9124 30.2279C23.3679 29.9381 23.9752 30.0761 24.2651 30.5316C24.5549 30.9871 24.4169 31.6082 23.9614 31.898C23.7958 32.0085 23.6164 32.0499 23.4369 32.0499Z" fill="#612A7A"/>
<path d="M171.539 166.377C171.401 166.377 171.263 166.349 171.139 166.294C170.642 166.073 170.421 165.507 170.656 165.01V164.969C170.904 164.472 171.484 164.265 171.967 164.486C172.464 164.707 172.671 165.286 172.45 165.783C172.284 166.142 171.912 166.363 171.539 166.363V166.377ZM176.453 155.68C176.315 155.68 176.177 155.652 176.052 155.597C175.556 155.376 175.335 154.81 175.569 154.313V154.272C175.818 153.775 176.398 153.568 176.881 153.789C177.377 154.009 177.585 154.589 177.364 155.086C177.198 155.445 176.825 155.666 176.453 155.666V155.68ZM181.366 144.983C181.228 144.983 181.09 144.955 180.966 144.9C180.469 144.679 180.248 144.113 180.483 143.616V143.575C180.732 143.078 181.311 142.871 181.794 143.092C182.291 143.312 182.498 143.892 182.277 144.389C182.112 144.748 181.739 144.969 181.366 144.969V144.983ZM186.28 134.286C186.142 134.286 186.004 134.258 185.88 134.203C185.383 133.982 185.162 133.416 185.397 132.919V132.878C185.645 132.381 186.225 132.174 186.708 132.395C187.205 132.615 187.412 133.195 187.191 133.692C187.026 134.051 186.653 134.272 186.28 134.272V134.286ZM191.194 123.589C191.056 123.589 190.918 123.561 190.794 123.506C190.297 123.285 190.076 122.719 190.311 122.222V122.181C190.559 121.684 191.139 121.477 191.622 121.698C192.119 121.918 192.326 122.498 192.105 122.995C191.939 123.354 191.567 123.575 191.194 123.575V123.589ZM196.108 112.892C195.97 112.892 195.832 112.864 195.707 112.809C195.21 112.588 194.99 112.022 195.224 111.525V111.484C195.473 110.987 196.052 110.78 196.536 111.001C197.032 111.221 197.239 111.801 197.019 112.298C196.853 112.657 196.48 112.878 196.108 112.878V112.892ZM201.021 102.195C200.883 102.195 200.745 102.167 200.621 102.112C200.124 101.891 199.903 101.325 200.138 100.828V100.787C200.386 100.29 200.966 100.083 201.449 100.304C201.946 100.524 202.153 101.104 201.932 101.601C201.767 101.96 201.394 102.181 201.021 102.181V102.195ZM205.935 91.4975C205.797 91.4975 205.659 91.4699 205.535 91.4147C205.038 91.1938 204.817 90.6279 205.052 90.131V90.0896C205.3 89.5927 205.88 89.3857 206.363 89.6066C206.86 89.8274 207.067 90.4071 206.846 90.904C206.68 91.2629 206.308 91.4837 205.935 91.4837V91.4975ZM210.849 80.8005C210.711 80.8005 210.573 80.7729 210.449 80.7177C209.952 80.4968 209.731 79.9309 209.965 79.434V79.3926C210.214 78.8957 210.794 78.6887 211.277 78.9095C211.774 79.1304 211.981 79.7101 211.76 80.207C211.594 80.5658 211.221 80.7867 210.849 80.7867V80.8005ZM215.763 70.1035C215.625 70.1035 215.486 70.0759 215.362 70.0207C214.865 69.7998 214.645 69.2339 214.879 68.737V68.6956C215.128 68.1987 215.707 67.9917 216.19 68.2125C216.687 68.4334 216.894 69.0131 216.674 69.51C216.508 69.8688 216.135 70.0897 215.763 70.0897V70.1035ZM220.676 59.4065C220.538 59.4065 220.4 59.3789 220.276 59.3236C219.779 59.1028 219.558 58.5369 219.793 58.04V57.9986C220.041 57.5017 220.621 57.2947 221.104 57.5155C221.601 57.7363 221.808 58.3161 221.587 58.8129C221.422 59.1718 221.049 59.3927 220.676 59.3927V59.4065ZM225.59 48.7094C225.452 48.7094 225.314 48.6818 225.19 48.6266C224.693 48.4058 224.472 47.8399 224.707 47.343V47.3016C224.955 46.8047 225.535 46.5976 226.018 46.8185C226.515 47.0393 226.722 47.619 226.501 48.1159C226.335 48.4748 225.963 48.6956 225.59 48.6956V48.7094ZM230.504 38.0124C230.366 38.0124 230.228 37.9848 230.103 37.9296C229.607 37.7088 229.386 37.1429 229.62 36.646V36.6046C229.869 36.1077 230.449 35.9006 230.932 36.1215C231.428 36.3423 231.636 36.922 231.415 37.4189C231.249 37.7778 230.876 37.9986 230.504 37.9986V38.0124Z" fill="#612A7A"/>
<path d="M181.49 73.789V92.3811H176.839V101.684H172.187V106.336H167.55V110.973H158.274V115.625H149.123V116.826C149.123 116.826 149.027 116.784 148.958 116.784C130.366 116.784 115.238 101.656 115.238 83.0782C115.238 64.4999 130.366 49.3584 148.958 49.3584C149.013 49.3584 149.054 49.3446 149.123 49.317V50.5592H158.247V55.2107H167.536V59.8484H172.174V64.4999H176.825V73.7752H181.477L181.49 73.789Z" fill="white"/>
<path d="M158.261 97.0322H149.123V101.739H158.261V97.0322Z" fill="#612A7A"/>
<path d="M167.495 69.1235H158.357V73.8302H167.495V69.1235Z" fill="#612A7A"/>
<path d="M162.926 92.381H158.274V97.0325H162.926V92.381Z" fill="#612A7A"/>
<path d="M167.578 87.743H162.926V92.3945H167.578V87.743Z" fill="#612A7A"/>
<path d="M172.187 73.83H167.536V78.4814H172.187V73.83Z" fill="#612A7A"/>
<path d="M158.343 73.7887H153.692V78.4402H158.343V73.7887Z" fill="#612A7A"/>
<path d="M186.128 73.7887H181.491V92.3808H186.128V73.7887Z" fill="#612A7A"/>
<path d="M181.49 92.381H176.839V101.684H181.49V92.381Z" fill="#612A7A"/>
<path d="M181.49 64.5129H176.839V73.7883H181.49V64.5129Z" fill="#612A7A"/>
<path d="M176.825 101.698H172.174V106.349H176.825V101.698Z" fill="#612A7A"/>
<path d="M176.825 59.8622H172.174V64.5137H176.825V59.8622Z" fill="#612A7A"/>
<path d="M172.187 106.349H167.55V110.986H172.187V106.349Z" fill="#612A7A"/>
<path d="M172.187 55.2238H167.55V59.8614H172.187V55.2238Z" fill="#612A7A"/>
<path d="M167.55 110.987H158.274V115.639H167.55V110.987Z" fill="#612A7A"/>
<path d="M167.55 50.573H158.261V55.2245H167.55V50.573Z" fill="#612A7A"/>
<path d="M158.261 45.8799V50.5728H149.137V49.3306C149.137 49.3306 149.04 49.372 148.971 49.372C130.379 49.372 115.252 64.4996 115.252 83.0917C115.252 101.684 130.379 116.798 148.971 116.798C149.027 116.798 149.068 116.839 149.137 116.839V115.638H158.261V120.359H149.137V120.317C149.137 120.317 149.04 120.331 148.971 120.331C128.433 120.331 111.718 103.616 111.718 83.0917C111.718 62.5673 128.433 45.8385 148.971 45.8385C149.027 45.8385 149.096 45.8523 149.179 45.8799H158.261Z" fill="#612A7A"/>
<path d="M149.123 101.159H149.068C133.043 100.621 130.766 88.1574 130.752 88.0332C130.586 87.067 131.235 86.156 132.201 85.9904C133.167 85.8248 134.078 86.4735 134.244 87.4397C134.313 87.8538 136.162 97.1981 149.192 97.626C150.172 97.6674 150.931 98.4818 150.904 99.4479C150.876 100.4 150.089 101.159 149.137 101.159H149.123Z" fill="#612A7A"/>
<path d="M142.636 80.248C141.794 80.248 141.035 79.6406 140.897 78.7711C140.855 78.5502 139.862 73.2362 134.851 73.2362C129.841 73.2362 129.772 77.9429 129.772 78.4674C129.772 79.4474 128.985 80.2342 128.005 80.2342C127.025 80.2342 126.238 79.4474 126.238 78.4674C126.238 75.4308 128.033 69.689 134.851 69.689C141.256 69.689 143.892 75.2376 144.389 78.1638C144.554 79.1299 143.906 80.0409 142.94 80.2065C142.843 80.2204 142.746 80.2342 142.65 80.2342L142.636 80.248Z" fill="#612A7A"/>
<path d="M86.2803 92.9879L53.0299 113.982L26.2804 71.5938L51.4426 55.707L63.7545 57.3219L86.2803 92.9879Z" fill="white"/>
<path d="M52.8228 114.934L25.328 71.387L51.2907 55.0033L64.1685 56.701L87.2189 93.2227L52.809 114.948L52.8228 114.934ZM27.2328 71.8149L53.2507 113.029L85.3279 92.781L63.3542 57.9709L51.6082 56.425L27.2328 71.8149Z" fill="#612A7A"/>
<path d="M51.9117 56.4387L55.804 62.6223L63.0228 58.0674" fill="white"/>
<path d="M55.5972 63.575L50.9595 56.232L52.1327 55.4867L56.0251 61.6703L63.23 57.1154L63.9754 58.2748L55.5972 63.575Z" fill="#612A7A"/>
<path d="M51.3734 76.2183L59.02 71.3874C61.6701 75.5834 60.4003 81.2148 56.2043 83.8511C52.0083 86.5012 46.3769 85.2314 43.7406 81.0354C41.0905 76.8394 42.3603 71.208 46.5563 68.5717L51.3872 76.2183H51.3734Z" fill="#612A7A"/>
<path d="M52.0501 73.8991L47.2192 66.2525C49.2482 64.9688 51.7051 64.5548 54.0377 65.0793C56.3704 65.6038 58.4132 67.0392 59.683 69.0682L52.0363 73.8991H52.0501Z" fill="#612A7A"/>
<path d="M48.6266 93.8994C48.392 93.8994 48.1711 93.789 48.0469 93.5819C47.8399 93.2645 47.9365 92.8366 48.2677 92.6296L68.9717 79.5585C69.2891 79.3514 69.717 79.4481 69.924 79.7793C70.1311 80.0968 70.0345 80.5247 69.7032 80.7317L48.9993 93.8028C48.8889 93.8718 48.7646 93.9132 48.6266 93.9132V93.8994Z" fill="#612A7A"/>
<path d="M50.6832 97.1704C50.4485 97.1704 50.2277 97.06 50.1035 96.8529C49.8964 96.5355 49.993 96.1076 50.3243 95.9005L71.042 82.8295C71.3595 82.6224 71.7873 82.7191 71.9944 83.0503C72.2014 83.3678 72.1048 83.7957 71.7735 84.0027L51.0558 97.0738C50.9454 97.1428 50.8212 97.1842 50.6832 97.1842V97.1704Z" fill="#612A7A"/>
<path d="M52.7537 100.441C52.519 100.441 52.2982 100.331 52.1739 100.124C51.9669 99.8065 52.0635 99.3786 52.3948 99.1715L73.0987 86.1005C73.4162 85.8934 73.844 85.9901 74.0511 86.3213C74.2581 86.6388 74.1615 87.0667 73.8302 87.2737L53.1263 100.345C53.0159 100.414 52.8917 100.455 52.7537 100.455V100.441Z" fill="#612A7A"/>
<path d="M54.8102 103.713C54.5755 103.713 54.3547 103.602 54.2305 103.395C54.0234 103.078 54.1201 102.65 54.4513 102.443L75.1552 89.372C75.4727 89.1649 75.9006 89.2615 76.1076 89.5928C76.3146 89.9103 76.218 90.3381 75.8868 90.5452L55.1829 103.616C55.0724 103.685 54.9482 103.727 54.8102 103.727V103.713Z" fill="#612A7A"/>
<path d="M31.7738 91.332L48.8338 77.833L63.437 100.966L44.0167 110.738L31.7738 91.332Z" fill="#8DC63F"/>
<path d="M46.3633 89.1374C47.2052 89.0131 47.9782 89.1236 48.6821 89.441C49.386 89.7585 49.9657 90.2968 50.435 91.0421C50.9043 91.7875 51.1252 92.5328 51.1252 93.3196C51.1252 94.0925 50.8767 94.8379 50.4074 95.5418C49.9381 96.2457 49.248 96.8806 48.3646 97.4465L46.3357 98.7302L48.0886 101.505L45.7559 102.981L39.3929 92.9055L43.7546 90.145C44.6517 89.5791 45.5213 89.234 46.3633 89.1236V89.1374ZM48.3508 94.1753C48.5303 93.637 48.4336 93.0987 48.0886 92.5466C47.7435 91.9945 47.2742 91.6633 46.7221 91.5942C46.17 91.5252 45.5351 91.7047 44.8312 92.1463L42.9264 93.3472L45.1348 96.853L47.0396 95.6522C47.7435 95.2105 48.1714 94.7274 48.3508 94.1891V94.1753Z" fill="#612A7A"/>
<path d="M193.904 126.424L159.846 134.859C153.905 136.33 150.281 142.34 151.752 148.282C153.224 154.224 159.233 157.847 165.175 156.376L199.232 147.941C205.174 146.47 208.798 140.46 207.326 134.518C205.855 128.577 199.845 124.953 193.904 126.424Z" fill="#8DC63F"/>
<path d="M166.156 138.62C166.956 138.772 167.633 139.089 168.171 139.6C168.709 140.111 169.082 140.759 169.289 141.587C169.496 142.402 169.468 143.147 169.234 143.851C168.999 144.555 168.557 145.149 167.909 145.645C167.274 146.142 166.459 146.515 165.479 146.763L163.257 147.316L164.016 150.366L161.463 151.001L158.73 139.959L163.506 138.772C164.486 138.523 165.369 138.482 166.17 138.634L166.156 138.62ZM166.432 143.782C166.749 143.354 166.832 142.83 166.68 142.222C166.528 141.601 166.211 141.173 165.728 140.939C165.245 140.704 164.624 140.676 163.851 140.87L161.766 141.38L162.719 145.218L164.803 144.707C165.576 144.514 166.114 144.21 166.432 143.768V143.782Z" fill="white"/>
<path d="M170.283 138.123C169.938 137.929 169.717 137.64 169.62 137.253C169.524 136.867 169.579 136.508 169.8 136.163C170.02 135.831 170.352 135.611 170.807 135.5C171.263 135.39 171.663 135.431 172.008 135.611C172.353 135.79 172.574 136.066 172.671 136.453C172.767 136.867 172.712 137.239 172.491 137.571C172.27 137.916 171.939 138.136 171.484 138.247C171.028 138.357 170.628 138.316 170.283 138.123ZM170.545 139.738L173.002 139.13L175.1 147.619L172.643 148.226L170.545 139.738Z" fill="white"/>
<path d="M182.802 145.701L180.29 143.561L179.006 146.639L176.328 147.302L178.537 142.222L174.341 138.785L177.101 138.095L179.517 140.124L180.745 137.184L183.368 136.536L181.242 141.463L185.604 144.997L182.815 145.687L182.802 145.701Z" fill="white"/>
<path d="M193.913 139.186L187.495 140.773C187.743 141.27 188.116 141.615 188.626 141.822C189.137 142.015 189.703 142.043 190.352 141.877C190.793 141.767 191.166 141.601 191.484 141.394C191.787 141.173 192.063 140.883 192.284 140.538L193.94 141.629C193.361 142.747 192.312 143.492 190.78 143.865C189.827 144.099 188.93 144.127 188.102 143.934C187.274 143.74 186.57 143.368 186.018 142.802C185.452 142.236 185.065 141.532 184.858 140.69C184.651 139.862 184.665 139.061 184.886 138.288C185.121 137.529 185.535 136.867 186.128 136.328C186.722 135.79 187.453 135.404 188.309 135.197C189.137 134.99 189.938 134.99 190.697 135.169C191.456 135.348 192.118 135.735 192.657 136.315C193.209 136.881 193.595 137.612 193.816 138.495C193.816 138.523 193.858 138.758 193.927 139.172L193.913 139.186ZM187.481 137.888C187.177 138.302 187.053 138.785 187.108 139.351L191.29 138.316C191.069 137.805 190.738 137.433 190.283 137.198C189.827 136.977 189.317 136.922 188.778 137.06C188.226 137.198 187.798 137.474 187.495 137.888H187.481Z" fill="white"/>
<path d="M193.582 130.6L196.038 129.993L198.937 141.698L196.48 142.305L193.582 130.6Z" fill="white"/>
<path d="M186.162 168.818L175.073 175.817C169.717 179.198 168.113 186.279 171.493 191.633C174.872 196.986 181.954 198.585 187.31 195.204L198.399 188.205C203.756 184.824 205.359 177.743 201.98 172.389C198.6 167.036 191.519 165.437 186.162 168.818Z" fill="#612A7A"/>
<path d="M211.111 201.325C206.874 201.325 202.401 200.676 197.778 199.351C180.704 194.451 175.956 186.335 174.99 180.4C173.526 171.47 179.517 162.885 186.101 158.344C191.58 154.562 197.184 153.651 201.09 155.928C203.064 157.074 204.334 158.716 204.845 160.828C206.183 166.294 202.001 172.947 201.822 173.223C201.615 173.54 201.187 173.637 200.869 173.43C200.552 173.223 200.455 172.795 200.662 172.477C200.704 172.408 204.707 166.032 203.506 161.146C203.078 159.42 202.043 158.068 200.4 157.115C196.963 155.128 191.898 156.011 186.874 159.475C180.856 163.63 174.99 171.884 176.342 180.179C177.253 185.728 181.767 193.319 198.15 198.026C212.008 202.001 224.541 199.751 232.546 191.843C239.13 185.328 241.753 175.928 239.379 167.301C236.908 158.302 229.648 151.898 218.937 149.248C218.564 149.151 218.343 148.778 218.426 148.406C218.523 148.033 218.896 147.812 219.268 147.895C230.324 150.628 238.136 157.571 240.718 166.929C243.23 176.039 240.469 185.949 233.526 192.809C227.853 198.413 220.041 201.325 211.111 201.325Z" fill="#612A7A"/>
<path d="M189.689 180.815C189.455 180.815 189.234 180.704 189.109 180.497C188.902 180.18 188.999 179.752 189.33 179.545L200.869 172.257C201.187 172.05 201.615 172.147 201.822 172.478C202.029 172.796 201.932 173.223 201.601 173.43L190.062 180.718C189.951 180.787 189.827 180.829 189.689 180.829V180.815Z" fill="white"/>
<path d="M194.52 190.31C194.286 190.31 194.065 190.2 193.94 189.993L182.498 171.87C182.291 171.553 182.388 171.125 182.719 170.918C183.036 170.711 183.464 170.807 183.671 171.138L195.114 189.261C195.321 189.579 195.224 190.007 194.893 190.214C194.782 190.283 194.658 190.324 194.52 190.324V190.31Z" fill="white"/>
<path d="M191.349 178.479L191.658 178.969C192.158 179.762 193.207 179.999 194 179.498L196.556 177.885C197.349 177.385 197.586 176.336 197.085 175.543L196.776 175.053C196.276 174.26 195.227 174.023 194.434 174.524L191.878 176.137C191.085 176.637 190.848 177.686 191.349 178.479Z" fill="#612A7A"/>
<path d="M193.071 180.456C192.891 180.456 192.712 180.442 192.546 180.4C191.925 180.262 191.401 179.89 191.056 179.351L190.738 178.855C190.034 177.75 190.365 176.273 191.484 175.57L194.037 173.955C195.141 173.251 196.618 173.582 197.322 174.7L197.639 175.197C197.985 175.735 198.095 176.37 197.943 176.991C197.791 177.612 197.432 178.137 196.894 178.482L194.341 180.097C193.954 180.345 193.512 180.469 193.071 180.469V180.456ZM195.307 174.948C195.127 174.948 194.934 175.004 194.769 175.1L192.215 176.715C191.746 177.005 191.608 177.626 191.898 178.095L192.215 178.592C192.353 178.813 192.574 178.979 192.836 179.034C193.098 179.089 193.361 179.048 193.595 178.91L196.149 177.295C196.37 177.157 196.535 176.936 196.59 176.674C196.646 176.411 196.59 176.149 196.466 175.915L196.149 175.418C195.956 175.114 195.638 174.948 195.293 174.948H195.307Z" fill="white"/>
</svg>
