<svg width="1481" height="800" viewBox="0 0 1481 800" fill="none" xmlns="http://www.w3.org/2000/svg">
<path d="M2308.13 646.602C2633.31 439.117 2429.32 -160.65 1852.15 220.343C1482.51 464.333 1265.37 90.5062 1405.21 47.7528C1545.05 4.99928 1653.6 226.672 1341.38 339.116C1029.16 451.559 895.59 325.886 709.294 294.493C522.997 263.1 226.079 503.399 226.079 503.399C226.079 503.399 145.962 561 176.461 608.5C206.959 656 292.959 632.5 284.959 576.5C276.959 520.5 239.959 464 148.459 458C56.959 452 9.95902 503.399 9.95902 503.399" stroke="#613182" stroke-width="2" stroke-miterlimit="10" stroke-linecap="round" stroke-dasharray="0.3 8"/>
<path d="M473.308 367.508C483.181 364.489 488.737 354.039 485.719 344.166C482.7 334.293 472.25 328.736 462.377 331.754C452.504 334.773 446.947 345.224 449.965 355.097C452.984 364.97 463.435 370.526 473.308 367.508Z" fill="#613182"/>
<path d="M1197.58 389.624C1205.84 387.097 1210.49 378.348 1207.97 370.083C1205.44 361.818 1196.69 357.166 1188.42 359.693C1180.16 362.22 1175.51 370.969 1178.03 379.234C1180.56 387.499 1189.31 392.151 1197.58 389.624Z" fill="#613182"/>
<path d="M1469.58 51.2889C1473.54 52.7912 1477.96 50.8013 1479.46 46.8443C1480.97 42.8874 1478.98 38.4618 1475.02 36.9596C1471.06 35.4573 1466.64 37.4472 1465.14 41.4041C1463.63 45.3611 1465.62 49.7866 1469.58 51.2889Z" fill="#613182"/>
<path d="M540.202 305.667L506.703 315.909L516.945 349.408L550.444 339.166L540.202 305.667Z" stroke="#613182" stroke-width="1.92" stroke-miterlimit="10"/>
<path d="M1247.54 355.122L1226.97 361.409L1233.26 381.975L1253.83 375.687L1247.54 355.122Z" stroke="#613182" stroke-width="1.92" stroke-miterlimit="10"/>
</svg>
