<svg width="97" height="146" viewBox="0 0 97 146" fill="none" xmlns="http://www.w3.org/2000/svg">
<g clip-path="url(#clip0_351_8378)">
<path d="M66.6861 72.2702C66.4099 72.2702 66.1509 72.1485 65.9783 71.9053C65.7021 71.5056 65.8057 70.9669 66.1855 70.6889L82.7578 58.9769C85.4163 57.1002 86.9354 54.2852 87.039 51.0357L89.0588 37.5513L95.6186 32.5468C95.9984 32.2514 96.5336 32.3383 96.827 32.7206C97.1205 33.1028 97.0342 33.6415 96.6544 33.9369L90.6469 38.5244L88.748 51.1921C88.6444 54.8412 86.8146 58.2297 83.7418 60.3844L67.1695 72.0964C67.0141 72.2007 66.8415 72.2528 66.6688 72.2528L66.6861 72.2702Z" fill="#613182"/>
<path d="M6.68079 135.4C6.68079 135.4 6.61174 135.4 6.57721 135.4C6.11111 135.348 5.76586 134.914 5.81765 134.427L7.40583 121.169L8.70054 123.428C8.83865 123.688 12.343 129.631 18.316 128.137C23.3049 126.886 25.6181 109.682 26.1015 103.166C26.136 102.697 26.5503 102.332 27.0337 102.367C27.5171 102.402 27.8623 102.819 27.8278 103.305C27.6379 105.842 25.8253 128.067 18.7475 129.84C13.8794 131.056 10.375 128.171 8.5797 126.121L7.56119 134.653C7.50941 135.087 7.12962 135.418 6.69805 135.418L6.68079 135.4Z" fill="#613182"/>
<path d="M30.503 146C30.106 146 29.7607 145.739 29.6571 145.34L26.498 132.359L28.5005 134.01C28.725 134.201 34.0937 138.528 39.1345 135.018C43.3984 132.064 40.6018 113.471 39.1517 106.572C39.0481 106.103 39.3589 105.634 39.825 105.547C40.2911 105.443 40.7572 105.755 40.8435 106.224C41.3959 108.883 46.0741 132.307 40.1184 136.46C35.9926 139.327 31.6942 137.868 29.2946 136.582L31.3316 144.94C31.4525 145.409 31.159 145.878 30.6929 145.983C30.6239 145.983 30.5548 146 30.4858 146H30.503Z" fill="#613182"/>
<path d="M11.3769 49.4L3.57236 93.0619C2.83287 97.1989 5.56513 101.156 9.67503 101.9L53.0506 109.756C57.1605 110.501 61.0917 107.751 61.8312 103.613L69.6357 59.9516C70.3752 55.8146 67.6429 51.8574 63.533 51.1131L20.1574 43.2571C16.0475 42.5127 12.1163 45.263 11.3769 49.4Z" fill="#613182"/>
<path d="M54.2402 105.251C53.8432 105.251 53.4461 105.217 53.0491 105.147L20.1633 99.1869C16.5727 98.5439 14.1904 95.0686 14.8291 91.4716L20.7503 58.3687C21.061 56.6137 22.0277 55.1019 23.4778 54.094C24.9279 53.0862 26.6714 52.7039 28.415 53.0167L61.3007 58.9769C63.0443 59.2897 64.5462 60.2628 65.5474 61.7224C66.5486 63.1821 66.9284 64.9372 66.6177 66.6922L60.6965 99.7951C60.3858 101.55 59.4191 103.062 57.969 104.07C56.8469 104.852 55.5522 105.251 54.223 105.251H54.2402ZM27.2411 54.6327C26.2571 54.6327 25.2904 54.9281 24.4618 55.5189C23.3915 56.2661 22.6837 57.3956 22.442 58.6815L16.5209 91.7843C16.0375 94.443 17.8156 96.9974 20.4568 97.4839L53.3426 103.444C54.62 103.687 55.9147 103.392 56.985 102.645C58.0553 101.898 58.7631 100.768 59.0048 99.4823L64.9259 66.3794C65.4093 63.7208 63.6312 61.1664 60.99 60.6798L28.1043 54.7196C27.8108 54.6675 27.5173 54.6327 27.2239 54.6327H27.2411Z" fill="#6553A3"/>
<path d="M42.1564 36.0569C42.4326 54.9629 12.9304 54.9629 13.2239 36.0569C12.9476 17.1509 42.4499 17.1509 42.1564 36.0569Z" fill="white"/>
<path d="M27.6725 51.1052C24.7032 51.1052 21.7513 50.358 19.2137 48.881C14.6908 46.2223 12.2567 41.6696 12.343 36.0569C12.2567 30.4616 14.7081 25.9088 19.2137 23.2502C24.2717 20.2787 31.0732 20.2787 36.1313 23.2502C40.6369 25.9088 43.0882 30.4616 43.0019 36.0743C43.0709 41.687 40.6369 46.2397 36.1313 48.8984C33.6109 50.3928 30.6417 51.1226 27.6725 51.1226V51.1052ZM27.6725 22.7463C25.014 22.7463 22.3555 23.4066 20.0941 24.7446C16.1409 27.0731 14.0003 31.0871 14.0693 36.0395C14.0003 41.0267 16.1409 45.0407 20.0941 47.3692C24.6342 50.0452 30.728 50.0452 35.2681 47.3692C39.2213 45.0407 41.3619 41.0267 41.2929 36.0569C41.3619 31.0698 39.2213 27.0557 35.2681 24.7272C33.0067 23.3892 30.3482 22.7289 27.6897 22.7289L27.6725 22.7463Z" fill="#6553A3"/>
<path d="M72.0041 36.0569C72.2803 54.9629 42.778 54.9629 43.0715 36.0569C42.7953 17.1509 72.2975 17.1509 72.0041 36.0569Z" fill="white"/>
<path d="M57.5377 51.1052C54.5685 51.1052 51.6165 50.358 49.0789 48.881C44.556 46.2223 42.122 41.6696 42.2083 36.0569C42.122 30.4616 44.5733 25.9088 49.0789 23.2502C54.1369 20.2787 60.9385 20.2787 65.9965 23.2502C70.5021 25.9088 72.9534 30.4616 72.8671 36.0743C72.9362 41.687 70.5021 46.2397 65.9965 48.8984C63.4761 50.3754 60.5069 51.1226 57.5377 51.1226V51.1052ZM57.5377 22.7463C54.8792 22.7463 52.2207 23.4066 49.9593 24.7446C46.0061 27.0731 43.8655 31.0871 43.9346 36.0395C43.8655 41.0267 46.0061 45.0407 49.9593 47.3692C54.4994 50.0279 60.5932 50.0279 65.1333 47.3692C69.0865 45.0407 71.2271 41.0267 71.1581 36.0569C71.2271 31.0698 69.0865 27.0557 65.1333 24.7272C62.8719 23.3892 60.2134 22.7289 57.555 22.7289L57.5377 22.7463Z" fill="#6553A3"/>
<path d="M31.7292 37.0821C31.3494 37.0821 31.0041 36.8389 30.9006 36.4392C29.5368 31.5042 28.2248 31.0871 27.845 31.0698C26.5676 31.0176 24.7032 34.2845 23.9091 36.5087C23.7537 36.9605 23.2531 37.1864 22.8043 37.03C22.3554 36.8736 22.131 36.3697 22.2864 35.9179C22.6834 34.8058 24.8586 29.2626 27.9141 29.3321C29.8475 29.4016 31.3149 31.5216 32.5578 35.97C32.6786 36.4392 32.4197 36.9084 31.9536 37.0474C31.8845 37.0648 31.7982 37.0821 31.7119 37.0821H31.7292Z" fill="#613182"/>
<path d="M54.1711 37.0821C54.0848 37.0821 53.9812 37.0821 53.8949 37.03C53.4461 36.8736 53.2044 36.3871 53.3425 35.9353C54.7753 31.6258 56.398 29.5232 58.3315 29.5232C61.3525 29.5232 63.2686 34.8753 63.6139 35.9353C63.7692 36.3871 63.5103 36.8736 63.0615 37.03C62.6126 37.1864 62.1293 36.9257 61.9739 36.4739C61.2834 34.3713 59.6434 31.2435 58.3315 31.2435C57.8481 31.2435 56.5534 31.7474 54.9825 36.4739C54.8616 36.8388 54.5164 37.0647 54.1711 37.0647V37.0821Z" fill="#613182"/>
<path d="M34.3874 63.0605L39.4972 63.9814L35.3368 87.3011L49.6995 89.8903L48.9227 94.2345L29.4502 90.7244L34.3874 63.0605Z" fill="white"/>
<path d="M14.4142 72.0443C14.138 72.0443 13.8618 71.9053 13.6891 71.662L1.65693 53.3816C-0.138403 50.6534 -0.48366 47.3866 0.707477 44.4325L5.76549 31.8865L2.48555 25.0921C2.2784 24.6577 2.45103 24.1364 2.8826 23.9279C3.31417 23.7194 3.83205 23.8931 4.03921 24.3275L7.66441 31.817L2.31292 45.0755C1.3462 47.4908 1.62241 50.1669 3.10701 52.4085L15.1565 70.6889C15.4154 71.0886 15.3119 71.6272 14.9148 71.8879C14.7767 71.9921 14.6041 72.0269 14.4314 72.0269L14.4142 72.0443Z" fill="#613182"/>
<path d="M54.5676 10.8779L50.4763 12.3202L48.9054 16.5775L47.4208 12.407L43.2432 10.8779L47.4726 9.29659L48.9054 5.17828L50.4245 9.38347L54.5676 10.8779Z" fill="#613182"/>
<path d="M70.5015 3.24946L68.1711 4.06617L67.2734 6.49893L66.4448 4.11831L64.0625 3.24946L66.462 2.34587L67.2734 0L68.1538 2.398L70.5015 3.24946Z" fill="#613182"/>
<path d="M83.4311 29.5406L80.4964 21.2518L72.2275 18.2109L80.5655 15.1005L83.4484 6.84647L86.4867 15.2395L94.7901 18.2283L86.5557 21.1302L83.4484 29.5406H83.4311ZM77.2165 18.2109L81.843 19.9138L83.4657 24.4666L85.2092 19.7574L89.594 18.2109L85.1229 16.6122L83.4657 12.0248L81.912 16.4732L77.2165 18.2283V18.2109Z" fill="#613182"/>
<path d="M21.0259 53.6075L57.7612 54.6327C58.2619 54.6327 58.6071 55.2756 58.3827 55.7796C57.1916 58.4382 47.697 64.2421 42.38 64.8329C32.7991 65.8929 27.1024 58.8031 20.7497 55.0671C20.1109 54.6848 20.3008 53.5901 21.0086 53.6075H21.0259Z" fill="#FFD441"/>
</g>
<defs>
<clipPath id="clip0_351_8378">
<rect width="97" height="146" fill="white"/>
</clipPath>
</defs>
</svg>
