<svg width="323" height="53" viewBox="0 0 323 53" fill="none" xmlns="http://www.w3.org/2000/svg">
<g clip-path="url(#clip0_2450_6836)">
<path fill-rule="evenodd" clip-rule="evenodd" d="M124.04 0H5.16C2.32 0 0 2.32 0 5.16V38.67C0 41.51 2.32 43.83 5.16 43.83H10.67C11.92 43.83 13.03 44.25 13.86 45.22L20.38 51.74C22.37 53.73 25.59 53.73 27.58 51.74L34.1 45.22C34.93 44.39 36.04 43.83 37.29 43.83H123.46C126.3 43.83 128.61 41.51 128.61 38.68V4.58C128.47 2.08 126.53 0 124.04 0Z" fill="#602B7A"/>
<path d="M14.1601 10.54H17.8501C18.1701 10.54 18.4301 10.8 18.4301 11.12V26.74C18.4301 27.06 18.6901 27.32 19.0101 27.32H28.2401C28.5601 27.32 28.8201 27.58 28.8201 27.9V30.62C28.8201 30.94 28.5601 31.2 28.2401 31.2H14.1601C13.8401 31.2 13.5801 30.94 13.5801 30.62V11.12C13.5801 10.8 13.8401 10.54 14.1601 10.54Z" fill="white"/>
<path d="M35.0595 30.37C33.6895 29.68 32.7195 28.72 31.8995 27.49C31.8795 27.47 31.8695 27.44 31.8595 27.42C31.1795 26.18 30.7695 24.8 30.7695 23.16C30.7695 21.52 31.1895 20.11 31.8795 18.86C32.5695 17.61 33.6795 16.64 35.0695 15.95C36.4595 15.26 37.8395 14.84 39.6395 14.84C41.2995 14.84 42.8295 15.26 44.0695 15.95C45.4595 16.64 46.4295 17.61 47.1195 18.86C47.8095 20.11 48.2295 21.5 48.2295 23.16C48.2295 24.82 47.8095 26.21 47.1195 27.46C46.4295 28.71 45.3195 29.68 44.0695 30.37C42.6795 31.06 41.2995 31.48 39.6395 31.48C37.8395 31.48 36.3095 31.06 35.0695 30.37H35.0595ZM42.4095 26.49C43.0995 25.66 43.5195 24.55 43.5195 23.3C43.5195 22.05 43.0995 20.94 42.4095 20.11C41.7195 19.28 40.6095 18.86 39.4995 18.86C38.3895 18.86 37.2795 19.28 36.5895 20.11C35.7595 20.94 35.4795 21.91 35.4795 23.3C35.4795 24.69 35.8995 25.66 36.5895 26.49C37.4195 27.32 38.3895 27.74 39.4995 27.74C40.6095 27.74 41.7195 27.32 42.4095 26.49Z" fill="white"/>
<path d="M67.7403 15.26C68.0603 15.26 68.3203 15.52 68.3203 15.84V28.57C68.3203 31.48 67.6303 33.7 66.1003 35.09C64.5803 36.48 62.3603 37.17 59.4503 37.17C57.9303 37.17 56.4003 37.03 55.0203 36.62C53.8403 36.27 52.8603 35.81 51.9903 35.25C51.7403 35.09 51.6603 34.75 51.8003 34.49L53.0303 32.21C53.2003 31.9 53.5903 31.82 53.8803 32.01C54.4403 32.38 55.0803 32.69 55.8003 32.99C55.8303 32.99 55.8603 33.01 55.8803 33.02C56.8403 33.29 57.9303 33.56 58.8903 33.56C60.5503 33.56 61.6603 33.14 62.4903 32.45C63.1803 31.76 63.6003 30.65 63.6003 29.12V28.43C62.3503 29.82 60.6903 30.37 58.6103 30.37C57.0903 30.37 55.8403 30.09 54.5903 29.4C53.3403 28.71 52.3703 27.87 51.6803 26.63C50.9903 25.52 50.5703 24.13 50.5703 22.61C50.5703 21.09 50.9903 19.7 51.6803 18.59C52.3703 17.48 53.3403 16.51 54.5903 15.82C55.8403 15.13 57.0803 14.85 58.6103 14.85C60.9703 14.85 62.6303 15.54 63.8803 17.07V15.85C63.8803 15.53 64.1403 15.27 64.4603 15.27H67.7403V15.26ZM62.6403 25.65C63.4703 24.96 63.7503 23.99 63.7503 22.88C63.7503 21.77 63.3303 20.8 62.6403 20.11C61.8103 19.42 60.8403 19 59.5903 19C58.3403 19 57.3703 19.42 56.5403 20.11C55.7103 20.8 55.2903 21.77 55.2903 22.88C55.2903 23.99 55.7103 24.96 56.5403 25.65C57.3703 26.34 58.3403 26.76 59.5903 26.76C60.8403 26.62 61.8103 26.34 62.6403 25.65Z" fill="white"/>
<path d="M72.9003 12.34C72.3503 11.79 72.0703 11.23 72.0703 10.54C72.0703 9.85 72.3503 9.15 72.9003 8.74C73.4503 8.19 74.1503 8.05 74.9803 8.05C75.4603 8.05 75.8903 8.14 76.2803 8.3C77.4803 8.79 78.1603 10.16 77.7703 11.39C77.6403 11.8 77.4003 12.14 77.0603 12.48C76.5103 13.03 75.8103 13.17 74.9803 13.17C74.1503 13.03 73.4603 12.75 72.9003 12.34ZM73.2003 15.25H76.6103C76.9303 15.25 77.1903 15.51 77.1903 15.83V30.62C77.1903 30.94 76.9303 31.2 76.6103 31.2H73.2003C72.8803 31.2 72.6203 30.94 72.6203 30.62V15.84C72.6203 15.52 72.8803 15.26 73.2003 15.26V15.25Z" fill="white"/>
<path d="M86.1999 23.61V30.63C86.1999 30.95 85.9399 31.21 85.6199 31.21H82.2099C81.8899 31.21 81.6299 30.95 81.6299 30.63V9.87C81.6299 9.55 81.8899 9.29 82.2099 9.29H85.6199C85.9399 9.29 86.1999 9.55 86.1999 9.87V20.43C86.1999 20.94 86.8099 21.2 87.1799 20.85L92.8199 15.55C92.9299 15.45 93.0699 15.39 93.2199 15.39H97.1499C97.6699 15.39 97.9299 16.01 97.5699 16.38L92.2399 21.82C92.0399 22.03 92.0199 22.36 92.1999 22.59L98.3499 30.4C98.6499 30.78 98.3799 31.34 97.8899 31.34H93.8299C93.6499 31.34 93.4799 31.26 93.3699 31.12L87.2399 23.25C86.8999 22.81 86.1999 23.05 86.1999 23.61Z" fill="white"/>
<path d="M112.95 16.78C114.34 17.89 114.89 19.69 114.89 22.05V30.62C114.89 30.94 114.63 31.2 114.31 31.2H111.18C110.86 31.2 110.6 30.94 110.6 30.62V29.26C109.77 30.79 108.1 31.48 105.75 31.48C104.5 31.48 103.53 31.34 102.56 30.93C101.75 30.52 101.07 29.99 100.52 29.32C100.49 29.28 100.46 29.25 100.44 29.21C100.04 28.53 99.7803 27.72 99.7803 26.77C99.7803 25.24 100.33 24.13 101.44 23.3C102.55 22.47 104.21 22.05 106.57 22.05H109.68C110.03 22.05 110.31 21.73 110.26 21.39C110.15 20.7 109.87 20.12 109.34 19.7C108.79 19.15 107.82 18.87 106.57 18.87C105.74 18.87 104.91 19.01 104.07 19.29C103.45 19.5 102.9 19.78 102.43 20.09C102.17 20.26 101.83 20.18 101.64 19.93L100.35 18.18C100.17 17.94 100.2 17.6 100.42 17.41C101.32 16.63 102.4 16.07 103.37 15.82C104.62 15.54 105.87 15.27 107.11 15.27C109.6 15.13 111.54 15.69 112.93 16.8L112.95 16.78ZM108.98 27.84C109.49 27.45 109.99 26.93 110.15 26.3C110.16 26.24 110.17 26.19 110.17 26.13V25.13C110.17 24.81 109.91 24.55 109.59 24.55H107.12C105.18 24.55 104.21 25.1 104.21 26.35C104.21 26.9 104.49 27.46 104.9 27.74C105.32 28.02 106.01 28.29 106.84 28.29C107.64 28.42 108.31 28.17 108.86 27.9C108.9 27.88 108.94 27.86 108.97 27.83H108.98V27.84Z" fill="white"/>
<path d="M157.06 6.83783V14.3253H155.669V11.1164H151.801V14.3253H150.41V6.83783H151.801V9.93087H155.669V6.83783H157.06Z" fill="#602B7A"/>
<path d="M163.068 9.15544C163.514 9.55655 163.737 10.1627 163.737 10.9827V14.3343H162.471V13.639C162.31 13.8886 162.07 14.0758 161.767 14.2095C161.464 14.3432 161.098 14.4056 160.67 14.4056C160.242 14.4056 159.868 14.3343 159.547 14.1827C159.226 14.0401 158.977 13.8351 158.807 13.5766C158.629 13.3181 158.549 13.024 158.549 12.6942C158.549 12.1772 158.736 11.7671 159.119 11.4552C159.503 11.1432 160.1 10.9917 160.92 10.9917H162.4V10.9025C162.4 10.5014 162.284 10.1983 162.043 9.98441C161.802 9.77048 161.446 9.66351 160.982 9.66351C160.661 9.66351 160.349 9.717 160.037 9.81505C159.725 9.9131 159.467 10.0557 159.253 10.234L158.727 9.2624C159.03 9.03064 159.387 8.86128 159.806 8.73649C160.225 8.6117 160.67 8.55822 161.143 8.55822C161.981 8.55822 162.631 8.76323 163.077 9.16435L163.068 9.15544ZM161.847 13.2022C162.105 13.0507 162.293 12.8279 162.4 12.5426V11.883H161.018C160.251 11.883 159.859 12.1326 159.859 12.6407C159.859 12.8813 159.957 13.0774 160.144 13.2201C160.34 13.3627 160.608 13.434 160.947 13.434C161.285 13.434 161.579 13.3538 161.838 13.2022H161.847Z" fill="#602B7A"/>
<path d="M165.395 8.61174H166.732V12.3733L169.887 8.61174H171.108V14.3254H169.771V10.5549L166.625 14.3165H165.395V8.61174ZM166.847 7.53318C166.544 7.26577 166.393 6.87357 166.384 6.36549H167.275C167.275 6.62399 167.364 6.829 167.516 6.97162C167.668 7.11424 167.881 7.19446 168.167 7.19446C168.452 7.19446 168.657 7.12316 168.817 6.97162C168.978 6.82009 169.058 6.61508 169.067 6.36549H169.976C169.976 6.88249 169.816 7.26577 169.504 7.53318C169.201 7.80059 168.755 7.9343 168.176 7.9343C167.596 7.9343 167.159 7.80059 166.856 7.53318H166.847Z" fill="#602B7A"/>
<path d="M177.428 9.23566C177.838 9.46742 178.168 9.78831 178.4 10.2073C178.631 10.6173 178.747 11.0986 178.747 11.6334C178.747 12.1683 178.622 12.6674 178.364 13.0953C178.105 13.5231 177.749 13.8529 177.285 14.0847C176.822 14.3165 176.296 14.4412 175.699 14.4412C174.709 14.4412 173.943 14.1114 173.399 13.4607C172.855 12.81 172.588 11.8563 172.588 10.6262C172.588 9.47633 172.837 8.56714 173.328 7.89861C173.818 7.23009 174.576 6.7844 175.583 6.57047L178.239 6L178.435 7.19443L176.029 7.68468C175.333 7.8273 174.816 8.06797 174.478 8.4156C174.139 8.75432 173.934 9.23566 173.88 9.85962C174.139 9.55655 174.451 9.31588 174.807 9.14652C175.173 8.97716 175.574 8.89694 176.002 8.89694C176.546 8.89694 177.018 9.01282 177.437 9.24457L177.428 9.23566ZM176.92 12.8724C177.223 12.5515 177.375 12.1504 177.375 11.6602C177.375 11.1699 177.223 10.7688 176.92 10.4747C176.617 10.1716 176.216 10.029 175.726 10.029C175.235 10.029 174.825 10.1805 174.513 10.4747C174.21 10.7777 174.05 11.1699 174.05 11.6602C174.05 12.1504 174.201 12.5694 174.513 12.8814C174.825 13.1933 175.226 13.3538 175.717 13.3538C176.207 13.3538 176.608 13.1933 176.911 12.8814L176.92 12.8724Z" fill="#602B7A"/>
<path d="M180.102 7.43505C179.942 7.28352 179.853 7.08742 179.853 6.86458C179.853 6.64174 179.933 6.44564 180.102 6.2941C180.271 6.14257 180.468 6.06235 180.708 6.06235C180.949 6.06235 181.154 6.13366 181.314 6.28519C181.475 6.42781 181.564 6.61499 181.564 6.83784C181.564 7.06959 181.484 7.27461 181.323 7.43505C181.163 7.5955 180.958 7.67572 180.708 7.67572C180.459 7.67572 180.263 7.5955 180.102 7.44397V7.43505ZM180.04 8.60274H181.377V14.3164H180.04V8.61166V8.60274Z" fill="#602B7A"/>
<path d="M188.355 8.61176V14.3254H187.018V9.74379H184.879L184.826 10.8758C184.79 11.6335 184.719 12.2664 184.621 12.7744C184.514 13.2825 184.344 13.6836 184.095 13.9867C183.845 14.2808 183.515 14.4324 183.087 14.4324C182.891 14.4324 182.642 14.3967 182.348 14.3165L182.41 13.1934C182.508 13.2112 182.597 13.229 182.669 13.229C182.936 13.229 183.141 13.1221 183.275 12.8992C183.408 12.6853 183.498 12.4179 183.533 12.1148C183.569 11.8118 183.604 11.375 183.631 10.8134L183.729 8.61176H188.347H188.355Z" fill="#602B7A"/>
<path d="M194.693 10.9828C195.086 11.3126 195.273 11.7761 195.273 12.3733C195.273 12.9705 195.059 13.4875 194.631 13.8263C194.203 14.165 193.597 14.3343 192.822 14.3254H190.147V8.61176H191.485V10.4836H193.018C193.749 10.4925 194.301 10.6619 194.693 10.9828ZM193.606 13.1042C193.811 12.9349 193.918 12.6853 193.918 12.3555C193.918 12.0257 193.82 11.8028 193.615 11.6513C193.41 11.4998 193.116 11.4196 192.706 11.4196H191.485V13.3449H192.706C193.098 13.3627 193.401 13.2825 193.606 13.1132V13.1042Z" fill="#602B7A"/>
<path d="M204.873 8.61176V14.3254H196.458V8.61176H197.795V13.1934H200.006V8.61176H201.343V13.1934H203.535V8.61176H204.873Z" fill="#602B7A"/>
<path d="M210.729 9.15544C211.175 9.55655 211.398 10.1627 211.398 10.9827V14.3343H210.132V13.639C209.972 13.8886 209.731 14.0758 209.428 14.2095C209.125 14.3432 208.759 14.4056 208.331 14.4056C207.904 14.4056 207.529 14.3343 207.208 14.1827C206.887 14.0401 206.638 13.8351 206.468 13.5766C206.29 13.3181 206.21 13.024 206.21 12.6942C206.21 12.1772 206.397 11.7671 206.78 11.4552C207.164 11.1432 207.761 10.9917 208.581 10.9917H210.061V10.9025C210.061 10.5014 209.945 10.1983 209.704 9.98441C209.463 9.77048 209.107 9.66351 208.643 9.66351C208.322 9.66351 208.011 9.717 207.699 9.81505C207.387 9.9131 207.128 10.0557 206.914 10.234L206.388 9.2624C206.691 9.03064 207.048 8.86128 207.467 8.73649C207.886 8.6117 208.331 8.55822 208.804 8.55822C209.642 8.55822 210.292 8.76323 210.738 9.16435L210.729 9.15544ZM209.508 13.2022C209.767 13.0507 209.954 12.8279 210.061 12.5426V11.883H208.679C207.912 11.883 207.52 12.1326 207.52 12.6407C207.52 12.8813 207.618 13.0774 207.806 13.2201C208.002 13.3627 208.269 13.434 208.608 13.434C208.946 13.434 209.241 13.3538 209.499 13.2022H209.508Z" fill="#602B7A"/>
<path d="M221.203 12.721C221.203 13.2379 221.006 13.6302 220.623 13.9065C220.24 14.1828 219.669 14.3254 218.912 14.3254H216.006V8.61176H218.796C219.491 8.61176 220.044 8.73655 220.436 8.99504C220.828 9.25354 221.024 9.619 221.024 10.0825C221.024 10.3767 220.944 10.6262 220.792 10.8402C220.641 11.0541 220.427 11.2235 220.142 11.3393C220.846 11.5533 221.203 12.0079 221.203 12.712V12.721ZM217.281 11.0006H218.68C219.375 11.0006 219.714 10.7599 219.714 10.2875C219.714 9.8151 219.366 9.59226 218.68 9.59226H217.281V11.0006ZM219.91 12.6407C219.91 12.3912 219.821 12.204 219.652 12.0792C219.482 11.9544 219.215 11.892 218.849 11.892H217.281V13.3538H218.814C219.545 13.3538 219.919 13.1132 219.919 12.6407H219.91Z" fill="#602B7A"/>
<path d="M232.158 6.83783L228.904 12.8813C228.619 13.4161 228.28 13.8172 227.879 14.0846C227.487 14.3521 227.05 14.4858 226.587 14.4858C226.212 14.4858 225.847 14.4055 225.481 14.254L225.82 13.1665C226.114 13.2557 226.355 13.3092 226.551 13.3092C226.997 13.3092 227.371 13.0774 227.665 12.6139L227.781 12.4356L224.795 6.85566H226.284L228.494 11.2501L230.776 6.85566H232.149L232.158 6.83783Z" fill="#602B7A"/>
<path d="M235.135 12.0346H234.101V14.3254H232.764V8.61176H234.101V10.9204H235.17L236.864 8.61176H238.299L236.222 11.3572L238.433 14.3165H236.864L235.144 12.0257L235.135 12.0346Z" fill="#602B7A"/>
<path d="M244.022 8.91475C244.459 9.15542 244.806 9.50306 245.056 9.93983C245.306 10.3855 245.43 10.8936 245.43 11.473C245.43 12.0524 245.306 12.5604 245.056 13.0061C244.806 13.4518 244.459 13.7994 244.022 14.0401C243.585 14.2808 243.086 14.4056 242.533 14.4056C241.767 14.4056 241.152 14.1471 240.706 13.639V16.4111H239.369V8.61169H240.644V9.36044C240.867 9.09303 241.134 8.88801 241.464 8.75431C241.785 8.6206 242.15 8.54929 242.542 8.54929C243.095 8.54929 243.594 8.67408 244.031 8.91475H244.022ZM243.594 12.7655C243.915 12.4357 244.067 12.0078 244.067 11.473C244.067 10.9382 243.906 10.5103 243.594 10.1805C243.273 9.85069 242.872 9.69024 242.382 9.69024C242.061 9.69024 241.776 9.76155 241.517 9.91308C241.259 10.0646 241.054 10.2696 240.911 10.537C240.76 10.8045 240.688 11.1253 240.688 11.4819C240.688 11.8384 240.76 12.1504 240.911 12.4267C241.063 12.7031 241.268 12.9081 241.517 13.0507C241.767 13.1933 242.061 13.2735 242.382 13.2735C242.872 13.2735 243.282 13.1131 243.594 12.7833V12.7655Z" fill="#602B7A"/>
<path d="M250.743 9.15544C251.189 9.55655 251.411 10.1627 251.411 10.9827V14.3343H250.146V13.639C249.985 13.8886 249.745 14.0758 249.441 14.2095C249.138 14.3432 248.773 14.4056 248.345 14.4056C247.917 14.4056 247.543 14.3343 247.222 14.1827C246.901 14.0401 246.651 13.8351 246.482 13.5766C246.304 13.3181 246.224 13.024 246.224 12.6942C246.224 12.1772 246.411 11.7671 246.794 11.4552C247.177 11.1432 247.775 10.9917 248.595 10.9917H250.074V10.9025C250.074 10.5014 249.958 10.1983 249.718 9.98441C249.477 9.77048 249.121 9.66351 248.657 9.66351C248.336 9.66351 248.024 9.717 247.712 9.81505C247.4 9.9131 247.142 10.0557 246.928 10.234L246.402 9.2624C246.705 9.03064 247.061 8.86128 247.48 8.73649C247.899 8.6117 248.345 8.55822 248.817 8.55822C249.655 8.55822 250.306 8.76323 250.752 9.16435L250.743 9.15544ZM249.522 13.2022C249.78 13.0507 249.967 12.8279 250.074 12.5426V11.883H248.693C247.926 11.883 247.534 12.1326 247.534 12.6407C247.534 12.8813 247.632 13.0774 247.819 13.2201C248.015 13.3627 248.283 13.434 248.621 13.434C248.96 13.434 249.254 13.3538 249.513 13.2022H249.522Z" fill="#602B7A"/>
<path d="M252.463 7.52422C252.348 7.40834 252.285 7.25681 252.285 7.06963C252.285 6.88244 252.348 6.73091 252.463 6.60611C252.579 6.48132 252.731 6.42784 252.909 6.42784C253.087 6.42784 253.221 6.49024 253.346 6.60611C253.462 6.73091 253.524 6.88244 253.524 7.06963C253.524 7.25681 253.462 7.39943 253.346 7.51531C253.23 7.6401 253.087 7.69358 252.909 7.69358C252.731 7.69358 252.579 7.63119 252.463 7.51531V7.52422ZM253.043 8.61169H254.38V14.3254H253.043V8.61169ZM254.095 7.52422C253.979 7.39943 253.916 7.25681 253.916 7.07854C253.916 6.90027 253.979 6.73982 254.095 6.61503C254.211 6.49024 254.362 6.43675 254.54 6.43675C254.719 6.43675 254.861 6.49915 254.977 6.61503C255.093 6.73982 255.146 6.89135 255.146 7.07854C255.146 7.26573 255.093 7.41726 254.977 7.53314C254.861 7.64901 254.719 7.71141 254.54 7.71141C254.362 7.71141 254.211 7.64901 254.095 7.53314V7.52422Z" fill="#602B7A"/>
<path d="M256.162 8.61176H257.499V10.9293H260.378V8.61176H261.715V14.3254H260.378V12.0703H257.499V14.3254H256.162V8.61176Z" fill="#602B7A"/>
<path d="M263.57 7.43505C263.409 7.28352 263.32 7.08742 263.32 6.86458C263.32 6.64174 263.401 6.44564 263.57 6.2941C263.739 6.14257 263.935 6.06235 264.176 6.06235C264.417 6.06235 264.622 6.13366 264.782 6.28519C264.943 6.42781 265.032 6.61499 265.032 6.83784C265.032 7.06959 264.952 7.27461 264.791 7.43505C264.631 7.5955 264.426 7.67572 264.176 7.67572C263.926 7.67572 263.73 7.5955 263.57 7.44397V7.43505ZM263.507 8.60274H264.845V14.3164H263.507V8.61166V8.60274Z" fill="#602B7A"/>
<path d="M278.028 8.61176V14.3254H269.613V8.61176H270.95V13.1934H273.161V8.61176H274.498V13.1934H276.691V8.61176H278.028Z" fill="#602B7A"/>
<path d="M282.199 12.0346H281.165V14.3254H279.828V8.61176H281.165V10.9204H282.235L283.928 8.61176H285.364L283.287 11.3572L285.497 14.3165H283.928L282.208 12.0257L282.199 12.0346Z" fill="#602B7A"/>
<path d="M287.227 14.0223C286.763 13.7727 286.398 13.4251 286.139 12.9794C285.881 12.5337 285.747 12.0256 285.747 11.4641C285.747 10.9025 285.881 10.3944 286.139 9.95765C286.398 9.52088 286.763 9.17325 287.227 8.92367C287.69 8.67408 288.207 8.54929 288.787 8.54929C289.366 8.54929 289.892 8.67408 290.355 8.92367C290.819 9.17325 291.184 9.52088 291.443 9.95765C291.701 10.3944 291.835 10.9025 291.835 11.4641C291.835 12.0256 291.701 12.5337 291.443 12.9794C291.184 13.4251 290.819 13.7727 290.355 14.0223C289.892 14.2719 289.366 14.3967 288.787 14.3967C288.207 14.3967 287.69 14.2719 287.227 14.0223ZM290.008 12.7565C290.329 12.4267 290.489 11.9989 290.489 11.4641C290.489 10.9292 290.329 10.5014 290.008 10.1716C289.687 9.84178 289.277 9.68133 288.787 9.68133C288.296 9.68133 287.886 9.84178 287.574 10.1716C287.253 10.5014 287.102 10.9292 287.102 11.4641C287.102 11.9989 287.262 12.4267 287.574 12.7565C287.895 13.0864 288.296 13.2468 288.787 13.2468C289.277 13.2468 289.687 13.0864 290.008 12.7565Z" fill="#602B7A"/>
<path d="M298.262 8.61176V14.3254H296.925V9.74379H294.785L294.732 10.8758C294.696 11.6335 294.625 12.2664 294.527 12.7744C294.429 13.2825 294.251 13.6836 294.001 13.9867C293.751 14.2808 293.422 14.4324 292.994 14.4324C292.798 14.4324 292.548 14.3967 292.254 14.3165L292.316 13.1934C292.414 13.2112 292.504 13.229 292.575 13.229C292.842 13.229 293.047 13.1221 293.181 12.8992C293.315 12.6853 293.404 12.4179 293.439 12.1148C293.475 11.8118 293.511 11.375 293.537 10.8134L293.636 8.61176H298.253H298.262Z" fill="#602B7A"/>
<path d="M304.118 9.15544C304.564 9.55655 304.786 10.1627 304.786 10.9827V14.3343H303.521V13.639C303.36 13.8886 303.12 14.0758 302.816 14.2095C302.513 14.3432 302.148 14.4056 301.72 14.4056C301.292 14.4056 300.918 14.3343 300.597 14.1827C300.276 14.0401 300.026 13.8351 299.857 13.5766C299.679 13.3181 299.599 13.024 299.599 12.6942C299.599 12.1772 299.786 11.7671 300.169 11.4552C300.552 11.1432 301.15 10.9917 301.97 10.9917H303.449V10.9025C303.449 10.5014 303.333 10.1983 303.093 9.98441C302.852 9.77048 302.496 9.66351 302.032 9.66351C301.711 9.66351 301.399 9.717 301.087 9.81505C300.775 9.9131 300.517 10.0557 300.303 10.234L299.777 9.2624C300.08 9.03064 300.437 8.86128 300.855 8.73649C301.274 8.6117 301.72 8.55822 302.193 8.55822C303.03 8.55822 303.681 8.76323 304.127 9.16435L304.118 9.15544ZM302.897 13.2022C303.155 13.0507 303.342 12.8279 303.449 12.5426V11.883H302.068C301.301 11.883 300.909 12.1326 300.909 12.6407C300.909 12.8813 301.007 13.0774 301.194 13.2201C301.39 13.3627 301.658 13.434 301.996 13.434C302.335 13.434 302.629 13.3538 302.888 13.2022H302.897Z" fill="#602B7A"/>
<path d="M155.732 23.765V29.4786H154.404V24.897H151.587V29.4786H150.25V23.765H155.723H155.732Z" fill="#602B7A"/>
<path d="M162.203 24.068C162.64 24.3087 162.987 24.6563 163.237 25.0931C163.486 25.5388 163.611 26.0468 163.611 26.6262C163.611 27.2056 163.486 27.7137 163.237 28.1594C162.987 28.6051 162.64 28.9527 162.203 29.1934C161.766 29.434 161.267 29.5588 160.714 29.5588C159.948 29.5588 159.333 29.3003 158.887 28.7922V31.5644H157.55V23.7739H158.824V24.5226C159.047 24.2552 159.315 24.0502 159.645 23.9165C159.965 23.7828 160.331 23.7115 160.723 23.7115C161.276 23.7115 161.775 23.8362 162.212 24.0769L162.203 24.068ZM161.775 27.9187C162.096 27.5889 162.247 27.161 162.247 26.6262C162.247 26.0914 162.087 25.6635 161.775 25.3337C161.454 25.0039 161.053 24.8435 160.563 24.8435C160.242 24.8435 159.956 24.9148 159.698 25.0663C159.44 25.2179 159.234 25.4229 159.092 25.6903C158.94 25.9577 158.869 26.2786 158.869 26.6351C158.869 26.9917 158.94 27.3037 159.092 27.58C159.243 27.8563 159.448 28.0613 159.698 28.2039C159.948 28.3466 160.242 28.4268 160.563 28.4268C161.053 28.4268 161.463 28.2663 161.775 27.9365V27.9187Z" fill="#602B7A"/>
<path d="M165.92 29.1755C165.457 28.9259 165.091 28.5783 164.833 28.1326C164.574 27.6869 164.44 27.1789 164.44 26.6173C164.44 26.0557 164.574 25.5477 164.833 25.1109C165.091 24.6741 165.457 24.3265 165.92 24.0769C166.384 23.8273 166.901 23.7025 167.48 23.7025C168.059 23.7025 168.585 23.8273 169.049 24.0769C169.512 24.3265 169.878 24.6741 170.136 25.1109C170.395 25.5566 170.528 26.0557 170.528 26.6173C170.528 27.1789 170.395 27.6869 170.136 28.1326C169.878 28.5783 169.512 28.9259 169.049 29.1755C168.585 29.4251 168.059 29.5499 167.48 29.5499C166.901 29.5499 166.384 29.4251 165.92 29.1755ZM168.701 27.9098C169.022 27.58 169.183 27.1521 169.183 26.6173C169.183 26.0825 169.022 25.6546 168.701 25.3248C168.38 24.995 167.97 24.8346 167.48 24.8346C166.99 24.8346 166.58 24.995 166.268 25.3248C165.947 25.6546 165.795 26.0825 165.795 26.6173C165.795 27.1521 165.956 27.58 166.268 27.9098C166.58 28.2396 166.99 28.4 167.48 28.4C167.97 28.4 168.38 28.2396 168.701 27.9098Z" fill="#602B7A"/>
<path d="M176.224 24.897H173.176V29.4786H171.839V23.765H176.224V24.897Z" fill="#602B7A"/>
<path d="M181.858 24.068C182.295 24.3087 182.642 24.6563 182.892 25.0931C183.142 25.5388 183.266 26.0468 183.266 26.6262C183.266 27.2056 183.142 27.7137 182.892 28.1594C182.642 28.6051 182.295 28.9527 181.858 29.1934C181.421 29.434 180.922 29.5588 180.369 29.5588C179.603 29.5588 178.988 29.3003 178.542 28.7922V31.5644H177.205V23.7739H178.48V24.5226C178.703 24.2552 178.97 24.0502 179.3 23.9165C179.621 23.7828 179.986 23.7115 180.378 23.7115C180.931 23.7115 181.43 23.8362 181.867 24.0769L181.858 24.068ZM181.43 27.9187C181.751 27.5889 181.903 27.161 181.903 26.6262C181.903 26.0914 181.742 25.6635 181.43 25.3337C181.109 25.0039 180.708 24.8435 180.218 24.8435C179.897 24.8435 179.612 24.9148 179.353 25.0663C179.095 25.2179 178.89 25.4229 178.747 25.6903C178.596 25.9577 178.524 26.2786 178.524 26.6351C178.524 26.9917 178.596 27.3037 178.747 27.58C178.899 27.8563 179.104 28.0613 179.353 28.2039C179.603 28.3466 179.897 28.4268 180.218 28.4268C180.708 28.4268 181.118 28.2663 181.43 27.9365V27.9187Z" fill="#602B7A"/>
<path d="M188.579 24.3087C189.024 24.7098 189.247 25.3159 189.247 26.136V29.4875H187.982V28.7922C187.821 29.0418 187.58 29.229 187.277 29.3627C186.974 29.4964 186.609 29.5588 186.181 29.5588C185.753 29.5588 185.379 29.4875 185.058 29.336C184.737 29.1934 184.487 28.9883 184.318 28.7299C184.14 28.4714 184.06 28.1772 184.06 27.8474C184.06 27.3304 184.247 26.9204 184.63 26.6084C185.013 26.2964 185.611 26.1449 186.431 26.1449H187.91V26.0558C187.91 25.6546 187.794 25.3516 187.554 25.1376C187.313 24.9237 186.957 24.8168 186.493 24.8168C186.172 24.8168 185.86 24.8702 185.548 24.9683C185.236 25.0663 184.978 25.209 184.764 25.3872L184.238 24.4156C184.541 24.1839 184.897 24.0145 185.316 23.8897C185.735 23.7649 186.181 23.7115 186.653 23.7115C187.491 23.7115 188.142 23.9165 188.588 24.3176L188.579 24.3087ZM187.358 28.3555C187.616 28.2039 187.803 27.9811 187.91 27.6959V27.0363H186.529C185.762 27.0363 185.37 27.2858 185.37 27.7939C185.37 28.0346 185.468 28.2307 185.655 28.3733C185.851 28.5159 186.119 28.5872 186.457 28.5872C186.796 28.5872 187.09 28.507 187.349 28.3555H187.358Z" fill="#602B7A"/>
<path d="M196.521 29.4786V25.6903L194.596 28.8814H194.016L192.126 25.6814V29.4786H190.905V23.765H192.305L194.337 27.3394L196.467 23.765H197.715V29.4786H196.521Z" fill="#602B7A"/>
<path d="M204.918 23.765L202.244 29.9332C201.994 30.5572 201.691 30.994 201.334 31.2436C200.978 31.4931 200.55 31.6268 200.042 31.6268C199.757 31.6268 199.471 31.5823 199.195 31.4842C198.919 31.3862 198.687 31.2614 198.509 31.1009L199.044 30.1204C199.168 30.2452 199.32 30.3344 199.498 30.4057C199.676 30.477 199.846 30.5126 200.024 30.5126C200.256 30.5126 200.452 30.4502 200.604 30.3344C200.755 30.2096 200.898 30.0135 201.022 29.7282L201.121 29.5054L198.625 23.7739H200.015L201.816 27.999L203.625 23.7739H204.909L204.918 23.765Z" fill="#602B7A"/>
<path d="M211.041 27.8742C211.041 28.3912 210.845 28.7834 210.462 29.0597C210.079 29.336 209.508 29.4786 208.751 29.4786H205.845V23.765H208.635C209.33 23.765 209.883 23.8898 210.275 24.1483C210.667 24.4068 210.863 24.7722 210.863 25.2357C210.863 25.5299 210.783 25.7795 210.631 25.9934C210.48 26.2073 210.266 26.3767 209.981 26.4926C210.685 26.7065 211.041 27.1611 211.041 27.8653V27.8742ZM207.119 26.1538H208.519C209.214 26.1538 209.553 25.9132 209.553 25.4408C209.553 24.9683 209.205 24.7455 208.519 24.7455H207.119V26.1538ZM209.749 27.794C209.749 27.5444 209.66 27.3572 209.49 27.2324C209.321 27.1076 209.054 27.0452 208.688 27.0452H207.119V28.5071H208.653C209.383 28.5071 209.758 28.2664 209.758 27.794H209.749Z" fill="#602B7A"/>
<path d="M216.523 24.3087C216.969 24.7098 217.192 25.3159 217.192 26.136V29.4875H215.926V28.7922C215.765 29.0418 215.525 29.229 215.222 29.3627C214.919 29.4964 214.553 29.5588 214.125 29.5588C213.698 29.5588 213.323 29.4875 213.002 29.336C212.681 29.1934 212.432 28.9883 212.262 28.7299C212.084 28.4714 212.004 28.1772 212.004 27.8474C212.004 27.3304 212.191 26.9204 212.574 26.6084C212.958 26.2964 213.555 26.1449 214.375 26.1449H215.855V26.0558C215.855 25.6546 215.739 25.3516 215.498 25.1376C215.257 24.9237 214.901 24.8168 214.437 24.8168C214.116 24.8168 213.804 24.8702 213.492 24.9683C213.181 25.0663 212.922 25.209 212.708 25.3872L212.182 24.4156C212.485 24.1839 212.842 24.0145 213.261 23.8897C213.68 23.7649 214.125 23.7115 214.598 23.7115C215.436 23.7115 216.086 23.9165 216.532 24.3176L216.523 24.3087ZM215.302 28.3555C215.56 28.2039 215.748 27.9811 215.855 27.6959V27.0363H214.473C213.706 27.0363 213.314 27.2858 213.314 27.7939C213.314 28.0346 213.412 28.2307 213.599 28.3733C213.796 28.5159 214.063 28.5872 214.402 28.5872C214.74 28.5872 215.035 28.507 215.293 28.3555H215.302Z" fill="#602B7A"/>
<path d="M218.85 23.765H220.187V26.0825H223.066V23.765H224.403V29.4786H223.066V27.2235H220.187V29.4786H218.85V23.765Z" fill="#602B7A"/>
<path d="M226.203 23.765H227.54V26.0825H230.419V23.765H231.756V29.4786H230.419V27.2235H227.54V29.4786H226.203V23.765Z" fill="#602B7A"/>
<path d="M238.37 23.765V29.4786H237.176V27.7583H235.669L234.502 29.4786H233.066L234.412 27.5711C234.002 27.4285 233.681 27.2057 233.468 26.9115C233.254 26.6174 233.138 26.2519 233.138 25.8151C233.138 25.1555 233.369 24.6564 233.833 24.2998C234.296 23.9433 234.938 23.765 235.749 23.765H238.37ZM234.502 25.8597C234.502 26.5015 234.92 26.8224 235.749 26.8224H237.176V24.8881H235.794C234.929 24.8881 234.502 25.209 234.502 25.8597Z" fill="#602B7A"/>
<path d="M247.65 24.897H245.653V29.4786H244.316V24.897H242.302V23.765H247.65V24.897Z" fill="#602B7A"/>
<path d="M252.677 24.3087C253.123 24.7098 253.346 25.3159 253.346 26.136V29.4875H252.08V28.7922C251.92 29.0418 251.679 29.229 251.376 29.3627C251.073 29.4964 250.708 29.5588 250.28 29.5588C249.852 29.5588 249.477 29.4875 249.157 29.336C248.836 29.1934 248.586 28.9883 248.417 28.7299C248.238 28.4714 248.158 28.1772 248.158 27.8474C248.158 27.3304 248.345 26.9204 248.729 26.6084C249.112 26.2964 249.709 26.1449 250.529 26.1449H252.009V26.0558C252.009 25.6546 251.893 25.3516 251.652 25.1376C251.412 24.9237 251.055 24.8168 250.592 24.8168C250.271 24.8168 249.959 24.8702 249.647 24.9683C249.335 25.0663 249.076 25.209 248.862 25.3872L248.336 24.4156C248.64 24.1839 248.996 24.0145 249.415 23.8897C249.834 23.7649 250.28 23.7115 250.752 23.7115C251.59 23.7115 252.241 23.9165 252.686 24.3176L252.677 24.3087ZM251.456 28.3555C251.715 28.2039 251.902 27.9811 252.009 27.6959V27.0363H250.627C249.861 27.0363 249.469 27.2858 249.469 27.7939C249.469 28.0346 249.567 28.2307 249.754 28.3733C249.95 28.5159 250.217 28.5872 250.556 28.5872C250.895 28.5872 251.189 28.507 251.447 28.3555H251.456Z" fill="#602B7A"/>
<path d="M262.018 24.3087C262.464 24.7098 262.687 25.3159 262.687 26.136V29.4875H261.421V28.7922C261.261 29.0418 261.02 29.229 260.717 29.3627C260.414 29.4964 260.048 29.5588 259.62 29.5588C259.193 29.5588 258.818 29.4875 258.497 29.336C258.176 29.1934 257.927 28.9883 257.758 28.7299C257.579 28.4714 257.499 28.1772 257.499 27.8474C257.499 27.3304 257.686 26.9204 258.069 26.6084C258.453 26.2964 259.05 26.1449 259.87 26.1449H261.35V26.0558C261.35 25.6546 261.234 25.3516 260.993 25.1376C260.752 24.9237 260.396 24.8168 259.932 24.8168C259.612 24.8168 259.3 24.8702 258.988 24.9683C258.676 25.0663 258.417 25.209 258.203 25.3872L257.677 24.4156C257.98 24.1839 258.337 24.0145 258.756 23.8897C259.175 23.7649 259.62 23.7115 260.093 23.7115C260.931 23.7115 261.581 23.9165 262.027 24.3176L262.018 24.3087ZM260.797 28.3555C261.056 28.2039 261.243 27.9811 261.35 27.6959V27.0363H259.968C259.202 27.0363 258.809 27.2858 258.809 27.7939C258.809 28.0346 258.907 28.2307 259.095 28.3733C259.291 28.5159 259.558 28.5872 259.897 28.5872C260.236 28.5872 260.53 28.507 260.788 28.3555H260.797Z" fill="#602B7A"/>
<path d="M264.345 23.765H265.682V26.0825H268.561V23.765H269.898V29.4786H268.561V27.2235H265.682V29.4786H264.345V23.765Z" fill="#602B7A"/>
<path d="M276.075 24.897H273.027V29.4786H271.689V23.765H276.075V24.897Z" fill="#602B7A"/>
<path d="M281.843 23.765V29.4786H280.506V24.897H278.366L278.313 26.0291C278.277 26.7867 278.206 27.4196 278.108 27.9277C278.001 28.4357 277.832 28.8369 277.582 29.1399C277.332 29.4341 277.003 29.5856 276.575 29.5856C276.379 29.5856 276.129 29.55 275.835 29.4697L275.897 28.3466C275.995 28.3644 276.085 28.3823 276.156 28.3823C276.423 28.3823 276.628 28.2753 276.762 28.0525C276.896 27.8385 276.985 27.5711 277.02 27.2681C277.056 26.965 277.092 26.5282 277.119 25.9667L277.217 23.765H281.834H281.843Z" fill="#602B7A"/>
<path d="M283.706 22.5883C283.545 22.4368 283.456 22.2407 283.456 22.0178C283.456 21.795 283.536 21.5989 283.706 21.4473C283.875 21.2958 284.071 21.2156 284.312 21.2156C284.552 21.2156 284.757 21.2869 284.918 21.4384C285.078 21.581 285.167 21.7682 285.167 21.9911C285.167 22.2228 285.087 22.4278 284.927 22.5883C284.766 22.7487 284.561 22.829 284.312 22.829C284.062 22.829 283.866 22.7487 283.706 22.5972V22.5883ZM283.643 23.756H284.98V29.4696H283.643V23.756Z" fill="#602B7A"/>
<path d="M286.78 23.765H288.117V27.5265L291.273 23.765H292.494V29.4786H291.157V25.7171L288.01 29.4786H286.78V23.765ZM288.233 22.6864C287.93 22.419 287.779 22.0268 287.77 21.5187H288.661C288.661 21.7772 288.75 21.9822 288.902 22.1249C289.053 22.2675 289.267 22.3477 289.552 22.3477C289.838 22.3477 290.043 22.2764 290.203 22.1249C290.364 21.9733 290.444 21.7683 290.453 21.5187H291.362C291.362 22.0357 291.201 22.419 290.889 22.6864C290.586 22.9538 290.141 23.0875 289.561 23.0875C288.982 23.0875 288.545 22.9538 288.242 22.6864H288.233Z" fill="#602B7A"/>
<path d="M295.302 29.1755C294.83 28.9259 294.464 28.5783 294.197 28.1326C293.929 27.6869 293.805 27.1789 293.805 26.6173C293.805 26.0557 293.938 25.5477 294.197 25.1109C294.464 24.6652 294.83 24.3265 295.293 24.0769C295.757 23.8273 296.292 23.7025 296.889 23.7025C297.45 23.7025 297.95 23.8184 298.369 24.0412C298.796 24.273 299.108 24.5939 299.322 25.0218L298.297 25.619C298.137 25.3516 297.932 25.1555 297.682 25.0218C297.433 24.888 297.165 24.8257 296.871 24.8257C296.372 24.8257 295.962 24.9861 295.632 25.3159C295.302 25.6368 295.142 26.0736 295.142 26.6173C295.142 27.161 295.302 27.5889 295.632 27.9187C295.953 28.2396 296.372 28.4089 296.88 28.4089C297.174 28.4089 297.441 28.3465 297.691 28.2128C297.941 28.0791 298.146 27.883 298.306 27.6156L299.331 28.2128C299.108 28.6407 298.787 28.9705 298.36 29.2023C297.932 29.434 297.441 29.5499 296.889 29.5499C296.301 29.5499 295.766 29.4251 295.293 29.1755H295.302Z" fill="#602B7A"/>
<path d="M305.045 26.136C305.437 26.4658 305.624 26.9293 305.624 27.5265C305.624 28.1238 305.41 28.6408 304.983 28.9795C304.555 29.3182 303.949 29.4876 303.173 29.4786H300.499V23.7561H301.836V25.6279H303.369C304.1 25.6368 304.653 25.8062 305.045 26.1271V26.136ZM303.958 28.2575C304.163 28.0881 304.27 27.8385 304.27 27.5087C304.27 27.1789 304.171 26.9561 303.966 26.8045C303.77 26.653 303.467 26.5728 303.057 26.5728H301.836V28.4981H303.057C303.449 28.516 303.753 28.4357 303.958 28.2664V28.2575Z" fill="#602B7A"/>
<path d="M309.181 27.1878H308.147V29.4786H306.81V23.765H308.147V26.0736H309.216L310.91 23.765H312.345L310.268 26.5104L312.479 29.4697H310.91L309.19 27.1789L309.181 27.1878Z" fill="#602B7A"/>
<path d="M314.208 29.1755C313.745 28.9259 313.379 28.5783 313.121 28.1326C312.862 27.6869 312.729 27.1789 312.729 26.6173C312.729 26.0557 312.862 25.5477 313.121 25.1109C313.379 24.6741 313.745 24.3265 314.208 24.0769C314.672 23.8273 315.189 23.7025 315.768 23.7025C316.347 23.7025 316.873 23.8273 317.337 24.0769C317.8 24.3265 318.166 24.6741 318.424 25.1109C318.683 25.5477 318.817 26.0557 318.817 26.6173C318.817 27.1789 318.683 27.6869 318.424 28.1326C318.166 28.5783 317.8 28.9259 317.337 29.1755C316.873 29.4251 316.347 29.5499 315.768 29.5499C315.189 29.5499 314.672 29.4251 314.208 29.1755ZM316.989 27.9098C317.31 27.58 317.471 27.1521 317.471 26.6173C317.471 26.0825 317.31 25.6546 316.989 25.3248C316.668 24.995 316.258 24.8346 315.768 24.8346C315.278 24.8346 314.868 24.995 314.556 25.3248C314.235 25.6546 314.083 26.0825 314.083 26.6173C314.083 27.1521 314.244 27.58 314.556 27.9098C314.877 28.2396 315.278 28.4 315.768 28.4C316.258 28.4 316.668 28.2396 316.989 27.9098Z" fill="#602B7A"/>
<path d="M319.53 22.6775C319.414 22.5616 319.352 22.41 319.352 22.2229C319.352 22.0357 319.414 21.8841 319.53 21.7593C319.646 21.6346 319.797 21.5811 319.976 21.5811C320.154 21.5811 320.287 21.6435 320.412 21.7593C320.528 21.8841 320.591 22.0357 320.591 22.2229C320.591 22.41 320.528 22.5527 320.412 22.6685C320.296 22.7933 320.154 22.8468 319.976 22.8468C319.797 22.8468 319.646 22.7844 319.53 22.6685V22.6775ZM320.109 23.7649H321.446V29.4786H320.109V23.7649ZM321.161 22.6775C321.045 22.5527 320.983 22.41 320.983 22.2318C320.983 22.0535 321.045 21.893 321.161 21.7683C321.277 21.6435 321.428 21.59 321.607 21.59C321.785 21.59 321.928 21.6524 322.044 21.7683C322.159 21.893 322.213 22.0446 322.213 22.2318C322.213 22.419 322.159 22.5705 322.044 22.6864C321.928 22.8022 321.785 22.8646 321.607 22.8646C321.428 22.8646 321.277 22.8022 321.161 22.6864V22.6775Z" fill="#602B7A"/>
<path d="M155.874 44.6319V40.8436L153.949 44.0347H153.37L151.48 40.8347V44.6319H150.259V38.9182H151.658L153.691 42.4926L155.821 38.9182H157.069V44.6319H155.874Z" fill="#602B7A"/>
<path d="M159.859 44.3288C159.395 44.0792 159.03 43.7315 158.771 43.2859C158.513 42.8402 158.379 42.3321 158.379 41.7705C158.379 41.209 158.513 40.7009 158.771 40.2641C159.03 39.8274 159.395 39.4797 159.859 39.2301C160.322 38.9806 160.839 38.8558 161.418 38.8558C161.998 38.8558 162.524 38.9806 162.987 39.2301C163.451 39.4797 163.816 39.8274 164.075 40.2641C164.333 40.7098 164.467 41.209 164.467 41.7705C164.467 42.3321 164.333 42.8402 164.075 43.2859C163.816 43.7315 163.451 44.0792 162.987 44.3288C162.524 44.5783 161.998 44.7031 161.418 44.7031C160.839 44.7031 160.322 44.5783 159.859 44.3288ZM162.64 43.063C162.961 42.7332 163.121 42.3054 163.121 41.7705C163.121 41.2357 162.961 40.8079 162.64 40.4781C162.319 40.1482 161.909 39.9878 161.418 39.9878C160.928 39.9878 160.518 40.1482 160.206 40.4781C159.885 40.8079 159.734 41.2357 159.734 41.7705C159.734 42.3054 159.894 42.7332 160.206 43.063C160.518 43.3928 160.928 43.5533 161.418 43.5533C161.909 43.5533 162.319 43.3928 162.64 43.063Z" fill="#602B7A"/>
<path d="M170.983 43.0274C170.983 43.5444 170.787 43.9366 170.403 44.2129C170.02 44.4893 169.45 44.6319 168.692 44.6319H165.786V38.9182H168.576C169.271 38.9182 169.824 39.043 170.216 39.3015C170.608 39.56 170.805 39.9255 170.805 40.389C170.805 40.6831 170.724 40.9327 170.573 41.1466C170.421 41.3606 170.207 41.5299 169.922 41.6458C170.626 41.8597 170.983 42.3143 170.983 43.0185V43.0274ZM167.061 41.3071H168.46C169.155 41.3071 169.494 41.0664 169.494 40.594C169.494 40.1216 169.147 39.8987 168.46 39.8987H167.061V41.3071ZM169.69 42.9472C169.69 42.6976 169.601 42.5104 169.432 42.3856C169.262 42.2608 168.995 42.1985 168.63 42.1985H167.061V43.6603H168.594C169.325 43.6603 169.699 43.4196 169.699 42.9472H169.69Z" fill="#602B7A"/>
<path d="M172.409 38.9182H173.746V42.6798L176.902 38.9182H178.123V44.6319H176.786V40.8703L173.639 44.6319H172.409V38.9182Z" fill="#602B7A"/>
<path d="M188.971 43.4909V45.8976H187.723V44.623H183.32V45.8976H182.081V43.4909H182.348C182.714 43.4731 182.963 43.2413 183.088 42.7867C183.222 42.3322 183.311 41.6904 183.347 40.8703L183.418 38.9093H188.125V43.4909H188.971ZM184.408 42.5728C184.327 42.9828 184.185 43.2948 183.98 43.4909H186.796V40.0503H184.604L184.568 40.9684C184.541 41.628 184.488 42.1628 184.408 42.5728Z" fill="#602B7A"/>
<path d="M195.345 38.9182V44.6319H194.008V40.0503H191.868L191.815 41.1823C191.779 41.94 191.708 42.5728 191.61 43.0809C191.503 43.589 191.334 43.9901 191.084 44.2932C190.834 44.5873 190.505 44.7388 190.077 44.7388C189.881 44.7388 189.631 44.7032 189.337 44.623L189.399 43.4998C189.497 43.5177 189.586 43.5355 189.658 43.5355C189.925 43.5355 190.13 43.4285 190.264 43.2057C190.398 42.9918 190.487 42.7244 190.522 42.4213C190.558 42.1182 190.594 41.6815 190.62 41.1199L190.719 38.9182H195.336H195.345Z" fill="#602B7A"/>
<path d="M201.967 38.9182V44.6319H200.772V42.9115H199.266L198.098 44.6319H196.663L198.009 42.7244C197.599 42.5817 197.278 42.3589 197.064 42.0647C196.85 41.7706 196.734 41.4051 196.734 40.9684C196.734 40.3088 196.966 39.8096 197.43 39.453C197.893 39.0965 198.535 38.9182 199.346 38.9182H201.967ZM198.098 41.0129C198.098 41.6547 198.517 41.9756 199.346 41.9756H200.772V40.0413H199.391C198.526 40.0413 198.098 40.3622 198.098 41.0129Z" fill="#602B7A"/>
<path d="M212.102 38.9182L209.428 45.0865C209.179 45.7104 208.876 46.1472 208.519 46.3968C208.162 46.6464 207.735 46.7801 207.227 46.7801C206.941 46.7801 206.656 46.7355 206.38 46.6375C206.103 46.5394 205.872 46.4146 205.693 46.2542L206.228 45.2737C206.353 45.3985 206.505 45.4876 206.683 45.5589C206.861 45.6302 207.03 45.6659 207.209 45.6659C207.44 45.6659 207.637 45.6035 207.788 45.4876C207.94 45.3628 208.082 45.1667 208.207 44.8815L208.305 44.6586L205.809 38.9271H207.2L209 43.1522L210.81 38.9271H212.093L212.102 38.9182Z" fill="#602B7A"/>
<path d="M217.877 38.9182V44.6319H216.54V42.4213C215.988 42.6887 215.417 42.8135 214.82 42.8135C214.089 42.8135 213.519 42.6441 213.126 42.3054C212.734 41.9667 212.538 41.4497 212.538 40.7455V38.9182H213.875V40.6653C213.875 41.0308 213.982 41.2982 214.196 41.4764C214.41 41.6547 214.713 41.7439 215.105 41.7439C215.604 41.7439 216.086 41.6369 216.54 41.423V38.9182H217.877Z" fill="#602B7A"/>
<path d="M219.679 38.9182H221.016V41.2358H223.895V38.9182H225.232V44.6319H223.895V42.3767H221.016V44.6319H219.679V38.9182Z" fill="#602B7A"/>
<path d="M227.086 37.7415C226.925 37.59 226.836 37.3939 226.836 37.171C226.836 36.9482 226.916 36.7521 227.086 36.6006C227.255 36.449 227.451 36.3688 227.692 36.3688C227.932 36.3688 228.137 36.4401 228.298 36.5917C228.458 36.7343 228.547 36.9215 228.547 37.1443C228.547 37.3761 228.467 37.5811 228.307 37.7415C228.146 37.902 227.941 37.9822 227.692 37.9822C227.442 37.9822 227.246 37.902 227.086 37.7504V37.7415ZM227.023 38.9092H228.36V44.6229H227.023V38.9092Z" fill="#602B7A"/>
<path d="M235.367 43.0274C235.367 43.5444 235.17 43.9366 234.787 44.2129C234.404 44.4893 233.833 44.6319 233.076 44.6319H230.17V38.9182H232.96C233.655 38.9182 234.208 39.043 234.6 39.3015C234.992 39.56 235.188 39.9255 235.188 40.389C235.188 40.6831 235.108 40.9327 234.957 41.1466C234.805 41.3606 234.591 41.5299 234.306 41.6458C235.01 41.8597 235.367 42.3143 235.367 43.0185V43.0274ZM231.445 41.3071H232.844C233.539 41.3071 233.878 41.0664 233.878 40.594C233.878 40.1216 233.53 39.8987 232.844 39.8987H231.445V41.3071ZM234.074 42.9472C234.074 42.6976 233.985 42.5104 233.816 42.3856C233.646 42.2608 233.379 42.1985 233.013 42.1985H231.445V43.6603H232.978C233.709 43.6603 234.083 43.4196 234.083 42.9472H234.074Z" fill="#602B7A"/>
<path d="M244.957 37.1443V38.0713L242.051 44.6318H240.563L243.379 38.3209H240.438V39.5956H239.146V37.1443H244.966H244.957Z" fill="#602B7A"/>
<path d="M245.403 41.102H248.345V42.2162H245.403V41.102Z" fill="#602B7A"/>
<path d="M251.777 37.1443V44.6318H250.386V38.312H248.8V37.1443H251.777Z" fill="#602B7A"/>
<path d="M258.907 37.1443V38.0713L256.002 44.6318H254.513L257.33 38.3209H254.388V39.5956H253.096V37.1443H258.916H258.907Z" fill="#602B7A"/>
<path d="M267.803 39.2212C268.24 39.4619 268.588 39.8095 268.837 40.2463C269.087 40.692 269.212 41.2001 269.212 41.7795C269.212 42.3588 269.087 42.8669 268.837 43.3126C268.588 43.7583 268.24 44.1059 267.803 44.3466C267.367 44.5873 266.867 44.7121 266.315 44.7121C265.548 44.7121 264.933 44.4536 264.487 43.9455V46.7176H263.15V38.9271H264.425V39.6758C264.648 39.4084 264.915 39.2034 265.245 39.0697C265.566 38.936 265.931 38.8647 266.324 38.8647C266.876 38.8647 267.375 38.9895 267.812 39.2301L267.803 39.2212ZM267.375 43.0719C267.696 42.7421 267.848 42.3143 267.848 41.7795C267.848 41.2446 267.687 40.8168 267.375 40.487C267.055 40.1572 266.653 39.9967 266.163 39.9967C265.842 39.9967 265.557 40.068 265.299 40.2196C265.04 40.3711 264.835 40.5761 264.692 40.8435C264.541 41.1109 264.47 41.4318 264.47 41.7884C264.47 42.1449 264.541 42.4569 264.692 42.7332C264.844 43.0095 265.049 43.2146 265.299 43.3572C265.548 43.4998 265.842 43.58 266.163 43.58C266.653 43.58 267.063 43.4196 267.375 43.0898V43.0719Z" fill="#602B7A"/>
<path d="M271.521 44.3288C271.057 44.0792 270.692 43.7315 270.433 43.2859C270.175 42.8402 270.041 42.3321 270.041 41.7705C270.041 41.209 270.175 40.7009 270.433 40.2641C270.692 39.8274 271.057 39.4797 271.521 39.2301C271.984 38.9806 272.501 38.8558 273.081 38.8558C273.66 38.8558 274.186 38.9806 274.649 39.2301C275.113 39.4797 275.478 39.8274 275.737 40.2641C275.995 40.7098 276.129 41.209 276.129 41.7705C276.129 42.3321 275.995 42.8402 275.737 43.2859C275.478 43.7315 275.113 44.0792 274.649 44.3288C274.186 44.5783 273.66 44.7031 273.081 44.7031C272.501 44.7031 271.984 44.5783 271.521 44.3288ZM274.302 43.063C274.623 42.7332 274.783 42.3054 274.783 41.7705C274.783 41.2357 274.623 40.8079 274.302 40.4781C273.981 40.1482 273.571 39.9878 273.081 39.9878C272.59 39.9878 272.18 40.1482 271.868 40.4781C271.547 40.8079 271.396 41.2357 271.396 41.7705C271.396 42.3054 271.556 42.7332 271.868 43.063C272.18 43.3928 272.59 43.5533 273.081 43.5533C273.571 43.5533 273.981 43.3928 274.302 43.063Z" fill="#602B7A"/>
<path d="M279.819 42.3411H278.785V44.6319H277.448V38.9182H278.785V41.2269H279.855L281.549 38.9182H282.984L280.907 41.6636L283.117 44.623H281.549L279.828 42.3322L279.819 42.3411Z" fill="#602B7A"/>
<path d="M284.125 37.7415C283.964 37.59 283.875 37.3939 283.875 37.171C283.875 36.9482 283.955 36.7521 284.125 36.6006C284.294 36.449 284.49 36.3688 284.731 36.3688C284.971 36.3688 285.176 36.4401 285.337 36.5917C285.497 36.7343 285.586 36.9215 285.586 37.1443C285.586 37.3761 285.506 37.5811 285.346 37.7415C285.185 37.902 284.98 37.9822 284.731 37.9822C284.481 37.9822 284.285 37.902 284.125 37.7504V37.7415ZM284.062 38.9092H285.399V44.6229H284.062V38.9092Z" fill="#602B7A"/>
<path d="M292.396 43.0274C292.396 43.5444 292.2 43.9366 291.816 44.2129C291.433 44.4893 290.863 44.6319 290.105 44.6319H287.199V38.9182H289.989C290.684 38.9182 291.237 39.043 291.629 39.3015C292.021 39.56 292.218 39.9255 292.218 40.389C292.218 40.6831 292.137 40.9327 291.986 41.1466C291.834 41.3606 291.62 41.5299 291.335 41.6458C292.039 41.8597 292.396 42.3143 292.396 43.0185V43.0274ZM288.474 41.3071H289.873C290.569 41.3071 290.907 41.0664 290.907 40.594C290.907 40.1216 290.56 39.8987 289.873 39.8987H288.474V41.3071ZM291.103 42.9472C291.103 42.6976 291.014 42.5104 290.845 42.3856C290.676 42.2608 290.408 42.1985 290.043 42.1985H288.474V43.6603H290.007C290.738 43.6603 291.112 43.4196 291.112 42.9472H291.103Z" fill="#602B7A"/>
</g>
<defs>
<clipPath id="clip0_2450_6836">
<rect width="323" height="53" fill="white"/>
</clipPath>
</defs>
</svg>
