<svg width="129" height="53" viewBox="0 0 129 53" fill="none" xmlns="http://www.w3.org/2000/svg">
<path fill-rule="evenodd" clip-rule="evenodd" d="M124.04 0H5.16C2.32 0 0 2.32 0 5.16V38.67C0 41.51 2.32 43.83 5.16 43.83H10.67C11.92 43.83 13.03 44.25 13.86 45.22L20.38 51.74C22.37 53.73 25.59 53.73 27.58 51.74L34.1 45.22C34.93 44.39 36.04 43.83 37.29 43.83H123.46C126.3 43.83 128.61 41.51 128.61 38.68V4.58C128.47 2.08 126.53 0 124.04 0Z" fill="#602B7A"/>
<path d="M14.1601 10.54H17.8501C18.1701 10.54 18.4301 10.8 18.4301 11.12V26.74C18.4301 27.06 18.6901 27.32 19.0101 27.32H28.2401C28.5601 27.32 28.8201 27.58 28.8201 27.9V30.62C28.8201 30.94 28.5601 31.2 28.2401 31.2H14.1601C13.8401 31.2 13.5801 30.94 13.5801 30.62V11.12C13.5801 10.8 13.8401 10.54 14.1601 10.54Z" fill="white"/>
<path d="M35.0595 30.37C33.6895 29.68 32.7195 28.72 31.8995 27.49C31.8795 27.47 31.8695 27.44 31.8595 27.42C31.1795 26.18 30.7695 24.8 30.7695 23.16C30.7695 21.52 31.1895 20.11 31.8795 18.86C32.5695 17.61 33.6795 16.64 35.0695 15.95C36.4595 15.26 37.8395 14.84 39.6395 14.84C41.2995 14.84 42.8295 15.26 44.0695 15.95C45.4595 16.64 46.4295 17.61 47.1195 18.86C47.8095 20.11 48.2295 21.5 48.2295 23.16C48.2295 24.82 47.8095 26.21 47.1195 27.46C46.4295 28.71 45.3195 29.68 44.0695 30.37C42.6795 31.06 41.2995 31.48 39.6395 31.48C37.8395 31.48 36.3095 31.06 35.0695 30.37H35.0595ZM42.4095 26.49C43.0995 25.66 43.5195 24.55 43.5195 23.3C43.5195 22.05 43.0995 20.94 42.4095 20.11C41.7195 19.28 40.6095 18.86 39.4995 18.86C38.3895 18.86 37.2795 19.28 36.5895 20.11C35.7595 20.94 35.4795 21.91 35.4795 23.3C35.4795 24.69 35.8995 25.66 36.5895 26.49C37.4195 27.32 38.3895 27.74 39.4995 27.74C40.6095 27.74 41.7195 27.32 42.4095 26.49Z" fill="white"/>
<path d="M67.7403 15.26C68.0603 15.26 68.3203 15.52 68.3203 15.84V28.57C68.3203 31.48 67.6303 33.7 66.1003 35.09C64.5803 36.48 62.3603 37.17 59.4503 37.17C57.9303 37.17 56.4003 37.03 55.0203 36.62C53.8403 36.27 52.8603 35.81 51.9903 35.25C51.7403 35.09 51.6603 34.75 51.8003 34.49L53.0303 32.21C53.2003 31.9 53.5903 31.82 53.8803 32.01C54.4403 32.38 55.0803 32.69 55.8003 32.99C55.8303 32.99 55.8603 33.01 55.8803 33.02C56.8403 33.29 57.9303 33.56 58.8903 33.56C60.5503 33.56 61.6603 33.14 62.4903 32.45C63.1803 31.76 63.6003 30.65 63.6003 29.12V28.43C62.3503 29.82 60.6903 30.37 58.6103 30.37C57.0903 30.37 55.8403 30.09 54.5903 29.4C53.3403 28.71 52.3703 27.87 51.6803 26.63C50.9903 25.52 50.5703 24.13 50.5703 22.61C50.5703 21.09 50.9903 19.7 51.6803 18.59C52.3703 17.48 53.3403 16.51 54.5903 15.82C55.8403 15.13 57.0803 14.85 58.6103 14.85C60.9703 14.85 62.6303 15.54 63.8803 17.07V15.85C63.8803 15.53 64.1403 15.27 64.4603 15.27H67.7403V15.26ZM62.6403 25.65C63.4703 24.96 63.7503 23.99 63.7503 22.88C63.7503 21.77 63.3303 20.8 62.6403 20.11C61.8103 19.42 60.8403 19 59.5903 19C58.3403 19 57.3703 19.42 56.5403 20.11C55.7103 20.8 55.2903 21.77 55.2903 22.88C55.2903 23.99 55.7103 24.96 56.5403 25.65C57.3703 26.34 58.3403 26.76 59.5903 26.76C60.8403 26.62 61.8103 26.34 62.6403 25.65Z" fill="white"/>
<path d="M72.9003 12.34C72.3503 11.79 72.0703 11.23 72.0703 10.54C72.0703 9.85 72.3503 9.15 72.9003 8.74C73.4503 8.19 74.1503 8.05 74.9803 8.05C75.4603 8.05 75.8903 8.14 76.2803 8.3C77.4803 8.79 78.1603 10.16 77.7703 11.39C77.6403 11.8 77.4003 12.14 77.0603 12.48C76.5103 13.03 75.8103 13.17 74.9803 13.17C74.1503 13.03 73.4603 12.75 72.9003 12.34ZM73.2003 15.25H76.6103C76.9303 15.25 77.1903 15.51 77.1903 15.83V30.62C77.1903 30.94 76.9303 31.2 76.6103 31.2H73.2003C72.8803 31.2 72.6203 30.94 72.6203 30.62V15.84C72.6203 15.52 72.8803 15.26 73.2003 15.26V15.25Z" fill="white"/>
<path d="M86.1999 23.61V30.63C86.1999 30.95 85.9399 31.21 85.6199 31.21H82.2099C81.8899 31.21 81.6299 30.95 81.6299 30.63V9.87C81.6299 9.55 81.8899 9.29 82.2099 9.29H85.6199C85.9399 9.29 86.1999 9.55 86.1999 9.87V20.43C86.1999 20.94 86.8099 21.2 87.1799 20.85L92.8199 15.55C92.9299 15.45 93.0699 15.39 93.2199 15.39H97.1499C97.6699 15.39 97.9299 16.01 97.5699 16.38L92.2399 21.82C92.0399 22.03 92.0199 22.36 92.1999 22.59L98.3499 30.4C98.6499 30.78 98.3799 31.34 97.8899 31.34H93.8299C93.6499 31.34 93.4799 31.26 93.3699 31.12L87.2399 23.25C86.8999 22.81 86.1999 23.05 86.1999 23.61Z" fill="white"/>
<path d="M112.95 16.78C114.34 17.89 114.89 19.69 114.89 22.05V30.62C114.89 30.94 114.63 31.2 114.31 31.2H111.18C110.86 31.2 110.6 30.94 110.6 30.62V29.26C109.77 30.79 108.1 31.48 105.75 31.48C104.5 31.48 103.53 31.34 102.56 30.93C101.75 30.52 101.07 29.99 100.52 29.32C100.49 29.28 100.46 29.25 100.44 29.21C100.04 28.53 99.7803 27.72 99.7803 26.77C99.7803 25.24 100.33 24.13 101.44 23.3C102.55 22.47 104.21 22.05 106.57 22.05H109.68C110.03 22.05 110.31 21.73 110.26 21.39C110.15 20.7 109.87 20.12 109.34 19.7C108.79 19.15 107.82 18.87 106.57 18.87C105.74 18.87 104.91 19.01 104.07 19.29C103.45 19.5 102.9 19.78 102.43 20.09C102.17 20.26 101.83 20.18 101.64 19.93L100.35 18.18C100.17 17.94 100.2 17.6 100.42 17.41C101.32 16.63 102.4 16.07 103.37 15.82C104.62 15.54 105.87 15.27 107.11 15.27C109.6 15.13 111.54 15.69 112.93 16.8L112.95 16.78ZM108.98 27.84C109.49 27.45 109.99 26.93 110.15 26.3C110.16 26.24 110.17 26.19 110.17 26.13V25.13C110.17 24.81 109.91 24.55 109.59 24.55H107.12C105.18 24.55 104.21 25.1 104.21 26.35C104.21 26.9 104.49 27.46 104.9 27.74C105.32 28.02 106.01 28.29 106.84 28.29C107.64 28.42 108.31 28.17 108.86 27.9C108.9 27.88 108.94 27.86 108.97 27.83H108.98V27.84Z" fill="white"/>
</svg>
