<svg width="202" height="200" viewBox="0 0 202 200" fill="none" xmlns="http://www.w3.org/2000/svg">
<path d="M83.5448 172.803L26.3182 165.592C26.0929 165.592 25.8676 165.592 25.6423 165.817L6.04102 178.437L70.4773 186.55L84.2207 174.832C84.8966 174.155 84.446 173.029 83.5448 172.803Z" fill="white"/>
<path d="M70.4776 183.17L71.6044 182.493L68.9 182.043L67.9985 182.944L70.4776 183.17Z" fill="#602B7A"/>
<path d="M71.8296 182.043L73.1818 180.916L70.9281 180.465L69.8013 181.592L71.8296 182.043Z" fill="#602B7A"/>
<path d="M77.2366 177.536L78.5888 176.409L76.3351 176.184L74.9829 177.31L77.2366 177.536Z" fill="#602B7A"/>
<path d="M79.0393 176.184L80.3915 175.057L78.1379 174.606L76.7856 175.733L79.0393 176.184Z" fill="#602B7A"/>
<path d="M73.8566 180.465L74.9831 179.339L72.0542 179.113L70.4771 180.015L73.8566 180.465Z" fill="#602B7A"/>
<path d="M75.4337 178.888L76.7854 177.986L72.9553 177.31L71.6035 178.437L75.4337 178.888Z" fill="#602B7A"/>
<path d="M69.3513 181.592L70.7036 180.465L68.4499 180.24L67.0977 181.367L69.3513 181.592Z" fill="#602B7A"/>
<path d="M74.3077 177.085L75.6598 176.184L73.4061 175.733L72.2793 176.86L74.3077 177.085Z" fill="#602B7A"/>
<path d="M76.1101 175.733L77.4623 174.606L75.2087 174.381L73.8564 175.508L76.1101 175.733Z" fill="#602B7A"/>
<path d="M71.6043 176.86L72.9565 175.733L70.7028 175.508L69.3506 176.409L71.6043 176.86Z" fill="#602B7A"/>
<path d="M73.1812 175.282L74.5333 174.381L72.2797 173.93L71.1528 175.057L73.1812 175.282Z" fill="#602B7A"/>
<path d="M71.1527 180.015L72.5046 179.113L69.3504 178.662L67.9985 179.789L71.1527 180.015Z" fill="#602B7A"/>
<path d="M70.9275 178.212L72.2793 177.31L68.4492 176.86L66.8721 177.761L70.9275 178.212Z" fill="#602B7A"/>
<path d="M68.8999 143.733L8.06845 136.296C6.94194 136.071 6.04071 136.972 6.04071 137.874L5.81543 178.437L70.2517 186.55L70.477 145.986C70.7023 144.86 70.0264 143.958 68.8999 143.733Z" fill="white"/>
<path d="M42.0892 157.254L34.429 156.353C33.7531 156.353 33.3025 156.803 33.0771 157.254L33.3025 165.141C33.3025 165.817 33.7531 166.268 34.2037 166.493L36.4567 166.719L37.3579 168.071C37.5832 168.296 38.0338 168.296 38.2591 168.296L39.3856 167.17L41.6387 167.395C42.3146 167.395 42.7651 166.944 42.9904 166.493L42.7652 158.606C43.2158 157.705 42.7651 157.254 42.0892 157.254Z" fill="#602B7A"/>
<path d="M108.778 199.846L108.553 198.268V196.691C109.454 196.691 110.13 197.141 110.355 198.043C110.581 198.944 109.68 199.62 108.778 199.846ZM127.704 197.141C127.028 197.141 126.127 196.691 126.127 195.789C125.901 194.888 126.577 194.212 127.253 193.986H127.478C128.38 193.986 129.056 194.437 129.281 195.339C129.506 196.24 128.83 197.141 127.704 197.141ZM146.178 192.86C145.503 192.86 144.827 192.409 144.601 191.733C144.376 190.831 144.827 189.93 145.728 189.705H145.953C146.854 189.479 147.755 190.155 147.755 191.057C147.755 191.958 147.305 192.86 146.404 192.86C146.404 192.86 146.404 192.86 146.178 192.86ZM165.104 186.099L164.428 184.747L163.752 183.169C164.653 182.719 165.554 183.169 165.78 183.846C166.005 184.522 165.78 185.648 165.104 186.099ZM182.227 176.634L181.326 175.282L180.424 173.93C181.1 173.479 182.227 173.705 182.677 174.381C182.903 175.282 182.903 176.184 182.227 176.634ZM195.97 164.916C195.52 164.916 195.069 164.691 194.844 164.465C194.168 163.789 194.168 162.888 194.844 162.212C195.52 161.536 196.421 161.536 197.097 162.212C197.773 162.888 197.773 163.789 197.097 164.465C196.871 164.691 196.421 164.916 195.97 164.916ZM208.136 150.043C207.911 150.043 207.46 150.043 207.235 149.817C206.559 149.367 206.334 148.465 206.785 147.564C207.235 146.888 208.362 146.662 209.038 147.113C209.713 147.564 209.939 148.691 209.488 149.367C209.038 149.592 208.587 150.043 208.136 150.043ZM98.4145 136.747C97.2879 136.747 96.6121 136.071 96.6121 135.169C96.6121 134.268 97.5133 133.592 98.4145 133.592C99.3157 133.592 99.9916 134.493 99.7663 135.395C99.9916 136.071 99.3157 136.747 98.4145 136.747ZM117.79 136.296L117.565 134.719V133.141C118.466 133.141 119.142 133.592 119.368 134.493C119.593 135.395 118.692 136.071 117.79 136.296ZM79.2638 134.719V133.141L79.4891 131.564C80.3903 131.789 80.841 132.465 80.841 133.367C80.841 134.043 80.165 134.719 79.2638 134.719ZM136.941 132.916L136.49 131.338L136.04 129.761C136.941 129.536 137.842 129.986 138.068 130.888C138.293 131.789 137.842 132.691 136.941 132.916ZM216.472 132.691C216.247 132.691 216.022 132.691 216.022 132.691C215.121 132.465 214.895 131.564 215.121 130.662V130.437C215.571 129.536 216.473 129.31 217.148 129.536C218.05 129.986 218.275 130.888 218.05 131.564C217.824 132.465 217.148 132.691 216.472 132.691ZM154.515 126.155C153.839 126.155 153.388 125.93 153.163 125.254C152.712 124.578 152.937 123.451 153.839 123.226C153.839 123.226 153.839 123.226 154.064 123.226C154.965 122.775 155.866 123.226 156.317 123.902C156.768 124.803 156.317 125.705 155.641 126.155C154.965 126.155 154.74 126.155 154.515 126.155ZM65.2952 122.099C64.8446 122.099 64.394 121.874 64.1687 121.648C63.7181 120.972 63.7181 120.071 64.1687 119.395C64.8446 118.719 65.7458 118.719 66.4217 119.395C66.4217 119.395 66.4216 119.395 66.6469 119.62C67.3228 120.296 67.0976 121.198 66.4217 121.874C65.9711 121.874 65.5205 122.099 65.2952 122.099ZM221.204 114.212C220.077 114.212 219.627 113.31 219.627 112.409V112.184C219.852 111.282 220.753 110.831 221.429 111.057C222.33 111.282 222.781 112.184 222.556 112.86C222.781 113.761 222.105 114.212 221.204 114.212ZM171.187 114.212L169.835 113.31L168.709 112.184C169.384 111.507 170.286 111.507 170.962 112.184C171.638 112.634 171.638 113.536 171.187 114.212ZM52.9036 107.226C52.453 107.226 52.0024 107 51.7771 106.775L52.9036 105.648L54.2553 104.747C54.7059 105.423 54.706 106.324 54.0301 107C53.5795 107.226 53.1289 107.226 52.9036 107.226ZM181.776 97.761L180.199 97.3103L178.847 96.6342C179.298 95.9581 180.199 95.5074 180.875 95.7328C181.551 95.9581 182.001 96.8596 181.776 97.761ZM222.33 95.0567C221.429 95.0567 220.753 94.3807 220.753 93.4792C220.753 92.5778 221.204 91.9018 222.105 91.6765C223.006 91.6765 223.682 92.3525 223.907 93.2539V93.4792C223.907 94.3807 223.232 95.0567 222.33 95.0567ZM41.6385 91.4511C41.1879 91.4511 40.512 91.2257 40.2867 90.775L42.9902 88.9722C43.4408 89.6483 43.2156 90.775 42.5397 91.2257C42.3144 91.4511 42.0891 91.4511 41.6385 91.4511ZM184.48 78.606L182.903 78.3807C182.903 77.4792 183.578 76.8032 184.48 76.8032C185.381 76.8032 186.057 77.4792 186.057 78.3807L184.48 78.606ZM220.528 75.9018C219.852 75.9018 219.176 75.4511 218.951 74.5497V74.3243C218.951 73.4229 219.401 72.7469 220.303 72.5215C221.204 72.5215 221.88 72.9722 222.105 73.8736C222.105 74.775 221.654 75.4511 220.753 75.6764C220.528 75.9018 220.528 75.9018 220.528 75.9018ZM32.4011 74.5497C31.7252 74.5497 31.2746 74.3243 31.0493 73.6483L32.4011 72.9722L33.9782 72.2961C34.4288 73.1976 33.9782 74.099 33.3023 74.3243C33.077 74.5497 32.8517 74.5497 32.4011 74.5497ZM183.353 61.0285C182.452 61.0285 181.776 60.3525 181.776 59.6764C181.551 58.775 182.227 58.099 182.903 57.8736C183.804 57.6483 184.705 58.3243 184.705 59.2257V59.4511C185.156 60.1271 184.48 60.8032 183.353 61.0285C183.578 61.0285 183.578 61.0285 183.353 61.0285ZM216.022 57.1975C215.346 57.1975 214.67 56.7468 214.445 56.0708V55.8454C214.219 54.944 214.895 54.0426 215.797 54.0426C216.698 53.8172 217.599 54.4933 217.599 55.3947C217.824 56.2961 217.374 56.9722 216.472 57.4229C216.472 57.1975 216.247 57.1975 216.022 57.1975ZM26.3179 56.5215C25.642 56.5215 24.9661 56.0708 24.7408 55.1693C24.5155 54.2679 25.1914 53.3666 25.8673 53.3666C26.7685 53.1412 27.6698 53.5919 27.6698 54.4933C27.8951 55.3947 27.2191 56.2961 26.3179 56.2961C26.5432 56.5215 26.5432 56.5215 26.3179 56.5215ZM179.072 42.3243C178.397 42.3243 177.721 41.8736 177.495 41.1975V40.9722C177.27 40.0708 177.946 39.1694 178.847 39.1694C179.748 38.944 180.65 39.62 180.65 40.5215C180.875 41.4229 180.424 42.0989 179.523 42.5496C179.523 42.3243 179.298 42.3243 179.072 42.3243ZM209.263 39.1694C208.587 39.1694 208.136 38.7186 207.911 38.2679C207.46 37.5919 207.686 36.6905 208.362 36.2398C209.038 35.7891 210.164 36.0144 210.615 36.9158C210.615 36.9158 210.615 37.1412 210.84 37.1412C211.291 38.0426 210.84 38.944 209.939 39.1694C209.713 39.1694 209.488 39.1694 209.263 39.1694ZM25.4167 37.3665C25.1914 37.3665 25.1915 37.3665 24.9661 37.3665C24.0649 37.1412 23.6143 36.2398 23.8396 35.5637C23.8396 34.6623 24.7409 33.9863 25.6421 34.2116C26.5433 34.2116 27.2192 35.113 26.9938 36.0144V36.2398C26.7685 36.9158 26.0927 37.3665 25.4167 37.3665ZM197.772 22.2679C197.322 21.5919 197.322 20.4651 197.998 20.0144C198.674 19.5637 199.575 19.5637 200.251 20.2397L199.124 21.3665L197.772 22.2679ZM32.1758 19.5637C31.9505 19.5637 31.4999 19.5637 31.2746 19.3383C30.5987 18.8876 30.3734 17.7609 31.0493 17.0848C31.4999 16.4088 32.6264 16.1834 33.3023 16.6341C33.9782 17.0848 34.2035 17.9862 33.7529 18.6623V18.8876C33.077 19.3384 32.6264 19.5637 32.1758 19.5637ZM185.832 8.97214C185.381 8.97214 185.156 8.74678 184.93 8.52143C184.254 7.84537 184.254 6.94396 184.705 6.2679C185.381 5.59184 186.282 5.59185 186.958 6.04255C187.634 6.71861 187.634 7.62002 187.183 8.29608C186.733 8.74678 186.282 8.97214 185.832 8.97214ZM45.018 5.36651C44.5674 5.36651 44.1168 5.14114 43.8915 4.91579C43.2156 4.23973 43.4408 3.33833 44.1168 2.66227L45.2433 3.78903L46.1445 5.14114C45.6939 5.14114 45.2433 5.36651 45.018 5.36651ZM169.61 -2.74619C168.934 -3.1969 168.709 -4.09831 168.934 -4.99972C169.385 -5.67577 170.286 -6.12647 170.962 -5.67576L170.286 -4.32365L169.61 -2.74619ZM60.5638 -5.90111C59.8879 -5.90111 59.4373 -6.35182 59.212 -6.80252C58.7614 -7.70393 59.212 -8.60535 60.1132 -8.8307C60.7891 -9.2814 61.6903 -9.05606 62.1409 -8.38C62.5915 -7.70394 62.3662 -6.57718 61.465 -6.12648C61.465 -6.12648 61.2397 -6.12646 61.2397 -5.90111C60.7891 -5.90111 60.5638 -5.90111 60.5638 -5.90111ZM152.712 -11.0842C152.036 -11.5349 151.586 -12.4363 151.811 -13.1124C152.036 -14.0138 152.937 -14.2392 153.839 -14.0138L153.388 -12.4363L152.712 -11.0842ZM77.912 -13.7884C77.2361 -13.7884 76.5602 -14.2391 76.3349 -14.9152C76.1096 -15.8166 76.5602 -16.718 77.4614 -16.9434C78.3626 -17.1687 79.2638 -16.718 79.4891 -15.8166C79.7144 -14.9152 79.2638 -14.0138 78.5879 -13.7884C78.3626 -13.7884 78.1373 -13.7884 77.912 -13.7884ZM134.688 -16.4927C133.787 -16.718 133.336 -17.6194 133.336 -18.2955C133.562 -19.1969 134.463 -19.6476 135.139 -19.6476L134.688 -16.4927ZM96.6121 -18.0701C95.9362 -18.0701 95.2602 -18.5208 95.0349 -19.4223C94.8096 -20.3237 95.4855 -21.2251 96.3868 -21.2251H96.6121C97.5133 -21.4504 98.1892 -20.7744 98.4145 -19.873C98.4145 -18.9716 97.9638 -18.2955 97.0626 -18.0701C96.8373 -18.0701 96.6121 -18.0701 96.6121 -18.0701ZM115.988 -18.9716H115.763C114.862 -18.9716 114.186 -19.873 114.411 -20.7744C114.411 -21.6758 115.312 -22.3518 116.213 -22.1265C117.114 -22.1265 117.79 -21.4504 117.79 -20.549C117.79 -19.6476 116.889 -18.9716 115.988 -18.9716Z" fill="white"/>
<path d="M93.0069 141.705C108.81 141.705 121.62 128.891 121.62 113.085C121.62 97.2787 108.81 84.4651 93.0069 84.4651C77.2042 84.4651 64.3936 97.2787 64.3936 113.085C64.3936 128.891 77.2042 141.705 93.0069 141.705Z" fill="#FFD631"/>
<path d="M93.0069 142.831C76.5599 142.831 63.2671 129.536 63.2671 113.085C63.2671 96.6342 76.5599 83.5638 93.0069 83.5638C109.454 83.5638 122.747 96.8596 122.747 113.31C122.747 129.761 109.229 142.831 93.0069 142.831ZM93.0069 85.8173C77.9117 85.8173 65.5201 98.2117 65.5201 113.31C65.5201 128.409 77.9117 140.803 93.0069 140.803C108.102 140.803 120.494 128.409 120.494 113.31C120.494 98.2117 108.102 85.8173 93.0069 85.8173Z" fill="#602B7A"/>
<path d="M143.925 127.507C149.558 127.507 154.064 123 154.064 117.367C154.064 81.5356 124.775 52.2398 88.9516 52.2398C83.319 52.2398 78.813 56.7469 78.813 62.3807C78.813 68.0145 83.319 72.5215 88.9516 72.5215C113.735 72.5215 133.787 92.5779 133.787 117.367C133.787 123 138.293 127.507 143.925 127.507Z" fill="#FFD631"/>
<path d="M143.925 128.634C137.842 128.634 132.66 123.676 132.66 117.367C132.66 93.2539 113.059 73.6483 88.9516 73.6483C82.8685 73.6483 77.6865 68.6905 77.6865 62.3807C77.6865 56.0708 82.6432 51.113 88.9516 51.113C125.45 51.113 155.19 80.8595 155.19 117.367C154.965 123.676 150.008 128.634 143.925 128.634ZM88.9516 53.3666C83.995 53.3666 79.9395 57.4229 79.9395 62.3807C79.9395 67.3384 83.995 71.3947 88.9516 71.3947C114.411 71.3947 134.913 92.1272 134.913 117.367C134.913 122.324 138.969 126.381 143.925 126.381C148.882 126.381 152.937 122.324 152.937 117.367C152.712 82.2116 124.099 53.3666 88.9516 53.3666Z" fill="#602B7A"/>
<path d="M175.017 134.493C180.649 134.493 185.155 129.986 185.155 124.353C185.155 67.5638 138.969 21.5919 82.4179 21.5919C76.7853 21.5919 72.2793 26.0989 72.2793 31.7327C72.2793 37.3665 76.7853 41.8736 82.4179 41.8736C127.929 41.8736 165.104 79.0567 165.104 124.578C164.878 129.986 169.384 134.493 175.017 134.493Z" fill="#FFD631"/>
<path d="M175.017 135.62C168.934 135.62 163.752 130.662 163.752 124.353C163.752 79.2821 127.253 42.775 82.1928 42.775C76.1097 42.775 70.9277 37.8172 70.9277 31.5074C70.9277 25.1975 75.8844 20.2397 82.1928 20.2397C139.419 20.2397 186.057 66.8877 186.057 124.127C186.057 130.662 181.1 135.62 175.017 135.62ZM82.1928 22.7186C77.2362 22.7186 73.1808 26.775 73.1808 31.7327C73.1808 36.6905 77.2362 40.7468 82.1928 40.7468C128.38 40.7468 166.005 78.3807 166.005 124.578C166.005 129.536 170.06 133.592 175.017 133.592C179.974 133.592 184.029 129.536 184.029 124.578C183.804 68.4652 138.293 22.7186 82.1928 22.7186Z" fill="#602B7A"/>
<path d="M108.778 122.324C117.613 122.324 124.775 115.161 124.775 106.324C124.775 97.4878 117.613 90.3243 108.778 90.3243C99.9436 90.3243 92.7817 97.4878 92.7817 106.324C92.7817 115.161 99.9436 122.324 108.778 122.324Z" fill="white"/>
<path d="M108.778 123.226C99.3155 123.226 91.6553 115.564 91.6553 106.099C91.6553 96.6342 99.3155 88.9722 108.778 88.9722C118.241 88.9722 125.901 96.6342 125.901 106.099C125.676 115.564 118.016 123.226 108.778 123.226ZM108.778 91.4511C100.667 91.4511 93.9083 97.9864 93.9083 106.324C93.9083 114.437 100.442 121.198 108.778 121.198C117.114 121.198 123.648 114.662 123.648 106.324C123.423 97.9864 116.889 91.4511 108.778 91.4511Z" fill="#602B7A"/>
<path d="M74.5325 122.324C83.3671 122.324 90.5289 115.161 90.5289 106.324C90.5289 97.4878 83.3671 90.3243 74.5325 90.3243C65.6979 90.3243 58.5361 97.4878 58.5361 106.324C58.5361 115.161 65.6979 122.324 74.5325 122.324Z" fill="white"/>
<path d="M74.5325 123.226C65.0699 123.226 57.4097 115.564 57.4097 106.099C57.4097 96.6342 65.0699 88.9722 74.5325 88.9722C83.9952 88.9722 91.6555 96.6342 91.6555 106.099C91.6555 115.564 83.9952 123.226 74.5325 123.226ZM74.5325 91.4511C66.4217 91.4511 59.6627 97.9864 59.6627 106.324C59.6627 114.437 66.1964 121.198 74.5325 121.198C82.8687 121.198 89.4025 114.662 89.4025 106.324C89.4025 97.9864 82.6434 91.4511 74.5325 91.4511Z" fill="#602B7A"/>
<path d="M68.8999 99.7891C68.8999 106.55 74.9831 105.874 74.7578 99.7891C74.9831 93.7046 68.8999 93.0285 68.8999 99.7891Z" fill="#602B7A"/>
<path d="M72.2793 99.7891C72.2793 100.465 73.4061 100.916 74.7584 100.916C74.7584 100.24 74.7584 99.3384 74.7584 98.6624C73.4061 98.6624 72.2793 99.3384 72.2793 99.7891Z" fill="white"/>
<path d="M96.6118 99.7891C96.6118 106.55 102.695 105.874 102.47 99.7891C102.695 93.7046 96.6118 93.0285 96.6118 99.7891Z" fill="#602B7A"/>
<path d="M99.9912 99.7891C99.9912 100.465 101.118 100.916 102.47 100.916C102.47 100.24 102.47 99.3384 102.47 98.6624C101.118 98.6624 99.9912 99.3384 99.9912 99.7891Z" fill="white"/>
<path d="M107.652 124.803L81.5166 122.099C81.5166 122.099 80.3901 135.62 95.0347 135.845C109.679 136.296 107.652 124.803 107.652 124.803Z" fill="#602B7A"/>
<path d="M105.624 158.155C100.442 158.155 96.1611 157.93 95.7105 157.93C95.0346 157.93 94.584 157.254 94.584 156.803C94.584 156.127 95.2599 155.676 95.7105 155.676C101.568 156.127 117.565 156.578 122.296 153.874C129.506 150.043 142.573 127.282 142.573 127.057C142.799 126.606 143.474 126.381 144.15 126.606C144.601 126.831 144.826 127.507 144.601 128.184C144.15 129.085 131.083 151.846 123.423 155.902C120.043 157.705 112.158 158.155 105.624 158.155Z" fill="white"/>
<path d="M42.0889 80.4088C31.9503 80.4088 10.9973 65.9863 8.29366 64.4088C7.84306 63.9581 7.61777 63.282 8.06838 62.8313C8.51898 62.3806 9.19488 62.1553 9.64548 62.606C17.0804 67.7891 37.5829 80.4088 43.8914 78.1553C49.7492 75.9018 77.6866 61.4792 78.1372 61.2539C78.5878 61.0285 79.2637 61.2539 79.7143 61.7046C79.9396 62.1553 79.7143 62.8313 79.2637 63.282C78.1372 63.9581 50.8757 77.9299 44.7926 80.1835C43.8913 80.1835 42.9901 80.4088 42.0889 80.4088Z" fill="white"/>
<path d="M89.4021 51.3384C81.5166 51.3384 56.7334 50.8877 56.5081 44.3524C56.0575 37.5919 70.2515 31.5074 71.8286 30.8313C72.5045 30.606 72.9551 30.8313 73.4057 31.5073C73.631 32.1834 73.4057 32.6341 72.7298 33.0848C67.0973 35.3384 58.5358 40.5215 58.7611 44.3524C58.9864 47.282 74.7575 49.3102 89.6274 49.3102C89.6274 49.3102 89.6274 49.3102 89.8527 49.3102C90.5286 49.3102 90.9793 49.7609 90.9793 50.437C90.5286 50.6623 90.078 51.113 89.4021 51.3384Z" fill="white"/>
<path d="M167.357 158.831C167.131 158.831 166.906 158.831 166.681 158.831C161.274 157.93 152.036 144.86 150.91 143.282C150.459 142.831 150.684 142.155 151.135 141.705C151.586 141.254 152.261 141.479 152.712 141.93C155.416 145.761 163.076 155.902 166.906 156.578C167.357 156.578 167.582 156.578 167.807 156.353C170.736 154.324 172.989 141.93 173.665 134.493C173.665 133.817 174.341 133.367 174.792 133.592C175.468 133.592 175.918 134.268 175.693 134.719C175.468 136.747 173.44 155 168.934 158.155C168.709 158.606 168.033 158.831 167.357 158.831Z" fill="white"/>
<path d="M82.6434 164.691C82.8687 165.592 83.7699 166.043 84.4458 165.817L94.5844 163.113C95.4856 162.888 95.9362 161.986 95.7109 161.31C95.4856 160.409 94.5843 159.958 93.9084 160.184L83.7699 162.888C82.8687 163.113 82.4181 164.015 82.6434 164.691Z" fill="white"/>
<path d="M81.742 161.085C81.9673 161.986 82.8685 162.437 83.5444 162.212L93.6829 159.508C94.5842 159.282 95.0348 158.381 94.8095 157.705C94.5842 156.803 93.683 156.353 93.0071 156.578L82.8685 159.282C81.9673 159.282 81.5167 160.184 81.742 161.085Z" fill="white"/>
<path d="M80.6155 157.254C80.8408 158.155 81.742 158.606 82.4179 158.381L92.5565 155.677C93.4577 155.451 93.9083 154.55 93.683 153.874C93.4577 152.972 92.5565 152.522 91.8806 152.747L81.742 155.451C80.8408 155.677 80.3902 156.353 80.6155 157.254Z" fill="white"/>
<path d="M86.4732 149.592C86.2479 150.493 86.6984 151.169 87.3744 151.62L95.2599 154.324C96.1611 154.55 96.837 154.099 97.2876 153.423C97.5129 152.522 97.0623 151.846 96.3864 151.395L88.5009 148.691C87.5997 148.465 86.6985 148.916 86.4732 149.592Z" fill="white"/>
<path d="M94.3588 162.662C97.594 162.662 100.217 160.039 100.217 156.803C100.217 153.567 97.594 150.944 94.3588 150.944C91.1236 150.944 88.501 153.567 88.501 156.803C88.501 160.039 91.1236 162.662 94.3588 162.662Z" fill="white"/>
<path d="M10.7721 56.2961C11.448 55.8454 12.1239 55.62 12.3492 55.8454L15.7287 59.9017C15.954 60.1271 15.7287 61.0285 15.0528 61.4792C14.3769 61.9299 13.701 62.1553 13.4757 61.9299L10.0962 57.8736C9.8709 57.6482 10.0962 56.7468 10.7721 56.2961Z" fill="white"/>
<path d="M6.94204 57.6482C7.61794 57.1975 8.29386 56.9722 8.74446 57.4229L12.7999 62.3807C13.0252 62.8314 12.7999 63.5074 12.124 64.1835C11.4481 64.6342 10.7722 64.8595 10.3216 64.4088L6.26613 59.4511C6.04083 59.0004 6.26613 58.099 6.94204 57.6482Z" fill="white"/>
<path d="M0.633419 56.0708C1.30932 55.6201 2.21053 55.62 2.88644 56.2961L9.64549 64.4088C10.0961 65.0849 10.0961 65.9863 9.42017 66.6623C8.74427 67.113 7.84306 67.113 7.16715 66.437L0.408104 58.3243C-0.267801 57.4229 -0.042486 56.5215 0.633419 56.0708Z" fill="white"/>
<path d="M0.859172 65.5356C1.08447 64.6342 1.98565 64.1835 2.66156 64.4088L10.5471 66.6623C11.4483 66.8877 11.8989 67.7891 11.6736 68.4652C11.4483 69.3666 10.5471 69.8173 9.87124 69.5919L1.98568 67.3384C1.08447 67.113 0.633871 66.437 0.859172 65.5356Z" fill="white"/>
<path d="M11.6733 70.0426C14.9084 70.0426 17.5311 67.4193 17.5311 64.1834C17.5311 60.9475 14.9084 58.3243 11.6733 58.3243C8.43805 58.3243 5.81543 60.9475 5.81543 64.1834C5.81543 67.4193 8.43805 70.0426 11.6733 70.0426Z" fill="white"/>
<path d="M142.573 138.55C141.897 139 141.672 139.902 142.123 140.353L146.854 145.761C147.305 146.212 147.981 146.212 148.656 145.536C149.332 145.085 149.558 144.184 149.107 143.733L144.376 138.324C143.925 137.874 143.249 137.874 142.573 138.55Z" fill="white"/>
<path d="M145.502 136.071C144.826 136.522 144.601 137.423 145.051 137.874L149.783 143.282C150.233 143.733 150.909 143.733 151.585 143.057C152.261 142.606 152.486 141.705 152.036 141.254L147.304 135.845C146.854 135.395 146.178 135.395 145.502 136.071Z" fill="white"/>
<path d="M148.431 133.367C147.755 133.817 147.53 134.719 147.981 135.169L152.712 140.578C153.162 141.029 153.838 141.029 154.514 140.353C155.19 139.902 155.415 139 154.965 138.55L150.234 133.141C149.783 132.691 149.107 132.916 148.431 133.367Z" fill="white"/>
<path d="M155.19 134.043C154.289 134.043 153.838 134.944 153.838 135.845L154.74 142.155C154.74 143.057 155.641 143.507 156.542 143.507C157.443 143.507 157.894 142.606 157.894 141.705L156.993 135.395C156.767 134.493 155.866 134.043 155.19 134.043Z" fill="white"/>
<path d="M151.81 148.465C155.046 148.465 157.668 145.842 157.668 142.606C157.668 139.37 155.046 136.747 151.81 136.747C148.575 136.747 145.953 139.37 145.953 142.606C145.953 145.842 148.575 148.465 151.81 148.465Z" fill="white"/>
<path d="M121.534 5.67004L97.3823 55.8188L99.4124 56.7964L123.564 6.64761L121.534 5.67004Z" fill="#95C11F"/>
<path d="M77.2358 -10.1828C77.2358 -10.1828 92.331 -14.4645 96.6117 -11.7603C100.892 -9.05605 102.244 -4.54899 106.75 -1.39405C111.031 1.76088 122.521 6.04256 122.521 6.04256L113.96 24.2961C113.96 24.2961 95.4852 15.7327 92.7816 11.0003C90.0779 6.26793 74.0815 9.1975 74.0815 9.1975L83.5442 -1.1687L77.2358 -10.1828Z" fill="#95C11F"/>
<path d="M99.9915 59.9017C99.5409 60.5778 98.8649 61.0285 98.4143 60.8031L91.8806 57.6482C91.43 57.4229 91.2047 56.5215 91.6553 55.8454C92.1059 55.1693 92.7818 54.7186 93.2324 54.944L99.7662 58.0989C100.217 58.3243 100.442 59.2257 99.9915 59.9017Z" fill="white"/>
<path d="M101.794 56.5215C101.343 57.1975 100.667 57.6482 100.217 57.4229L93.6828 54.2679C93.2322 54.0426 93.0069 53.1412 93.4575 52.4651C93.9082 51.7891 94.584 51.3384 95.0346 51.5637L101.568 54.7186C102.019 54.944 102.019 55.6201 101.794 56.5215Z" fill="white"/>
<path d="M103.371 52.9158C102.92 53.5919 102.244 54.0426 101.794 53.8172L95.26 50.6623C94.8094 50.4369 94.5841 49.5356 95.0347 48.8595C95.4853 48.1834 96.1612 47.7327 96.6118 47.9581L103.146 51.113C103.596 51.3384 103.821 52.2398 103.371 52.9158Z" fill="white"/>
<path d="M100.893 46.606C101.118 47.5074 100.442 48.1834 99.5408 48.4088L93.2324 49.3102C92.3311 49.5355 91.6552 48.8595 91.4299 47.9581C91.2046 47.0567 91.8805 46.3806 92.7817 46.1552L99.0902 45.2538C100.217 45.2538 100.893 45.7046 100.893 46.606Z" fill="white"/>
<path d="M93.683 57.8736C96.9182 57.8736 99.5408 55.2503 99.5408 52.0144C99.5408 48.7785 96.9182 46.1552 93.683 46.1552C90.4478 46.1552 87.8252 48.7785 87.8252 52.0144C87.8252 55.2503 90.4478 57.8736 93.683 57.8736Z" fill="white"/>
</svg>
