<svg width="102" height="96" viewBox="0 0 102 96" fill="none" xmlns="http://www.w3.org/2000/svg">
<g clip-path="url(#clip0_320_156191)">
<path d="M39.1254 87.065C38.9024 87.1213 38.6597 87.0175 38.5549 86.8067C38.4307 86.5596 38.5295 86.2562 38.7767 86.132L45.0857 82.9732C44.4671 81.706 42.7957 78.0642 42.496 75.0767C42.1247 71.4783 44.7103 63.3698 44.8211 63.0324C44.9103 62.7727 45.1913 62.6193 45.451 62.7085C45.7107 62.7977 45.8641 63.0788 45.7749 63.3385C45.7436 63.4186 43.1412 71.5829 43.4926 74.9801C43.8393 78.3991 46.1771 82.9248 46.2087 82.9684L46.4449 83.4142L39.2272 87.0188C39.2272 87.0188 39.1618 87.0456 39.123 87.0554L39.1254 87.065Z" fill="#FFD441"/>
<path d="M61.4924 84.8477C61.376 84.877 61.2499 84.8676 61.1309 84.8048L55.2888 81.596L55.4165 81.2029C55.4165 81.2029 56.3899 78.1109 56.0893 73.5252C55.8035 69.0389 49.5709 63.4638 49.5053 63.4082C49.2939 63.2243 49.2762 62.909 49.4626 62.7073C49.6489 62.5056 49.9617 62.4783 50.1634 62.6646C50.4307 62.9066 56.7678 68.5688 57.0861 73.4698C57.3294 77.3377 56.7434 80.1257 56.4787 81.1206L61.6142 83.9403C61.8546 84.0757 61.9401 84.3738 61.8072 84.6239C61.7371 84.755 61.6233 84.8353 61.4876 84.8695L61.4924 84.8477Z" fill="#FFD441"/>
<path d="M65.485 45.5995C64.9324 45.7389 64.287 45.6335 63.5586 45.2809C60.6137 43.8682 58.3774 41.4621 56.406 39.3294C54.6923 37.4824 53.0782 35.7444 51.3256 35.0107C51.0707 34.8997 50.9464 34.6113 51.0574 34.3564C51.1685 34.1015 51.4593 33.9869 51.7117 34.0883C53.661 34.9064 55.348 36.7292 57.1322 38.6512C59.1425 40.8153 61.2111 43.0472 63.9812 44.3802C65.0373 44.8874 65.4392 44.5591 65.5772 44.4521C67.0906 43.2557 66.428 37.1936 65.6494 33.6567L65.5613 33.3076L70.7551 30.3063C70.9901 30.1749 71.2982 30.2518 71.4394 30.4844C71.583 30.7266 71.4939 31.0275 71.2613 31.1687L66.7071 33.8024C67.1041 35.7443 68.5122 43.4128 66.1998 45.2439C65.9843 45.4117 65.7371 45.5359 65.485 45.5995Z" fill="#FFD441"/>
<path d="M44.2594 29.4737L21.7504 41.5204C19.6176 42.6618 18.814 45.3161 19.9554 47.4489L32.0022 69.9579C33.1436 72.0907 35.7979 72.8943 37.9307 71.7529L60.4397 59.7062C62.5725 58.5647 63.3761 55.9104 62.2347 53.7777L50.1879 31.2686C49.0465 29.1358 46.3922 28.3322 44.2594 29.4737Z" fill="#FFD441"/>
<path d="M40.8517 67.0861C39.1936 67.5043 37.3876 66.7635 36.5451 65.1815L27.4145 48.1162C26.93 47.2174 26.8332 46.1796 27.1222 45.1991C27.4209 44.2163 28.0766 43.4218 28.9754 42.9373L46.0406 33.8067C47.9036 32.8108 50.2262 33.5142 51.222 35.3772L60.3526 52.4425C60.8371 53.3413 60.9339 54.3791 60.6449 55.3596C60.3462 56.3425 59.6906 57.1369 58.7918 57.6214L41.7265 66.7521C41.4455 66.9054 41.1522 67.0103 40.8614 67.0837L40.8517 67.0861ZM47.16 34.4422C46.937 34.4985 46.731 34.5813 46.5202 34.6861L29.455 43.8167C28.7912 44.1697 28.3025 44.7674 28.0833 45.493C27.8641 46.2187 27.9433 46.9825 28.2963 47.6463L37.427 64.7116C38.1647 66.0828 39.8732 66.6007 41.2469 65.8726L58.3121 56.742C59.6834 56.0043 60.2013 54.2958 59.4732 52.9221L50.3426 35.8569C49.7193 34.694 48.3939 34.1413 47.1625 34.4519L47.16 34.4422Z" fill="#6553A3"/>
<path d="M29.4197 30.3874C34.8575 39.8035 19.9298 48.1269 14.7827 38.555C9.3448 29.1389 24.2726 20.8156 29.4197 30.3874Z" fill="white"/>
<path d="M23.8484 43.0133C23.0436 43.2163 22.2241 43.3199 21.4043 43.2998C18.3773 43.2382 15.8589 41.6354 14.3274 38.7936C12.716 36.003 12.6758 33.0223 14.2154 30.4167C15.9434 27.4953 19.3786 25.577 22.7694 25.65C25.7964 25.7116 28.3027 27.3071 29.8438 30.1465C31.4577 32.9468 31.4978 35.9275 29.9583 38.5331C28.6508 40.7502 26.3598 42.38 23.8484 43.0133ZM20.5674 26.8964C18.3178 27.4637 16.2544 28.9329 15.0847 30.9193C13.7312 33.1996 13.7755 35.8286 15.2044 38.3043C16.5654 40.8384 18.7778 42.2502 21.4313 42.3029C24.4777 42.3596 27.5616 40.6433 29.1084 38.0256C30.4618 35.7453 30.4176 33.1163 28.9887 30.6406C27.6301 28.1162 25.4249 26.6922 22.7715 26.6395C22.0366 26.6289 21.2946 26.713 20.577 26.8939L20.5674 26.8964Z" fill="#6553A3"/>
<path d="M44.5266 21.957C49.9645 31.3731 35.0367 39.6965 29.8896 30.1246C24.4517 20.7085 39.3795 12.3851 44.5266 21.957Z" fill="white"/>
<path d="M38.9554 34.5829C38.1506 34.7859 37.331 34.8895 36.5112 34.8694C33.4842 34.8077 30.9658 33.205 29.4343 30.3632C27.8229 27.5725 27.7828 24.5919 29.3223 21.9862C31.0504 19.0649 34.4855 17.1466 37.8763 17.2196C40.9033 17.2812 43.4096 18.8767 44.9508 21.716C46.5646 24.5164 46.6048 27.4971 45.0652 30.1027C43.7577 32.3198 41.4667 33.9495 38.9554 34.5829ZM35.6743 18.4659C33.4247 19.0333 31.3614 20.5025 30.1916 22.4889C28.8382 24.7691 28.8825 27.3981 30.3113 29.8739C31.6723 32.408 33.8848 33.8198 36.5382 33.8725C39.5846 33.9292 42.6685 32.2129 44.2153 29.5951C45.5663 27.3052 45.5245 24.6859 44.0957 22.2102C42.7371 19.6858 40.5319 18.2618 37.8784 18.2091C37.1435 18.1985 36.4015 18.2825 35.684 18.4635L35.6743 18.4659Z" fill="#6553A3"/>
<path d="M38.9482 25.1481C41.0197 28.7818 37.4915 30.2905 35.7649 26.9204C33.8058 23.6914 36.9371 21.4682 38.9482 25.1481Z" fill="#613182"/>
<path d="M37.1481 26.1487C37.321 26.4661 36.876 27.0734 36.1347 27.4872C35.8696 27.1312 35.6261 26.6976 35.4725 26.2929C36.2162 25.8887 36.9753 25.8314 37.1481 26.1487Z" fill="white"/>
<path d="M23.8388 33.569C25.9103 37.2027 22.3821 38.7114 20.6555 35.3413C18.6964 32.1123 21.8278 29.8891 23.8388 33.569Z" fill="#613182"/>
<path d="M22.0412 34.5792C22.214 34.8965 21.769 35.5038 21.0277 35.9176C20.7626 35.5617 20.5192 35.128 20.3656 34.7233C21.1093 34.3192 21.8683 34.2618 22.0412 34.5792Z" fill="white"/>
<path d="M35.2742 45.3397L37.9173 43.9202L44.3525 55.9414L51.8022 51.9483L53.0074 54.1917L42.9049 59.6067L35.2669 45.3518L35.2742 45.3397Z" fill="#613182"/>
<path d="M17.4504 68.7597L11.8587 66.9935C11.5893 66.9068 11.4481 66.633 11.5348 66.3636C11.624 66.1039 11.8954 65.9529 12.1647 66.0397L17.1958 67.6275C24.513 60.5739 25.5875 46.5968 25.5945 46.4609C25.6182 46.1868 25.853 45.9729 26.1271 45.9966C26.4012 46.0202 26.6054 46.2575 26.5914 46.5292C26.5466 47.1283 25.4629 61.3141 17.6683 68.5603L17.4504 68.7597Z" fill="#FFD441"/>
<path d="M65.3923 28.9566C66.0547 27.9438 66.91 25.2014 66.3722 24.3367C64.9924 22.0961 63.6392 19.8385 62.2957 17.5784C61.8114 16.7621 61.0658 16.3004 60.2452 15.9092C59.1066 15.361 57.9655 14.8031 56.8244 14.2452C56.6496 14.1655 56.6033 14.0638 56.6393 13.8794C56.7805 12.9671 57.3567 12.4299 58.1953 12.1565C59.4144 11.7562 60.6322 11.8823 61.8455 12.195C63.071 12.5151 64.0717 13.2115 65.0265 14.0123C66.0761 14.9026 67.1499 15.7662 68.2554 16.6735L68.4801 16.2971C69.9907 13.74 71.5109 11.1805 73.019 8.61378C73.3646 8.02127 73.8293 7.57404 74.5007 7.37376C75.7393 7.0098 76.9511 7.72519 77.2156 8.97855C77.2989 9.39069 77.3362 9.82475 77.3978 10.2733C77.7127 10.0908 78.0107 9.92279 78.3183 9.75237C79.1711 9.28978 80.0006 9.30746 80.7804 9.9049C81.5213 10.4709 81.7654 11.2344 81.583 12.1467C81.5254 12.45 81.4484 12.7582 81.3668 13.1294C81.7184 13.0923 82.0481 13.0504 82.3706 13.0206C83.3794 12.9312 84.2366 13.4266 84.6265 14.3183C84.897 14.9411 84.8474 15.5621 84.5916 16.1835C84.495 16.4141 84.4179 16.6398 84.3117 16.9141C84.5956 16.9354 84.8406 16.9664 85.0952 16.9537C86.936 16.9329 87.9635 18.8395 86.987 20.4472C84.9349 23.8421 82.9363 27.2854 80.911 30.7045C80.3189 31.7099 79.5006 32.4319 78.4076 32.8416C78.1919 32.927 77.969 33.0244 77.7898 33.1728C77.6615 33.2773 75.5938 37.3053 75.4821 37.2716" fill="white"/>
<path d="M75.5801 37.7832C75.4929 37.8052 75.4152 37.7836 75.3036 37.7499L75.4505 37.2693L75.0957 36.9257C75.236 36.7459 75.9149 35.4712 76.3739 34.6335C77.3041 32.8829 77.3332 32.8755 77.4518 32.7734C77.6503 32.6202 77.895 32.4863 78.2052 32.3668C79.1674 32.0107 79.9058 31.381 80.4544 30.4485L82.1945 27.4932C83.6301 25.0479 85.0681 22.6123 86.528 20.1814C86.8978 19.5622 86.9254 18.8539 86.6065 18.2846C86.2949 17.7444 85.7316 17.4327 85.0646 17.4463C84.8803 17.4515 84.7008 17.4349 84.5019 17.4232L83.568 17.3596L83.9009 16.4713C83.9708 16.2989 84.0239 16.1412 84.0963 15.9785C84.3207 15.4372 84.3367 14.969 84.1369 14.5038C83.8371 13.8059 83.1766 13.4362 82.3788 13.5034C82.1557 13.5184 81.9254 13.5455 81.695 13.5727L80.6912 13.6815L80.9267 12.6526C80.9748 12.4343 81.0277 12.2353 81.0685 12.029C81.2222 11.289 81.0148 10.7122 80.4537 10.2865C79.8537 9.82933 79.2448 9.78694 78.5399 10.1813C78.3412 10.2933 78.1426 10.4053 77.9342 10.5197L76.9773 11.0601L76.8245 9.88172C76.7948 9.60044 76.7579 9.3313 76.7088 9.05491C76.6108 8.58459 76.3481 8.19708 75.962 7.97475C75.5734 7.74273 75.0858 7.69038 74.6253 7.82716C74.126 7.97372 73.7531 8.29464 73.4268 8.84103L68.3684 17.4082L66.9253 16.2252C66.1697 15.6011 65.419 14.9963 64.6852 14.3769C63.8762 13.7043 62.8948 12.9618 61.7033 12.6538C60.3468 12.305 59.3111 12.2877 58.3392 12.6051C57.6533 12.8296 57.2661 13.216 57.1412 13.8251C57.6802 14.081 58.2119 14.3492 58.7508 14.6051C59.3165 14.8853 59.8919 15.163 60.4552 15.4335C61.2515 15.8102 62.1378 16.3395 62.7195 17.2963C64.063 19.5564 65.4162 21.814 66.796 24.0546C67.5139 25.2245 66.4627 28.2123 65.8075 29.2129L64.9672 28.6617C65.6369 27.6368 66.2987 25.1494 65.9458 24.5681C64.5659 22.3275 63.2103 20.0602 61.8668 17.8001C61.4239 17.0661 60.7221 16.6553 60.0302 16.3245C59.4548 16.0467 58.8891 15.7666 58.3137 15.4889C57.748 15.2087 57.1726 14.931 56.6094 14.6605C56.2452 14.4842 56.082 14.1644 56.1467 13.7665C56.3095 12.7354 56.9604 12.004 58.0365 11.6501C59.5392 11.1473 60.9925 11.4305 61.9632 11.6807C63.3537 12.0416 64.4468 12.8591 65.336 13.6043C66.0698 14.2237 66.8108 14.8309 67.5639 15.4454L68.1081 15.8856L72.5745 8.32378C73.0216 7.56128 73.6027 7.0847 74.3492 6.85517C75.0763 6.63052 75.8429 6.72594 76.4743 7.10298C77.1057 7.48003 77.5387 8.09274 77.6858 8.83945C77.7347 9.03337 77.7545 9.23464 77.784 9.43346C77.8736 9.37991 77.9657 9.33606 78.0553 9.28252C79.1092 8.71764 80.145 8.77612 81.0535 9.47516C81.9232 10.1428 82.2647 11.0879 82.0414 12.2065C82.0247 12.3035 82.0006 12.4127 81.9742 12.5122C82.0857 12.5047 82.1851 12.49 82.2967 12.4824C83.5164 12.3708 84.58 12.9894 85.0504 14.0775C85.3526 14.785 85.3469 15.5393 85.0211 16.3331C85.0066 16.3574 84.9945 16.3914 84.9897 16.4132C85.0091 16.4083 85.031 16.4131 85.0528 16.4179C86.0811 16.4061 86.982 16.9111 87.4761 17.7662C87.9776 18.6505 87.9435 19.7419 87.3827 20.6672C85.9204 23.0883 84.4824 25.5239 83.0468 27.9692L81.3067 30.9245C80.6396 32.0416 79.7148 32.8318 78.5467 33.2707C78.3673 33.3366 78.222 33.4145 78.1057 33.4851C77.9727 33.694 77.5741 34.4442 77.2455 35.0634C76.1148 37.1637 75.8418 37.676 75.58 37.742L75.5801 37.7832Z" fill="#FFD441"/>
<path d="M62.8691 27.2415L58.4082 34.7922C58.1526 35.2249 58.2961 35.7829 58.7288 36.0386L72.7626 44.3297C73.1953 44.5853 73.7533 44.4418 74.0089 44.0091L78.4699 36.4584C78.7255 36.0257 78.582 35.4677 78.1493 35.2121L64.1155 26.9209C63.6828 26.6653 63.1248 26.8088 62.8691 27.2415Z" fill="#FFD441"/>
<path d="M73.5743 44.9205C73.2156 45.011 72.8419 44.9609 72.5141 44.7651L58.4686 36.468C58.1432 36.282 57.9097 35.9696 57.8192 35.6108C57.7263 35.2424 57.7764 34.8687 57.9722 34.5409L62.4385 26.979C62.8373 26.3112 63.7003 26.0936 64.3681 26.4924L78.4137 34.7894C78.739 34.9755 78.9725 35.2879 79.063 35.6467C79.1559 36.0151 79.1058 36.3887 78.91 36.7166L74.4437 44.2784C74.2576 44.6038 73.9452 44.8373 73.5865 44.9278L73.5743 44.9205ZM63.5525 27.3066C63.4555 27.331 63.3586 27.3967 63.3006 27.4938L58.8343 35.0557C58.7763 35.1529 58.7619 35.2596 58.7888 35.3663C58.8157 35.4729 58.879 35.5601 58.9761 35.6181L73.0217 43.9151C73.1188 43.9732 73.2255 43.9875 73.3322 43.9606C73.4389 43.9337 73.526 43.8704 73.5841 43.7733L78.0504 36.2114C78.1084 36.1143 78.1227 36.0076 78.0958 35.9009C78.0689 35.7942 78.0057 35.7071 77.9085 35.6491L63.863 27.352C63.7659 27.294 63.6591 27.2797 63.5525 27.3066Z" fill="#FFD441"/>
<path d="M27.3999 41.1481L39.1783 34.5679C39.1783 34.5679 40.9586 40.4408 37.0472 43.0877C33.1333 45.725 27.3999 41.1481 27.3999 41.1481Z" fill="#613182"/>
<path d="M75.137 33.4501C75.137 33.4501 75.4826 31.7128 76.7352 31.0772C77.9878 30.4416 84.2171 21.61 83.8953 20.7836C83.5734 19.9572 81.8403 20.4459 81.422 19.9326C81.0038 19.4193 81.9843 17.4188 81.5466 16.8691C81.1089 16.3195 79.0467 17.1799 78.789 16.853C78.5312 16.5261 79.3708 14.4167 78.7391 13.8748C78.1074 13.3328 76.3965 15.1772 75.8793 14.8848C75.3621 14.5924 75.9052 12.1659 75.1965 11.9322C74.4878 11.6984 73.464 12.7095 72.694 14.4816C71.9239 16.2537 70.3769 19.9338 69.4437 20.1588C68.5104 20.3839 65.6703 16.8924 64.6446 15.8517C63.8255 15.0166 61.4379 13.319 60.8299 13.7301C60.222 14.1413 63.8558 16.7313 65.6543 19.6913C67.4528 22.6514 68.6326 24.3443 68.5598 25.4868C68.487 26.6293 67.8204 29.1385 67.8204 29.1385L75.1418 33.4695L75.137 33.4501Z" fill="#613182"/>
<path d="M65.1196 9.84312C64.9354 9.88958 64.7339 9.82694 64.6027 9.67442C63.2384 7.94555 59.6413 8.9353 59.6049 8.95478C59.3431 9.02081 59.059 8.87588 58.9906 8.60438C58.9221 8.33288 59.0695 8.05851 59.3313 7.99248C59.5058 7.94846 63.6023 6.81215 65.3848 9.05432C65.5526 9.26983 65.5193 9.58762 65.3038 9.75542C65.2432 9.80163 65.1778 9.82844 65.1196 9.84312Z" fill="#FFD441"/>
<path d="M63.6428 6.35855C63.4973 6.39524 63.3348 6.36405 63.206 6.26245C63.1015 6.17535 62.6286 6.18119 62.2601 6.27412C61.9886 6.34259 61.7215 6.18307 61.653 5.91158C61.5846 5.64008 61.7441 5.37296 62.0156 5.30448C62.2289 5.25068 63.2616 5.01085 63.8325 5.47533C64.0512 5.64707 64.0785 5.95989 63.9068 6.17853C63.8366 6.26841 63.7373 6.3244 63.6403 6.34886L63.6428 6.35855Z" fill="#FFD441"/>
<path d="M59.5496 21.8602C59.5496 21.8602 59.4526 21.8847 59.3992 21.8775C56.9712 21.7371 55.5848 19.8385 55.4455 19.3682C55.3771 19.0967 55.5244 18.8224 55.7838 18.7466C56.065 18.6757 56.3078 18.8207 56.3908 19.0679C56.5223 19.3442 57.5731 20.7705 59.4457 20.8758C59.7173 20.8897 59.9312 21.1246 59.9197 21.4059C59.9032 21.6267 59.7532 21.8089 59.5399 21.8627L59.5496 21.8602Z" fill="#FFD441"/>
</g>
<defs>
<clipPath id="clip0_320_156191">
<rect width="85.69" height="76.99" fill="white" transform="translate(0 20.9558) rotate(-14.1554)"/>
</clipPath>
</defs>
</svg>
