<svg width="483" height="479" viewBox="0 0 483 479" fill="none" xmlns="http://www.w3.org/2000/svg">
<g clip-path="url(#clip0_622_87908)">
<path d="M109.751 153.294C109.751 153.294 87.0996 133.622 75.7275 122.321C64.3555 111.021 46.5478 86.4829 48.3701 82.0319C50.1924 77.5809 56.5127 67.1107 63.4328 69.0249C70.3529 70.939 84.3315 83.0928 90.7211 92.0409C97.1337 100.989 111.92 128.133 119.809 134.683L109.728 153.294H109.751Z" fill="white"/>
<path d="M110.075 155.116L121.285 134.406L120.547 133.806C115.38 129.517 106.914 115.749 100.133 104.702C96.7188 99.144 93.7662 94.324 91.644 91.3721C85.3237 82.5623 71.2067 69.9935 63.7099 67.9179C55.7748 65.6809 49.0162 77.3503 47.2631 81.5937C44.8872 87.3823 65.4169 113.742 74.8744 123.129C86.1541 134.314 108.714 153.963 108.944 154.147L110.028 155.093L110.075 155.116ZM118.379 134.959L109.429 151.495C104.769 147.436 86.3617 131.246 76.5582 121.514C64.5403 109.568 48.0705 85.8602 49.4545 82.4932C51.3921 77.7654 57.2973 68.5175 63.1563 70.1549C69.5228 71.9307 83.2246 83.531 89.8218 92.7327C91.8978 95.6155 94.8273 100.389 98.2182 105.924C104.792 116.648 112.935 129.886 118.402 134.959H118.379Z" fill="#602B7A"/>
<path d="M101.611 109.268C101.611 109.268 94.2294 97.0684 95.1752 89.0889C95.9825 82.2164 102.026 69.1171 103.479 63.882C104.933 58.6469 94.8292 66.8109 90.8386 72.5995C85.5793 80.2561 79.3051 94.8544 82.9727 106.086" fill="white"/>
<path d="M101.611 110.421C101.818 110.421 102.026 110.375 102.211 110.26C102.764 109.937 102.926 109.222 102.603 108.669C102.534 108.553 95.4289 96.7225 96.3285 89.2273C96.836 84.9608 99.5348 77.9269 101.703 72.2766C102.972 68.9557 104.079 66.1191 104.61 64.1818C105.163 62.1985 104.31 61.4605 103.756 61.2068C100.804 59.8 92.4994 68.1947 89.9159 71.9538C85.0488 79.0108 77.898 94.2318 81.8886 106.455C82.0962 107.054 82.7421 107.377 83.3418 107.193C83.9416 106.985 84.2876 106.339 84.0799 105.74C80.8506 95.8461 85.8331 81.9627 91.8074 73.2683C94.6908 69.071 100.342 64.2741 102.418 63.4669C102.418 63.49 102.418 63.5361 102.395 63.5822C101.888 65.4041 100.804 68.2177 99.5579 71.4695C97.2282 77.5348 94.5985 84.4073 94.0449 88.9736C93.0761 97.2529 100.342 109.384 100.642 109.891C100.85 110.26 101.242 110.444 101.634 110.444L101.611 110.421Z" fill="#602B7A"/>
<path d="M72.7783 70.8699C68.9491 65.8654 64.4511 59.6617 61.0833 62.3369C57.3695 65.2658 68.7415 78.5495 73.0781 81.5246C77.4147 84.4996 79.1447 83.5079 77.9452 79.8641C77.0918 77.235 72.7783 70.8699 72.7783 70.8699Z" fill="white"/>
<path d="M77.0211 84.4073C77.5977 84.4073 78.1052 84.2459 78.5204 83.9461C79.5815 83.162 79.743 81.6629 79.051 79.4951C78.1514 76.7507 73.9301 70.4778 73.7455 70.2241L73.2611 69.5784C70.0548 65.358 66.7332 60.9993 63.3885 60.5842C62.2812 60.4227 61.2663 60.7225 60.3667 61.4375C59.8131 61.8756 59.1441 62.7289 59.1903 64.228C59.3748 69.5553 68.6708 79.9102 72.4077 82.4701C74.3222 83.7616 75.8446 84.4073 77.0211 84.4073ZM71.831 71.5387C73.0074 73.2914 76.1676 78.2036 76.8365 80.21C77.2979 81.6168 77.1133 82.078 77.0903 82.1242C77.0903 82.1242 76.2368 82.2856 73.6994 80.5559C69.9395 77.9961 61.6123 68.2408 61.4739 64.1357C61.4739 63.4669 61.6815 63.3055 61.7738 63.2363C62.189 62.9134 62.6042 62.7981 63.0655 62.8673C65.4414 63.1671 68.74 67.5028 71.3927 70.9852L71.831 71.5617V71.5387Z" fill="#602B7A"/>
<path d="M66.27 74.8135C62.3025 69.9243 57.6199 63.859 54.3214 66.6034C50.6768 69.6245 64.1248 83.9461 68.5306 86.7827C72.9364 89.6194 74.6665 88.5816 73.3516 84.9839C72.4059 82.4009 66.247 74.7904 66.247 74.7904L66.27 74.8135Z" fill="white"/>
<path d="M72.4769 89.5963C73.0997 89.5963 73.6303 89.4118 74.0455 89.0889C75.0835 88.2587 75.1988 86.7597 74.4376 84.638C73.4688 81.9397 67.7943 74.9057 67.1484 74.1216L66.664 73.5451C63.3424 69.417 59.8823 65.1735 56.5376 64.8276C55.4304 64.7354 54.4385 65.0352 53.562 65.7732C53.0545 66.2113 52.4547 67.0185 52.547 68.4253C52.893 73.8449 63.8729 85.2145 67.9096 87.8205C69.8011 89.0428 71.3005 89.6424 72.4769 89.6424V89.5963ZM56.1455 67.0877C56.1455 67.0877 56.2608 67.0877 56.33 67.0877C58.729 67.3183 62.1429 71.5617 64.8879 74.9519L65.3723 75.5284C67.0562 77.604 71.5773 83.4157 72.2924 85.3759C72.7998 86.7827 72.6153 87.244 72.6153 87.267C72.6153 87.267 72.5922 87.267 72.5461 87.267C72.2924 87.267 71.3697 87.1979 69.1783 85.7911C65.1877 83.2312 55.1305 72.2767 54.8768 68.1947C54.8537 67.6412 55.0152 67.5028 55.0844 67.4567C55.4304 67.1799 55.7764 67.0416 56.1916 67.0416L56.1455 67.0877Z" fill="#602B7A"/>
<path d="M61.1707 79.7027C56.9956 74.9749 52.0823 69.1171 48.899 71.9999C45.3929 75.1825 59.4176 88.9275 63.9387 91.5796C68.4599 94.2318 70.1438 93.1248 68.6905 89.5963C67.6525 87.0364 61.1707 79.7027 61.1707 79.7027Z" fill="white"/>
<path d="M67.8605 94.2087C68.5525 94.2087 69.1061 94.0242 69.5675 93.6322C70.5594 92.7558 70.6286 91.2568 69.7751 89.1581C68.6909 86.506 62.7397 79.7027 62.0707 78.9416L61.5863 78.3651C58.0801 74.3753 54.4817 70.2703 51.1139 70.0858C50.0067 70.0166 49.0148 70.3856 48.1613 71.1466C47.6538 71.6079 47.1002 72.4381 47.2386 73.8449C47.7922 79.2414 59.2335 90.1498 63.3855 92.5713C65.2539 93.6552 66.7302 94.2087 67.8836 94.2087H67.8605ZM68.022 91.9025C68.022 91.9025 67.0532 92.0409 64.5389 90.588C60.4329 88.1895 49.9375 77.6732 49.5223 73.6143C49.4761 73.0838 49.6376 72.9224 49.6837 72.8763C50.0758 72.5303 50.468 72.3689 50.9524 72.415C53.3514 72.5534 56.9498 76.6354 59.8332 79.9102L60.3407 80.4868C62.0938 82.4932 66.8456 88.0973 67.6529 90.0575C68.2065 91.4413 68.0681 91.9025 68.0451 91.9486L68.022 91.9025Z" fill="#602B7A"/>
<path d="M56.7902 85.399C52.0614 81.2478 46.41 76.0589 43.6189 79.3337C40.551 82.9314 54.0914 93.0787 58.9354 95.1312C63.7795 97.1837 65.2788 95.8692 63.3873 92.5483C62.0264 90.1498 56.7902 85.3759 56.7902 85.3759V85.399Z" fill="white"/>
<path d="M62.6039 97.276C63.5497 97.276 64.2647 96.9992 64.7491 96.4457C65.6257 95.4541 65.5104 93.955 64.3801 91.9948C62.9499 89.4579 57.7829 84.7533 57.5522 84.5457L56.9525 84.0383C52.9619 80.5559 48.8329 76.9813 45.5113 77.1658C44.404 77.2581 43.4814 77.7193 42.7202 78.5957C42.2588 79.1492 41.7744 80.0947 42.1204 81.5476C43.2968 86.506 54.1844 94.3932 58.4518 96.1921C60.1357 96.907 61.5198 97.2529 62.5809 97.2529L62.6039 97.276ZM62.996 94.9467C62.996 94.9467 62.1195 95.2465 59.3745 94.0703C55.2455 92.3176 45.2806 84.8686 44.381 81.0172C44.2426 80.3945 44.4271 80.187 44.4963 80.0947C44.8423 79.7026 45.2114 79.4951 45.6958 79.472C48.0717 79.2875 52.1776 82.8852 55.4531 85.768L56.0298 86.2753C57.46 87.5668 61.3583 91.3259 62.3963 93.1479C63.1345 94.4393 63.0422 94.9236 63.0191 94.9698L62.996 94.9467Z" fill="#602B7A"/>
<path d="M344.25 244.251C344.25 244.251 176.922 254.56 145.99 230.852C115.057 207.144 76.2811 142.04 84.7236 127.51C93.143 112.981 107.329 109.522 114.757 117.455C122.184 125.389 160.822 184.497 184.788 184.059C210.739 183.574 247.415 172.113 267.899 161.988C300.423 145.937 399.98 173.658 344.274 244.251H344.25Z" fill="white"/>
<path d="M265.893 247.71C306.122 247.71 341.184 245.611 344.298 245.427H344.806L345.129 244.989C369.487 214.132 363.052 193.376 353.34 181.43C334.587 158.275 288.984 150.296 267.324 160.974C246.217 171.398 209.541 182.444 184.698 182.906C184.605 182.906 184.536 182.906 184.444 182.906C165.76 182.906 137.064 144.853 123.247 126.496C119.649 121.722 117.042 118.262 115.543 116.648C112.359 113.258 107.931 111.667 103.063 112.243C95.7743 113.074 88.5313 118.562 83.6641 126.911C75.014 141.832 113.559 207.467 145.23 231.751C162.092 244.666 217.66 247.687 265.847 247.687L265.893 247.71ZM343.652 243.144C333.364 243.743 176.071 252.484 146.683 229.952C116.396 206.729 77.6436 142.016 85.7171 128.11C90.1921 120.384 96.8123 115.311 103.386 114.573C107.515 114.088 111.252 115.426 113.905 118.262C115.312 119.785 118.034 123.359 121.448 127.902C136.58 147.966 164.652 185.212 184.49 185.212C184.582 185.212 184.675 185.212 184.79 185.212C210.879 184.727 247.348 173.427 268.385 163.026C288.891 152.902 333.757 160.858 351.587 182.859C364.643 198.98 361.898 219.828 343.675 243.144H343.652Z" fill="#602B7A"/>
<path d="M270.023 162.426C264.118 162.657 262.019 170.475 241.051 176.886C220.106 183.298 186.244 195.913 170.697 186.665C155.15 177.417 124.447 139.434 117.942 130.993C111.438 122.529 107.724 112.774 93.9989 123.659C80.2741 134.567 90.4927 146.767 94.5295 155.369C98.5662 163.972 120.203 204.077 150.675 225.248C176.002 242.844 300.61 246.626 317.057 240.815C333.504 235.003 359.246 158.829 270.023 162.426Z" fill="#95C11F"/>
<path d="M332.998 400.497C388.566 399.943 435.6 395.4 435.6 329.719C435.6 264.061 441.459 158.621 329.538 149.858C217.617 141.094 222.922 257.327 222.922 284.333C222.922 348.999 162.948 402.18 332.998 400.497Z" fill="white"/>
<path d="M325.039 401.696C327.646 401.696 330.298 401.696 333.02 401.65C389.788 401.073 436.776 395.285 436.776 329.719C436.776 326.675 436.776 323.561 436.799 320.379C437.052 255.39 437.445 157.145 329.652 148.728C298.212 146.26 273.161 153.478 255.215 170.175C221.238 201.793 221.63 259.195 221.768 280.804C221.768 282.096 221.768 283.295 221.768 284.333C221.768 298.585 218.885 312.053 216.094 325.06C211.526 346.324 207.582 364.681 218.723 378.311C231.848 394.385 264.788 401.673 325.039 401.673V401.696ZM332.997 399.343C269.286 400.012 233.555 392.84 220.522 376.881C210.096 364.105 213.925 346.231 218.354 325.568C221.053 313.045 224.098 298.862 224.098 284.356C224.098 283.295 224.098 282.119 224.098 280.804C223.959 259.472 223.567 202.808 256.807 171.882C274.245 155.646 298.697 148.635 329.491 151.034C376.179 154.678 406.35 175.272 421.69 213.993C434.815 247.134 434.653 287.746 434.515 320.379C434.515 323.561 434.492 326.698 434.492 329.742C434.492 393.301 390.526 398.79 333.043 399.367L332.997 399.343Z" fill="#602B7A"/>
<path d="M235.584 385.552C220.29 383.2 216.623 344.917 227.095 294.734C232.539 268.604 221.144 199.441 265.317 167.546C305.269 138.719 372.948 156.499 396.384 183.252C446.347 240.261 437.074 332.832 420.328 363.713C403.581 394.593 370.849 406.354 235.584 385.552Z" fill="#95C11F"/>
<path d="M66.3182 448.581C139.833 463.133 293.344 500.517 383.028 462.372C472.713 424.228 448.354 415.026 441.295 409.791C434.237 404.556 123.409 362.167 100.48 363.713C77.5518 365.258 4.98306 392.978 0.969391 407.83C-3.06732 422.682 11.0728 437.65 66.3182 448.581Z" fill="#DDF0FB"/>
<path d="M235.121 90.4727H145.598V19.0262H235.121V90.4727ZM147.904 88.1664H232.814V21.3325H147.904V88.1664Z" fill="#602B7A"/>
<path d="M228.733 25.0916H151.527V44.3023H228.733V25.0916Z" fill="#602B7A"/>
<path d="M215.72 39.6668C215.42 39.6668 215.097 39.5515 214.867 39.2979C214.428 38.8366 214.474 38.0986 214.936 37.6604L222.41 30.7649C222.871 30.3267 223.609 30.3498 224.047 30.8341C224.486 31.2953 224.439 32.0333 223.978 32.4715L216.504 39.367C216.274 39.5746 215.997 39.6668 215.72 39.6668Z" fill="white"/>
<path d="M223.194 39.6668C222.917 39.6668 222.64 39.5746 222.41 39.367L214.936 32.4715C214.474 32.0333 214.428 31.3184 214.867 30.8341C215.305 30.3498 216.02 30.3267 216.504 30.7649L223.978 37.6604C224.439 38.0986 224.486 38.8135 224.047 39.2979C223.817 39.5515 223.517 39.6668 223.194 39.6668Z" fill="white"/>
<path d="M206.401 31.6182H201.234V35.7232H206.401V31.6182Z" fill="#684B99"/>
<path d="M207.556 36.8763H200.082V30.4651H207.556V36.8763ZM202.389 34.5701H205.249V32.7713H202.389V34.5701Z" fill="white"/>
<path d="M203.819 34.4087H198.652V38.5137H203.819V34.4087Z" fill="#684B99"/>
<path d="M204.974 39.6669H197.5V33.2556H204.974V39.6669ZM199.807 37.3606H202.667V35.5618H199.807V37.3606Z" fill="white"/>
<path d="M190.347 39.6668H184.649C184.004 39.6668 183.496 39.1595 183.496 38.5137C183.496 37.868 184.004 37.3606 184.649 37.3606H190.347C190.993 37.3606 191.5 37.868 191.5 38.5137C191.5 39.1595 190.993 39.6668 190.347 39.6668Z" fill="white"/>
<path d="M219.574 57.4246H161.122C160.476 57.4246 159.969 56.9173 159.969 56.2715C159.969 55.6258 160.476 55.1184 161.122 55.1184H219.574C220.22 55.1184 220.727 55.6258 220.727 56.2715C220.727 56.9173 220.22 57.4246 219.574 57.4246Z" fill="#602B7A"/>
<path d="M219.574 64.5508H161.122C160.476 64.5508 159.969 64.0435 159.969 63.3977C159.969 62.752 160.476 62.2446 161.122 62.2446H219.574C220.22 62.2446 220.727 62.752 220.727 63.3977C220.727 64.0435 220.22 64.5508 219.574 64.5508Z" fill="#602B7A"/>
<path d="M219.574 71.677H161.122C160.476 71.677 159.969 71.1697 159.969 70.5239C159.969 69.8782 160.476 69.3708 161.122 69.3708H219.574C220.22 69.3708 220.727 69.8782 220.727 70.5239C220.727 71.1697 220.22 71.677 219.574 71.677Z" fill="#602B7A"/>
<path d="M321.841 184.958C321.841 184.958 390.743 165.747 397.155 129.217C401.261 105.924 377.917 -0.507378 318.866 1.17616C259.814 2.83663 238.5 96.1229 251.879 151.795C257.9 176.794 318.428 184.658 318.428 184.658C318.428 184.658 320.388 185.558 321.841 184.958Z" fill="white"/>
<path d="M320.712 186.319C319.582 186.319 318.544 185.95 318.129 185.788C313.954 185.235 256.794 177.14 250.773 152.072C242.146 116.141 247.105 59.4772 273.356 25.2299C285.766 8.99421 301.059 0.530413 318.844 -1.5229e-05C334.921 -0.415133 349.615 6.84943 362.463 21.7245C390.305 53.9423 401.17 113.074 398.31 129.425C395.588 144.945 381.886 159.198 357.642 171.813C340.227 180.853 323.342 185.742 322.235 186.065C321.75 186.25 321.22 186.319 320.735 186.319H320.712ZM320.251 2.3062C319.813 2.3062 319.351 2.3062 318.913 2.3062C301.866 2.7905 287.15 10.9545 275.178 26.6137C250.312 59.0851 244.383 115.633 253.011 151.518C258.777 175.457 317.99 183.436 318.59 183.505L318.913 183.597C319.305 183.782 320.62 184.197 321.427 183.874L321.543 183.828C322.235 183.644 389.798 164.387 396.026 129.009C398.84 113.004 388.114 54.9339 360.71 23.2235C348.692 9.31707 335.083 2.28313 320.251 2.28313V2.3062Z" fill="#602B7A"/>
<path d="M285.375 170.544C271.858 165.263 258.779 163.28 255.572 141.717C247.268 86.0447 269.643 6.41125 318.107 6.41125C366.571 6.41125 381.657 70.6623 384.448 80.6943C387.239 90.7263 415.911 149.489 330.402 179.838C313.125 185.973 291.026 172.758 285.375 170.544Z" fill="#95C11F"/>
<path d="M272.618 56.456C272.618 56.456 272.502 56.456 272.456 56.456C271.833 56.3638 271.395 55.7872 271.464 55.1646C272.318 49.0992 276.77 37.3145 276.954 36.8302C277.185 36.2306 277.854 35.9538 278.454 36.1614C279.053 36.392 279.353 37.0608 279.122 37.6604C279.076 37.7757 274.555 49.6988 273.748 55.5105C273.679 56.087 273.171 56.5022 272.618 56.5022V56.456Z" fill="#602B7A"/>
<path d="M317.76 181.383C317.599 181.383 317.414 181.337 317.253 181.268C263.691 155.508 268.743 78.8724 268.812 78.0883C268.858 77.4425 269.388 76.9582 270.057 77.0274C270.703 77.0736 271.165 77.627 271.119 78.2728C271.072 79.0338 266.113 154.124 318.267 179.193C318.844 179.469 319.075 180.161 318.798 180.738C318.59 181.153 318.198 181.383 317.76 181.383Z" fill="#602B7A"/>
<path d="M318.059 20.3177H318.036C298.863 20.3177 283.32 35.8572 283.32 55.0262V117.063C283.32 136.232 298.863 151.772 318.036 151.772H318.059C337.232 151.772 352.775 136.232 352.775 117.063V55.0262C352.775 35.8572 337.232 20.3177 318.059 20.3177Z" fill="white"/>
<path d="M318.037 152.902C298.246 152.902 282.168 136.804 282.168 117.04V55.0262C282.168 35.2389 298.269 19.1646 318.037 19.1646C337.806 19.1646 353.906 35.262 353.906 55.0262V117.04C353.906 136.827 337.806 152.902 318.037 152.902ZM318.037 21.4478C299.537 21.4478 284.475 36.5073 284.475 55.0031V117.017C284.475 135.536 299.537 150.573 318.037 150.573C336.537 150.573 351.6 135.513 351.6 117.017V55.0262C351.6 36.5073 336.537 21.4708 318.037 21.4708V21.4478Z" fill="#602B7A"/>
<path d="M323.342 107.585H311.301L317.137 83.2311C317.275 82.6085 317.898 82.2164 318.521 82.3778C319.144 82.5162 319.513 83.1389 319.374 83.7616L314.207 105.279H323.319C323.965 105.279 324.472 105.786 324.472 106.432C324.472 107.077 323.965 107.585 323.319 107.585H323.342Z" fill="#602B7A"/>
<path d="M318.059 129.332H318.013C310.194 129.332 304.934 122.783 304.727 122.506L301.82 118.816L306.111 120.73C313.492 124.028 331.784 118.655 331.969 118.585L335.498 117.525L333.191 120.407C328.463 126.311 323.365 129.309 318.059 129.309V129.332ZM309.617 123.936C311.67 125.458 314.599 127.026 318.059 127.026C321.727 127.026 325.372 125.273 328.878 121.791C324.126 122.944 315.845 124.605 309.617 123.913V123.936Z" fill="#602B7A"/>
<path d="M352.777 54.4958C352.777 54.4958 348.394 55.0723 342.074 55.7872C332.455 56.8712 318.407 58.2318 308.604 58.2318C292.711 58.2318 283.345 54.4727 283.345 54.4727C283.345 54.4727 265.976 8.2101 318.892 8.78666C370.008 9.36321 352.777 54.4727 352.777 54.4727V54.4958Z" fill="#602B7A"/>
<path d="M342.073 55.7872C342.073 55.7872 296.031 78.7802 262.745 75.5745C229.46 72.3228 283.321 54.4958 283.321 54.4958C283.321 54.4958 292.686 58.2549 308.579 58.2549C318.383 58.2549 332.431 56.8942 342.05 55.8103L342.073 55.7872Z" fill="#FFD631"/>
<path d="M269.32 77.0274C267.037 77.0274 264.799 76.9352 262.631 76.7276C254.719 75.9666 251.051 74.3753 250.751 71.6078C249.99 64.8737 275.202 55.9717 282.953 53.4118L283.345 53.2735L283.737 53.4349C283.737 53.4349 293.125 57.1018 308.557 57.1018C318.891 57.1018 333.885 55.5797 341.889 54.6572H346.779L342.558 56.825C342.12 57.0326 301.706 77.0274 269.297 77.0274H269.32ZM283.299 55.7181C268.398 60.6995 252.666 68.0332 253.035 71.3542C253.081 71.7232 253.727 73.5451 262.838 74.4445C288.189 76.9352 321.475 63.7667 335.2 57.7014C327.08 58.5316 316.492 59.408 308.557 59.408C294.279 59.408 285.259 56.456 283.276 55.7411L283.299 55.7181Z" fill="#602B7A"/>
<path d="M323.736 180.991C323.459 180.991 323.182 180.899 322.951 180.692C322.49 180.253 322.444 179.539 322.882 179.054C323.205 178.685 356.191 142.708 363.273 112.728C370.354 82.793 355.66 40.843 355.499 40.4048C355.291 39.8052 355.591 39.1364 356.191 38.9288C356.791 38.6982 357.46 39.0211 357.667 39.6207C357.829 40.0358 372.73 82.6315 365.51 113.235C358.29 143.815 324.912 180.23 324.566 180.576C324.335 180.83 324.036 180.945 323.713 180.945L323.736 180.991Z" fill="#602B7A"/>
<path d="M325.025 24.3074H309.201C307.909 24.3074 306.871 25.3452 306.871 26.6367V42.4573C306.871 43.7488 307.909 44.7866 309.201 44.7866H313.883L316.121 47.2773C316.721 47.7155 317.505 47.7155 318.105 47.2773L320.342 44.7866H325.025C326.317 44.7866 327.355 43.7488 327.355 42.4573V26.6367C327.355 25.3452 326.317 24.3074 325.025 24.3074Z" fill="white"/>
<path d="M341.957 81.0864C341.957 84.8455 340.158 87.9127 337.943 87.9127C336.029 87.9127 334.437 85.6296 334.022 82.5854C333.953 82.1011 333.93 81.5937 333.93 81.0864C333.93 80.579 333.953 80.0486 334.022 79.5643C334.437 76.5201 336.029 74.26 337.943 74.26C340.158 74.26 341.957 77.3042 341.957 81.0864Z" fill="#602B7A"/>
<path d="M337.413 81.0864C337.413 81.8935 335.89 82.5623 334.022 82.5854C333.953 82.1011 333.93 81.5937 333.93 81.0864C333.93 80.579 333.953 80.0486 334.022 79.5643C335.89 79.5873 337.413 80.2792 337.413 81.0864Z" fill="white"/>
<path d="M303.828 81.0864C303.828 84.8455 302.029 87.9127 299.814 87.9127C297.9 87.9127 296.308 85.6296 295.893 82.5854C295.824 82.1011 295.801 81.5937 295.801 81.0864C295.801 80.579 295.824 80.0486 295.893 79.5643C296.308 76.5201 297.9 74.26 299.814 74.26C302.029 74.26 303.828 77.3042 303.828 81.0864Z" fill="#602B7A"/>
<path d="M299.284 81.0864C299.284 81.8935 297.761 82.5623 295.893 82.5854C295.824 82.1011 295.801 81.5937 295.801 81.0864C295.801 80.579 295.824 80.0486 295.893 79.5643C297.761 79.5873 299.284 80.2792 299.284 81.0864Z" fill="white"/>
<path d="M321.9 238.485C322.108 238.485 322.292 238.439 322.477 238.324C323.03 238.001 323.215 237.309 322.892 236.756C322.846 236.663 317.333 226.931 322.892 217.245C326.237 211.41 324.945 205.783 323.584 199.81C322.408 194.667 321.185 189.363 323.007 183.574C323.745 181.199 324.414 180.599 324.737 180.692C327.413 181.014 332.142 195.474 332.626 203.108C332.88 206.844 334.518 225.778 342.983 231.244C343.514 231.59 344.229 231.428 344.575 230.898C344.921 230.367 344.76 229.652 344.229 229.307C338.393 225.547 335.556 212.748 334.91 202.97C334.541 197.296 330.296 179.054 324.991 178.408C322.292 178.086 321.162 181.706 320.77 182.906C318.763 189.294 320.101 195.175 321.3 200.364C322.615 206.106 323.769 211.087 320.862 216.138C314.611 227 320.608 237.517 320.862 237.955C321.07 238.324 321.462 238.531 321.854 238.531L321.9 238.485Z" fill="#602B7A"/>
<path d="M275.167 243.859L281.303 246.004L283.632 252.346L285.847 246.142L292.121 243.859L285.778 241.529L283.632 235.395L281.372 241.668L275.167 243.859Z" fill="#602B7A"/>
<path d="M117.502 246.488L123.615 248.633L125.968 254.952L128.182 248.771L134.434 246.488L128.113 244.136L125.968 238.024L123.684 244.274L117.502 246.488Z" fill="#602B7A"/>
<path d="M172.265 140.863L180.685 143.838L183.937 152.533L186.982 144.023L195.586 140.863L186.89 137.635L183.937 129.217L180.777 137.819L172.265 140.863Z" fill="#602B7A"/>
<path d="M375.162 448.558C363.628 458.89 350.987 466.385 334.956 459.997C320.723 454.324 327.436 446.229 337.954 437.511C348.15 429.071 363.928 424.089 374.193 426.303C385.288 428.702 386.28 438.595 375.162 448.558Z" fill="#602B7A"/>
<path d="M367.756 451.856C368.078 451.856 368.424 451.718 368.655 451.441C369.07 450.957 369.001 450.219 368.494 449.826C354.93 438.595 337.607 439.841 336.869 439.91C336.246 439.956 335.762 440.509 335.808 441.155C335.854 441.778 336.407 442.285 337.053 442.216C337.215 442.216 354.192 440.971 367.017 451.602C367.225 451.787 367.502 451.879 367.756 451.879V451.856Z" fill="white"/>
<path d="M336.503 459.812C336.988 459.812 337.449 459.489 337.61 459.005C340.448 449.873 351.773 446.137 351.889 446.113C352.489 445.929 352.835 445.26 352.627 444.661C352.442 444.061 351.797 443.715 351.174 443.923C350.666 444.084 338.602 448.028 335.396 458.336C335.211 458.936 335.557 459.582 336.157 459.766C336.272 459.812 336.388 459.812 336.503 459.812Z" fill="white"/>
<path d="M354.748 444.245C352.349 446.321 349.051 447.543 347.413 446.99C345.775 446.436 346.421 444.338 348.797 442.331C351.173 440.325 354.379 439.103 356.04 439.61C357.701 440.117 357.147 442.193 354.771 444.245H354.748Z" fill="white"/>
<path d="M342.523 402.849L100.48 363.713C99.3041 363.713 98.1738 364.128 97.2742 364.866L39.8835 428.655L283.656 470.398L346.213 411.267C349.189 408.061 346.905 402.849 342.523 402.849Z" fill="#602B7A"/>
<path d="M316.25 411.382L326.469 412.535L318.949 418.508L308.407 417.378L316.25 411.382Z" fill="#DDF0FB"/>
<path d="M301.788 418.831L317.012 420.284L309.492 426.257L293.945 424.827L301.788 418.831Z" fill="#DDF0FB"/>
<path d="M303.195 409.768L313.414 410.944L305.894 416.894L295.353 415.787L303.195 409.768Z" fill="#DDF0FB"/>
<path d="M288.938 417.378L299.18 418.554L291.637 424.504L281.095 423.397L288.938 417.378Z" fill="#DDF0FB"/>
<path d="M275.93 415.971L286.172 417.124L278.629 423.074L268.087 421.967L275.93 415.971Z" fill="#DDF0FB"/>
<path d="M286.034 435.505L301.258 436.981L293.738 442.931L278.191 441.501L286.034 435.505Z" fill="#DDF0FB"/>
<path d="M273.184 434.075L283.426 435.228L275.883 441.178L265.341 440.071L273.184 434.075Z" fill="#DDF0FB"/>
<path d="M260.172 432.645L270.414 433.821L262.871 439.771L252.33 438.641L260.172 432.645Z" fill="#DDF0FB"/>
<path d="M290.254 408.522L300.473 409.698L292.953 415.648L282.411 414.518L290.254 408.522Z" fill="#DDF0FB"/>
<path d="M277.497 406.908L287.738 408.084L280.195 414.034L269.654 412.927L277.497 406.908Z" fill="#DDF0FB"/>
<path d="M298.489 427.387L308.73 428.54L301.188 434.49L290.646 433.383L298.489 427.387Z" fill="#DDF0FB"/>
<path d="M285.434 425.773L295.676 426.949L288.133 432.899L277.591 431.792L285.434 425.773Z" fill="#DDF0FB"/>
<path d="M272.493 424.527L282.734 425.68L275.191 431.653L264.65 430.523L272.493 424.527Z" fill="#DDF0FB"/>
<path d="M259.758 422.913L269.977 424.089L262.457 430.039L251.915 428.909L259.758 422.913Z" fill="#DDF0FB"/>
<path d="M282.157 444.315L292.398 445.468L284.879 451.418L274.337 450.311L282.157 444.315Z" fill="#DDF0FB"/>
<path d="M269.125 442.7L279.344 443.853L271.824 449.826L261.282 448.696L269.125 442.7Z" fill="#DDF0FB"/>
<path d="M256.161 441.455L266.402 442.608L258.882 448.581L248.341 447.451L256.161 441.455Z" fill="#DDF0FB"/>
<path d="M243.426 439.841L253.668 440.994L246.125 446.967L235.583 445.837L243.426 439.841Z" fill="#DDF0FB"/>
<path d="M339.871 393.993C329.329 397.614 319.987 395.285 310.137 392.955C302.041 391.041 294.636 388.135 286.309 384.445C285.386 384.03 284.764 383.062 284.971 382.093C285.087 381.586 285.41 381.286 286.055 381.54C296.251 382.67 315.835 384.653 324.785 384.238C332.605 383.869 345.753 384.976 353.665 382.07C361.807 379.095 349.859 390.603 339.871 394.039V393.993Z" fill="white"/>
<path d="M340.215 394.985C347.55 392.471 356.869 385.183 357.4 382.347C357.515 381.747 357.331 381.217 356.915 380.871C356.246 380.294 355.162 380.34 353.294 381.032C347.666 383.085 338.969 383.062 331.98 383.062C329.35 383.062 326.836 383.062 324.737 383.154C316.571 383.546 299.34 381.909 286.284 380.479C285.615 380.271 285.131 380.41 284.831 380.571C284.508 380.732 284.093 381.101 283.931 381.862C283.632 383.292 284.439 384.791 285.869 385.414C293.089 388.62 301.001 391.894 309.882 393.993L310.482 394.131C317.586 395.815 324.414 397.429 331.68 396.83C334.448 396.599 337.285 396.023 340.238 395.008L340.215 394.985ZM324.852 385.253C326.905 385.16 329.373 385.16 332.003 385.16C339.546 385.16 348.081 385.206 354.055 383.016C354.378 382.9 354.632 382.808 354.839 382.762C352.994 385.091 346.189 390.695 339.546 392.978C329.489 396.438 320.516 394.293 310.989 392.033L310.389 391.894C301.693 389.842 293.873 386.613 286.746 383.454C286.4 383.292 286.077 382.969 286.031 382.554C299.179 384.007 316.525 385.645 324.852 385.253Z" fill="#602B7A"/>
<path d="M397.743 395.976C397.743 395.976 311.956 425.242 294.033 433.66C277.379 441.455 281.692 429.67 310.226 419.062C310.226 419.062 263.423 441.34 262.155 437.857C260.886 434.375 307.274 413.019 307.274 413.019C307.274 413.019 255.258 434.006 253.897 430.178C252.536 426.349 304.206 406.631 304.206 406.631C304.206 406.631 257.541 424.919 255.465 421.322C253.389 417.724 301.138 400.243 301.138 400.243L385.609 371.946L397.766 395.976H397.743Z" fill="white"/>
<path d="M285.337 431.515C284.092 432.784 283.4 433.89 283.261 434.79C283.146 435.574 283.423 436.289 284.023 436.727C285.937 438.134 290.758 436.358 294.472 434.629C312.141 426.349 397.235 397.291 398.089 396.991C398.389 396.899 398.619 396.668 398.735 396.392C398.85 396.115 398.827 395.792 398.689 395.515L386.532 371.484C386.302 371.023 385.748 370.793 385.241 370.954L300.723 399.251C290.274 403.08 256.065 415.925 254.404 420.491C254.22 420.976 254.266 421.46 254.497 421.875C255.004 422.728 255.742 424.043 267.23 420.745C251.867 427.802 252.421 429.347 252.836 430.546C252.928 430.823 253.182 431.215 253.736 431.469C256.411 432.668 270.228 428.171 283.377 423.351C260.01 435.159 260.633 436.935 261.094 438.226C261.232 438.618 261.555 438.941 261.97 439.126C262.293 439.264 262.755 439.287 263.378 439.241C267.114 438.918 275.995 435.505 285.268 431.561L285.337 431.515ZM306.859 412.028C284.622 420.999 260.24 429.624 255.304 429.601C258.603 426.464 279.202 417.447 299.916 409.399C302.753 408.315 304.529 407.623 304.575 407.6C305.129 407.392 305.383 406.769 305.175 406.216C304.967 405.662 304.345 405.386 303.814 405.616C303.768 405.616 301.923 406.331 298.993 407.484C280.055 414.726 260.771 421.114 256.757 420.745C259.802 417.655 281.278 408.637 301.461 401.235L385.079 373.237L396.267 395.354C385.956 398.882 310.25 424.873 293.595 432.668C288.221 435.182 285.914 435.228 285.383 435.021C285.453 433.983 288.128 431.169 294.08 427.664C300.954 424.573 307.182 421.645 310.688 419.984C311.195 419.73 311.426 419.131 311.219 418.6C310.988 418.07 310.388 417.816 309.858 418.024C303.191 420.514 297.678 423.12 293.411 425.611C279.571 431.792 267.368 436.681 263.701 437.119C267.368 433.591 288.105 422.982 307.712 413.942C308.243 413.711 308.474 413.088 308.243 412.558C308.058 412.12 307.62 411.889 307.182 411.912C307.09 411.912 306.974 411.935 306.882 411.981L306.859 412.028Z" fill="#602B7A"/>
<path d="M414.054 196.12C414.054 196.12 476.773 285.97 481.71 328.151C486.646 370.331 349.605 432.345 341.301 413.596C332.997 394.846 326.63 385.091 346.352 377.319C366.098 369.547 413.547 338.967 418.322 324.138C423.096 309.309 360.977 234.934 360.977 234.934" fill="white"/>
<path d="M350.065 418.185C355.324 418.185 361.806 416.825 367.526 415.256C409.301 403.841 486.714 360.968 482.861 328.012C477.948 286.039 417.559 199.141 414.998 195.451C414.629 194.921 413.914 194.806 413.384 195.175C412.853 195.544 412.738 196.259 413.107 196.789C413.73 197.688 475.711 286.893 480.578 328.289C484.153 358.846 408.978 401.534 366.927 413.042C353.179 416.801 343.998 416.848 342.36 413.135C341.714 411.682 341.092 410.298 340.469 408.937C336.132 399.367 333.018 392.448 335.14 387.213C336.547 383.753 340.238 380.963 346.789 378.38C367.088 370.401 414.514 339.774 419.427 324.484C420.211 322.062 422.587 314.659 392.37 273.286C377.584 253.037 362.013 234.38 361.852 234.196C361.437 233.711 360.722 233.642 360.237 234.057C359.753 234.472 359.684 235.187 360.099 235.672C377.261 256.22 420.996 312.123 417.236 323.769C412.576 338.229 365.404 368.579 345.936 376.235C338.762 379.049 334.656 382.278 332.995 386.336C330.504 392.494 333.802 399.782 338.37 409.883C338.969 411.22 339.615 412.604 340.238 414.057C341.576 417.078 345.313 418.162 350.042 418.162L350.065 418.185Z" fill="#602B7A"/>
<path d="M405.681 195.936C405.681 195.936 452.092 265.283 463.326 290.698C472.16 310.693 481.041 329.419 469.669 343.948C458.297 358.454 434.446 378.91 417.399 387.42C400.353 395.93 358.002 419.062 347.529 414.057C337.057 409.053 334.935 392.01 336.942 387.905C338.948 383.8 342.155 381.909 354.911 377.181C367.667 372.453 418.184 341.527 421.021 327.643C423.858 313.76 419.037 305.573 413.985 297.063C408.934 288.553 379.685 251.608 373.687 245.289C367.69 238.97 356.987 229.514 356.987 229.514L405.681 195.959V195.936Z" fill="#95C11F"/>
<path d="M254.915 289.591L28.12 252.415C23.5758 252.415 19.9081 256.105 19.9081 260.625L39.8842 428.632L283.656 470.375L263.15 297.778C263.15 293.235 259.459 289.568 254.938 289.568L254.915 289.591Z" fill="#602B7A"/>
<path d="M151.921 347.2L131.968 344.917C130.4 344.732 129.27 345.955 129.408 347.615L131.346 368.625C131.507 370.377 132.937 372.015 134.552 372.269L140.503 373.214L143.756 377.181C144.586 377.919 145.647 378.103 146.362 377.619L148.923 374.575L155.174 375.566C156.927 375.843 158.149 374.575 157.942 372.73L155.335 350.682C155.128 348.93 153.582 347.362 151.898 347.154L151.921 347.2Z" fill="white"/>
<path d="M356.961 372.246C356.961 372.246 357.007 372.246 357.03 372.246C357.676 372.199 358.16 371.669 358.114 371.023L357.63 362.49L356.315 362.767C356.2 362.79 343.813 365.235 334.494 357.14C325.497 349.322 332.071 338.967 332.371 338.529L333.502 336.776L331.426 336.73C331.033 336.73 291.958 335.992 268.222 332.948C267.599 332.878 267.023 333.317 266.93 333.939C266.838 334.562 267.299 335.139 267.922 335.231C288.798 337.906 321.368 338.782 329.488 338.99C327.735 342.726 324.805 351.743 332.971 358.846C341.414 366.203 351.817 365.673 355.461 365.212L355.784 371.139C355.807 371.761 356.338 372.222 356.938 372.222L356.961 372.246Z" fill="#602B7A"/>
<path d="M17.3028 156.776C16.2418 156.776 15.1807 156.523 14.2119 156.015L5.67708 151.587C4.08546 150.757 2.90903 149.35 2.35543 147.644C1.80182 145.937 1.96329 144.092 2.7937 142.501L7.22256 133.968C8.92952 130.67 13.0124 129.378 16.311 131.085L24.8458 135.513C26.4374 136.343 27.6138 137.75 28.1674 139.457C28.721 141.163 28.5595 143.008 27.7291 144.599L23.3003 153.132C22.4699 154.724 21.0628 155.9 19.3558 156.453C18.6869 156.661 17.9948 156.776 17.3259 156.776H17.3028ZM13.22 132.63C11.6283 132.63 10.0598 133.507 9.27553 135.029L4.84667 143.562C4.29306 144.622 4.20078 145.822 4.54678 146.929C4.89279 148.036 5.67706 148.981 6.73814 149.535L15.2729 153.963C16.334 154.516 17.5335 154.608 18.6407 154.262C19.771 153.893 20.6937 153.132 21.2473 152.072L25.6762 143.539C26.2298 142.478 26.322 141.278 25.976 140.171C25.6069 139.041 24.8457 138.119 23.7847 137.565L15.2499 133.138C14.604 132.792 13.912 132.63 13.22 132.63Z" fill="#602B7A"/>
<path d="M13.081 148.704L11.8584 137.266C11.7892 136.643 12.2506 136.066 12.8734 135.997C13.5423 135.928 14.0729 136.389 14.1421 137.012L14.9956 144.899L32.4803 134.544C33.034 134.221 33.749 134.406 34.072 134.959C34.3949 135.513 34.2104 136.205 33.6567 136.551L13.081 148.728V148.704Z" fill="#602B7A"/>
<path d="M157.272 93.7014C157.502 94.0934 157.895 94.3702 158.425 94.5316C157.895 94.693 157.502 94.9698 157.272 95.3618C157.041 95.7539 156.903 96.3304 156.903 97.0684V103.134C156.903 104.564 156.211 105.302 154.85 105.302H154.158V107.492H155.38C156.764 107.492 157.802 107.147 158.517 106.455C159.209 105.763 159.579 104.748 159.579 103.387V97.0223C159.579 96.0998 159.994 95.6386 160.824 95.6386H161.793V93.4246H160.824C159.994 93.4246 159.579 92.9634 159.579 92.0409V85.6757C159.579 84.3381 159.233 83.3003 158.517 82.6085C157.825 81.9166 156.764 81.5707 155.38 81.5707H154.158V83.7616H154.85C156.211 83.7616 156.903 84.4765 156.903 85.9294V91.9948C156.903 92.7558 157.018 93.3324 157.272 93.7014Z" fill="#602B7A"/>
<path d="M130.653 93.4246V95.6386H131.599C132.406 95.6386 132.821 96.0998 132.821 97.0223V103.387C132.821 104.725 133.167 105.763 133.883 106.455C134.598 107.147 135.636 107.492 137.02 107.492H138.242V105.302H137.573C136.166 105.302 135.474 104.587 135.474 103.134V97.0684C135.474 96.2843 135.359 95.7078 135.128 95.3388C134.897 94.9698 134.505 94.693 133.975 94.5316C134.505 94.3702 134.897 94.0934 135.128 93.7244C135.359 93.3554 135.474 92.7789 135.474 91.9948V85.9294C135.474 84.4996 136.166 83.7616 137.573 83.7616H138.242V81.5707H137.02C135.636 81.5707 134.598 81.9166 133.883 82.6085C133.167 83.3003 132.821 84.3151 132.821 85.6757V92.0409C132.821 92.9634 132.406 93.4246 131.599 93.4246H130.653Z" fill="#602B7A"/>
<path d="M19.8165 230.091H26.8519L27.567 225.063C29.5738 224.602 31.4884 223.795 33.2415 222.688L37.3013 225.732L42.2838 220.751L39.2389 216.692C40.323 214.939 41.1073 213.025 41.5687 211.018L46.5742 210.303V203.269L41.5456 202.555C41.0843 200.548 40.2769 198.634 39.1928 196.904L42.2376 192.845L37.2551 187.864L33.1953 190.908C31.4423 189.824 29.5277 189.04 27.5209 188.579L26.8058 183.574H19.7703L19.0553 188.602C17.0484 189.063 15.1339 189.87 13.4039 190.954L9.34407 187.91L4.36159 192.891L7.40646 196.95C6.3223 198.703 5.53801 200.617 5.07666 202.624L0.0711288 203.339V210.373L5.09975 211.087C5.5611 213.094 6.36842 215.008 7.45256 216.761L4.40774 220.82L9.39018 225.801L13.45 222.757C15.2031 223.841 17.1176 224.625 19.1245 225.086L19.8396 230.091H19.8165ZM24.8451 227.784H21.8002L21.1313 223.126L20.324 222.988C18.0403 222.572 15.9182 221.696 14.0267 220.405L13.3347 219.943L9.55167 222.78L7.40646 220.635L10.2206 216.876L9.73621 216.184C8.42139 214.27 7.54485 212.171 7.10657 209.888L6.94509 209.081L2.28558 208.412V205.368L6.94509 204.699L7.08348 203.892C7.49869 201.609 8.37526 199.487 9.66701 197.596L10.1283 196.904L7.29111 193.122L9.43633 190.977L13.1963 193.791L13.8883 193.307C15.8028 191.992 17.9019 191.116 20.1856 190.678L20.9929 190.516L21.6618 185.834H24.7067L25.3756 190.493L26.183 190.631C28.4666 191.047 30.5888 191.923 32.4803 193.214L33.1723 193.676L36.9553 190.839L39.1005 192.984L36.2863 196.743L36.7707 197.435C38.0856 199.326 38.9621 201.448 39.4004 203.731L39.5618 204.538L44.2214 205.207V208.251L39.5618 208.92L39.4234 209.75C39.0082 212.033 38.1317 214.155 36.8399 216.046L36.3786 216.738L39.2158 220.52L37.0706 222.665L33.3107 219.851L32.6187 220.335C30.7272 221.65 28.605 222.526 26.3214 222.964L25.514 223.126L24.8451 227.784ZM23.2765 220.197C30.6349 220.197 36.6323 214.201 36.6323 206.844C36.6323 199.487 30.6349 193.491 23.2765 193.491C15.9182 193.491 9.92075 199.487 9.92075 206.844C9.92075 214.201 15.9182 220.197 23.2765 220.197ZM23.2765 195.774C29.3662 195.774 34.3256 200.733 34.3256 206.821C34.3256 212.909 29.3662 217.868 23.2765 217.868C17.1868 217.868 12.2275 212.909 12.2275 206.821C12.2275 200.733 17.1868 195.774 23.2765 195.774Z" fill="#602B7A"/>
<path d="M290.159 317.611C290.482 317.611 290.805 317.519 291.082 317.312L291.128 317.265C291.866 316.735 292.027 315.72 291.497 314.982C290.966 314.244 289.951 314.083 289.213 314.613C288.475 315.144 288.291 316.181 288.821 316.919C289.144 317.358 289.652 317.611 290.136 317.611H290.159ZM306.052 306.011C306.375 306.011 306.698 305.919 306.975 305.711L307.021 305.665C307.759 305.135 307.921 304.12 307.39 303.382C306.86 302.644 305.845 302.483 305.106 303.013C304.368 303.543 304.184 304.581 304.714 305.319C305.037 305.757 305.545 306.011 306.029 306.011H306.052ZM321.945 294.411C322.268 294.411 322.591 294.319 322.868 294.111L322.914 294.065C323.652 293.535 323.814 292.52 323.283 291.782C322.753 291.044 321.738 290.882 321 291.413C320.261 291.943 320.077 292.981 320.607 293.719C320.93 294.157 321.438 294.411 321.922 294.411H321.945ZM337.839 282.811C338.161 282.811 338.484 282.718 338.761 282.511L338.807 282.465C339.545 281.934 339.707 280.92 339.176 280.182C338.646 279.444 337.631 279.282 336.893 279.813C336.155 280.343 335.97 281.381 336.501 282.119C336.824 282.557 337.331 282.811 337.815 282.811H337.839Z" fill="#602B7A"/>
<path d="M202.966 275.731C203.727 275.731 204.396 275.223 204.558 274.439V274.37C204.742 273.494 204.165 272.617 203.289 272.456C202.389 272.294 201.536 272.848 201.374 273.747C201.19 274.624 201.766 275.523 202.666 275.708C202.781 275.708 202.897 275.731 202.989 275.731H202.966ZM206.726 256.405C207.487 256.405 208.156 255.874 208.317 255.113V255.044C208.502 254.167 207.925 253.314 207.026 253.13C206.149 252.945 205.296 253.545 205.111 254.421C204.95 255.298 205.526 256.197 206.403 256.358C206.518 256.358 206.611 256.381 206.726 256.381V256.405ZM210.486 237.078C211.247 237.078 211.916 236.548 212.077 235.787V235.718C212.262 234.841 211.685 233.988 210.786 233.804C209.909 233.642 209.033 234.219 208.871 235.095C208.71 235.971 209.286 236.871 210.163 237.032C210.278 237.032 210.37 237.055 210.486 237.055V237.078ZM214.246 217.752C215.007 217.752 215.676 217.222 215.837 216.461V216.392C216.022 215.515 215.445 214.662 214.546 214.478C213.669 214.293 212.792 214.893 212.631 215.769C212.47 216.645 213.046 217.545 213.923 217.706C214.038 217.706 214.13 217.729 214.246 217.729V217.752ZM218.006 198.426C218.767 198.426 219.436 197.919 219.597 197.135V197.066C219.782 196.189 219.205 195.313 218.329 195.152C217.429 194.99 216.575 195.544 216.414 196.443C216.229 197.319 216.806 198.219 217.706 198.403C217.821 198.403 217.936 198.426 218.029 198.426H218.006ZM221.766 179.1C222.527 179.1 223.196 178.593 223.357 177.809V177.74C223.542 176.863 222.965 175.987 222.088 175.826C221.189 175.664 220.335 176.218 220.174 177.117C219.989 177.993 220.566 178.893 221.466 179.077C221.581 179.077 221.696 179.1 221.789 179.1H221.766ZM225.525 159.774C226.287 159.774 226.956 159.267 227.117 158.483V158.414C227.302 157.537 226.725 156.661 225.848 156.499C224.949 156.338 224.095 156.892 223.934 157.791C223.749 158.667 224.326 159.567 225.226 159.751C225.341 159.751 225.456 159.774 225.549 159.774H225.525ZM229.285 140.448C230.047 140.448 230.716 139.918 230.877 139.157V139.088C231.062 138.211 230.485 137.358 229.585 137.173C228.709 136.989 227.855 137.589 227.671 138.465C227.509 139.341 228.086 140.241 228.962 140.402C229.078 140.402 229.17 140.425 229.285 140.425V140.448ZM233.045 121.122C233.806 121.122 234.475 120.615 234.614 119.854V119.785C234.821 118.908 234.245 118.032 233.368 117.847C232.492 117.663 231.615 118.239 231.431 119.116C231.246 119.992 231.8 120.892 232.699 121.076C232.815 121.099 232.93 121.122 233.045 121.122Z" fill="#602B7A"/>
<path d="M103.616 254.006C103.847 254.006 104.078 253.96 104.308 253.845C105.116 253.453 105.485 252.507 105.092 251.7V251.631C104.677 250.824 103.708 250.478 102.878 250.87C102.071 251.262 101.725 252.23 102.117 253.061C102.394 253.66 102.993 254.006 103.616 254.006ZM95.2198 236.202C95.4505 236.202 95.658 236.156 95.8887 236.064C96.7191 235.695 97.0882 234.749 96.6961 233.919V233.85C96.2809 233.02 95.3121 232.674 94.5047 233.043C93.6743 233.412 93.3283 234.38 93.6974 235.21C93.9742 235.81 94.597 236.179 95.2198 236.179V236.202ZM86.8234 218.398C87.0541 218.398 87.2847 218.352 87.4923 218.26C88.3227 217.891 88.6918 216.945 88.2997 216.115V216.046C87.8845 215.239 86.9157 214.87 86.1083 215.239C85.301 215.631 84.9319 216.599 85.301 217.407C85.5778 218.006 86.2006 218.375 86.8234 218.375V218.398ZM78.427 200.594C78.6577 200.594 78.8884 200.548 79.119 200.433C79.9264 200.041 80.2954 199.095 79.9033 198.288V198.219C79.4881 197.412 78.5193 197.066 77.6889 197.458C76.8815 197.85 76.5355 198.818 76.9277 199.649C77.2045 200.248 77.8042 200.594 78.427 200.594ZM70.0306 182.79C70.2613 182.79 70.492 182.744 70.7226 182.629C71.53 182.237 71.899 181.291 71.5069 180.484V180.415C71.0917 179.608 70.1229 179.262 69.2925 179.654C68.4851 180.046 68.1391 181.015 68.5313 181.845C68.8081 182.444 69.4078 182.79 70.0306 182.79ZM61.6342 164.986C61.8649 164.986 62.0725 164.94 62.3032 164.848C63.1336 164.479 63.5027 163.533 63.1105 162.703V162.634C62.6953 161.804 61.7265 161.458 60.9192 161.827C60.0887 162.196 59.7427 163.164 60.1118 163.995C60.3886 164.594 61.0114 164.963 61.6342 164.963V164.986ZM53.2378 147.182C53.4685 147.182 53.6992 147.136 53.9068 147.044C54.7372 146.675 55.1063 145.729 54.7141 144.899V144.83C54.2989 144 53.3301 143.654 52.5228 144.023C51.7154 144.415 51.3463 145.384 51.7154 146.191C51.9922 146.79 52.615 147.159 53.2378 147.159V147.182ZM44.8415 129.378C45.0721 129.378 45.3028 129.332 45.5104 129.24C46.3408 128.871 46.7099 127.926 46.3177 127.095V127.026C45.9025 126.219 44.9337 125.85 44.1264 126.219C43.319 126.611 42.95 127.58 43.319 128.387C43.5958 128.986 44.2186 129.355 44.8415 129.355V129.378ZM36.4451 111.574C36.6757 111.574 36.9064 111.528 37.1371 111.413C37.9444 111.021 38.3135 110.075 37.9214 109.268V109.199C37.5061 108.392 36.5373 108.046 35.7069 108.438C34.8996 108.83 34.5536 109.799 34.9457 110.629C35.2225 111.229 35.8223 111.574 36.4451 111.574ZM28.0487 93.7705C28.2794 93.7705 28.51 93.7244 28.7407 93.6091C29.548 93.2171 29.9171 92.2715 29.525 91.4643V91.3951C29.1098 90.588 28.1409 90.242 27.3105 90.6341C26.5032 91.0261 26.1572 91.9948 26.5493 92.825C26.8261 93.4246 27.4259 93.7705 28.0487 93.7705ZM19.6523 75.9666C19.883 75.9666 20.1136 75.9205 20.3443 75.8052C21.1516 75.4131 21.5207 74.4676 21.1286 73.6604V73.5912C20.7134 72.784 19.7445 72.4381 18.9141 72.8301C18.1068 73.2222 17.7608 74.1908 18.1529 75.021C18.4297 75.6207 19.0295 75.9666 19.6523 75.9666ZM11.2559 58.1626C11.4866 58.1626 11.7172 58.1165 11.9248 58.0243C12.7552 57.6553 13.1243 56.7097 12.7322 55.8795V55.8103C12.317 55.0031 11.3481 54.6341 10.5408 55.0031C9.73345 55.3952 9.3644 56.3638 9.73347 57.171C10.0103 57.7706 10.6331 58.1396 11.2559 58.1396V58.1626Z" fill="#602B7A"/>
</g>
<defs>
<clipPath id="clip0_622_87908">
<rect width="483" height="479" fill="white" transform="matrix(-1 0 0 1 483 0)"/>
</clipPath>
</defs>
</svg>
