<svg width="110" height="136" viewBox="0 0 110 136" fill="none" xmlns="http://www.w3.org/2000/svg">
<g clip-path="url(#clip0_622_85770)">
<path d="M29.988 39.2296H25.9645C22.9279 39.2296 20.4531 41.714 20.4531 44.7966V55.2097C20.4531 58.2769 22.8976 60.746 25.919 60.7767C25.919 60.7767 25.919 60.7767 25.919 60.7921C25.919 62.0649 26.9362 63.0925 28.1964 63.0925C29.4566 63.0925 30.4738 62.0649 30.4738 60.7921C30.4738 60.7767 30.4738 60.746 30.4738 60.7307C33.2827 60.4853 35.4994 58.1236 35.4994 55.2097V44.7966C35.4994 41.7294 33.0397 39.2296 29.988 39.2296Z" fill="#613182"/>
<path d="M27.9659 45.226C37.2065 45.226 44.6975 37.6595 44.6975 28.3257C44.6975 18.9919 37.2065 11.4254 27.9659 11.4254C18.7253 11.4254 11.2344 18.9919 11.2344 28.3257C11.2344 37.6595 18.7253 45.226 27.9659 45.226Z" fill="white"/>
<path d="M27.9672 45.9928C21.059 45.9928 10.4766 38.0794 10.4766 28.3257C10.4766 18.572 18.3261 10.6586 27.9672 10.6586C37.6084 10.6586 45.4579 18.5873 45.4579 28.3257C45.4579 38.0641 34.8755 45.9928 27.9672 45.9928ZM27.9672 12.1922C19.1612 12.1922 11.9949 19.4308 11.9949 28.3257C11.9949 37.2206 21.803 44.4592 27.9672 44.4592C34.1315 44.4592 43.9396 37.0826 43.9396 28.3257C43.9396 19.5688 36.7733 12.1922 27.9672 12.1922Z" fill="#613182"/>
<path d="M28.3774 39.3063C35.3707 39.3063 41.0399 33.5799 41.0399 26.516C41.0399 19.4522 35.3707 13.7258 28.3774 13.7258C21.384 13.7258 15.7148 19.4522 15.7148 26.516C15.7148 33.5799 21.384 39.3063 28.3774 39.3063Z" fill="#FFD441"/>
<path d="M29.6835 17.2684C33.2514 18.8787 37.3356 22.2066 37.6241 28.9698C37.6848 30.4267 35.7111 30.9788 35.0126 29.6906C33.3881 26.7767 30.974 22.866 28.0437 19.4614C27.0568 18.3266 28.317 16.6396 29.6835 17.2531V17.2684Z" fill="white"/>
<path d="M0.758025 45.9008C0.484733 45.9008 0.226624 45.7474 0.0899783 45.502C-0.107399 45.134 0.0292467 44.6585 0.408819 44.4592L8.44057 40.1344C8.82014 39.935 9.27562 40.0731 9.473 40.4565C9.67038 40.8245 9.53373 41.2999 9.15416 41.4993L1.12241 45.8087C1.00095 45.8701 0.879488 45.9008 0.773208 45.9008H0.758025Z" fill="#613182"/>
<path d="M35.2536 6.2111C35.2536 6.2111 35.1169 6.2111 35.041 6.18043C34.6311 6.05774 34.4033 5.64367 34.5248 5.2296L35.8761 0.552104C35.9976 0.153367 36.4075 -0.0920099 36.8174 0.0306784C37.2274 0.153367 37.4551 0.56744 37.3336 0.981513L35.9824 5.65901C35.8913 5.9964 35.5876 6.2111 35.2536 6.2111Z" fill="#613182"/>
<path d="M50.0263 23.7249C49.7075 23.7249 49.419 23.5255 49.3127 23.2188C49.1761 22.82 49.3734 22.3753 49.7682 22.2373L61.2161 18.1272C61.6108 17.9892 62.0511 18.1885 62.1878 18.5873C62.3244 18.986 62.1271 19.4308 61.7323 19.5688L50.2844 23.6788C50.1933 23.7095 50.1174 23.7249 50.0263 23.7249Z" fill="#613182"/>
<path d="M9.97261 9.75372C9.76005 9.75372 9.54749 9.6617 9.39566 9.47767L3.80835 2.82183C3.53506 2.49977 3.58061 2.00902 3.89945 1.73297C4.21829 1.45692 4.70415 1.50293 4.97744 1.82499L10.5496 8.48083C10.8228 8.80289 10.7773 9.29364 10.4585 9.56969C10.3218 9.69237 10.1396 9.75372 9.97261 9.75372Z" fill="#613182"/>
<path d="M69.3998 136C69.2784 136 69.1721 135.969 69.0658 135.923L60.5938 131.645L62.4005 99.6229C62.4309 99.1935 62.8105 98.8714 63.2052 98.9021C63.6303 98.9328 63.9492 99.2855 63.9188 99.7149L62.1728 130.724L69.749 134.543C70.1286 134.727 70.2804 135.187 70.0831 135.571C69.9464 135.847 69.6883 136 69.3998 136Z" fill="#613182"/>
<path d="M82.0653 131.951C81.9742 131.951 81.8983 131.951 81.8072 131.905L72.6367 128.562L73.5477 99.6536C73.5477 99.2242 73.8969 98.8714 74.3372 98.9174C74.7623 98.9174 75.0812 99.2855 75.066 99.7149L74.1854 127.519L82.3082 130.479C82.703 130.617 82.9003 131.062 82.7637 131.461C82.6574 131.767 82.3538 131.967 82.0501 131.967L82.0653 131.951Z" fill="#613182"/>
<path d="M102.456 64.2887C97.4457 64.2887 91.661 62.4484 90.6741 62.111C90.2794 61.9729 90.0516 61.5435 90.1883 61.1448C90.3249 60.7461 90.75 60.516 91.1448 60.654C95.1683 61.9883 106.1 64.5801 108.21 60.6387C110.275 56.7894 101.196 46.1155 97.5216 42.3275L97.2331 42.0207L99.2069 33.862C99.3132 33.4479 99.708 33.2025 100.118 33.2945C100.528 33.4019 100.771 33.816 100.68 34.2147L98.9033 41.5453C101.257 44.0144 112.37 56.0992 109.546 61.3442C108.362 63.5526 105.553 64.258 102.456 64.258V64.2887Z" fill="#613182"/>
<path d="M84.8348 49.0801L46.4389 54.4479C42.8008 54.9565 40.2598 58.3478 40.7633 62.0226L46.0775 100.806C46.581 104.481 49.9385 107.047 53.5765 106.539L91.9724 101.171C95.6105 100.662 98.1515 97.2709 97.648 93.5961L92.3338 54.8129C91.8303 51.1382 88.4728 48.5715 84.8348 49.0801Z" fill="#613182"/>
<path d="M60.8222 101.417C57.9678 101.417 55.4778 99.2855 55.0679 96.3563L51.0444 66.9571C50.8318 65.4082 51.2266 63.8593 52.1679 62.617C53.1093 61.3748 54.4606 60.562 56.0092 60.3473L85.1148 56.2833C88.288 55.8538 91.2183 58.0929 91.6586 61.2828L95.6821 90.682C95.8946 92.2309 95.4999 93.7799 94.5586 95.0221C93.6172 96.2643 92.2659 97.0771 90.7173 97.2918L61.6117 101.356C61.3384 101.387 61.0803 101.417 60.807 101.417H60.8222ZM85.9043 57.7555C85.7069 57.7555 85.5096 57.7555 85.3122 57.8015L56.2066 61.8656C55.0679 62.0189 54.0658 62.617 53.3826 63.5372C52.6842 64.4574 52.3957 65.5922 52.5475 66.7424L56.571 96.1416C56.8898 98.5034 59.061 100.175 61.4143 99.8376L90.5199 95.7736C91.6586 95.6202 92.6607 95.0221 93.3439 94.1019C94.0272 93.1818 94.3308 92.0469 94.179 90.8967L90.1555 61.4975C89.8519 59.3351 88.0147 57.7555 85.9043 57.7555Z" fill="#6553A3"/>
<path d="M63.2244 42.5115C66.0028 58.9517 40.3893 63.0004 38.0815 46.4835C35.3031 30.0433 60.9166 25.9946 63.2244 42.5115Z" fill="white"/>
<path d="M50.2715 57.8015C48.4799 57.8015 46.6883 57.4795 45.0334 56.82C40.7518 55.1177 38.0189 51.4831 37.3357 46.5756C36.5158 41.714 38.0189 37.4046 41.5869 34.4601C45.58 31.1782 51.4861 30.2427 56.2839 32.1443C60.5655 33.8313 63.2984 37.4659 63.9816 42.3735C64.8015 47.2657 63.2984 51.5598 59.7304 54.4889C57.119 56.636 53.6876 57.7862 50.2715 57.7862V57.8015ZM51.0154 32.7118C47.9637 32.7118 44.8815 33.7393 42.5434 35.6716C39.4157 38.2481 38.0948 42.0361 38.8388 46.3608C39.4461 50.7163 41.845 53.9369 45.5951 55.4091C49.8919 57.1114 55.1907 56.2833 58.7739 53.3234C61.9016 50.747 63.2225 46.959 62.4785 42.6342C61.8712 38.2788 59.4723 35.0582 55.7221 33.5859C54.2342 33.0032 52.6248 32.7118 51.0154 32.7118Z" fill="#6553A3"/>
<path d="M89.1736 38.4168C91.9521 54.857 66.3385 58.9057 64.0307 42.3888C61.2523 25.9486 86.8658 21.8999 89.1736 38.4168Z" fill="white"/>
<path d="M76.2207 53.7068C74.4291 53.7068 72.6375 53.3847 70.9826 52.7253C66.701 51.023 63.9681 47.3884 63.2849 42.4808C62.465 37.6193 63.9681 33.3099 67.5361 30.3654C71.5292 27.0834 77.4353 26.1479 82.2331 28.0496C86.5147 29.7366 89.2476 33.3865 89.9308 38.2787C90.7507 43.1556 89.2476 47.465 85.6796 50.3942C83.0682 52.5413 79.6368 53.6915 76.2207 53.6915V53.7068ZM76.9646 28.617C73.9129 28.617 70.8308 29.6446 68.4926 31.5769C65.3649 34.1534 64.044 37.9414 64.788 42.2661C65.3953 46.6216 67.7942 49.8421 71.5444 51.3144C75.8411 53.0167 81.1399 52.1885 84.7231 49.2287C87.8508 46.6522 89.1717 42.8642 88.4277 38.5395C87.8204 34.184 85.4215 30.9635 81.6713 29.4912C80.1834 28.9084 78.574 28.617 76.9646 28.617Z" fill="#6553A3"/>
<path d="M73.731 37.6806C74.7634 43.9991 68.9635 44.3058 68.2651 38.5395C67.172 32.8498 72.8048 31.3315 73.731 37.6806Z" fill="#613182"/>
<path d="M70.6354 38.1714C70.7265 38.7235 69.7548 39.3523 68.4946 39.567C68.3124 38.9075 68.191 38.1561 68.1758 37.4966C69.4511 37.3126 70.5595 37.6193 70.6506 38.1714H70.6354Z" fill="white"/>
<path d="M47.7817 41.7754C48.8142 48.0938 43.0143 48.4005 42.3159 42.6342C41.2227 36.9445 46.8556 35.4263 47.7817 41.7754Z" fill="#613182"/>
<path d="M44.6979 42.2508C44.789 42.8029 43.8173 43.4317 42.5571 43.6464C42.3749 42.9869 42.2535 42.2354 42.2383 41.576C43.5136 41.392 44.622 41.6987 44.7131 42.2508H44.6979Z" fill="white"/>
<path d="M63.707 67.1412L68.2315 66.5124L71.0859 87.216L83.8092 85.4371L84.3406 89.3017L67.108 91.7248L63.7222 67.1565L63.707 67.1412Z" fill="white"/>
<path d="M60.0781 57.7555C62.5529 56.3293 73.8793 55.5472 75.762 57.0194C77.6447 58.4917 73.5757 63.0771 68.793 63.6446C64.0104 64.212 57.1478 59.4578 60.0932 57.7555H60.0781Z" fill="#FFD441"/>
<path d="M39.3095 117.213C39.3095 117.213 39.2488 117.213 39.2184 117.213C38.8085 117.152 38.5048 116.769 38.5656 116.355L39.5069 108.932C37.8368 106.325 31.3689 96.111 31.2626 93.8566C31.1563 91.5102 40.8126 73.1529 42.7409 69.4876C42.9382 69.1195 43.3937 68.9815 43.7733 69.1655C44.1377 69.3649 44.2895 69.825 44.0921 70.2084C38.6111 80.5602 32.7961 92.3383 32.7961 93.7799C32.8568 95.0988 37.0473 102.261 40.9493 108.334L41.1011 108.564L40.0838 116.554C40.0383 116.937 39.7043 117.229 39.3247 117.229L39.3095 117.213Z" fill="#613182"/>
</g>
<defs>
<clipPath id="clip0_622_85770">
<rect width="110" height="136" fill="white"/>
</clipPath>
</defs>
</svg>
