<svg width="176" height="158" viewBox="0 0 176 158" fill="none" xmlns="http://www.w3.org/2000/svg">
<g clip-path="url(#clip0_428_85580)">
<path d="M44.7128 151.187C44.2404 151.187 43.8091 150.858 43.7064 150.386C43.5831 149.832 43.9323 149.278 44.4869 149.155L58.6383 146.036C58.0427 143.204 56.5433 135.118 57.4471 129.023C58.5151 121.676 67.7372 106.838 68.1274 106.223C68.4355 105.751 69.0722 105.587 69.5446 105.894C70.017 106.202 70.1813 106.838 69.8733 107.31C69.7706 107.454 60.4869 122.394 59.4804 129.331C58.4535 136.308 60.836 146.487 60.8771 146.59L61.1236 147.595L44.9387 151.146C44.9387 151.146 44.795 151.166 44.7128 151.166V151.187Z" fill="#FFD441"/>
<path d="M90.3725 158C90.126 158 89.8795 157.918 89.6742 157.733L79.651 148.416L80.1029 147.698C80.1029 147.698 83.5946 142.034 85.2993 132.758C86.9835 123.687 77.3712 109.465 77.2685 109.321C76.9399 108.849 77.0631 108.213 77.5355 107.905C78.0079 107.598 78.6446 107.7 78.9527 108.172C79.3635 108.788 89.1401 123.235 87.3122 133.148C85.8539 140.967 83.2865 146.22 82.2595 148.067L91.0708 156.256C91.4816 156.645 91.5021 157.282 91.1119 157.713C90.9065 157.938 90.6395 158.041 90.352 158.041L90.3725 158Z" fill="#FFD441"/>
<path d="M118.039 81.9039C116.868 81.9039 115.636 81.3703 114.362 80.3032C109.207 76.014 105.962 70.1037 103.107 64.8705C100.622 60.3351 98.2802 56.0665 95.1582 53.727C94.7064 53.3781 94.6037 52.7419 94.9528 52.2904C95.302 51.839 95.9387 51.7569 96.3906 52.0852C99.8617 54.6915 102.306 59.1654 104.894 63.8855C107.81 69.2007 110.809 74.6801 115.656 78.723C117.505 80.2621 118.47 79.8106 118.799 79.667C122.414 78.0457 124.139 65.6504 124.365 58.2213V57.4825L136.216 54.1169C136.75 53.9733 137.325 54.2811 137.489 54.8147C137.654 55.3688 137.325 55.9229 136.791 56.087L126.398 59.0422C126.213 63.1056 125.166 79.0718 119.641 81.555C119.127 81.7808 118.573 81.9039 118.039 81.9039Z" fill="#FFD441"/>
<path d="M83.8676 39.1624L32.9887 51.8374C28.1678 53.0384 25.2342 57.9168 26.4361 62.7337L39.1217 113.57C40.3236 118.387 45.2061 121.319 50.0269 120.118L100.906 107.443C105.727 106.242 108.66 101.363 107.458 96.5463L94.7729 45.7095C93.5709 40.8926 88.6884 37.9614 83.8676 39.1624Z" fill="#FFD441"/>
<path d="M58.187 112.297C54.6748 112.297 51.4501 109.917 50.5669 106.346L40.9546 67.8051C40.4411 65.7734 40.7698 63.6596 41.8378 61.8536C42.9264 60.0477 44.6311 58.7958 46.6645 58.2828L85.237 48.6784C89.4476 47.6318 93.7197 50.1971 94.7672 54.4041L104.38 92.9447C104.893 94.9764 104.564 97.0902 103.496 98.8961C102.408 100.702 100.703 101.954 98.6696 102.467L60.0971 112.071C59.4604 112.236 58.8237 112.297 58.2075 112.297H58.187ZM87.1472 50.5049C86.6748 50.5049 86.2229 50.5665 85.7505 50.6691L47.178 60.2734C45.6786 60.6428 44.4052 61.5869 43.6042 62.9208C42.8031 64.2547 42.5772 65.8144 42.9469 67.3125L52.5592 105.853C53.3397 108.952 56.4822 110.84 59.5836 110.081L98.1562 100.476C101.258 99.6965 103.147 96.5566 102.387 93.4577L92.7749 54.9172C92.1176 52.2903 89.7556 50.5254 87.1472 50.5254V50.5049Z" fill="#3771C8"/>
<path d="M53.8533 33.533C59.9535 54.9992 26.0433 64.07 20.6004 42.4396C14.5003 20.9735 48.4105 11.9027 53.8533 33.533Z" fill="white"/>
<path d="M36.4165 55.8612C34.7117 55.8612 33.0275 55.656 31.4049 55.2045C25.4075 53.5627 21.197 49.1094 19.5744 42.686C17.7669 36.3241 19.1842 30.3727 23.559 25.9604C28.4678 21.0146 36.2727 18.9213 42.989 20.7683C48.9865 22.4101 53.1764 26.8429 54.8196 33.2663C56.627 39.6487 55.2098 45.6001 50.835 50.0124C47.1174 53.7679 41.7361 55.8612 36.4165 55.8612ZM37.9775 22.1433C33.2124 22.1433 28.3652 24.0313 25.0378 27.397C21.197 31.2551 19.9646 36.5088 21.5667 42.1524C23.0044 47.8781 26.7015 51.7978 31.9595 53.2343C37.998 54.8761 45.0019 53.0086 49.3972 48.5758C53.2381 44.7177 54.4704 39.464 52.8684 33.8204C51.4306 28.1152 47.7541 24.175 42.4961 22.7384C41.0378 22.3485 39.5179 22.1433 37.998 22.1433H37.9775Z" fill="#3771C8"/>
<path d="M88.1736 24.3392C94.2738 45.8054 60.3636 54.8761 54.9208 33.2458C48.8206 11.7796 82.7308 2.70885 88.1736 24.3392Z" fill="white"/>
<path d="M70.7368 46.6673C69.0321 46.6673 67.3479 46.4621 65.7253 46.0106C59.7278 44.3689 55.5173 39.9155 53.8947 33.4921C52.0873 27.1303 53.5045 21.1788 57.8793 16.7666C62.7882 11.8207 70.593 9.72747 77.3093 11.5745C83.3068 13.2162 87.4968 17.649 89.1399 24.0725C90.9473 30.4548 89.5301 36.4063 85.1553 40.8185C81.4377 44.5741 76.0564 46.6673 70.7368 46.6673ZM72.2978 12.9494C67.5327 12.9494 62.6855 14.8375 59.3581 18.2031C55.5173 22.0613 54.2849 27.3149 55.887 32.9585C57.3247 38.6842 61.0218 42.6039 66.2798 44.0405C72.3183 45.6823 79.3222 43.8148 83.7176 39.382C87.5584 35.5033 88.7907 30.2701 87.1887 24.6265C85.7509 18.9214 82.0744 14.9811 76.8164 13.5446C75.3581 13.1547 73.8382 12.9494 72.3183 12.9494H72.2978Z" fill="#3771C8"/>
<path d="M75.4601 27.8897C77.7604 36.1601 69.9761 37.3914 68.2303 29.8187C65.9504 22.4102 73.3034 19.5577 75.4601 27.8897Z" fill="#374C92"/>
<path d="M71.3724 28.9772C71.5572 29.6955 70.366 30.6806 68.6818 31.1321C68.3326 30.2906 68.0656 29.3056 67.9629 28.4231C69.6471 27.9922 71.1875 28.259 71.3724 28.9772Z" fill="white"/>
<path d="M41.1397 37.063C43.4401 45.3334 35.6558 46.5648 33.91 38.9921C31.6301 31.5836 38.9831 28.731 41.1397 37.063Z" fill="#374C92"/>
<path d="M37.0521 38.1711C37.2369 38.8894 36.0457 39.8744 34.3614 40.3259C34.0123 39.4845 33.7453 38.4994 33.6426 37.617C35.3268 37.186 36.8672 37.4528 37.0521 38.1711Z" fill="white"/>
<path d="M58.003 66.2249L63.9799 64.7268L70.7578 91.8776L87.5999 87.6706L88.8733 92.7395L66.0338 98.4447L57.9824 66.2454L58.003 66.2249Z" fill="#374C92"/>
<path d="M10.7415 103.883L0.49245 97.5622C-0.000490038 97.2543 -0.144264 96.6387 0.163823 96.1461C0.47191 95.6741 1.08808 95.51 1.58102 95.8178L10.8031 101.502C28.9186 91.1387 38.0791 63.8648 38.1613 63.598C38.3461 63.0644 38.9212 62.7566 39.4552 62.9413C39.9892 63.126 40.2768 63.7006 40.1125 64.2342C39.7222 65.404 30.4385 93.0883 11.2755 103.596L10.7415 103.883Z" fill="#FFD441"/>
<path d="M126.212 48.7402C128.04 47.0574 131.12 42.0295 130.484 40.0389C128.861 34.8878 127.3 29.7162 125.76 24.5446C125.205 22.6771 123.952 21.3842 122.515 20.1939C120.522 18.5316 118.53 16.8488 116.538 15.166C116.23 14.9197 116.188 14.694 116.353 14.3451C117.092 12.6007 118.509 11.8209 120.317 11.6978C122.946 11.5131 125.308 12.375 127.567 13.6063C129.847 14.8582 131.49 16.7462 132.989 18.819C134.633 21.1174 136.337 23.3749 138.083 25.7349L138.72 25.0987C143.013 20.7686 147.326 16.4384 151.618 12.0877C152.604 11.0821 153.755 10.4254 155.192 10.3638C157.842 10.2612 159.896 12.2929 159.793 14.9197C159.752 15.7817 159.608 16.6641 159.506 17.5876C160.224 17.3824 160.902 17.1977 161.601 17.013C163.531 16.5205 165.174 16.972 166.427 18.5522C167.618 20.0503 167.721 21.6921 166.9 23.4159C166.633 23.9905 166.325 24.5652 165.975 25.2629C166.694 25.3655 167.372 25.4476 168.029 25.5502C170.083 25.8786 171.541 27.2946 171.87 29.2647C172.096 30.6397 171.685 31.8505 170.864 32.9587C170.556 33.3692 170.289 33.7796 169.939 34.2721C170.494 34.4568 170.966 34.6415 171.48 34.7441C175.156 35.6266 176.245 39.9362 173.493 42.6452C167.701 48.3708 161.991 54.2197 156.24 60.0069C154.556 61.7102 152.563 62.7363 150.181 63.0031C149.708 63.0647 149.215 63.1468 148.784 63.352C148.476 63.4957 142.335 70.4732 142.129 70.3501" fill="white"/>
<path d="M142.068 71.4171C141.883 71.4171 141.739 71.335 141.534 71.2119L142.068 70.3294L141.534 69.4675C141.904 69.1802 143.896 66.9843 145.231 65.5478C147.963 62.531 148.024 62.531 148.312 62.3874C148.784 62.1822 149.339 62.0385 150.017 61.9564C152.112 61.7307 153.899 60.8482 155.46 59.268L160.409 54.2606C164.497 50.1151 168.584 45.9902 172.712 41.8857C173.76 40.8391 174.171 39.4436 173.822 38.1507C173.472 36.9194 172.507 36.0164 171.172 35.7086C170.802 35.6265 170.453 35.5034 170.063 35.3802L168.235 34.7851L169.344 33.1844C169.57 32.8765 169.755 32.5892 169.981 32.3019C170.7 31.3374 170.967 30.4139 170.802 29.3878C170.556 27.8486 169.426 26.7815 167.804 26.5147C167.352 26.4326 166.879 26.371 166.407 26.3094L164.353 26.0221L165.339 24.0931C165.544 23.6826 165.75 23.3132 165.935 22.9233C166.612 21.5278 166.489 20.2759 165.585 19.1472C164.62 17.9364 163.429 17.5465 161.827 17.9775C161.375 18.1006 160.923 18.2237 160.451 18.3468L158.273 18.942L158.561 16.5204C158.643 15.9458 158.705 15.3917 158.746 14.817C158.787 13.832 158.458 12.929 157.801 12.2928C157.144 11.6361 156.199 11.2872 155.213 11.3283C154.145 11.3693 153.241 11.8208 152.317 12.7443L137.94 27.2535L135.66 24.1751C134.469 22.5539 133.277 20.9737 132.127 19.373C130.854 17.6286 129.272 15.6584 127.054 14.4476C124.528 13.0727 122.474 12.5186 120.379 12.6622C118.9 12.7648 117.935 13.3394 117.38 14.4887C118.325 15.2685 119.249 16.0689 120.194 16.8487C121.18 17.6901 122.186 18.5315 123.172 19.3524C124.569 20.5017 126.068 21.9998 126.746 24.1957C128.286 29.3672 129.847 34.5388 131.47 39.6899C132.312 42.3783 128.718 47.7961 126.91 49.4584L125.513 47.9398C127.362 46.2364 129.929 41.619 129.519 40.285C127.896 35.134 126.335 29.9419 124.795 24.7703C124.281 23.0875 123.09 21.9177 121.878 20.9121C120.872 20.0707 119.886 19.2293 118.879 18.3879C117.893 17.5465 116.887 16.7051 115.901 15.8842C115.264 15.3506 115.1 14.6323 115.429 13.873C116.271 11.9029 117.935 10.7742 120.255 10.61C123.501 10.3637 126.253 11.6566 128.06 12.6417C130.648 14.0577 132.415 16.2331 133.811 18.1622C134.961 19.7629 136.132 21.3431 137.323 22.9438L138.186 24.0931L150.879 11.2872C152.153 9.99434 153.549 9.33763 155.151 9.25554C156.712 9.17345 158.191 9.74807 159.259 10.8152C160.327 11.8824 160.882 13.3189 160.8 14.8786C160.8 15.289 160.738 15.6995 160.697 16.1099C160.902 16.0484 161.108 16.0073 161.313 15.9458C163.696 15.3506 165.729 15.9868 167.187 17.8338C168.584 19.5987 168.789 21.6509 167.783 23.7647C167.701 23.9494 167.598 24.1546 167.496 24.3393C167.721 24.3804 167.927 24.4009 168.153 24.4419C170.638 24.8318 172.445 26.5968 172.836 28.9978C173.082 30.5575 172.692 32.0556 171.644 33.4717C171.603 33.5127 171.562 33.5743 171.542 33.6153C171.583 33.6153 171.624 33.6358 171.665 33.6564C173.719 34.1489 175.259 35.606 175.814 37.5556C176.368 39.5667 175.752 41.7216 174.171 43.2813C170.042 47.3652 165.955 51.4901 161.868 55.6356L156.918 60.643C155.028 62.531 152.789 63.6392 150.243 63.9265C149.852 63.9676 149.524 64.0497 149.257 64.1318C148.887 64.4806 147.716 65.7735 146.751 66.8407C143.444 70.4526 142.643 71.335 142.089 71.335L142.068 71.4171Z" fill="#FFD441"/>
<path d="M122.051 44.061L109.374 56.8473C108.648 57.5801 108.653 58.7625 109.386 59.4884L133.171 83.0301C133.904 83.756 135.088 83.7504 135.814 83.0177L148.491 70.2314C149.217 69.4987 149.212 68.3162 148.478 67.5904L124.694 44.0486C123.961 43.3227 122.777 43.3283 122.051 44.061Z" fill="#FFD441"/>
<path d="M134.49 84.6129C133.73 84.6129 133.011 84.3256 132.457 83.7715L108.652 60.2121C108.097 59.6785 107.789 58.9397 107.789 58.1804C107.789 57.4006 108.077 56.6823 108.631 56.1282L121.324 43.3224C122.454 42.1937 124.282 42.1937 125.412 43.3224L149.217 66.8818C149.771 67.4154 150.079 68.1542 150.079 68.9135C150.079 69.6933 149.792 70.4116 149.237 70.9657L136.544 83.7715C136.01 84.3256 135.27 84.6335 134.51 84.6335L134.49 84.6129ZM123.378 44.5332C123.173 44.5332 122.947 44.6153 122.783 44.7794L110.089 57.5853C109.925 57.7494 109.843 57.9547 109.843 58.1804C109.843 58.4061 109.925 58.6114 110.089 58.7755L133.894 82.335C134.059 82.4991 134.264 82.5812 134.49 82.5812C134.716 82.5812 134.921 82.4991 135.086 82.335L147.779 69.5292C147.943 69.365 148.025 69.1597 148.025 68.934C148.025 68.7083 147.943 68.503 147.779 68.3389L123.974 44.7794C123.81 44.6153 123.604 44.5332 123.378 44.5332Z" fill="#FFD441"/>
<path d="M44.4258 53.9323L71.1883 46.7495C71.1883 46.7495 71.7839 59.3296 62.6646 62.6337C53.5452 65.9172 44.4258 53.9323 44.4258 53.9323Z" fill="#374C92"/>
<path d="M143.363 62.572C143.363 62.572 144.924 59.2885 147.738 58.6523C150.551 58.0161 167.394 43.5685 167.168 41.7625C166.942 39.9566 163.245 40.0592 162.67 38.8279C162.094 37.5965 165.052 34.1078 164.456 32.7944C163.861 31.4809 159.322 32.1582 158.972 31.3783C158.623 30.5985 161.355 26.8224 160.369 25.4269C159.383 24.0314 155.049 26.8429 154.166 26.0015C153.283 25.1601 155.584 20.6042 154.29 19.7833C152.996 18.9624 150.449 20.4606 148.025 23.6004C145.601 26.7403 140.672 33.2869 138.7 33.2664C136.729 33.2458 132.826 24.8728 131.306 22.287C130.094 20.2143 126.192 15.6379 124.775 16.1509C123.358 16.664 129.293 23.6415 131.388 30.4343C133.483 37.2271 134.983 41.1879 134.264 43.4248C133.545 45.6618 130.957 50.3203 130.957 50.3203L143.363 62.613V62.572Z" fill="#374C92"/>
<path d="M135.272 10.5689C134.881 10.5689 134.512 10.3431 134.327 9.97373C132.478 5.84878 124.817 6.01296 124.735 6.03348C124.18 6.03348 123.688 5.60251 123.688 5.02789C123.688 4.45327 124.119 3.98126 124.673 3.98126C125.043 3.98126 133.772 3.77604 136.196 9.13232C136.422 9.64538 136.196 10.261 135.682 10.4868C135.539 10.5484 135.395 10.5689 135.272 10.5689Z" fill="#FFD441"/>
<path d="M134.08 2.89364C133.772 2.89364 133.464 2.74998 133.258 2.48319C133.094 2.25745 132.149 2.03171 131.369 2.03171C130.794 2.03171 130.342 1.58022 130.342 1.0056C130.342 0.430979 130.794 -0.0205078 131.369 -0.0205078C131.821 -0.0205078 133.998 0.0205366 134.901 1.23134C135.251 1.68283 135.148 2.31902 134.696 2.66789C134.511 2.81155 134.285 2.87311 134.08 2.87311V2.89364Z" fill="#FFD441"/>
<path d="M118.14 31.6863C118.14 31.6863 117.935 31.6863 117.832 31.6453C113.067 30.1472 111.26 25.6733 111.219 24.6677C111.219 24.0931 111.65 23.6211 112.205 23.6006C112.8 23.6006 113.211 24.011 113.252 24.5446C113.375 25.1603 114.751 28.5259 118.428 29.6751C118.962 29.8393 119.27 30.4139 119.106 30.968C118.962 31.399 118.572 31.6863 118.12 31.6863H118.14Z" fill="#FFD441"/>
</g>
<defs>
<clipPath id="clip0_428_85580">
<rect width="176" height="158" fill="white"/>
</clipPath>
</defs>
</svg>
