<svg width="40" height="40" viewBox="0 0 40 40" fill="none" xmlns="http://www.w3.org/2000/svg">
<rect width="40" height="40" rx="8" fill="#602B7A"/>
<path d="M19.9997 7.63501C12.8955 7.63501 7.08301 13.4346 7.08301 20.5775C7.08301 27.0358 11.8105 32.3963 17.9847 33.365V24.3233H14.7038V20.5775H17.9847V17.7229C17.9847 14.4808 19.9093 12.6983 22.8672 12.6983C24.2751 12.6983 25.7476 12.9438 25.7476 12.9438V16.1342H24.1201C22.5184 16.1342 22.0147 17.1288 22.0147 18.1492V20.5775H25.6055L25.0243 24.3233H22.0147V33.365C25.0584 32.8843 27.83 31.3313 29.8292 28.9863C31.8283 26.6414 32.9233 23.659 32.9163 20.5775C32.9163 13.4346 27.1038 7.63501 19.9997 7.63501Z" fill="white"/>
</svg>
