<svg width="18" height="18" viewBox="0 0 18 18" fill="none" xmlns="http://www.w3.org/2000/svg">
<path d="M2.38664 9.60608C3.17489 10.9598 5.39639 14.1076 9.00014 14.1076C12.6099 14.1076 14.8276 10.9583 15.6151 9.60608C15.7225 9.42226 15.7789 9.2132 15.7788 9.00035C15.7787 8.7875 15.7219 8.57852 15.6144 8.39483C14.8269 7.04183 12.6069 3.89258 9.00014 3.89258C5.39339 3.89258 3.17414 7.04033 2.38664 8.39333C2.27894 8.57726 2.22217 8.78656 2.22217 8.9997C2.22217 9.21285 2.27894 9.42215 2.38664 9.60608Z" stroke="#858585" stroke-width="1.5" stroke-linejoin="round"/>
<path d="M9 10.9688C9.52214 10.9687 10.0229 10.7613 10.3921 10.3921C10.7613 10.0229 10.9687 9.52214 10.9688 9C10.9687 8.47786 10.7613 7.9771 10.3921 7.60788C10.0229 7.23867 9.52214 7.03125 9 7.03125C8.47786 7.03125 7.9771 7.23867 7.60788 7.60788C7.23867 7.9771 7.03125 8.47786 7.03125 9C7.03125 9.52214 7.23867 10.0229 7.60788 10.3921C7.9771 10.7613 8.47786 10.9687 9 10.9688Z" stroke="#858585" stroke-width="1.5" stroke-linejoin="round"/>
</svg>
