<svg width="18" height="18" viewBox="0 0 18 18" fill="none" xmlns="http://www.w3.org/2000/svg">
<path d="M9.00007 1.5C5.69257 1.5 3.00007 4.1925 3.00007 7.5C2.97757 12.33 8.34007 16.2 8.56507 16.365C8.69257 16.455 8.85007 16.5075 9.00007 16.5075C9.15007 16.5075 9.30757 16.4625 9.43507 16.365C9.66007 16.2 15.0226 12.3375 15.0001 7.5C15.0001 4.1925 12.3076 1.5 9.00007 1.5ZM9.00007 10.5C7.34257 10.5 6.00007 9.1575 6.00007 7.5C6.00007 5.8425 7.34257 4.5 9.00007 4.5C10.6576 4.5 12.0001 5.8425 12.0001 7.5C12.0001 9.1575 10.6576 10.5 9.00007 10.5Z" fill="#602B7A"/>
</svg>
