<svg width="20" height="20" viewBox="0 0 20 20" fill="none" xmlns="http://www.w3.org/2000/svg">
<path d="M13.535 14.596C12.2346 15.6259 10.5895 16.1197 8.93682 15.9761C7.28412 15.8324 5.74888 15.0624 4.64555 13.8235C3.54222 12.5847 2.9543 10.9709 3.00223 9.31269C3.05015 7.65446 3.73029 6.0773 4.90332 4.90427C6.07636 3.73123 7.65351 3.0511 9.31174 3.00317C10.97 2.95525 12.5838 3.54316 13.8226 4.6465C15.0614 5.74983 15.8315 7.28507 15.9751 8.93776C16.1187 10.5905 15.625 12.2355 14.5951 13.536L18.0301 16.97C18.163 17.104 18.2405 17.2832 18.2472 17.4719C18.2538 17.6605 18.1891 17.8447 18.0659 17.9877C17.9427 18.1308 17.7701 18.2221 17.5825 18.2434C17.395 18.2648 17.2063 18.2146 17.0541 18.103L16.97 18.03L13.535 14.596ZM14.5001 9.5C14.5001 8.17391 13.9733 6.90214 13.0356 5.96446C12.0979 5.02678 10.8261 4.49999 9.50005 4.49999C8.17397 4.49999 6.9022 5.02678 5.96451 5.96446C5.02683 6.90214 4.50005 8.17391 4.50005 9.5C4.50005 10.8261 5.02683 12.0978 5.96451 13.0355C6.9022 13.9732 8.17397 14.5 9.50005 14.5C10.8261 14.5 12.0979 13.9732 13.0356 13.0355C13.9733 12.0978 14.5001 10.8261 14.5001 9.5Z" fill="#858585"/>
</svg>
