<svg width="32" height="32" viewBox="0 0 32 32" fill="none" xmlns="http://www.w3.org/2000/svg">
<mask id="mask0_428_83849" style="mask-type:luminance" maskUnits="userSpaceOnUse" x="0" y="0" width="32" height="32">
<path d="M16 31C17.9702 31.0024 19.9214 30.6156 21.7416 29.8616C23.5618 29.1076 25.2151 28.0014 26.6065 26.6065C28.0014 25.2151 29.1076 23.5618 29.8616 21.7416C30.6156 19.9214 31.0024 17.9702 31 16C31.0024 14.0298 30.6156 12.0786 29.8616 10.2584C29.1076 8.43818 28.0014 6.78489 26.6065 5.39351C25.2151 3.99863 23.5618 2.89243 21.7416 2.13845C19.9214 1.38447 17.9702 0.997582 16 1.00001C14.0298 0.997582 12.0786 1.38447 10.2584 2.13845C8.43818 2.89243 6.78489 3.99863 5.39351 5.39351C3.99863 6.78489 2.89243 8.43818 2.13845 10.2584C1.38447 12.0786 0.997582 14.0298 1.00001 16C0.997582 17.9702 1.38447 19.9214 2.13845 21.7416C2.89243 23.5618 3.99863 25.2151 5.39351 26.6065C6.78489 28.0014 8.43818 29.1076 10.2584 29.8616C12.0786 30.6156 14.0298 31.0024 16 31Z" fill="white" stroke="white" stroke-width="2" stroke-linejoin="round"/>
<path d="M10 16L14.5 20.5L23.5 11.5" stroke="black" stroke-width="2" stroke-linecap="round" stroke-linejoin="round"/>
</mask>
<g mask="url(#mask0_428_83849)">
<path d="M-2 -2H34V34H-2V-2Z" fill="#374C92"/>
</g>
</svg>
