<svg xmlns="http://www.w3.org/2000/svg" xmlns:xlink="http://www.w3.org/1999/xlink"><defs>
<radialGradient id="paint0_radial_2392_245" cx="0" cy="0" r="1" gradientUnits="userSpaceOnUse" gradientTransform="translate(7.78125 22.3864) rotate(-90) scale(17.8393 16.592)">
<stop stop-color="#FFDD55"/>
<stop offset="0.1" stop-color="#FFDD55"/>
<stop offset="0.5" stop-color="#FF543E"/>
<stop offset="1" stop-color="#C837AB"/>
</radialGradient>
<radialGradient id="paint1_radial_2392_245" cx="0" cy="0" r="1" gradientUnits="userSpaceOnUse" gradientTransform="translate(-0.0150599 4.29667) rotate(78.68) scale(7.97428 32.8703)">
<stop stop-color="#3771C8"/>
<stop offset="0.128" stop-color="#3771C8"/>
<stop offset="1" stop-color="#6600FF" stop-opacity="0"/>
</radialGradient>
</defs><symbol id="Facebook-filed" viewBox="0 0 40 40">
<rect width="40" height="40" rx="8" fill="#602B7A"/>
<path d="M19.9997 7.63501C12.8955 7.63501 7.08301 13.4346 7.08301 20.5775C7.08301 27.0358 11.8105 32.3963 17.9847 33.365V24.3233H14.7038V20.5775H17.9847V17.7229C17.9847 14.4808 19.9093 12.6983 22.8672 12.6983C24.2751 12.6983 25.7476 12.9438 25.7476 12.9438V16.1342H24.1201C22.5184 16.1342 22.0147 17.1288 22.0147 18.1492V20.5775H25.6055L25.0243 24.3233H22.0147V33.365C25.0584 32.8843 27.83 31.3313 29.8292 28.9863C31.8283 26.6414 32.9233 23.659 32.9163 20.5775C32.9163 13.4346 27.1038 7.63501 19.9997 7.63501Z" fill="white"/>
</symbol><symbol id="Facebook" viewBox="0 0 46 46">
<rect width="46" height="46" rx="12" fill="white"/>
<path d="M23 8.06006C14.75 8.06006 8 14.7951 8 23.0901C8 30.5901 13.49 36.8151 20.66 37.9401V27.4401H16.85V23.0901H20.66V19.7751C20.66 16.0101 22.895 13.9401 26.33 13.9401C27.965 13.9401 29.675 14.2251 29.675 14.2251V17.9301H27.785C25.925 17.9301 25.34 19.0851 25.34 20.2701V23.0901H29.51L28.835 27.4401H25.34V37.9401C28.8747 37.3818 32.0933 35.5783 34.4149 32.8551C36.7365 30.132 38.008 26.6685 38 23.0901C38 14.7951 31.25 8.06006 23 8.06006Z" fill="#602B7A"/>
</symbol><symbol id="Instagram-filled" viewBox="0 0 40 40">
<rect width="40" height="40" rx="8" fill="#602B7A"/>
<path d="M20 15.9856C17.5006 15.9856 15.4856 18.02 15.4856 20.5C15.4856 22.98 17.52 25.0144 20 25.0144C22.48 25.0144 24.5144 22.98 24.5144 20.5C24.5144 18.02 22.48 15.9856 20 15.9856ZM33.5625 20.5C33.5625 18.6206 33.5625 16.78 33.4656 14.9006C33.3687 12.7306 32.865 10.7931 31.2762 9.22375C29.6875 7.635 27.7694 7.13125 25.5994 7.03437C23.72 6.9375 21.8794 6.9375 20 6.9375C18.1206 6.9375 16.28 6.9375 14.4006 7.03437C12.2306 7.13125 10.2931 7.635 8.72375 9.22375C7.135 10.8125 6.63125 12.7306 6.53437 14.9006C6.4375 16.78 6.4375 18.6206 6.4375 20.5C6.4375 22.3794 6.4375 24.22 6.53437 26.0994C6.63125 28.2694 7.135 30.2069 8.72375 31.7762C10.3125 33.365 12.2306 33.8687 14.4006 33.9656C16.28 34.0625 18.1206 34.0625 20 34.0625C21.8794 34.0625 23.72 34.0625 25.5994 33.9656C27.7694 33.8687 29.7069 33.365 31.2762 31.7762C32.865 30.1875 33.3687 28.2694 33.4656 26.0994C33.5819 24.2394 33.5625 22.3794 33.5625 20.5ZM20 27.4556C16.1444 27.4556 13.0444 24.3556 13.0444 20.5C13.0444 16.6444 16.1444 13.5444 20 13.5444C23.8556 13.5444 26.9556 16.6444 26.9556 20.5C26.9556 24.3556 23.8556 27.4556 20 27.4556ZM27.2462 14.8812C26.355 14.8812 25.6187 14.1644 25.6187 13.2538C25.6187 12.3431 26.3356 11.6263 27.2462 11.6263C28.1569 11.6263 28.8737 12.3431 28.8737 13.2538C28.8787 13.466 28.8399 13.6769 28.7599 13.8736C28.6799 14.0702 28.5604 14.2483 28.4087 14.3969C28.2602 14.5485 28.0821 14.6681 27.8855 14.748C27.6888 14.828 27.4778 14.8668 27.2656 14.8619L27.2462 14.8812Z" fill="white"/>
</symbol><symbol id="Instagram" viewBox="0 0 46 46">
<rect width="46" height="46" rx="12" fill="white"/>
<path d="M23 17.7575C20.0975 17.7575 17.7575 20.12 17.7575 23C17.7575 25.88 20.12 28.2425 23 28.2425C25.88 28.2425 28.2425 25.88 28.2425 23C28.2425 20.12 25.88 17.7575 23 17.7575ZM38.75 23C38.75 20.8175 38.75 18.68 38.6375 16.4975C38.525 13.9775 37.94 11.7275 36.095 9.905C34.25 8.06 32.0225 7.475 29.5025 7.3625C27.32 7.25 25.1825 7.25 23 7.25C20.8175 7.25 18.68 7.25 16.4975 7.3625C13.9775 7.475 11.7275 8.06 9.905 9.905C8.06 11.75 7.475 13.9775 7.3625 16.4975C7.25 18.68 7.25 20.8175 7.25 23C7.25 25.1825 7.25 27.32 7.3625 29.5025C7.475 32.0225 8.06 34.2725 9.905 36.095C11.75 37.94 13.9775 38.525 16.4975 38.6375C18.68 38.75 20.8175 38.75 23 38.75C25.1825 38.75 27.32 38.75 29.5025 38.6375C32.0225 38.525 34.2725 37.94 36.095 36.095C37.94 34.25 38.525 32.0225 38.6375 29.5025C38.7725 27.3425 38.75 25.1825 38.75 23ZM23 31.0775C18.5225 31.0775 14.9225 27.4775 14.9225 23C14.9225 18.5225 18.5225 14.9225 23 14.9225C27.4775 14.9225 31.0775 18.5225 31.0775 23C31.0775 27.4775 27.4775 31.0775 23 31.0775ZM31.415 16.475C30.38 16.475 29.525 15.6425 29.525 14.585C29.525 13.5275 30.3575 12.695 31.415 12.695C32.4725 12.695 33.305 13.5275 33.305 14.585C33.3107 14.8315 33.2657 15.0765 33.1728 15.3048C33.0799 15.5332 32.9411 15.74 32.765 15.9125C32.5925 16.0886 32.3857 16.2274 32.1573 16.3203C31.929 16.4132 31.684 16.4582 31.4375 16.4525L31.415 16.475Z" fill="#602B7A"/>
</symbol><symbol id="Telegram-filled" viewBox="0 0 40 40">
<rect width="40" height="40" rx="8" fill="#602B7A"/>
<path fill-rule="evenodd" clip-rule="evenodd" d="M30.0452 10.7221C30.3644 10.5878 30.7138 10.5414 31.057 10.5879C31.4002 10.6344 31.7246 10.772 31.9966 10.9865C32.2685 11.2009 32.478 11.4843 32.6032 11.8072C32.7285 12.1301 32.7649 12.4806 32.7087 12.8223L29.7792 30.5918C29.495 32.3059 27.6143 33.2888 26.0424 32.435C24.7275 31.7207 22.7745 30.6202 21.0178 29.4719C20.1395 28.8971 17.4489 27.0565 17.7796 25.7468C18.0638 24.6269 22.5846 20.4186 25.1679 17.9167C26.1819 16.9337 25.7195 16.3667 24.5221 17.2708C21.5487 19.5158 16.7747 22.9296 15.1963 23.8906C13.8038 24.738 13.0779 24.8826 12.2099 24.738C10.6263 24.4745 9.15771 24.0663 7.95904 23.569C6.33929 22.8974 6.41808 20.6705 7.95775 20.0221L30.0452 10.7221Z" fill="white"/>
</symbol><symbol id="Threads-filled" viewBox="0 0 40 40">
<rect width="40" height="40" rx="8" fill="#602B7A"/>
<path d="M17.1196 15.9985C20 13.658 24.1514 14.9071 24.641 18.7562C25.1615 22.8418 24.1243 26.08 20.0943 26.08C16.3549 26.08 16.4699 22.825 16.4699 22.825C16.4699 19.3375 22.3973 18.8725 25.85 20.6162C32.1791 24.685 27.5756 32.125 20.6704 32.125C14.9496 32.125 10.3125 29.2187 10.3125 20.5C10.3125 11.7812 14.9496 8.875 20.6717 8.875C24.7081 8.875 28.3493 10.9753 29.6875 15.177" stroke="white" stroke-width="3" stroke-linecap="round" stroke-linejoin="round"/>
</symbol><symbol id="Youtube-filled" viewBox="0 0 40 40">
<rect width="40" height="40" rx="8" fill="#602B7A"/>
<path fill-rule="evenodd" clip-rule="evenodd" d="M33.6145 13.2925C33.4531 12.6884 33.1363 12.1371 32.6955 11.6936C32.2547 11.25 31.7053 10.9298 31.1022 10.7647C28.887 10.1667 20.0003 10.1667 20.0003 10.1667C20.0003 10.1667 11.1137 10.1667 8.89845 10.7647C8.29532 10.9298 7.74598 11.25 7.30518 11.6936C6.86438 12.1371 6.54751 12.6884 6.38616 13.2925C5.79199 15.5245 5.79199 20.1771 5.79199 20.1771C5.79199 20.1771 5.79199 24.8297 6.38616 27.0617C6.54731 27.6661 6.86409 28.2176 7.3049 28.6614C7.74572 29.1052 8.29516 29.4256 8.89845 29.5908C11.115 30.1875 20.0003 30.1875 20.0003 30.1875C20.0003 30.1875 28.887 30.1875 31.1022 29.5908C31.7055 29.4256 32.2549 29.1052 32.6957 28.6614C33.1366 28.2176 33.4533 27.6661 33.6145 27.0617C34.2087 24.8323 34.2087 20.1771 34.2087 20.1771C34.2087 20.1771 34.2087 15.5245 33.6145 13.2925ZM17.0941 15.9521V24.4021L24.5212 20.1771L17.0941 15.9521Z" fill="white"/>
</symbol><symbol id="arrow-agile" viewBox="0 0 24 24">
<mask id="mask0_478_1883" style="mask-type:alpha" maskUnits="userSpaceOnUse" x="0" y="0" width="24" height="24">
<rect x="24" width="24" height="24" transform="rotate(90 24 0)" fill="#D9D9D9"/>
</mask>
<g mask="url(#mask0_478_1883)">
<path d="M2 8.025L3.775 6.25L12 14.475L20.225 6.25L22 8.025L12 18.025L2 8.025Z" fill="#1C1B1F"/>
</g>
</symbol><symbol id="arrow-right" viewBox="0 0 20 20">
<path fill-rule="evenodd" clip-rule="evenodd" d="M15.4166 10.1781C15.4166 9.95705 15.3288 9.74508 15.1726 9.5888C15.0163 9.43252 14.8043 9.34473 14.5833 9.34473H4.16665C3.94563 9.34473 3.73367 9.43252 3.57739 9.5888C3.42111 9.74508 3.33331 9.95705 3.33331 10.1781C3.33331 10.3991 3.42111 10.611 3.57739 10.7673C3.73367 10.9236 3.94563 11.0114 4.16665 11.0114H14.5833C14.8043 11.0114 15.0163 10.9236 15.1726 10.7673C15.3288 10.611 15.4166 10.3991 15.4166 10.1781Z" fill="currentcolor"/>
<path fill-rule="evenodd" clip-rule="evenodd" d="M16.6667 10.1785C16.6666 9.95754 16.5788 9.74561 16.4225 9.58937L12.6725 5.83937C12.5956 5.75978 12.5037 5.69629 12.402 5.65262C12.3003 5.60894 12.191 5.58595 12.0803 5.58499C11.9697 5.58403 11.8599 5.60512 11.7575 5.64702C11.6551 5.68892 11.5621 5.75079 11.4838 5.82904C11.4056 5.90728 11.3437 6.00033 11.3018 6.10274C11.2599 6.20515 11.2388 6.31489 11.2398 6.42554C11.2407 6.53618 11.2637 6.64553 11.3074 6.7472C11.3511 6.84887 11.4146 6.94083 11.4942 7.0177L14.655 10.1785L11.4942 13.3394C11.3378 13.4956 11.2499 13.7076 11.2498 13.9287C11.2497 14.1497 11.3375 14.3617 11.4937 14.5181C11.65 14.6745 11.862 14.7624 12.083 14.7625C12.3041 14.7625 12.5161 14.6748 12.6725 14.5185L16.4225 10.7685C16.5 10.6911 16.5614 10.5991 16.6033 10.4978C16.6452 10.3966 16.6667 10.2881 16.6667 10.1785Z" fill="currentcolor"/>
</symbol><symbol id="close" viewBox="0 0 30 30">
<path d="M8.16291 6.83709C7.7968 6.47097 7.2032 6.47097 6.83709 6.83709C6.47097 7.2032 6.47097 7.7968 6.83709 8.16291L13.6742 15L6.83709 21.8371C6.47097 22.2032 6.47097 22.7968 6.83709 23.1629C7.2032 23.529 7.7968 23.529 8.16291 23.1629L15 16.3258L21.8371 23.1629C22.2032 23.529 22.7968 23.529 23.1629 23.1629C23.529 22.7968 23.529 22.2032 23.1629 21.8371L16.3258 15L23.1629 8.16291C23.529 7.7968 23.529 7.2032 23.1629 6.83709C22.7968 6.47097 22.2032 6.47097 21.8371 6.83709L15 13.6742L8.16291 6.83709Z" fill="currentColor"/>
</symbol><symbol id="empty-stars" viewBox="0 0 123 24">
<path d="M12.0245 3.08156C12.1741 2.6209 12.8259 2.62091 12.9755 3.08156L14.4941 7.75532C14.6949 8.37336 15.2709 8.7918 15.9207 8.7918H20.835C21.3194 8.7918 21.5207 9.4116 21.1289 9.6963L17.1531 12.5848C16.6274 12.9668 16.4074 13.6439 16.6082 14.2619L18.1268 18.9357C18.2765 19.3963 17.7493 19.7794 17.3574 19.4947L13.3817 16.6061C12.8559 16.2242 12.1441 16.2242 11.6183 16.6061L7.64258 19.4947C7.25073 19.7794 6.72349 19.3963 6.87316 18.9357L8.39176 14.2619C8.59257 13.6439 8.37258 12.9668 7.84685 12.5848L3.87111 9.6963C3.47926 9.4116 3.68064 8.7918 4.16501 8.7918H9.07929C9.72913 8.7918 10.3051 8.37336 10.5059 7.75532L12.0245 3.08156Z" stroke="#43B94B"/>
<path d="M36.477 3.22764C36.6225 2.75846 37.2866 2.75846 37.4321 3.22764L38.8304 7.73614C39.0251 8.3639 39.6058 8.7918 40.2631 8.7918H44.8836C45.3623 8.7918 45.5673 9.39972 45.1864 9.68966L41.3695 12.5948C40.8681 12.9765 40.6587 13.6309 40.8453 14.2327L42.2842 18.8719C42.4283 19.3366 41.891 19.7126 41.5038 19.4178L37.863 16.6467C37.3263 16.2382 36.5828 16.2382 36.0461 16.6467L32.4053 19.4178C32.0181 19.7126 31.4808 19.3366 31.6249 18.8719L33.0637 14.2327C33.2504 13.6309 33.041 12.9765 32.5396 12.5948L28.7227 9.68966C28.3418 9.39972 28.5468 8.7918 29.0255 8.7918H33.646C34.3033 8.7918 34.884 8.3639 35.0787 7.73614L36.477 3.22764Z" stroke="#43B94B"/>
<path d="M60.9337 3.08156C61.0833 2.6209 61.735 2.62091 61.8847 3.08156L63.4033 7.75532C63.6041 8.37336 64.1801 8.7918 64.8299 8.7918H69.7442C70.2285 8.7918 70.4299 9.4116 70.0381 9.6963L66.0623 12.5848C65.5366 12.9668 65.3166 13.6439 65.5174 14.2619L67.036 18.9357C67.1857 19.3963 66.6585 19.7794 66.2666 19.4947L62.2909 16.6061C61.7651 16.2242 61.0532 16.2242 60.5275 16.6061L56.5518 19.4947C56.1599 19.7794 55.6327 19.3963 55.7823 18.9357L57.3009 14.2619C57.5017 13.6439 57.2818 12.9668 56.756 12.5848L52.7803 9.6963C52.3884 9.4116 52.5898 8.7918 53.0742 8.7918H57.9885C58.6383 8.7918 59.2142 8.37336 59.4151 7.75532L60.9337 3.08156Z" stroke="#43B94B"/>
<path d="M85.3862 3.22764C85.5317 2.75846 86.1958 2.75846 86.3413 3.22764L87.7396 7.73614C87.9343 8.3639 88.515 8.7918 89.1723 8.7918H93.7927C94.2714 8.7918 94.4765 9.39972 94.0956 9.68966L90.2787 12.5948C89.7773 12.9765 89.5679 13.6309 89.7545 14.2327L91.1933 18.8719C91.3375 19.3366 90.8002 19.7126 90.413 19.4178L86.7722 16.6467C86.2355 16.2382 85.492 16.2382 84.9552 16.6467L81.3145 19.4178C80.9273 19.7126 80.3899 19.3366 80.5341 18.8719L81.9729 14.2327C82.1596 13.6309 81.9502 12.9765 81.4487 12.5948L77.6319 9.68966C77.251 9.39972 77.456 8.7918 77.9347 8.7918H82.5552C83.2124 8.7918 83.7932 8.3639 83.9879 7.73614L85.3862 3.22764Z" stroke="#43B94B"/>
<path d="M109.843 3.08156C109.993 2.6209 110.644 2.62091 110.794 3.08156L112.312 7.75532C112.513 8.37336 113.089 8.7918 113.739 8.7918H118.653C119.138 8.7918 119.339 9.4116 118.947 9.6963L114.972 12.5848C114.446 12.9668 114.226 13.6439 114.427 14.2619L115.945 18.9357C116.095 19.3963 115.568 19.7794 115.176 19.4947L111.2 16.6061C110.674 16.2242 109.962 16.2242 109.437 16.6061L105.461 19.4947C105.069 19.7794 104.542 19.3963 104.692 18.9357L106.21 14.2619C106.411 13.6439 106.191 12.9668 105.665 12.5848L101.689 9.6963C101.298 9.4116 101.499 8.7918 101.983 8.7918H106.898C107.547 8.7918 108.123 8.37336 108.324 7.75532L109.843 3.08156Z" stroke="#43B94B"/>
</symbol><symbol id="facebook-color" viewBox="0 0 24 24">
<rect width="24" height="24" rx="6" fill="white"/>
<path d="M21 12C21 7.02947 16.9705 3 12 3C7.02947 3 3 7.02947 3 12C3 16.4921 6.29119 20.2155 10.5938 20.8907V14.6016H8.30859V12H10.5938V10.0172C10.5938 7.76156 11.9374 6.51562 13.9932 6.51562C14.9779 6.51562 16.0078 6.69141 16.0078 6.69141V8.90625H14.873C13.7549 8.90625 13.4062 9.60002 13.4062 10.3118V12H15.9023L15.5033 14.6016H13.4062V20.8907C17.7088 20.2155 21 16.4922 21 12Z" fill="#1877F2"/>
<path d="M15.5033 14.6016L15.9023 12H13.4062V10.3118C13.4062 9.59995 13.7549 8.90625 14.873 8.90625H16.0078V6.69141C16.0078 6.69141 14.9779 6.51562 13.9931 6.51562C11.9374 6.51562 10.5938 7.76156 10.5938 10.0172V12H8.30859V14.6016H10.5938V20.8907C11.059 20.9636 11.5291 21.0001 12 21C12.4709 21.0001 12.941 20.9636 13.4062 20.8907V14.6016H15.5033Z" fill="white"/>
</symbol><symbol id="full-star" viewBox="0 0 19 19">
<path d="M8.90861 1.07953C9.19964 0.141165 10.5278 0.141165 10.8188 1.07952L12.2172 5.58803C12.347 6.00654 12.7341 6.2918 13.1723 6.2918H17.7927C18.7502 6.2918 19.1602 7.50765 18.3984 8.08752L14.5815 10.9927C14.2472 11.2471 14.1076 11.6834 14.2321 12.0846L15.6709 16.7237C15.9592 17.6533 14.8846 18.4052 14.1101 17.8157L10.4694 15.0446C10.1115 14.7722 9.61591 14.7722 9.25807 15.0446L5.61732 17.8157C4.84289 18.4052 3.76824 17.6533 4.05654 16.7237L5.49537 12.0846C5.61982 11.6834 5.4802 11.2471 5.14591 10.9927L1.32906 8.08752C0.567216 7.50765 0.977296 6.2918 1.93472 6.2918H6.55518C6.99335 6.2918 7.38049 6.00653 7.51029 5.58803L8.90861 1.07953Z" fill="#43B94B"/>
</symbol><symbol id="icon-arrow-left" viewBox="0 0 25 25">
<path fill-rule="evenodd" clip-rule="evenodd" d="M5.72915 12.2772C5.72915 12.5534 5.83889 12.8184 6.03424 13.0138C6.22959 13.2091 6.49454 13.3188 6.77081 13.3188L19.7916 13.3188C20.0679 13.3188 20.3329 13.2091 20.5282 13.0138C20.7236 12.8184 20.8333 12.5534 20.8333 12.2772C20.8333 12.0009 20.7236 11.736 20.5282 11.5406C20.3329 11.3453 20.0679 11.2355 19.7916 11.2355L6.77081 11.2355C6.49454 11.2355 6.22959 11.3453 6.03424 11.5406C5.83889 11.736 5.72915 12.0009 5.72915 12.2772Z"/>
<path fill-rule="evenodd" clip-rule="evenodd" d="M4.16668 12.2771C4.16674 12.5533 4.27653 12.8182 4.47189 13.0135L9.15939 17.701C9.25548 17.8005 9.37042 17.8799 9.49751 17.9345C9.6246 17.9891 9.76129 18.0178 9.8996 18.019C10.0379 18.0202 10.1751 17.9938 10.3031 17.9415C10.4311 17.8891 10.5474 17.8118 10.6452 17.7139C10.743 17.6161 10.8204 17.4998 10.8727 17.3718C10.9251 17.2438 10.9515 17.1066 10.9503 16.9683C10.9491 16.83 10.9203 16.6933 10.8657 16.5662C10.8112 16.4392 10.7318 16.3242 10.6323 16.2281L6.68127 12.2771L10.6323 8.32603C10.8278 8.13071 10.9376 7.86575 10.9377 7.58943C10.9378 7.3131 10.8282 7.04806 10.6328 6.8526C10.4375 6.65714 10.1725 6.54728 9.89622 6.54718C9.6199 6.54708 9.35485 6.65675 9.15939 6.85208L4.47189 11.5396C4.37503 11.6364 4.29822 11.7514 4.24585 11.8779C4.19348 12.0045 4.16658 12.1401 4.16668 12.2771Z"/>
</symbol><symbol id="icon-arrow-right" viewBox="0 0 25 25">
<path fill-rule="evenodd" clip-rule="evenodd" d="M19.2708 12.7228C19.2708 12.4466 19.161 12.1816 18.9657 11.9862C18.7703 11.7909 18.5054 11.6812 18.2291 11.6812L5.20829 11.6812C4.93203 11.6812 4.66707 11.7909 4.47172 11.9862C4.27637 12.1816 4.16663 12.4466 4.16663 12.7228C4.16663 12.9991 4.27637 13.264 4.47172 13.4594C4.66707 13.6547 4.93203 13.7645 5.20829 13.7645L18.2291 13.7645C18.5054 13.7645 18.7703 13.6547 18.9657 13.4594C19.161 13.264 19.2708 12.9991 19.2708 12.7228Z"/>
<path fill-rule="evenodd" clip-rule="evenodd" d="M20.8333 12.7229C20.8333 12.4467 20.7235 12.1818 20.5281 11.9865L15.8406 7.29897C15.7445 7.19948 15.6296 7.12012 15.5025 7.06553C15.3754 7.01093 15.2387 6.9822 15.1004 6.981C14.9621 6.97979 14.8249 7.00615 14.6969 7.05853C14.5689 7.1109 14.4526 7.18825 14.3548 7.28605C14.257 7.38386 14.1796 7.50016 14.1273 7.62818C14.0749 7.7562 14.0485 7.89336 14.0497 8.03168C14.0509 8.16999 14.0797 8.30667 14.1343 8.43376C14.1888 8.56085 14.2682 8.67579 14.3677 8.77188L18.3187 12.7229L14.3677 16.674C14.1722 16.8693 14.0624 17.1343 14.0623 17.4106C14.0622 17.6869 14.1718 17.9519 14.3672 18.1474C14.5625 18.3429 14.8275 18.4527 15.1038 18.4528C15.3801 18.4529 15.6451 18.3432 15.8406 18.1479L20.5281 13.4604C20.625 13.3636 20.7018 13.2486 20.7542 13.1221C20.8065 12.9955 20.8334 12.8599 20.8333 12.7229Z"/>
</symbol><symbol id="icon-calendar" viewBox="0 0 18 18">
<path d="M2.4375 6.9375H15.5625M5.52075 3.5625V2.0625M12.4583 3.5625V2.0625M12.9375 3.5625H5.0625C4.36631 3.5625 3.69863 3.83906 3.20634 4.33134C2.71406 4.82363 2.4375 5.49131 2.4375 6.1875V13.3125C2.4375 14.0087 2.71406 14.6764 3.20634 15.1687C3.69863 15.6609 4.36631 15.9375 5.0625 15.9375H12.9375C13.6337 15.9375 14.3014 15.6609 14.7937 15.1687C15.2859 14.6764 15.5625 14.0087 15.5625 13.3125V6.1875C15.5625 5.49131 15.2859 4.82363 14.7937 4.33134C14.3014 3.83906 13.6337 3.5625 12.9375 3.5625Z" stroke="#858585" stroke-width="1.5" stroke-linecap="round" stroke-linejoin="round"/>
</symbol><symbol id="icon-caret-down" viewBox="0 0 18 18">
<path d="M13.0121 6H4.98706C4.50706 6 4.24456 6.57 4.56706 6.93L8.57956 11.5125C8.80456 11.7675 9.20206 11.7675 9.42706 11.5125L13.4396 6.93C13.7546 6.57 13.4996 6 13.0196 6H13.0121Z" fill="#5F5F5F"/>
</symbol><symbol id="icon-check-one" viewBox="0 0 32 32">
<mask id="mask0_428_83849" style="mask-type:luminance" maskUnits="userSpaceOnUse" x="0" y="0" width="32" height="32">
<path d="M16 31C17.9702 31.0024 19.9214 30.6156 21.7416 29.8616C23.5618 29.1076 25.2151 28.0014 26.6065 26.6065C28.0014 25.2151 29.1076 23.5618 29.8616 21.7416C30.6156 19.9214 31.0024 17.9702 31 16C31.0024 14.0298 30.6156 12.0786 29.8616 10.2584C29.1076 8.43818 28.0014 6.78489 26.6065 5.39351C25.2151 3.99863 23.5618 2.89243 21.7416 2.13845C19.9214 1.38447 17.9702 0.997582 16 1.00001C14.0298 0.997582 12.0786 1.38447 10.2584 2.13845C8.43818 2.89243 6.78489 3.99863 5.39351 5.39351C3.99863 6.78489 2.89243 8.43818 2.13845 10.2584C1.38447 12.0786 0.997582 14.0298 1.00001 16C0.997582 17.9702 1.38447 19.9214 2.13845 21.7416C2.89243 23.5618 3.99863 25.2151 5.39351 26.6065C6.78489 28.0014 8.43818 29.1076 10.2584 29.8616C12.0786 30.6156 14.0298 31.0024 16 31Z" fill="white" stroke="white" stroke-width="2" stroke-linejoin="round"/>
<path d="M10 16L14.5 20.5L23.5 11.5" stroke="black" stroke-width="2" stroke-linecap="round" stroke-linejoin="round"/>
</mask>
<g mask="url(#mask0_428_83849)">
<path d="M-2 -2H34V34H-2V-2Z" fill="#374C92"/>
</g>
</symbol><symbol id="icon-check" viewBox="0 0 64 64">
<rect width="64" height="64" rx="32" fill="#DDF0FB"/>
<mask id="mask0_428_83847" style="mask-type:luminance" maskUnits="userSpaceOnUse" x="16" y="16" width="32" height="32">
<path d="M32 47C33.9702 47.0024 35.9214 46.6156 37.7416 45.8616C39.5618 45.1076 41.2151 44.0014 42.6065 42.6065C44.0014 41.2151 45.1076 39.5618 45.8616 37.7416C46.6156 35.9214 47.0024 33.9702 47 32C47.0024 30.0298 46.6156 28.0786 45.8616 26.2584C45.1076 24.4382 44.0014 22.7849 42.6065 21.3935C41.2151 19.9986 39.5618 18.8924 37.7416 18.1384C35.9214 17.3845 33.9702 16.9976 32 17C30.0298 16.9976 28.0786 17.3845 26.2584 18.1384C24.4382 18.8924 22.7849 19.9986 21.3935 21.3935C19.9986 22.7849 18.8924 24.4382 18.1384 26.2584C17.3845 28.0786 16.9976 30.0298 17 32C16.9976 33.9702 17.3845 35.9214 18.1384 37.7416C18.8924 39.5618 19.9986 41.2151 21.3935 42.6065C22.7849 44.0014 24.4382 45.1076 26.2584 45.8616C28.0786 46.6156 30.0298 47.0024 32 47Z" fill="white" stroke="white" stroke-width="2" stroke-linejoin="round"/>
<path d="M26 32L30.5 36.5L39.5 27.5" stroke="black" stroke-width="2" stroke-linecap="round" stroke-linejoin="round"/>
</mask>
<g mask="url(#mask0_428_83847)">
<path d="M14 14H50V50H14V14Z" fill="#374C92"/>
</g>
</symbol><symbol id="icon-close" viewBox="0 0 24 24">
<path d="M18.3002 5.70999C18.2077 5.61729 18.0978 5.54374 17.9768 5.49356C17.8559 5.44338 17.7262 5.41755 17.5952 5.41755C17.4643 5.41755 17.3346 5.44338 17.2136 5.49356C17.0926 5.54374 16.9827 5.61729 16.8902 5.70999L12.0002 10.59L7.11022 5.69999C7.01764 5.60741 6.90773 5.53397 6.78677 5.48387C6.6658 5.43376 6.53615 5.40797 6.40522 5.40797C6.27429 5.40797 6.14464 5.43376 6.02368 5.48387C5.90272 5.53397 5.79281 5.60741 5.70022 5.69999C5.60764 5.79258 5.5342 5.90249 5.4841 6.02345C5.43399 6.14442 5.4082 6.27406 5.4082 6.40499C5.4082 6.53593 5.43399 6.66557 5.4841 6.78654C5.5342 6.9075 5.60764 7.01741 5.70022 7.10999L10.5902 12L5.70022 16.89C5.60764 16.9826 5.5342 17.0925 5.4841 17.2135C5.43399 17.3344 5.4082 17.4641 5.4082 17.595C5.4082 17.7259 5.43399 17.8556 5.4841 17.9765C5.5342 18.0975 5.60764 18.2074 5.70022 18.3C5.79281 18.3926 5.90272 18.466 6.02368 18.5161C6.14464 18.5662 6.27429 18.592 6.40522 18.592C6.53615 18.592 6.6658 18.5662 6.78677 18.5161C6.90773 18.466 7.01764 18.3926 7.11022 18.3L12.0002 13.41L16.8902 18.3C16.9828 18.3926 17.0927 18.466 17.2137 18.5161C17.3346 18.5662 17.4643 18.592 17.5952 18.592C17.7262 18.592 17.8558 18.5662 17.9768 18.5161C18.0977 18.466 18.2076 18.3926 18.3002 18.3C18.3928 18.2074 18.4662 18.0975 18.5163 17.9765C18.5665 17.8556 18.5922 17.7259 18.5922 17.595C18.5922 17.4641 18.5665 17.3344 18.5163 17.2135C18.4662 17.0925 18.3928 16.9826 18.3002 16.89L13.4102 12L18.3002 7.10999C18.6802 6.72999 18.6802 6.08999 18.3002 5.70999Z" fill="#5F5F5F"/>
</symbol><symbol id="icon-email" viewBox="0 0 16 16">
<path d="M13.3334 2.66667H2.66671C1.93337 2.66667 1.33337 3.26667 1.33337 4V12C1.33337 12.7333 1.93337 13.3333 2.66671 13.3333H13.3334C14.0667 13.3333 14.6667 12.7333 14.6667 12V4C14.6667 3.26667 14.0667 2.66667 13.3334 2.66667ZM13.0667 5.5L8.70671 8.22667C8.27337 8.5 7.72671 8.5 7.29337 8.22667L2.93337 5.5C2.86653 5.46247 2.80799 5.41177 2.7613 5.35097C2.71461 5.29016 2.68075 5.22052 2.66176 5.14625C2.64277 5.07198 2.63904 4.99462 2.65081 4.91887C2.66258 4.84312 2.6896 4.77054 2.73023 4.70553C2.77086 4.64053 2.82426 4.58444 2.88719 4.54066C2.95013 4.49689 3.02129 4.46634 3.09637 4.45087C3.17145 4.43539 3.2489 4.43531 3.32401 4.45063C3.39912 4.46595 3.47035 4.49636 3.53337 4.54L8.00004 7.33333L12.4667 4.54C12.5297 4.49636 12.601 4.46595 12.6761 4.45063C12.7512 4.43531 12.8286 4.43539 12.9037 4.45087C12.9788 4.46634 13.05 4.49689 13.1129 4.54066C13.1758 4.58444 13.2292 4.64053 13.2699 4.70553C13.3105 4.77054 13.3375 4.84312 13.3493 4.91887C13.361 4.99462 13.3573 5.07198 13.3383 5.14625C13.3193 5.22052 13.2855 5.29016 13.2388 5.35097C13.1921 5.41177 13.1336 5.46247 13.0667 5.5Z" fill="white"/>
</symbol><symbol id="icon-eye" viewBox="0 0 18 18">
<path d="M2.38664 9.60608C3.17489 10.9598 5.39639 14.1076 9.00014 14.1076C12.6099 14.1076 14.8276 10.9583 15.6151 9.60608C15.7225 9.42226 15.7789 9.2132 15.7788 9.00035C15.7787 8.7875 15.7219 8.57852 15.6144 8.39483C14.8269 7.04183 12.6069 3.89258 9.00014 3.89258C5.39339 3.89258 3.17414 7.04033 2.38664 8.39333C2.27894 8.57726 2.22217 8.78656 2.22217 8.9997C2.22217 9.21285 2.27894 9.42215 2.38664 9.60608Z" stroke="#858585" stroke-width="1.5" stroke-linejoin="round"/>
<path d="M9 10.9688C9.52214 10.9687 10.0229 10.7613 10.3921 10.3921C10.7613 10.0229 10.9687 9.52214 10.9688 9C10.9687 8.47786 10.7613 7.9771 10.3921 7.60788C10.0229 7.23867 9.52214 7.03125 9 7.03125C8.47786 7.03125 7.9771 7.23867 7.60788 7.60788C7.23867 7.9771 7.03125 8.47786 7.03125 9C7.03125 9.52214 7.23867 10.0229 7.60788 10.3921C7.9771 10.7613 8.47786 10.9687 9 10.9688Z" stroke="#858585" stroke-width="1.5" stroke-linejoin="round"/>
</symbol><symbol id="icon-location" viewBox="0 0 18 18">
<path d="M9.00007 1.5C5.69257 1.5 3.00007 4.1925 3.00007 7.5C2.97757 12.33 8.34007 16.2 8.56507 16.365C8.69257 16.455 8.85007 16.5075 9.00007 16.5075C9.15007 16.5075 9.30757 16.4625 9.43507 16.365C9.66007 16.2 15.0226 12.3375 15.0001 7.5C15.0001 4.1925 12.3076 1.5 9.00007 1.5ZM9.00007 10.5C7.34257 10.5 6.00007 9.1575 6.00007 7.5C6.00007 5.8425 7.34257 4.5 9.00007 4.5C10.6576 4.5 12.0001 5.8425 12.0001 7.5C12.0001 9.1575 10.6576 10.5 9.00007 10.5Z" fill="#602B7A"/>
</symbol><symbol id="icon-more" viewBox="0 0 20 20">
<path d="M5.00033 11.4584C5.80574 11.4584 6.45866 10.8055 6.45866 10.0001C6.45866 9.19467 5.80574 8.54175 5.00033 8.54175C4.19491 8.54175 3.54199 9.19467 3.54199 10.0001C3.54199 10.8055 4.19491 11.4584 5.00033 11.4584Z" fill="#95C11F"/>
<path d="M10.0003 11.4584C10.8057 11.4584 11.4587 10.8055 11.4587 10.0001C11.4587 9.19467 10.8057 8.54175 10.0003 8.54175C9.19491 8.54175 8.54199 9.19467 8.54199 10.0001C8.54199 10.8055 9.19491 11.4584 10.0003 11.4584Z" fill="#95C11F"/>
<path d="M15.0003 11.4584C15.8057 11.4584 16.4587 10.8055 16.4587 10.0001C16.4587 9.19467 15.8057 8.54175 15.0003 8.54175C14.1949 8.54175 13.542 9.19467 13.542 10.0001C13.542 10.8055 14.1949 11.4584 15.0003 11.4584Z" fill="#95C11F"/>
</symbol><symbol id="icon-person" viewBox="0 0 16 16">
<path d="M11.9994 9.14286C12.4541 9.14286 12.8901 9.32347 13.2116 9.64496C13.5331 9.96645 13.7137 10.4025 13.7137 10.8571V11.2657C13.7137 13.3097 11.308 14.8571 7.99944 14.8571C4.69087 14.8571 2.28516 13.3903 2.28516 11.2657V10.8571C2.28516 10.4025 2.46577 9.96645 2.78726 9.64496C3.10875 9.32347 3.54479 9.14286 3.99944 9.14286H11.9994ZM7.99944 1.14286C8.44969 1.14286 8.89553 1.23154 9.3115 1.40384C9.72747 1.57615 10.1054 1.82869 10.4238 2.14707C10.7422 2.46544 10.9947 2.8434 11.167 3.25937C11.3393 3.67535 11.428 4.12119 11.428 4.57143C11.428 5.02168 11.3393 5.46752 11.167 5.88349C10.9947 6.29946 10.7422 6.67743 10.4238 6.9958C10.1054 7.31417 9.72747 7.56672 9.3115 7.73902C8.89553 7.91132 8.44969 8 7.99944 8C7.09013 8 6.21806 7.63878 5.57508 6.9958C4.93209 6.35282 4.57087 5.48075 4.57087 4.57143C4.57087 3.66212 4.93209 2.79005 5.57508 2.14707C6.21806 1.50408 7.09013 1.14286 7.99944 1.14286Z" fill="#2F2535"/>
</symbol><symbol id="icon-phone" viewBox="0 0 16 16">
<path d="M12.2187 15C11.6087 15 10.7519 14.7794 9.46873 14.0625C7.90842 13.1875 6.70155 12.3797 5.14967 10.8319C3.65342 9.33656 2.9253 8.36844 1.90623 6.51406C0.754983 4.42031 0.951233 3.32281 1.17061 2.85375C1.43186 2.29312 1.81748 1.95781 2.31592 1.625C2.59903 1.43951 2.89863 1.28051 3.21092 1.15C3.24217 1.13656 3.27123 1.12375 3.29717 1.11219C3.45186 1.0425 3.68623 0.937187 3.98311 1.04969C4.18123 1.12406 4.35811 1.27625 4.63498 1.54969C5.2028 2.10969 5.97873 3.35687 6.26498 3.96937C6.45717 4.38219 6.58436 4.65469 6.58467 4.96031C6.58467 5.31812 6.40467 5.59406 6.18623 5.89187C6.1453 5.94781 6.10467 6.00125 6.0653 6.05312C5.82748 6.36562 5.7753 6.45594 5.80967 6.61719C5.87936 6.94125 6.39905 7.90594 7.25311 8.75813C8.10717 9.61031 9.04405 10.0972 9.36936 10.1666C9.53748 10.2025 9.62967 10.1481 9.95217 9.90187C9.99842 9.86656 10.0459 9.83 10.0956 9.79344C10.4287 9.54563 10.6919 9.37031 11.0412 9.37031H11.0431C11.3472 9.37031 11.6075 9.50219 12.0387 9.71969C12.6012 10.0034 13.8859 10.7694 14.4494 11.3378C14.7234 11.6141 14.8762 11.7903 14.9509 11.9881C15.0634 12.2859 14.9575 12.5194 14.8884 12.6756C14.8769 12.7016 14.864 12.73 14.8506 12.7616C14.7191 13.0733 14.5591 13.3723 14.3728 13.6547C14.0406 14.1516 13.704 14.5363 13.1422 14.7978C12.8537 14.9343 12.5379 15.0034 12.2187 15Z" fill="white"/>
</symbol><symbol id="icon-readme" viewBox="0 0 36 36">
<path d="M5.625 6.75C3.76425 6.75 2.25 8.26425 2.25 10.125V23.625C2.25 25.4858 3.76425 27 5.625 27L12.582 26.9775C13.6958 26.9775 14.7746 27.3263 15.7016 27.945L18 29.475L20.2984 27.9439C21.2222 27.3279 22.3076 26.9991 23.418 26.9989H30.375C32.2358 26.9989 33.75 25.4846 33.75 23.6239V10.125C33.75 8.26425 32.2358 6.75 30.375 6.75H23.418C21.8587 6.75 20.3468 7.209 19.0508 8.073L18 8.77387L16.9493 8.073C15.656 7.21065 14.1364 6.75032 12.582 6.75H5.625ZM5.625 9H12.582C13.6958 9 14.7746 9.32625 15.7016 9.945L18 11.475L20.2984 9.94387C21.2223 9.32828 22.3078 8.99986 23.418 9H30.375C30.996 9 31.5 9.50513 31.5 10.125V23.625C31.5 24.2449 30.996 24.75 30.375 24.75H23.418C21.8587 24.75 20.3468 25.209 19.0508 26.073L18 26.7739L16.9493 26.073C15.656 25.2106 14.1364 24.7503 12.582 24.75H5.625C5.004 24.75 4.5 24.2449 4.5 23.625V10.125C4.5 9.50513 5.004 9 5.625 9ZM6.75 13.5V15.75H15.75V13.5H6.75ZM20.25 13.5V15.75H29.25V13.5H20.25ZM6.75 18V20.25H15.75V18H6.75ZM20.25 18V20.25H29.25V18H20.25Z" fill="#29235C"/>
</symbol><symbol id="icon-readtime" viewBox="0 0 18 18">
<path d="M9 16.875C4.6575 16.875 1.125 13.3425 1.125 9C1.125 4.6575 4.6575 1.125 9 1.125C13.3425 1.125 16.875 4.6575 16.875 9C16.875 13.3425 13.3425 16.875 9 16.875ZM9 2.25C5.27625 2.25 2.25 5.27625 2.25 9C2.25 12.7238 5.27625 15.75 9 15.75C12.7238 15.75 15.75 12.7238 15.75 9C15.75 5.27625 12.7238 2.25 9 2.25Z" fill="#858585"/>
<path d="M11.25 11.8125C11.1488 11.8125 11.0475 11.79 10.9575 11.7338L8.14501 10.0463C8.06209 9.99577 7.99364 9.92469 7.94633 9.83992C7.89901 9.75515 7.87444 9.65958 7.87501 9.5625V5.0625C7.87501 4.7475 8.12251 4.5 8.43751 4.5C8.75251 4.5 9.00001 4.7475 9.00001 5.0625V9.2475L11.5425 10.7662C11.6472 10.8304 11.7282 10.927 11.7731 11.0413C11.818 11.1557 11.8244 11.2815 11.7913 11.3998C11.7582 11.5181 11.6875 11.6224 11.5898 11.6969C11.4921 11.7713 11.3728 11.8119 11.25 11.8125Z" fill="#858585"/>
</symbol><symbol id="icon-search" viewBox="0 0 20 20">
<path d="M13.535 14.596C12.2346 15.6259 10.5895 16.1197 8.93682 15.9761C7.28412 15.8324 5.74888 15.0624 4.64555 13.8235C3.54222 12.5847 2.9543 10.9709 3.00223 9.31269C3.05015 7.65446 3.73029 6.0773 4.90332 4.90427C6.07636 3.73123 7.65351 3.0511 9.31174 3.00317C10.97 2.95525 12.5838 3.54316 13.8226 4.6465C15.0614 5.74983 15.8315 7.28507 15.9751 8.93776C16.1187 10.5905 15.625 12.2355 14.5951 13.536L18.0301 16.97C18.163 17.104 18.2405 17.2832 18.2472 17.4719C18.2538 17.6605 18.1891 17.8447 18.0659 17.9877C17.9427 18.1308 17.7701 18.2221 17.5825 18.2434C17.395 18.2648 17.2063 18.2146 17.0541 18.103L16.97 18.03L13.535 14.596ZM14.5001 9.5C14.5001 8.17391 13.9733 6.90214 13.0356 5.96446C12.0979 5.02678 10.8261 4.49999 9.50005 4.49999C8.17397 4.49999 6.9022 5.02678 5.96451 5.96446C5.02683 6.90214 4.50005 8.17391 4.50005 9.5C4.50005 10.8261 5.02683 12.0978 5.96451 13.0355C6.9022 13.9732 8.17397 14.5 9.50005 14.5C10.8261 14.5 12.0979 13.9732 13.0356 13.0355C13.9733 12.0978 14.5001 10.8261 14.5001 9.5Z" fill="#858585"/>
</symbol><symbol id="instagram-color" viewBox="0 0 24 24">
<rect width="24" height="24" rx="6" fill="white"/>
<path d="M16.7812 3H7.21875C4.8888 3 3 4.8888 3 7.21875V16.7812C3 19.1112 4.8888 21 7.21875 21H16.7812C19.1112 21 21 19.1112 21 16.7812V7.21875C21 4.8888 19.1112 3 16.7812 3Z" fill="url(#paint0_radial_2392_245)"/>
<path d="M16.7812 3H7.21875C4.8888 3 3 4.8888 3 7.21875V16.7812C3 19.1112 4.8888 21 7.21875 21H16.7812C19.1112 21 21 19.1112 21 16.7812V7.21875C21 4.8888 19.1112 3 16.7812 3Z" fill="url(#paint1_radial_2392_245)"/>
<path d="M12.0006 4.96875C10.0911 4.96875 9.85139 4.97712 9.10144 5.01122C8.35289 5.04553 7.84193 5.16401 7.39488 5.33789C6.93237 5.51747 6.54009 5.75773 6.1493 6.14866C5.75815 6.53953 5.51789 6.9318 5.33775 7.39411C5.16338 7.8413 5.04476 8.35247 5.01108 9.10066C4.97754 9.85069 4.96875 10.0905 4.96875 12.0001C4.96875 13.9097 4.97719 14.1486 5.01122 14.8986C5.04567 15.6471 5.16415 16.1581 5.33789 16.6051C5.51761 17.0676 5.75787 17.4599 6.1488 17.8507C6.53953 18.2419 6.9318 18.4827 7.39397 18.6622C7.84137 18.8361 8.3524 18.9546 9.1008 18.9889C9.85083 19.023 10.0903 19.0314 11.9998 19.0314C13.9095 19.0314 14.1485 19.023 14.8984 18.9889C15.647 18.9546 16.1585 18.8361 16.6059 18.6622C17.0682 18.4827 17.4599 18.2419 17.8506 17.8507C18.2417 17.4599 18.4819 17.0676 18.6621 16.6053C18.8349 16.1581 18.9536 15.647 18.9888 14.8987C19.0225 14.1488 19.0312 13.9097 19.0312 12.0001C19.0312 10.0905 19.0225 9.85083 18.9888 9.1008C18.9536 8.35226 18.8349 7.84137 18.6621 7.39432C18.4819 6.9318 18.2417 6.53953 17.8506 6.14866C17.4595 5.75759 17.0683 5.51733 16.6055 5.33796C16.1572 5.16401 15.646 5.04546 14.8974 5.01122C14.1474 4.97712 13.9086 4.96875 11.9985 4.96875H12.0006ZM11.3699 6.23585C11.5571 6.23557 11.766 6.23585 12.0006 6.23585C13.878 6.23585 14.1005 6.2426 14.8419 6.27628C15.5274 6.30764 15.8995 6.42218 16.1474 6.51844C16.4755 6.64584 16.7095 6.79821 16.9554 7.04437C17.2015 7.29047 17.3538 7.52482 17.4816 7.85297C17.5778 8.10047 17.6925 8.47256 17.7237 9.15811C17.7574 9.89934 17.7647 10.122 17.7647 11.9985C17.7647 13.875 17.7574 14.0976 17.7237 14.8388C17.6924 15.5243 17.5778 15.8964 17.4816 16.144C17.3542 16.4722 17.2015 16.7058 16.9554 16.9518C16.7093 17.1979 16.4757 17.3501 16.1474 17.4776C15.8998 17.5743 15.5274 17.6886 14.8419 17.7199C14.1007 17.7536 13.878 17.7609 12.0006 17.7609C10.1231 17.7609 9.90061 17.7536 9.15945 17.7199C8.4739 17.6883 8.1018 17.5737 7.85374 17.4775C7.52566 17.35 7.29124 17.1977 7.04515 16.9516C6.79905 16.7055 6.64676 16.4717 6.519 16.1434C6.42274 15.8959 6.30806 15.5238 6.27684 14.8382C6.24316 14.097 6.23641 13.8744 6.23641 11.9967C6.23641 10.119 6.24316 9.89759 6.27684 9.15635C6.3082 8.4708 6.42274 8.09871 6.519 7.85086C6.64648 7.52271 6.79905 7.28836 7.04522 7.04227C7.29138 6.79617 7.52566 6.6438 7.85381 6.51612C8.10166 6.41944 8.4739 6.30518 9.15945 6.27368C9.80808 6.24436 10.0594 6.23557 11.3699 6.23409V6.23585ZM15.7539 7.40332C15.2881 7.40332 14.9102 7.7809 14.9102 8.24679C14.9102 8.71261 15.2881 9.09054 15.7539 9.09054C16.2197 9.09054 16.5977 8.71261 16.5977 8.24679C16.5977 7.78097 16.2197 7.40304 15.7539 7.40304V7.40332ZM12.0006 8.38917C10.0066 8.38917 8.3898 10.0059 8.3898 12.0001C8.3898 13.9942 10.0066 15.6102 12.0006 15.6102C13.9948 15.6102 15.611 13.9942 15.611 12.0001C15.611 10.006 13.9946 8.38917 12.0005 8.38917H12.0006ZM12.0006 9.65627C13.295 9.65627 14.3444 10.7055 14.3444 12.0001C14.3444 13.2945 13.295 14.3439 12.0006 14.3439C10.7063 14.3439 9.65691 13.2945 9.65691 12.0001C9.65691 10.7055 10.7062 9.65627 12.0006 9.65627Z" fill="white"/>

</symbol><symbol id="star" viewBox="0 0 14 13">
<path d="M6.52447 0.463524C6.67415 0.00286841 7.32585 0.00286996 7.47553 0.463525L8.68386 4.18237C8.75079 4.38838 8.94277 4.52786 9.15938 4.52786H13.0696C13.554 4.52786 13.7554 5.14767 13.3635 5.43237L10.2001 7.73075C10.0248 7.85807 9.95149 8.08375 10.0184 8.28976L11.2268 12.0086C11.3764 12.4693 10.8492 12.8523 10.4573 12.5676L7.29389 10.2693C7.11865 10.1419 6.88135 10.1419 6.70611 10.2693L3.54267 12.5676C3.15081 12.8523 2.62357 12.4693 2.77325 12.0086L3.98157 8.28976C4.04851 8.08375 3.97518 7.85807 3.79994 7.73075L0.636495 5.43237C0.244639 5.14767 0.446028 4.52786 0.93039 4.52786H4.84062C5.05723 4.52786 5.24921 4.38838 5.31614 4.18237L6.52447 0.463524Z"/>
</symbol><symbol id="stars-rating" viewBox="0 0 100 18">
<path fill-rule="evenodd" clip-rule="evenodd" d="M9.00001 13.8751L5.49601 15.7171C5.37215 15.7822 5.23254 15.8114 5.09296 15.8013C4.95339 15.7912 4.81942 15.7423 4.7062 15.66C4.59299 15.5778 4.50503 15.4655 4.45229 15.3359C4.39955 15.2063 4.38412 15.0645 4.40776 14.9266L5.07676 11.0251L2.24176 8.26131C2.14147 8.1636 2.07053 8.03976 2.03698 7.90382C2.00343 7.76787 2.00861 7.62525 2.05193 7.4921C2.09525 7.35895 2.17497 7.24058 2.28209 7.15039C2.3892 7.06021 2.51942 7.00181 2.65801 6.98181L6.57526 6.41256L8.32726 2.86281C8.38915 2.73721 8.48497 2.63145 8.60387 2.55749C8.72276 2.48353 8.85999 2.44434 9.00001 2.44434C9.14003 2.44434 9.27725 2.48353 9.39615 2.55749C9.51505 2.63145 9.61086 2.73721 9.67276 2.86281L11.4248 6.41256L15.342 6.98256C15.4804 7.00267 15.6105 7.06109 15.7175 7.15122C15.8244 7.24136 15.9041 7.35961 15.9474 7.49263C15.9907 7.62565 15.9959 7.76812 15.9625 7.90395C15.9291 8.03979 15.8583 8.16357 15.7583 8.26131L12.9225 11.0251L13.5915 14.9266C13.615 15.0644 13.5996 15.206 13.5469 15.3356C13.4941 15.4651 13.4063 15.5772 13.2932 15.6595C13.1801 15.7417 13.0463 15.7906 12.9068 15.8008C12.7674 15.811 12.6278 15.782 12.504 15.7171L9.00001 13.8751Z" fill="#FFD631"/>
<path fill-rule="evenodd" clip-rule="evenodd" d="M27 13.8751L23.496 15.7171C23.3721 15.7822 23.2325 15.8114 23.093 15.8013C22.9534 15.7912 22.8194 15.7423 22.7062 15.66C22.593 15.5778 22.505 15.4655 22.4523 15.3359C22.3996 15.2063 22.3841 15.0645 22.4078 14.9266L23.0768 11.0251L20.2418 8.26131C20.1415 8.1636 20.0705 8.03976 20.037 7.90382C20.0034 7.76787 20.0086 7.62525 20.0519 7.4921C20.0952 7.35895 20.175 7.24058 20.2821 7.15039C20.3892 7.06021 20.5194 7.00181 20.658 6.98181L24.5753 6.41256L26.3273 2.86281C26.3892 2.73721 26.485 2.63145 26.6039 2.55749C26.7228 2.48353 26.86 2.44434 27 2.44434C27.14 2.44434 27.2773 2.48353 27.3961 2.55749C27.515 2.63145 27.6109 2.73721 27.6728 2.86281L29.4248 6.41256L33.342 6.98256C33.4804 7.00267 33.6105 7.06109 33.7175 7.15122C33.8244 7.24136 33.9041 7.35961 33.9474 7.49263C33.9907 7.62565 33.9959 7.76812 33.9625 7.90395C33.9291 8.03979 33.8583 8.16357 33.7583 8.26131L30.9225 11.0251L31.5915 14.9266C31.615 15.0644 31.5996 15.206 31.5469 15.3356C31.4941 15.4651 31.4063 15.5772 31.2932 15.6595C31.1801 15.7417 31.0463 15.7906 30.9068 15.8008C30.7674 15.811 30.6278 15.782 30.504 15.7171L27 13.8751Z" fill="#FFD631"/>
<path fill-rule="evenodd" clip-rule="evenodd" d="M45 13.8751L41.496 15.7171C41.3721 15.7822 41.2325 15.8114 41.093 15.8013C40.9534 15.7912 40.8194 15.7423 40.7062 15.66C40.593 15.5778 40.505 15.4655 40.4523 15.3359C40.3996 15.2063 40.3841 15.0645 40.4078 14.9266L41.0768 11.0251L38.2418 8.26131C38.1415 8.1636 38.0705 8.03976 38.037 7.90382C38.0034 7.76787 38.0086 7.62525 38.0519 7.4921C38.0952 7.35895 38.175 7.24058 38.2821 7.15039C38.3892 7.06021 38.5194 7.00181 38.658 6.98181L42.5753 6.41256L44.3273 2.86281C44.3892 2.73721 44.485 2.63145 44.6039 2.55749C44.7228 2.48353 44.86 2.44434 45 2.44434C45.14 2.44434 45.2773 2.48353 45.3961 2.55749C45.515 2.63145 45.6109 2.73721 45.6728 2.86281L47.4248 6.41256L51.342 6.98256C51.4804 7.00267 51.6105 7.06109 51.7175 7.15122C51.8244 7.24136 51.9041 7.35961 51.9474 7.49263C51.9907 7.62565 51.9959 7.76812 51.9625 7.90395C51.9291 8.03979 51.8583 8.16357 51.7583 8.26131L48.9225 11.0251L49.5915 14.9266C49.615 15.0644 49.5996 15.206 49.5469 15.3356C49.4941 15.4651 49.4063 15.5772 49.2932 15.6595C49.1801 15.7417 49.0463 15.7906 48.9068 15.8008C48.7674 15.811 48.6278 15.782 48.504 15.7171L45 13.8751Z" fill="#FFD631"/>
<path fill-rule="evenodd" clip-rule="evenodd" d="M63 13.8751L59.496 15.7171C59.3721 15.7822 59.2325 15.8114 59.093 15.8013C58.9534 15.7912 58.8194 15.7423 58.7062 15.66C58.593 15.5778 58.505 15.4655 58.4523 15.3359C58.3996 15.2063 58.3841 15.0645 58.4078 14.9266L59.0768 11.0251L56.2418 8.26131C56.1415 8.1636 56.0705 8.03976 56.037 7.90382C56.0034 7.76787 56.0086 7.62525 56.0519 7.4921C56.0952 7.35895 56.175 7.24058 56.2821 7.15039C56.3892 7.06021 56.5194 7.00181 56.658 6.98181L60.5753 6.41256L62.3273 2.86281C62.3892 2.73721 62.485 2.63145 62.6039 2.55749C62.7228 2.48353 62.86 2.44434 63 2.44434C63.14 2.44434 63.2773 2.48353 63.3961 2.55749C63.515 2.63145 63.6109 2.73721 63.6728 2.86281L65.4248 6.41256L69.342 6.98256C69.4804 7.00267 69.6105 7.06109 69.7175 7.15122C69.8244 7.24136 69.9041 7.35961 69.9474 7.49263C69.9907 7.62565 69.9959 7.76812 69.9625 7.90395C69.9291 8.03979 69.8583 8.16357 69.7583 8.26131L66.9225 11.0251L67.5915 14.9266C67.615 15.0644 67.5996 15.206 67.5469 15.3356C67.4941 15.4651 67.4063 15.5772 67.2932 15.6595C67.1801 15.7417 67.0463 15.7906 66.9068 15.8008C66.7674 15.811 66.6278 15.782 66.504 15.7171L63 13.8751Z" fill="#FFD631"/>
<path fill-rule="evenodd" clip-rule="evenodd" d="M81 13.8751L77.496 15.7171C77.3721 15.7822 77.2325 15.8114 77.093 15.8013C76.9534 15.7912 76.8194 15.7423 76.7062 15.66C76.593 15.5778 76.505 15.4655 76.4523 15.3359C76.3996 15.2063 76.3841 15.0645 76.4078 14.9266L77.0768 11.0251L74.2418 8.26131C74.1415 8.1636 74.0705 8.03976 74.037 7.90382C74.0034 7.76787 74.0086 7.62525 74.0519 7.4921C74.0952 7.35895 74.175 7.24058 74.2821 7.15039C74.3892 7.06021 74.5194 7.00181 74.658 6.98181L78.5753 6.41256L80.3273 2.86281C80.3892 2.73721 80.485 2.63145 80.6039 2.55749C80.7228 2.48353 80.86 2.44434 81 2.44434C81.14 2.44434 81.2773 2.48353 81.3961 2.55749C81.515 2.63145 81.6109 2.73721 81.6728 2.86281L83.4248 6.41256L87.342 6.98256C87.4804 7.00267 87.6105 7.06109 87.7175 7.15122C87.8244 7.24136 87.9041 7.35961 87.9474 7.49263C87.9907 7.62565 87.9959 7.76812 87.9625 7.90395C87.9291 8.03979 87.8583 8.16357 87.7583 8.26131L84.9225 11.0251L85.5915 14.9266C85.615 15.0644 85.5996 15.206 85.5469 15.3356C85.4941 15.4651 85.4063 15.5772 85.2932 15.6595C85.1801 15.7417 85.0463 15.7906 84.9068 15.8008C84.7674 15.811 84.6278 15.782 84.504 15.7171L81 13.8751Z" fill="#FFD631"/>
</symbol><symbol id="summary" viewBox="0 0 123 24">
<path d="M11.5489 2.92705C11.8483 2.00574 13.1517 2.00574 13.4511 2.92705L14.9697 7.60081C15.1035 8.01284 15.4875 8.2918 15.9207 8.2918H20.835C21.8037 8.2918 22.2065 9.53141 21.4228 10.1008L17.447 12.9894C17.0966 13.244 16.9499 13.6954 17.0838 14.1074L18.6024 18.7812C18.9017 19.7025 17.8472 20.4686 17.0635 19.8992L13.0878 17.0106C12.7373 16.756 12.2627 16.756 11.9122 17.0106L7.93648 19.8992C7.15276 20.4686 6.09828 19.7025 6.39763 18.7812L7.91623 14.1074C8.05011 13.6954 7.90345 13.244 7.55296 12.9894L3.57722 10.1008C2.79351 9.53141 3.19628 8.2918 4.16501 8.2918H9.07929C9.51252 8.2918 9.89647 8.01284 10.0303 7.60081L11.5489 2.92705Z" fill="#43B94B"/>
<path d="M35.9994 3.07953C36.2905 2.14117 37.6186 2.14116 37.9097 3.07952L39.308 7.58803C39.4378 8.00654 39.8249 8.2918 40.2631 8.2918H44.8836C45.841 8.2918 46.2511 9.50765 45.4892 10.0875L41.6724 12.9927C41.3381 13.2471 41.1985 13.6834 41.3229 14.0846L42.7617 18.7237C43.05 19.6533 41.9754 20.4052 41.201 19.8157L37.5602 17.0446C37.2024 16.7722 36.7067 16.7722 36.3489 17.0446L32.7081 19.8157C31.9337 20.4052 30.8591 19.6533 31.1474 18.7237L32.5862 14.0846C32.7106 13.6834 32.571 13.2471 32.2367 12.9927L28.4199 10.0875C27.658 9.50765 28.0681 8.2918 29.0255 8.2918H33.646C34.0842 8.2918 34.4713 8.00653 34.6011 7.58803L35.9994 3.07953Z" fill="#43B94B"/>
<path d="M60.4581 2.92705C60.7575 2.00574 62.0609 2.00574 62.3602 2.92705L63.8788 7.60081C64.0127 8.01284 64.3967 8.2918 64.8299 8.2918H69.7442C70.7129 8.2918 71.1157 9.53141 70.332 10.1008L66.3562 12.9894C66.0057 13.244 65.8591 13.6954 65.9929 14.1074L67.5115 18.7812C67.8109 19.7025 66.7564 20.4686 65.9727 19.8992L61.997 17.0106C61.6465 16.756 61.1719 16.756 60.8214 17.0106L56.8457 19.8992C56.0619 20.4686 55.0075 19.7025 55.3068 18.7812L56.8254 14.1074C56.9593 13.6954 56.8126 13.244 56.4621 12.9894L52.4864 10.1008C51.7027 9.53141 52.1055 8.2918 53.0742 8.2918H57.9885C58.4217 8.2918 58.8057 8.01284 58.9395 7.60081L60.4581 2.92705Z" fill="#43B94B"/>
<path d="M84.9086 3.07953C85.1996 2.14117 86.5278 2.14116 86.8188 3.07952L88.2172 7.58803C88.347 8.00654 88.7341 8.2918 89.1723 8.2918H93.7927C94.7502 8.2918 95.1602 9.50765 94.3984 10.0875L90.5815 12.9927C90.2472 13.2471 90.1076 13.6834 90.2321 14.0846L91.6709 18.7237C91.9592 19.6533 90.8846 20.4052 90.1101 19.8157L86.4694 17.0446C86.1115 16.7722 85.6159 16.7722 85.2581 17.0446L81.6173 19.8157C80.8429 20.4052 79.7682 19.6533 80.0565 18.7237L81.4954 14.0846C81.6198 13.6834 81.4802 13.2471 81.1459 12.9927L77.3291 10.0875C76.5672 9.50765 76.9773 8.2918 77.9347 8.2918H82.5552C82.9934 8.2918 83.3805 8.00653 83.5103 7.58803L84.9086 3.07953Z" fill="#43B94B"/>
<path d="M109.843 3.08156C109.993 2.6209 110.644 2.62091 110.794 3.08156L112.312 7.75532C112.513 8.37336 113.089 8.7918 113.739 8.7918H118.653C119.138 8.7918 119.339 9.4116 118.947 9.6963L114.972 12.5848C114.446 12.9668 114.226 13.6439 114.427 14.2619L115.945 18.9357C116.095 19.3963 115.568 19.7794 115.176 19.4947L111.2 16.6061C110.674 16.2242 109.962 16.2242 109.437 16.6061L105.461 19.4947C105.069 19.7794 104.542 19.3963 104.692 18.9357L106.21 14.2619C106.411 13.6439 106.191 12.9668 105.665 12.5848L101.689 9.6963C101.298 9.4116 101.499 8.7918 101.983 8.7918H106.898C107.547 8.7918 108.123 8.37336 108.324 7.75532L109.843 3.08156Z" stroke="#43B94B"/>
</symbol><symbol id="watch" viewBox="0 0 34 34">
<rect width="34" height="34" rx="17" fill="#DDF0FB"/>
<path fill-rule="evenodd" clip-rule="evenodd" d="M10.75 11.7108C10.75 10.5216 12.0242 9.76912 13.0658 10.3416L22.6825 15.6308C23.7617 16.2241 23.7617 17.775 22.6825 18.3691L13.0667 23.6583C12.025 24.2308 10.7508 23.4775 10.7508 22.2891L10.75 11.7108Z" fill="#99D5E6"/>
</symbol></svg>