<svg width="40" height="40" viewBox="0 0 40 40" fill="none" xmlns="http://www.w3.org/2000/svg">
<rect width="40" height="40" rx="8" fill="#602B7A"/>
<path fill-rule="evenodd" clip-rule="evenodd" d="M33.6145 13.2925C33.4531 12.6884 33.1363 12.1371 32.6955 11.6936C32.2547 11.25 31.7053 10.9298 31.1022 10.7647C28.887 10.1667 20.0003 10.1667 20.0003 10.1667C20.0003 10.1667 11.1137 10.1667 8.89845 10.7647C8.29532 10.9298 7.74598 11.25 7.30518 11.6936C6.86438 12.1371 6.54751 12.6884 6.38616 13.2925C5.79199 15.5245 5.79199 20.1771 5.79199 20.1771C5.79199 20.1771 5.79199 24.8297 6.38616 27.0617C6.54731 27.6661 6.86409 28.2176 7.3049 28.6614C7.74572 29.1052 8.29516 29.4256 8.89845 29.5908C11.115 30.1875 20.0003 30.1875 20.0003 30.1875C20.0003 30.1875 28.887 30.1875 31.1022 29.5908C31.7055 29.4256 32.2549 29.1052 32.6957 28.6614C33.1366 28.2176 33.4533 27.6661 33.6145 27.0617C34.2087 24.8323 34.2087 20.1771 34.2087 20.1771C34.2087 20.1771 34.2087 15.5245 33.6145 13.2925ZM17.0941 15.9521V24.4021L24.5212 20.1771L17.0941 15.9521Z" fill="white"/>
</svg>
