<svg width="241" height="258" viewBox="0 0 241 258" fill="none" xmlns="http://www.w3.org/2000/svg">
<g clip-path="url(#clip0_138_9386)">
<path d="M78.1034 57.2102C78.1034 57.2102 81.0677 58.8302 83.6915 58.8602C86.3253 58.8902 93.4557 52.1502 95.2984 52.9102C97.141 53.6702 91.0622 58.7902 87.5771 61.8602C84.1021 64.9302 71.4838 68.9302 71.4838 68.9302C71.4838 68.9302 61.3691 77.7302 58.7753 82.8102C56.1816 87.8902 45.6663 80.2402 51.0641 73.1202C51.0641 73.1202 64.9042 58.1802 66.7469 49.8202C68.5896 41.4602 68.2391 37.4502 70.7928 37.1202C73.3465 36.7902 80.2665 34.9202 80.1564 36.5602C80.0462 38.2002 73.0861 39.7502 73.0861 39.7502L71.664 47.5702C71.664 47.5702 80.4468 41.2102 83.9719 41.9202C86.9763 42.5202 85.5542 49.4202 78.0934 57.2302L78.1034 57.2102Z" fill="white" stroke="#602B7A" stroke-linecap="round" stroke-linejoin="round"/>
<path d="M76.9718 47.4901C76.9718 47.4901 86.4255 38.4001 95.3885 37.1201C104.352 35.8401 94.9078 33.4401 89.4098 35.3901C83.9118 37.3401 75.73 42.4001 71.5539 47.8101" fill="white"/>
<path d="M76.9718 47.4901C76.9718 47.4901 86.4255 38.4001 95.3885 37.1201C104.352 35.8401 94.9078 33.4401 89.4098 35.3901C83.9118 37.3401 75.73 42.4001 71.5539 47.8101" stroke="#602B7A" stroke-linecap="round" stroke-linejoin="round"/>
<path d="M79.5655 50.5501C79.5655 50.5501 86.3454 42.1001 95.3084 40.8101C104.271 39.5301 97.1411 36.1401 91.6431 38.1001C86.1451 40.0601 79.9261 43.5301 75.75 48.9401" fill="white"/>
<path d="M79.5655 50.5501C79.5655 50.5501 86.3454 42.1001 95.3084 40.8101C104.271 39.5301 97.1411 36.1401 91.6431 38.1001C86.1451 40.0601 79.9261 43.5301 75.75 48.9401" stroke="#602B7A" stroke-linecap="round" stroke-linejoin="round"/>
<path d="M78.1034 57.2102C78.1034 57.2102 87.2767 47.9102 89.2095 47.4102C91.1423 46.9102 96.2898 52.8602 97.1811 52.0002C98.0724 51.1402 94.6975 46.3302 90.6516 44.1002C86.6158 41.8702 79.5455 50.5502 79.5455 50.5502" fill="white"/>
<path d="M78.1034 57.2102C78.1034 57.2102 87.2767 47.9102 89.2095 47.4102C91.1423 46.9102 96.2898 52.8602 97.1811 52.0002C98.0724 51.1402 94.6975 46.3302 90.6516 44.1002C86.6158 41.8702 79.5455 50.5502 79.5455 50.5502" stroke="#602B7A" stroke-linecap="round" stroke-linejoin="round"/>
<path d="M98.3328 106.85L83.7517 157.23C83.7517 157.23 55.1 167.8 27.7704 158.86C-16.564 144.36 2.78407 102.89 18.8174 87.3401C34.8406 71.8101 54.1687 61.1101 54.1687 61.1101L76.3509 77.1201C74.3881 78.2701 12.7385 120.37 41.3501 133.28C55.9613 139.87 98.3228 106.85 98.3228 106.85H98.3328Z" fill="white" stroke="#602B7A" stroke-linecap="round" stroke-linejoin="round"/>
<path d="M90.9721 118.11C90.9721 118.11 43.6334 149.26 33.3585 130.93C25.0864 116.19 54.5993 90.0601 66.4465 80.4101C68.8099 78.4901 68.7398 74.8701 66.3163 73.0201L54.2788 63.8701C54.2788 63.8701 -0.0300403 94.6601 2.91424 129.47C5.85851 164.28 74.0976 162.08 80.3367 156.22C86.5757 150.36 90.9821 118.11 90.9821 118.11H90.9721Z" fill="#E63417"/>
<path d="M155.886 217.77L89.1194 216.24C89.1194 216.24 69.4108 129.62 94.6274 108.78C102.429 102.33 112.684 98.72 126.143 100.35C138.201 101.81 147.124 106.23 153.683 112.3C161.765 119.77 164.739 133.84 165.1 149.33C165.841 180.66 155.886 217.77 155.886 217.77Z" fill="white" stroke="#602B7A" stroke-linecap="round" stroke-linejoin="round"/>
<path d="M122.538 102.17C143.268 102.66 157.579 110.96 161.805 134.78C166.031 158.6 161.434 183.33 161.434 183.33C161.434 183.33 157.949 215.21 150.429 215.21C142.908 215.21 91.1624 215.94 90.6116 215.03C90.0608 214.12 80.517 150.91 84.002 135.7C87.4871 120.49 91.7032 101.44 122.528 102.17H122.538Z" fill="#29235C"/>
<path d="M153.693 112.29C149.327 121.72 141.496 131.88 127.756 133.15C126.804 133.23 125.823 133.28 124.821 133.28C121.997 133.28 119.433 132.98 117.09 132.43C102.819 129.13 96.9708 116.82 94.6375 108.76C102.439 102.31 112.694 98.7 126.153 100.33C138.211 101.79 147.134 106.21 153.693 112.28V112.29Z" fill="white" stroke="#602B7A" stroke-linecap="round" stroke-linejoin="round"/>
<path d="M99.3543 108.27C97.9322 108.85 97.2512 110.47 97.8421 111.89C100.185 117.53 107.166 130.58 121.807 131.44C140.524 132.54 151.25 114.95 150.569 112.62C149.888 110.29 135.847 102.59 124.701 102.18C116.169 101.86 104.412 106.22 99.3643 108.28L99.3543 108.27Z" fill="#E63417"/>
<path d="M110.48 121.35L124.551 104.75L132.993 123.39L149.748 100.15L103.32 95.3L110.48 121.35Z" fill="white" stroke="#602B7A" stroke-linecap="round" stroke-linejoin="round"/>
<path d="M106.344 53.23C106.344 53.23 99.4344 53.61 97.1411 51.7C94.8478 49.79 88.5586 86.55 112.734 95.74" stroke="#602B7A" stroke-linecap="round" stroke-linejoin="round"/>
<path d="M119.053 109.34L128.256 109.6C128.256 109.6 127.615 120.71 122.628 119.94C117.641 119.17 119.043 109.34 119.043 109.34H119.053Z" fill="white" stroke="#602B7A" stroke-linecap="round" stroke-linejoin="round"/>
<path d="M127.756 133.16C126.804 133.24 125.823 133.29 124.821 133.29C121.997 133.29 119.433 132.99 117.09 132.44C118.672 122.13 119.824 117.77 119.824 117.77H125.963C125.963 117.77 127.175 124.73 127.756 133.15V133.16Z" fill="white" stroke="#602B7A" stroke-linecap="round" stroke-linejoin="round"/>
<path d="M124.651 122.22L119.564 125.5" stroke="#E63417" stroke-linecap="round" stroke-linejoin="round"/>
<path d="M124.992 126.52L119.904 129.8" stroke="#E63417" stroke-linecap="round" stroke-linejoin="round"/>
<path d="M68.4094 171.79L5.48798 59.1599" stroke="#602B7A" stroke-width="1.42" stroke-miterlimit="10" stroke-linecap="round" stroke-dasharray="0.3 8"/>
<path d="M173.532 95.1701L200.391 19.3101" stroke="#602B7A" stroke-width="1.42" stroke-miterlimit="10" stroke-linecap="round" stroke-dasharray="0.3 8"/>
<path d="M58.0543 37.7L49.2215 17.02" stroke="#602B7A" stroke-width="1.42" stroke-miterlimit="10" stroke-linecap="round" stroke-dasharray="0.3 8"/>
<path d="M184.92 78.5667L187.41 73.2709L189.703 74.3461C190.178 74.5685 190.55 74.8383 190.819 75.1555C191.091 75.4677 191.253 75.8113 191.305 76.1863C191.356 76.5614 191.288 76.9481 191.101 77.3465C190.916 77.74 190.663 78.0366 190.341 78.2366C190.019 78.4365 189.649 78.5343 189.233 78.5297C188.819 78.5202 188.374 78.4042 187.9 78.1818L186.288 77.4259L187.092 77.1292L186.146 79.1416L184.92 78.5667ZM187.028 77.2653L186.757 76.4273L188.301 77.1512C188.68 77.3287 189 77.3805 189.263 77.3066C189.525 77.2327 189.724 77.052 189.86 76.7646C189.997 76.472 190.01 76.2013 189.9 75.9524C189.789 75.7034 189.544 75.4903 189.166 75.3128L187.622 74.5889L188.44 74.2619L187.028 77.2653ZM190.299 81.0887L192.213 77.0184L193.341 77.5472L192.8 78.6972L192.798 78.2898C193.054 78.059 193.35 77.9332 193.686 77.9124C194.025 77.8864 194.386 77.9634 194.77 78.1432L194.257 79.2326C194.209 79.2039 194.165 79.1801 194.125 79.1612C194.087 79.1372 194.045 79.1146 194 79.0933C193.677 78.9419 193.37 78.9122 193.081 79.0041C192.799 79.0934 192.566 79.3323 192.384 79.7206L191.48 81.6423L190.299 81.0887ZM195.493 83.5973C195.028 83.3796 194.662 83.0972 194.394 82.75C194.132 82.4052 193.978 82.0315 193.933 81.6289C193.891 81.2212 193.964 80.8157 194.154 80.4122C194.346 80.0036 194.609 79.6868 194.943 79.4616C195.284 79.2338 195.66 79.1085 196.071 79.0857C196.484 79.0579 196.898 79.141 197.312 79.335C197.711 79.5219 198.028 79.7756 198.266 80.0962C198.51 80.414 198.651 80.7756 198.689 81.1809C198.728 81.5811 198.645 82.0006 198.439 82.4394C198.418 82.4848 198.39 82.5366 198.357 82.5947C198.325 82.6479 198.295 82.6984 198.267 82.7465L194.959 81.1957L195.283 80.5073L197.97 81.7671L197.42 81.7584C197.519 81.5466 197.563 81.3424 197.551 81.1458C197.538 80.9492 197.477 80.7726 197.366 80.6159C197.257 80.4541 197.102 80.3259 196.9 80.2313C196.698 80.1367 196.497 80.0981 196.298 80.1155C196.107 80.1303 195.93 80.1983 195.768 80.3194C195.609 80.4356 195.478 80.6021 195.376 80.8189L195.291 81.0005C195.187 81.2224 195.142 81.4416 195.157 81.6581C195.18 81.8718 195.258 82.0655 195.392 82.2391C195.533 82.41 195.725 82.5522 195.967 82.6658C196.184 82.7675 196.389 82.8234 196.581 82.8336C196.779 82.8461 196.976 82.8187 197.174 82.7514L197.482 83.7269C197.196 83.8512 196.884 83.9051 196.547 83.8886C196.213 83.8671 195.861 83.77 195.493 83.5973ZM199.617 85.5308C199.269 85.3676 198.952 85.1699 198.667 84.9378C198.389 84.703 198.187 84.4788 198.059 84.2652L198.852 83.6024C198.984 83.8059 199.158 84.0046 199.375 84.1986C199.599 84.3898 199.835 84.5434 200.082 84.6594C200.355 84.7871 200.562 84.8442 200.704 84.8307C200.85 84.8196 200.951 84.756 201.006 84.64C201.051 84.5441 201.039 84.4522 200.969 84.3643C200.907 84.2736 200.809 84.1814 200.674 84.0875C200.54 83.9937 200.39 83.8928 200.225 83.7848C200.066 83.6791 199.907 83.5647 199.749 83.4416C199.594 83.3134 199.463 83.1721 199.357 83.0177C199.251 82.8634 199.187 82.6918 199.165 82.5029C199.148 82.3165 199.194 82.1072 199.303 81.8752C199.424 81.618 199.604 81.4253 199.843 81.2972C200.087 81.1715 200.376 81.1194 200.711 81.1409C201.048 81.1574 201.413 81.2579 201.807 81.4424C202.085 81.5726 202.353 81.7353 202.612 81.9307C202.871 82.126 203.07 82.3267 203.207 82.5326L202.418 83.1878C202.276 82.9796 202.113 82.8079 201.931 82.6729C201.755 82.5353 201.574 82.4227 201.387 82.3352C201.125 82.2121 200.917 82.1575 200.762 82.1714C200.608 82.1852 200.505 82.2476 200.452 82.3586C200.405 82.4594 200.412 82.5552 200.474 82.6459C200.542 82.7389 200.641 82.8348 200.773 82.9337C200.905 83.0326 201.051 83.1348 201.211 83.2405C201.378 83.3435 201.539 83.459 201.695 83.5872C201.85 83.7154 201.978 83.8555 202.079 84.0075C202.187 84.1568 202.253 84.3259 202.275 84.5147C202.299 84.6985 202.257 84.9065 202.148 85.1385C202.029 85.3906 201.848 85.5796 201.604 85.7053C201.363 85.826 201.072 85.8744 200.732 85.8505C200.397 85.829 200.026 85.7224 199.617 85.5308ZM204.289 87.7212C203.825 87.5036 203.459 87.2211 203.191 86.874C202.928 86.5292 202.774 86.1555 202.73 85.7528C202.687 85.3452 202.761 84.9396 202.951 84.5361C203.143 84.1276 203.406 83.8107 203.739 83.5856C204.081 83.3577 204.457 83.2324 204.868 83.2097C205.281 83.1819 205.695 83.265 206.108 83.459C206.507 83.6459 206.825 83.8996 207.062 84.2201C207.307 84.538 207.448 84.8995 207.485 85.3048C207.525 85.7051 207.442 86.1246 207.235 86.5634C207.214 86.6088 207.187 86.6605 207.153 86.7187C207.122 86.7718 207.092 86.8224 207.063 86.8705L203.755 85.3197L204.079 84.6312L206.766 85.891L206.216 85.8824C206.316 85.6705 206.359 85.4663 206.347 85.2698C206.335 85.0732 206.273 84.8965 206.162 84.7398C206.053 84.5781 205.898 84.4499 205.696 84.3552C205.494 84.2606 205.294 84.222 205.095 84.2395C204.903 84.2542 204.726 84.3222 204.565 84.4434C204.405 84.5595 204.275 84.726 204.173 84.9429L204.087 85.1245C203.983 85.3464 203.938 85.5656 203.954 85.782C203.976 85.9958 204.055 86.1894 204.189 86.363C204.33 86.5339 204.522 86.6762 204.764 86.7897C204.981 86.8915 205.186 86.9474 205.378 86.9575C205.575 86.97 205.773 86.9427 205.971 86.8754L206.279 87.8508C205.993 87.9751 205.681 88.029 205.344 88.0126C205.009 87.991 204.657 87.8939 204.289 87.7212ZM207.072 88.9519L208.986 84.8817L210.113 85.4104L209.583 86.5377L209.531 86.0979C209.806 85.8941 210.114 85.783 210.455 85.7645C210.796 85.746 211.141 85.8183 211.489 85.9816C211.812 86.133 212.069 86.3334 212.26 86.5828C212.458 86.8296 212.567 87.1209 212.588 87.4568C212.611 87.7877 212.525 88.1599 212.331 88.5735L211.235 90.9037L210.054 90.3501L211.064 88.2015C211.218 87.8737 211.259 87.5973 211.186 87.3723C211.119 87.1497 210.953 86.9769 210.691 86.8539C210.504 86.7663 210.316 86.7274 210.127 86.7372C209.945 86.7442 209.773 86.8083 209.612 86.9295C209.455 87.053 209.317 87.2409 209.199 87.4931L208.253 89.5055L207.072 88.9519ZM213.942 92.2467C213.463 92.022 213.146 91.7259 212.993 91.3584C212.841 90.9859 212.88 90.5575 213.107 90.0733L214.786 86.5024L215.967 87.056L214.295 90.6118C214.215 90.7833 214.197 90.9382 214.243 91.0766C214.291 91.21 214.393 91.3133 214.55 91.3867C214.736 91.4742 214.919 91.4983 215.098 91.4589L215.024 92.4402C214.863 92.4691 214.686 92.4661 214.493 92.4311C214.307 92.3933 214.124 92.3319 213.942 92.2467ZM213.308 88.016L213.735 87.1082L216.558 88.4318L216.131 89.3397L213.308 88.016Z" fill="#374C92"/>
<path d="M184.058 89.365C183.634 89.1663 183.254 88.9204 182.918 88.6273C182.584 88.3291 182.341 88.0336 182.189 87.7409L183.039 87.013C183.191 87.2809 183.395 87.5399 183.653 87.7902C183.919 88.0377 184.21 88.236 184.528 88.3851C184.771 88.4986 184.975 88.567 185.143 88.5902C185.318 88.6108 185.461 88.5947 185.572 88.5421C185.683 88.4895 185.765 88.4077 185.817 88.2967C185.883 88.1555 185.88 88.0185 185.807 87.8858C185.736 87.748 185.622 87.6113 185.464 87.4757C185.308 87.335 185.13 87.19 184.93 87.0405C184.736 86.8883 184.545 86.7249 184.356 86.5502C184.173 86.3778 184.016 86.1936 183.886 85.9975C183.757 85.8013 183.677 85.5853 183.646 85.3493C183.621 85.1157 183.674 84.8577 183.807 84.5752C183.949 84.2726 184.159 84.0356 184.437 83.8641C184.722 83.69 185.063 83.6067 185.46 83.6142C185.864 83.6191 186.316 83.7386 186.815 83.9728C187.148 84.1289 187.457 84.3231 187.742 84.5552C188.03 84.7822 188.26 85.0319 188.434 85.3042L187.618 86.0573C187.437 85.8002 187.239 85.5808 187.022 85.3994C186.808 85.2128 186.583 85.064 186.345 84.9528C186.108 84.8416 185.901 84.7782 185.723 84.7627C185.546 84.7472 185.403 84.7695 185.295 84.8295C185.189 84.8845 185.109 84.97 185.054 85.086C184.99 85.2222 184.993 85.3592 185.064 85.497C185.137 85.6297 185.253 85.7639 185.411 85.8995C185.569 86.0351 185.744 86.179 185.937 86.3312C186.136 86.4857 186.328 86.6466 186.514 86.8139C186.705 86.9836 186.866 87.1665 186.995 87.3626C187.125 87.5587 187.202 87.7736 187.228 88.0072C187.259 88.2432 187.209 88.4999 187.078 88.7773C186.938 89.0749 186.727 89.3082 186.444 89.4773C186.162 89.6463 185.818 89.7284 185.414 89.7236C185.015 89.7211 184.563 89.6016 184.058 89.365ZM187.104 90.682L189.018 86.6118L190.198 87.1654L188.285 91.2356L187.104 90.682ZM189.875 86.3212C189.658 86.2194 189.511 86.0736 189.434 85.8836C189.357 85.6936 189.362 85.5054 189.45 85.3187C189.538 85.1321 189.679 85.0077 189.875 84.9455C190.07 84.8833 190.277 84.903 190.494 85.0048C190.711 85.1065 190.859 85.2498 190.938 85.4347C191.02 85.6146 191.017 85.7979 190.929 85.9845C190.837 86.1812 190.691 86.3132 190.494 86.3804C190.303 86.445 190.097 86.4253 189.875 86.3212ZM189.381 91.7494L191.294 87.6791L192.422 88.2079L191.899 89.32L191.84 88.8953C192.112 88.6842 192.41 88.5683 192.733 88.5478C193.065 88.5245 193.397 88.591 193.73 88.7471C194.103 88.9222 194.384 89.1706 194.571 89.4924C194.766 89.8115 194.817 90.1865 194.726 90.6174L194.363 90.3088C194.648 90.0549 194.984 89.9045 195.369 89.8574C195.76 89.8128 196.15 89.8815 196.538 90.0637C196.861 90.2151 197.115 90.4143 197.301 90.6614C197.494 90.9058 197.598 91.1947 197.614 91.5283C197.637 91.8592 197.551 92.2314 197.357 92.645L196.261 94.9751L195.08 94.4215L196.091 92.2729C196.245 91.9451 196.29 91.6711 196.228 91.4508C196.165 91.2306 196.01 91.0625 195.763 90.9466C195.591 90.8662 195.418 90.8344 195.244 90.8512C195.072 90.863 194.912 90.9293 194.762 91.0502C194.613 91.171 194.482 91.3525 194.368 91.5946L193.407 93.6373L192.227 93.0837L193.237 90.9351C193.391 90.6072 193.437 90.3332 193.374 90.113C193.316 89.8951 193.164 89.7282 192.917 89.6123C192.745 89.5319 192.572 89.5001 192.398 89.5169C192.226 89.5287 192.066 89.595 191.916 89.7158C191.767 89.8367 191.636 90.0182 191.522 90.2603L190.561 92.303L189.381 91.7494ZM199.698 96.6603C199.355 96.4995 199.09 96.283 198.904 96.0111C198.718 95.7391 198.624 95.415 198.622 95.0387C198.628 94.6598 198.742 94.2333 198.965 93.7591C199.191 93.28 199.444 92.9185 199.725 92.6748C200.005 92.431 200.31 92.2937 200.639 92.2631C200.967 92.2324 201.311 92.3011 201.669 92.4691C202.052 92.6489 202.354 92.898 202.574 93.2165C202.801 93.5323 202.929 93.8879 202.959 94.2834C202.994 94.6813 202.911 95.0921 202.712 95.5157C202.511 95.9445 202.245 96.2726 201.917 96.5001C201.593 96.73 201.237 96.8586 200.849 96.8857C200.465 96.9153 200.082 96.8401 199.698 96.6603ZM196.629 96.939L199.233 91.4011L200.361 91.9299L199.97 92.7621L199.378 93.9619L198.888 95.2003L197.81 97.4926L196.629 96.939ZM199.949 95.5961C200.146 95.6884 200.341 95.7246 200.535 95.7048C200.735 95.6874 200.919 95.6167 201.088 95.4929C201.264 95.3663 201.407 95.1871 201.516 94.9551C201.628 94.718 201.675 94.4938 201.657 94.2824C201.644 94.0734 201.581 93.8868 201.467 93.7227C201.359 93.5609 201.206 93.4339 201.009 93.3416C200.812 93.2494 200.614 93.212 200.415 93.2294C200.216 93.2468 200.032 93.3175 199.863 93.4414C199.694 93.5652 199.554 93.7457 199.442 93.9827C199.333 94.2147 199.284 94.4378 199.294 94.6518C199.306 94.8609 199.37 95.0474 199.483 95.2116C199.597 95.3757 199.752 95.5039 199.949 95.5961ZM202.546 97.9214L205.185 92.3079L206.366 92.8615L203.727 98.475L202.546 97.9214ZM206.815 99.9968C206.351 99.7792 205.985 99.4968 205.717 99.1496C205.454 98.8048 205.3 98.4311 205.256 98.0285C205.213 97.6208 205.287 97.2153 205.477 96.8118C205.669 96.4032 205.932 96.0864 206.265 95.8612C206.606 95.6334 206.983 95.5081 207.394 95.4853C207.807 95.4575 208.221 95.5406 208.634 95.7346C209.033 95.9215 209.351 96.1752 209.588 96.4957C209.833 96.8136 209.974 97.1752 210.011 97.5804C210.051 97.9807 209.968 98.4002 209.761 98.839C209.74 98.8844 209.713 98.9362 209.679 98.9943C209.648 99.0474 209.618 99.098 209.589 99.1461L206.281 97.5953L206.605 96.9069L209.292 98.1667L208.742 98.158C208.842 97.9462 208.885 97.742 208.873 97.5454C208.861 97.3488 208.799 97.1722 208.688 97.0155C208.579 96.8537 208.424 96.7255 208.222 96.6309C208.02 96.5362 207.82 96.4977 207.621 96.5151C207.429 96.5299 207.252 96.5978 207.091 96.719C206.931 96.8352 206.801 97.0017 206.699 97.2185L206.613 97.4001C206.509 97.622 206.464 97.8412 206.48 98.0576C206.502 98.2714 206.581 98.4651 206.715 98.6387C206.856 98.8096 207.048 98.9518 207.29 99.0654C207.507 99.1671 207.712 99.223 207.904 99.2332C208.101 99.2457 208.299 99.2183 208.497 99.151L208.805 100.126C208.519 100.251 208.207 100.305 207.87 100.288C207.535 100.267 207.183 100.17 206.815 99.9968Z" fill="#374C92"/>
<path d="M204.278 66.4368L206.768 61.141L207.994 61.7159L205.504 67.0117L204.278 66.4368ZM207.859 68.1158L209.88 63.8186L208.184 63.0237L208.654 62.025L213.271 64.1897L212.802 65.1884L211.106 64.3935L209.085 68.6907L207.859 68.1158Z" fill="#374C92"/>
<path d="M209.601 48.5938C209.178 48.3951 208.797 48.1491 208.461 47.856C208.127 47.5578 207.884 47.2624 207.732 46.9696L208.583 46.2418C208.734 46.5097 208.938 46.7687 209.196 47.0189C209.462 47.2665 209.754 47.4648 210.071 47.6138C210.314 47.7274 210.519 47.7958 210.686 47.819C210.861 47.8395 211.004 47.8235 211.115 47.7709C211.226 47.7182 211.308 47.6365 211.36 47.5255C211.427 47.3843 211.423 47.2473 211.35 47.1145C211.279 46.9768 211.165 46.8401 211.007 46.7045C210.852 46.5638 210.673 46.4187 210.473 46.2692C210.279 46.1171 210.088 45.9536 209.9 45.7789C209.716 45.6066 209.559 45.4224 209.43 45.2262C209.3 45.0301 209.22 44.8141 209.189 44.5781C209.164 44.3444 209.217 44.0864 209.35 43.804C209.492 43.5014 209.702 43.2643 209.98 43.0929C210.265 42.9188 210.606 42.8355 211.003 42.843C211.407 42.8478 211.859 42.9674 212.359 43.2016C212.692 43.3577 213.001 43.5518 213.286 43.7839C213.573 44.011 213.804 44.2607 213.977 44.533L213.161 45.2861C212.98 45.0289 212.782 44.8096 212.565 44.6281C212.351 44.4416 212.126 44.2927 211.889 44.1815C211.651 44.0703 211.444 44.007 211.267 43.9915C211.089 43.976 210.946 43.9983 210.838 44.0583C210.732 44.1133 210.652 44.1988 210.597 44.3148C210.533 44.451 210.537 44.588 210.607 44.7257C210.68 44.8585 210.796 44.9927 210.954 45.1283C211.112 45.2639 211.287 45.4078 211.481 45.5599C211.679 45.7145 211.871 45.8754 212.057 46.0427C212.249 46.2123 212.409 46.3952 212.538 46.5913C212.668 46.7875 212.745 47.0024 212.771 47.236C212.802 47.472 212.752 47.7286 212.622 48.006C212.482 48.3036 212.27 48.5369 211.988 48.706C211.705 48.8751 211.361 48.9572 210.957 48.9524C210.558 48.9499 210.106 48.8304 209.601 48.5938ZM216.364 51.6532L218.854 46.3573L220.08 46.9322L217.59 52.228L216.364 51.6532ZM212.73 49.9498L215.22 44.654L216.446 45.2288L213.956 50.5247L212.73 49.9498ZM214.887 48.3108L215.374 47.2743L217.963 48.488L217.475 49.5245L214.887 48.3108ZM218.843 52.8158L221.333 47.5199L225.338 49.3972L224.875 50.3807L222.09 49.0748L220.525 52.4036L223.408 53.7556L222.946 54.7392L218.843 52.8158ZM221.01 51.1354L221.458 50.1822L224.009 51.3781L223.561 52.3313L221.01 51.1354Z" fill="#374C92"/>
<path d="M222.582 35.0101L225.072 29.7142L226.299 30.2891L223.809 35.5849L222.582 35.0101ZM218.949 33.3067L221.439 28.0109L222.665 28.5857L220.175 33.8816L218.949 33.3067ZM221.105 31.6677L221.593 30.6312L224.182 31.8449L223.694 32.8813L221.105 31.6677ZM225.062 36.1727L227.552 30.8768L231.557 32.7541L231.094 33.7376L228.309 32.4317L226.743 35.7605L229.627 37.1125L229.165 38.096L225.062 36.1727ZM227.229 34.4923L227.677 33.539L230.228 34.735L229.78 35.6882L227.229 34.4923Z" fill="#374C92"/>
<path d="M17.7753 44.6582L17.2416 38.2764L18.4144 37.6331L23.5292 41.5021L22.2832 42.1856L17.9166 38.6881L18.3857 38.4308L18.9921 43.9908L17.7753 44.6582ZM18.3144 42.9323L18.1339 41.8584L20.7727 40.4111L21.5908 41.1351L18.3144 42.9323ZM24.0615 41.2102L21.241 36.0828L23.7478 34.7078C24.3928 34.354 24.9437 34.2107 25.4005 34.278C25.8622 34.3426 26.2032 34.5751 26.4235 34.9755C26.5712 35.2441 26.6342 35.5147 26.6124 35.7872C26.5879 36.0549 26.4904 36.3055 26.3198 36.5389C26.1493 36.7723 25.9149 36.9707 25.6169 37.1342L25.5909 36.7575C25.9134 36.5806 26.2288 36.4776 26.5372 36.4483C26.8428 36.4141 27.1204 36.4621 27.3701 36.5921C27.6246 36.7195 27.8338 36.9321 27.9977 37.23C28.2394 37.6695 28.2553 38.1089 28.0454 38.5483C27.8328 38.9827 27.3893 39.3849 26.7149 39.7548L24.0615 41.2102ZM24.7501 39.6692L26.1354 38.9094C26.4432 38.7405 26.6485 38.5644 26.7511 38.3809C26.856 38.19 26.848 37.9846 26.7271 37.7648C26.6089 37.55 26.4409 37.4355 26.2233 37.4214C26.0078 37.3997 25.7462 37.4733 25.4383 37.6422L23.965 38.4503L23.4895 37.586L24.7576 36.8904C25.0459 36.7323 25.2389 36.5628 25.3367 36.3821C25.4366 36.1938 25.4302 35.9971 25.3174 35.792C25.2073 35.5918 25.0471 35.4857 24.837 35.4738C24.6292 35.4543 24.3811 35.5237 24.0927 35.6818L22.9126 36.3291L24.7501 39.6692ZM32.1701 36.877C31.7743 37.0941 31.3704 37.233 30.9585 37.2937C30.5488 37.3467 30.1536 37.322 29.7727 37.2194C29.3919 37.1168 29.042 36.9433 28.723 36.6987C28.4088 36.4514 28.1457 36.1349 27.9335 35.7492C27.7212 35.3634 27.5949 34.9718 27.5544 34.5745C27.5188 34.1745 27.5598 33.7865 27.6774 33.4105C27.7999 33.0318 27.9948 32.6866 28.2621 32.3747C28.5268 32.0579 28.8594 31.7896 29.2601 31.5698C29.7048 31.3259 30.1485 31.1842 30.5912 31.1449C31.036 31.0979 31.4626 31.1563 31.8708 31.3202L31.4953 32.4415C31.2092 32.3378 30.9318 32.2961 30.6631 32.3163C30.3917 32.3317 30.1289 32.4091 29.8748 32.5485C29.6354 32.6798 29.437 32.8395 29.2796 33.0275C29.1223 33.2155 29.0106 33.423 28.9446 33.6499C28.8786 33.8768 28.8591 34.1131 28.8861 34.3589C28.9181 34.602 29.0012 34.8456 29.1355 35.0898C29.2699 35.334 29.4312 35.5347 29.6195 35.692C29.8127 35.8467 30.0229 35.9571 30.2501 36.0232C30.4773 36.0892 30.7125 36.1064 30.9559 36.0746C31.1992 36.0429 31.4406 35.9613 31.68 35.83C31.9341 35.6906 32.1418 35.5131 32.3031 35.2976C32.4617 35.0771 32.5725 34.816 32.6356 34.5145L33.7847 34.7995C33.7043 35.2314 33.5262 35.6247 33.2506 35.9793C32.9798 36.3312 32.6197 36.6304 32.1701 36.877Z" fill="#374C92"/>
<path d="M60.2109 112.309L56.4393 105.453L58.4257 104.364L58.9173 105.257L58.0744 105.72L60.8627 110.789L61.7057 110.326L62.1972 111.22L60.2109 112.309ZM66.1122 107.299C65.6627 107.546 65.2185 107.675 64.7797 107.687C64.3459 107.696 63.9528 107.6 63.6006 107.399C63.2456 107.193 62.9607 106.895 62.7458 106.504C62.5282 106.109 62.4266 105.71 62.4408 105.308C62.4573 104.899 62.5773 104.521 62.8009 104.176C63.0218 103.826 63.3326 103.541 63.7333 103.321C64.1194 103.11 64.512 103.002 64.9112 103C65.3125 102.989 65.6883 103.088 66.0383 103.297C66.3856 103.5 66.6762 103.815 66.9099 104.239C66.9341 104.283 66.9598 104.336 66.9872 104.397C67.0118 104.454 67.0351 104.508 67.0571 104.559L63.854 106.316L63.4873 105.649L66.0894 104.222L65.7584 104.661C65.6456 104.456 65.506 104.301 65.3397 104.195C65.1733 104.089 64.994 104.035 64.8017 104.032C64.6068 104.025 64.4116 104.075 64.2161 104.182C64.0207 104.289 63.8714 104.428 63.7682 104.599C63.6673 104.762 63.6183 104.945 63.6212 105.147C63.6214 105.344 63.6792 105.547 63.7948 105.757L63.8915 105.933C64.0097 106.148 64.1608 106.313 64.345 106.428C64.5314 106.536 64.7343 106.586 64.9537 106.58C65.1752 106.567 65.4033 106.496 65.6379 106.367C65.848 106.252 66.0138 106.12 66.1352 105.971C66.2615 105.819 66.3558 105.643 66.4179 105.444L67.3889 105.769C67.3209 106.073 67.181 106.357 66.9691 106.619C66.7546 106.877 66.4689 107.103 66.1122 107.299ZM68.747 105.778L66.5792 101.837L67.7226 101.21L69.8904 105.15L68.747 105.778ZM66.8487 100.974C66.6386 101.089 66.434 101.122 66.2349 101.072C66.0358 101.022 65.8865 100.907 65.7871 100.727C65.6878 100.546 65.6704 100.358 65.7352 100.164C65.8 99.9694 65.9375 99.8145 66.1476 99.6993C66.3577 99.584 66.561 99.5488 66.7574 99.5936C66.9511 99.6336 67.0976 99.7439 67.197 99.9246C67.3018 100.115 67.3231 100.31 67.261 100.509C67.2012 100.701 67.0637 100.856 66.8487 100.974ZM73.3914 105.08L72.8998 104.186L73.7354 103.728L70.947 98.6591L70.1115 99.1174L69.6199 98.2238L71.5989 97.1383L75.3704 103.994L73.3914 105.08Z" fill="#374C92"/>
<path d="M27.4772 59.21L28.0113 54.9601L28.4868 55.8244L24.7519 54.0304L26.1006 53.2906L28.6915 54.5488L28.1312 54.8657L28.4315 52.0121L29.7215 51.3045L29.2209 55.355L28.7535 54.5053L32.6667 56.3636L31.2961 57.1154L28.5894 55.7681L29.1318 55.4706L28.8406 58.4622L27.4772 59.21ZM34.3496 55.4405L33.1972 53.3456L33.8633 53.9147L29.5427 51.4026L30.8034 50.7111L34.1168 52.641L33.3911 53.039L33.5447 49.2075L34.7102 48.5682L34.5156 53.5569L34.3846 52.6943L35.537 54.7892L34.3496 55.4405ZM37.6977 53.6041L37.2746 52.8349L38.3451 47.2705L38.7294 47.6223L35.4677 49.4114L34.9358 48.4445L39.253 46.0765L39.6761 46.8456L38.613 52.406L38.2287 52.0542L41.6517 50.1767L42.1836 51.1436L37.6977 53.6041Z" fill="#374C92"/>
<path d="M74.0221 12.3218L72.5985 6.6456L73.9123 6.31703L75.3359 11.9932L74.0221 12.3218ZM81.5673 10.4349L81.3537 9.58349L81.2259 9.41727L80.8435 7.8928C80.7757 7.62251 80.639 7.43264 80.4335 7.32319C80.2333 7.21239 79.9629 7.19958 79.6223 7.28476C79.3898 7.3429 79.1695 7.43821 78.9614 7.57068C78.7573 7.69639 78.5925 7.84103 78.4669 8.00457L77.791 7.23429C77.9869 7.00721 78.2409 6.80581 78.5531 6.63007C78.8652 6.45434 79.1944 6.32321 79.5404 6.23667C80.2054 6.07036 80.7611 6.098 81.2074 6.3196C81.6537 6.5412 81.9602 6.98446 82.127 7.64939L82.7514 10.1388L81.5673 10.4349ZM80.2535 10.8324C79.9128 10.9176 79.6066 10.9339 79.3348 10.8812C79.0617 10.8231 78.8352 10.7103 78.6552 10.5427C78.4753 10.3751 78.3542 10.167 78.2918 9.91834C78.2267 9.65885 78.232 9.41626 78.3075 9.19054C78.3885 8.96348 78.5533 8.76141 78.8019 8.58433C79.0492 8.40185 79.3945 8.25517 79.8378 8.1443L80.9976 7.85427L81.1827 8.59217L80.1608 8.84773C79.8634 8.92209 79.6701 9.02213 79.581 9.14783C79.4973 9.27218 79.4737 9.40733 79.5103 9.55329C79.551 9.71547 79.6457 9.82966 79.7945 9.89587C79.9473 9.95532 80.1345 9.95732 80.3562 9.90188C80.5671 9.84915 80.7441 9.75317 80.8873 9.61395C81.0292 9.46932 81.1135 9.29024 81.1404 9.0767L81.4815 9.61186C81.4601 9.91595 81.346 10.1714 81.1393 10.3782C80.9326 10.585 80.6373 10.7364 80.2535 10.8324ZM83.8964 9.85245L82.8023 5.48989L84.0107 5.18769L84.3097 6.37969L83.9951 6.0878C84.0719 5.75261 84.2293 5.47486 84.467 5.25454C84.7089 5.02746 85.0082 4.86929 85.3651 4.78005C85.7652 4.68 86.1397 4.6955 86.4886 4.82656C86.8415 4.95085 87.1189 5.20896 87.3206 5.60088L86.844 5.5908C86.9046 5.21372 87.0693 4.88528 87.3381 4.60549C87.6124 4.32434 87.9576 4.13171 88.374 4.0276C88.72 3.94106 89.0431 3.93494 89.3433 4.00924C89.6475 4.07678 89.9113 4.23488 90.1345 4.48354C90.3618 4.72543 90.5311 5.06802 90.6423 5.5113L91.2686 8.00883L90.0034 8.32523L89.4259 6.02231C89.3377 5.67093 89.1997 5.4297 89.0116 5.29862C88.8236 5.16755 88.5972 5.13514 88.3322 5.20139C88.1484 5.24736 87.9943 5.33185 87.87 5.45485C87.7444 5.57245 87.662 5.72518 87.623 5.91304C87.5839 6.10091 87.5969 6.32458 87.662 6.58407L88.2111 8.77346L86.9459 9.08985L86.3683 6.78694C86.2802 6.43556 86.1421 6.19433 85.9541 6.06325C85.7715 5.93082 85.5477 5.89774 85.2828 5.96399C85.0989 6.00996 84.9449 6.09445 84.8206 6.21745C84.6949 6.33505 84.6126 6.48778 84.5735 6.67564C84.5344 6.86351 84.5474 7.08718 84.6125 7.34666L85.1616 9.53605L83.8964 9.85245Z" fill="#E63417"/>
<path d="M73.806 22.7258L73.5925 21.8744L73.4646 21.7082L73.0823 20.1837C73.0145 19.9134 72.8778 19.7235 72.6722 19.6141C72.472 19.5033 72.2016 19.4905 71.861 19.5757C71.6285 19.6338 71.4082 19.7291 71.2001 19.8616C70.9961 19.9873 70.8312 20.1319 70.7056 20.2955L70.0298 19.5252C70.2256 19.2981 70.4797 19.0967 70.7918 18.921C71.104 18.7453 71.4331 18.6141 71.7791 18.5276C72.4442 18.3613 72.9999 18.3889 73.4462 18.6105C73.8925 18.8321 74.199 19.2754 74.3658 19.9403L74.9901 22.4297L73.806 22.7258ZM72.4922 23.1233C72.1516 23.2085 71.8454 23.2248 71.5736 23.1721C71.3005 23.114 71.0739 23.0012 70.894 22.8336C70.7141 22.666 70.5929 22.4579 70.5306 22.2092C70.4655 21.9498 70.4707 21.7072 70.5463 21.4815C70.6272 21.2544 70.792 21.0523 71.0406 20.8752C71.2879 20.6928 71.6332 20.5461 72.0766 20.4352L73.2364 20.1452L73.4214 20.8831L72.3995 21.1386C72.1022 21.213 71.9089 21.313 71.8198 21.4387C71.736 21.5631 71.7125 21.6982 71.7491 21.8442C71.7898 22.0064 71.8845 22.1206 72.0332 22.1868C72.186 22.2462 72.3733 22.2482 72.595 22.1928C72.8058 22.1401 72.9829 22.0441 73.1261 21.9049C73.2679 21.7602 73.3523 21.5812 73.3792 21.3676L73.7203 21.9028C73.6989 22.2069 73.5848 22.4623 73.3781 22.6691C73.1714 22.8759 72.8761 23.0273 72.4922 23.1233ZM81.0274 20.9889C80.6597 21.0808 80.3177 21.0802 80.0012 20.987C79.6848 20.8938 79.4068 20.7019 79.1673 20.4113C78.9319 20.114 78.7504 19.7113 78.623 19.2031C78.4942 18.6896 78.4614 18.2497 78.5247 17.8834C78.588 17.5171 78.7372 17.2184 78.9722 16.9873C79.2073 16.7561 79.5168 16.5926 79.9007 16.4966C80.3116 16.3938 80.703 16.3965 81.0748 16.5046C81.4508 16.6059 81.7754 16.8005 82.0487 17.0883C82.3274 17.3748 82.5237 17.7451 82.6376 18.1992C82.7528 18.6587 82.7551 19.0804 82.6446 19.4642C82.5394 19.8467 82.3449 20.1711 82.0612 20.4373C81.7829 20.7023 81.4383 20.8861 81.0274 20.9889ZM78.8266 23.1421L77.3379 17.2064L78.5463 16.9042L78.77 17.7962L79.0711 19.0997L79.4756 20.3687L80.0918 22.8257L78.8266 23.1421ZM80.5481 20.0057C80.7589 19.953 80.9333 19.8577 81.0711 19.7198C81.2143 19.5806 81.3122 19.4096 81.3647 19.2069C81.4214 18.9974 81.4185 18.7683 81.3561 18.5196C81.2924 18.2656 81.1868 18.0622 81.0394 17.9095C80.8973 17.7554 80.7302 17.6507 80.5382 17.5953C80.3516 17.5385 80.1529 17.5365 79.942 17.5893C79.7311 17.642 79.5541 17.738 79.4109 17.8772C79.2677 18.0164 79.1698 18.1874 79.1172 18.3901C79.0646 18.5929 79.0702 18.8213 79.1339 19.0754C79.1963 19.324 79.2992 19.5281 79.4426 19.6876C79.5847 19.8416 79.7517 19.9463 79.9437 20.0017C80.1358 20.0571 80.3372 20.0584 80.5481 20.0057ZM85.8889 19.7731C85.5266 19.8637 85.1846 19.8746 84.8628 19.8057C84.5464 19.7354 84.2738 19.5767 84.0452 19.3294C83.8152 19.0767 83.6439 18.726 83.5314 18.2773L82.9131 15.8122L84.1783 15.4958L84.7498 17.7744C84.8406 18.1366 84.9834 18.3852 85.1782 18.5204C85.377 18.6487 85.617 18.6778 85.8982 18.6074C86.0928 18.5588 86.2557 18.475 86.3867 18.356C86.5164 18.2317 86.6028 18.0722 86.646 17.8775C86.6877 17.6775 86.6754 17.4451 86.609 17.1802L86.068 15.0232L87.3332 14.7068L88.4273 19.0694L87.227 19.3696L86.926 18.1694L87.2325 18.4634C87.1624 18.8026 87.0038 19.0864 86.7565 19.3149C86.5133 19.5365 86.2241 19.6893 85.8889 19.7731ZM92.1948 18.1962C91.8271 18.2881 91.4851 18.2875 91.1687 18.1943C90.8522 18.101 90.5743 17.9092 90.3348 17.6186C90.0993 17.3213 89.9179 16.9186 89.7904 16.4104C89.6616 15.8969 89.6289 15.4569 89.6921 15.0907C89.7554 14.7244 89.9046 14.4257 90.1397 14.1946C90.3747 13.9634 90.6842 13.7999 91.0681 13.7039C91.479 13.6011 91.8704 13.6038 92.2423 13.7118C92.6182 13.8132 92.9428 14.0077 93.2161 14.2956C93.4948 14.5821 93.6911 14.9524 93.805 15.4065C93.9202 15.866 93.9226 16.2876 93.812 16.6715C93.7068 17.054 93.5124 17.3784 93.2286 17.6446C92.9503 17.9096 92.6057 18.0934 92.1948 18.1962ZM89.994 20.3494L88.5053 14.4137L89.7137 14.1115L89.9374 15.0035L90.2385 16.307L90.643 17.576L91.2592 20.033L89.994 20.3494ZM91.7155 17.213C91.9264 17.1603 92.1007 17.065 92.2385 16.9271C92.3817 16.7879 92.4796 16.6169 92.5322 16.4142C92.5888 16.2047 92.5859 15.9756 92.5236 15.7269C92.4598 15.4728 92.3542 15.2694 92.2068 15.1167C92.0647 14.9627 91.8977 14.858 91.7057 14.8026C91.519 14.7458 91.3203 14.7438 91.1094 14.7966C90.8986 14.8493 90.7215 14.9453 90.5783 15.0845C90.4351 15.2237 90.3372 15.3947 90.2846 15.5974C90.2321 15.8002 90.2376 16.0286 90.3014 16.2826C90.3637 16.5313 90.4666 16.7354 90.61 16.8948C90.7521 17.0489 90.9192 17.1536 91.1112 17.209C91.3032 17.2644 91.5046 17.2657 91.7155 17.213ZM95.199 17.3759L94.1049 13.0134L95.3701 12.697L96.4642 17.0595L95.199 17.3759ZM94.5849 12.247C94.3524 12.3052 94.1463 12.2849 93.9664 12.1863C93.7865 12.0876 93.6715 11.9383 93.6213 11.7383C93.5711 11.5383 93.6021 11.3524 93.7142 11.1808C93.8263 11.0091 93.9986 10.8942 94.2311 10.8361C94.4636 10.7779 94.6691 10.7955 94.8476 10.8887C95.0248 10.9765 95.1384 11.1205 95.1886 11.3205C95.2415 11.5313 95.2125 11.7253 95.1018 11.9023C94.9951 12.0726 94.8228 12.1875 94.5849 12.247ZM97.6384 16.7659L96.1294 10.7491L97.3946 10.4327L98.9036 16.4495L97.6384 16.7659Z" fill="#E63417"/>
<path d="M117.861 84.12C109.85 76.36 109.799 60.95 111.482 49.93C113.675 35.53 118.392 26.06 134.325 25.2C154.695 24.1 171.519 41.14 151.109 75.22C140.184 93.46 125.252 91.28 117.861 84.12Z" fill="#374C92"/>
<path d="M148.365 74.82C151.37 74.81 153.783 72.37 153.773 69.37C153.763 66.37 151.32 63.96 148.315 63.97C145.311 63.98 142.897 66.42 142.908 69.42C142.918 72.42 145.361 74.83 148.365 74.82Z" fill="white" stroke="#602B7A" stroke-linecap="round" stroke-linejoin="round"/>
<path d="M115.708 66.6601C118.712 66.6501 121.126 64.2101 121.116 61.2101C121.106 58.2101 118.662 55.8001 115.658 55.8101C112.654 55.8201 110.24 58.2601 110.25 61.2601C110.26 64.2601 112.704 66.6701 115.708 66.6601Z" fill="white" stroke="#602B7A" stroke-linecap="round" stroke-linejoin="round"/>
<path d="M152.046 55.4824C154.539 46.5958 149.348 37.3743 140.451 34.8855C131.554 32.3967 122.321 37.5831 119.828 46.4697L110.199 80.7884C107.706 89.6749 112.897 98.8965 121.794 101.385C130.691 103.874 139.924 98.6876 142.418 89.8011L152.046 55.4824Z" fill="white" stroke="#602B7A" stroke-linecap="round" stroke-linejoin="round"/>
<path d="M120.615 86.3301C120.615 86.3301 120.866 88.8101 125.362 90.1801C130.359 91.1801 132.983 88.8301 132.983 88.8301" stroke="#602B7A" stroke-linecap="round" stroke-linejoin="round"/>
<path d="M146.333 57.49C146.333 57.49 144.9 57.63 143.689 57.07C142.477 56.51 141.586 55.29 141.586 55.29" stroke="#602B7A" stroke-linecap="round" stroke-linejoin="round"/>
<path d="M133.063 61.8801L125.492 73.3301L131.451 74.4801" stroke="#602B7A" stroke-linecap="round" stroke-linejoin="round"/>
<path d="M104.912 76.6001C104.912 76.6001 106.024 83.4701 115.838 86.3701C125.662 89.2701 128.877 81.8701 127.986 79.5501C127.085 77.2301 123.7 74.6401 119.153 76.3601C114.606 78.0801 114.376 81.9801 104.902 76.6101L104.912 76.6001Z" fill="#2F2535"/>
<path d="M151.36 84.9803C151.36 84.9803 147.915 91.0303 137.7 90.3103C127.485 89.5903 127.065 81.5303 128.717 79.6703C130.369 77.8103 134.455 76.5703 138.101 79.7703C141.756 82.9703 140.604 86.7003 151.36 84.9803Z" fill="#2F2535"/>
<path d="M142.998 63.01C142.657 64.6 141.616 65.74 140.674 65.54C139.863 65.37 139.392 64.26 139.493 62.93C139.503 62.72 139.543 62.5 139.593 62.29C139.643 62.08 139.693 61.85 139.773 61.65C140.224 60.4 141.105 59.58 141.916 59.75C142.857 59.95 143.348 61.4 143.008 63.01H142.998Z" fill="#602B7A"/>
<path d="M141.065 62.6001C140.995 62.9401 140.284 63.0901 139.492 62.9301C139.502 62.7201 139.543 62.5001 139.593 62.2901C139.643 62.0801 139.693 61.8501 139.773 61.6501C140.564 61.8301 141.145 62.2601 141.075 62.6001H141.065Z" fill="white"/>
<path d="M126.804 59.5701C126.464 61.1601 125.422 62.3001 124.481 62.1001C123.67 61.9301 123.199 60.8201 123.299 59.4901C123.309 59.2801 123.349 59.0601 123.399 58.8501C123.449 58.6401 123.499 58.4101 123.579 58.2101C124.03 56.9601 124.911 56.1401 125.723 56.3101C126.664 56.5101 127.155 57.9601 126.814 59.5701H126.804Z" fill="#602B7A"/>
<path d="M124.871 59.1602C124.801 59.5002 124.09 59.6502 123.299 59.4902C123.309 59.2802 123.349 59.0602 123.399 58.8502C123.449 58.6402 123.499 58.4102 123.579 58.2102C124.371 58.3902 124.951 58.8202 124.881 59.1602H124.871Z" fill="white"/>
<path d="M131.291 50.0202C131.291 50.0202 130.079 49.1802 128.727 49.0802C127.365 48.9802 125.953 49.6202 125.953 49.6202" stroke="#602B7A" stroke-linecap="round" stroke-linejoin="round"/>
<path d="M165.31 18.3L160.012 41.37C144.95 44.44 129.057 40.8 116.85 31.47L122.167 8.30002C123.029 4.56002 127.155 2.63002 130.58 4.34002C135.547 6.83002 141.996 9.87002 145.171 10.6C148.015 11.25 154.274 11.23 159.371 11.08C163.237 10.97 166.161 14.54 165.3 18.3H165.31Z" fill="#2F2535"/>
<path d="M170.447 45.3801L163.357 47.0901C154.294 49.2801 144.91 49.2601 135.987 47.2201C127.105 45.1901 118.702 41.1601 111.522 35.3101L105.713 30.5701C104.362 29.4701 104.161 27.4801 105.263 26.1301C106.364 24.7801 108.367 24.5801 109.709 25.6801L115.518 30.4201C115.958 30.7801 116.409 31.1301 116.86 31.4701C129.067 40.8001 144.96 44.4301 160.022 41.3701C160.643 41.2401 161.254 41.1101 161.875 40.9601L168.965 39.2501C170.668 38.8401 172.37 39.8801 172.781 41.5701C173.181 43.2701 172.15 44.9701 170.447 45.3801Z" fill="#2F2535"/>
<path d="M115.628 69.25C122.06 69.25 127.275 64.0431 127.275 57.62C127.275 51.1969 122.06 45.99 115.628 45.99C109.196 45.99 103.981 51.1969 103.981 57.62C103.981 64.0431 109.196 69.25 115.628 69.25Z" fill="white" stroke="#602B7A" stroke-linecap="round" stroke-linejoin="round"/>
<path d="M115.628 66.99C120.81 66.99 125.012 62.7949 125.012 57.62C125.012 52.4451 120.81 48.25 115.628 48.25C110.446 48.25 106.244 52.4451 106.244 57.62C106.244 62.7949 110.446 66.99 115.628 66.99Z" fill="white" stroke="#602B7A" stroke-linecap="round" stroke-linejoin="round"/>
<path d="M119.504 51.77L108.718 58.71" stroke="#99D5E6" stroke-linecap="round" stroke-linejoin="round"/>
<path d="M120.134 57.9399L113.244 62.3799" stroke="#99D5E6" stroke-linecap="round" stroke-linejoin="round"/>
<path d="M63.3821 173.87L71.1333 166.83L124.01 193.58L179.811 165.67L187.492 172.18L122.608 206.25L63.3821 173.87Z" fill="white" stroke="#602B7A" stroke-linecap="round" stroke-linejoin="round"/>
<path d="M55.6208 166.74L124.03 202.85L194.392 166.05L183.266 240.38L124.03 256.24L59.0357 240.38L55.6208 166.74Z" fill="#374C92"/>
<path d="M117.32 199.92H129.478L128.416 258H118.903L117.32 199.92Z" fill="#29235C"/>
<path d="M95.8693 209.15V230.73L76.5712 222.69V203.63L95.8693 209.15Z" fill="#374C92"/>
<path d="M95.8693 209.15L94.2068 208.68L87.1967 213.66V206.67L84.0721 205.78V212.63L77.8931 204L76.5712 203.63V205.08L81.7988 212.48L76.5712 210.73V215.41L81.959 217.39L76.5712 221.23V222.69L77.8931 223.24L84.0721 218.96V225.81L87.1967 227.12V220.12L94.2068 230.04L95.8693 230.73V229.08L89.4599 220.14L95.8693 222.49V217.19L89.6402 215.11L95.8693 210.8V209.15Z" fill="white"/>
<path d="M95.8693 209.77V209.15L95.2283 208.97L87.4771 214.38L87.1967 214.57L86.3554 215.16V214.26V214.01L86.3354 206.42L84.713 205.96L84.7331 213.46V213.55V214.51L84.0721 213.59L83.7517 213.13L77.0619 203.77L76.5712 203.63V204.17L82.6801 212.78L83.7817 214.33L76.5712 211.86V214.29L83.8518 216.91L82.7502 217.68L76.5712 221.99V222.69L76.9217 222.83L83.8218 218.07L84.0721 217.9L84.7431 217.44V218.41V218.49V218.5L84.7631 226.1L86.3955 226.78L86.3654 219.01V218.95V217.97L87.1967 219.14L87.3669 219.37L95.2383 230.47L95.8693 230.73V230.11L88.4986 219.79L87.3369 218.16L95.8693 221.22V218.47L87.437 215.58L88.6187 214.77L95.8693 209.77Z" fill="#E63417"/>
<path d="M117.32 199.92C117.32 199.92 119.003 194.31 123.99 194.51C128.977 194.7 129.478 199.92 129.478 199.92H117.32Z" fill="#99D5E6"/>
<path d="M127.255 195.65L179.05 169.22" stroke="#99D5E6" stroke-linecap="round" stroke-linejoin="round"/>
<path d="M129.168 197.57L180.963 171.14" stroke="#99D5E6" stroke-linecap="round" stroke-linejoin="round"/>
<path d="M71.2335 169.22L120.725 194.89" stroke="#99D5E6" stroke-linecap="round" stroke-linejoin="round"/>
<path d="M69.3207 170.75L119.193 197.19" stroke="#99D5E6" stroke-linecap="round" stroke-linejoin="round"/>
<path d="M160.563 227.73C154.965 229.13 150.268 227.52 145.291 225.89C141.195 224.55 137.52 222.73 133.394 220.47C132.943 220.22 132.663 219.69 132.813 219.2C132.893 218.94 133.073 218.8 133.394 218.96C138.601 219.98 148.596 221.87 153.223 222.04C157.268 222.19 163.988 223.33 168.184 222.19C172.511 221.01 165.851 226.41 160.553 227.74L160.563 227.73Z" fill="white" stroke="#602B7A" stroke-linecap="round" stroke-linejoin="round"/>
<path d="M190.286 231.29C190.286 231.29 144.82 242.59 135.216 246.13C126.293 249.41 129.037 243.54 144.189 239.33C144.189 239.33 119.103 248.74 118.612 246.89C118.122 245.04 142.938 236.09 142.938 236.09C142.938 236.09 115.227 244.61 114.687 242.57C114.146 240.53 141.626 232.67 141.626 232.67C141.626 232.67 116.79 240.03 115.878 238.1C114.967 236.17 140.324 229.25 140.324 229.25L185.069 218.4L190.276 231.29H190.286Z" fill="white" stroke="#602B7A" stroke-linecap="round" stroke-linejoin="round"/>
<path d="M231.857 184.82C220.35 224.48 172.01 248.04 172.01 248.04L169.706 218.16C169.706 218.16 200.091 193.45 201.813 171.61C203.265 153.31 174.473 149.95 165.12 149.33C164.759 133.84 161.795 119.78 153.703 112.3C195.244 115.05 243.834 143.58 231.867 184.82H231.857Z" fill="white" stroke="#602B7A" stroke-linecap="round" stroke-linejoin="round"/>
<path d="M171.229 168.73L240.289 67.5901" stroke="#602B7A" stroke-width="1.42" stroke-miterlimit="10" stroke-linecap="round" stroke-dasharray="0.3 8"/>
<path d="M228.802 119.28L225.137 120.56L223.735 124.34L222.413 120.64L218.668 119.28L222.453 117.88L223.735 114.22L225.097 117.96L228.802 119.28Z" fill="#602B7A"/>
<path d="M90.1008 84.6501L86.4355 85.9401L85.0335 89.7101L83.7116 86.0201L79.9661 84.6501L83.7516 83.2501L85.0335 79.6001L86.3955 83.3301L90.1008 84.6501Z" fill="#602B7A"/>
<path d="M181.343 6.29988L178.689 7.22988L177.668 9.97988L176.707 7.28988L173.983 6.29988L176.737 5.28988L177.668 2.62988L178.659 5.34988L181.343 6.29988Z" fill="#602B7A"/>
<path d="M156.798 114.86C156.798 114.86 201.332 119.49 219.499 143.39C237.665 167.29 228.852 189.28 225.277 195.6C221.702 201.92 206.84 227.2 175.184 242.32L173.151 224.29C172.881 221.17 174.053 218.1 176.346 215.96C185.84 207.09 210.165 182.02 203.255 163.99C196.345 145.96 165.55 147.78 165.55 147.78C165.55 147.78 165.21 137.68 163.558 130.6C161.595 122.17 156.788 114.84 156.788 114.84L156.798 114.86Z" fill="#E63417"/>
</g>
<defs>
<clipPath id="clip0_138_9386">
<rect width="241" height="258" fill="white"/>
</clipPath>
</defs>
</svg>
