<svg width="247" height="258" viewBox="0 0 247 258" fill="none" xmlns="http://www.w3.org/2000/svg">
<g clip-path="url(#clip0_138_10940)">
<path d="M75.2223 125.781C75.2223 125.781 -17.4687 190.722 3.70723 242.293C16.3229 273.033 63.9322 250.854 76.4131 229.754L49.8224 217.35C49.8224 217.35 45.958 225.035 36.5552 228.81C29.8598 231.495 26.6132 224.282 28.5117 215.507C33.0727 194.407 79.1092 169.251 79.1092 169.251L75.2223 125.781Z" fill="white" stroke="#602B7A" stroke-linecap="round" stroke-linejoin="round"/>
<path d="M71.9869 130.668C71.9869 130.668 26.8266 164.847 13.2897 191.464C-0.247155 218.08 0.775131 231.72 5.39227 240.776C9.99817 249.832 20.075 261.281 45.2277 252.124C70.3692 242.967 71.6723 230.889 70.4029 229.821C69.1335 228.754 51.9905 218.339 50.8447 219.417C49.6988 220.496 30.3203 243.326 24.6135 221.957C19.7604 203.789 76.5816 167.341 76.5816 167.341L71.9981 130.68L71.9869 130.668Z" fill="#E63417"/>
<path d="M146.164 253.045L67.6844 251.236C67.6844 251.236 44.5201 149.263 74.1551 124.714C83.3332 117.119 95.376 112.872 111.205 114.793C125.382 116.512 135.874 121.714 143.581 128.871C153.085 137.668 156.578 154.229 156.994 172.464C157.859 209.351 146.164 253.045 146.164 253.045Z" fill="white" stroke="#602B7A" stroke-linecap="round" stroke-linejoin="round"/>
<path d="M110.632 116.096C134.886 119.107 151.321 129.803 153.601 157.622C155.882 185.441 152.983 203.924 151.107 216.8C149.243 229.675 147.782 248.36 143.008 249.809C138.233 251.259 70.6838 250.562 69.4369 247.236C68.1899 243.911 56.8661 185.857 61.2249 156.578C65.5836 127.298 85.5013 112.973 110.62 116.085L110.632 116.096Z" fill="#29235C"/>
<path d="M143.581 128.86C138.447 139.96 129.235 151.926 113.092 153.42C111.98 153.521 110.823 153.578 109.632 153.578C106.318 153.578 103.296 153.229 100.543 152.578C83.76 148.69 76.8961 134.208 74.155 124.703C83.3331 117.107 95.3759 112.86 111.204 114.782C125.382 116.501 135.874 121.703 143.581 128.86Z" fill="white" stroke="#602B7A" stroke-linecap="round" stroke-linejoin="round"/>
<path d="M76.2445 125.421C75.7952 128.107 85.6585 150.892 106.812 151.892C130.942 153.038 140.458 132.05 141.075 129.59C141.693 127.129 129.111 117.939 111.126 115.613C93.1403 113.298 76.7838 122.174 76.2445 125.421Z" fill="#E63417"/>
<path d="M92.7921 139.522L109.328 119.983L119.248 141.926L138.941 114.568L84.3779 108.849L92.7921 139.522Z" fill="white" stroke="#602B7A" stroke-linecap="round" stroke-linejoin="round"/>
<path d="M102.869 125.388L113.698 125.691C113.698 125.691 112.946 138.769 107.082 137.87C101.218 136.971 102.869 125.388 102.869 125.388Z" fill="white" stroke="#602B7A" stroke-linecap="round" stroke-linejoin="round"/>
<path d="M113.092 153.432C111.98 153.533 110.822 153.589 109.632 153.589C106.318 153.589 103.296 153.241 100.543 152.589C102.408 140.455 103.756 135.32 103.756 135.32H110.969C110.969 135.32 112.384 143.522 113.081 153.432H113.092Z" fill="white" stroke="#602B7A" stroke-linecap="round" stroke-linejoin="round"/>
<path d="M109.452 140.556L103.464 144.409" stroke="#E63417" stroke-linecap="round" stroke-linejoin="round"/>
<path d="M109.845 145.623L103.869 149.477" stroke="#E63417" stroke-linecap="round" stroke-linejoin="round"/>
<path d="M59.7981 222.901C64.7747 218.294 66.2015 212.62 67.7742 206.677C69.0773 201.789 69.6503 196.992 70.0547 191.475C70.0996 190.868 69.7514 190.25 69.1672 190.082C68.8639 189.992 68.6167 190.082 68.5606 190.497C66.2352 196.284 61.6742 207.351 58.8882 212.025C56.4504 216.103 53.26 223.462 49.4405 226.867C45.5086 230.372 55.1024 227.271 59.8094 222.912L59.7981 222.901Z" fill="white" stroke="#602B7A" stroke-linecap="round" stroke-linejoin="round"/>
<path d="M68.291 232.361C78.8059 222.811 89.759 213.058 94.1964 209.744C103.161 203.07 95.6006 201.991 81.7267 214.215C81.7267 214.215 107.104 195.542 105.588 193.868C104.071 192.194 79.3339 210.901 79.3339 210.901C79.3339 210.901 105.509 189.082 103.846 187.239C102.184 185.397 76.795 207.418 76.795 207.418C76.795 207.418 99.9931 187.677 98.6675 185.531C97.3419 183.385 74.2674 203.935 74.2674 203.935L51.7097 225.181C45.5872 230.945 52.058 240.967 59.7981 237.675C62.8313 236.394 65.7409 234.664 68.2797 232.35L68.291 232.361Z" fill="white" stroke="#602B7A" stroke-linecap="round" stroke-linejoin="round"/>
<path d="M52.0018 250.719C62.5617 245.349 71.8521 237.473 76.4131 229.754L49.8224 217.35C49.8224 217.35 45.958 225.035 36.5552 228.81" fill="white"/>
<path d="M52.0018 250.719C62.5617 245.349 71.8521 237.473 76.4131 229.754L49.8224 217.35C49.8224 217.35 45.958 225.035 36.5552 228.81" stroke="#602B7A" stroke-linecap="round" stroke-linejoin="round"/>
<path d="M37.0382 230.215C37.9032 229.709 43.4078 226.9 46.4859 224.024C49.4516 221.26 49.1259 220.732 50.4178 220.17C51.6198 219.642 71.9756 229.911 72.1778 230.979C72.3463 231.9 73.3911 232.383 70.0097 235.754C66.6395 239.113 59.0791 245.855 51.0581 249.753C43.0371 253.652 32.0166 233.147 37.0269 230.215H37.0382Z" fill="#E63417"/>
<path d="M101.004 106.018C88.4895 106.141 76.2783 93.861 68.92 83.7266C59.3038 70.4912 55.5854 59.1996 67.6169 45.953C82.9961 29.0099 109.879 29.3582 120.506 72.6822C126.191 95.8722 112.553 105.905 101.004 106.018Z" fill="#374C92"/>
<path d="M118.001 74.5361C120.383 72.1542 120.394 68.3004 118.001 65.9185C115.619 63.5366 111.766 63.5254 109.385 65.9073C107.003 68.2892 106.992 72.143 109.385 74.5249C111.766 76.9068 115.619 76.918 118.001 74.5361Z" fill="white" stroke="#602B7A" stroke-linecap="round" stroke-linejoin="round"/>
<path d="M85.5013 93.7712C87.8829 91.3893 87.8941 87.5356 85.5013 85.1536C83.1197 82.7717 79.2665 82.7605 76.8849 85.1424C74.5033 87.5243 74.4921 91.3781 76.8849 93.76C79.2665 96.1419 83.1197 96.1532 85.5013 93.7712Z" fill="white" stroke="#602B7A" stroke-linecap="round" stroke-linejoin="round"/>
<path d="M105.668 56.1745C100.64 47.1066 89.2162 43.8308 80.1522 48.8578C71.0883 53.8848 67.8163 65.311 72.8441 74.3789L92.2609 109.398C97.2887 118.466 108.712 121.742 117.776 116.715C126.84 111.688 130.112 100.262 125.084 91.1937L105.668 56.1745Z" fill="white" stroke="#602B7A" stroke-linecap="round" stroke-linejoin="round"/>
<path d="M97.0835 63.4355C97.0835 63.4355 98.4877 62.649 99.9818 62.6827C101.476 62.7164 102.948 63.5703 102.948 63.5703" stroke="#602B7A" stroke-linecap="round" stroke-linejoin="round"/>
<path d="M83.468 72.0979C83.468 72.0979 82.1087 72.963 81.4234 74.3001C80.7494 75.6258 80.7943 77.3336 80.7943 77.3336" stroke="#602B7A" stroke-linecap="round" stroke-linejoin="round"/>
<path d="M95.5669 76.2664L98.5663 91.3893L104.228 87.6142" stroke="#602B7A" stroke-linecap="round" stroke-linejoin="round"/>
<path d="M113.99 107.51C115.987 106.403 116.467 103.451 115.062 100.916C113.657 98.3822 110.899 97.2256 108.902 98.333C106.905 99.4404 106.426 102.393 107.831 104.927C109.236 107.461 111.994 108.618 113.99 107.51Z" stroke="#602B7A" stroke-linecap="round" stroke-linejoin="round"/>
<path d="M84.7374 110.22C84.7374 110.22 91.0509 114.838 101.173 109.411C111.294 103.984 108.025 95.5239 105.475 94.3779C102.925 93.2319 98.1844 93.8386 95.9152 98.7935C93.6459 103.748 96.533 107.052 84.7374 110.231V110.22Z" fill="#2F2535"/>
<path d="M128.404 80.2998C128.404 80.2998 130.426 87.85 121.708 95.3329C112.991 102.816 106.284 96.7036 106.138 93.9172C105.992 91.1196 108.272 86.9175 113.71 86.5917C119.147 86.2658 121.18 90.1533 128.404 80.2998Z" fill="#2F2535"/>
<path d="M97.6901 71.4463C97.6901 71.4463 102.363 64.941 107.43 68.8397" stroke="#602B7A" stroke-linecap="round" stroke-linejoin="round"/>
<path d="M83.3893 82.5581C83.3893 82.5581 83.6926 75.1988 90.5902 75.5471" stroke="#602B7A" stroke-linecap="round" stroke-linejoin="round"/>
<path d="M81.7941 18.6846L99.2965 38.7062C92.1742 54.4134 78.4127 66.4466 61.8876 71.4014L44.3065 51.2899C41.4756 48.0429 42.4304 43.0206 46.2387 41.0319C51.7771 38.1557 58.787 34.3131 61.5393 31.8975C63.9996 29.7403 68.1112 24.0439 71.3241 19.3138C73.7731 15.7297 78.9407 15.4263 81.7941 18.6846Z" fill="#2F2535"/>
<path d="M109.811 31.875L106.7 39.4477C102.734 49.1214 96.533 57.6379 88.804 64.4017C81.1088 71.1317 71.9082 76.109 61.8651 78.7718L53.7318 80.9178C51.8445 81.4234 49.901 80.2886 49.3955 78.4011C48.89 76.5135 50.0246 74.5585 51.9119 74.0642L60.0452 71.9182C60.6631 71.7497 61.281 71.5811 61.8876 71.3901C78.4127 66.4465 92.1742 54.4133 99.2965 38.6949C99.5886 38.0545 99.8694 37.4029 100.139 36.74L103.251 29.1673C103.992 27.3471 106.071 26.4932 107.879 27.2235C109.688 27.9763 110.553 30.0436 109.811 31.8525V31.875Z" fill="#2F2535"/>
<path d="M183.967 22.718L194.571 0.797607" stroke="#602B7A" stroke-width="1.42" stroke-miterlimit="10" stroke-linecap="round" stroke-dasharray="0.3 8"/>
<path d="M207.591 51.6271L232.654 48.0879" stroke="#602B7A" stroke-width="1.42" stroke-miterlimit="10" stroke-linecap="round" stroke-dasharray="0.3 8"/>
<path d="M222.903 63.1322L218.803 64.5703L217.219 68.8173L215.736 64.6602L211.546 63.1322L215.781 61.5592L217.219 57.447L218.747 61.6491L222.903 63.1322Z" fill="#602B7A"/>
<path d="M245.09 45.2564L242.99 45.9867L242.181 48.1664L241.428 46.0317L239.271 45.2564L241.45 44.4475L242.181 42.3464L242.967 44.4924L245.09 45.2564Z" fill="#602B7A"/>
<path d="M199.75 22.6283L195.639 24.0664L194.066 28.3134L192.583 24.1675L188.381 22.6283L192.628 21.0553L194.066 16.9543L195.594 21.1452L199.75 22.6283Z" fill="#602B7A"/>
<path d="M156.14 123.849C156.14 123.849 163.139 100.748 159.623 97.9058C156.106 95.0632 149.658 93.333 147.052 96.4227C144.446 99.5125 141.143 108.231 140.885 111.849C140.626 115.467 139.379 132.769 145.221 134.095C151.062 135.421 156.14 123.871 156.14 123.871V123.849Z" fill="white" stroke="#602B7A" stroke-linecap="round" stroke-linejoin="round"/>
<path d="M141.154 62.6826C141.154 62.6826 110.216 82.6256 118.832 95.7598C127.449 108.894 157.398 83.9738 157.398 83.9738L141.154 62.6714V62.6826Z" fill="#E63417"/>
<path d="M141.154 62.6827L167.453 23.8866C168.587 22.2125 171.047 22.2238 172.182 23.8866L199.986 65.2893C201.031 66.8398 200.323 68.9521 198.559 69.57L157.398 83.9626L141.154 62.6602V62.6827Z" fill="#374C92"/>
<path d="M133.448 98.2878C133.448 98.2878 157.353 133.567 161.768 131.129C166.183 128.691 143.614 93.5127 143.614 93.5127L133.448 98.2878Z" fill="#374C92"/>
<path d="M124.258 83.7604L138.952 69.7498L141.21 72.5923L124.899 84.5581C124.371 84.8952 123.809 84.1873 124.258 83.7491V83.7604Z" fill="#602B7A"/>
<path d="M124.314 91.3556L142.839 75.1765L145.097 78.0191L124.955 92.1645C124.427 92.5016 123.865 91.7938 124.314 91.3556Z" fill="#602B7A"/>
<path d="M131.549 93.8836L147.726 81.6145L149.647 84.693L132.088 94.7488C131.527 95.0297 131.044 94.2544 131.549 93.8836Z" fill="#602B7A"/>
<path d="M200.487 68.7019C202.892 67.0636 197.695 55.2419 188.879 42.2975C180.064 29.3531 170.967 20.1877 168.563 21.8261C166.158 23.4644 171.354 35.286 180.17 48.2304C188.986 61.1748 198.082 70.3402 200.487 68.7019Z" fill="white" stroke="#602B7A" stroke-linecap="round" stroke-linejoin="round"/>
<path d="M144.535 123.961C144.075 126.298 142.963 128.893 141.794 130.961L138.492 133.05C139.514 128.039 137.829 120.365 137.413 115.68C136.93 110.254 134.133 98.6248 132.628 92.5689C132.425 92.1982 132.583 91.9847 132.886 91.8723C133.448 91.6701 134.088 91.9734 134.414 92.4903C137.323 97.1979 139.671 101.411 141.48 106.141C143.693 111.883 145.861 117.309 144.535 123.961Z" fill="white" stroke="#602B7A" stroke-linecap="round" stroke-linejoin="round"/>
<path d="M141.469 109.95C140.064 109.254 141.626 104.658 142.176 103.568L148.366 91.1533C148.917 90.0522 150.242 89.614 151.343 90.1533C152.444 90.7039 152.882 92.0297 152.343 93.1307L146.153 105.546C145.603 106.647 142.862 110.636 141.48 109.95H141.469Z" fill="white" stroke="#602B7A" stroke-linecap="round" stroke-linejoin="round"/>
<path d="M145.58 112.029C144.176 111.343 145.681 106.737 146.221 105.636L152.298 93.1532C152.837 92.0521 154.163 91.5915 155.264 92.1308C156.365 92.6701 156.825 93.9959 156.286 95.097L150.209 107.58C149.669 108.681 146.962 112.703 145.569 112.029H145.58Z" fill="white" stroke="#602B7A" stroke-linecap="round" stroke-linejoin="round"/>
<path d="M150.13 113.602C148.726 112.916 150.231 108.31 150.77 107.209L156.848 94.7262C157.387 93.6251 158.713 93.1645 159.814 93.7038C160.915 94.2431 161.375 95.5689 160.836 96.67L154.758 109.153C154.219 110.254 151.512 114.276 150.119 113.602H150.13Z" fill="white" stroke="#602B7A" stroke-linecap="round" stroke-linejoin="round"/>
<path d="M154.522 114.894C153.118 114.208 154.309 110.276 154.758 109.343L159.904 98.7934C160.353 97.8608 161.622 97.535 162.723 98.0743C163.824 98.6136 164.352 99.8046 163.892 100.737L158.746 111.287C158.297 112.22 155.904 115.579 154.522 114.894Z" fill="white" stroke="#602B7A" stroke-linecap="round" stroke-linejoin="round"/>
<path d="M130.313 128.14L155.208 131.062C155.208 131.062 200.02 217.406 181.192 230.473C148.085 253.472 130.313 128.14 130.313 128.14Z" fill="white" stroke="#602B7A" stroke-linecap="round" stroke-linejoin="round"/>
<path d="M132.133 131.095C134.167 130.511 152.388 132.084 153.882 133.196C155.376 134.309 176.283 180.352 179.327 192.138C182.529 204.542 190.538 228.72 175.305 231.687C163.521 234.439 150.063 199.991 146.232 189.284C142.401 178.576 132.133 131.095 132.133 131.095Z" fill="#E63417"/>
<path d="M187.146 44.6497L201.559 35.2568" stroke="#602B7A" stroke-width="1.42" stroke-miterlimit="10" stroke-linecap="round" stroke-dasharray="0.3 8"/>
<path d="M208.057 15.4717V7.07168H209.617V14.1517H214.009V15.4717H208.057ZM218.05 15.5557C217.338 15.5557 216.714 15.4157 216.178 15.1357C215.65 14.8477 215.238 14.4557 214.942 13.9597C214.654 13.4637 214.51 12.8997 214.51 12.2677C214.51 11.6277 214.65 11.0637 214.93 10.5757C215.218 10.0797 215.61 9.69168 216.106 9.41168C216.61 9.13168 217.182 8.99168 217.822 8.99168C218.446 8.99168 219.002 9.12768 219.49 9.39968C219.978 9.67168 220.362 10.0557 220.642 10.5517C220.922 11.0477 221.062 11.6317 221.062 12.3037C221.062 12.3677 221.058 12.4397 221.05 12.5197C221.05 12.5997 221.046 12.6757 221.038 12.7477H215.698V11.7517H220.246L219.658 12.0637C219.666 11.6957 219.59 11.3717 219.43 11.0917C219.27 10.8117 219.05 10.5917 218.77 10.4317C218.498 10.2717 218.182 10.1917 217.822 10.1917C217.454 10.1917 217.13 10.2717 216.85 10.4317C216.578 10.5917 216.362 10.8157 216.202 11.1037C216.05 11.3837 215.974 11.7157 215.974 12.0997V12.3397C215.974 12.7237 216.062 13.0637 216.238 13.3597C216.414 13.6557 216.662 13.8837 216.982 14.0437C217.302 14.2037 217.67 14.2837 218.086 14.2837C218.446 14.2837 218.77 14.2277 219.058 14.1157C219.346 14.0037 219.602 13.8277 219.826 13.5877L220.63 14.5117C220.342 14.8477 219.978 15.1077 219.538 15.2917C219.106 15.4677 218.61 15.5557 218.05 15.5557ZM224.915 15.5557C224.211 15.5557 223.667 15.3757 223.283 15.0157C222.899 14.6477 222.707 14.1077 222.707 13.3957V7.64768H224.207V13.3597C224.207 13.6637 224.283 13.8997 224.435 14.0677C224.595 14.2357 224.815 14.3197 225.095 14.3197C225.431 14.3197 225.711 14.2317 225.935 14.0557L226.355 15.1237C226.179 15.2677 225.963 15.3757 225.707 15.4477C225.451 15.5197 225.187 15.5557 224.915 15.5557ZM221.651 10.2637V9.06368H225.923V10.2637H221.651ZM227.372 10.3957L227.276 7.07168H228.572L228.464 10.3957H227.372ZM232.205 15.5557C231.669 15.5557 231.153 15.4877 230.657 15.3517C230.169 15.2077 229.781 15.0357 229.493 14.8357L230.069 13.6957C230.357 13.8797 230.701 14.0317 231.101 14.1517C231.501 14.2717 231.901 14.3317 232.301 14.3317C232.773 14.3317 233.113 14.2677 233.321 14.1397C233.537 14.0117 233.645 13.8397 233.645 13.6237C233.645 13.4477 233.573 13.3157 233.429 13.2277C233.285 13.1317 233.097 13.0597 232.865 13.0117C232.633 12.9637 232.373 12.9197 232.085 12.8797C231.805 12.8397 231.521 12.7877 231.233 12.7237C230.953 12.6517 230.697 12.5517 230.465 12.4237C230.233 12.2877 230.045 12.1077 229.901 11.8837C229.757 11.6597 229.685 11.3637 229.685 10.9957C229.685 10.5877 229.801 10.2357 230.033 9.93968C230.265 9.63568 230.589 9.40368 231.005 9.24368C231.429 9.07568 231.929 8.99168 232.505 8.99168C232.937 8.99168 233.373 9.03968 233.813 9.13568C234.253 9.23168 234.617 9.36768 234.905 9.54368L234.329 10.6837C234.025 10.4997 233.717 10.3757 233.405 10.3117C233.101 10.2397 232.797 10.2037 232.493 10.2037C232.037 10.2037 231.697 10.2717 231.473 10.4077C231.257 10.5437 231.149 10.7157 231.149 10.9237C231.149 11.1157 231.221 11.2597 231.365 11.3557C231.509 11.4517 231.697 11.5277 231.929 11.5837C232.161 11.6397 232.417 11.6877 232.697 11.7277C232.985 11.7597 233.269 11.8117 233.549 11.8837C233.829 11.9557 234.085 12.0557 234.317 12.1837C234.557 12.3037 234.749 12.4757 234.893 12.6997C235.037 12.9237 235.109 13.2157 235.109 13.5757C235.109 13.9757 234.989 14.3237 234.749 14.6197C234.517 14.9157 234.185 15.1477 233.753 15.3157C233.321 15.4757 232.805 15.5557 232.205 15.5557Z" fill="#374C92"/>
<path d="M209.893 31.3079C209.357 31.3079 208.841 31.2399 208.345 31.1039C207.857 30.9599 207.469 30.7879 207.181 30.5879L207.757 29.4479C208.045 29.6319 208.389 29.7839 208.789 29.9039C209.189 30.0239 209.589 30.0839 209.989 30.0839C210.461 30.0839 210.801 30.0199 211.009 29.8919C211.225 29.7639 211.333 29.5919 211.333 29.3759C211.333 29.1999 211.261 29.0679 211.117 28.9799C210.973 28.8839 210.785 28.8119 210.553 28.7639C210.321 28.7159 210.061 28.6719 209.773 28.6319C209.493 28.5919 209.209 28.5399 208.921 28.4759C208.641 28.4039 208.385 28.3039 208.153 28.1759C207.921 28.0399 207.733 27.8599 207.589 27.6359C207.445 27.4119 207.373 27.1159 207.373 26.7479C207.373 26.3399 207.489 25.9879 207.721 25.6919C207.953 25.3879 208.277 25.1559 208.693 24.9959C209.117 24.8279 209.617 24.7439 210.193 24.7439C210.625 24.7439 211.061 24.7919 211.501 24.8879C211.941 24.9839 212.305 25.1199 212.593 25.2959L212.017 26.4359C211.713 26.2519 211.405 26.1279 211.093 26.0639C210.789 25.9919 210.485 25.9559 210.181 25.9559C209.725 25.9559 209.385 26.0239 209.161 26.1599C208.945 26.2959 208.837 26.4679 208.837 26.6759C208.837 26.8679 208.909 27.0119 209.053 27.1079C209.197 27.2039 209.385 27.2799 209.617 27.3359C209.849 27.3919 210.105 27.4399 210.385 27.4799C210.673 27.5119 210.957 27.5639 211.237 27.6359C211.517 27.7079 211.773 27.8079 212.005 27.9359C212.245 28.0559 212.437 28.2279 212.581 28.4519C212.725 28.6759 212.797 28.9679 212.797 29.3279C212.797 29.7279 212.677 30.0759 212.437 30.3719C212.205 30.6679 211.873 30.8999 211.441 31.0679C211.009 31.2279 210.493 31.3079 209.893 31.3079ZM217.64 31.3079C217.12 31.3079 216.644 31.1879 216.212 30.9479C215.788 30.7079 215.448 30.3479 215.192 29.8679C214.944 29.3799 214.82 28.7639 214.82 28.0199C214.82 27.2679 214.94 26.6519 215.18 26.1719C215.428 25.6919 215.764 25.3359 216.188 25.1039C216.612 24.8639 217.096 24.7439 217.64 24.7439C218.272 24.7439 218.828 24.8799 219.308 25.1519C219.796 25.4239 220.18 25.8039 220.46 26.2919C220.748 26.7799 220.892 27.3559 220.892 28.0199C220.892 28.6839 220.748 29.2639 220.46 29.7599C220.18 30.2479 219.796 30.6279 219.308 30.8999C218.828 31.1719 218.272 31.3079 217.64 31.3079ZM214.088 33.5519V24.8159H215.516V26.3279L215.468 28.0319L215.588 29.7359V33.5519H214.088ZM217.472 30.0239C217.832 30.0239 218.152 29.9439 218.432 29.7839C218.72 29.6239 218.948 29.3919 219.116 29.0879C219.284 28.7839 219.368 28.4279 219.368 28.0199C219.368 27.6039 219.284 27.2479 219.116 26.9519C218.948 26.6479 218.72 26.4159 218.432 26.2559C218.152 26.0959 217.832 26.0159 217.472 26.0159C217.112 26.0159 216.788 26.0959 216.5 26.2559C216.212 26.4159 215.984 26.6479 215.816 26.9519C215.648 27.2479 215.564 27.6039 215.564 28.0199C215.564 28.4279 215.648 28.7839 215.816 29.0879C215.984 29.3919 216.212 29.6239 216.5 29.7839C216.788 29.9439 217.112 30.0239 217.472 30.0239ZM225.327 31.3079C224.615 31.3079 223.991 31.1679 223.455 30.8879C222.927 30.5999 222.515 30.2079 222.219 29.7119C221.931 29.2159 221.787 28.6519 221.787 28.0199C221.787 27.3799 221.927 26.8159 222.207 26.3279C222.495 25.8319 222.887 25.4439 223.383 25.1639C223.887 24.8839 224.459 24.7439 225.099 24.7439C225.723 24.7439 226.279 24.8799 226.767 25.1519C227.255 25.4239 227.639 25.8079 227.919 26.3039C228.199 26.7999 228.339 27.3839 228.339 28.0559C228.339 28.1199 228.335 28.1919 228.327 28.2719C228.327 28.3519 228.323 28.4279 228.315 28.4999H222.975V27.5039H227.523L226.935 27.8159C226.943 27.4479 226.867 27.1239 226.707 26.8439C226.547 26.5639 226.327 26.3439 226.047 26.1839C225.775 26.0239 225.459 25.9439 225.099 25.9439C224.731 25.9439 224.407 26.0239 224.127 26.1839C223.855 26.3439 223.639 26.5679 223.479 26.8559C223.327 27.1359 223.251 27.4679 223.251 27.8519V28.0919C223.251 28.4759 223.339 28.8159 223.515 29.1119C223.691 29.4079 223.939 29.6359 224.259 29.7959C224.579 29.9559 224.947 30.0359 225.363 30.0359C225.723 30.0359 226.047 29.9799 226.335 29.8679C226.623 29.7559 226.879 29.5799 227.103 29.3399L227.907 30.2639C227.619 30.5999 227.255 30.8599 226.815 31.0439C226.383 31.2199 225.887 31.3079 225.327 31.3079ZM233.552 31.2239V29.9279L233.468 29.6519V27.3839C233.468 26.9439 233.336 26.6039 233.072 26.3639C232.808 26.1159 232.408 25.9919 231.872 25.9919C231.512 25.9919 231.156 26.0479 230.804 26.1599C230.46 26.2719 230.168 26.4279 229.928 26.6279L229.34 25.5359C229.684 25.2719 230.092 25.0759 230.564 24.9479C231.044 24.8119 231.54 24.7439 232.052 24.7439C232.98 24.7439 233.696 24.9679 234.2 25.4159C234.712 25.8559 234.968 26.5399 234.968 27.4679V31.2239H233.552ZM231.536 31.3079C231.056 31.3079 230.636 31.2279 230.276 31.0679C229.916 30.8999 229.636 30.6719 229.436 30.3839C229.244 30.0879 229.148 29.7559 229.148 29.3879C229.148 29.0279 229.232 28.7039 229.4 28.4159C229.576 28.1279 229.86 27.8999 230.252 27.7319C230.644 27.5639 231.164 27.4799 231.812 27.4799H233.672V28.4759H231.92C231.408 28.4759 231.064 28.5599 230.888 28.7279C230.712 28.8879 230.624 29.0879 230.624 29.3279C230.624 29.5999 230.732 29.8159 230.948 29.9759C231.164 30.1359 231.464 30.2159 231.848 30.2159C232.216 30.2159 232.544 30.1319 232.832 29.9639C233.128 29.7959 233.34 29.5479 233.468 29.2199L233.72 30.1199C233.576 30.4959 233.316 30.7879 232.94 30.9959C232.572 31.2039 232.104 31.3079 231.536 31.3079ZM238.117 29.7959L238.153 27.9119L241.501 24.8159H243.301L240.457 27.6719L239.665 28.3319L238.117 29.7959ZM236.893 31.2239V22.3199H238.393V31.2239H236.893ZM241.729 31.2239L239.389 28.3319L240.337 27.1319L243.553 31.2239H241.729Z" fill="#374C92"/>
</g>
<defs>
<clipPath id="clip0_138_10940">
<rect width="247" height="258" fill="white"/>
</clipPath>
</defs>
</svg>
