<svg width="247" height="176" viewBox="0 0 247 176" fill="none" xmlns="http://www.w3.org/2000/svg">
<path d="M209.264 21.3525H48.345C44.928 21.3525 42.1579 24.1315 42.1579 27.5595V157.92C42.1579 161.348 44.928 164.127 48.345 164.127H209.264C212.681 164.127 215.452 161.348 215.452 157.92V27.5595C215.452 24.1315 212.681 21.3525 209.264 21.3525Z" fill="white"/>
<path d="M209.264 164.803H48.345C44.5573 164.803 41.4839 161.72 41.4839 157.92V27.5596C41.4839 23.7597 44.5573 20.6765 48.345 20.6765H209.264C213.052 20.6765 216.125 23.7597 216.125 27.5596V157.92C216.125 161.72 213.052 164.803 209.264 164.803ZM48.345 22.0288C45.3121 22.0288 42.8319 24.5035 42.8319 27.5596V157.92C42.8319 160.976 45.2987 163.451 48.345 163.451H209.264C212.297 163.451 214.778 160.976 214.778 157.92V27.5596C214.778 24.5035 212.311 22.0288 209.264 22.0288H48.345Z" fill="#612A7A"/>
<path d="M176.94 66.2891H192.563C202.43 66.2891 210.437 74.3216 210.437 84.2204V95.1198H176.927C169.001 95.1198 162.558 88.6559 162.558 80.7044C162.558 72.753 169.001 66.2891 176.927 66.2891H176.94Z" fill="#612A7A"/>
<path d="M181.699 94.8223H214.697C222.623 94.8223 229.066 101.286 229.066 109.238C229.066 117.189 222.623 123.653 214.697 123.653H197.079C188.587 123.653 181.699 116.743 181.699 108.223V94.8223Z" fill="#612A7A"/>
<path d="M176.132 80.5693C177.851 80.5693 179.245 79.1708 179.245 77.4456C179.245 75.7203 177.851 74.3218 176.132 74.3218C174.412 74.3218 173.018 75.7203 173.018 77.4456C173.018 79.1708 174.412 80.5693 176.132 80.5693Z" fill="white"/>
<path d="M168.853 86.8844C166.278 86.8844 164.175 86.0459 164.054 85.9919C163.703 85.8566 163.542 85.4645 163.676 85.1129C163.811 84.7613 164.202 84.599 164.553 84.7342C164.593 84.7477 168.96 86.4787 172.438 84.7613C172.775 84.599 173.18 84.7342 173.341 85.0723C173.503 85.4104 173.368 85.8161 173.031 85.9783C171.656 86.6545 170.187 86.8844 168.853 86.8844Z" fill="white"/>
<path d="M137.122 152.741L132.013 154.539L130.045 159.84L128.198 154.647L122.968 152.741L128.252 150.766L130.045 145.641L131.959 150.888L137.122 152.741Z" fill="#612A7A"/>
<path d="M246.994 81.0561L236.844 84.6262L232.948 95.1605L229.268 84.8561L218.889 81.0561L229.389 77.148L232.948 66.9653L236.722 77.3779L246.994 81.0561Z" fill="#612A7A"/>
<path d="M206.434 28.1006H53.5617C51.3878 28.1006 49.6256 29.8685 49.6256 32.0493V44.4362C49.6256 46.617 51.3878 48.3849 53.5617 48.3849H206.434C208.607 48.3849 210.37 46.617 210.37 44.4362V32.0493C210.37 29.8685 208.607 28.1006 206.434 28.1006Z" fill="#D1EDF8"/>
<path d="M194.828 42.9351C194.653 42.9351 194.464 42.8675 194.329 42.7187C194.073 42.4483 194.1 42.0156 194.369 41.7586L202.228 34.4698C202.498 34.2129 202.929 34.2399 203.185 34.5104C203.441 34.7808 203.414 35.2136 203.145 35.4705L195.286 42.7593C195.151 42.881 194.99 42.9351 194.828 42.9351Z" fill="#612A7A"/>
<path d="M202.686 42.9351C202.525 42.9351 202.363 42.881 202.228 42.7593L194.369 35.4705C194.1 35.2136 194.073 34.7944 194.329 34.5104C194.585 34.2399 195.003 34.2129 195.286 34.4698L203.145 41.7586C203.414 42.0156 203.441 42.4348 203.185 42.7187C203.05 42.8675 202.875 42.9351 202.686 42.9351Z" fill="#612A7A"/>
<path d="M185.702 39.9871H178.908V34.2939H185.702V39.9871ZM180.256 38.6348H184.354V35.6462H180.256V38.6348Z" fill="#612A7A"/>
<path d="M182.993 42.9351H176.199V37.2419H182.993V42.9351ZM177.547 41.5828H181.645V38.5942H177.547V41.5828Z" fill="#612A7A"/>
<path d="M168.125 42.935H162.126C161.749 42.935 161.452 42.6375 161.452 42.2589C161.452 41.8803 161.749 41.5828 162.126 41.5828H168.125C168.502 41.5828 168.799 41.8803 168.799 42.2589C168.799 42.6375 168.502 42.935 168.125 42.935Z" fill="#612A7A"/>
<path d="M105.768 73.5779H76.1804C75.803 73.5779 75.5064 73.2804 75.5064 72.9017C75.5064 72.5231 75.803 72.2256 76.1804 72.2256H105.768C106.146 72.2256 106.442 72.5231 106.442 72.9017C106.442 73.2804 106.146 73.5779 105.768 73.5779Z" fill="#612A7A"/>
<path d="M112.077 109.075H76.3691C75.9917 109.075 75.6951 108.778 75.6951 108.399C75.6951 108.021 75.9917 107.723 76.3691 107.723H112.077C112.454 107.723 112.751 108.021 112.751 108.399C112.751 108.778 112.454 109.075 112.077 109.075Z" fill="#612A7A"/>
<path d="M105.768 94.6601H76.1804C75.803 94.6601 75.5064 94.3626 75.5064 93.984C75.5064 93.6054 75.803 93.3079 76.1804 93.3079H105.768C106.146 93.3079 106.442 93.6054 106.442 93.984C106.442 94.3626 106.146 94.6601 105.768 94.6601Z" fill="#612A7A"/>
<path d="M120.164 86.5193H76.5983C76.2209 86.5193 75.9243 86.2218 75.9243 85.8431C75.9243 85.4645 76.2209 85.167 76.5983 85.167H120.164C120.542 85.167 120.838 85.4645 120.838 85.8431C120.838 86.2218 120.542 86.5193 120.164 86.5193Z" fill="#612A7A"/>
<path d="M123.399 73.5779H111.039C110.661 73.5779 110.365 73.2804 110.365 72.9017C110.365 72.5231 110.661 72.2256 111.039 72.2256H123.399C123.777 72.2256 124.073 72.5231 124.073 72.9017C124.073 73.2804 123.777 73.5779 123.399 73.5779Z" fill="#612A7A"/>
<path d="M91.965 80.0417H79.6042C79.2268 80.0417 78.9302 79.7442 78.9302 79.3656C78.9302 78.987 79.2268 78.6895 79.6042 78.6895H91.965C92.3424 78.6895 92.639 78.987 92.639 79.3656C92.639 79.7442 92.3424 80.0417 91.965 80.0417Z" fill="#612A7A"/>
<path d="M137.957 86.5193H125.597C125.219 86.5193 124.923 86.2218 124.923 85.8431C124.923 85.4645 125.219 85.167 125.597 85.167H137.957C138.335 85.167 138.631 85.4645 138.631 85.8431C138.631 86.2218 138.335 86.5193 137.957 86.5193Z" fill="#612A7A"/>
<path d="M148.134 86.5193H142.594C142.217 86.5193 141.92 86.2218 141.92 85.8431C141.92 85.4645 142.217 85.167 142.594 85.167H148.134C148.512 85.167 148.808 85.4645 148.808 85.8431C148.808 86.2218 148.512 86.5193 148.134 86.5193Z" fill="#612A7A"/>
<path d="M81.9497 101.76H76.4096C76.0321 101.76 75.7356 101.462 75.7356 101.083C75.7356 100.705 76.0321 100.407 76.4096 100.407H81.9497C82.3271 100.407 82.6237 100.705 82.6237 101.083C82.6237 101.462 82.3271 101.76 81.9497 101.76Z" fill="#612A7A"/>
<path d="M85.4948 116.716H76.9083C76.5309 116.716 76.2343 116.418 76.2343 116.04C76.2343 115.661 76.5309 115.364 76.9083 115.364H85.4948C85.8722 115.364 86.1688 115.661 86.1688 116.04C86.1688 116.418 85.8722 116.716 85.4948 116.716Z" fill="#612A7A"/>
<path d="M100.093 116.716H91.5067C91.1293 116.716 90.8327 116.418 90.8327 116.04C90.8327 115.661 91.1293 115.364 91.5067 115.364H100.093C100.471 115.364 100.767 115.661 100.767 116.04C100.767 116.418 100.471 116.716 100.093 116.716Z" fill="#612A7A"/>
<path d="M82.8663 124.032H77.0835C76.7061 124.032 76.4096 123.734 76.4096 123.356C76.4096 122.977 76.7061 122.679 77.0835 122.679H82.8663C83.2437 122.679 83.5403 122.977 83.5403 123.356C83.5403 123.734 83.2437 124.032 82.8663 124.032Z" fill="#612A7A"/>
<path d="M82.1384 68.02H76.3556C75.9782 68.02 75.6817 67.7225 75.6817 67.3439C75.6817 66.9652 75.9782 66.6677 76.3556 66.6677H82.1384C82.5158 66.6677 82.8124 66.9652 82.8124 67.3439C82.8124 67.7225 82.5158 68.02 82.1384 68.02Z" fill="#612A7A"/>
<path d="M131.056 124.275V128.927L135.504 129.563C135.922 131.848 136.798 133.958 138.052 135.797L135.356 139.407L138.631 142.693L142.217 139.989C144.05 141.26 146.153 142.166 148.418 142.585L149.051 147.061H153.688L154.322 142.599C156.6 142.179 158.702 141.3 160.536 140.043L164.135 142.747L167.41 139.461L164.714 135.864C165.981 134.025 166.885 131.916 167.302 129.644L171.764 129.008V124.356L167.316 123.721C166.898 121.435 166.022 119.326 164.768 117.487L167.464 113.876L164.189 110.59L160.603 113.295C158.77 112.023 156.667 111.117 154.402 110.698L153.769 106.222H149.132L148.498 110.685C146.22 111.104 144.118 111.983 142.284 113.241L138.685 110.536L135.41 113.822L138.106 117.419C136.839 119.258 135.935 121.368 135.518 123.64L131.056 124.275ZM151.423 115.364C157.638 115.364 162.665 120.421 162.665 126.642C162.665 132.862 157.624 137.92 151.423 137.92C145.223 137.92 140.181 132.876 140.181 126.642C140.181 120.408 145.223 115.364 151.423 115.364Z" fill="white"/>
<path d="M154.281 147.751H148.471L147.824 143.167C145.829 142.734 143.956 141.949 142.244 140.827L138.564 143.586L134.453 139.461L137.216 135.756C136.111 134.025 135.342 132.145 134.924 130.144L130.382 129.495V123.667L134.951 123.004C135.383 121.003 136.165 119.123 137.283 117.405L134.534 113.714L138.645 109.589L142.338 112.361C144.05 111.253 145.937 110.482 147.932 110.063L148.579 105.505H154.389L155.049 110.09C157.044 110.522 158.918 111.307 160.63 112.429L164.31 109.67L168.421 113.795L165.658 117.5C166.763 119.218 167.532 121.111 167.949 123.112L172.492 123.761V129.59L167.922 130.239C167.491 132.24 166.709 134.12 165.59 135.837L168.34 139.529L164.229 143.653L160.536 140.881C158.824 141.99 156.937 142.761 154.942 143.18L154.295 147.737L154.281 147.751ZM149.644 146.399H153.108L153.728 142.044L154.214 141.963C156.37 141.571 158.365 140.746 160.172 139.515L160.576 139.245L164.094 141.895L166.548 139.434L163.919 135.905L164.202 135.499C165.442 133.701 166.278 131.686 166.682 129.535L166.777 129.062L171.131 128.44V124.965L166.79 124.343L166.709 123.869C166.318 121.706 165.496 119.704 164.27 117.892L164 117.487L166.642 113.957L164.189 111.496L160.684 114.133L160.28 113.849C158.487 112.605 156.492 111.766 154.335 111.361L153.863 111.266L153.243 106.898H149.779L149.159 111.253L148.687 111.334C146.53 111.726 144.535 112.551 142.729 113.781L142.325 114.052L138.807 111.401L136.353 113.862L138.982 117.378L138.699 117.784C137.459 119.583 136.623 121.598 136.218 123.748L136.124 124.221L131.77 124.843V128.318L136.111 128.94L136.192 129.427C136.582 131.577 137.405 133.592 138.631 135.404L138.901 135.81L136.259 139.34L138.712 141.801L142.217 139.164L142.621 139.448C144.414 140.692 146.423 141.53 148.566 141.936L149.038 142.031L149.658 146.399H149.644ZM151.423 138.609C144.845 138.609 139.507 133.241 139.507 126.655C139.507 120.069 144.859 114.701 151.423 114.701C157.988 114.701 163.339 120.069 163.339 126.655C163.339 133.241 157.988 138.609 151.423 138.609ZM151.423 116.053C145.6 116.053 140.855 120.813 140.855 126.655C140.855 132.497 145.6 137.257 151.423 137.257C157.247 137.257 161.991 132.497 161.991 126.655C161.991 120.813 157.247 116.053 151.423 116.053Z" fill="#612A7A"/>
<path d="M15.1987 107.926L54.1817 83.0571L82.071 127.061L45.2447 150.55C42.6027 152.24 39.1115 151.456 37.4401 148.805L11.3031 107.574" fill="white"/>
<path d="M42.2253 152.105C41.767 152.105 41.3087 152.051 40.8369 151.956C39.1924 151.591 37.777 150.59 36.8739 149.157L10.737 107.926L11.8693 107.196L38.0062 148.427C38.7206 149.549 39.8259 150.333 41.1335 150.631C42.4275 150.915 43.762 150.685 44.8943 149.968L81.1544 126.844L53.9795 83.9903L15.5627 108.507L14.8348 107.371L54.3839 82.1377L83.0011 127.277L45.6087 151.131C44.5842 151.794 43.4115 152.132 42.2118 152.132L42.2253 152.105Z" fill="#612A7A"/>
<path d="M53.5077 75.8498L82.9606 122.301L80.1838 124.072L54.1817 83.044L15.1987 107.913C14.9561 108.075 14.6865 108.196 14.4304 108.264C13.3385 108.616 12.1523 108.332 11.3031 107.547C11.0875 107.358 10.9122 107.155 10.7505 106.898C9.79341 105.384 10.2382 103.396 11.721 102.436L53.4942 75.8228L53.5077 75.8498Z" fill="white"/>
<path d="M79.9816 125.005L53.9795 83.9769L15.5627 108.494C15.2526 108.683 14.9291 108.832 14.6191 108.927C13.3251 109.346 11.8828 109.008 10.8583 108.061C10.6022 107.831 10.3865 107.574 10.1978 107.277C9.03856 105.451 9.57774 103.031 11.384 101.881L53.7369 74.9031L54.1008 75.471L83.9042 122.49L79.9951 124.978L79.9816 125.005ZM54.3839 82.1108L80.386 123.139L82.0171 122.098L53.2921 76.7828L12.0849 103.031C10.9122 103.788 10.5618 105.37 11.3166 106.56C11.4379 106.749 11.5727 106.912 11.748 107.06C12.4219 107.696 13.3655 107.912 14.2147 107.628C14.4169 107.574 14.6326 107.466 14.8213 107.344L54.3704 82.1108H54.3839Z" fill="#612A7A"/>
<path d="M35.0272 123.91C35.4316 123.856 35.809 123.91 36.146 124.059C36.483 124.221 36.7661 124.478 36.9952 124.843C37.2244 125.208 37.3322 125.573 37.3322 125.952C37.3322 126.33 37.2109 126.696 36.9817 127.034C36.7526 127.385 36.4291 127.696 35.9843 127.967L35.0002 128.589L35.8495 129.941L34.7172 130.658L31.6169 125.763L33.7332 124.41C34.1645 124.14 34.5824 123.964 35.0002 123.91H35.0272ZM35.9977 126.358C36.0786 126.101 36.0382 125.83 35.8629 125.56C35.6877 125.289 35.472 125.127 35.189 125.1C34.9194 125.059 34.6228 125.154 34.2723 125.37L33.3557 125.952L34.4341 127.656L35.3507 127.074C35.6877 126.858 35.9034 126.614 35.9843 126.358H35.9977Z" fill="#612A7A"/>
<path d="M41.093 121.327L41.9288 126.398C42.0366 126.939 42.0096 127.385 41.8748 127.723C41.74 128.062 41.4839 128.346 41.1335 128.575C40.9447 128.697 40.7291 128.792 40.4999 128.859C40.2708 128.927 40.0551 128.941 39.8664 128.9L39.772 127.872C39.9068 127.899 40.0416 127.886 40.1764 127.872C40.3112 127.845 40.4325 127.791 40.5404 127.723C40.6886 127.629 40.783 127.521 40.8369 127.385C40.8773 127.25 40.8908 127.074 40.8639 126.872V126.831L36.8335 124.072L37.9523 123.356L40.6212 125.235L40.0686 122.003L41.12 121.341L41.093 121.327Z" fill="#612A7A"/>
<path d="M45.6761 120.15L46.714 119.488L47.9676 121.476C47.8328 121.841 47.6171 122.192 47.3476 122.517C47.0645 122.842 46.7544 123.125 46.3905 123.355C45.8783 123.68 45.366 123.856 44.8134 123.896C44.2742 123.937 43.762 123.842 43.2902 123.599C42.8184 123.369 42.4275 123.004 42.1175 122.517C41.8074 122.03 41.6457 121.53 41.6322 120.989C41.6322 120.461 41.7535 119.948 42.0231 119.474C42.2927 119.001 42.6836 118.595 43.1958 118.271C43.6272 118 44.0585 117.825 44.5034 117.743C44.9482 117.662 45.3661 117.689 45.7839 117.811L45.4874 118.947C44.9077 118.798 44.3686 118.879 43.8698 119.204C43.5598 119.407 43.3171 119.65 43.1689 119.934C43.0071 120.218 42.9397 120.516 42.9532 120.84C42.9667 121.165 43.0745 121.476 43.2767 121.787C43.4654 122.084 43.7081 122.314 43.9911 122.463C44.2742 122.612 44.5842 122.679 44.9077 122.666C45.2313 122.652 45.5413 122.544 45.8513 122.341C46.1748 122.138 46.4309 121.881 46.5927 121.57L45.6896 120.137L45.6761 120.15Z" fill="#612A7A"/>
<path d="M49.9626 116.175C50.4479 116.256 50.8657 116.567 51.2297 117.135L52.5911 119.285L51.5801 119.934L51.2836 119.461C51.2971 119.934 51.0275 120.353 50.4748 120.719C50.1917 120.908 49.9087 121.016 49.6256 121.043C49.356 121.084 49.0999 121.043 48.8842 120.948C48.6686 120.854 48.4798 120.692 48.345 120.462C48.1294 120.11 48.0754 119.758 48.2102 119.38C48.345 119.001 48.682 118.65 49.2347 118.298L50.0974 117.744C49.9491 117.514 49.7604 117.365 49.5312 117.338C49.3021 117.297 49.046 117.378 48.7629 117.568C48.5607 117.689 48.3855 117.852 48.2372 118.041C48.0889 118.23 47.9676 118.42 47.9137 118.609L47.0375 118.095C47.1454 117.825 47.3206 117.554 47.5632 117.284C47.7924 117.027 48.0754 116.797 48.372 116.608C48.9516 116.242 49.4908 116.094 49.9761 116.175H49.9626ZM50.677 119.366C50.7714 119.19 50.7848 119.001 50.7444 118.785L50.5018 118.406L49.7604 118.879C49.3156 119.163 49.1808 119.461 49.3695 119.745C49.4638 119.88 49.5852 119.961 49.7469 119.975C49.9087 119.975 50.0839 119.934 50.2726 119.813C50.4613 119.691 50.5961 119.542 50.6905 119.366H50.677Z" fill="#612A7A"/>
<path d="M57.3359 111.469C57.7942 111.577 58.1851 111.902 58.5356 112.456L59.897 114.606L58.8052 115.296L57.5516 113.308C57.3629 113.01 57.1607 112.821 56.945 112.754C56.7293 112.686 56.5002 112.727 56.2845 112.875C56.0284 113.038 55.8801 113.254 55.8397 113.511C55.7992 113.768 55.8801 114.065 56.0823 114.39L57.282 116.283L56.1902 116.973L54.9366 114.985C54.5591 114.39 54.1413 114.255 53.656 114.552C53.3999 114.714 53.2516 114.917 53.2112 115.188C53.1707 115.445 53.2516 115.742 53.4538 116.067L54.6535 117.96L53.5616 118.65L51.1758 114.89L52.2137 114.228L52.4833 114.66C52.5237 114.417 52.6181 114.187 52.7663 113.971C52.9146 113.754 53.1033 113.578 53.346 113.416C53.6156 113.254 53.8851 113.146 54.1682 113.119C54.4513 113.092 54.7209 113.119 54.977 113.254C55.004 112.956 55.0983 112.686 55.2735 112.429C55.4353 112.172 55.6645 111.956 55.9475 111.78C56.4193 111.482 56.8776 111.374 57.3359 111.482V111.469Z" fill="#612A7A"/>
<path d="M63.577 110.049L60.7328 111.861C60.935 112.064 61.1641 112.172 61.4472 112.186C61.7303 112.199 61.9999 112.118 62.2829 111.929C62.4717 111.807 62.6334 111.672 62.7412 111.509C62.8491 111.361 62.9434 111.171 62.9839 110.969L63.9679 111.225C63.8735 111.861 63.4826 112.388 62.8086 112.821C62.3908 113.092 61.9594 113.24 61.5281 113.294C61.0967 113.335 60.7058 113.267 60.3419 113.092C59.9779 112.916 59.6814 112.632 59.4387 112.267C59.2096 111.902 59.0883 111.509 59.0748 111.104C59.0748 110.698 59.1557 110.319 59.3579 109.954C59.5601 109.589 59.8431 109.292 60.2206 109.048C60.5845 108.818 60.9754 108.683 61.3663 108.656C61.7572 108.629 62.1481 108.697 62.4986 108.886C62.8626 109.075 63.1591 109.359 63.4017 109.751C63.4017 109.765 63.4691 109.873 63.5635 110.062L63.577 110.049ZM60.261 110.468C60.1801 110.712 60.2071 110.969 60.3149 111.239L62.1616 110.062C61.9729 109.846 61.7572 109.724 61.4876 109.684C61.2315 109.643 60.9754 109.711 60.7328 109.86C60.4902 110.022 60.3284 110.225 60.2475 110.468H60.261Z" fill="#612A7A"/>
<path d="M39.5294 135.147L37.9658 136.148L37.3861 135.229L41.6322 132.51L42.2118 133.43L40.6482 134.431L43.1689 138.406L42.0366 139.123L39.5159 135.147H39.5294Z" fill="#612A7A"/>
<path d="M46.5657 130.942L48.9516 134.701L47.9137 135.364L47.6306 134.918C47.5902 135.175 47.4958 135.404 47.3475 135.621C47.1993 135.837 47.0106 136.013 46.7814 136.162C46.2827 136.473 45.8109 136.581 45.3391 136.486C44.8673 136.392 44.4629 136.054 44.099 135.499L42.751 133.376L43.8429 132.686L45.083 134.647C45.4739 135.256 45.9187 135.391 46.4175 135.066C46.6736 134.904 46.8353 134.688 46.8892 134.417C46.9432 134.147 46.8623 133.836 46.6466 133.511L45.4604 131.645L46.5523 130.955L46.5657 130.942Z" fill="#612A7A"/>
<path d="M49.1943 129.387C49.356 129.157 49.5852 128.94 49.8682 128.765L50.5018 129.765C50.3805 129.833 50.2861 129.874 50.2457 129.914C49.9356 130.117 49.7469 130.36 49.6795 130.644C49.6121 130.928 49.6795 131.253 49.9087 131.604L51.041 133.376L49.9491 134.066L47.5632 130.306L48.6012 129.644L48.9112 130.144C48.9247 129.874 49.019 129.63 49.1808 129.4L49.1943 129.387Z" fill="#612A7A"/>
<path d="M55.3814 130.36C55.3275 130.509 55.2331 130.644 55.0983 130.793C54.9635 130.928 54.8152 131.064 54.64 131.172C54.1952 131.456 53.7773 131.564 53.3864 131.496C52.9955 131.429 52.6585 131.172 52.3754 130.726L51.3914 129.184L50.8118 129.549L50.2861 128.711L50.8657 128.346L50.2861 127.426L51.3779 126.736L51.9576 127.656L52.8877 127.061L53.4134 127.899L52.4833 128.494L53.4538 130.022C53.5482 130.185 53.6695 130.279 53.8043 130.306C53.9391 130.347 54.0873 130.306 54.2356 130.212C54.4109 130.104 54.5187 129.955 54.5861 129.792L55.3679 130.374L55.3814 130.36Z" fill="#612A7A"/>
<path d="M52.8203 124.951L53.9121 124.261L57.2011 129.454L56.1093 130.144L52.8203 124.951Z" fill="#612A7A"/>
<path d="M60.8541 124.897L58.0234 126.709C58.2256 126.912 58.4547 127.02 58.7378 127.034C59.0209 127.047 59.2905 126.966 59.5735 126.777C59.7623 126.655 59.924 126.52 60.0318 126.358C60.1397 126.209 60.234 126.02 60.2745 125.817L61.2585 126.074C61.1641 126.709 60.7732 127.237 60.0992 127.669C59.6814 127.94 59.25 128.102 58.8187 128.143C58.3873 128.183 57.9964 128.116 57.6325 127.94C57.2685 127.764 56.972 127.48 56.7293 127.115C56.5002 126.75 56.3789 126.358 56.3654 125.952C56.3519 125.546 56.4463 125.168 56.6485 124.802C56.8507 124.437 57.1337 124.14 57.5112 123.896C57.8751 123.667 58.266 123.531 58.6569 123.504C59.0613 123.477 59.4387 123.545 59.7892 123.734C60.1532 123.923 60.4497 124.207 60.6923 124.6C60.6923 124.613 60.7597 124.721 60.8541 124.911V124.897ZM57.5381 125.316C57.4572 125.56 57.4842 125.817 57.592 126.087L59.4387 124.911C59.25 124.694 59.0209 124.573 58.7648 124.532C58.5087 124.491 58.2525 124.559 58.0099 124.708C57.7673 124.87 57.6055 125.073 57.5246 125.316H57.5381Z" fill="#612A7A"/>
<path d="M17.8138 102.49L27.3708 96.3909C27.3708 96.3909 23.1247 99.6634 23.61 101.056C24.0953 102.449 34.2589 118.474 34.2589 118.474L29.5814 118.595L27.4382 122.828L16.5736 105.546C16.5736 105.546 16.1693 104.288 17.8003 102.49H17.8138Z" fill="#8DC63F"/>
<path d="M38.0466 107.669L35.2159 111.374L39.7585 110.36L40.6347 111.753L34.0836 113.105L33.167 111.658L37.1705 106.276L38.0466 107.655V107.669Z" fill="#D1EDF8"/>
<path d="M39.4081 101.029L40.9447 100.042L43.9237 112.848L42.3871 113.835L39.4081 101.029Z" fill="#D1EDF8"/>
<path d="M49.4369 101.3L50.3535 102.747L46.3501 108.129L45.4739 106.736L48.3046 103.03L43.7485 104.031L42.8723 102.652L49.4234 101.3H49.4369Z" fill="#D1EDF8"/>
<path d="M83.7155 151.064L77.4475 141.895L81.734 139.015L65.9494 129.414L69.1036 147.534L73.8889 144.302L80.1838 153.498L83.7155 151.064Z" fill="#612A7A"/>
<path d="M45.9861 71.5496C42.8319 73.1318 37.804 71.7795 34.7172 70.6571C33.1131 70.0756 32.2504 68.3447 32.7626 66.722C33.7332 63.5711 35.6742 58.73 38.8284 57.1613C43.6407 54.7542 49.1403 56.0254 51.1084 60.0011C53.0899 63.9768 50.7983 69.1426 45.9861 71.5496Z" fill="#612A7A"/>
<path d="M47.0645 57.7427C47.0645 57.7427 46.8353 53.456 48.4124 52.8069C49.9895 52.1578 46.3635 49.5749 43.2498 55.3897C40.136 61.2046 47.051 57.7427 47.051 57.7427H47.0645Z" fill="#612A7A"/>
<path d="M50.4748 64.5989C50.4748 64.5989 53.7504 67.3711 55.2196 66.4786C56.6889 65.5996 56.5676 70.0621 50.0569 69.0614C43.5463 68.0607 50.4748 64.5989 50.4748 64.5989Z" fill="#612A7A"/>
<path d="M38.451 70.6164C38.451 70.6164 38.6802 74.9032 37.1031 75.5523C35.526 76.2014 39.152 78.7843 42.2658 72.9694C45.3795 67.1546 38.4645 70.6164 38.4645 70.6164H38.451Z" fill="#612A7A"/>
<path d="M35.0407 63.7603C35.0407 63.7603 31.7651 60.9882 30.2959 61.8807C28.8266 62.7596 28.9479 58.2971 35.4586 59.2978C41.9692 60.2985 35.0407 63.7603 35.0407 63.7603Z" fill="#612A7A"/>
<path d="M55.3679 61.8402C53.6156 62.7192 51.4858 62.0025 50.6231 60.2445C49.7604 58.4865 50.4613 56.3499 52.2137 55.4845C53.966 54.619 57.2281 54.7542 58.0908 56.5122C58.967 58.2702 57.1203 60.9747 55.3679 61.8402Z" fill="#612A7A"/>
<path d="M45.1369 69.3318L39.4889 68.9938L36.9683 63.9227L40.082 59.1897L45.73 59.5278L48.2507 64.5988L45.1369 69.3318ZM40.3516 67.6821L44.4494 67.9255L46.714 64.4907L44.8808 60.8124L40.783 60.569L38.5184 64.0038L40.3516 67.6821Z" fill="white"/>
<path d="M51.0544 65.356H51.0275L47.3745 65.2073C46.9971 65.1937 46.714 64.8827 46.7275 64.5041C46.741 64.1254 47.0375 63.855 47.4284 63.855L51.0814 64.0037C51.4588 64.0173 51.7419 64.3283 51.7284 64.7069C51.7149 65.072 51.4184 65.356 51.0544 65.356Z" fill="white"/>
<path d="M45.2986 60.8531C45.1773 60.8531 45.0425 60.8125 44.9347 60.7449C44.6247 60.542 44.5303 60.1228 44.7325 59.8118L46.6601 56.7827C46.8623 56.4717 47.2801 56.377 47.5902 56.5798C47.9002 56.7827 47.9946 57.2019 47.7924 57.5129L45.8648 60.542C45.73 60.7449 45.5143 60.8531 45.2986 60.8531Z" fill="white"/>
<path d="M45.9591 71.6848C45.7165 71.6848 45.4739 71.5495 45.3526 71.3061L44.1664 68.9396C44.0046 68.6016 44.1394 68.1959 44.4629 68.0336C44.7999 67.8713 45.2043 68.0066 45.366 68.3311L46.5523 70.6976C46.714 71.0357 46.5792 71.4414 46.2557 71.6036C46.1613 71.6577 46.0535 71.6713 45.9591 71.6713V71.6848Z" fill="white"/>
<path d="M40.4325 60.5555C40.1899 60.5555 39.9472 60.4203 39.8259 60.1769L38.6936 57.8915C38.5319 57.5535 38.6667 57.1478 38.9902 56.9855C39.3272 56.8232 39.7316 56.9585 39.8933 57.283L41.0256 59.5684C41.1874 59.9064 41.0526 60.3121 40.7291 60.4744C40.6347 60.5285 40.5269 60.542 40.4325 60.542V60.5555Z" fill="white"/>
<path d="M37.7366 64.6392C37.7366 64.6392 37.7096 64.6392 37.6827 64.6392L34.4072 64.4094C34.0297 64.3823 33.7601 64.0578 33.7871 63.6926C33.814 63.3275 34.1376 63.0165 34.5015 63.0706L37.777 63.3005C38.1545 63.3275 38.4241 63.6521 38.3971 64.0172C38.3701 64.3688 38.0736 64.6392 37.7231 64.6392H37.7366Z" fill="white"/>
<path d="M38.114 71.7524C37.9927 71.7524 37.8579 71.7118 37.7501 71.6442C37.44 71.4414 37.3457 71.0222 37.5479 70.7112L39.3407 67.9525C39.5429 67.6415 39.9607 67.5603 40.2708 67.7496C40.5808 67.9525 40.6752 68.3717 40.473 68.6827L38.6802 71.4414C38.5454 71.6442 38.3297 71.7524 38.114 71.7524Z" fill="white"/>
<path d="M55.0714 56.7013C55.4213 56.7013 55.7049 56.4168 55.7049 56.0657C55.7049 55.7147 55.4213 55.4302 55.0714 55.4302C54.7215 55.4302 54.4378 55.7147 54.4378 56.0657C54.4378 56.4168 54.7215 56.7013 55.0714 56.7013Z" fill="white"/>
<path d="M56.6215 59.8117C56.9714 59.8117 57.2551 59.5271 57.2551 59.1761C57.2551 58.8251 56.9714 58.5405 56.6215 58.5405C56.2716 58.5405 55.988 58.8251 55.988 59.1761C55.988 59.5271 56.2716 59.8117 56.6215 59.8117Z" fill="white"/>
<path d="M117.347 49.3585L112.225 51.1571L110.27 56.458L108.424 51.2653L103.18 49.3585L108.477 47.3842L110.27 42.259L112.171 47.5059L117.347 49.3585Z" fill="#612A7A"/>
<path d="M231.708 139.096L177.803 152.484C168.408 154.823 158.986 149.414 156.761 140.422C154.537 131.415 160.36 122.233 169.756 119.894L223.661 106.506C233.056 104.167 242.478 109.576 244.702 118.569C246.926 127.575 241.103 136.757 231.708 139.096Z" fill="white"/>
<path d="M173.368 153.714C170.174 153.714 167.046 152.903 164.256 151.294C160.118 148.927 157.22 145.114 156.101 140.584C154.982 136.054 155.777 131.334 158.325 127.291C160.873 123.261 164.876 120.408 169.594 119.231L223.499 105.843C228.217 104.681 233.083 105.33 237.208 107.696C241.346 110.063 244.244 113.876 245.363 118.406C246.482 122.936 245.686 127.656 243.139 131.699C240.591 135.729 236.588 138.582 231.87 139.759L177.965 153.146C176.442 153.525 174.891 153.714 173.368 153.714ZM228.095 106.641C226.68 106.641 225.238 106.817 223.822 107.169L169.917 120.556C165.537 121.638 161.83 124.302 159.471 128.021C157.112 131.74 156.384 136.081 157.422 140.259C158.46 144.438 161.115 147.927 164.93 150.117C168.758 152.308 173.274 152.917 177.641 151.835L231.546 138.447C235.927 137.365 239.634 134.701 241.993 130.982C244.352 127.264 245.08 122.923 244.042 118.744C243.004 114.566 240.348 111.077 236.534 108.886C233.946 107.399 231.047 106.641 228.095 106.641Z" fill="#612A7A"/>
<path d="M175.511 143.991C174.19 143.937 173.085 143.721 172.195 143.329L172.789 140.083C173.638 140.435 174.581 140.638 175.646 140.719C176.711 140.8 177.736 140.719 178.72 140.462C179.811 140.192 180.58 139.826 181.025 139.367C181.469 138.907 181.618 138.407 181.483 137.866C181.389 137.473 181.146 137.176 180.769 136.987C180.391 136.797 179.946 136.689 179.421 136.649C178.895 136.608 178.194 136.594 177.331 136.608C175.983 136.621 174.864 136.581 173.988 136.473C173.099 136.378 172.29 136.054 171.548 135.54C170.807 135.012 170.295 134.187 170.025 133.079C169.783 132.105 169.837 131.158 170.16 130.239C170.484 129.319 171.131 128.494 172.074 127.778C173.018 127.047 174.244 126.506 175.781 126.128C176.846 125.857 177.924 125.736 179.003 125.736C180.081 125.736 181.065 125.884 181.941 126.168L181.469 129.4C179.717 128.9 178.059 128.846 176.522 129.238C175.444 129.508 174.689 129.874 174.258 130.36C173.827 130.834 173.692 131.361 173.827 131.943C173.975 132.511 174.366 132.876 175.04 132.997C175.714 133.119 176.684 133.173 177.965 133.146C179.313 133.146 180.432 133.173 181.308 133.281C182.197 133.39 183.006 133.687 183.748 134.201C184.489 134.715 185.001 135.526 185.271 136.635C185.5 137.595 185.459 138.528 185.122 139.448C184.785 140.367 184.138 141.192 183.195 141.922C182.238 142.653 181.011 143.207 179.488 143.586C178.167 143.91 176.846 144.046 175.525 143.991H175.511Z" fill="#8DC63F"/>
<path d="M196.971 138.271C196.674 138.637 196.27 138.948 195.771 139.218C195.273 139.488 194.733 139.691 194.14 139.84C192.617 140.219 191.337 140.124 190.312 139.543C189.288 138.975 188.587 137.92 188.209 136.405L186.902 131.118L184.92 131.605L184.219 128.738L186.201 128.251L185.432 125.114L189.153 124.194L189.921 127.331L193.116 126.534L193.83 129.4L190.636 130.198L191.93 135.432C192.064 135.973 192.307 136.351 192.657 136.581C193.008 136.811 193.439 136.851 193.952 136.73C194.545 136.581 195.003 136.297 195.34 135.878L196.984 138.258L196.971 138.271Z" fill="#8DC63F"/>
<path d="M206.097 124.316C207.391 125.005 208.28 126.304 208.752 128.21L210.558 135.553L207.081 136.419L206.69 134.823C206.285 136.189 205.126 137.108 203.226 137.582C202.241 137.825 201.352 137.866 200.543 137.717C199.734 137.555 199.074 137.23 198.548 136.743C198.022 136.243 197.658 135.621 197.483 134.877C197.187 133.687 197.402 132.632 198.13 131.726C198.858 130.82 200.166 130.131 202.039 129.671L204.991 128.941C204.789 128.129 204.385 127.561 203.792 127.25C203.185 126.939 202.39 126.899 201.406 127.142C200.718 127.318 200.085 127.588 199.478 127.967C198.872 128.346 198.386 128.778 198.009 129.252L196.027 126.98C196.607 126.317 197.348 125.722 198.265 125.208C199.168 124.694 200.152 124.302 201.177 124.059C203.158 123.572 204.803 123.667 206.11 124.343L206.097 124.316ZM205.113 133.971C205.531 133.552 205.773 133.038 205.841 132.402L205.517 131.091L202.969 131.726C201.446 132.105 200.799 132.795 201.055 133.795C201.177 134.269 201.446 134.607 201.891 134.796C202.336 134.985 202.875 134.999 203.536 134.837C204.169 134.674 204.695 134.39 205.113 133.971Z" fill="#8DC63F"/>
<path d="M216.179 120.813C216.853 120.313 217.689 119.934 218.673 119.691L219.522 123.139C219.104 123.207 218.821 123.261 218.673 123.302C217.608 123.572 216.853 124.072 216.395 124.816C215.937 125.56 215.856 126.533 216.152 127.737L217.649 133.809L213.928 134.728L210.761 121.868L214.306 120.989L214.724 122.679C215.02 121.949 215.492 121.327 216.179 120.827V120.813Z" fill="#8DC63F"/>
<path d="M232.665 129.4C232.368 129.765 231.964 130.076 231.465 130.347C230.967 130.617 230.427 130.82 229.834 130.969C228.311 131.348 227.03 131.253 226.006 130.671C224.982 130.104 224.281 129.049 223.903 127.548L222.596 122.26L220.614 122.747L219.9 119.88L221.881 119.393L221.113 116.27L224.833 115.35L225.602 118.487L228.796 117.69L229.511 120.556L226.316 121.354L227.61 126.588C227.745 127.129 227.988 127.507 228.338 127.737C228.688 127.967 229.12 128.007 229.632 127.886C230.225 127.737 230.683 127.453 231.02 127.034L232.665 129.414V129.4Z" fill="#8DC63F"/>
<path d="M83.3515 176C82.9876 176 82.6371 175.784 82.4754 175.432C82.2597 174.945 82.4754 174.377 82.9606 174.161C83.4055 173.877 83.9581 174.039 84.2412 174.485C84.5243 174.932 84.3356 175.554 83.8907 175.824C83.8503 175.851 83.7829 175.892 83.7425 175.905C83.6211 175.959 83.4863 175.987 83.3515 175.987V176ZM92.9894 169.725C92.6929 169.725 92.3963 169.59 92.2076 169.32C91.8976 168.887 92.0054 168.292 92.4233 167.981C92.8546 167.683 93.4612 167.765 93.7713 168.184C94.0813 168.603 94.0004 169.185 93.5825 169.509C93.5825 169.509 93.5421 169.536 93.5286 169.55C93.3669 169.671 93.1647 169.725 92.976 169.725H92.9894ZM101.805 162.342C101.535 162.342 101.266 162.234 101.077 162.004C100.74 161.598 100.781 161.003 101.185 160.652C101.576 160.314 102.169 160.327 102.52 160.719C102.87 161.098 102.87 161.666 102.52 162.031C102.506 162.044 102.452 162.085 102.439 162.112C102.263 162.261 102.034 162.342 101.819 162.342H101.805ZM109.664 153.917C109.462 153.917 109.246 153.85 109.071 153.714C108.666 153.39 108.585 152.808 108.895 152.403L109.677 152.944L110.405 153.566C110.216 153.796 109.933 153.904 109.664 153.904V153.917ZM116.43 144.613C116.228 144.613 116.026 144.546 115.864 144.424C115.446 144.1 115.352 143.505 115.676 143.085C115.999 142.666 116.565 142.558 116.997 142.856C117.414 143.139 117.549 143.707 117.28 144.14C117.266 144.167 117.226 144.221 117.212 144.235C117.024 144.492 116.74 144.613 116.444 144.613H116.43ZM122.051 134.566C121.876 134.566 121.701 134.512 121.539 134.417C121.094 134.133 120.96 133.552 121.243 133.092C121.458 132.605 121.998 132.429 122.483 132.646C122.968 132.862 123.157 133.471 122.941 133.957C122.928 133.998 122.887 134.066 122.86 134.106C122.685 134.39 122.361 134.552 122.051 134.552V134.566ZM126.5 123.937C126.365 123.937 126.244 123.91 126.109 123.856C125.624 123.64 125.408 123.072 125.624 122.585C125.826 122.125 126.378 121.882 126.85 122.057C127.322 122.247 127.578 122.747 127.416 123.234C127.416 123.261 127.389 123.329 127.376 123.356C127.214 123.707 126.864 123.924 126.5 123.924V123.937ZM129.802 112.889C129.708 112.889 129.613 112.889 129.533 112.848C129.034 112.7 128.737 112.159 128.899 111.658C129.047 111.171 129.56 110.847 130.058 110.982C130.557 111.117 130.867 111.591 130.759 112.105C130.759 112.132 130.746 112.186 130.732 112.213C130.611 112.632 130.234 112.889 129.816 112.889H129.802ZM131.986 101.57C131.918 101.57 131.851 101.57 131.784 101.543C131.271 101.435 130.948 100.921 131.056 100.407C131.11 99.8799 131.568 99.5283 132.094 99.5824C132.619 99.6365 132.997 100.137 132.943 100.664C132.943 100.705 132.929 100.772 132.916 100.813C132.822 101.259 132.417 101.57 131.986 101.57ZM133.078 90.0893C133.078 90.0893 133.01 90.0893 132.97 90.0893C132.444 90.0352 132.067 89.5619 132.121 89.0345C132.121 88.5071 132.552 88.115 133.078 88.115C133.603 88.115 134.035 88.5748 134.035 89.1021C134.035 89.1427 134.035 89.2103 134.035 89.2509C133.981 89.7377 133.563 90.1028 133.091 90.1028L133.078 90.0893ZM133.118 78.5949C132.633 78.5949 132.215 78.2027 132.161 77.7024C132.161 77.6618 132.161 77.5942 132.161 77.5536C132.161 77.0262 132.592 76.5935 133.118 76.5935C133.644 76.5935 134.075 77.0262 134.075 77.5536C134.129 78.081 133.752 78.5273 133.226 78.5814C133.199 78.5814 133.159 78.5814 133.132 78.5814L133.118 78.5949ZM24.594 71.9687C24.1222 71.9687 23.7313 71.6036 23.6774 71.1167C23.6235 70.5894 24.0279 70.1161 24.5536 70.062C25.1062 70.0079 25.6589 70.4541 25.6589 71.0086C25.6589 71.5359 25.2276 71.9687 24.7018 71.9687C24.7018 71.9687 24.621 71.9687 24.594 71.9687ZM13.0285 70.1296C12.5567 69.9267 12.3276 69.3858 12.5028 68.899C12.6781 68.4257 13.1903 68.1688 13.689 68.331L13.4194 69.2506L13.0285 70.1296ZM35.9843 69.9267C35.5934 69.9267 35.2159 69.6833 35.0811 69.2912C34.9059 68.7908 35.1485 68.2634 35.6338 68.0741L35.9977 68.9666L36.3078 69.8726C36.1999 69.9132 36.0921 69.9267 35.9843 69.9267ZM132.121 67.1005C131.676 67.1005 131.271 66.7624 131.164 66.3161C131.164 66.2756 131.15 66.2079 131.137 66.1674C131.083 65.64 131.474 65.1667 131.986 65.1126C132.498 65.045 132.983 65.4507 133.037 65.9645C133.145 66.4784 132.822 66.9517 132.309 67.0734C132.242 67.0869 132.188 67.1005 132.121 67.1005ZM4.7251 61.9888L3.91632 62.4892C3.64673 62.0564 3.75457 61.4749 4.17243 61.1774C4.5903 60.8799 5.15644 60.9611 5.46647 61.3803L4.7251 61.9888ZM130.018 55.7007C129.613 55.7007 129.236 55.4437 129.115 55.0245L130.018 54.7135L130.948 54.5107C131.056 55.011 130.759 55.5249 130.261 55.6601C130.18 55.6872 130.099 55.6872 130.004 55.6872L130.018 55.7007ZM0.964291 52.1577C0.479026 52.1577 0.0611589 51.7926 0.0207202 51.2922C-0.0871165 50.7784 0.236394 50.3051 0.748618 50.1834C1.26084 50.0752 1.77307 50.4268 1.89438 50.9542C1.89438 50.9947 1.90786 51.0623 1.92134 51.1029C1.97526 51.6303 1.58435 52.1036 1.07213 52.1577C1.04517 52.1577 1.00473 52.1577 0.977771 52.1577H0.964291ZM126.81 44.6255C126.446 44.6255 126.109 44.4226 125.947 44.071L126.81 43.6518L127.713 43.3543C127.875 43.8411 127.632 44.382 127.16 44.5714C127.039 44.6119 126.918 44.639 126.81 44.639V44.6255ZM1.32824 40.6903C1.24736 40.6903 1.16649 40.6903 1.09909 40.6633C0.600343 40.528 0.290312 40.0547 0.398149 39.5409C0.398149 39.5138 0.411628 39.4597 0.425108 39.4327C0.573383 38.9323 1.11257 38.6348 1.61131 38.7971C2.11006 38.9459 2.40661 39.4868 2.24485 39.9871C2.12354 40.4063 1.73263 40.6903 1.31476 40.6903H1.32824ZM122.483 34.01C122.146 34.01 121.809 33.8342 121.62 33.5232C121.593 33.4826 121.553 33.415 121.539 33.3744C121.324 32.8876 121.539 32.3197 122.024 32.1033C122.51 31.8869 123.076 32.1033 123.292 32.5901C123.575 33.0364 123.413 33.5908 122.968 33.8613C122.82 33.9559 122.658 33.9965 122.496 33.9965L122.483 34.01ZM5.99218 30.2101C5.80346 30.2101 5.62823 30.156 5.46647 30.0478C5.04861 29.7638 4.91381 29.1959 5.1834 28.7631C5.19688 28.7361 5.23732 28.682 5.2508 28.6685C5.56083 28.2493 6.16741 28.1546 6.58528 28.4792C7.00315 28.8037 7.0975 29.3987 6.77399 29.8179C6.58528 30.0749 6.28873 30.2101 5.99218 30.2101ZM116.646 24.0166C116.323 24.0166 116.013 23.8543 115.837 23.5704C115.568 23.1376 115.676 22.5426 116.093 22.2586C116.511 21.9747 117.077 22.0423 117.387 22.4615C117.401 22.4885 117.441 22.5426 117.455 22.5562C117.738 23.0024 117.603 23.5974 117.158 23.8814C116.997 23.9761 116.821 24.0301 116.646 24.0301V24.0166ZM13.5003 21.5149C13.2442 21.5149 12.9881 21.4202 12.7994 21.2174C12.4489 20.8388 12.4489 20.2708 12.7994 19.9057C12.8129 19.8922 12.8668 19.8516 12.8802 19.8245C13.2846 19.4865 13.8777 19.527 14.2282 19.9327C14.5652 20.3384 14.5248 20.9334 14.1204 21.285C13.9317 21.4473 13.7025 21.5149 13.4734 21.5149H13.5003ZM109.219 15.2268C109.003 15.2268 108.788 15.1456 108.612 14.9969L109.205 14.2396L109.879 13.5635C110.243 13.9286 110.27 14.5236 109.92 14.9022C109.731 15.1051 109.475 15.2132 109.219 15.2132V15.2268ZM22.6799 14.5912C22.3564 14.5912 22.0329 14.4289 21.8577 14.1314C21.6015 13.6852 21.7229 13.1172 22.1542 12.8467C22.1677 12.8467 22.2216 12.8062 22.2351 12.8062C22.6934 12.5492 23.273 12.7115 23.5291 13.1848C23.7852 13.6446 23.6235 14.2261 23.1517 14.483C23.0034 14.5641 22.8417 14.6047 22.6799 14.6047V14.5912ZM32.8705 9.24966C32.5065 9.24966 32.1426 9.04682 31.9808 8.6817C31.7652 8.19488 31.9673 7.64044 32.4526 7.42407H32.493C32.9783 7.19418 33.5445 7.41055 33.7601 7.89737C33.9758 8.3842 33.7601 8.95216 33.2749 9.16852C33.1401 9.22261 33.0053 9.24966 32.884 9.24966H32.8705ZM99.9584 8.47886C99.7832 8.47886 99.6079 8.42476 99.4462 8.3301C98.9609 8.11374 98.7857 7.57282 99.0013 7.086C99.217 6.59918 99.8236 6.40986 100.309 6.62622C100.349 6.63975 100.417 6.68032 100.457 6.70736C100.902 6.99134 101.037 7.57282 100.754 8.0326C100.578 8.31658 100.255 8.47886 99.9449 8.47886H99.9584ZM43.6137 5.39564C43.2228 5.39564 42.8723 5.13871 42.7375 4.73302C42.5758 4.23268 42.8858 3.67824 43.3846 3.51597C43.425 3.51597 43.4924 3.4754 43.5328 3.4754C44.0585 3.38074 44.5573 3.70529 44.6516 4.23268C44.746 4.76007 44.4225 5.26042 43.8968 5.35508C43.8024 5.38212 43.6946 5.40917 43.6002 5.40917L43.6137 5.39564ZM89.1747 4.55723C89.0804 4.55723 88.986 4.55723 88.9051 4.51666C88.4064 4.36791 88.1098 3.85404 88.2311 3.35369C88.3525 2.85335 88.8377 2.54232 89.35 2.6505C89.3769 2.6505 89.4308 2.66403 89.4578 2.67755C89.9565 2.8263 90.2531 3.36722 90.0913 3.86756C89.97 4.28677 89.5926 4.5437 89.1747 4.5437V4.55723ZM54.9096 2.92096C54.4243 2.92096 54.0065 2.55584 53.966 2.0555C53.9121 1.52811 54.303 1.05481 54.8153 1.00072C55.3275 0.879009 55.7993 1.21708 55.9206 1.73095C56.0284 2.24482 55.6779 2.75869 55.1522 2.88039C55.1118 2.88039 55.0444 2.89392 55.004 2.90744C54.977 2.90744 54.9366 2.90744 54.9096 2.90744V2.92096ZM77.8788 2.43414C77.8788 2.43414 77.8114 2.43414 77.771 2.43414C77.2453 2.38005 76.8544 1.90675 76.9083 1.37936C76.9622 0.851964 77.4205 0.459801 77.9327 0.527415C77.9327 0.527415 77.9732 0.527415 77.9867 0.527415C78.5124 0.581506 78.8898 1.05481 78.8359 1.5822C78.782 2.06902 78.3641 2.43414 77.8923 2.43414H77.8788ZM66.3538 1.92027C65.8281 1.92027 65.3967 1.48754 65.3967 0.960146C65.3967 0.432755 65.8281 2.34218e-05 66.3673 2.34218e-05C66.893 -0.0675909 67.3378 0.324572 67.3917 0.851964C67.4456 1.37936 67.0412 1.85266 66.5155 1.90675C66.4751 1.90675 66.4077 1.90675 66.3673 1.90675L66.3538 1.92027Z" fill="#612A7A"/>
</svg>
