<svg width="213" height="218" viewBox="0 0 213 218" fill="none" xmlns="http://www.w3.org/2000/svg">
<path d="M33.5196 82.7783C34.5429 82.7783 35.5662 82.7783 36.5896 82.7783C37.1614 82.8536 37.7183 82.8987 38.2751 82.989C43.6927 83.8016 48.3127 86.1944 52.0449 90.2276C55.0998 93.5233 57.0261 97.4059 57.8086 101.845C57.9591 102.688 58.0494 103.531 58.1698 104.374V107.444C58.1397 107.594 58.1096 107.73 58.0795 107.88C57.9742 108.663 57.929 109.46 57.7635 110.243C56.6348 115.886 53.8508 120.536 49.306 124.088C44.1592 128.121 38.2901 129.641 31.8341 128.813C27.9966 128.317 24.4752 126.932 21.3901 124.569C14.1817 119.031 11.0515 111.702 12.15 102.688C12.8122 97.2404 15.3254 92.6505 19.3585 88.9183C22.6693 85.8483 26.567 83.907 31.0215 83.1395C31.8492 82.989 32.6768 82.8987 33.5045 82.7783H33.5196ZM33.8657 99.0162C33.8657 99.0162 33.7754 98.971 33.7604 98.971C30.6753 98.971 27.5903 98.971 24.5053 98.971C24.3849 98.971 24.1892 99.1516 24.1742 99.272C23.9635 100.762 23.7227 102.237 23.6174 103.742C23.3916 106.631 23.6174 109.505 24.129 112.365C24.1892 112.741 24.3096 112.846 24.7009 112.846C27.6053 112.831 30.5098 112.846 33.4142 112.846C33.5647 112.846 33.7152 112.846 33.8808 112.831V99.0312L33.8657 99.0162ZM36.2585 112.786C36.2585 112.786 36.3488 112.831 36.3789 112.831C39.4639 112.831 42.549 112.831 45.634 112.831C45.7544 112.831 45.95 112.651 45.9651 112.53C46.1758 111.055 46.4015 109.596 46.5219 108.106C46.7476 105.186 46.5219 102.282 45.9952 99.3924C45.935 99.0613 45.8146 98.956 45.4685 98.956C42.5339 98.956 39.5994 98.956 36.6648 98.956C36.5294 98.956 36.409 98.956 36.2435 98.9861V112.786H36.2585ZM21.8416 98.9861H15.521C13.8957 102.824 13.9108 109.942 15.5511 112.816H21.8416C20.9687 108.196 20.9687 103.621 21.8416 98.9861ZM48.2826 98.9861C49.1555 103.621 49.1404 108.211 48.2826 112.756C48.388 112.801 48.4181 112.816 48.4482 112.816C50.4196 112.816 52.391 112.816 54.3624 112.816C54.4828 112.816 54.6483 112.681 54.6935 112.56C55.2353 111.025 55.5814 109.445 55.7469 107.835C56.0329 104.93 55.6566 102.116 54.7537 99.3472C54.6634 99.0613 54.543 98.956 54.227 98.956C52.4061 98.971 50.5851 98.956 48.7642 98.956C48.6288 98.956 48.4933 98.956 48.2826 98.9861ZM33.8657 85.2313C32.1501 85.5774 30.7807 86.4804 29.5768 87.6843C27.6053 89.6707 26.3412 92.1087 25.3931 94.7122C25.1674 95.3292 24.9868 95.9462 24.7611 96.5933H33.8657V85.2313ZM45.3029 96.6083C45.2728 96.4879 45.2728 96.3976 45.2427 96.3074C44.7311 94.5918 44.084 92.9364 43.2111 91.3562C42.1878 89.5052 40.9538 87.8348 39.2382 86.5707C38.3353 85.9085 37.3571 85.4269 36.2435 85.2313V96.5933H45.3029V96.6083ZM33.8657 115.209H24.7611C24.9567 115.796 25.1072 116.338 25.3028 116.879C26.266 119.558 27.5451 122.071 29.5768 124.118C30.7656 125.322 32.1501 126.24 33.8657 126.571V115.209ZM36.2435 126.556C37.6731 126.33 39.2683 125.427 40.5324 124.118C42.4888 122.116 43.7679 119.693 44.716 117.09C44.9418 116.473 45.1223 115.856 45.333 115.209H36.2284V126.556H36.2435ZM16.4541 96.6384C16.7099 96.6384 16.8604 96.6384 17.0109 96.6384C18.6211 96.6384 20.2313 96.6234 21.8416 96.6384C22.2479 96.6384 22.4134 96.518 22.5037 96.1268C23.2261 93.5082 24.2494 91.0252 25.7543 88.7528C26.2208 88.0455 26.7626 87.3833 27.3345 86.5857C22.4736 88.6625 18.892 91.9281 16.439 96.6234L16.4541 96.6384ZM42.8349 86.7212C43.3466 87.4134 43.8733 88.0756 44.3398 88.7979C45.8447 91.0703 46.8831 93.5534 47.5904 96.1719C47.6957 96.5481 47.8613 96.6535 48.2375 96.6535C49.8327 96.6384 51.4279 96.6535 53.0231 96.6535C53.2036 96.6535 53.3692 96.6535 53.6401 96.6535C51.2021 91.9732 47.6205 88.7076 42.8349 86.7362V86.7212ZM27.3345 125.216C26.7626 124.434 26.2208 123.772 25.7543 123.064C24.2344 120.777 23.196 118.279 22.4887 115.645C22.3984 115.299 22.263 115.164 21.8867 115.179C20.2464 115.209 18.6061 115.179 16.9657 115.179C16.8303 115.179 16.6798 115.194 16.4691 115.209C18.892 119.859 22.4887 123.14 27.3345 125.216ZM42.7898 125.096C47.6054 123.125 51.2021 119.859 53.625 115.179C53.3692 115.179 53.2037 115.179 53.0381 115.179C51.458 115.179 49.8778 115.194 48.2977 115.179C47.8763 115.179 47.6807 115.284 47.5603 115.721C46.7175 118.73 45.4835 121.575 43.6024 124.088C43.3466 124.434 43.0606 124.765 42.7898 125.096Z" fill="#8DC63F"/>
<path d="M113.159 167.098V177.482L123.106 178.896C124.024 183.983 126.011 188.693 128.81 192.801L122.76 200.868L130.104 208.212L138.14 202.192C142.233 205.021 146.929 207.038 152.015 207.986L153.445 217.963H163.829L165.258 208.016C170.345 207.098 175.055 205.111 179.164 202.312L187.23 208.362L194.574 201.018L188.554 192.982C191.383 188.889 193.4 184.193 194.348 179.107L204.326 177.677V167.293L194.378 165.864C193.46 160.777 191.474 156.067 188.675 151.959L194.724 143.892L187.38 136.548L179.344 142.568C175.251 139.739 170.556 137.722 165.469 136.774L164.039 126.797H153.656L152.241 136.744C147.154 137.662 142.444 139.648 138.336 142.448L130.269 136.398L122.926 143.742L128.945 151.778C126.116 155.871 124.099 160.567 123.151 165.653L113.174 167.083L113.159 167.098ZM158.742 147.218C172.647 147.218 183.904 158.49 183.904 172.38C183.904 186.27 172.632 197.542 158.742 197.542C144.852 197.542 133.58 186.27 133.58 172.38C133.58 158.49 144.852 147.218 158.742 147.218Z" fill="#D1EDF8"/>
<path d="M136.65 89.2945V95.2539L142.354 96.0666C142.881 98.9861 144.024 101.695 145.635 104.043L142.158 108.663L146.372 112.876L150.977 109.415C153.325 111.04 156.018 112.199 158.938 112.741L159.751 118.474H165.71L166.523 112.771C169.442 112.244 172.151 111.1 174.499 109.49L179.119 112.967L183.332 108.753L179.871 104.148C181.496 101.8 182.655 99.1064 183.197 96.1869L188.931 95.3743V89.4149L183.227 88.6023C182.7 85.6828 181.557 82.9739 179.946 80.6263L183.423 76.0063L179.209 71.7926L174.604 75.2538C172.256 73.6285 169.562 72.4698 166.643 71.928L165.83 66.1943H159.871L159.058 71.8979C156.139 72.4246 153.43 73.5683 151.082 75.1786L146.462 71.7023L142.249 75.916L145.71 80.521C144.085 82.8686 142.926 85.5624 142.384 88.4819L136.65 89.2945ZM162.806 77.8874C170.781 77.8874 177.253 84.3584 177.253 92.3344C177.253 100.31 170.781 106.781 162.806 106.781C154.83 106.781 148.358 100.31 148.358 92.3344C148.358 84.3584 154.83 77.8874 162.806 77.8874Z" fill="#D1EDF8"/>
<path d="M164.897 25.7126H53.5047C51.3687 25.7126 49.6371 27.4442 49.6371 29.5802V180.732C49.6371 182.868 51.3687 184.6 53.5047 184.6H164.897C167.033 184.6 168.765 182.868 168.765 180.732V29.5802C168.765 27.4442 167.033 25.7126 164.897 25.7126Z" fill="white"/>
<path d="M164.897 185.367H53.5197C50.9764 185.367 48.8997 183.29 48.8997 180.747V29.5946C48.8997 27.0514 50.9764 24.9746 53.5197 24.9746H164.897C167.455 24.9746 169.517 27.0514 169.517 29.5946V180.732C169.517 183.275 167.44 185.352 164.897 185.352V185.367ZM53.5197 26.4645C51.8041 26.4645 50.4046 27.864 50.4046 29.5796V180.732C50.4046 182.447 51.8041 183.847 53.5197 183.847H164.897C166.613 183.847 168.012 182.447 168.012 180.732V29.5946C168.012 27.8791 166.613 26.4795 164.897 26.4795H53.5197V26.4645Z" fill="#612A7A"/>
<path d="M59.9004 35.6296C61.172 35.6296 62.2029 34.5988 62.2029 33.3271C62.2029 32.0555 61.172 31.0247 59.9004 31.0247C58.6288 31.0247 57.5979 32.0555 57.5979 33.3271C57.5979 34.5988 58.6288 35.6296 59.9004 35.6296Z" fill="#612A7A"/>
<path d="M66.4165 35.6296C67.6881 35.6296 68.719 34.5988 68.719 33.3271C68.719 32.0555 67.6881 31.0247 66.4165 31.0247C65.1449 31.0247 64.114 32.0555 64.114 33.3271C64.114 34.5988 65.1449 35.6296 66.4165 35.6296Z" fill="#612A7A"/>
<path d="M72.9478 35.6296C74.2194 35.6296 75.2503 34.5988 75.2503 33.3271C75.2503 32.0555 74.2194 31.0247 72.9478 31.0247C71.6761 31.0247 70.6453 32.0555 70.6453 33.3271C70.6453 34.5988 71.6761 35.6296 72.9478 35.6296Z" fill="#612A7A"/>
<path d="M168.765 40.9114H49.6371C49.2157 40.9114 48.8846 40.5803 48.8846 40.1589C48.8846 39.7376 49.2157 39.4065 49.6371 39.4065H168.765C169.186 39.4065 169.517 39.7376 169.517 40.1589C169.517 40.5803 169.186 40.9114 168.765 40.9114Z" fill="#612A7A"/>
<path d="M63.8585 170.318L54.197 156.247L60.7885 151.823L36.4844 137.06L41.3301 164.9L48.7192 159.934L58.4107 174.065L63.8585 170.318Z" fill="#612A7A"/>
<path d="M151.714 49.7905H67.5001C64.616 49.7905 62.2781 52.1285 62.2781 55.0125V83.1541C62.2781 86.0381 64.616 88.3761 67.5001 88.3761H151.714C154.598 88.3761 156.936 86.0381 156.936 83.1541V55.0125C156.936 52.1285 154.598 49.7905 151.714 49.7905Z" fill="white"/>
<path d="M151.714 89.1283H67.5C64.2042 89.1283 61.5255 86.4496 61.5255 83.1539V55.0123C61.5255 51.7166 64.2042 49.0378 67.5 49.0378H151.714C155.01 49.0378 157.688 51.7166 157.688 55.0123V83.1539C157.688 86.4496 155.01 89.1283 151.714 89.1283ZM67.5 50.5427C65.0319 50.5427 63.0304 52.5442 63.0304 55.0123V83.1539C63.0304 85.6219 65.0319 87.6234 67.5 87.6234H151.714C154.182 87.6234 156.184 85.6219 156.184 83.1539V55.0123C156.184 52.5442 154.182 50.5427 151.714 50.5427H67.5Z" fill="#612A7A"/>
<path d="M85.1523 107.158H67.4698C64.5858 107.158 62.2478 109.496 62.2478 112.38V139.679C62.2478 142.563 64.5858 144.901 67.4698 144.901H85.1523C88.0364 144.901 90.3743 142.563 90.3743 139.679V112.38C90.3743 109.496 88.0364 107.158 85.1523 107.158Z" fill="white"/>
<path d="M85.1374 145.653H67.4699C64.1742 145.653 61.4955 142.974 61.4955 139.678V112.394C61.4955 109.099 64.1742 106.42 67.4699 106.42H85.1374C88.4331 106.42 91.1119 109.099 91.1119 112.394V139.678C91.1119 142.974 88.4331 145.653 85.1374 145.653ZM67.4699 107.91C65.0019 107.91 63.0004 109.911 63.0004 112.379V139.663C63.0004 142.131 65.0019 144.133 67.4699 144.133H85.1374C87.6055 144.133 89.607 142.131 89.607 139.663V112.379C89.607 109.911 87.6055 107.91 85.1374 107.91H67.4699Z" fill="#612A7A"/>
<path d="M118.396 107.158H100.713C97.8292 107.158 95.4912 109.496 95.4912 112.38V139.679C95.4912 142.563 97.8292 144.901 100.713 144.901H118.396C121.28 144.901 123.618 142.563 123.618 139.679V112.38C123.618 109.496 121.28 107.158 118.396 107.158Z" fill="white"/>
<path d="M118.381 145.653H100.713C97.4174 145.653 94.7386 142.974 94.7386 139.678V112.394C94.7386 109.099 97.4174 106.42 100.713 106.42H118.381C121.676 106.42 124.355 109.099 124.355 112.394V139.678C124.355 142.974 121.676 145.653 118.381 145.653ZM100.713 107.91C98.2451 107.91 96.2435 109.911 96.2435 112.379V139.663C96.2435 142.131 98.2451 144.133 100.713 144.133H118.381C120.849 144.133 122.85 142.131 122.85 139.663V112.379C122.85 109.911 120.849 107.91 118.381 107.91H100.713Z" fill="#612A7A"/>
<path d="M151.654 107.158H133.971C131.087 107.158 128.75 109.496 128.75 112.38V139.679C128.75 142.563 131.087 144.901 133.971 144.901H151.654C154.538 144.901 156.876 142.563 156.876 139.679V112.38C156.876 109.496 154.538 107.158 151.654 107.158Z" fill="white"/>
<path d="M151.639 145.653H133.972C130.676 145.653 127.997 142.974 127.997 139.678V112.394C127.997 109.099 130.676 106.42 133.972 106.42H151.639C154.935 106.42 157.613 109.099 157.613 112.394V139.678C157.613 142.974 154.935 145.653 151.639 145.653ZM133.972 107.91C131.503 107.91 129.502 109.911 129.502 112.379V139.663C129.502 142.131 131.503 144.133 133.972 144.133H151.639C154.107 144.133 156.109 142.131 156.109 139.663V112.379C156.109 109.911 154.107 107.91 151.639 107.91H133.972Z" fill="#612A7A"/>
<path d="M109.607 80.0687C115.674 80.0687 120.593 75.1502 120.593 69.0829C120.593 63.0157 115.674 58.0972 109.607 58.0972C103.54 58.0972 98.6215 63.0157 98.6215 69.0829C98.6215 75.1502 103.54 80.0687 109.607 80.0687Z" fill="#612A7A"/>
<path d="M145.183 157.48H73.2336C72.8123 157.48 72.4812 157.149 72.4812 156.728C72.4812 156.307 72.8123 155.976 73.2336 155.976H145.168C145.589 155.976 145.92 156.307 145.92 156.728C145.92 157.149 145.589 157.48 145.168 157.48H145.183Z" fill="#612A7A"/>
<path d="M139.404 162.838H79.0127C78.5913 162.838 78.2603 162.507 78.2603 162.086C78.2603 161.664 78.5913 161.333 79.0127 161.333H139.419C139.841 161.333 140.172 161.664 140.172 162.086C140.172 162.507 139.841 162.838 139.419 162.838H139.404Z" fill="#612A7A"/>
<path d="M98.7722 99.1206H83.9038C83.4824 99.1206 83.1514 98.7895 83.1514 98.3682C83.1514 97.9468 83.4824 97.6157 83.9038 97.6157H98.7722C99.1936 97.6157 99.5246 97.9468 99.5246 98.3682C99.5246 98.7895 99.1936 99.1206 98.7722 99.1206Z" fill="#612A7A"/>
<path d="M87.0338 101.755V95.1033L80.8336 98.4893L87.0338 101.755Z" fill="#612A7A"/>
<path d="M134.514 98.8955H119.645C119.224 98.8955 118.893 98.5644 118.893 98.1431C118.893 97.7217 119.224 97.3906 119.645 97.3906H134.514C134.935 97.3906 135.266 97.7217 135.266 98.1431C135.266 98.5644 134.935 98.8955 134.514 98.8955Z" fill="#612A7A"/>
<path d="M131.383 94.7573V101.409L137.584 98.0229L131.383 94.7573Z" fill="#612A7A"/>
<path d="M136.906 55.6896C148.001 55.6896 156.996 46.6948 156.996 35.5992C156.996 24.5036 148.001 15.5088 136.906 15.5088C125.81 15.5088 116.815 24.5036 116.815 35.5992C116.815 46.6948 125.81 55.6896 136.906 55.6896Z" fill="white"/>
<path d="M136.906 56.442C125.408 56.442 116.063 47.0966 116.063 35.5992C116.063 24.1018 125.408 14.7563 136.906 14.7563C148.403 14.7563 157.749 24.1018 157.749 35.5992C157.749 47.0966 148.403 56.442 136.906 56.442ZM136.906 16.2462C126.236 16.2462 117.568 24.9295 117.568 35.5841C117.568 46.2388 126.251 54.9221 136.906 54.9221C147.56 54.9221 156.244 46.2388 156.244 35.5841C156.244 24.9295 147.56 16.2462 136.906 16.2462Z" fill="#8DC63F"/>
<path d="M124.235 43.8467C123.241 43.4103 122.429 42.7782 121.797 41.9656L124.039 39.2718C124.987 40.551 126.071 41.1981 127.29 41.1981C128.945 41.1981 129.758 40.2349 129.758 38.2936V29.9715H123.618V26.7209H133.791V38.0679C133.791 40.2199 133.264 41.8301 132.195 42.8986C131.127 43.9671 129.562 44.5088 127.5 44.5088C126.311 44.5088 125.228 44.2831 124.235 43.8467Z" fill="#612A7A"/>
<path d="M139.539 43.9515C138.245 43.5753 137.207 43.0937 136.424 42.4917L137.794 39.4368C138.546 39.9936 139.434 40.43 140.472 40.7611C141.511 41.0922 142.534 41.2577 143.572 41.2577C144.716 41.2577 145.574 41.0922 146.116 40.7461C146.657 40.3999 146.943 39.9485 146.943 39.3766C146.943 38.9552 146.778 38.6091 146.462 38.3382C146.146 38.0673 145.724 37.8416 145.213 37.6761C144.701 37.5105 144.024 37.3299 143.151 37.1193C141.812 36.8032 140.728 36.4872 139.885 36.1712C139.043 35.8551 138.305 35.3435 137.703 34.6512C137.101 33.959 136.785 33.0259 136.785 31.8521C136.785 30.8438 137.056 29.9108 137.613 29.0982C138.17 28.2855 138.998 27.6234 140.096 27.1418C141.21 26.6602 142.564 26.4194 144.159 26.4194C145.273 26.4194 146.372 26.5549 147.44 26.8258C148.509 27.0966 149.442 27.4729 150.239 27.9695L148.99 31.0395C147.38 30.1215 145.755 29.67 144.144 29.67C143.016 29.67 142.173 29.8506 141.631 30.2268C141.089 30.588 140.818 31.0696 140.818 31.6715C140.818 32.2735 141.135 32.725 141.752 33.0109C142.384 33.2968 143.332 33.5827 144.611 33.8687C145.95 34.1847 147.034 34.5007 147.892 34.8168C148.734 35.1328 149.472 35.6294 150.074 36.3217C150.676 36.9989 150.992 37.9319 150.992 39.0907C150.992 40.0839 150.706 41.0019 150.149 41.8296C149.592 42.6573 148.749 43.3044 147.636 43.786C146.522 44.2675 145.168 44.5083 143.557 44.5083C142.173 44.5083 140.834 44.3277 139.539 43.9515Z" fill="#612A7A"/>
<path d="M84.1139 167.232V180.882H80.9536V175.284H74.7534V180.882H71.5931V167.232H74.7534V172.62H80.9536V167.232H84.1139Z" fill="#612A7A"/>
<path d="M90.1785 169.806H85.8143V167.233H97.703V169.806H93.3388V180.882H90.1785V169.806Z" fill="#612A7A"/>
<path d="M111.819 180.882V172.696L107.786 179.438H106.356L102.353 172.861V180.867H99.3885V167.218H102.007L107.109 175.69L112.135 167.218H114.723L114.769 180.867H111.804L111.819 180.882Z" fill="#612A7A"/>
<path d="M118.019 167.233H121.18V178.309H128.027V180.882H118.034V167.233H118.019Z" fill="#612A7A"/>
<path d="M54.7387 46.3896H28.5385C21.4988 46.3896 15.792 52.0964 15.792 59.1361C15.792 66.1758 21.4988 71.8826 28.5385 71.8826H54.7387C61.7784 71.8826 67.4852 66.1758 67.4852 59.1361C67.4852 52.0964 61.7784 46.3896 54.7387 46.3896Z" fill="#8DC63F"/>
<path d="M27.0333 65.3062C25.9046 64.7042 25.0167 63.8615 24.3696 62.7779C23.7225 61.6944 23.4065 60.4905 23.4065 59.121C23.4065 57.7516 23.7225 56.5476 24.3696 55.4641C25.0167 54.3806 25.9046 53.5379 27.0333 52.9359C28.162 52.3339 29.4261 52.033 30.8407 52.033C32.0296 52.033 33.098 52.2436 34.0612 52.665C35.0243 53.0864 35.8219 53.6883 36.4841 54.4709L34.4524 56.352C33.5194 55.2835 32.3757 54.7418 31.0062 54.7418C30.1635 54.7418 29.396 54.9224 28.7338 55.2986C28.0717 55.6748 27.545 56.1865 27.1687 56.8486C26.7925 57.5108 26.6119 58.2783 26.6119 59.121C26.6119 59.9638 26.7925 60.7313 27.1687 61.3934C27.545 62.0556 28.0566 62.5823 28.7338 62.9585C29.396 63.3347 30.1635 63.5153 31.0062 63.5153C32.3757 63.5153 33.5194 62.9736 34.4524 61.89L36.4841 63.7712C35.8369 64.5688 35.0243 65.1707 34.0612 65.5921C33.098 66.0135 32.0145 66.2241 30.8256 66.2241C29.4261 66.2241 28.162 65.9232 27.0333 65.3062Z" fill="white"/>
<path d="M39.8702 65.7871C38.8619 65.4861 38.0493 65.1099 37.4323 64.6434L38.5158 62.2506C39.1027 62.687 39.7949 63.0331 40.6076 63.2889C41.4202 63.5448 42.2329 63.6802 43.0305 63.6802C43.9334 63.6802 44.5956 63.5448 45.032 63.2739C45.4684 63.003 45.6791 62.6569 45.6791 62.2054C45.6791 61.8743 45.5587 61.6035 45.3029 61.3928C45.047 61.1821 44.716 61.0015 44.3247 60.8811C43.9334 60.7457 43.3916 60.6102 42.7144 60.4447C41.6761 60.2039 40.8183 59.9481 40.1561 59.7073C39.494 59.4665 38.9221 59.0602 38.4405 58.5184C37.959 57.9767 37.7332 57.2393 37.7332 56.3213C37.7332 55.5237 37.9439 54.8013 38.3803 54.1542C38.8168 53.5071 39.4639 52.9954 40.3217 52.6192C41.1945 52.243 42.2479 52.0474 43.497 52.0474C44.3698 52.0474 45.2276 52.1527 46.0553 52.3634C46.8981 52.5741 47.6204 52.8751 48.2525 53.2663L47.2743 55.6742C46.0102 54.9518 44.7461 54.5906 43.4819 54.5906C42.594 54.5906 41.9319 54.7411 41.5105 55.0271C41.0892 55.313 40.8785 55.6892 40.8785 56.1557C40.8785 56.6223 41.1192 56.9684 41.6159 57.2092C42.1125 57.4349 42.8499 57.6606 43.8582 57.8864C44.8965 58.1422 45.7543 58.383 46.4165 58.6238C47.0786 58.8796 47.6505 59.2709 48.1321 59.7976C48.6136 60.3243 48.8394 61.0617 48.8394 61.9646C48.8394 62.7472 48.6287 63.4695 48.1772 64.1016C47.7408 64.7487 47.0786 65.2604 46.2058 65.6366C45.333 66.0128 44.2645 66.2084 43.0154 66.2084C41.9319 66.2084 40.8785 66.058 39.8702 65.772V65.7871Z" fill="white"/>
<path d="M52.361 65.7871C51.3528 65.4861 50.5401 65.1099 49.9231 64.6434L51.0066 62.2506C51.5935 62.687 52.2858 63.0331 53.0984 63.2889C53.9111 63.5448 54.7237 63.6802 55.5213 63.6802C56.4243 63.6802 57.0864 63.5448 57.5228 63.2739C57.9593 63.003 58.1699 62.6569 58.1699 62.2054C58.1699 61.8743 58.0495 61.6035 57.7937 61.3928C57.5379 61.1821 57.2068 61.0015 56.8155 60.8811C56.4243 60.7457 55.8825 60.6102 55.2053 60.4447C54.1669 60.2039 53.3091 59.9481 52.647 59.7073C51.9848 59.4665 51.4129 59.0602 50.9314 58.5184C50.4498 57.9767 50.2241 57.2393 50.2241 56.3213C50.2241 55.5237 50.4348 54.8013 50.8712 54.1542C51.3076 53.5071 51.9547 52.9954 52.8125 52.6192C53.6853 52.243 54.7388 52.0474 55.9878 52.0474C56.8607 52.0474 57.7185 52.1527 58.5462 52.3634C59.3889 52.5741 60.1113 52.8751 60.7433 53.2663L59.7651 55.6742C58.501 54.9518 57.2369 54.5906 55.9728 54.5906C55.0849 54.5906 54.4227 54.7411 54.0014 55.0271C53.58 55.313 53.3693 55.6892 53.3693 56.1557C53.3693 56.6223 53.6101 56.9684 54.1067 57.2092C54.6033 57.4349 55.3407 57.6606 56.349 57.8864C57.3874 58.1422 58.2452 58.383 58.9073 58.6238C59.5695 58.8796 60.1414 59.2709 60.6229 59.7976C61.1045 60.3243 61.3302 61.0617 61.3302 61.9646C61.3302 62.7472 61.1195 63.4695 60.6681 64.1016C60.2316 64.7487 59.5695 65.2604 58.6967 65.6366C57.8238 66.0128 56.7553 66.2084 55.5063 66.2084C54.4227 66.2084 53.3693 66.058 52.361 65.772V65.7871Z" fill="white"/>
<path d="M106.672 64.8091V73.8686L115.01 69.6699L106.672 64.8091Z" fill="white"/>
<path d="M24.2493 198.129H26.2809V202.027C25.7542 202.418 25.1523 202.719 24.4751 202.93C23.7979 203.14 23.0906 203.246 22.3983 203.246C21.4051 203.246 20.5021 203.035 19.7045 202.614C18.9069 202.192 18.2899 201.605 17.8385 200.838C17.387 200.085 17.1613 199.227 17.1613 198.279C17.1613 197.331 17.387 196.474 17.8385 195.721C18.2899 194.969 18.922 194.382 19.7196 193.945C20.5322 193.524 21.4352 193.313 22.4434 193.313C23.2862 193.313 24.0537 193.449 24.7309 193.735C25.4081 194.021 25.995 194.427 26.4615 194.969L25.0319 196.293C24.3396 195.571 23.5119 195.209 22.5488 195.209C21.9318 195.209 21.39 195.33 20.9085 195.601C20.4269 195.857 20.0657 196.218 19.7948 196.684C19.5239 197.151 19.4036 197.692 19.4036 198.294C19.4036 198.896 19.539 199.423 19.7948 199.89C20.0657 200.356 20.4269 200.717 20.8934 200.973C21.3599 201.229 21.9017 201.364 22.5036 201.364C23.1507 201.364 23.7226 201.229 24.2343 200.958V198.144L24.2493 198.129Z" fill="#8DC63F"/>
<path d="M28.2974 194.337C28.0566 194.111 27.9211 193.825 27.9211 193.479C27.9211 193.133 28.0415 192.862 28.2974 192.621C28.5382 192.396 28.8692 192.275 29.2605 192.275C29.6518 192.275 29.9678 192.38 30.2236 192.606C30.4795 192.832 30.5999 193.103 30.5999 193.434C30.5999 193.795 30.4795 194.081 30.2236 194.322C29.9678 194.563 29.6518 194.668 29.2605 194.668C28.8692 194.668 28.5532 194.548 28.2974 194.322V194.337ZM28.192 195.706H30.329V203.095H28.192V195.706Z" fill="#8DC63F"/>
<path d="M37.0863 202.734C36.8756 202.884 36.6198 203.005 36.3188 203.08C36.0178 203.155 35.6868 203.2 35.3557 203.2C34.4829 203.2 33.7906 202.975 33.3241 202.523C32.8576 202.072 32.6017 201.41 32.6017 200.552V197.512H31.458V195.872H32.6017V194.081H34.7387V195.872H36.5747V197.512H34.7387V200.522C34.7387 200.838 34.8139 201.079 34.9795 201.244C35.145 201.41 35.3707 201.5 35.6567 201.5C35.9878 201.5 36.2887 201.41 36.5145 201.229L37.0863 202.734Z" fill="#8DC63F"/>
<path d="M45.2575 191.538H47.1687L42.639 204.465H40.7278L45.2575 191.538Z" fill="#8DC63F"/>
<path d="M58.0795 198.129H60.1111V202.027C59.5844 202.418 58.9825 202.719 58.3053 202.93C57.6281 203.14 56.9208 203.246 56.2285 203.246C55.2353 203.246 54.3323 203.035 53.5347 202.614C52.7371 202.192 52.1201 201.605 51.6687 200.838C51.2172 200.085 50.9915 199.227 50.9915 198.279C50.9915 197.331 51.2172 196.474 51.6687 195.721C52.1201 194.969 52.7522 194.382 53.5498 193.945C54.3624 193.524 55.2654 193.313 56.2736 193.313C57.1164 193.313 57.8839 193.449 58.5611 193.735C59.2383 194.021 59.8252 194.427 60.2917 194.969L58.8621 196.293C58.1698 195.571 57.3421 195.209 56.379 195.209C55.762 195.209 55.2202 195.33 54.7386 195.601C54.2571 195.857 53.8959 196.218 53.625 196.684C53.3541 197.151 53.2337 197.692 53.2337 198.294C53.2337 198.896 53.3692 199.423 53.625 199.89C53.8959 200.356 54.2571 200.717 54.7236 200.973C55.1901 201.229 55.7319 201.364 56.3338 201.364C56.9809 201.364 57.5528 201.229 58.0645 200.958V198.144L58.0795 198.129Z" fill="#8DC63F"/>
<path d="M62.1276 194.337C61.8868 194.111 61.7513 193.825 61.7513 193.479C61.7513 193.133 61.8717 192.862 62.1276 192.621C62.3684 192.396 62.6994 192.275 63.0907 192.275C63.482 192.275 63.798 192.38 64.0538 192.606C64.3097 192.832 64.4301 193.103 64.4301 193.434C64.4301 193.795 64.3097 194.081 64.0538 194.322C63.798 194.563 63.482 194.668 63.0907 194.668C62.6994 194.668 62.3834 194.548 62.1276 194.322V194.337ZM62.0222 195.706H64.1592V203.095H62.0222V195.706Z" fill="#8DC63F"/>
<path d="M70.9163 202.734C70.7056 202.884 70.4498 203.005 70.1488 203.08C69.8478 203.155 69.5167 203.2 69.1856 203.2C68.3128 203.2 67.6206 202.975 67.154 202.523C66.6875 202.072 66.4317 201.41 66.4317 200.552V197.512H65.288V195.872H66.4317V194.081H68.5686V195.872H70.4046V197.512H68.5686V200.522C68.5686 200.838 68.6439 201.079 68.8094 201.244C68.975 201.41 69.2007 201.5 69.4866 201.5C69.8177 201.5 70.1187 201.41 70.3444 201.229L70.9163 202.734Z" fill="#8DC63F"/>
<path d="M78.8322 196.413C79.389 196.97 79.6749 197.783 79.6749 198.851V203.08H77.538V199.182C77.538 198.595 77.4176 198.159 77.1617 197.873C76.9059 197.587 76.5297 197.436 76.0481 197.436C75.5063 197.436 75.085 197.602 74.7539 197.933C74.4379 198.264 74.2723 198.761 74.2723 199.423V203.08H72.1354V192.892H74.2723V196.458C74.5583 196.172 74.9044 195.962 75.2957 195.811C75.6869 195.661 76.1384 195.585 76.62 195.585C77.538 195.585 78.2754 195.856 78.8322 196.413Z" fill="#8DC63F"/>
<path d="M89.0505 195.706V203.095H87.0189V202.222C86.733 202.538 86.4019 202.794 86.0106 202.959C85.6193 203.125 85.198 203.215 84.7314 203.215C83.7683 203.215 82.9858 202.929 82.429 202.373C81.8721 201.816 81.5712 200.988 81.5712 199.889V195.721H83.7081V199.573C83.7081 200.762 84.2047 201.364 85.198 201.364C85.7096 201.364 86.116 201.199 86.432 200.868C86.748 200.537 86.8985 200.04 86.8985 199.378V195.721H89.0355L89.0505 195.706Z" fill="#8DC63F"/>
<path d="M97.267 196.067C97.8239 196.383 98.2753 196.819 98.5914 197.391C98.9074 197.963 99.0729 198.625 99.0729 199.393C99.0729 200.16 98.9074 200.822 98.5914 201.394C98.2753 201.966 97.8239 202.403 97.267 202.719C96.7102 203.035 96.0782 203.185 95.3859 203.185C94.3777 203.185 93.5951 202.869 93.0684 202.222V203.08H91.0217V192.892H93.1587V196.473C93.7004 195.871 94.4378 195.585 95.3859 195.585C96.0782 195.585 96.6952 195.736 97.267 196.052V196.067ZM96.3792 200.883C96.7253 200.506 96.9059 200.01 96.9059 199.393C96.9059 198.776 96.7253 198.279 96.3792 197.903C96.033 197.527 95.5816 197.346 95.0248 197.346C94.4679 197.346 94.0315 197.527 93.6704 197.903C93.3242 198.279 93.1436 198.776 93.1436 199.393C93.1436 200.01 93.3242 200.506 93.6704 200.883C94.0165 201.259 94.4679 201.439 95.0248 201.439C95.5816 201.439 96.018 201.259 96.3792 200.883Z" fill="#8DC63F"/>
<path d="M180.593 67.4279L184.416 62.6875C185.499 61.3331 187.486 61.1224 188.84 62.2059L191.143 64.072C192.497 65.1555 192.708 67.142 191.624 68.4964C191.624 68.4964 187.32 72.6048 188.253 72.68C188.93 72.7252 193.566 71.2804 195.402 69.008C198.095 65.6672 198.246 61.1224 196.169 57.6461L210.195 40.2344C210.887 39.3616 210.751 38.0975 209.894 37.4052L207.681 35.6144C206.809 34.9221 205.545 35.0576 204.852 35.9154L190.827 53.327C186.974 52.0328 182.58 53.1464 179.886 56.4873C177.343 59.6476 177.072 63.8613 178.787 67.2473C179.149 67.9396 180.112 68.0449 180.608 67.4279H180.593Z" fill="#612A7A"/>
<path d="M104.205 208.377H104.16C103.573 208.377 103.091 207.895 103.091 207.308C103.091 206.721 103.573 206.24 104.16 206.24C104.747 206.24 105.243 206.721 105.243 207.308C105.243 207.895 104.792 208.377 104.205 208.377ZM91.3831 207.85C91.3831 207.85 91.3079 207.85 91.2778 207.85C91.2778 207.85 91.2326 207.85 91.2176 207.85C90.6307 207.79 90.2093 207.263 90.2695 206.676C90.3297 206.089 90.8714 205.683 91.4433 205.728C92.0302 205.788 92.4666 206.315 92.4064 206.902C92.3462 207.443 91.9098 207.865 91.368 207.865L91.3831 207.85ZM116.966 207.549C116.425 207.549 115.973 207.143 115.913 206.601C115.853 206.014 116.274 205.487 116.861 205.427L117.027 206.48L117.102 207.549C117.102 207.549 117.027 207.549 116.981 207.549H116.966ZM78.4711 205.893L78.6968 204.855L78.441 205.893C77.8691 205.773 77.4929 205.216 77.5982 204.644C77.7186 204.073 78.2905 203.711 78.8473 203.802L78.456 205.893H78.4711ZM129.638 205.412C129.141 205.412 128.689 205.066 128.599 204.554C128.479 203.982 128.855 203.41 129.442 203.305C130.014 203.2 130.601 203.561 130.721 204.133C130.842 204.705 130.495 205.261 129.924 205.382H129.863C129.788 205.382 129.728 205.397 129.653 205.397L129.638 205.412ZM142.023 202.056C141.571 202.056 141.135 201.755 141 201.304C140.834 200.732 141.15 200.145 141.707 199.979C142.264 199.814 142.881 200.115 143.046 200.671C143.227 201.228 142.941 201.815 142.384 201.996C142.384 201.996 142.324 202.011 142.309 202.026C142.203 202.056 142.098 202.071 142.008 202.071L142.023 202.056ZM153.821 197.225C153.475 197.225 153.129 197.03 152.933 196.699C152.617 196.202 152.828 195.51 153.325 195.209C153.37 195.179 153.445 195.133 153.49 195.118C154.032 194.878 154.664 195.118 154.905 195.66C155.146 196.202 154.905 196.834 154.363 197.075C154.198 197.18 154.017 197.225 153.836 197.225H153.821ZM43.2113 191.477C43.0307 191.477 42.8351 191.431 42.6545 191.311C42.6545 191.311 42.5943 191.281 42.5943 191.266C42.0977 190.935 41.9773 190.273 42.2933 189.791C42.6244 189.309 43.2866 189.174 43.7681 189.49C44.2497 189.806 44.4002 190.483 44.0842 190.965C43.8735 191.281 43.5424 191.461 43.1963 191.461L43.2113 191.477ZM164.777 190.423C164.461 190.423 164.16 190.288 163.949 190.032C163.588 189.58 163.633 188.933 164.07 188.557L164.792 189.34L165.424 190.197C165.228 190.348 165.003 190.423 164.762 190.423H164.777ZM32.9028 183.832C32.662 183.832 32.4212 183.756 32.2256 183.576L32.1804 183.546C31.744 183.154 31.6989 182.477 32.0751 182.041C32.4664 181.604 33.1436 181.544 33.58 181.935C34.0164 182.327 34.0766 183.004 33.7004 183.455C33.4897 183.696 33.1887 183.832 32.8877 183.832H32.9028ZM174.122 181.695C173.867 181.695 173.626 181.604 173.415 181.424C172.979 181.033 172.933 180.355 173.31 179.919C173.701 179.483 174.378 179.407 174.83 179.799C175.266 180.19 175.341 180.837 174.95 181.288L174.92 181.334C174.709 181.574 174.408 181.695 174.122 181.695ZM22.9404 174.486L23.753 173.794L22.9253 174.471C22.534 174.035 22.5792 173.358 23.0307 172.966C23.4671 172.575 24.1443 172.62 24.5356 173.072L22.9554 174.501L22.9404 174.486ZM181.346 171.1C181.18 171.1 181.015 171.055 180.864 170.98C180.353 170.709 180.142 170.092 180.398 169.565L181.376 170.002L182.309 170.528C182.113 170.89 181.737 171.1 181.361 171.1H181.346ZM15.9275 163.621L15.0246 164.178C14.7236 163.696 14.844 163.049 15.3105 162.718C15.777 162.387 16.4091 162.477 16.7552 162.944L15.9275 163.621ZM186.146 159.272C186.146 159.272 185.996 159.272 185.921 159.242C185.349 159.121 184.988 158.519 185.093 157.947C185.093 157.902 185.123 157.827 185.138 157.782C185.319 157.225 185.921 156.909 186.493 157.105C187.049 157.285 187.35 157.887 187.17 158.459L186.162 158.128L187.17 158.474C187.064 158.971 186.643 159.287 186.162 159.287L186.146 159.272ZM8.68898 152.876L9.66716 152.439L8.68898 152.861C8.4482 152.334 8.67393 151.702 9.20065 151.446C9.72736 151.19 10.3444 151.401 10.6153 151.928L9.68221 152.439L8.70403 152.876H8.68898ZM188.524 146.616C188.524 146.616 188.449 146.616 188.404 146.616C187.817 146.555 187.396 146.029 187.456 145.442C187.516 144.855 188.028 144.403 188.63 144.479C189.216 144.539 189.638 145.035 189.578 145.622C189.578 145.622 189.578 145.667 189.578 145.683C189.517 146.224 189.051 146.631 188.524 146.631V146.616ZM5.13742 141.574C4.68595 141.574 4.24953 141.258 4.084 140.807C4.084 140.761 4.03885 140.686 4.03885 140.641C3.91846 140.069 4.29468 139.497 4.88159 139.392C5.4685 139.287 6.02531 139.648 6.13066 140.235C6.31124 140.792 6.01026 141.348 5.4384 141.544C5.33306 141.574 5.22772 141.589 5.12237 141.589L5.13742 141.574ZM188.78 133.794C188.193 133.794 187.712 133.312 187.712 132.725C187.712 132.138 188.163 131.672 188.72 131.642C189.322 131.597 189.773 132.018 189.833 132.575C189.833 132.605 189.833 132.695 189.833 132.725C189.833 133.312 189.352 133.794 188.765 133.794H188.78ZM2.32327 129.008C1.7815 129.008 1.31498 128.602 1.26984 128.045C1.14945 127.473 1.51062 126.947 2.08248 126.811C2.63929 126.691 3.2262 127.082 3.36164 127.669C3.36164 127.714 3.37669 127.789 3.39174 127.834C3.45194 128.421 3.01552 128.948 2.44366 129.008C2.41356 129.008 2.36841 129.008 2.33831 129.008H2.32327ZM186.989 121.092C186.523 121.092 186.086 120.776 185.951 120.295C185.8 119.738 186.131 119.136 186.688 118.971C187.26 118.805 187.832 119.106 187.998 119.663C187.998 119.663 188.013 119.723 188.013 119.738C188.163 120.31 187.817 120.897 187.26 121.047C187.17 121.077 187.08 121.077 186.989 121.077V121.092ZM1.0742 116.232C0.48729 116.232 0.005723 115.75 0.005723 115.163C-0.0544729 114.576 0.366898 114.08 0.953808 114.019C1.52567 113.944 2.06743 114.411 2.12763 114.998C2.12763 115.043 2.12763 115.118 2.12763 115.163C2.12763 115.75 1.64606 116.232 1.05915 116.232H1.0742ZM1.0742 103.44C0.48729 103.44 0.005723 102.928 0.005723 102.341C0.005723 102.296 0.005723 102.221 0.005723 102.176C0.0659189 101.589 0.607682 101.183 1.17954 101.228C1.76645 101.288 2.18782 101.815 2.12763 102.402C2.12763 102.989 1.64606 103.425 1.05915 103.425L1.0742 103.44ZM2.30822 90.6635C2.30822 90.6635 2.23297 90.6635 2.18782 90.6635C1.60091 90.6033 1.17954 90.0465 1.23974 89.4595C1.23974 89.4144 1.25479 89.3392 1.26984 89.294C1.39023 88.7222 1.96209 88.361 2.53395 88.4814C3.10581 88.6018 3.46699 89.1736 3.3466 89.7455C3.2864 90.2872 2.83493 90.6635 2.30822 90.6635ZM4.77625 78.0073C4.68595 78.0073 4.59566 78.0073 4.52042 77.9772C3.9636 77.8267 3.61748 77.3 3.73787 76.7281C3.73787 76.698 3.75292 76.6378 3.76797 76.6077C3.93351 76.0509 4.53546 75.7198 5.09228 75.9004C5.64909 76.066 5.98017 76.6679 5.79958 77.2247C5.66414 77.6913 5.22772 78.0073 4.7612 78.0073H4.77625ZM8.52344 65.7273C8.40305 65.7273 8.26761 65.7123 8.14722 65.6521C7.6205 65.4414 7.33457 64.8846 7.51516 64.3428C7.51516 64.3127 7.54526 64.2375 7.56031 64.2074C7.80109 63.6656 8.43315 63.4248 8.97491 63.6656C9.51667 63.9064 9.75746 64.5385 9.51667 65.0802C9.33609 65.4865 8.94481 65.7273 8.52344 65.7273ZM13.61 54.0192C13.4595 54.0192 13.294 53.9891 13.1435 53.9139C12.6017 53.6731 12.391 52.9959 12.6318 52.4541C12.6469 52.409 12.692 52.3337 12.7221 52.2886C13.0381 51.792 13.6852 51.6415 14.1969 51.9575C14.6935 52.2735 14.844 52.9206 14.528 53.4323C14.3624 53.8236 14.0013 54.0343 13.61 54.0343V54.0192ZM20.0359 42.8378C19.8252 42.8378 19.6296 42.7776 19.449 42.6572C18.9825 42.3412 18.832 41.7092 19.133 41.2276C19.148 41.1975 19.1932 41.1373 19.2082 41.1222C19.5543 40.6557 20.2315 40.5504 20.6981 40.9116C21.1646 41.2727 21.2699 41.9349 20.9088 42.4014C20.6981 42.6873 20.367 42.8378 20.0359 42.8378ZM27.8463 32.6647C27.6055 32.6647 27.3497 32.5895 27.1541 32.4089C26.7177 32.0176 26.6424 31.3705 27.0337 30.919L27.0638 30.8739C27.4551 30.4375 28.1323 30.3773 28.5687 30.7686C29.0051 31.1598 29.0502 31.837 28.674 32.2734C28.4633 32.5142 28.1473 32.6497 27.8463 32.6497V32.6647ZM180.548 27.6083C180.307 27.6083 180.052 27.518 179.856 27.3524C179.42 26.9762 179.344 26.3141 179.706 25.8626C180.067 25.4111 180.699 25.3208 181.165 25.6669C181.18 25.6669 181.241 25.7271 181.256 25.7422C181.707 26.1184 181.752 26.7956 181.376 27.2471C181.165 27.4879 180.864 27.6233 180.563 27.6233L180.548 27.6083ZM37.7034 23.3946L36.966 22.6271L36.2888 21.7994C36.7252 21.4081 37.4024 21.4532 37.7937 21.9047C38.185 22.3562 38.1398 23.0183 37.6884 23.4096L37.7034 23.3946ZM169.909 20.3697C169.743 20.3697 169.563 20.3246 169.397 20.2343L169.879 19.2862L170.45 18.3832C170.947 18.6842 171.113 19.3313 170.827 19.843C170.631 20.1891 170.27 20.3697 169.909 20.3697ZM47.3348 16.0958C46.9736 16.0958 46.6124 15.9152 46.4168 15.5841C46.1308 15.0875 46.2663 14.4555 46.7478 14.1545C46.7629 14.1545 46.8231 14.1093 46.8381 14.1093C47.3498 13.8234 47.9969 14.004 48.2828 14.5307C48.5688 15.0424 48.3882 15.6895 47.8615 15.9754C47.6959 16.0657 47.5153 16.1109 47.3348 16.1109V16.0958ZM158.562 14.3652C158.396 14.3652 158.246 14.3351 158.08 14.2448C157.568 13.9889 157.328 13.3569 157.568 12.8302C157.809 12.3035 158.411 12.0627 158.953 12.3035C158.953 12.3035 159.013 12.3336 159.028 12.3486C159.555 12.6044 159.766 13.2515 159.51 13.7783C159.329 14.1545 158.953 14.3652 158.562 14.3652ZM58.6967 10.1515C58.2904 10.1515 57.8841 9.92572 57.7035 9.5194C57.4627 8.97764 57.6884 8.36063 58.2302 8.11984H58.2754C58.8171 7.86401 59.4492 8.11984 59.69 8.64656C59.9307 9.18832 59.69 9.82038 59.1482 10.0612C58.9977 10.1214 58.8472 10.1515 58.7118 10.1515H58.6967ZM146.643 9.60969C146.538 9.60969 146.417 9.59464 146.312 9.5495C145.755 9.36891 145.424 8.7519 145.62 8.19509C145.815 7.63828 146.387 7.32225 146.944 7.51789H146.989C147.546 7.71352 147.847 8.31548 147.666 8.87229C147.516 9.32376 147.094 9.60969 146.658 9.60969H146.643ZM134.318 6.04309C134.212 6.04309 134.107 6.04309 134.017 5.99794C133.46 5.8324 133.129 5.26054 133.264 4.70373C133.415 4.14692 133.957 3.80079 134.513 3.92118C134.544 3.92118 134.604 3.93623 134.634 3.95128C135.191 4.11682 135.522 4.71878 135.341 5.27559C135.206 5.74211 134.784 6.02804 134.318 6.02804V6.04309ZM70.6757 5.90765C70.2393 5.90765 69.848 5.62172 69.6975 5.17025C69.5169 4.61343 69.8631 3.99643 70.4199 3.81584C70.465 3.81584 70.5403 3.77069 70.5854 3.77069C71.1573 3.66535 71.7291 4.02652 71.8345 4.61343C71.9549 5.1853 71.5786 5.75716 70.9917 5.8625C70.8864 5.8926 70.766 5.9227 70.6607 5.9227L70.6757 5.90765ZM121.722 3.63525C121.647 3.63525 121.571 3.63525 121.496 3.60515C120.909 3.54496 120.518 3.03329 120.578 2.44638C120.638 1.85947 121.165 1.42305 121.782 1.4983C121.827 1.4983 121.902 1.51335 121.948 1.52839C122.519 1.64879 122.881 2.22065 122.76 2.79251C122.655 3.28912 122.203 3.63525 121.722 3.63525ZM83.3018 3.25903C82.76 3.25903 82.2935 2.8527 82.2484 2.29589C82.1882 1.70898 82.6246 1.18227 83.1965 1.12207C83.7683 0.986632 84.295 1.36286 84.4305 1.93472C84.5509 2.50658 84.1596 3.07844 83.5727 3.21388C83.5275 3.21388 83.4523 3.22893 83.4071 3.24398C83.377 3.24398 83.3319 3.24398 83.3018 3.24398V3.25903ZM108.945 2.35609L108.9 1.28761L109.005 0.219134C109.577 0.27933 110.014 0.760897 109.984 1.33276C109.954 1.90462 109.502 2.35609 108.93 2.35609H108.945ZM96.0784 2.1454C95.4915 2.1454 95.0099 1.66384 95.0099 1.07693C95.0099 0.490016 95.4764 0.00844855 96.0633 0.00844855C96.6502 -0.0667963 97.1468 0.369624 97.207 0.956534C97.2672 1.54344 96.8158 2.07016 96.2289 2.13035C96.1837 2.13035 96.1085 2.13035 96.0633 2.13035L96.0784 2.1454Z" fill="#612A7A"/>
<path d="M212.557 111.055L208.238 112.575L206.583 117.03L205.018 112.665L200.608 111.055L205.078 109.4L206.583 105.081L208.193 109.49L212.557 111.055Z" fill="#612A7A"/>
<path d="M24.0843 150.83L19.7652 152.335L18.1098 156.804L16.5447 152.44L12.1354 150.83L16.5899 149.174L18.1098 144.855L19.7201 149.265L24.0843 150.83Z" fill="#612A7A"/>
<path d="M46.9887 19.0451L38.4259 22.0399L35.1452 30.8887L32.0451 22.2355L23.3016 19.0451L32.1504 15.7494L35.1452 7.18652L38.3356 15.945L46.9887 19.0451Z" fill="#612A7A"/>
</svg>
