<svg width="202" height="258" viewBox="0 0 202 258" fill="none" xmlns="http://www.w3.org/2000/svg">
<g clip-path="url(#clip0_137_8856)">
<path d="M28.4486 32.804C28.4486 32.804 35.3573 15.4865 46.3047 15.0806" stroke="#602B7A" stroke-width="1.42" stroke-miterlimit="10" stroke-linecap="round" stroke-dasharray="0.3 8"/>
<path d="M62.7832 54.293C62.7832 54.293 89.9378 49.7585 92.4633 30.895" stroke="#602B7A" stroke-width="1.42" stroke-miterlimit="10" stroke-linecap="round" stroke-dasharray="0.3 8"/>
<path d="M62.7832 1.36474C62.7832 1.36474 22.0618 -6.05457 19.171 25.7474" stroke="#602B7A" stroke-width="1.42" stroke-miterlimit="10" stroke-linecap="round" stroke-dasharray="0.3 8"/>
<path d="M44.8332 46.2C49.0076 42.5984 54.2361 41.4928 59.7254 40.2663C64.2442 39.2644 68.6796 38.7721 73.7932 38.3921C74.3568 38.3489 74.9412 38.5821 75.1082 38.9967C75.1917 39.2126 75.1186 39.394 74.7325 39.4372C69.4101 41.1819 59.2349 44.6022 54.9562 46.6664C51.2201 48.463 44.4575 50.8468 41.3789 53.6193C38.2063 56.4696 40.878 49.6117 44.8228 46.2H44.8332Z" fill="white" stroke="#602B7A" stroke-linecap="round" stroke-linejoin="round"/>
<path d="M35.8582 40.3355C44.4993 32.7175 53.3073 24.78 56.292 21.5756C62.2927 15.1064 63.4616 20.4441 52.4098 30.4978C52.4098 30.4978 69.191 12.1784 70.7773 13.2235C72.3635 14.2686 55.5406 32.1302 55.5406 32.1302C55.5406 32.1302 75.2334 13.1976 76.9763 14.3463C78.7191 15.4951 58.828 33.8749 58.828 33.8749C58.828 33.8749 76.6423 17.0843 78.6669 17.9912C80.6915 18.8981 62.1153 35.611 62.1153 35.611L42.8817 51.9697C37.6637 56.4092 28.2191 51.987 31.0994 46.4419C32.2265 44.274 33.771 42.1752 35.8582 40.3355Z" fill="white" stroke="#602B7A" stroke-linecap="round" stroke-linejoin="round"/>
<path d="M59.1932 158.88C59.1932 158.88 -31.2142 104.985 22.114 49.3873L32.7483 38.3835L55.2275 50.9592C55.2275 50.9592 24.8482 65.0637 35.0755 88.8417C45.3028 112.62 74.4716 127.864 74.4716 127.864L59.1932 158.872V158.88Z" fill="white" stroke="#602B7A" stroke-miterlimit="10" stroke-linecap="round"/>
<path d="M48.9346 51.417C49.519 50.0696 34.7938 39.9382 33.0196 41.0611C31.2455 42.1839 5.25978 65.055 7.38873 85.7237C9.51768 106.392 21.2895 122.691 31.1307 132.295C40.9823 141.9 58.5253 155.78 58.5253 155.78L71.4764 129.186C71.4764 129.186 38.4672 106.928 32.8735 87.6325C26.3928 65.2623 48.9346 51.417 48.9346 51.417Z" fill="#E63417"/>
<path d="M139.436 223.4L66.5298 222.009C66.5298 222.009 45.0106 143.618 72.5409 124.746C81.0672 118.907 92.2546 115.643 106.959 117.12C120.129 118.441 129.877 122.44 137.036 127.942C145.865 134.705 149.11 147.436 149.496 161.454C150.3 189.81 139.436 223.4 139.436 223.4Z" fill="white" stroke="#602B7A" stroke-linecap="round" stroke-linejoin="round"/>
<path d="M106.427 118.113C128.958 120.428 144.226 128.65 146.345 150.036C148.463 171.421 145.771 185.63 144.028 195.528C142.295 205.426 140.939 219.789 136.503 220.904C132.068 222.018 69.0031 222.976 67.8447 220.429C66.6863 217.872 57.8366 172.173 61.8857 149.664C65.9349 127.156 83.0813 115.712 106.416 118.113H106.427Z" fill="#29235C"/>
<path d="M137.036 127.933C132.266 136.467 123.709 145.665 108.712 146.814C107.679 146.892 106.604 146.935 105.498 146.935C102.419 146.935 99.612 146.667 97.0552 146.166C81.4637 143.178 75.0873 132.045 72.5409 124.738C81.0671 118.899 92.2546 115.634 106.959 117.111C120.129 118.432 129.877 122.431 137.036 127.933Z" fill="white" stroke="#602B7A" stroke-linecap="round" stroke-linejoin="round"/>
<path d="M74.4716 125.29C74.0541 127.355 83.217 144.871 102.868 145.639C125.285 146.52 134.124 130.386 134.698 128.495C135.272 126.603 123.584 119.538 106.875 117.75C90.1674 115.962 74.9725 122.794 74.4716 125.29Z" fill="#E63417"/>
<path d="M89.8543 136.13L105.216 121.101L114.431 137.978L132.726 116.938L82.0378 112.551L89.8543 136.13Z" fill="white" stroke="#602B7A" stroke-linecap="round" stroke-linejoin="round"/>
<path d="M99.2155 125.264L109.276 125.498C109.276 125.498 108.577 135.551 103.129 134.86C97.6814 134.169 99.2155 125.264 99.2155 125.264Z" fill="white" stroke="#602B7A" stroke-linecap="round" stroke-linejoin="round"/>
<path d="M108.712 146.814C107.679 146.892 106.604 146.935 105.498 146.935C102.419 146.935 99.612 146.667 97.0552 146.166C98.7876 136.838 100.04 132.891 100.04 132.891H106.74C106.74 132.891 108.055 139.196 108.702 146.814H108.712Z" fill="white" stroke="#602B7A" stroke-linecap="round" stroke-linejoin="round"/>
<path d="M105.321 136.916L99.7686 139.887" stroke="#E63417" stroke-linecap="round" stroke-linejoin="round"/>
<path d="M105.696 140.811L100.144 143.774" stroke="#E63417" stroke-linecap="round" stroke-linejoin="round"/>
<path d="M198.086 198.43C179.646 232.538 131.891 234.904 131.891 234.904L129.376 213.536C129.376 213.536 171.235 208.095 173.791 188.376C175.044 178.668 159.724 162.007 149.507 161.454C149.121 147.436 145.875 134.705 137.046 127.942C179.667 137.408 212.342 172.078 198.097 198.438L198.086 198.43Z" fill="white" stroke="#602B7A" stroke-linecap="round" stroke-linejoin="round"/>
<path d="M100.395 104.069C92.0459 97.3666 91.9937 84.0568 93.747 74.5386C96.0324 62.1011 100.948 53.9218 117.552 53.179C138.778 52.2289 156.311 66.9466 135.042 96.382C123.657 112.136 108.097 110.253 100.395 104.069Z" fill="#374C92"/>
<path d="M132.183 96.0364C135.314 96.0277 137.829 93.9203 137.818 91.3291C137.808 88.738 135.262 86.6564 132.131 86.6651C129 86.6737 126.485 88.7812 126.495 91.3723C126.506 93.9635 129.052 96.045 132.183 96.0364Z" fill="white" stroke="#602B7A" stroke-linecap="round" stroke-linejoin="round"/>
<path d="M98.151 88.9885C101.282 88.9799 103.797 86.8724 103.786 84.2813C103.776 81.6901 101.23 79.6086 98.0988 79.6172C94.968 79.6259 92.4529 81.7333 92.4633 84.3245C92.4738 86.9156 95.0202 88.9971 98.151 88.9885Z" fill="white" stroke="#602B7A" stroke-linecap="round" stroke-linejoin="round"/>
<path d="M136.013 79.3295C138.612 71.654 133.202 63.6893 123.931 61.5397C114.659 59.3901 105.037 63.8696 102.439 71.5451L92.4057 101.187C89.8077 108.862 95.2173 116.827 104.489 118.976C113.76 121.126 123.382 116.646 125.98 108.971L136.013 79.3295Z" fill="white" stroke="#602B7A" stroke-linecap="round" stroke-linejoin="round"/>
<path d="M103.265 105.978C103.265 105.978 103.119 111.1 107.804 112.283C113.012 113.147 116.164 108.137 116.164 108.137" stroke="#602B7A" stroke-linecap="round" stroke-linejoin="round"/>
<path d="M125.608 78.6672C125.608 78.6672 127.048 78.9954 128.019 79.8246C128.979 80.6538 129.396 81.9148 129.396 81.9148" stroke="#602B7A" stroke-linecap="round" stroke-linejoin="round"/>
<path d="M110.956 76.0416C110.956 76.0416 109.495 75.7824 108.17 76.1452C106.855 76.508 105.78 77.4667 105.78 77.4667" stroke="#602B7A" stroke-linecap="round" stroke-linejoin="round"/>
<path d="M116.237 84.8599L108.347 94.7494L114.556 95.7427" stroke="#602B7A" stroke-linecap="round" stroke-linejoin="round"/>
<path d="M86.9009 97.5738C86.9009 97.5738 88.0593 103.508 98.2866 106.012C108.524 108.517 111.874 102.126 110.946 100.122C110.017 98.118 106.479 95.8809 101.741 97.3665C97.003 98.8521 96.763 102.221 86.8905 97.5825L86.9009 97.5738Z" fill="#2F2535"/>
<path d="M135.303 104.812C135.303 104.812 131.713 110.037 121.069 109.415C110.424 108.793 109.985 101.832 111.707 100.225C113.429 98.6188 117.687 97.5478 121.486 100.312C125.295 103.076 124.095 106.297 135.303 104.812Z" fill="#2F2535"/>
<path d="M126.589 85.8359C126.234 87.2092 125.149 88.1939 124.168 88.0211C123.323 87.8743 122.832 86.9156 122.937 85.7668C122.947 85.5854 122.989 85.3954 123.041 85.214C123.093 85.0327 123.145 84.834 123.229 84.6613C123.698 83.5816 124.617 82.8734 125.462 83.0202C126.443 83.1929 126.954 84.4453 126.6 85.8359H126.589Z" fill="#602B7A"/>
<path d="M124.573 85.4819C124.5 85.7756 123.759 85.9051 122.934 85.7669C122.945 85.5856 122.986 85.3955 123.039 85.2142C123.091 85.0328 123.143 84.8341 123.226 84.6614C124.051 84.8168 124.656 85.1882 124.583 85.4819H124.573Z" fill="white"/>
<path d="M109.714 82.8647C109.359 84.238 108.274 85.2227 107.293 85.0499C106.448 84.9031 105.957 83.9444 106.061 82.7956C106.072 82.6142 106.114 82.4242 106.166 82.2428C106.218 82.0615 106.27 81.8628 106.354 81.6901C106.823 80.6104 107.742 79.9022 108.587 80.049C109.568 80.2218 110.079 81.4741 109.725 82.8647H109.714Z" fill="#602B7A"/>
<path d="M107.698 82.5107C107.624 82.8044 106.883 82.9339 106.059 82.7957C106.069 82.6144 106.111 82.4243 106.163 82.243C106.216 82.0616 106.268 81.8629 106.351 81.6902C107.176 81.8457 107.781 82.217 107.708 82.5107H107.698Z" fill="white"/>
<path d="M148.651 47.0552L145.009 67.2747C129.605 70.9196 112.803 68.8467 99.372 61.626L103.035 41.3201C103.63 38.0466 107.763 36.1033 111.457 37.3557C116.821 39.1695 123.761 41.3633 127.121 41.7779C130.127 42.1493 136.629 41.7174 141.92 41.251C145.927 40.8969 149.256 43.7731 148.661 47.0724L148.651 47.0552Z" fill="#2F2535"/>
<path d="M156.175 70.03L148.943 71.9733C139.707 74.4608 129.95 75.0741 120.515 73.9081C111.123 72.7507 102.064 69.84 94.1435 65.2796L87.7254 61.5829C86.233 60.7192 85.8677 59.0263 86.9009 57.7912C87.9445 56.556 90.0004 56.2537 91.4823 57.1088L97.9005 60.8055C98.391 61.0905 98.8815 61.3583 99.372 61.6174C112.814 68.8381 129.605 70.911 145.009 67.2661C145.645 67.1193 146.272 66.9638 146.898 66.7911L154.13 64.8477C155.862 64.3813 157.72 65.1673 158.283 66.5924C158.837 68.0262 157.897 69.5636 156.165 70.03H156.175Z" fill="#2F2535"/>
<path d="M65.7262 79.6172L61.917 80.7228L60.4455 83.9876L59.068 80.7919L55.1753 79.6172L59.1097 78.408L60.4455 75.2468L61.8753 78.4771L65.7262 79.6172Z" fill="#602B7A"/>
<path d="M98.4223 23.2944L95.6463 24.0977L94.5922 26.4643L93.5904 24.1495L90.7518 23.2944L93.6217 22.4134L94.5922 20.116L95.615 22.4653L98.4223 23.2944Z" fill="#602B7A"/>
<path d="M10.5613 38.3921L6.74168 39.4977L5.28064 42.7625L3.90308 39.5668L0 38.3921L3.94482 37.1829L5.28064 34.0217L6.69994 37.252L10.5613 38.3921Z" fill="#602B7A"/>
<path d="M141.106 131.224C141.106 131.224 145.113 136.752 146.929 142.055C148.797 147.514 149.997 159.554 149.997 159.554C149.997 159.554 174.47 169.685 175.806 184.558C177.141 199.432 159.358 207.257 154.579 209.002C149.799 210.746 133.905 213.968 133.122 215.618C132.329 217.267 133.602 231.121 135.126 232.235C136.66 233.341 153.431 231.242 165.672 225.075C177.914 218.9 199.704 205.616 200.278 184.567C200.852 163.518 175.419 146.909 171.986 144.059C168.542 141.209 151.333 132.667 141.106 131.241V131.224Z" fill="#E63417"/>
<path d="M129.97 218.995C127.998 220.169 125.003 221.517 122.331 222.07C117.812 223.011 113.836 222.458 109.86 221.508C108.462 221.171 107.074 220.791 105.654 220.403C101.188 219.193 97.1699 217.552 92.672 215.497C92.1711 215.272 91.8684 214.788 92.0354 214.348C92.1189 214.115 92.3172 213.985 92.6616 214.123C98.3492 215.056 109.265 216.758 114.327 216.913C118.459 217.051 125.159 217.958 129.762 217.224L129.793 217.5L129.97 218.995Z" fill="white" stroke="#602B7A" stroke-linecap="round" stroke-linejoin="round"/>
<path d="M86.9354 177.997L31.6886 195.585L58.9162 254.166L114.163 236.578L86.9354 177.997Z" fill="#374C92"/>
<path d="M35.3156 199.112L36.6096 195.847L86.6192 179.928L86.0452 183.219L35.3156 199.112Z" fill="white"/>
<path d="M35.3156 199.112L36.6096 195.847L86.6192 179.928L86.0452 183.219L35.3156 199.112Z" stroke="#602B7A" stroke-linecap="round" stroke-linejoin="round"/>
<path d="M35.3156 199.112L36.6096 195.847L86.6192 179.928L86.0452 183.219L35.3156 199.112Z" fill="white"/>
<path d="M86.2852 181.829L86.9426 178.02L114.295 236.847L113.513 240.414L86.2852 181.829Z" fill="#29235C"/>
<path d="M86.2836 181.829L31.0368 199.417L58.2644 257.998L113.511 240.41L86.2836 181.829Z" fill="#374C92"/>
<path d="M81.0272 209.593L59.5889 216.418L65.7485 229.671L87.1868 222.846L81.0272 209.593Z" fill="#374C92"/>
<path d="M72.107 212.429L69.0875 213.39L75.2472 226.643L78.2667 225.682L72.107 212.429Z" fill="white"/>
<path d="M83.4701 214.849L62.0317 221.674L63.3019 224.407L84.7402 217.582L83.4701 214.849Z" fill="white"/>
<path d="M86.7338 221.853L87.193 222.838L85.4501 223.399L76.2455 221.326L75.3272 221.128L74.3253 220.895L74.0018 220.825L73.4904 220.713L73.3026 220.661L72.9791 220.592L72.3738 220.463L72.3425 220.445L71.8415 220.342L69.9004 219.901L68.5438 219.599L60.2054 217.725L59.5896 216.421L60.8315 216.023L71.4241 218.416L71.9355 218.519L72.3529 218.614L73.0417 218.778H73.0521L73.2817 218.83L73.5635 218.891L74.3775 219.072L74.6906 219.15L75.2124 219.253L75.2959 219.288L76.3499 219.521L77.6962 219.824L86.7338 221.853Z" fill="white"/>
<path d="M76.8926 220.083L86.9634 222.346L87.193 222.838L86.2642 223.14L76.016 220.834L75.1393 220.635L75.0976 220.627L74.2836 220.445L73.7931 220.333L73.7722 220.325L73.073 220.178L72.6451 220.074L72.1442 219.962L72.1338 219.953L70.7145 219.642L69.3682 219.34L59.9758 217.232L59.5896 216.421L59.9966 216.291L71.111 218.779L71.6537 218.899L72.4573 219.089L72.5825 219.115L72.7599 219.15L73.2713 219.271L74.4088 219.521L74.6071 219.564L74.9202 219.642L75.515 219.772H75.5463L76.8926 220.083Z" fill="#E63417"/>
<path d="M81.0359 209.589L81.662 210.945L77.0493 216.896L76.2979 217.863L75.2543 219.202L75.2125 219.254L74.9203 219.642L74.7429 219.867L74.5759 220.083L74.2837 220.446L74.002 220.826L73.8141 221.059L73.6054 221.326L73.0836 221.992L67.5838 229.083L65.7575 229.67L65.3192 228.737L70.4537 222.13L71.2051 221.154L71.8417 220.342L72.1339 219.953H72.1443L72.6557 219.279L72.7601 219.15L72.9166 218.943L73.0418 218.779H73.0523L73.6784 217.967L73.7932 217.82L74.3046 217.163L79.8879 209.951L81.0359 209.589Z" fill="white"/>
<path d="M71.3862 212.667L69.8083 213.169L75.968 226.422L77.5459 225.92L71.3862 212.667Z" fill="#E63417"/>
<path d="M83.7661 215.486L62.3277 222.311L63.0021 223.762L84.4405 216.937L83.7661 215.486Z" fill="#E63417"/>
<path d="M81.0359 209.589L81.4429 210.461L76.2457 217.155L75.4839 218.122L75.0247 218.709L74.6907 219.15L74.5133 219.383L74.409 219.521L73.7724 220.325V220.342L73.4906 220.713L73.3862 220.843L73.0105 221.318L72.8644 221.499L66.7698 229.342L65.7575 229.67L65.5383 229.221L71.2468 221.879L71.9982 220.903L72.3426 220.446L72.3635 220.428L72.6453 220.074L72.8853 219.763L73.2714 219.271L73.5636 218.891L73.7306 218.684L74.0124 218.303L74.482 217.708L74.5238 217.638L80.7019 209.701L81.0359 209.589Z" fill="#E63417"/>
<path d="M131.338 230.223C116.946 233.315 100.238 237.012 94.6549 238.713C87.2349 240.985 79.6479 240.622 103.526 232.693C95.5629 234.999 76.851 240.415 76.5275 239.404C75.9953 237.755 102.252 229.886 103.066 229.644C102.252 229.852 72.8227 237.323 72.2383 235.5C71.7791 234.058 91.6076 229.014 99.5077 227.062C92.1398 228.789 74.3255 232.805 73.5428 231.449C72.5514 229.696 100.238 223.443 100.238 223.443L109.86 221.508L129.793 217.5L129.971 218.995L131.338 230.223Z" fill="white" stroke="#602B7A" stroke-linecap="round" stroke-linejoin="round"/>
</g>
<defs>
<clipPath id="clip0_137_8856">
<rect width="202" height="258" fill="white"/>
</clipPath>
</defs>
</svg>
