<svg width="390" height="653" viewBox="0 0 390 653" fill="none" xmlns="http://www.w3.org/2000/svg">
<g opacity="0.1">
<path d="M151.232 652.412C152.368 652.412 152.936 651.56 153.221 650.707C153.221 649.571 152.368 648.718 151.232 648.434C150.095 648.434 148.959 649.287 148.959 650.423C148.959 651.56 149.811 652.412 151.232 652.412ZM175.383 651.844C175.667 651.844 175.667 651.844 175.667 651.844C176.803 651.844 177.655 650.707 177.371 649.571C177.371 648.434 176.235 647.582 175.098 647.866C173.962 647.866 173.109 649.003 173.394 650.139C173.394 650.991 174.246 651.844 175.383 651.844ZM127.081 650.139C127.933 650.139 128.786 649.571 129.07 648.434C129.354 647.298 128.502 646.161 127.365 646.161H127.081C125.945 646.161 125.092 646.73 124.808 647.866C124.808 649.003 125.376 649.855 126.513 650.139C126.797 650.139 127.081 650.139 127.081 650.139ZM198.965 647.298C199.249 647.298 199.249 647.298 199.533 647.298C200.67 647.014 201.238 646.161 200.954 645.025C200.67 643.888 199.533 643.32 198.397 643.604H198.113C196.976 643.888 196.408 645.025 196.976 646.161C197.544 646.73 198.113 647.298 198.965 647.298ZM103.214 645.309C104.067 645.309 104.919 644.741 105.203 643.888C105.487 642.752 104.919 641.899 103.783 641.331L103.214 643.32L102.646 645.309C102.93 645.309 102.93 645.309 103.214 645.309ZM719.2 641.047C720.336 641.047 721.189 640.195 721.189 639.058C721.189 637.922 720.336 637.069 719.2 637.069C718.063 636.785 717.211 637.638 716.927 638.774C716.643 639.911 717.779 640.763 718.916 641.047C719.2 641.047 719.2 641.047 719.2 641.047ZM743.35 641.047C743.635 641.047 743.635 641.047 743.35 641.047C744.771 641.047 745.623 640.195 745.623 639.058C745.623 637.922 744.487 636.785 743.35 637.069C742.214 637.069 741.362 638.206 741.646 639.342C741.646 640.195 742.498 641.047 743.35 641.047ZM694.765 639.058L695.049 637.069V635.08C693.913 635.08 693.06 635.649 692.776 636.785C693.06 638.206 693.628 639.058 694.765 639.058ZM767.501 639.058C767.785 639.058 767.785 639.058 767.501 639.058C768.922 639.058 769.774 637.922 769.49 636.785C769.49 635.649 768.354 634.796 767.217 635.08C766.081 635.08 765.228 636.217 765.512 637.353C765.796 638.206 766.649 639.058 767.501 639.058ZM79.9161 638.206C80.7685 638.206 81.6208 637.638 81.9049 637.069C82.189 635.933 81.905 635.08 80.7684 634.512L79.9161 636.217L79.3478 638.206C79.632 638.206 79.632 638.206 79.9161 638.206ZM220.843 637.069C221.127 637.069 221.695 637.069 221.979 636.785C221.979 636.785 221.979 636.785 222.263 636.785C223.116 635.933 223.116 634.796 222.547 633.944C221.695 633.091 220.558 633.091 219.706 633.66C218.854 634.228 218.854 635.649 219.422 636.501C219.706 636.785 220.274 637.069 220.843 637.069ZM671.182 635.364C672.035 635.364 672.887 634.796 673.171 633.66C673.455 632.523 672.887 631.387 671.751 631.387C670.614 631.103 669.478 631.955 669.478 633.092C669.194 634.228 670.046 635.364 671.182 635.364ZM791.652 635.364H791.936L791.084 631.387C789.947 631.671 789.379 632.523 789.379 633.66C789.663 634.512 790.515 635.364 791.652 635.364ZM647.884 629.398C648.736 629.398 649.589 628.83 649.873 627.977C650.157 626.841 649.589 625.704 648.452 625.42H648.168C647.032 625.136 645.895 625.988 645.895 627.125C645.611 628.261 646.463 629.398 647.6 629.398C647.6 629.398 647.6 629.398 647.884 629.398ZM815.234 629.398H815.519H815.803C816.939 629.114 817.507 627.977 816.939 626.841C816.655 625.704 815.519 625.136 814.382 625.704C813.246 625.988 812.677 626.841 812.961 627.977C813.246 628.83 814.098 629.398 815.234 629.398ZM58.0383 628.545C58.6066 628.545 59.459 628.261 59.7431 627.693C60.3114 626.841 60.0273 625.42 58.8908 624.852C58.8908 624.852 58.6066 624.852 58.6066 624.568C57.4702 623.999 56.3336 624.568 56.0495 625.704C55.7654 626.841 56.0495 627.977 57.186 628.261C57.186 628.545 57.4701 628.545 58.0383 628.545ZM837.964 621.726C838.249 621.726 838.533 621.726 838.817 621.442C839.669 620.874 840.237 619.738 839.953 618.885C839.669 617.749 838.533 617.465 837.396 617.749H837.112C835.976 618.317 835.691 619.453 835.976 620.306C836.544 621.442 837.396 621.726 837.964 621.726ZM624.87 621.442C625.722 621.442 626.575 620.874 626.859 620.306C627.143 619.169 626.859 618.317 625.722 617.749H625.438C624.302 617.465 623.165 618.033 622.881 618.885C622.597 619.738 623.165 621.158 624.018 621.442C624.302 621.442 624.586 621.442 624.87 621.442ZM235.901 615.76C236.185 614.623 235.617 613.487 234.765 613.203C233.628 612.919 232.776 613.203 232.208 614.339L233.912 615.192L235.901 615.76ZM37.2972 615.76C37.8655 615.76 38.4337 615.476 39.002 614.907C39.5702 614.055 39.5702 612.919 38.7178 612.066L37.2972 613.487L36.1606 615.192C36.4448 615.476 36.7289 615.76 37.2972 615.76ZM860.41 612.066C860.695 612.066 861.263 612.066 861.547 611.782C862.683 611.214 862.968 610.077 862.399 609.225C861.831 608.088 860.695 607.804 859.558 608.372C859.558 608.372 859.274 608.373 859.274 608.657C858.422 609.225 858.137 610.361 858.706 611.498C858.99 611.782 859.558 612.066 860.41 612.066ZM602.708 611.498C603.56 611.498 604.129 610.93 604.413 610.361C604.981 609.225 604.413 608.088 603.276 607.804C602.424 607.236 601.287 607.52 600.719 608.372C600.151 609.225 600.435 610.646 601.572 611.214C601.572 611.214 601.856 611.214 601.856 611.498C602.14 611.498 602.424 611.498 602.708 611.498ZM580.83 600.985C581.683 600.985 582.251 600.417 582.535 599.849C583.103 598.712 582.535 597.576 581.399 597.292C580.546 596.723 579.41 597.008 578.841 597.86C578.273 598.712 578.557 600.133 579.694 600.701C579.694 600.701 579.978 600.701 579.978 600.985C580.546 600.701 580.546 600.985 580.83 600.985ZM881.436 600.133C881.72 600.133 882.288 600.133 882.572 599.849C883.425 599.28 883.709 597.86 883.141 597.007C882.572 596.155 881.436 595.871 880.583 596.439H880.299C879.447 597.008 879.163 598.428 880.015 599.281C880.015 599.849 880.867 600.133 881.436 600.133ZM19.9655 598.712C20.5337 598.712 20.8179 598.428 21.3861 598.144C22.2385 597.292 22.2385 596.155 21.6703 595.303C21.1021 594.45 19.6814 594.45 18.829 595.019C17.9766 595.587 17.6925 597.008 18.5448 597.86C18.5448 597.86 18.5448 597.86 18.5448 598.144C18.829 598.712 19.3972 598.712 19.9655 598.712ZM234.765 591.609H236.754L238.743 591.325C238.458 590.188 237.606 589.62 236.47 589.62C235.333 589.336 234.481 590.473 234.765 591.609ZM559.237 590.188C560.089 590.188 560.657 589.62 560.941 589.052C561.51 587.915 560.941 586.779 559.805 586.495C558.953 585.927 557.816 586.211 557.248 587.063C556.68 587.915 556.964 589.336 558.1 589.904C558.1 589.904 558.384 589.904 558.384 590.188C558.668 590.188 558.953 590.188 559.237 590.188ZM900.756 585.642C901.325 585.642 901.609 585.358 902.177 585.074C903.029 584.222 903.029 583.085 902.461 582.233C901.609 581.381 900.472 581.381 899.62 581.949C898.767 582.801 898.767 583.938 899.336 584.79C899.62 585.358 900.188 585.642 900.756 585.642ZM537.359 579.392C538.211 579.392 538.78 578.823 539.064 578.255C539.632 577.119 539.064 575.982 537.927 575.698C537.075 575.13 535.938 575.414 535.37 576.266C534.802 577.119 535.086 578.539 536.223 579.108C536.223 579.108 536.507 579.108 536.507 579.392C536.791 579.392 537.075 579.392 537.359 579.392ZM8.60046 577.687C8.88452 577.687 8.88464 577.687 9.1687 577.687C10.3052 577.403 10.8734 576.266 10.5894 575.13L8.60046 575.698L6.61157 576.266C6.89563 577.119 7.74805 577.687 8.60046 577.687ZM226.241 571.72C226.809 571.72 227.093 571.436 227.662 571.152C228.514 570.3 228.514 569.163 227.946 568.311C227.093 567.458 225.957 567.458 225.105 568.027C224.252 568.879 224.252 570.016 224.82 570.868C225.105 571.72 225.673 571.72 226.241 571.72ZM515.481 568.879C516.334 568.879 516.902 568.311 517.186 567.743C517.754 566.606 517.186 565.47 516.05 565.185C515.197 564.617 514.061 564.901 513.492 565.754C512.924 566.606 513.208 568.027 514.345 568.595C514.345 568.595 514.629 568.595 514.629 568.879C514.913 568.879 515.197 568.879 515.481 568.879ZM918.088 568.595C918.656 568.595 919.225 568.311 919.509 568.027L916.383 565.469L917.804 566.89L916.099 565.754C915.247 566.606 915.531 567.742 916.383 568.595C917.236 568.595 917.52 568.595 918.088 568.595ZM492.751 558.366L493.604 556.662L494.456 554.673C493.604 554.104 492.183 554.673 491.899 555.525C491.331 556.662 491.615 557.798 492.751 558.366ZM206.92 557.23C207.773 557.23 208.341 556.662 208.625 556.093C209.193 554.957 208.625 553.82 207.489 553.536C206.636 552.968 205.5 553.252 204.932 554.104C204.363 554.957 204.647 556.377 205.784 556.946C205.784 556.946 206.068 556.946 206.068 557.23C206.352 557.23 206.636 557.23 206.92 557.23ZM6.04321 553.82C7.17969 553.82 8.0321 552.968 8.0321 552.116L4.05444 551.547L6.04321 551.831H4.05444C3.77039 552.684 4.62256 553.536 6.04321 553.82C5.75916 553.82 5.75916 553.82 6.04321 553.82ZM136.741 550.979C137.025 550.979 137.31 550.979 137.594 550.695L136.741 548.99L135.605 547.285C134.752 547.854 134.468 548.99 135.037 550.127C135.605 550.695 136.173 550.979 136.741 550.979ZM932.294 548.99C932.863 548.99 933.715 548.706 933.999 548.138C934.567 547.285 934.283 545.865 933.431 545.297C932.578 544.728 931.442 544.728 930.59 545.581C930.59 545.581 930.59 545.865 930.305 545.865C929.737 546.717 930.021 548.138 930.874 548.706C931.442 548.99 931.726 548.99 932.294 548.99ZM183.622 548.706L184.19 546.717L184.759 544.728C183.622 544.444 182.486 545.012 182.201 546.149C181.917 547.285 182.486 548.422 183.622 548.706ZM470.589 548.138L471.442 546.433L472.294 544.444C471.442 543.876 470.021 544.444 469.737 545.297C469.169 546.433 469.737 547.57 470.589 548.138ZM160.324 545.865C161.46 545.865 162.313 545.012 162.313 543.876C162.313 542.739 161.46 541.887 160.324 541.887C159.187 541.887 158.335 542.739 158.335 543.876C158.335 545.012 159.187 545.865 160.324 545.865ZM448.428 537.909L449.28 536.204L450.132 534.216C448.996 533.647 447.859 534.216 447.575 535.068C447.291 536.205 447.575 537.625 448.428 537.909ZM948.49 531.09C949.058 531.09 949.342 530.806 949.91 530.522C950.763 529.67 950.763 528.533 950.194 527.681C949.342 526.828 948.205 526.828 947.353 527.397C946.501 528.249 946.501 529.385 947.069 530.238C947.353 530.806 947.921 531.09 948.49 531.09ZM12.2941 530.522C13.1464 530.522 13.7147 529.954 13.9988 529.385C14.567 528.249 13.9988 527.112 12.8623 526.828C11.7258 526.26 10.5894 526.828 10.3052 527.681C9.73694 528.817 10.3052 529.954 11.4417 530.238C11.7258 530.522 12.0099 530.522 12.2941 530.522ZM427.118 528.533C427.97 528.533 428.539 527.965 429.107 527.397C429.675 526.26 429.107 525.124 428.255 524.839C427.118 524.271 425.982 524.839 425.697 525.976C425.129 527.112 425.698 528.249 426.834 528.533C426.55 528.249 426.834 528.533 427.118 528.533ZM1062.99 526.26C1063.84 526.26 1064.41 525.976 1064.7 525.124C1065.27 524.271 1064.98 522.851 1063.84 522.282C1062.99 521.714 1061.57 522.282 1061 523.135C1060.44 523.987 1060.72 525.408 1061.86 525.976C1062.14 525.976 1062.71 526.26 1062.99 526.26ZM404.956 518.873C405.809 518.873 406.661 518.305 406.945 517.736C407.229 516.6 406.945 515.747 405.809 515.179H405.525C404.388 514.895 403.251 515.463 402.967 516.316C402.683 517.168 403.252 518.589 404.104 518.873C404.388 518.873 404.672 518.873 404.956 518.873ZM968.947 518.589C969.231 518.589 969.231 518.589 969.515 518.589L968.947 516.6L968.094 514.895C967.242 515.463 966.674 516.6 966.958 517.452C967.526 518.02 968.094 518.589 968.947 518.589ZM1040.55 517.452C1041.4 517.452 1042.25 516.884 1042.54 516.032C1042.82 514.895 1042.25 513.759 1041.11 513.474H1040.83C1039.69 513.19 1038.56 514.043 1038.56 515.179C1038.27 516.316 1039.13 517.452 1040.26 517.452C1039.98 517.452 1040.26 517.452 1040.55 517.452ZM1016.4 512.338L1016.68 510.349V508.36C1015.54 508.36 1014.69 508.928 1014.41 510.065C1014.41 511.201 1015.26 512.338 1016.4 512.338ZM992.245 512.338C992.529 512.338 992.529 512.338 992.245 512.338C993.666 512.338 994.518 511.201 994.234 510.065C994.234 508.928 993.097 508.076 991.961 508.36C990.824 508.36 989.972 509.497 990.256 510.633C990.54 511.486 991.393 512.338 992.245 512.338ZM382.51 509.781C383.363 509.781 384.215 509.212 384.499 508.644C384.783 507.508 384.499 506.655 383.363 506.087H383.079C381.942 505.803 380.806 506.371 380.521 507.224C380.237 508.076 380.806 509.497 381.658 509.781C381.942 509.497 382.226 509.781 382.51 509.781ZM24.2274 509.497C24.7957 509.497 25.6481 509.212 25.9321 508.644C26.5004 507.792 26.2162 506.371 25.3639 505.803C24.5115 505.235 23.375 505.235 22.5226 506.087C22.5226 506.087 22.5226 506.371 22.2384 506.371C21.6702 507.224 21.9543 508.644 22.8068 509.213C23.375 509.497 23.9432 509.497 24.2274 509.497ZM359.212 500.689L360.064 498.984L360.633 496.995C359.496 496.711 358.36 497.279 358.076 498.132C357.791 498.984 358.075 500.12 359.212 500.689ZM336.198 492.165L337.05 490.46L337.618 488.471C336.482 488.187 335.345 488.755 335.061 489.608C334.777 490.46 335.345 491.597 336.198 492.165ZM39.5702 490.744C40.1384 490.744 40.7067 490.46 40.9908 490.176C41.559 489.324 41.559 488.187 40.9908 487.335C40.1384 486.482 39.002 486.482 38.1495 487.335C38.1495 487.335 38.1495 487.335 37.8654 487.619C37.0131 488.471 37.2971 489.608 38.1495 490.46C38.7178 490.46 39.002 490.744 39.5702 490.744ZM314.32 484.209C315.172 484.209 316.025 483.641 316.309 482.789C316.593 481.652 316.025 480.516 315.172 480.232C314.036 479.947 312.899 480.516 312.615 481.652C312.331 482.789 312.899 483.925 314.036 484.209C313.752 484.209 314.036 484.209 314.32 484.209ZM291.306 476.538C292.158 476.538 293.011 475.97 293.295 475.117C293.579 473.981 293.011 472.844 292.158 472.56C291.022 472.276 289.885 472.844 289.601 473.981C289.317 475.117 289.885 476.254 291.022 476.538C290.738 476.538 291.022 476.538 291.306 476.538ZM56.9019 473.981C57.4701 473.981 57.7543 473.697 58.3225 473.413C59.1749 472.844 59.1749 471.424 58.6066 470.571C58.0384 469.719 56.6177 469.435 55.7654 470.287C55.7654 470.287 55.7654 470.287 55.4813 470.287C54.6288 471.14 54.6288 472.276 55.1971 473.128C55.7653 473.697 56.3336 473.981 56.9019 473.981ZM268.292 469.719C269.144 469.719 269.996 469.151 270.281 468.298C270.565 467.162 269.996 466.025 268.86 465.741H268.576C267.439 465.457 266.303 466.309 266.303 467.446C266.019 468.582 266.871 469.719 268.008 469.719C267.723 469.719 268.008 469.719 268.292 469.719ZM243.857 463.184L244.425 461.195L244.993 459.206C243.857 458.922 242.72 459.49 242.436 460.627C242.436 462.048 243.004 462.9 243.857 463.184ZM77.643 461.195C77.9272 461.195 78.2114 461.195 78.4955 460.911C79.3478 460.343 79.9161 459.206 79.3478 458.354C78.7795 457.502 77.6431 456.933 76.7907 457.217C76.7907 457.217 76.7906 457.217 76.5065 457.217C75.3701 457.786 75.0859 458.922 75.6542 460.059C76.2225 460.911 76.7906 461.195 77.643 461.195ZM220.843 458.07C221.695 458.07 222.547 457.502 222.831 456.365C223.116 455.229 222.547 454.092 221.411 454.092C220.274 453.808 219.138 454.66 219.138 455.797C219.138 456.933 219.706 458.07 220.843 458.07ZM100.657 453.524C100.941 453.524 100.941 453.524 101.226 453.524C102.362 453.24 102.93 452.103 102.646 450.967C102.362 449.83 101.226 449.262 100.373 449.546H100.089C98.9526 449.83 98.3843 450.967 98.6685 452.103C98.9526 452.956 99.8049 453.524 100.657 453.524ZM196.976 453.524C197.828 453.524 198.965 452.671 198.965 451.819C199.249 450.683 198.397 449.83 197.544 449.546H197.26C196.124 449.546 195.271 450.114 194.987 451.251C194.703 452.387 195.555 453.524 196.976 453.524ZM172.825 450.398L173.109 448.41V446.421C171.973 446.421 171.121 446.989 170.836 448.125C170.552 449.262 171.689 450.398 172.825 450.398ZM124.524 449.83C125.944 449.83 126.797 448.694 126.513 447.557C126.513 446.421 125.376 445.568 124.24 445.852C123.103 445.852 122.251 446.989 122.535 448.125C122.535 449.262 123.387 449.83 124.524 449.83ZM148.959 448.978C150.095 448.978 150.948 448.125 150.948 446.989C150.948 445.852 150.095 445 148.959 445C147.822 445 146.97 445.568 146.686 446.705C146.402 447.841 147.538 448.694 148.675 448.978C148.675 448.978 148.675 448.978 148.959 448.978Z" fill="#FFD631"/>
<path d="M20.3283 54.0046C20.0091 53.5344 19.8496 53.2993 19.7655 52.6696C19.043 51.0996 19.1853 49.2859 19.8819 47.7827L31.631 20.5747C33.0997 17.1737 36.8695 15.6447 40.2705 17.1133L83.1399 35.7442C84.643 36.4408 85.8357 37.6916 86.5581 39.2616C87.2806 40.8316 87.1382 42.6453 86.4416 44.1484L74.6926 71.3565C73.996 72.8597 72.7451 74.0523 71.1751 74.7747C69.6051 75.4972 67.7914 75.3549 66.2882 74.6583L23.4188 56.0275C22.0752 55.566 20.9667 54.9448 20.3283 54.0046ZM83.6445 39.5226C83.3253 39.0525 82.6115 38.5068 82.0572 38.1963L39.1878 19.5654C38.2389 19.1794 37.2145 19.188 36.3497 19.4317C35.4849 19.6754 34.7042 20.5489 34.3182 21.4978L22.569 48.7057C21.797 50.6035 22.6036 52.8033 24.5014 53.5754L67.3708 72.2062C68.3197 72.5923 69.3441 72.5836 70.2089 72.3399C71.0737 72.0962 71.8545 71.2228 72.2405 70.2739L83.9896 43.0659C84.3756 42.1169 84.367 41.0926 84.1233 40.2278C83.7286 40.1523 83.8041 39.7577 83.6445 39.5226Z" fill="#602B7A"/>
<path d="M49.2538 45.013L47.6406 40.6135L45.8679 35.979L41.3929 37.9868L36.9934 39.6L40.7136 41.5387L38.5483 46.4429L43.2175 48.7677L45.4581 43.4689L49.2538 45.013Z" fill="#602B7A"/>
<path d="M357.44 258.551V266.79L349.485 267.927C348.632 271.904 347.212 275.882 344.939 279.008L349.769 285.542L343.802 291.509L337.267 286.679C333.858 288.952 330.164 290.657 326.186 291.225L325.05 299.181H316.81L315.674 291.225C311.696 290.373 307.718 288.952 304.593 286.679L298.058 291.509L292.091 285.542L296.921 279.008C294.648 275.598 292.944 271.904 292.375 267.927L284.42 266.79V258.551L292.375 257.414C293.228 253.436 294.648 249.459 296.921 246.333L292.091 239.798L298.058 233.832L304.593 238.662C308.002 236.389 311.696 234.684 315.674 234.116L316.81 226.16H325.05L326.186 234.116C330.164 234.968 334.142 236.389 337.267 238.662L343.802 233.832L349.769 239.798L344.939 246.333C347.212 249.743 348.916 253.436 349.485 257.414L357.44 258.551ZM321.072 242.64C309.991 242.64 300.899 251.731 300.899 262.812C300.899 273.893 309.991 282.985 321.072 282.985C332.153 282.985 341.245 273.893 341.245 262.812C341.245 251.731 332.153 242.64 321.072 242.64Z" fill="white"/>
<path d="M315.675 300.601H326.472L327.608 292.361C331.018 291.509 334.427 290.088 337.269 288.384L343.803 293.214L351.475 285.542L346.645 279.007C348.634 275.882 349.77 272.757 350.623 269.347L358.862 268.211V257.414L350.623 256.277C349.77 252.868 348.349 249.458 346.645 246.617L351.475 240.082L343.803 232.411L337.269 237.241C334.143 235.252 331.018 234.115 327.608 233.263L326.472 225.023H315.675L314.538 233.263C311.129 234.115 307.719 235.536 304.878 237.241L298.343 232.411L290.672 240.082L295.502 246.617C293.513 249.742 292.377 252.868 291.524 256.277L283.285 257.414V268.211L291.524 269.347C292.377 272.757 293.797 276.166 295.502 279.007L290.672 285.542L298.343 293.214L304.878 288.384C308.004 290.372 311.129 291.509 314.538 292.361L315.675 300.601ZM324.199 297.76H318.232L317.096 290.088L315.959 289.804C312.265 289.236 308.572 287.531 305.446 285.542L304.594 284.974L298.343 289.804L294.081 285.542L298.627 279.292L298.059 278.439C295.786 275.314 294.366 271.62 293.797 267.926L293.513 266.79L285.842 265.653V259.687L293.513 258.55L293.797 257.414C294.366 253.72 296.07 250.027 298.059 246.901L298.627 246.049L293.797 239.798L298.059 235.536L304.31 240.082L305.162 239.514C308.288 237.241 311.981 235.82 315.675 235.252L316.811 234.968L317.948 227.296H323.915L325.051 234.968L326.188 235.252C329.881 235.82 333.575 237.525 336.7 239.514L337.553 240.082L343.803 235.252L348.065 239.23L343.519 245.481L344.088 246.333C346.361 249.458 347.781 253.152 348.349 256.846L348.634 257.982L356.305 259.119V265.085L348.634 266.222L348.349 267.358C347.781 271.052 346.076 274.746 344.088 277.871L343.519 278.723L348.349 284.974L344.088 289.236L337.837 284.69L336.984 285.258C333.859 287.531 330.165 288.952 326.472 289.52L325.335 289.804L324.199 297.76ZM321.073 284.406C333.007 284.406 342.667 274.745 342.667 262.812C342.667 250.879 333.007 241.219 321.073 241.219C309.14 241.219 299.48 250.879 299.48 262.812C299.48 274.745 309.14 284.406 321.073 284.406ZM321.073 244.06C331.302 244.06 339.826 252.3 339.826 262.812C339.826 273.325 331.586 281.565 321.073 281.565C310.845 281.565 302.321 273.325 302.321 262.812C302.321 252.3 310.845 244.06 321.073 244.06Z" fill="#602B7A"/>
<path d="M266.143 318.5V335.537L249.694 337.887C247.931 346.111 244.994 354.336 240.294 360.798L250.281 374.31L237.944 386.647L224.432 376.66C217.383 381.36 209.745 384.885 201.521 386.06L199.171 402.509H182.134L179.784 386.06C171.559 384.297 163.335 381.36 156.872 376.66L143.36 386.647L131.023 374.31L141.01 360.798C136.31 353.748 132.786 346.111 131.611 337.887L115.161 335.537V318.5L131.611 316.15C133.373 307.925 136.31 299.7 141.01 293.238L131.023 279.726L143.36 267.389L156.872 277.376C163.922 272.676 171.559 269.152 179.784 267.977L182.134 251.527H199.171L201.521 267.977C209.745 269.739 217.97 272.676 224.432 277.376L237.944 267.389L250.281 279.726L240.294 293.238C244.994 300.288 248.519 307.925 249.694 316.15L266.143 318.5ZM190.946 285.601C168.034 285.601 149.235 304.4 149.235 327.312C149.235 350.223 168.034 369.023 190.946 369.023C213.858 369.023 232.657 350.223 232.657 327.312C232.657 304.4 213.858 285.601 190.946 285.601Z" fill="white"/>
<path d="M179.77 405.444H202.095L204.445 388.407C211.494 386.644 218.544 383.707 224.419 380.182L237.931 390.169L253.793 374.307L243.806 360.795C247.918 354.333 250.268 347.871 252.03 340.821L269.067 338.471V316.147L252.03 313.797C250.268 306.747 247.33 299.698 243.806 293.823L253.793 280.311L237.931 264.449L224.419 274.436C217.957 270.323 211.494 267.974 204.445 266.211L202.095 249.174H179.77L177.421 266.211C170.371 267.974 163.321 270.911 157.446 274.436L143.934 264.449L128.072 280.311L138.059 293.823C133.947 300.285 131.597 306.747 129.835 313.797L112.798 316.147V338.471L129.835 340.821C131.597 347.871 134.535 354.92 138.059 360.795L128.072 374.307L143.934 390.169L157.446 380.182C163.909 384.294 170.371 386.644 177.421 388.407L179.77 405.444ZM197.395 399.569H185.058L182.708 383.707L180.358 383.119C172.721 381.944 165.083 378.42 158.621 374.307L156.859 373.132L143.934 383.119L135.122 374.307L144.522 361.383L143.347 359.62C138.647 353.158 135.71 345.521 134.535 337.884L133.947 335.534L118.085 333.184V320.847L133.947 318.497L134.535 316.147C135.71 308.51 139.235 300.873 143.347 294.41L144.522 292.648L134.535 279.723L143.347 270.911L156.271 280.311L158.034 279.136C164.496 274.436 172.133 271.499 179.77 270.324L182.12 269.736L184.47 253.874H196.807L199.157 269.736L201.507 270.324C209.144 271.499 216.782 275.023 223.244 279.136L225.006 280.311L237.931 270.324L246.743 278.548L237.343 291.473L238.518 293.235C243.218 299.697 246.156 307.335 247.33 314.972L247.918 317.322L263.78 319.672V332.009L247.918 334.359L247.33 336.709C246.156 344.346 242.631 351.983 238.518 358.445L237.343 360.208L247.33 373.132L238.518 381.945L225.594 372.545L223.831 373.72C217.369 378.42 209.732 381.357 202.095 382.532L199.745 383.119L197.395 399.569ZM190.932 371.957C215.607 371.957 235.581 351.983 235.581 327.309C235.581 302.635 215.607 282.661 190.932 282.661C166.258 282.661 146.284 302.635 146.284 327.309C146.284 351.983 166.258 371.957 190.932 371.957ZM190.932 288.535C212.082 288.535 229.706 305.572 229.706 327.309C229.706 349.046 212.669 366.083 190.932 366.083C169.783 366.083 152.159 349.046 152.159 327.309C152.159 305.572 169.783 288.535 190.932 288.535Z" fill="#602B7A"/>
<path d="M171.338 193.483L148.608 184.107L159.121 206.268L163.951 201.154L169.918 206.268L172.191 203.711L166.508 198.597L171.338 193.483Z" fill="#602B7A"/>
<path d="M74.0123 249.175L84.5249 252.868L88.7868 263.949L92.7646 253.152L103.561 249.175L92.4805 245.197L88.7868 234.4L84.8091 245.481L74.0123 249.175Z" fill="#FFD631"/>
<path d="M-5.91278e-05 294.066L7.95544 296.623L10.7967 304.863L13.638 296.908L21.8777 294.066L13.638 290.941L10.7967 282.985L7.95544 291.225L-5.91278e-05 294.066Z" fill="#602B7A"/>
<path d="M78.9102 170.75C81.4721 175.502 82.6487 180.678 82.3051 186.027C81.9616 191.377 80.0784 196.266 76.9251 201.194C73.5217 206.257 69.9246 209.165 66.2885 210.802C62.5175 212.19 58.8227 211.922 55.5693 209.48C53.625 208.269 52.5659 206.903 51.8721 205.018C51.3132 203.382 51.2545 201.477 51.8308 199.553C47.3095 201.345 42.7098 200.596 38.1668 197.558C35.5679 195.732 33.7194 193.5 32.3711 190.999C31.2728 188.364 30.6747 185.458 31.0966 182.648C31.3836 179.589 32.4405 176.759 34.5173 174.026C36.3441 171.427 38.6906 169.193 41.1916 167.845C43.9426 166.362 46.5979 165.898 49.5229 165.935C52.448 165.972 55.2774 167.029 57.8762 168.856C59.9553 170.317 61.3993 171.798 62.5932 173.414C63.7872 175.03 64.2308 177.05 64.6745 179.071L67.2319 175.432L73.4692 179.817L60.3361 199.163C59.4902 200.588 59.1444 201.742 59.0487 202.762C59.2032 203.648 59.7425 204.648 60.6472 205.128C62.2065 206.225 64.1116 206.166 65.9775 204.837C67.9783 203.758 70.1899 201.275 72.382 198.156C75.0547 194.133 76.7074 190.014 76.9553 185.684C77.2031 181.354 76.3158 177.313 74.1584 173.312C72.0011 169.31 68.8433 165.848 64.4351 163.06C60.277 160.137 55.7731 158.369 51.0582 158.006C46.5935 157.508 42.1679 158.28 38.2817 160.053C34.1453 161.96 30.9332 164.983 28.0104 169.141C25.0876 173.299 23.5698 177.668 23.0718 182.133C22.5738 186.598 23.596 190.889 25.5033 195.025C27.6607 199.027 30.8184 202.489 34.9766 205.411C36.9208 206.623 38.865 207.834 40.9245 208.66C42.984 209.487 45.2936 210.178 47.7185 210.485L46.2397 216.124C43.8149 215.818 41.5052 215.126 39.0608 214.184C36.4815 212.993 34.1525 211.666 31.8233 210.339C26.6256 206.686 22.6784 202.358 19.9817 197.356C17.5351 192.22 16.3584 187.044 16.7019 181.694C17.0455 176.344 19.0441 171.07 22.4475 166.007C25.8509 160.945 30.0633 157.382 34.9499 155.071C39.8365 152.759 45.1472 151.832 50.882 152.291C56.3667 152.885 62.0254 154.999 67.223 158.652C72.4011 161.671 76.3483 165.998 78.9102 170.75ZM50.6542 194.377C53.3095 193.913 55.5408 192.065 57.3675 189.466C59.1943 186.867 60.001 184.173 59.403 181.267C58.9397 178.612 57.4761 176.496 54.8772 174.669C52.4132 173.092 49.7188 172.286 47.1983 172.999C44.5429 173.462 42.3116 175.311 40.4848 177.91C38.6581 180.508 37.8513 183.203 38.4494 186.108C38.9126 188.764 40.3763 190.88 42.9751 192.706C45.5739 194.533 48.1337 195.09 50.6542 194.377Z" fill="#602B7A"/>
</g>
</svg>
