<svg width="116" height="142" viewBox="0 0 116 142" fill="none" xmlns="http://www.w3.org/2000/svg">
<g clip-path="url(#clip0_681_19891)">
<path d="M31.6233 40.9603H27.3804C24.1782 40.9603 21.5684 43.5544 21.5684 46.7729V57.6455C21.5684 60.848 24.1461 63.4261 27.3323 63.4581C27.3323 63.4581 27.3323 63.4581 27.3323 63.4741C27.3323 64.8031 28.4051 65.876 29.734 65.876C31.0629 65.876 32.1356 64.8031 32.1356 63.4741C32.1356 63.4581 32.1356 63.426 32.1356 63.41C35.0977 63.1538 37.4353 60.6879 37.4353 57.6455V46.7729C37.4353 43.5704 34.8415 40.9603 31.6233 40.9603Z" fill="#613182"/>
<path d="M29.4938 47.2213C39.2384 47.2213 47.1379 39.3209 47.1379 29.5754C47.1379 19.8298 39.2384 11.9294 29.4938 11.9294C19.7492 11.9294 11.8496 19.8298 11.8496 29.5754C11.8496 39.3209 19.7492 47.2213 29.4938 47.2213Z" fill="white"/>
<path d="M29.4935 48.0219C22.2085 48.0219 11.0488 39.7594 11.0488 29.5753C11.0488 19.3913 19.3265 11.1288 29.4935 11.1288C39.6606 11.1288 47.9383 19.4073 47.9383 29.5753C47.9383 39.7434 36.7786 48.0219 29.4935 48.0219ZM29.4935 12.73C20.2071 12.73 12.6499 20.288 12.6499 29.5753C12.6499 38.8627 22.9931 46.4206 29.4935 46.4206C35.994 46.4206 46.3372 38.7185 46.3372 29.5753C46.3372 20.4321 38.78 12.73 29.4935 12.73Z" fill="#613182"/>
<path d="M29.9255 41.0404C37.3003 41.0404 43.2787 35.0613 43.2787 27.6858C43.2787 20.3103 37.3003 14.3313 29.9255 14.3313C22.5507 14.3313 16.5723 20.3103 16.5723 27.6858C16.5723 35.0613 22.5507 41.0404 29.9255 41.0404Z" fill="#FFD441"/>
<path d="M31.3019 18.0303C35.0645 19.7116 39.3714 23.1863 39.6757 30.2479C39.7397 31.7691 37.6583 32.3456 36.9218 31.0005C35.2086 27.9581 32.6628 23.8749 29.5727 20.3201C28.532 19.1352 29.8609 17.3738 31.3019 18.0143V18.0303Z" fill="white"/>
<path d="M0.801325 47.9258C0.513126 47.9258 0.240939 47.7657 0.0968393 47.5095C-0.111304 47.1252 0.0327951 46.6288 0.433071 46.4206L8.90291 41.9051C9.30319 41.6969 9.78352 41.841 9.99166 42.2413C10.1998 42.6256 10.0557 43.122 9.65543 43.3302L1.18559 47.8298C1.0575 47.8938 0.929413 47.9258 0.817336 47.9258H0.801325Z" fill="#613182"/>
<path d="M37.1779 6.48514C37.1779 6.48514 37.0338 6.48514 36.9538 6.45311C36.5215 6.32501 36.2813 5.89267 36.4094 5.46033L37.8344 0.576478C37.9625 0.16015 38.3948 -0.0960526 38.8271 0.0320485C39.2594 0.16015 39.4995 0.59249 39.3714 1.02483L37.9465 5.90868C37.8504 6.26096 37.5302 6.48514 37.1779 6.48514Z" fill="#613182"/>
<path d="M52.757 24.7715C52.4208 24.7715 52.1166 24.5633 52.0045 24.2431C51.8604 23.8267 52.0686 23.3624 52.4848 23.2183L64.5572 18.9269C64.9735 18.7828 65.4378 18.9909 65.5819 19.4073C65.726 19.8236 65.5178 20.288 65.1015 20.4321L53.0292 24.7235C52.9332 24.7555 52.8531 24.7715 52.757 24.7715Z" fill="#613182"/>
<path d="M10.5198 10.1841C10.2956 10.1841 10.0715 10.088 9.91138 9.89587L4.01931 2.94639C3.73112 2.61013 3.77915 2.09772 4.11538 1.80949C4.45161 1.52127 4.96397 1.56931 5.25217 1.90557L11.1282 8.85505C11.4164 9.19132 11.3684 9.70372 11.0322 9.99195C10.8881 10.12 10.6959 10.1841 10.5198 10.1841Z" fill="#613182"/>
<path d="M73.1868 142C73.0587 142 72.9466 141.968 72.8346 141.92L63.9004 137.452L65.8057 104.018C65.8377 103.57 66.238 103.233 66.6543 103.265C67.1026 103.297 67.4388 103.666 67.4068 104.114L65.5655 136.492L73.555 140.479C73.9553 140.671 74.1154 141.151 73.9073 141.552C73.7632 141.84 73.491 142 73.1868 142Z" fill="#613182"/>
<path d="M86.5405 137.773C86.4444 137.773 86.3644 137.773 86.2683 137.725L76.5977 134.234L77.5583 104.05C77.5583 103.602 77.9266 103.233 78.3909 103.281C78.8392 103.281 79.1754 103.666 79.1594 104.114L78.2308 133.145L86.7967 136.235C87.213 136.38 87.4211 136.844 87.277 137.26C87.1649 137.58 86.8447 137.789 86.5245 137.789L86.5405 137.773Z" fill="#613182"/>
<path d="M108.043 67.1249C102.76 67.1249 96.6595 65.2034 95.6188 64.8511C95.2025 64.707 94.9624 64.2587 95.1065 63.8423C95.2506 63.426 95.6989 63.1858 96.1152 63.3299C100.358 64.723 111.886 67.4292 114.112 63.3139C116.289 59.2948 106.714 48.15 102.84 44.1948L102.536 43.8746L104.617 35.3559C104.729 34.9235 105.145 34.6673 105.578 34.7634C106.01 34.8755 106.266 35.3078 106.17 35.7242L104.297 43.3782C106.779 45.9562 118.499 58.5742 115.521 64.0505C114.272 66.3563 111.31 67.0929 108.043 67.0929V67.1249Z" fill="#613182"/>
<path d="M89.4603 51.2453L48.9701 56.85C45.1335 57.381 42.4539 60.9219 42.9849 64.7588L48.589 105.253C49.12 109.09 52.6605 111.77 56.497 111.239L96.9872 105.634C100.824 105.103 103.503 101.562 102.972 97.7253L97.3683 57.2311C96.8373 53.3942 93.2968 50.7143 89.4603 51.2453Z" fill="#613182"/>
<path d="M64.1398 105.892C61.1298 105.892 58.5039 103.666 58.0716 100.607L53.8287 69.9112C53.6046 68.2939 54.0209 66.6766 55.0135 65.3796C56.0062 64.0826 57.4312 63.2339 59.0643 63.0097L89.7575 58.7664C93.1038 58.318 96.1939 60.6559 96.6583 63.9865L100.901 94.6827C101.125 96.3 100.709 97.9173 99.7164 99.2143C98.7237 100.511 97.2987 101.36 95.6656 101.584L64.9724 105.827C64.6842 105.86 64.412 105.892 64.1238 105.892H64.1398ZM90.5901 60.3036C90.3819 60.3036 90.1738 60.3036 89.9656 60.3516L59.2725 64.595C58.0716 64.7551 57.0149 65.3796 56.2944 66.3404C55.5579 67.3011 55.2537 68.4861 55.4138 69.687L59.6567 100.383C59.993 102.849 62.2826 104.595 64.7643 104.242L95.4574 99.9989C96.6583 99.8388 97.715 99.2143 98.4355 98.2535C99.156 97.2928 99.4762 96.1078 99.3161 94.9069L95.0732 64.2107C94.7529 61.9529 92.8156 60.3036 90.5901 60.3036Z" fill="#6553A3"/>
<path d="M66.6698 44.387C69.5998 61.5526 42.5892 65.7799 40.1555 48.5343C37.2255 31.3688 64.2361 27.1414 66.6698 44.387Z" fill="white"/>
<path d="M53.0124 60.3516C51.1231 60.3516 49.2338 60.0154 47.4886 59.3268C42.9735 57.5494 40.0915 53.7544 39.371 48.6304C38.5064 43.5544 40.0915 39.0548 43.8541 35.9804C48.065 32.5537 54.2933 31.577 59.3528 33.5625C63.8679 35.3239 66.7499 39.1189 67.4704 44.2429C68.335 49.351 66.7499 53.8345 62.9873 56.8929C60.2334 59.1347 56.6149 60.3356 53.0124 60.3356V60.3516ZM53.797 34.155C50.5787 34.155 47.3285 35.2278 44.8628 37.2454C41.5645 39.9355 40.1716 43.8907 40.9561 48.4062C41.5965 52.9538 44.1263 56.3165 48.081 57.8537C52.6121 59.6311 58.2 58.7664 61.9786 55.676C65.2769 52.9858 66.6698 49.0307 65.8853 44.5152C65.2449 39.9676 62.7151 36.6049 58.7604 35.0677C57.1913 34.4592 55.4941 34.155 53.797 34.155Z" fill="#6553A3"/>
<path d="M94.0331 40.1117C96.9631 57.2772 69.9525 61.5045 67.5188 44.2589C64.5888 27.0934 91.5994 22.8661 94.0331 40.1117Z" fill="white"/>
<path d="M80.3757 56.0763C78.4864 56.0763 76.5971 55.74 74.8519 55.0514C70.3368 53.274 67.4548 49.4791 66.7343 44.355C65.8697 39.279 67.4548 34.7795 71.2174 31.705C75.4283 28.2783 81.6566 27.3016 86.7161 29.2871C91.2312 31.0485 94.1132 34.8595 94.8337 39.9675C95.6983 45.0596 94.1132 49.5591 90.3506 52.6175C87.5967 54.8593 83.9782 56.0602 80.3757 56.0602V56.0763ZM81.1602 29.8796C77.942 29.8796 74.6918 30.9524 72.2261 32.97C68.9278 35.6602 67.5348 39.6153 68.3194 44.1308C68.9598 48.6784 71.4896 52.0411 75.4443 53.5783C79.9754 55.3557 85.5633 54.491 89.3419 51.4006C92.6402 48.7104 94.0331 44.7553 93.2486 40.2398C92.6081 35.6922 90.0784 32.3295 86.1237 30.7923C84.5546 30.1838 82.8574 29.8796 81.1602 29.8796Z" fill="#6553A3"/>
<path d="M77.7496 39.3431C78.8384 45.9403 72.7222 46.2605 71.9857 40.2398C70.8329 34.2991 76.773 32.7139 77.7496 39.3431Z" fill="#613182"/>
<path d="M74.4825 39.8555C74.5785 40.432 73.5538 41.0885 72.2249 41.3127C72.0328 40.6241 71.9047 39.8395 71.8887 39.151C73.2336 38.9588 74.4024 39.2791 74.4985 39.8555H74.4825Z" fill="white"/>
<path d="M50.3864 43.6185C51.4751 50.2157 45.3589 50.5359 44.6224 44.5152C43.4696 38.5745 49.4097 36.9892 50.3864 43.6185Z" fill="#613182"/>
<path d="M47.1368 44.1149C47.2328 44.6914 46.2081 45.3479 44.8792 45.5721C44.6871 44.8835 44.559 44.0989 44.543 43.4104C45.8879 43.2182 47.0567 43.5385 47.1528 44.1149H47.1368Z" fill="white"/>
<path d="M67.1816 70.1033L71.9529 69.4468L74.963 91.0638L88.3803 89.2064L88.9406 93.2415L70.7681 95.7715L67.1977 70.1193L67.1816 70.1033Z" fill="white"/>
<path d="M63.3562 60.3036C65.966 58.8144 77.9103 57.9978 79.8956 59.535C81.881 61.0722 77.59 65.86 72.5466 66.4524C67.5031 67.0449 60.2661 62.081 63.3722 60.3036H63.3562Z" fill="#FFD441"/>
<path d="M41.4516 122.385C41.4516 122.385 41.3876 122.385 41.3555 122.385C40.9233 122.32 40.603 121.92 40.6671 121.488L41.6598 113.738C39.8985 111.016 33.0778 100.351 32.9658 97.9973C32.8537 95.5473 43.0367 76.3802 45.0701 72.5532C45.2783 72.1689 45.7586 72.0248 46.1589 72.2169C46.5431 72.4251 46.7032 72.9055 46.4951 73.3058C40.7151 84.1143 34.5829 96.412 34.5829 97.9172C34.6469 99.2943 39.066 106.772 43.1808 113.113L43.3409 113.353L42.2682 121.696C42.2201 122.096 41.8679 122.401 41.4676 122.401L41.4516 122.385Z" fill="#613182"/>
</g>
<defs>
<clipPath id="clip0_681_19891">
<rect width="116" height="142" fill="white"/>
</clipPath>
</defs>
</svg>
