<svg width="102" height="153" viewBox="0 0 102 153" fill="none" xmlns="http://www.w3.org/2000/svg">
<g clip-path="url(#clip0_681_19761)">
<path d="M70.1232 75.7352C69.8328 75.7352 69.5605 75.6078 69.3789 75.3528C69.0885 74.934 69.1974 74.3695 69.5968 74.0781L87.0234 61.8046C89.8189 59.8379 91.4163 56.8879 91.5252 53.4827L93.6491 39.3517L100.547 34.1073C100.946 33.7977 101.509 33.8888 101.818 34.2894C102.126 34.69 102.036 35.2545 101.636 35.5641L95.3191 40.3715L93.3223 53.6466C93.2134 57.4706 91.2892 61.0216 88.0581 63.2796L70.6315 75.5531C70.4681 75.6624 70.2866 75.717 70.105 75.717L70.1232 75.7352Z" fill="#613182"/>
<path d="M7.02437 141.892C7.02437 141.892 6.95176 141.892 6.91546 141.892C6.42533 141.837 6.06228 141.382 6.11674 140.872L7.78679 126.978L9.14824 129.345C9.29346 129.618 12.9785 135.846 19.2593 134.28C24.5054 132.969 26.9379 114.941 27.4462 108.113C27.4825 107.621 27.9181 107.238 28.4264 107.275C28.9347 107.311 29.2977 107.748 29.2614 108.258C29.0618 110.917 27.1557 134.207 19.7131 136.065C14.594 137.339 10.9091 134.317 9.02117 132.168L7.95016 141.109C7.8957 141.564 7.49634 141.91 7.04253 141.91L7.02437 141.892Z" fill="#613182"/>
<path d="M32.0767 153C31.6591 153 31.2961 152.727 31.1872 152.308L27.8652 138.705L29.9709 140.435C30.2069 140.635 35.8524 145.17 41.153 141.491C45.6367 138.396 42.696 118.911 41.1712 111.682C41.0622 111.19 41.389 110.698 41.8791 110.607C42.3692 110.498 42.8594 110.826 42.9501 111.317C43.531 114.104 48.4504 138.651 42.1877 143.003C37.8492 146.007 33.3292 144.478 30.806 143.13L32.948 151.889C33.0751 152.381 32.7665 152.873 32.2763 152.982C32.2037 152.982 32.1311 153 32.0585 153H32.0767Z" fill="#613182"/>
<path d="M11.9644 51.7685L3.75759 97.5238C2.97998 101.859 5.85308 106.006 10.1748 106.786L55.7862 115.019C60.108 115.799 64.2418 112.917 65.0194 108.581L73.2262 62.826C74.0038 58.4906 71.1307 54.3437 66.809 53.5637L21.1976 45.331C16.8758 44.551 12.742 47.4331 11.9644 51.7685Z" fill="#613182"/>
<path d="M57.0359 110.298C56.6183 110.298 56.2008 110.261 55.7833 110.188L21.2024 103.942C17.4267 103.269 14.9216 99.6267 15.5932 95.8572L21.8196 61.1673C22.1464 59.3281 23.1629 57.7438 24.6877 56.6876C26.2126 55.6315 28.046 55.2308 29.8794 55.5586L64.4603 61.8046C66.2937 62.1324 67.873 63.1522 68.9259 64.6818C69.9787 66.2114 70.3781 68.0506 70.0513 69.8898L63.825 104.58C63.4982 106.419 62.4817 108.003 60.9568 109.059C59.7769 109.879 58.4155 110.298 57.0177 110.298H57.0359ZM28.645 57.2521C27.6103 57.2521 26.5938 57.5617 25.7225 58.1808C24.597 58.9639 23.8527 60.1475 23.5986 61.4951L17.3722 96.185C16.8639 98.9711 18.7337 101.648 21.511 102.158L56.0919 108.404C57.4352 108.659 58.7967 108.349 59.9221 107.566C61.0476 106.783 61.7919 105.6 62.046 104.252L68.2724 69.5621C68.7806 66.7759 66.9109 64.0991 64.1336 63.5892L29.5527 57.3432C29.2441 57.2886 28.9355 57.2521 28.6269 57.2521H28.645Z" fill="#6553A3"/>
<path d="M44.3286 37.7857C44.619 57.5981 13.596 57.5981 13.9046 37.7857C13.6142 17.9733 44.6371 17.9733 44.3286 37.7857Z" fill="white"/>
<path d="M29.0985 53.5555C25.9762 53.5555 22.8721 52.7725 20.2037 51.2246C15.4477 48.4385 12.8881 43.6675 12.9789 37.7857C12.8881 31.9221 15.4658 27.1511 20.2037 24.365C25.5224 21.2511 32.6746 21.2511 37.9933 24.365C42.7312 27.1511 45.3088 31.9221 45.2181 37.8039C45.2907 43.6857 42.7312 48.4567 37.9933 51.2429C35.343 52.8089 32.2208 53.5737 29.0985 53.5737V53.5555ZM29.0985 23.8369C26.303 23.8369 23.5075 24.5289 21.1295 25.931C16.9725 28.3712 14.7216 32.5777 14.7942 37.7675C14.7216 42.9937 16.9725 47.2002 21.1295 49.6404C25.9036 52.4447 32.3115 52.4447 37.0857 49.6404C41.2426 47.2002 43.4936 42.9937 43.421 37.7857C43.4936 32.5594 41.2426 28.3529 37.0857 25.9128C34.7077 24.5106 31.9122 23.8187 29.1166 23.8187L29.0985 23.8369Z" fill="#6553A3"/>
<path d="M75.7153 37.7857C76.0057 57.5981 44.9828 57.5981 45.2913 37.7857C45.0009 17.9733 76.0239 17.9733 75.7153 37.7857Z" fill="white"/>
<path d="M60.5028 53.5555C57.3805 53.5555 54.2764 52.7725 51.608 51.2246C46.852 48.4385 44.2924 43.6675 44.3832 37.7857C44.2924 31.9221 46.8701 27.1511 51.608 24.365C56.9267 21.2511 64.0789 21.2511 69.3976 24.365C74.1355 27.1511 76.7131 31.9221 76.6224 37.8039C76.695 43.6857 74.1355 48.4567 69.3976 51.2429C66.7473 52.7907 63.6251 53.5737 60.5028 53.5737V53.5555ZM60.5028 23.8369C57.7073 23.8369 54.9118 24.5289 52.5338 25.931C48.3768 28.3712 46.1259 32.5777 46.1985 37.7675C46.1259 42.9937 48.3768 47.2002 52.5338 49.6404C57.3079 52.4265 63.7158 52.4265 68.49 49.6404C72.6469 47.2002 74.8979 42.9937 74.8253 37.7857C74.8979 32.5594 72.6469 28.3529 68.49 25.9128C66.112 24.5106 63.3165 23.8187 60.5209 23.8187L60.5028 23.8369Z" fill="#6553A3"/>
<path d="M33.364 38.8601C32.9646 38.8601 32.6015 38.6052 32.4926 38.1863C31.0586 33.0147 29.679 32.5777 29.2796 32.5595C27.9363 32.5048 25.9758 35.9283 25.1408 38.2592C24.9774 38.7326 24.451 38.9694 23.979 38.8055C23.507 38.6416 23.2711 38.1135 23.4344 37.64C23.8519 36.4746 26.1392 30.6656 29.3522 30.7385C31.3853 30.8113 32.9283 33.0329 34.2353 37.6947C34.3624 38.1863 34.0901 38.678 33.5999 38.8237C33.5273 38.8419 33.4366 38.8601 33.3458 38.8601H33.364Z" fill="#613182"/>
<path d="M56.9629 38.86C56.8721 38.86 56.7632 38.86 56.6724 38.8054C56.2005 38.6415 55.9463 38.1317 56.0916 37.6582C57.5982 33.1421 59.3046 30.9387 61.3377 30.9387C64.5144 30.9387 66.5294 36.5474 66.8924 37.6582C67.0558 38.1317 66.7835 38.6415 66.3115 38.8054C65.8395 38.9693 65.3313 38.6962 65.1679 38.2227C64.4418 36.0193 62.7173 32.7415 61.3377 32.7415C60.8294 32.7415 59.468 33.2696 57.8161 38.2227C57.689 38.6051 57.3259 38.8418 56.9629 38.8418V38.86Z" fill="#613182"/>
<path d="M36.1604 66.0839L41.5336 67.049L37.1588 91.4867L52.2619 94.2L51.445 98.7525L30.9688 95.0741L36.1604 66.0839Z" fill="white"/>
<path d="M15.1567 75.4984C14.8662 75.4984 14.5758 75.3527 14.3943 75.0978L1.74184 55.9409C-0.146041 53.082 -0.509095 49.6585 0.743441 46.5628L6.06218 33.4152L2.61317 26.2951C2.39534 25.8399 2.57686 25.2936 3.03068 25.0751C3.4845 24.8566 4.02908 25.0387 4.24691 25.4939L8.05898 33.3424L2.43164 47.2366C1.41509 49.7678 1.70553 52.5721 3.26667 54.9212L15.9372 74.0781C16.2095 74.4969 16.1006 75.0614 15.6831 75.3345C15.5379 75.4438 15.3564 75.4802 15.1748 75.4802L15.1567 75.4984Z" fill="#613182"/>
<path d="M57.3808 11.3994L53.0786 12.9108L51.4267 17.3722L49.8656 13.0019L45.4727 11.3994L49.9201 9.74227L51.4267 5.42651L53.0242 9.83332L57.3808 11.3994Z" fill="#613182"/>
<path d="M74.1362 3.40526L71.6856 4.26113L70.7416 6.81052L69.8703 4.31576L67.3652 3.40526L69.8885 2.45834L70.7416 0L71.6674 2.51297L74.1362 3.40526Z" fill="#613182"/>
<path d="M87.7323 30.9569L84.6463 22.2707L75.9512 19.084L84.7189 15.8244L87.7504 7.17468L90.9453 15.9701L99.6767 19.1022L91.0179 22.1433L87.7504 30.9569H87.7323ZM81.1973 19.084L86.0622 20.8686L87.7686 25.6396L89.602 20.7047L94.2128 19.084L89.5112 17.4087L87.7686 12.6012L86.1348 17.263L81.1973 19.1022V19.084Z" fill="#613182"/>
<path d="M22.11 56.1777L60.7389 57.2521C61.2653 57.2521 61.6284 57.9259 61.3924 58.4539C60.1399 61.2401 50.1559 67.3222 44.5649 67.9413C34.4901 69.0521 28.4997 61.6225 21.8195 57.7073C21.1479 57.3067 21.3476 56.1595 22.0918 56.1777H22.11Z" fill="#FFD441"/>
</g>
<defs>
<clipPath id="clip0_681_19761">
<rect width="102" height="153" fill="white"/>
</clipPath>
</defs>
</svg>
