<svg width="197" height="168" viewBox="0 0 197 168" fill="none" xmlns="http://www.w3.org/2000/svg">
<g clip-path="url(#clip0_2477_19862)">
<path d="M146.454 59.5155L143.375 50.9268L134.699 47.7757L143.447 44.5527L146.472 36L149.66 44.6968L158.372 47.7938L149.732 50.8007L146.472 59.5155H146.454ZM139.934 47.7757L144.788 49.5403L146.49 54.2578L148.32 49.3783L152.92 47.7757L148.229 46.1192L146.49 41.3657L144.86 45.9752L139.934 47.7938V47.7757Z" fill="#613182"/>
<path d="M113.299 95.6812L112.799 141.647C112.751 146.002 116.264 149.571 120.646 149.619L166.883 150.116C171.264 150.163 174.854 146.671 174.902 142.315L175.402 96.3493C175.449 91.994 171.936 88.4251 167.555 88.3779L121.318 87.8805C116.937 87.8334 113.347 91.3259 113.299 95.6812Z" fill="#613182"/>
<path d="M166.16 145.385H166.087L131.04 145.007C129.193 144.989 127.454 144.25 126.168 142.936C124.882 141.622 124.176 139.893 124.194 138.038L124.574 103.197C124.61 99.3982 127.689 96.4092 131.583 96.3912L166.63 96.7694C170.452 96.8054 173.531 99.9384 173.477 103.738L173.097 138.579C173.06 142.342 169.963 145.385 166.178 145.385H166.16ZM166.105 143.584H166.16C168.949 143.584 171.249 141.334 171.267 138.561L171.648 103.72C171.684 100.911 169.402 98.6059 166.594 98.5879L131.547 98.2098C128.704 98.1378 126.403 100.443 126.385 103.233L126.005 138.074C125.969 140.883 128.251 143.188 131.058 143.206L166.105 143.584Z" fill="#6553A3"/>
<path d="M144.098 74.7123C144.171 94.3026 113.235 93.9604 113.742 74.3882C113.67 54.798 144.606 55.1401 144.098 74.7123Z" fill="white"/>
<path d="M128.957 90.1432C125.788 90.1432 122.6 89.3329 119.901 87.7304C115.192 84.9215 112.675 80.186 112.838 74.3522C112.819 68.5543 115.428 63.8548 120.191 61.154C125.534 58.129 132.652 58.201 137.941 61.352C142.65 64.1429 145.15 68.8964 145.005 74.7123C145.005 80.5281 142.415 85.2096 137.651 87.9105C135.043 89.387 132 90.1252 128.957 90.1252V90.1432ZM128.885 60.7578C126.15 60.7578 123.433 61.4241 121.079 62.7385C116.895 65.0972 114.613 69.2385 114.631 74.3882C114.504 79.5558 116.695 83.7512 120.825 86.1999C125.552 89.0088 131.946 89.0809 136.746 86.38C140.929 84.0213 143.212 79.8799 143.194 74.7303C143.32 69.5627 141.129 65.3853 136.999 62.9185C134.59 61.4781 131.729 60.7578 128.885 60.7578Z" fill="#6553A3"/>
<path d="M175.432 75.0544C175.505 94.6446 144.569 94.3025 145.076 74.7303C145.004 55.14 175.94 55.4821 175.432 75.0544Z" fill="white"/>
<path d="M160.272 90.4853C157.102 90.4853 153.914 89.675 151.216 88.0725C146.507 85.2636 143.989 80.5281 144.152 74.6943C144.134 68.8964 146.742 64.1969 151.506 61.5141C156.849 58.4891 163.985 58.5611 169.255 61.7121C173.965 64.521 176.464 69.2565 176.319 75.0724C176.319 80.8883 173.729 85.5697 168.966 88.2706C166.357 89.7471 163.315 90.4853 160.272 90.4853ZM160.217 61.1C157.483 61.1 154.766 61.7662 152.411 63.0806C148.227 65.4393 145.945 69.5807 145.963 74.7303C145.836 79.8979 148.028 84.0933 152.158 86.542C156.885 89.3509 163.278 89.423 168.078 86.7221C172.262 84.3634 174.544 80.222 174.526 75.0724C174.653 69.9048 172.461 65.7274 168.332 63.2606C165.923 61.8202 163.061 61.1 160.217 61.1Z" fill="#6553A3"/>
<path d="M139.462 105.628L144.896 105.682L144.642 130.224L159.965 130.386L159.911 134.96L139.154 134.743L139.462 105.628Z" fill="white"/>
<path d="M133.938 95.491C133.938 95.491 141.382 104.998 156.541 96.0131L133.938 95.491Z" fill="#FFD441"/>
<path d="M136.473 77.2692C136.219 77.2692 135.966 77.1611 135.785 76.9631C129.717 70.0849 121.367 76.783 121.023 77.0711C120.643 77.3952 120.063 77.3412 119.755 76.9451C119.429 76.567 119.484 75.9908 119.882 75.6847C119.991 75.5946 129.935 67.5821 137.161 75.7927C137.487 76.1708 137.451 76.729 137.071 77.0711C136.908 77.2152 136.69 77.2872 136.473 77.2872V77.2692Z" fill="#613182"/>
<path d="M168.514 77.2692C168.26 77.2692 168.007 77.1611 167.826 76.9631C161.758 70.0669 153.408 76.783 153.064 77.0711C152.684 77.3952 152.104 77.3412 151.797 76.9451C151.47 76.567 151.525 75.9908 151.923 75.6847C152.032 75.5946 161.976 67.5821 169.202 75.7927C169.528 76.1708 169.492 76.729 169.112 77.0711C168.949 77.2152 168.731 77.2872 168.514 77.2872V77.2692Z" fill="#613182"/>
<path d="M95.9568 106.744C95.6308 106.744 95.3048 106.726 94.9969 106.672C94.0732 106.546 93.3487 106.024 92.8959 105.196C90.1247 100.118 98.4382 81.3924 100.412 77.089L93.6385 72.1014C93.24 71.8134 93.1494 71.2372 93.4573 70.8411C93.7471 70.4449 94.3267 70.3549 94.7252 70.661L102.695 76.5129L102.387 77.1791C98.1484 86.1639 92.5698 100.821 94.4897 104.332C94.6709 104.674 94.9063 104.836 95.2686 104.89C100.467 105.628 111.569 97.9217 115.409 94.8787C115.808 94.5726 116.369 94.6266 116.677 95.0227C116.985 95.4189 116.931 95.977 116.532 96.2831C115.971 96.7333 103.238 106.726 95.9749 106.726L95.9568 106.744Z" fill="#613182"/>
<path d="M192.712 106.745C185.449 106.745 172.717 96.7514 172.155 96.3012C171.757 95.9951 171.702 95.419 172.01 95.0408C172.318 94.6447 172.898 94.5907 173.278 94.8968C177.118 97.9217 188.202 105.628 193.419 104.908C193.781 104.854 194.016 104.692 194.198 104.35C196.117 100.839 190.539 86.182 186.319 77.1791L186.011 76.5129L193.98 70.6611C194.379 70.373 194.958 70.445 195.248 70.8411C195.538 71.2373 195.465 71.8134 195.067 72.1015L188.293 77.0891C190.267 81.3925 198.581 100.118 195.81 105.196C195.357 106.024 194.632 106.546 193.69 106.673C193.383 106.709 193.057 106.745 192.731 106.745H192.712Z" fill="#613182"/>
<path d="M110.626 168C110.029 168 109.558 167.928 109.214 167.766C108.598 167.478 108.362 167.01 108.272 166.668C107.964 165.461 108.96 160.456 134.535 146.843C134.969 146.609 135.531 146.771 135.766 147.221C136.002 147.654 135.839 148.212 135.386 148.446C119.121 157.089 109.558 164.417 110.011 166.235C112.003 167.622 132.126 159.681 149.586 151.489L150.02 151.273L162.445 158.817C162.88 159.069 163.007 159.627 162.753 160.059C162.5 160.492 161.938 160.618 161.504 160.366L149.912 153.325C143.482 156.332 117.998 168.018 110.59 168.018L110.626 168Z" fill="#613182"/>
<path d="M175.415 168C167.971 168 142.379 156.296 135.949 153.307L123.578 160.366C123.144 160.618 122.582 160.456 122.347 160.023C122.093 159.591 122.256 159.051 122.691 158.799L135.877 151.273L136.311 151.471C153.844 159.663 174.039 167.604 176.104 166.109C176.611 163.949 162.918 155.18 149.769 148.428C149.316 148.194 149.153 147.654 149.388 147.221C149.624 146.771 150.167 146.609 150.602 146.843C177.045 160.438 178.114 165.461 177.806 166.668C177.716 167.01 177.48 167.478 176.864 167.766C176.52 167.928 176.031 168 175.434 168H175.415Z" fill="#613182"/>
</g>
<path d="M71.41 110.017C71.5996 109.927 71.7324 109.732 71.7371 109.505L72.2728 84.5462C72.287 83.9631 72.0689 83.4084 71.666 82.9865C71.2631 82.5646 70.7179 82.3276 70.1348 82.3134L58.5444 82.0669L54.169 86.2622L40.6586 85.973C40.0756 85.9588 39.5209 86.1721 39.099 86.5798C38.6771 86.9828 38.4401 87.5279 38.4259 88.111L38.2315 97.2032C38.222 97.5255 38.478 97.791 38.8004 97.7957C39.118 97.8052 39.3882 97.5492 39.3929 97.2269L39.5873 88.1347C39.592 87.8597 39.7058 87.6085 39.9002 87.4189C40.0945 87.2293 40.3553 87.1297 40.6302 87.1344L54.6193 87.4331L58.9948 83.2378L70.1017 83.4748C70.3766 83.4796 70.6278 83.5933 70.8175 83.7924C71.0071 83.9915 71.1066 84.2475 71.1019 84.5225L70.5662 109.481C70.5567 109.803 70.8127 110.069 71.1351 110.074C71.2299 110.074 71.32 110.055 71.4053 110.017H71.41Z" fill="#612A7A"/>
<path d="M42.4979 110.282L69.5849 110.86C70.6563 110.884 71.4242 109.836 71.0782 108.822L65.5792 92.6333C65.3706 92.0171 64.8018 91.5999 64.1523 91.5857L37.0653 91.0074C35.994 90.9837 35.226 92.0313 35.5721 93.0458L41.071 109.234C41.2796 109.851 41.8485 110.268 42.4979 110.282Z" fill="#612A7A"/>
<path d="M55.9082 66.0915L56.9748 64.8732C59.5394 61.9436 70.907 65.7644 75.0644 67.4852L75.4578 67.6464L75.638 67.2624C83.0473 51.6568 71.6038 36.8524 71.4901 36.7054L71.3668 36.549L71.1677 36.5348L45.2658 34.6433L46.0148 35.4729C58.7382 49.5331 56.2211 64.3518 56.1926 64.4987L55.9034 66.0915H55.9082ZM65.5645 63.5506C62.3315 62.8538 59.089 62.5788 57.2071 63.5791C57.5247 59.9289 57.6953 47.618 47.4133 35.6957L70.9023 37.4117C72.0684 38.9951 81.4261 52.3821 75.0075 66.4945C73.7181 65.9825 69.646 64.4276 65.5598 63.5459L65.5645 63.5506Z" fill="#612A7A"/>
<path d="M57.6482 43.9914C57.6861 44.0009 57.7288 44.0056 57.7667 44.0104C58.2028 44.0673 58.6295 43.9251 58.9092 43.6264C58.9613 43.707 59.0277 43.7876 59.1177 43.8587C59.6487 44.2948 60.2223 43.9156 60.5257 43.7165C60.6347 43.6454 60.8101 43.5269 60.8765 43.5221C60.8765 43.5316 60.957 43.6217 61.0092 43.6833C61.1798 43.8824 61.5022 44.2474 62.0094 44.1526C62.4171 44.072 62.602 43.7497 62.7158 43.5553C62.7442 43.5032 62.7916 43.4273 62.8153 43.4036C62.839 43.3941 62.967 43.3846 63.1234 43.4558C63.2135 43.4937 63.2988 43.5458 63.3842 43.5932C63.5785 43.7023 63.7918 43.8208 64.0526 43.8871C64.574 44.0104 65.1192 43.854 65.5174 43.5126L66.0483 44.1716C66.1289 44.2711 66.3185 44.4892 66.6314 44.5366C67.1386 44.5935 67.3804 44.1621 67.4799 43.9772C67.5889 43.7923 67.7975 43.7165 68.0108 43.7307C68.2953 43.7497 68.6034 43.8919 68.8973 44.0293L69.3571 44.2427L69.8407 43.2993L70.2815 43.5126L70.7461 42.5645L69.3714 41.8961L68.8736 42.8679C68.6318 42.7731 68.3664 42.6973 68.082 42.6783C67.5131 42.6404 66.9774 42.8679 66.6788 43.2709L65.2851 41.5311L64.9864 42.4792C64.9058 42.7399 64.5835 42.9201 64.318 42.8632H64.3038C64.1806 42.83 64.0431 42.7542 63.8961 42.6688C63.7824 42.6025 63.6686 42.5408 63.5501 42.4887C63.0002 42.2422 62.4408 42.2991 62.09 42.6309C61.962 42.7494 61.8814 42.8869 61.8151 43.0007C61.8151 42.9959 61.8056 42.9912 61.8008 42.9864C61.6586 42.8253 61.469 42.6025 61.1704 42.5124C60.6537 42.3417 60.246 42.6309 59.9426 42.8348C59.8857 42.8727 59.8051 42.9248 59.7435 42.9627C59.7435 42.958 59.734 42.9485 59.734 42.9438C59.6392 42.7731 59.4401 42.4271 59.0135 42.3892C58.5821 42.356 58.3356 42.6688 58.2028 42.8348C58.1033 42.9533 58.0085 42.977 57.9089 42.9675C57.8236 42.958 57.7288 42.9106 57.6956 42.849L56.7523 43.3183C56.9229 43.6643 57.2547 43.9108 57.6529 43.9962L57.6482 43.9914Z" fill="#612A7A"/>
<path d="M64.2137 48.5756C64.6545 48.3385 64.7494 48.4002 64.7494 48.4002C64.7873 48.4239 64.8205 48.457 64.8536 48.4855C65.0196 48.6324 65.4178 48.9785 65.8918 48.7178C66.0672 48.6182 66.162 48.476 66.2189 48.3765C66.2473 48.3859 66.2853 48.3954 66.3232 48.4144C66.6408 48.5708 67.0153 48.7557 67.4372 48.6087C67.6505 48.5376 67.7927 48.4049 67.9018 48.3053C67.9349 48.2769 67.9871 48.2295 68.006 48.2153C67.9634 48.2437 68.0772 48.367 68.153 48.4476C68.3853 48.6988 68.7408 49.0733 69.267 49.0164C69.7411 48.9643 69.9876 48.604 70.1487 48.367C70.2151 48.2722 70.291 48.1631 70.3384 48.1299C70.4 48.092 70.5754 48.1062 70.8077 48.2248L71.0068 48.329C71.2722 48.476 71.5756 48.6419 71.9501 48.6798L72.0449 47.6275C71.8885 47.6227 71.7083 47.5137 71.514 47.4047L71.2817 47.2814C70.7081 46.9922 70.1677 46.9828 69.76 47.2482C69.5372 47.3952 69.395 47.6038 69.2765 47.7697C69.2243 47.8455 69.1485 47.9546 69.1106 47.9783C69.1248 47.9498 68.9968 47.8123 68.921 47.727C68.6839 47.4758 68.2952 47.0491 67.7216 47.2008C67.4751 47.2624 67.3092 47.4141 67.1859 47.5232C67.1528 47.5564 67.1006 47.6038 67.0817 47.6132C67.0674 47.6038 66.9347 47.5374 66.8541 47.4947C66.2568 47.2103 65.7496 47.2672 65.4557 47.6085C65.4178 47.5753 65.3798 47.5469 65.3419 47.5232C64.7256 47.0965 63.9861 47.4947 63.7112 47.6417L64.2137 48.5708V48.5756Z" fill="#612A7A"/>
<path d="M61.1416 59.0377C61.3786 58.9144 61.5872 58.7438 61.7483 58.5352C61.7578 58.5447 61.772 58.5589 61.7815 58.5684C62.1845 58.9476 62.8434 59.0045 63.308 58.7011C63.4028 58.6395 63.4834 58.5636 63.5687 58.4878C63.6066 58.4499 63.6445 58.4167 63.6872 58.3882C63.8626 58.2697 64.2466 58.4451 64.5263 58.6774C64.8107 58.9144 65.1141 59.1799 65.5455 59.2131C65.6687 59.2225 65.8014 59.2131 65.9342 59.1988C66.0005 59.1941 66.0953 59.1846 66.1285 59.1894C66.0859 59.2036 66.0242 59.1514 65.9816 59.0756L66.8965 58.5494C66.6215 58.0706 66.0906 58.1228 65.8346 58.1512C65.7683 58.1559 65.6971 58.1654 65.6355 58.1607C65.5407 58.1465 65.3985 58.028 65.2705 57.9189C64.4836 57.2647 63.6825 57.132 63.1089 57.5112C63.014 57.5729 62.9335 57.644 62.8529 57.7198C62.8149 57.753 62.777 57.7909 62.7344 57.8194C62.6775 57.8573 62.5637 57.8478 62.5116 57.8004C62.4736 57.7672 62.4452 57.7293 62.412 57.6866C62.2556 57.5065 61.9664 57.1699 61.5018 57.2316L61.1605 57.279L61.0657 57.6108C61.0088 57.8194 60.8571 57.9995 60.6675 58.0991L61.151 59.0377H61.1416Z" fill="#612A7A"/>
<path d="M11.144 41.2894L33.3436 34.648L33.3863 34.3683C36.1642 16.7575 12.7653 0.777436 11.7698 0.10429L11.6133 0L-26.6659 8.11567L-23.8832 8.41906C-0.806667 10.9315 10.8786 40.6021 10.9923 40.9007L11.1393 41.2894H11.144ZM32.5425 33.9512L11.675 40.1991C10.2718 36.8192 -0.550682 12.3726 -20.764 8.02086C-20.9536 7.9782 -21.1385 7.94027 -21.3281 7.90235L11.4237 0.957573C13.4669 2.38445 34.8321 17.7341 32.5425 33.9512Z" fill="#612A7A"/>
<path d="M-4.25695 12.823C-2.83955 13.1264 -2.16166 12.6476 -1.50274 12.183C-0.88174 11.7469 -0.241776 11.2918 1.26095 11.2112C1.5359 11.197 1.77292 11.1069 1.98624 11.0263C2.16164 10.96 2.32281 10.8983 2.43184 10.9173C2.69257 10.9695 2.91537 11.0169 3.16662 10.9363C3.54585 10.8178 3.72125 10.5049 3.83502 10.301C3.86346 10.2536 3.88716 10.2062 3.9156 10.1636C4.08626 9.91707 4.47498 9.85544 4.76415 9.90285C5.17183 9.96922 5.57951 10.2205 5.97297 10.4575L6.69351 10.8983L6.77411 10.0593C6.82151 9.55206 6.8784 8.97372 7.14386 8.56604C7.33348 8.27213 7.75064 8.05407 8.02084 8.1868C8.2152 8.30057 8.37638 8.39064 8.57548 8.42383C9.31973 8.5376 9.67527 7.82653 9.86963 7.44255L9.94073 7.30034C10.1398 6.9211 10.5807 6.65563 11.0073 6.65563C11.4435 6.65563 11.8748 6.91162 12.0739 7.2956L13.0078 6.79785C12.6191 6.06782 11.8274 5.59851 11.0026 5.59851C10.1778 5.59851 9.39084 6.07256 9.00212 6.80733L8.91679 6.97324C8.85991 7.08702 8.76036 7.28611 8.68925 7.3667C8.68451 7.35248 8.66081 7.33826 8.63711 7.32878C8.5897 7.30034 8.5423 7.27189 8.49015 7.24819C7.67005 6.84051 6.70774 7.2956 6.25266 7.9877C6.01089 8.35746 5.88764 8.76514 5.81653 9.16334C5.54633 9.0306 5.25242 8.93106 4.93481 8.86469C4.16685 8.73196 3.41786 9.01164 3.03862 9.56628C2.99596 9.63264 2.95329 9.70375 2.91063 9.7796C2.88219 9.827 2.84426 9.89337 2.82056 9.93129C2.82056 9.91707 2.77789 9.90759 2.73997 9.89811L2.58828 9.86967C2.20904 9.80804 1.87247 9.93129 1.607 10.0356C1.45531 10.0925 1.31309 10.1446 1.19932 10.1541C-0.611535 10.2489 -1.44586 10.8415 -2.119 11.3155C-2.75896 11.7659 -3.15242 12.0266 -4.30435 11.7184L-4.58878 12.7329C-4.47501 12.7661 -4.37072 12.7898 -4.26169 12.8135L-4.25695 12.823Z" fill="#612A7A"/>
<path d="M13.9697 13.3444C14.0693 13.2591 14.2352 13.2307 14.3537 13.2828C14.4817 13.3349 14.6997 13.4298 14.9605 13.3492C15.2496 13.2496 15.3682 13.0126 15.4108 12.9273L15.4772 12.7945C15.5862 12.5622 15.7142 12.3063 15.8517 12.2541C15.956 12.2162 16.1598 12.2589 16.3589 12.3015C16.7334 12.3821 17.2454 12.4864 17.691 12.1356C17.9185 11.9555 18.0276 11.7279 18.1129 11.5383L18.3546 11.6663L18.8477 10.7324L18.3404 10.4622C18.2741 10.429 18.0987 10.3342 17.8759 10.3674C17.7005 10.3911 17.5535 10.4812 17.4303 10.6329C17.3023 10.7846 17.2264 10.9552 17.1648 11.088C17.1269 11.1686 17.0747 11.2823 17.0415 11.3108C16.9894 11.3534 16.7476 11.3013 16.5817 11.2681C16.2736 11.2017 15.8849 11.1211 15.5009 11.2634C14.9984 11.4435 14.7519 11.8938 14.5765 12.2541C14.1025 12.1356 13.6379 12.2541 13.2966 12.5433L13.9792 13.3492L13.9697 13.3444Z" fill="#612A7A"/>
<path d="M1.34098 17.5492C1.41208 17.3217 1.49267 17.0847 1.61592 16.933C1.70125 16.8239 1.8008 16.8002 1.86717 16.786C1.90983 16.7955 1.98568 16.8382 2.06153 16.8761C2.15634 16.9282 2.25115 16.9804 2.3507 17.0183C2.80104 17.1937 3.37937 17.0752 3.58321 16.5822C3.60692 16.53 3.62114 16.4779 3.63062 16.4305C3.67329 16.44 3.75387 16.4589 3.8155 16.4921C4.69248 16.9188 5.22816 16.6485 5.44622 16.2551C5.54103 16.0892 5.55998 15.928 5.57421 15.8095C5.60739 15.6151 5.73538 15.4966 5.86337 15.4824C6.00085 15.4682 6.18573 15.5345 6.38483 15.6009C6.47964 15.6341 6.56971 15.6673 6.65978 15.6957C7.30922 15.8853 7.8923 15.7431 8.20043 15.3165C8.24783 15.2548 8.28101 15.1885 8.31894 15.1174C8.31894 15.0984 8.47063 15.1316 8.68395 15.2738L9.28125 14.4016C8.59388 13.9275 7.94918 13.9133 7.56046 14.3589C7.47513 14.4537 7.42299 14.558 7.38507 14.6338C7.32344 14.7192 7.17648 14.7429 6.9679 14.6813C6.89206 14.6575 6.81621 14.6338 6.74036 14.6054C6.45119 14.5059 6.1241 14.3873 5.74486 14.4347C5.16179 14.5011 4.65456 14.9752 4.55027 15.5535L4.53605 15.6388C4.47442 15.6246 4.3891 15.5962 4.28481 15.544C3.97668 15.3923 3.50262 15.2833 3.12339 15.4445C2.89111 15.544 2.72045 15.7289 2.6446 15.9659C2.6446 15.9754 2.64461 15.9801 2.63987 15.9849C2.61616 15.9754 2.59246 15.9612 2.5735 15.947C2.44077 15.8711 2.27485 15.781 2.06627 15.7431C1.61118 15.6578 1.12292 15.8569 0.795827 16.2693C0.549323 16.5727 0.435549 16.933 0.340739 17.2221L1.34572 17.5445L1.34098 17.5492Z" fill="#612A7A"/>
<path d="M16.7906 18.8955L18.3502 18.0659C18.6821 17.8905 18.976 17.7483 19.2177 17.7767C19.4026 17.8052 19.6254 17.8384 19.8577 17.7341C20.2085 17.5824 20.3175 17.2411 20.3744 17.0562C20.3886 17.0183 20.3981 16.9803 20.4123 16.9424C20.436 16.895 20.5261 16.8334 20.6588 16.8192C20.8342 16.8002 21.0523 16.8429 21.2798 16.8998C21.4126 16.9377 21.7017 17.004 21.9814 16.8523C22.1047 16.786 22.1853 16.6959 22.2327 16.6438L23.1191 16.0939C22.9722 15.8284 22.683 15.6293 22.3749 15.6009C22.0573 15.5535 21.7397 15.653 21.5216 15.8616L21.5121 15.8711C21.1661 15.7952 20.8579 15.7336 20.5308 15.7715C20.0426 15.8284 19.6396 16.1034 19.4548 16.5016C19.4216 16.5774 19.3931 16.6627 19.3647 16.7433C19.3647 16.7481 19.3647 16.7528 19.36 16.7623C18.7153 16.677 18.2175 16.9424 17.8525 17.1368L16.2976 17.9664L16.7906 18.9002V18.8955Z" fill="#612A7A"/>
<path d="M9.07237 21.7113C9.51797 21.8061 9.96358 21.5738 10.2385 21.2609C10.3476 21.1377 10.4376 21.0002 10.5277 20.858C10.5893 20.7584 10.6509 20.6589 10.7315 20.5736C10.7932 20.5072 10.8595 20.474 10.888 20.474C10.8737 20.474 10.9117 20.5262 10.9401 20.5546C11.0491 20.6779 11.2198 20.8627 11.49 20.9386C11.7744 21.0144 12.2959 21.0192 12.7604 20.218L13.3103 19.2699C13.7038 19.341 14.083 19.4548 14.448 19.597L14.832 18.611C14.2821 18.3977 13.6991 18.246 13.1112 18.1607L12.7557 18.1085L11.8455 19.6871C11.8029 19.7629 11.7649 19.8151 11.7318 19.853C11.7318 19.853 11.727 19.8483 11.7223 19.8435C11.637 19.7487 11.5232 19.6207 11.3525 19.5307C10.9211 19.3031 10.3428 19.4311 9.94935 19.8578C9.83084 19.9905 9.73129 20.1374 9.63648 20.2891C9.57486 20.3839 9.51797 20.4788 9.44212 20.5641C9.37576 20.6399 9.29991 20.6731 9.27146 20.6778L8.85431 21.6449C8.92542 21.6781 8.99178 21.7018 9.06288 21.716L9.07237 21.7113Z" fill="#612A7A"/>
<path d="M4.34995 22.4129L5.32174 22.0005C5.37389 22.119 5.35967 22.2612 5.28382 22.3608C5.21746 22.4509 5.13686 22.4556 5.08472 22.4509L5.19375 22.484C5.2933 22.5172 5.43077 22.5694 5.59669 22.5741C6.00911 22.5978 6.32672 22.3561 6.53056 22.1759C6.66803 22.0527 6.77233 21.9579 6.82921 21.9436C6.70122 21.8915 6.66329 21.8156 6.65855 21.7445L7.71094 21.6687C7.69198 21.4317 7.56872 21.2136 7.36962 21.0714C7.14208 20.9055 6.84343 20.8486 6.56848 20.9197C6.25561 21.0003 6.04229 21.1946 5.87164 21.3511C5.70098 21.5075 5.64884 21.5217 5.63936 21.5217C5.63462 21.5217 5.58247 21.5028 5.54929 21.4886C5.45448 21.4554 5.34071 21.4127 5.19375 21.3985C4.90933 21.37 4.61067 21.498 4.44001 21.7303C4.29306 21.9342 4.25988 22.1854 4.35469 22.4129H4.34995Z" fill="#612A7A"/>
<path d="M21.7777 22.8158C21.8962 22.8395 22.0194 22.8442 22.1474 22.8158C22.5361 22.7399 22.8917 22.4366 23.0339 22.0573C23.1145 21.8345 23.1382 21.6165 23.1619 21.4268C23.1714 21.3273 23.1808 21.2325 23.1998 21.1471L24.7167 21.4979C24.7167 21.4979 24.7594 21.5074 24.7784 21.5122C25.9208 21.7587 26.3095 21.2135 26.4281 20.9623C26.5039 20.8011 26.5229 20.6447 26.5371 20.5261C26.5418 20.4835 26.5513 20.4219 26.556 20.4029C26.5086 20.5167 26.4233 20.5356 26.3664 20.5356C26.229 20.5404 26.0915 20.4598 26.0251 20.3365L26.959 19.8388C26.831 19.6018 26.5845 19.469 26.3143 19.4785C26.0014 19.4927 25.698 19.7108 25.5795 20C25.5226 20.1422 25.5037 20.2796 25.4894 20.3887C25.4847 20.4313 25.4752 20.4882 25.4705 20.5072C25.4705 20.5072 25.2714 20.5261 24.9585 20.4598L23.4036 20.0948C23.2425 20.0568 22.9296 19.9857 22.6262 20.1659C22.4603 20.2654 22.337 20.4219 22.2517 20.6352C22.1616 20.8675 22.1332 21.095 22.1142 21.2988C22.1 21.4411 22.0858 21.5785 22.0479 21.6781C22.0336 21.7113 21.9815 21.7587 21.9531 21.7681C21.9862 21.7587 22.0668 21.7729 22.1142 21.8298L21.3321 22.5361C21.4553 22.6736 21.6117 22.7636 21.7824 22.7968L21.7777 22.8158Z" fill="#612A7A"/>
<path d="M8.42395 27.7459C8.57091 27.5942 8.77474 27.4947 8.98332 27.4662C9.1919 27.4425 9.41945 27.4236 9.62803 27.2624C9.88875 27.0585 9.95986 26.7646 9.99778 26.5513C10.1163 26.6035 10.2917 26.6272 10.4813 26.5703C10.9838 26.4186 11.0454 25.9303 11.0786 25.698C11.0881 25.6411 11.0976 25.5558 11.1071 25.5274C11.1165 25.5274 11.235 25.5274 11.401 25.5606C11.4294 25.5653 11.4578 25.5748 11.4863 25.5843C11.9414 25.7217 12.5339 25.8971 13.0364 25.5369C13.3635 25.2998 13.482 24.9443 13.5816 24.6599C13.6195 24.5556 13.6764 24.3802 13.7143 24.3423C13.738 24.347 13.8897 24.4039 13.9466 24.4228L15.1696 24.8637C15.3829 24.9396 15.7432 25.0723 16.1225 24.9301C16.5017 24.7926 16.6771 24.475 16.8098 24.2474C16.843 24.1906 16.8762 24.1337 16.9094 24.0815C17.0326 23.9061 17.2649 23.854 17.4403 23.8635C17.6157 23.8682 17.848 23.9441 17.9523 24.1242L18.8672 23.5933C18.597 23.124 18.0803 22.8253 17.483 22.8063C16.8904 22.7826 16.35 23.0339 16.0419 23.4795C15.9897 23.5553 15.9376 23.6407 15.8902 23.726C15.8475 23.8018 15.7811 23.9204 15.748 23.9441C15.7337 23.9251 15.5726 23.8872 15.5252 23.8682L14.2974 23.4273C14.0841 23.3515 13.7285 23.2235 13.3493 23.3562C12.8468 23.5316 12.6856 24.0104 12.5766 24.3233C12.5339 24.4513 12.4676 24.6456 12.4107 24.6836C12.3348 24.7357 12.0172 24.6456 11.8466 24.5935C11.0359 24.3517 10.3818 24.5556 10.14 25.096C10.0831 25.224 10.0547 25.3567 10.0357 25.4705C9.90297 25.442 9.75128 25.4183 9.5901 25.461C9.08761 25.5937 9.00229 26.0773 8.95963 26.3095C8.95489 26.338 8.95014 26.3759 8.94066 26.4044L8.84585 26.4138C8.40025 26.466 7.97835 26.6746 7.66074 27.0017L8.41447 27.7412L8.42395 27.7459Z" fill="#612A7A"/>
<path d="M18.6766 30.2394C18.743 30.1256 18.8757 30.0355 19.0321 30.0023C19.1886 29.9692 19.345 29.9929 19.454 30.0687L20.0181 30.4622L20.2504 29.8127C20.3168 29.6231 20.4922 29.4572 20.7103 29.3719C20.9331 29.2865 21.1701 29.2818 21.3502 29.3719L22.0802 29.7321L22.1134 28.9215C22.1182 28.7793 22.2177 28.6324 22.3694 28.5328C22.5211 28.4333 22.6965 28.4048 22.8292 28.4522C22.8814 28.4712 22.9288 28.4949 22.9809 28.5233C23.1563 28.6086 23.3934 28.7272 23.6873 28.7129C24.3746 28.6798 24.6496 28.054 24.8345 27.6416C24.9008 27.4899 25.0146 27.2387 25.081 27.196C25.0904 27.2007 25.171 27.2339 25.2137 27.2481L27.4607 28.073C27.5887 28.1204 27.8541 28.2152 28.1433 28.0967C28.5273 27.9402 28.6173 27.5515 28.6553 27.3666C28.6979 27.1818 28.769 27.0159 28.8686 26.8642L29.1625 26.8025L29.3379 26.21L28.9255 25.7691C28.8022 25.7312 28.4751 25.6885 28.1812 26.0346C27.9347 26.319 27.7546 26.6603 27.655 27.0253L25.5787 26.2669C25.4412 26.2147 25.2469 26.1389 25.0099 26.1531C24.3272 26.1815 24.0475 26.8073 23.8674 27.2244C23.801 27.3761 23.6873 27.6274 23.6162 27.6748C23.6019 27.6653 23.5071 27.6179 23.4455 27.5895C23.3649 27.5515 23.2843 27.5136 23.2037 27.4804C22.7487 27.305 22.2225 27.3761 21.7863 27.6653C21.5446 27.8217 21.355 28.0351 21.227 28.2721C20.9283 28.2436 20.6154 28.2863 20.3168 28.4048C19.9992 28.5328 19.729 28.7319 19.5251 28.9831H19.5062C19.2786 28.931 19.0416 28.931 18.8046 28.9831C18.359 29.078 17.9797 29.3434 17.7617 29.7084L18.6719 30.2489L18.6766 30.2394ZM28.7833 26.3759L28.6458 26.7788C28.6458 26.7788 28.641 26.7788 28.6363 26.7788L28.7596 26.3522L28.7833 26.3759ZM28.7121 26.2953L28.3187 26.4423C28.2808 26.2906 28.3377 26.1294 28.4609 26.0156L28.7169 26.2953H28.7121Z" fill="#612A7A"/>
<path d="M30.9303 81.1946L31.5466 80.1233C33.9263 75.9849 44.9431 75.1458 45.0569 75.1363L45.4077 75.1126L45.4646 74.7618C47.6405 61.4269 37.8941 51.7042 37.7945 51.6094L37.6049 51.4198L16.0832 58.2413L18.1358 58.4878C27.0242 59.5971 30.6838 79.7725 30.717 79.9763L30.9303 81.1946ZM44.635 74.2736C42.7815 74.4442 34.5094 75.3734 31.4044 78.8102C30.5843 74.8329 27.1901 60.6637 19.8519 57.9853L37.3537 52.439C38.6573 53.8232 46.3653 62.5836 44.635 74.2736Z" fill="#612A7A"/>
<path d="M28.8019 58.7533L29.7594 58.3029C29.8021 58.3882 29.8021 58.4925 29.7594 58.5731C29.731 58.6253 29.6931 58.6537 29.6314 58.6679C29.6599 58.6679 29.7642 58.7058 29.8305 58.7295C30.0249 58.8054 30.5274 58.9571 30.9683 58.739C31.1152 58.6679 31.2385 58.5589 31.3238 58.4214C31.5561 58.6253 31.8784 58.8244 32.2766 58.6727L32.6796 58.521L32.6132 58.0991C32.7127 58.0469 32.7696 58.0801 32.817 58.1085C32.9735 58.1986 33.182 58.3219 33.4665 58.3171C33.9595 58.3076 34.2249 57.9521 34.4003 57.7151C34.4525 57.644 34.5473 57.5207 34.5852 57.497C34.6516 57.4875 34.8554 57.5824 34.9692 57.6345C35.6898 57.9569 36.3013 57.8431 36.5857 57.3927C36.6852 57.241 36.7184 57.0846 36.7421 56.9566C36.7564 56.9614 36.7706 56.9661 36.7801 56.9708C36.9886 57.0562 37.2683 57.1794 37.5859 57.1368L37.4485 56.0891C37.4058 56.0891 37.2731 56.0322 37.1925 55.999C36.927 55.8853 36.4245 55.6719 36.0026 56.0701C35.7798 56.2835 35.7372 56.5442 35.7087 56.7196C35.7087 56.7433 35.6992 56.7765 35.6945 56.8049C35.6803 56.767 35.5949 56.7528 35.4954 56.7101C35.1114 56.5347 34.6516 56.3214 34.1775 56.5252C33.8742 56.6532 33.6988 56.8902 33.5565 57.0846C33.5139 57.1368 33.4617 57.2126 33.4238 57.2553C33.4238 57.2363 33.3811 57.2126 33.3527 57.1984C33.2579 57.1462 33.1441 57.0751 33.0019 57.0325C32.6369 56.9139 32.2624 57.0088 31.9637 57.2647C31.9069 57.3122 31.8547 57.3643 31.8121 57.4212C31.6224 57.2742 31.3665 57.1557 31.0915 57.1842C30.864 57.2079 30.6649 57.3264 30.5464 57.516C30.48 57.6155 30.4515 57.7151 30.4373 57.7957C30.3852 57.7957 30.3188 57.7815 30.2524 57.7578C30.0154 57.6677 29.7642 57.5729 29.4655 57.625C29.2001 57.6724 28.9583 57.8478 28.8303 58.0848C28.7165 58.2982 28.7118 58.5447 28.8113 58.7533H28.8019Z" fill="#612A7A"/>
<path d="M25.4163 60.3698L26.4307 60.0759C26.4592 60.1802 26.4402 60.294 26.3833 60.3746C26.3217 60.4552 26.2553 60.4599 26.2269 60.4599C26.2458 60.4599 26.3027 60.4741 26.3454 60.4836C26.4449 60.5073 26.5445 60.531 26.6488 60.5358C26.9854 60.5547 27.3267 60.4078 27.559 60.1376C27.6016 60.0901 27.6348 60.038 27.668 59.9859L27.8576 60.0427L28.1562 59.0283L26.5872 58.5637L26.772 59.436C26.6772 59.4786 26.6298 59.4739 26.5966 59.4549C26.4876 59.4265 26.3549 59.398 26.1984 59.398C25.9377 59.4028 25.677 59.5355 25.5253 59.7441C25.3926 59.9242 25.3499 60.1518 25.4115 60.3651L25.4163 60.3698Z" fill="#612A7A"/>
<path d="M35.534 62.3608L36.5864 62.2944C36.5769 62.1854 36.6338 62.0622 36.7191 61.9958C36.8092 61.9294 36.9419 61.9105 37.0462 61.9437L37.4397 62.0764L37.6625 61.7256C37.7241 61.6213 37.8 61.5265 37.8806 61.4412C38.1697 61.626 38.5537 61.8773 39.0372 61.8157C39.3501 61.773 39.6393 61.5929 39.8241 61.3179C39.8621 61.261 39.8953 61.2041 39.9237 61.1425C40.0517 61.171 40.1797 61.2089 40.3029 61.2515L40.6348 60.2513C40.284 60.1328 39.9142 60.0522 39.5445 60.0095L38.786 59.929L38.9756 60.6685L38.9045 60.7728C38.8049 60.7822 38.6011 60.6542 38.4447 60.55L38.3356 60.4789C38.2598 60.4314 38.0844 60.3177 37.8426 60.3177C37.525 60.3177 37.3164 60.5263 37.2453 60.5926C37.1505 60.6779 37.0652 60.7728 36.9799 60.877C36.6623 60.8676 36.3399 60.9671 36.0839 61.1662C35.7189 61.4459 35.5056 61.9105 35.534 62.3703V62.3608Z" fill="#612A7A"/>
<path d="M28.5215 64.6646L29.3985 64.0768C29.4601 64.1668 29.4743 64.2948 29.4317 64.3849C29.4032 64.4465 29.37 64.4655 29.3226 64.4702C29.3605 64.4702 29.4364 64.475 29.5028 64.4892C29.6118 64.5034 29.7493 64.5271 29.901 64.5176C30.2375 64.4987 30.5599 64.3185 30.7732 64.0294C30.8253 63.9583 30.868 63.8872 30.9059 63.8113L31.3326 63.9109C31.4369 63.944 31.5317 63.9535 31.6692 63.9346C32.0626 63.8682 32.2096 63.5601 32.2759 63.361C32.3186 63.3847 32.366 63.4084 32.4134 63.4321C32.5177 63.489 32.622 63.5458 32.731 63.5838C33.0534 63.707 33.4421 63.6881 33.7218 63.5316C33.9493 63.4036 34.101 63.1951 34.1437 62.9438L34.1579 62.7589C34.1579 62.7589 34.1674 62.7732 34.1105 62.8585C34.0346 62.977 33.8782 63.0671 33.736 63.0007L34.5703 62.3607C34.4897 62.2659 34.3523 62.1095 34.1342 62.0242C33.7929 61.8772 33.3994 62.0005 33.2145 62.2991C33.1529 62.3987 33.1245 62.5029 33.1102 62.5883C33.0107 62.5598 32.9586 62.5314 32.9064 62.5029C32.7073 62.3987 32.4608 62.2659 32.1527 62.2564C31.9773 62.2517 31.8208 62.2896 31.6881 62.3702C31.4795 62.4982 31.38 62.6926 31.3278 62.849L29.7777 62.4698L29.9626 63.2899C29.9626 63.2899 29.9626 63.3562 29.9247 63.3989C29.8915 63.4416 29.8536 63.4653 29.8299 63.4653C29.7919 63.4653 29.7256 63.4558 29.6545 63.4463C29.5217 63.4273 29.3605 63.4036 29.1804 63.4273C28.8723 63.4653 28.5926 63.6738 28.4646 63.9535C28.3556 64.1906 28.3745 64.4608 28.5167 64.6693L28.5215 64.6646Z" fill="#612A7A"/>
<path d="M35.3911 67.8645C35.8035 67.9024 36.1638 67.6227 36.3297 67.1297C36.3345 67.1107 36.3487 67.0823 36.3582 67.0491C36.5715 67.1107 36.8606 67.1487 37.1261 66.9211C37.33 66.7457 37.3821 66.504 37.4058 66.3902C37.4437 66.1958 37.5053 66.101 37.529 66.0726C37.5196 66.0915 37.5907 66.1105 37.6333 66.1247C37.8419 66.1769 38.2875 66.3096 38.6288 65.9588C38.7568 65.8308 38.8137 65.6839 38.8422 65.5559C39.3304 65.9635 39.8519 66.2717 40.4113 66.485L41.1413 66.7694L41.1271 65.9825C41.1271 65.9825 41.1934 65.9351 41.2645 65.9256C41.4447 65.8972 41.6864 65.9825 41.8998 66.0536L42.2363 65.0534C41.9235 64.9491 41.5347 64.8163 41.0986 64.8827C40.7857 64.9301 40.5155 65.0818 40.3307 65.2951C40.0415 65.1434 39.7713 64.9633 39.52 64.7547C39.3731 64.6315 39.2214 64.4987 39.0033 64.4182C38.6241 64.2854 38.2354 64.385 38.0078 64.6694C37.8941 64.8116 37.8514 64.9586 37.8277 65.0866C37.7044 65.0534 37.5575 65.0249 37.3916 65.0344C36.9223 65.0676 36.5715 65.4184 36.4008 65.9967C36.2823 65.9778 36.1591 65.9683 36.0311 65.9967C35.5475 66.1058 35.3911 66.5703 35.3153 66.7931C35.2916 66.8595 35.3769 66.8073 35.4764 66.8168L35.3721 67.8692L35.3911 67.8645Z" fill="#612A7A"/>
<path d="M30.3136 68.9358L31.2949 68.5423C31.3281 68.6324 31.3281 68.7319 31.2854 68.8078C31.257 68.8599 31.2191 68.8884 31.1622 68.8979C31.1859 68.8979 31.2759 68.9121 31.3281 68.9263L31.4703 68.9548C31.878 69.0211 32.2193 68.9121 32.4326 68.6561C32.5085 68.566 32.5511 68.4712 32.5843 68.3859C32.5938 68.3859 32.5985 68.3954 32.608 68.4001L33.1152 67.4757C32.4231 67.0965 32.0202 67.343 31.8448 67.5279C31.7215 67.6559 31.6647 67.7981 31.6267 67.9118L31.5414 67.8976C31.3897 67.8644 31.1859 67.8218 30.9583 67.8644C30.7023 67.9119 30.4795 68.0778 30.3515 68.3053C30.2425 68.5044 30.2283 68.7367 30.3089 68.9405L30.3136 68.9358Z" fill="#612A7A"/>
<defs>
<clipPath id="clip0_2477_19862">
<rect width="104" height="132" fill="white" transform="translate(92.334 36)"/>
</clipPath>
</defs>
</svg>
