<svg width="1349" height="1370" viewBox="0 0 1349 1370" fill="none" xmlns="http://www.w3.org/2000/svg">
<path opacity="0.1" d="M1171.59 827.435C1173.22 828.116 1177.86 828.978 1186.75 828.65C1199.2 828.19 1240.94 823.27 1261.32 805C1283.83 784.83 1314.14 740.867 1323.39 723.88C1343.4 687.113 1343.4 649.745 1339.34 636.5C1334.93 622.134 1336.27 599.722 1323.39 580.5C1308.87 558.836 1298.06 538.548 1276.34 517.5C1254.11 495.958 1238.92 482.036 1205.34 461C1181.07 445.799 1134.84 439 1089.34 432.5C1055.24 427.628 966.919 427.124 903.114 423.67C864.186 421.563 812.814 423.572 782.591 423.156C745.353 422.644 731.927 417.503 717.938 412.4C698.369 405.26 648.213 375.252 631.935 355.66C599.031 316.059 590.317 306.37 578.619 277C561.938 235.117 577.055 187.185 578.619 172.16C583.459 125.666 611.396 109.467 631.935 94.5007C651.464 80.2704 713.809 70.4761 771.338 85.5C827.105 100.064 846.147 124.092 860.987 146.54C865.887 153.952 869.346 171.812 866.338 179.001C862.27 188.726 854.379 203.358 846.338 207.501C838.298 211.643 819.868 222.38 802.338 221.5C776.863 220.221 735.346 220.271 681.338 198.5C648.754 185.365 598.838 167.501 587.715 102.413C583.568 78.1469 556.822 64.5024 545.838 56C534.854 47.4976 526.99 49.6385 522.338 47" stroke="#602B7A" stroke-width="7" stroke-linecap="round" stroke-dasharray="1 20"/>
<path opacity="0.1" d="M53.4175 1037.64C52.482 1038.59 50.7471 1041.78 49.1299 1048.74C46.8659 1058.49 42.1875 1092.67 53.5746 1116.34C66.1462 1142.47 97.5525 1185.05 110.215 1199.61C137.623 1231.13 169.822 1247.56 182.104 1250.27C195.425 1253.21 214.452 1264.09 233.768 1262.66C255.538 1261.05 275.331 1261.68 298.11 1254.28C321.423 1246.7 336.664 1241.18 361.968 1224.67C380.252 1212.74 395.99 1180.27 411.313 1148.23C422.798 1124.22 442.104 1056.7 458.714 1009.28C468.848 980.35 478.094 940.065 484.911 917.067C493.309 888.731 500.607 880.694 507.994 872.209C518.328 860.339 554.904 835.066 575.265 831.196C616.42 823.373 626.631 820.95 654.44 824.894C694.096 830.518 732.169 863.19 744.782 870.997C783.812 895.154 791.802 923.705 800.31 946.039C808.399 967.276 803.517 1019.4 778.278 1056.92C753.812 1093.29 729.038 1097.33 706.523 1098.84C699.089 1099.34 682.96 1094.13 677.408 1088.67C669.896 1081.27 658.974 1068.78 657.123 1060.79C655.271 1052.81 649.957 1033.95 654.461 1020.89C661.006 1001.91 669.835 970.048 700.136 938.198C718.417 918.982 744.477 888.553 802.94 908.644C824.737 916.134 842.21 901.62 851.884 896.934C861.557 892.249 861.393 885.276 864.661 882.868" stroke="#602B7A" stroke-width="7" stroke-linecap="round" stroke-dasharray="1 20"/>
</svg>
