<svg width="447" height="282" viewBox="0 0 447 282" fill="none" xmlns="http://www.w3.org/2000/svg">
<path d="M197.489 206.495C198.277 200.844 202.307 196.183 207.733 194.337C221.263 189.744 248.28 182.945 258.636 197.332C272.707 216.851 229.886 277.165 229.886 277.165C229.886 277.165 192.536 241.908 197.489 206.472V206.495Z" fill="white"/>
<path d="M268.452 95.143C268.452 73.8437 251.186 56.5771 229.886 56.5771C208.587 56.5771 191.321 73.8437 191.321 95.143V164.012C191.321 185.311 208.587 202.578 229.886 202.578C251.186 202.578 268.452 185.311 268.452 164.012V95.143Z" fill="white" stroke="#613182" stroke-miterlimit="10" stroke-linecap="round"/>
<path d="M229.593 129.05L224.01 152.239H235.762" stroke="#613182" stroke-miterlimit="10" stroke-linecap="round"/>
<path d="M247.83 165.499C230.809 181.123 210.705 165.499 210.705 165.499C210.705 165.499 217.841 181.123 229.256 181.123C243.507 181.123 247.807 165.499 247.807 165.499H247.83Z" stroke="#613182" stroke-miterlimit="10" stroke-linecap="round"/>
<path d="M201.294 121.033C201.294 121.033 212.281 110.767 220.926 121.033" stroke="#613182" stroke-miterlimit="10" stroke-linecap="round"/>
<path d="M239.004 121.033C239.004 121.033 249.991 110.767 258.636 121.033" stroke="#613182" stroke-miterlimit="10" stroke-linecap="round"/>
<path d="M226.487 120.809H233.308" stroke="#613182" stroke-miterlimit="10" stroke-linecap="round"/>
<path d="M140.012 217.842L205.054 195.531L230.742 279.979L140.012 217.842Z" fill="#FFD441" stroke="#613182" stroke-miterlimit="10"/>
<path d="M319.761 217.842L254.741 195.531L229.031 279.979L319.761 217.842Z" fill="#FFD441" stroke="#613182" stroke-miterlimit="10"/>
<path d="M199.042 179.974C199.042 179.974 176.394 172.049 161.535 134.069C144.92 91.5858 173.264 14.8591 228.963 42.7085C228.963 42.7085 305.374 2.61192 301.862 129.566C300.016 196.612 240.175 219.08 240.175 219.08C240.175 219.08 274.801 178.195 268.474 112.433C262.148 46.6708 159.013 57.3198 199.042 179.974Z" fill="#8DC63F"/>
<path d="M191.973 125.783C191.973 120.661 187.82 116.508 182.697 116.508C177.575 116.508 173.422 120.661 173.422 125.783V142.196C173.422 147.319 177.575 151.472 182.697 151.472C187.82 151.472 191.973 147.319 191.973 142.196V125.783Z" fill="#613182"/>
<path d="M285.202 125.783C285.202 120.661 281.049 116.508 275.926 116.508C270.803 116.508 266.65 120.661 266.65 125.783V142.196C266.65 147.319 270.803 151.472 275.926 151.472C281.049 151.472 285.202 147.319 285.202 142.196V125.783Z" fill="#613182"/>
<path d="M275.926 146.97C275.926 146.97 285.202 184.05 242.404 184.05" stroke="#613182" stroke-miterlimit="10" stroke-linecap="round"/>
<path d="M243.056 188.103C245.294 188.103 247.109 186.288 247.109 184.05C247.109 181.812 245.294 179.998 243.056 179.998C240.818 179.998 239.004 181.812 239.004 184.05C239.004 186.288 240.818 188.103 243.056 188.103Z" fill="#613182"/>
<path d="M231.192 61.8671C231.192 61.8671 268.114 73.3717 258.636 86.4971C249.158 99.6226 169.347 89.1537 153.88 156.267C153.88 156.267 152.011 44.5316 231.214 61.8671H231.192Z" fill="#613182"/>
<path d="M246.682 65.2444C246.682 65.2444 205.662 59.6836 181.19 101.626C181.19 101.626 217.031 72.5612 238.239 78.6624C259.424 84.7861 275.342 76.6363 271.109 68.644C266.876 60.6516 246.682 65.2444 246.682 65.2444Z" fill="#8DC63F"/>
<path d="M218.877 135.083H204.446L196.026 126.663V110.588H217.346C222.232 110.588 226.172 114.551 226.172 119.414V127.766C226.172 131.796 222.907 135.061 218.877 135.061V135.083Z" stroke="#613182" stroke-miterlimit="10" stroke-linecap="round"/>
<path d="M243.282 135.083H255.462L263.882 126.663V110.588H242.561C237.676 110.588 233.736 114.551 233.736 119.414V125.515C233.736 130.783 238.014 135.061 243.282 135.061V135.083Z" stroke="#613182" stroke-miterlimit="10" stroke-linecap="round"/>
<path d="M140.012 161.626C142.971 161.626 145.37 159.227 145.37 156.268C145.37 153.309 142.971 150.91 140.012 150.91C137.053 150.91 134.654 153.309 134.654 156.268C134.654 159.227 137.053 161.626 140.012 161.626Z" fill="#FFD441"/>
<path d="M123.87 139.181C129.987 139.181 134.946 134.222 134.946 128.105C134.946 121.987 129.987 117.028 123.87 117.028C117.752 117.028 112.793 121.987 112.793 128.105C112.793 134.222 117.752 139.181 123.87 139.181Z" fill="#FFD441"/>
<path d="M84.6958 104.823C118.902 104.823 146.631 81.358 146.631 52.4118C146.631 23.4656 118.902 0 84.6958 0C50.4901 0 22.7609 23.4656 22.7609 52.4118C22.7609 81.358 50.4901 104.823 84.6958 104.823Z" fill="#FFD441"/>
<path d="M52.299 36.6973H116.328" stroke="#613182" stroke-width="1.37" stroke-miterlimit="10" stroke-linecap="round"/>
<path d="M52.299 52.0752H116.328" stroke="#613182" stroke-width="1.37" stroke-miterlimit="10" stroke-linecap="round"/>
<path d="M52.299 67.4282H116.328" stroke="#613182" stroke-width="1.37" stroke-miterlimit="10" stroke-linecap="round"/>
<path d="M99.3205 179.965L100.395 184.253L96.2091 182.982L92.0144 181.705L95.1333 178.686L98.2447 175.669L99.3205 179.965Z" fill="#FFD440"/>
<path d="M3.42953 187.471L73.8761 173.594C75.3494 173.303 76.8002 174.284 77.1155 175.783L88.0397 227.731L12.2563 242.66L1.3321 190.712C1.01685 189.213 1.95625 187.761 3.42953 187.471Z" stroke="#FFD440" stroke-miterlimit="10" stroke-linecap="round"/>
<path d="M71.5328 178.185L7.44359 190.812C6.33488 191.031 5.62837 192.123 5.8656 193.251L14.8363 235.918C15.0735 237.046 16.1647 237.784 17.2734 237.565L81.3626 224.938C82.4713 224.72 83.1778 223.628 82.9405 222.5L73.9699 179.833C73.7326 178.704 72.6415 177.967 71.5328 178.185Z" stroke="#FFD440" stroke-miterlimit="10" stroke-linecap="round"/>
<path d="M111.11 248.461L34.3295 265.807C33.5736 265.979 32.7705 265.705 32.241 265.093L11.8538 241.556L87.8471 226.682L111.81 244.533C113.318 245.653 112.89 248.048 111.109 248.453L111.11 248.461Z" stroke="#FFD440" stroke-miterlimit="10" stroke-linecap="round"/>
<path d="M24.5036 244.396L22.3308 244.817C21.868 244.923 21.367 244.85 21.2035 244.67L20.455 243.84C20.3007 243.667 20.5439 243.449 21.0025 243.36L23.1602 242.941C23.6172 242.844 24.1166 242.91 24.2801 243.09L25.0419 243.909C25.2054 244.089 24.9622 244.307 24.5036 244.396Z" fill="#FFD440"/>
<path d="M29.5285 243.347L27.3783 243.764C26.923 243.869 26.4145 243.797 26.2526 243.625L25.4908 242.805C25.329 242.633 25.5647 242.417 26.0233 242.328L28.1584 241.914C28.6078 241.818 29.1072 241.884 29.2766 242.054L30.0535 242.871C30.2153 243.043 29.9871 243.258 29.5302 243.355L29.5285 243.347Z" fill="#FFD440"/>
<path d="M34.4931 242.312L32.3655 242.725C31.9178 242.828 31.4092 242.756 31.2473 242.584L30.4629 241.769C30.3011 241.597 30.5293 241.382 30.9804 241.294L33.093 240.885C33.5424 240.789 34.0418 240.855 34.2036 241.027L34.9938 241.833C35.1632 242.003 34.9351 242.218 34.484 242.306L34.4931 242.312Z" fill="#FFD440"/>
<path d="M39.4117 241.285L37.3067 241.694C36.8589 241.797 36.3578 241.723 36.1884 241.553L35.3907 240.748C35.2214 240.578 35.4512 240.371 35.8932 240.277L37.9832 239.871C38.4251 239.777 38.9244 239.843 39.0938 240.014L39.8991 240.817C40.0685 240.987 39.8478 241.201 39.4042 241.287L39.4117 241.285Z" fill="#FFD440"/>
<path d="M44.2778 240.269L42.1953 240.673C41.755 240.774 41.254 240.701 41.077 240.532L40.2659 239.738C40.0965 239.567 40.3114 239.363 40.7549 239.277L42.8225 238.876C43.2585 238.792 43.7562 238.849 43.9331 239.018L44.7593 239.81C44.9362 239.978 44.723 240.191 44.2795 240.277L44.2778 240.269Z" fill="#FFD440"/>
<path d="M49.0984 239.261L47.0384 239.661C46.5981 239.763 46.0971 239.689 45.9202 239.52L45.094 238.729C44.9171 238.56 45.1319 238.356 45.568 238.271L47.6129 237.874C48.049 237.79 48.5392 237.849 48.7236 238.017L49.5632 238.797C49.7401 238.966 49.5328 239.169 49.0984 239.261Z" fill="#FFD440"/>
<path d="M53.8662 238.267L51.8288 238.662C51.396 238.762 50.8966 238.696 50.7197 238.527L49.8801 237.747C49.7032 237.578 49.9105 237.375 50.3391 237.292L52.3691 236.898C52.7976 236.815 53.2954 236.873 53.4706 237.034L54.3252 237.812C54.5097 237.979 54.3023 238.182 53.8738 238.265L53.8662 238.267Z" fill="#FFD440"/>
<path d="M58.5886 237.279L56.5662 237.671C56.141 237.77 55.6416 237.704 55.4571 237.537L54.6026 236.759C54.4182 236.592 54.6196 236.398 55.0465 236.307L57.0539 235.918C57.4824 235.835 57.9727 235.894 58.1554 236.054L59.0233 236.82C59.2078 236.988 59.0155 237.188 58.5869 237.271L58.5886 237.279Z" fill="#FFD440"/>
<path d="M63.2577 236.303L61.2579 236.691C60.831 236.782 60.3332 236.724 60.1488 236.556L59.2808 235.79C59.0981 235.63 59.2903 235.43 59.7189 235.347L61.7038 234.962C62.1248 234.88 62.615 234.939 62.8053 235.098L63.6883 235.861C63.8803 236.027 63.688 236.227 63.2594 236.31L63.2577 236.303Z" fill="#FFD440"/>
<path d="M67.8817 235.336L65.9044 235.719C65.485 235.809 64.9873 235.751 64.7953 235.585L63.914 234.829C63.7237 234.671 63.916 234.47 64.337 234.389L66.3069 234.007C66.7279 233.925 67.2165 233.977 67.4085 234.143L68.3048 234.896C68.4951 235.054 68.3103 235.253 67.8909 235.342L67.8817 235.336Z" fill="#FFD440"/>
<path d="M72.4604 234.379L70.4981 234.76C70.0787 234.849 69.5885 234.79 69.3982 234.631L68.5018 233.878C68.3115 233.72 68.4963 233.522 68.9098 233.441L70.8571 233.064C71.2707 232.983 71.7592 233.035 71.9495 233.193L72.8518 233.937C73.0421 234.095 72.8648 234.292 72.4513 234.373L72.4604 234.379Z" fill="#FFD440"/>
<path d="M76.9952 233.439L75.0554 233.815C74.6436 233.903 74.1533 233.844 73.9555 233.687L73.0457 232.945C72.8554 232.786 73.0327 232.589 73.4387 232.51L75.371 232.136C75.7846 232.055 76.2656 232.108 76.4634 232.265L77.3807 233.006C77.5785 233.163 77.4013 233.36 76.9952 233.439Z" fill="#FFD440"/>
<path d="M81.4905 232.498L79.5733 232.87C79.1614 232.958 78.6711 232.898 78.4733 232.741L77.5486 232.002C77.3508 231.845 77.5297 231.656 77.934 231.569L79.8437 231.199C80.2497 231.12 80.7383 231.172 80.9361 231.328L81.8668 232.059C82.0646 232.215 81.8948 232.411 81.4888 232.49L81.4905 232.498Z" fill="#FFD440"/>
<path d="M85.9329 231.568L84.0307 231.937C83.6264 232.024 83.1361 231.964 82.9383 231.807L82.0076 231.077C81.8098 230.92 81.9737 230.734 82.3797 230.655L84.2744 230.288C84.6729 230.21 85.1615 230.262 85.3593 230.419L86.305 231.146C86.5104 231.302 86.3481 231.496 85.9421 231.574L85.9329 231.568Z" fill="#FFD440"/>
<path d="M27.8464 245.933L24.0344 246.7C23.5676 246.791 23.0525 246.728 22.8946 246.538L22.1343 245.688C21.9706 245.507 22.2217 245.286 22.681 245.197L26.4704 244.434C26.9296 244.345 27.4372 244.41 27.601 244.59L28.3838 245.436C28.5476 245.617 28.3115 245.835 27.8464 245.933Z" fill="#FFD440"/>
<path d="M32.8861 244.862L30.7319 245.296C30.2733 245.385 29.7589 245.322 29.5954 245.142L28.8153 244.31C28.6517 244.13 28.8875 243.914 29.346 243.825L31.4886 243.41C31.9438 243.305 32.4448 243.379 32.6142 243.549L33.4094 244.378C33.5804 244.556 33.3447 244.773 32.8878 244.869L32.8861 244.862Z" fill="#FFD440"/>
<path d="M37.8771 243.803L35.7455 244.233C35.2869 244.322 34.7801 244.258 34.609 244.079L33.8064 243.252C33.6354 243.074 33.8635 242.859 34.3221 242.77L36.442 242.359C36.8898 242.256 37.3983 242.328 37.5677 242.498L38.3762 243.316C38.5472 243.494 38.3265 243.708 37.868 243.797L37.8771 243.803Z" fill="#FFD440"/>
<path d="M42.8173 242.764L40.7082 243.19C40.2571 243.277 39.7502 243.213 39.5717 243.036L38.7557 242.219C38.5863 242.049 38.807 241.835 39.2564 241.74L41.3538 241.333C41.794 241.231 42.3025 241.303 42.4794 241.472L43.3105 242.287C43.489 242.463 43.2683 242.677 42.8173 242.764Z" fill="#FFD440"/>
<path d="M47.7029 241.728L45.6163 242.149C45.1728 242.235 44.6659 242.171 44.4874 241.994L43.6579 241.188C43.481 241.019 43.7017 240.805 44.1452 240.719L46.2201 240.317C46.6604 240.215 47.1597 240.281 47.3383 240.457L48.1827 241.261C48.3596 241.43 48.1465 241.642 47.7046 241.736L47.7029 241.728Z" fill="#FFD440"/>
<path d="M52.5445 240.709L50.4804 241.126C50.0369 241.212 49.53 241.148 49.3531 240.979L48.5086 240.175C48.3317 240.006 48.5374 239.796 48.9809 239.71L51.0408 239.31C51.4735 239.21 51.9729 239.276 52.1573 239.443L53.0151 240.236C53.1995 240.403 52.9939 240.614 52.552 240.708L52.5445 240.709Z" fill="#FFD440"/>
<path d="M57.3336 239.701L55.2921 240.114C54.856 240.198 54.3492 240.134 54.1648 239.966L53.3069 239.174C53.1225 239.006 53.3281 238.795 53.7641 238.711L55.8015 238.316C56.2342 238.215 56.7336 238.281 56.918 238.449L57.7908 239.239C57.9753 239.406 57.7772 239.615 57.3411 239.7L57.3336 239.701Z" fill="#FFD440"/>
<path d="M62.0678 238.696L60.0414 239.105C59.6054 239.19 59.106 239.124 58.9216 238.957L58.0488 238.167C57.8643 237.999 58.0641 237.798 58.491 237.707L60.5057 237.317C60.9309 237.218 61.4302 237.283 61.6146 237.451L62.5009 238.23C62.6928 238.396 62.4946 238.605 62.0661 238.688L62.0678 238.696Z" fill="#FFD440"/>
<path d="M66.7584 237.708L64.7544 238.113C64.3259 238.196 63.8265 238.13 63.6346 237.964L62.7484 237.185C62.5564 237.019 62.7562 236.818 63.1772 236.736L65.1695 236.35C65.5871 236.253 66.0865 236.318 66.2784 236.484L67.178 237.253C67.3699 237.419 67.1777 237.619 66.7584 237.708Z" fill="#FFD440"/>
<path d="M71.4036 236.729L69.4221 237.13C69.0011 237.211 68.4941 237.147 68.3038 236.989L67.4042 236.22C67.2122 236.054 67.397 235.856 67.8181 235.774L69.7953 235.39C70.213 235.293 70.7124 235.359 70.9044 235.525L71.819 236.29C72.0185 236.455 71.8337 236.654 71.4144 236.743L71.4036 236.729Z" fill="#FFD440"/>
<path d="M75.9956 235.761L74.0292 236.159C73.6082 236.24 73.1105 236.182 72.9111 236.018L71.9964 235.252C71.8044 235.086 71.9817 234.889 72.4027 234.808L74.3574 234.428C74.7675 234.333 75.2669 234.398 75.4647 234.555L76.3928 235.31C76.5922 235.475 76.415 235.671 75.994 235.753L75.9956 235.761Z" fill="#FFD440"/>
<path d="M80.5486 234.793L78.6047 235.186C78.1912 235.266 77.6935 235.209 77.494 235.044L76.566 234.289C76.3682 234.132 76.5454 233.935 76.9572 233.847L78.8969 233.471C79.3071 233.375 79.7989 233.442 79.9967 233.599L80.9398 234.351C81.1393 234.516 80.9696 234.711 80.5561 234.791L80.5486 234.793Z" fill="#FFD440"/>
<path d="M87.6321 233.319L83.1334 234.23C82.7191 234.311 82.2204 234.253 82.0205 234.086L81.0755 233.326C80.8773 233.168 81.0474 232.97 81.4542 232.891L85.9319 231.992C86.3388 231.912 86.83 231.972 87.0358 232.129L87.9941 232.879C88.1999 233.036 88.0373 233.232 87.6321 233.319Z" fill="#FFD440"/>
<path d="M32.6346 247.253L25.6363 248.699C25.1612 248.792 24.6437 248.72 24.4798 248.538L23.6988 247.662C23.5349 247.48 23.7849 247.25 24.2508 247.15L31.207 245.729C31.667 245.639 32.1829 245.702 32.356 245.891L33.1656 246.754C33.337 246.934 33.1021 247.161 32.6362 247.261L32.6346 247.253Z" fill="#FFD440"/>
<path d="M37.6864 246.15L35.5266 246.593C35.0681 246.682 34.5537 246.619 34.381 246.433L33.5751 245.59C33.4041 245.412 33.6381 245.188 34.0966 245.099L36.2431 244.666C36.7016 244.578 37.2085 244.642 37.3795 244.82L38.2004 245.66C38.379 245.837 38.1449 246.061 37.6881 246.158L37.6864 246.15Z" fill="#FFD440"/>
<path d="M42.6839 245.084L40.5466 245.523C40.0881 245.612 39.5813 245.547 39.4011 245.363L38.5727 244.524C38.3941 244.348 38.6223 244.133 39.0792 244.036L41.203 243.608C41.654 243.521 42.1608 243.585 42.3394 243.761L43.1736 244.591C43.3522 244.767 43.1332 244.989 42.6747 245.078L42.6839 245.084Z" fill="#FFD440"/>
<path d="M47.6361 244.027L45.5213 244.461C45.0703 244.549 44.5559 244.486 44.3774 244.309L43.5356 243.481C43.357 243.305 43.5777 243.091 44.027 242.996L46.1284 242.572C46.5719 242.486 47.0788 242.55 47.2649 242.726L48.1201 243.543C48.3061 243.718 48.0871 243.939 47.6361 244.027Z" fill="#FFD440"/>
<path d="M52.5277 242.982L50.4355 243.412C49.9844 243.499 49.4776 243.435 49.2915 243.26L48.4363 242.443C48.2577 242.266 48.4709 242.054 48.9144 241.968L50.9933 241.549C51.4368 241.463 51.9436 241.527 52.1297 241.702L53 242.516C53.186 242.692 52.9729 242.904 52.5311 242.997L52.5277 242.982Z" fill="#FFD440"/>
<path d="M57.374 241.946L55.3043 242.372C54.8608 242.458 54.354 242.393 54.1679 242.218L53.2977 241.404C53.1116 241.228 53.3172 241.018 53.7607 240.932L55.817 240.517C56.253 240.432 56.7598 240.497 56.9442 240.664L57.8279 241.468C58.0139 241.643 57.8158 241.852 57.374 241.946Z" fill="#FFD440"/>
<path d="M62.1671 240.922L60.1199 241.343C59.6839 241.428 59.1771 241.363 58.9835 241.19L58.0999 240.386C57.9155 240.219 58.1136 240.01 58.5479 239.917L60.5817 239.507C61.0177 239.422 61.517 239.488 61.7089 239.654L62.6076 240.454C62.8012 240.628 62.603 240.837 62.1671 240.922Z" fill="#FFD440"/>
<path d="M66.9079 239.907L64.8815 240.317C64.4455 240.401 63.9387 240.337 63.7468 240.171L62.8498 239.378C62.6579 239.212 62.856 239.003 63.2828 238.912L65.3016 238.504C65.7301 238.421 66.2369 238.485 66.4288 238.651L67.3409 239.441C67.5328 239.607 67.3439 239.823 66.9154 239.906L66.9079 239.907Z" fill="#FFD440"/>
<path d="M71.6043 238.91L69.6005 239.314C69.1721 239.398 68.6652 239.333 68.4733 239.167L67.5613 238.377C67.3694 238.211 67.5599 238.004 67.9809 237.922L69.9772 237.519C70.3981 237.437 70.905 237.501 71.0969 237.667L72.0223 238.447C72.2217 238.611 72.0386 238.817 71.6118 238.908L71.6043 238.91Z" fill="#FFD440"/>
<path d="M76.2537 237.914L74.265 238.316C73.8365 238.399 73.3371 238.333 73.1377 238.169L72.2123 237.39C72.0128 237.225 72.1959 237.019 72.6244 236.936L74.5981 236.537C75.0191 236.455 75.5168 236.513 75.7162 236.677L76.6567 237.454C76.8561 237.619 76.6806 237.823 76.2613 237.913L76.2537 237.914Z" fill="#FFD440"/>
<path d="M80.8505 236.93L78.8844 237.328C78.4634 237.409 77.9582 237.353 77.7571 237.181L76.8166 236.404C76.6172 236.239 76.7944 236.043 77.2137 235.953L79.1724 235.557C79.5858 235.477 80.0835 235.535 80.2904 235.698L81.2443 236.464C81.4513 236.627 81.2756 236.831 80.8547 236.913L80.8505 236.93Z" fill="#FFD440"/>
<path d="M85.4109 235.96L83.4672 236.353C83.0538 236.433 82.5486 236.377 82.3417 236.214L81.3878 235.448C81.1884 235.283 81.3581 235.088 81.7699 235L83.706 234.608C84.1194 234.528 84.6171 234.586 84.8166 234.75L85.7763 235.507C85.9832 235.67 85.8152 235.873 85.4017 235.953L85.4109 235.96Z" fill="#FFD440"/>
<path d="M89.9167 234.994L87.9881 235.384C87.5746 235.464 87.077 235.407 86.87 235.244L85.9028 234.488C85.6958 234.325 85.8655 234.13 86.2714 234.051L88.1851 233.664C88.5911 233.585 89.0887 233.643 89.2957 233.806L90.2704 234.56C90.4774 234.723 90.3152 234.917 89.9109 235.003L89.9167 234.994Z" fill="#FFD440"/>
<path d="M31.8809 249.73L27.4497 250.651C26.9753 250.743 26.4509 250.673 26.2779 250.486L25.4865 249.6C25.3211 249.411 25.5631 249.184 26.0358 249.083L30.4386 248.176C30.9055 248.085 31.4224 248.156 31.5937 248.336L32.4059 249.21C32.5789 249.397 32.3386 249.632 31.8717 249.723L31.8809 249.73Z" fill="#FFD440"/>
<path d="M36.998 248.608L34.8082 249.057C34.3422 249.147 33.8187 249.078 33.6461 248.892L32.8277 248.027C32.6551 247.842 32.8891 247.618 33.3551 247.527L35.5298 247.081C35.9958 246.991 36.5101 247.054 36.6827 247.239L37.5086 248.103C37.6888 248.287 37.4548 248.511 36.9905 248.609L36.998 248.608Z" fill="#FFD440"/>
<path d="M42.0606 247.512L39.9008 247.955C39.4348 248.045 38.9188 247.975 38.7403 247.798L37.9086 246.944C37.7284 246.759 37.9624 246.535 38.4209 246.446L40.5731 246.005C41.0316 245.916 41.5459 245.979 41.7261 246.163L42.5729 247.014C42.7531 247.199 42.5266 247.421 42.0698 247.518L42.0606 247.512Z" fill="#FFD440"/>
<path d="M47.0717 246.434L44.9345 246.872C44.476 246.961 43.9617 246.899 43.774 246.716L42.9273 245.864C42.7487 245.688 42.9677 245.467 43.4245 245.37L45.5542 244.933C46.0051 244.845 46.5195 244.908 46.6997 245.093L47.5598 245.933C47.7475 246.116 47.5285 246.337 47.07 246.426L47.0717 246.434Z" fill="#FFD440"/>
<path d="M52.0282 245.361L49.9136 245.795C49.4626 245.882 48.9483 245.82 48.7606 245.637L47.893 244.798C47.7069 244.623 47.9259 244.402 48.3752 244.306L50.4823 243.873C50.9332 243.786 51.44 243.85 51.6261 244.025L52.4995 244.855C52.6856 245.03 52.4741 245.25 52.0248 245.345L52.0282 245.361Z" fill="#FFD440"/>
<path d="M56.9336 244.305L54.8415 244.735C54.3905 244.823 53.8762 244.76 53.6885 244.577L52.8075 243.749C52.6214 243.574 52.8329 243.354 53.2763 243.268L55.3609 242.84C55.8044 242.754 56.3112 242.818 56.5048 242.991L57.3933 243.818C57.5868 243.992 57.3754 244.212 56.9336 244.305Z" fill="#FFD440"/>
<path d="M61.7917 243.251L59.7221 243.676C59.2786 243.762 58.7643 243.699 58.5708 243.526L57.6747 242.7C57.4887 242.525 57.6851 242.308 58.1285 242.222L60.1906 241.798C60.6265 241.714 61.1409 241.776 61.3345 241.95L62.2439 242.765C62.4375 242.938 62.2411 243.155 61.7992 243.249L61.7917 243.251Z" fill="#FFD440"/>
<path d="M66.5909 242.217L64.5364 242.639C64.1004 242.724 63.5861 242.661 63.3926 242.488L62.4831 241.673C62.2895 241.499 62.4876 241.29 62.9219 241.198L64.9614 240.778C65.3973 240.693 65.9042 240.758 66.0978 240.931L67.0205 241.735C67.2141 241.909 67.0252 242.124 66.5892 242.209L66.5909 242.217Z" fill="#FFD440"/>
<path d="M71.3435 241.184L69.3115 241.603C68.8756 241.687 68.3688 241.623 68.1677 241.451L67.2449 240.647C67.0513 240.473 67.2419 240.265 67.6687 240.175L69.6856 239.759C70.1141 239.676 70.6208 239.74 70.8203 239.905L71.7581 240.706C71.9592 240.878 71.7686 241.086 71.3418 241.176L71.3435 241.184Z" fill="#FFD440"/>
<path d="M76.052 240.169L74.0426 240.583C73.6141 240.666 73.0998 240.604 72.8987 240.431L71.9609 239.63C71.7598 239.458 71.9504 239.251 72.3713 239.169L74.3657 238.758C74.7942 238.675 75.301 238.739 75.5004 238.903L76.4516 239.694C76.6527 239.866 76.4771 240.071 76.0503 240.161L76.052 240.169Z" fill="#FFD440"/>
<path d="M80.7077 239.164L78.7207 239.574C78.2923 239.657 77.7854 239.593 77.586 239.428L76.6348 238.638C76.4354 238.473 76.6109 238.269 77.0377 238.178L79.0171 237.77C79.438 237.688 79.9449 237.752 80.1443 237.917L81.1031 238.706C81.3117 238.877 81.1362 239.081 80.7094 239.172L80.7077 239.164Z" fill="#FFD440"/>
<path d="M85.3179 238.169L83.346 238.576C82.925 238.658 82.4183 238.594 82.2113 238.431L81.2467 237.651C81.0397 237.488 81.2153 237.283 81.6345 237.194L83.5914 236.79C84.0048 236.71 84.51 236.766 84.7187 236.937L85.6908 237.715C85.8977 237.878 85.7313 238.089 85.3104 238.171L85.3179 238.169Z" fill="#FFD440"/>
<path d="M92.191 236.704L87.9397 237.591C87.5179 237.673 87.0118 237.616 86.8028 237.444L85.8213 236.659C85.6139 236.495 85.7823 236.29 86.1949 236.201L90.427 235.335C90.8412 235.254 91.3398 235.312 91.5547 235.475L92.5496 236.249C92.7645 236.412 92.6036 236.616 92.191 236.704Z" fill="#FFD440"/>
<path d="M31.1822 252.189L28.9417 252.655C28.4608 252.749 27.9374 252.68 27.7631 252.486L26.9531 251.588C26.7805 251.402 27.0279 251.167 27.5072 251.066L29.7326 250.602C30.206 250.51 30.7295 250.579 30.9021 250.765L31.7178 251.655C31.8922 251.848 31.6524 252.081 31.173 252.182L31.1822 252.189Z" fill="#FFD440"/>
<path d="M36.3627 251.052L34.1522 251.513C33.6787 251.605 33.1553 251.536 32.9751 251.351L32.1518 250.463C31.9791 250.278 32.219 250.044 32.6908 249.945L34.8938 249.485C35.3597 249.395 35.8832 249.464 36.0633 249.648L36.9 250.526C37.0801 250.71 36.8403 250.943 36.376 251.041L36.3627 251.052Z" fill="#FFD440"/>
<path d="M41.4915 249.936L39.3035 250.392C38.8376 250.482 38.3066 250.415 38.1339 250.229L37.2972 249.352C37.1171 249.167 37.3494 248.936 37.8154 248.845L39.99 248.399C40.456 248.309 40.9719 248.38 41.1521 248.564L42.0038 249.438C42.184 249.623 41.9592 249.853 41.4949 249.951L41.4915 249.936Z" fill="#FFD440"/>
<path d="M46.5676 248.829L44.4021 249.281C43.9361 249.372 43.4127 249.303 43.2325 249.118L42.3749 248.253C42.1948 248.069 42.4213 247.846 42.8781 247.75L45.0301 247.308C45.4886 247.219 46.0104 247.28 46.1906 247.465L47.0632 248.327C47.2509 248.51 47.0261 248.74 46.5692 248.837L46.5676 248.829Z" fill="#FFD440"/>
<path d="M51.591 247.735L49.4481 248.182C48.9897 248.271 48.4679 248.21 48.2786 248.019L47.406 247.157C47.2183 246.974 47.4373 246.753 47.8941 246.656L50.0235 246.219C50.4745 246.132 50.9962 246.193 51.1839 246.376L52.0699 247.228C52.2576 247.41 52.0478 247.638 51.5894 247.727L51.591 247.735Z" fill="#FFD440"/>
<path d="M56.552 246.645L54.4317 247.088C53.9807 247.176 53.4589 247.114 53.2637 246.933L52.3777 246.081C52.19 245.898 52.4014 245.679 52.8507 245.583L54.9577 245.151C55.4087 245.063 55.923 245.126 56.1107 245.309L57.01 246.15C57.2052 246.331 56.9938 246.551 56.5445 246.646L56.552 246.645Z" fill="#FFD440"/>
<path d="M61.4615 245.572L59.3636 246.011C58.9127 246.098 58.3984 246.036 58.2032 245.854L57.2963 245.015C57.1011 244.833 57.3125 244.614 57.756 244.528L59.8405 244.099C60.2839 244.013 60.7982 244.076 60.9934 244.257L61.9078 245.095C62.103 245.277 61.8991 245.495 61.4573 245.589L61.4615 245.572Z" fill="#FFD440"/>
<path d="M66.3258 244.509L64.2505 244.944C63.8071 245.03 63.2853 244.968 63.0901 244.787L62.1682 243.95C61.9747 243.777 62.171 243.56 62.6128 243.466L64.6747 243.042C65.1182 242.956 65.6249 243.02 65.826 243.193L66.7537 244.02C66.9565 244.2 66.76 244.417 66.3183 244.51L66.3258 244.509Z" fill="#FFD440"/>
<path d="M71.1387 243.463L69.086 243.894C68.6426 243.98 68.1282 243.917 67.9255 243.737L66.9902 242.911C66.7891 242.739 66.9856 242.522 67.4198 242.43L69.4668 242.009C69.9027 241.924 70.417 241.987 70.6181 242.159L71.5592 242.976C71.7602 243.148 71.573 243.371 71.1371 243.455L71.1387 243.463Z" fill="#FFD440"/>
<path d="M75.897 242.422L73.8668 242.848C73.4308 242.932 72.9165 242.869 72.7155 242.697L71.7668 241.882C71.5658 241.71 71.7546 241.495 72.1814 241.404L74.2058 240.987C74.6342 240.904 75.1485 240.967 75.3496 241.139L76.3058 241.952C76.5068 242.125 76.3254 242.339 75.8987 242.429L75.897 242.422Z" fill="#FFD440"/>
<path d="M80.6101 241.39L78.6024 241.811C78.174 241.895 77.6597 241.832 77.4511 241.661L76.4874 240.849C76.2864 240.677 76.4677 240.463 76.8962 240.38L78.898 239.967C79.3265 239.884 79.8332 239.948 80.0418 240.119L81.0114 240.922C81.22 241.093 81.0461 241.305 80.6118 241.398L80.6101 241.39Z" fill="#FFD440"/>
<path d="M85.2717 240.377L83.279 240.796C82.8506 240.879 82.3363 240.816 82.1277 240.645L81.1506 239.843C80.942 239.673 81.1175 239.468 81.5443 239.377L83.5236 238.969C83.9445 238.887 84.4589 238.95 84.6658 239.113L85.6487 239.906C85.8573 240.076 85.6909 240.287 85.2625 240.37L85.2717 240.377Z" fill="#FFD440"/>
<path d="M89.8866 239.364L87.9164 239.779C87.4955 239.86 86.9812 239.798 86.7726 239.627L85.7822 238.836C85.5736 238.665 85.7416 238.462 86.1609 238.373L88.1251 237.967C88.5461 237.886 89.0529 237.95 89.2598 238.113L90.2577 238.902C90.4739 239.072 90.3058 239.275 89.8866 239.364Z" fill="#FFD440"/>
<path d="M94.4571 238.37L92.5094 238.78C92.0885 238.862 91.5817 238.797 91.3673 238.636L90.3618 237.848C90.1457 237.678 90.3137 237.475 90.7271 237.395L92.6689 236.994C93.0823 236.914 93.5874 236.971 93.8035 237.14L94.8149 237.919C95.031 238.088 94.8705 238.29 94.4587 238.378L94.4571 238.37Z" fill="#FFD440"/>
<path d="M35.7146 253.58L31.1004 254.561C30.6202 254.663 30.0865 254.586 29.9043 254.393L29.0821 253.472C28.9075 253.277 29.1553 253.04 29.6355 252.938L34.2214 251.971C34.6958 251.878 35.2277 251.947 35.4023 252.142L36.2455 253.05C36.4276 253.244 36.189 253.487 35.7087 253.589L35.7146 253.58Z" fill="#FFD440"/>
<path d="M40.9106 252.417L38.6944 252.887C38.2226 252.987 37.69 252.912 37.5082 252.719L36.6591 251.821C36.4773 251.629 36.7171 251.395 37.1889 251.296L39.3917 250.836C39.8651 250.745 40.3886 250.814 40.5687 250.998L41.4312 251.886C41.613 252.078 41.3807 252.31 40.9089 252.41L40.9106 252.417Z" fill="#FFD440"/>
<path d="M46.0516 251.283L43.858 251.749C43.3862 251.848 42.8611 251.771 42.6718 251.581L41.8093 250.692C41.6275 250.5 41.8523 250.27 42.3241 250.171L44.5043 249.715C44.9703 249.625 45.4936 249.694 45.6813 249.877L46.5588 250.762C46.7482 250.953 46.5234 251.183 46.0591 251.281L46.0516 251.283Z" fill="#FFD440"/>
<path d="M51.132 250.16L48.9608 250.622C48.4965 250.72 47.964 250.644 47.7763 250.461L46.8929 249.585C46.7052 249.402 46.93 249.172 47.3868 249.075L49.5446 248.625C50.003 248.536 50.5265 248.605 50.7142 248.788L51.605 249.662C51.7943 249.853 51.577 250.082 51.1203 250.179L51.132 250.16Z" fill="#FFD440"/>
<path d="M80.5002 243.736L54.1396 249.467C53.6788 249.559 53.1452 249.488 52.9568 249.299L52.0547 248.394C51.8663 248.205 52.0773 247.969 52.5365 247.869L78.7502 242.227C79.1808 242.141 79.7051 242.205 79.9145 242.381L80.9005 243.236C81.1117 243.421 80.9292 243.642 80.5002 243.736Z" fill="#FFD440"/>
<path d="M85.2274 242.63L83.2123 243.054C82.7839 243.137 82.2622 243.075 82.0519 242.897L81.0641 242.081C80.8555 241.911 81.0369 241.697 81.4636 241.606L83.4637 241.186C83.8921 241.103 84.4063 241.165 84.6149 241.336L85.6103 242.15C85.828 242.327 85.6542 242.54 85.2199 242.632L85.2274 242.63Z" fill="#FFD440"/>
<path d="M89.901 241.598L87.9085 242.017C87.4801 242.1 86.9658 242.037 86.7497 241.867L85.7468 241.055C85.5382 240.884 85.7046 240.673 86.1313 240.582L88.1164 240.165C88.5372 240.084 89.0515 240.146 89.2676 240.316L90.2763 241.119C90.4924 241.288 90.3278 241.507 89.8994 241.59L89.901 241.598Z" fill="#FFD440"/>
<path d="M96.7589 240.097L92.5492 240.992C92.1275 241.074 91.6048 241.012 91.3883 240.841L90.3702 240.032C90.1537 239.861 90.3203 239.649 90.7404 239.559L94.9215 238.678C95.3357 238.597 95.8509 238.661 96.0657 238.824L97.0973 239.622C97.3213 239.791 97.1622 240.002 96.7421 240.092L96.7589 240.097Z" fill="#FFD440"/>
<path d="M87.465 251.761L61.4371 257.604C60.2678 257.866 58.9166 257.674 58.4117 257.177L53.1235 251.969C52.6478 251.499 53.1852 250.921 54.3184 250.674L79.7341 245.204C80.807 244.969 82.0989 245.141 82.6241 245.585L88.4346 250.477C88.9874 250.94 88.553 251.524 87.4516 251.772L87.465 251.761Z" stroke="#FFD440" stroke-miterlimit="10" stroke-linecap="round"/>
<path d="M57.5358 210.237L57.1025 209.982L57.1024 209.982L57.5358 210.237ZM68.0878 191.043L68.2603 191.513L68.2604 191.513L68.0878 191.043ZM26.5477 226.955C27.0434 226.888 27.0435 226.888 27.0435 226.888C27.0435 226.888 27.0434 226.888 27.0434 226.888C27.0434 226.888 27.0433 226.887 27.0432 226.886C27.043 226.885 27.0427 226.883 27.0422 226.879C27.0413 226.873 27.04 226.863 27.0381 226.85C27.0345 226.823 27.0291 226.783 27.0225 226.73C27.0092 226.624 26.9907 226.467 26.9703 226.267C26.9296 225.866 26.8817 225.29 26.8535 224.598C26.7969 223.21 26.8198 221.365 27.1319 219.517C27.4451 217.663 28.0425 215.847 29.1043 214.479C30.1511 213.131 31.6645 212.197 33.8899 212.104L33.8636 211.605L33.8374 211.107C31.3056 211.213 29.5259 212.297 28.309 213.864C27.1071 215.412 26.4702 217.408 26.1436 219.342C25.8161 221.281 25.7939 223.2 25.8522 224.628C25.8814 225.343 25.9309 225.939 25.9733 226.357C25.9945 226.566 26.0139 226.731 26.0281 226.844C26.0352 226.9 26.0411 226.944 26.0452 226.974C26.0472 226.989 26.0489 227.001 26.05 227.009C26.0506 227.013 26.051 227.016 26.0513 227.018C26.0515 227.019 26.0516 227.02 26.0517 227.021C26.0518 227.021 26.0518 227.022 26.0518 227.022C26.0519 227.022 26.0519 227.022 26.5477 226.955ZM33.8636 211.605L33.8899 212.104C36.1978 212.007 38.483 212.42 40.7201 212.971C42.9213 213.513 45.1571 214.213 47.1966 214.629C49.2592 215.05 51.2603 215.216 53.1023 214.662C54.9655 214.102 56.6012 212.825 57.9692 210.492L57.5358 210.237L57.1024 209.982C55.8367 212.141 54.3858 213.231 52.8032 213.707C51.1995 214.189 49.3957 214.062 47.3879 213.652C45.3571 213.238 43.2572 212.571 40.951 212.003C38.6807 211.444 36.2867 211.005 33.8374 211.107L33.8636 211.605ZM57.5358 210.237L57.9691 210.492C60.6605 205.908 60.6007 201.913 61.2008 198.82C61.5027 197.263 61.9648 195.919 62.9751 194.731C63.9881 193.54 65.5918 192.459 68.2603 191.513L68.0878 191.043L67.9154 190.572C65.1452 191.555 63.3693 192.715 62.2073 194.082C61.0427 195.452 60.5345 196.983 60.2168 198.621C59.5774 201.917 59.6802 205.591 57.1025 209.982L57.5358 210.237ZM68.0878 191.043L68.2604 191.513C69.9823 190.902 72.1483 191.372 74.6757 192.182C77.1401 192.971 79.9156 194.071 82.6282 194.486C85.3737 194.906 88.1482 194.644 90.6343 192.663C93.0979 190.7 95.2028 187.107 96.7752 181.047L96.29 180.917L95.8047 180.788C94.2553 186.76 92.2246 190.112 90.0031 191.882C87.8042 193.634 85.3443 193.894 82.7702 193.5C80.1633 193.101 77.5342 192.052 74.9734 191.232C72.4755 190.432 69.9956 189.835 67.9153 190.572L68.0878 191.043Z" fill="#FFD440"/>
<path d="M353.761 45.6018V56.0867L363.793 57.522C364.73 62.6587 366.724 67.4176 369.55 71.5572L363.446 79.7004L370.849 87.1033L378.963 81.0299C383.088 83.8853 387.847 85.9249 392.969 86.8767L394.405 96.9537H404.89L406.326 86.922C411.463 85.9853 416.222 83.9912 420.362 81.166L428.506 87.2695L435.91 79.8666L429.836 71.7536C432.691 67.6291 434.731 62.8703 435.683 57.7487L445.761 56.3133V45.8285L435.728 44.3931C434.792 39.2564 432.797 34.4976 429.972 30.358L436.076 22.2148L428.672 14.8118L420.559 20.9004C416.434 18.045 411.674 16.0054 406.552 15.0536L405.117 4.97656H394.631L393.196 15.0083C388.059 15.945 383.299 17.9391 379.159 20.7643L371.016 14.6608L363.612 22.0636L369.686 30.1767C366.83 34.3012 364.791 39.06 363.839 44.1816L353.761 45.617V45.6018ZM399.768 25.5385C413.805 25.5385 425.167 36.9148 425.167 50.935C425.167 64.9552 413.79 76.3314 399.768 76.3314C385.747 76.3314 374.37 64.9552 374.37 50.935C374.37 36.9148 385.747 25.5385 399.768 25.5385Z" stroke="#FFD631" stroke-miterlimit="10"/>
<path d="M320.761 35.4624V38.4267L323.598 38.8251C323.869 40.2754 324.427 41.6141 325.224 42.7935L323.503 45.0885L325.591 47.1762L327.887 45.4551C329.05 46.2679 330.389 46.8417 331.84 47.1126L332.254 49.9652H335.219L335.618 47.1285C337.069 46.8576 338.408 46.2998 339.587 45.5029L341.883 47.2241L343.971 45.1364L342.249 42.8413C343.062 41.6779 343.636 40.3392 343.907 38.8889L346.761 38.4745V35.5102L343.923 35.1118C343.652 33.6615 343.094 32.3228 342.297 31.1434L344.019 28.8484L341.931 26.7607L339.635 28.4819C338.472 27.6691 337.132 27.0952 335.682 26.8243L335.267 23.9717H332.302L331.904 26.8086C330.453 27.0795 329.114 27.6371 327.934 28.434L325.639 26.7128L323.551 28.8007L325.272 31.0956C324.459 32.259 323.885 33.5977 323.614 35.048L320.761 35.4624ZM333.753 29.7888C337.722 29.7888 340.926 33.0081 340.926 36.9606C340.926 40.913 337.706 44.1323 333.753 44.1323C329.8 44.1323 326.579 40.913 326.579 36.9606C326.579 33.0081 329.8 29.7888 333.753 29.7888Z" stroke="#FFD631" stroke-miterlimit="10"/>
<path d="M365.761 112.647V116.173L369.028 116.655C369.334 118.388 369.976 119.985 370.909 121.386L368.926 124.128L371.347 126.629L373.986 124.58C375.328 125.544 376.874 126.222 378.551 126.554L379.018 129.944H382.431L382.898 126.569C384.575 126.252 386.121 125.59 387.477 124.625L390.131 126.674L392.552 124.173L390.569 121.446C391.502 120.06 392.159 118.463 392.479 116.73L395.761 116.248V112.723L392.494 112.241C392.188 110.508 391.546 108.911 390.613 107.51L392.596 104.767L390.175 102.266L387.535 104.315C386.193 103.351 384.648 102.673 382.97 102.342L382.504 98.9517H379.091L378.624 102.327C376.947 102.643 375.401 103.306 374.045 104.27L371.39 102.221L368.969 104.722L370.953 107.449C370.019 108.835 369.363 110.433 369.042 112.165L365.761 112.647ZM380.753 105.897C385.333 105.897 389.037 109.724 389.037 114.455C389.037 119.186 385.333 123.013 380.753 123.013C376.174 123.013 372.47 119.186 372.47 114.455C372.47 109.724 376.174 105.897 380.753 105.897Z" stroke="#FFD631" stroke-miterlimit="10"/>
<path d="M389.375 247.337L354.761 232.918L370.605 266.646L378.257 258.784L387.087 266.91L390.761 262.882L382.056 254.867L389.375 247.337Z" fill="#95C11F"/>
</svg>
