<svg width="327" height="324" viewBox="0 0 327 324" fill="none" xmlns="http://www.w3.org/2000/svg">
<g clip-path="url(#clip0_320_116960)">
<path d="M248.515 120.751C248.515 120.751 263.59 110.806 271.27 104.964C278.95 99.1225 291.513 85.8958 290.774 83.0992C290.034 80.3026 287.081 73.5642 282.797 74.1609C278.513 74.7576 269.209 80.9031 264.69 85.7345C260.158 90.5642 249.195 105.582 243.969 108.866L248.529 120.753L248.515 120.751Z" fill="white"/>
<path d="M248.181 121.798L243.11 108.571L243.598 108.271C247.021 106.121 253.145 98.5775 258.077 92.5277C260.552 89.4831 262.694 86.8421 264.194 85.2493C268.662 80.4812 278.08 74.1129 282.72 73.4653C287.62 72.7678 290.757 80.2437 291.471 82.9111C292.436 86.5486 278.104 100.647 271.718 105.499C264.102 111.279 249.085 121.217 248.932 121.309L248.21 121.788L248.181 121.798ZM244.803 109.129L248.851 119.69C251.953 117.637 264.219 109.434 270.839 104.404C278.955 98.2279 290.654 85.3909 290.092 83.2749C289.305 80.3043 286.502 74.3408 282.876 74.8423C278.935 75.3864 269.84 81.2237 265.175 86.2038C263.709 87.7589 261.584 90.3742 259.124 93.4069C254.356 99.2824 248.453 106.533 244.789 109.127L244.803 109.129Z" fill="#602B7A"/>
<path d="M256.837 95.1336C256.837 95.1336 262.203 88.4417 262.265 83.6107C262.322 79.4505 259.74 71.1666 259.283 67.9316C258.826 64.6966 264.22 70.3579 266.149 74.1224C268.69 79.1002 271.292 88.2959 268.219 94.7024" fill="white"/>
<path d="M256.746 95.8211C256.622 95.8047 256.502 95.7609 256.4 95.6777C256.095 95.4416 256.055 95.0028 256.291 94.6982C256.342 94.6349 261.514 88.1413 261.567 83.5888C261.599 81.0057 260.539 76.6004 259.687 73.0617C259.188 70.996 258.751 69.2043 258.586 68.0077C258.411 66.7819 258.979 66.4091 259.329 66.3014C261.19 65.6933 265.519 71.3541 266.767 73.7982C269.12 78.3877 272.197 88.0235 268.854 94.9958C268.683 95.3369 268.27 95.4923 267.928 95.3214C267.586 95.1505 267.43 94.7384 267.601 94.3973C270.306 88.7536 268.418 80.0995 265.534 74.433C264.141 71.7042 261.142 68.4002 259.965 67.7557C259.963 67.7695 259.96 67.797 259.97 67.8263C260.13 68.9523 260.557 70.7147 261.045 72.7511C261.961 76.5499 262.992 80.8535 262.965 83.6191C262.893 88.6306 257.601 95.2903 257.382 95.5691C257.229 95.7728 256.98 95.8519 256.746 95.8211Z" fill="#602B7A"/>
<path d="M277.072 74.5254C279.752 71.8434 282.926 68.4991 284.728 70.3587C286.716 72.3967 278.88 79.4208 276.057 80.8532C273.233 82.2855 272.277 81.5583 273.28 79.4805C273.996 77.9804 277.072 74.5254 277.072 74.5254Z" fill="white"/>
<path d="M273.474 82.2614C273.13 82.216 272.839 82.0799 272.615 81.8685C272.042 81.3176 272.064 80.4114 272.647 79.1735C273.4 77.6083 276.412 74.2148 276.544 74.0643L276.884 73.7175C279.131 71.4539 281.457 69.1169 283.487 69.1325C284.159 69.1371 284.744 69.3819 285.225 69.8788C285.522 70.1836 285.854 70.7449 285.709 71.6348C285.194 74.7978 278.815 80.2374 276.382 81.4695C275.137 82.0887 274.177 82.3539 273.474 82.2614ZM277.584 74.9985C276.744 75.9508 274.471 78.6305 273.914 79.7739C273.528 80.5762 273.602 80.8656 273.612 80.895C273.612 80.895 274.109 81.0583 275.761 80.2268C278.209 78.9828 283.947 73.8364 284.352 71.4002C284.405 71.0015 284.293 70.889 284.244 70.8405C284.021 70.6154 283.796 70.5158 283.501 70.5189C282.058 70.5108 279.748 72.8358 277.89 74.7031L277.583 75.0123L277.584 74.9985Z" fill="#602B7A"/>
<path d="M280.648 77.3879C283.402 74.7855 286.675 71.5382 288.43 73.4336C290.37 75.5212 281.213 83.0006 278.358 84.345C275.504 85.6894 274.552 84.9347 275.62 82.8935C276.387 81.4282 280.664 77.3759 280.664 77.3759L280.648 77.3879Z" fill="white"/>
<path d="M275.783 85.6984C275.411 85.6494 275.109 85.4977 274.886 85.2725C274.331 84.696 274.38 83.7933 275.001 82.5884C275.792 81.0562 279.733 77.3095 280.181 76.8929L280.501 76.5855C282.809 74.386 285.211 72.1148 287.234 72.1855C287.905 72.2038 288.472 72.4743 288.938 72.9831C289.206 73.2843 289.501 73.8126 289.336 74.6439C288.704 77.8474 281.253 83.7613 278.637 84.9972C277.411 85.5771 276.455 85.8148 275.766 85.724L275.783 85.6984ZM287.305 73.5654C287.305 73.5654 287.236 73.5563 287.195 73.5509C285.744 73.4996 283.371 75.7607 281.466 77.5656L281.145 77.873C279.976 78.9779 276.833 82.0884 276.238 83.1989C275.825 83.9976 275.899 84.2871 275.897 84.3008C275.897 84.3008 275.897 84.3008 275.938 84.3062C276.09 84.3262 276.646 84.3575 278.066 83.6913C280.65 82.4792 287.518 76.7402 287.99 74.3268C288.047 73.9987 287.961 73.9035 287.924 73.8706C287.739 73.6784 287.543 73.5687 287.295 73.5361L287.305 73.5654Z" fill="#602B7A"/>
<path d="M283.311 80.6899C286.176 78.2001 289.571 75.0947 291.246 77.0635C293.09 79.2364 283.634 86.3268 280.725 87.5521C277.817 88.7775 276.898 87.9852 278.043 85.9961C278.864 84.5518 283.311 80.6899 283.311 80.6899Z" fill="white"/>
<path d="M278.177 88.8109C277.763 88.7565 277.447 88.603 277.202 88.333C276.679 87.7326 276.755 86.8335 277.43 85.6496C278.285 84.154 282.374 80.5665 282.834 80.1655L283.182 79.8617C285.589 77.7592 288.061 75.5952 290.087 75.7501C290.74 75.7941 291.318 76.0939 291.768 76.6147C292.035 76.9296 292.3 77.468 292.107 78.2957C291.353 81.4691 283.662 87.0717 280.992 88.1887C279.791 88.6878 278.866 88.9016 278.177 88.8109ZM278.261 87.4235C278.261 87.4235 278.827 87.5959 280.445 86.9138C283.072 85.8052 290.181 80.3637 290.749 77.9631C290.818 77.6505 290.734 77.5416 290.711 77.5104C290.503 77.2734 290.282 77.1463 289.989 77.1357C288.545 77.0295 286.075 79.1798 284.096 80.9051L283.747 81.2089C282.543 82.267 279.264 85.2339 278.628 86.339C278.189 87.1203 278.236 87.4061 278.246 87.4354L278.261 87.4235Z" fill="#602B7A"/>
<path d="M285.482 84.4301C288.632 82.3275 292.415 79.6789 293.826 81.8505C295.376 84.2364 286.491 89.2203 283.437 90.0628C280.382 90.9054 279.59 90.0038 280.98 88.173C281.981 86.8503 285.484 84.4164 285.484 84.4164L285.482 84.4301Z" fill="white"/>
<path d="M281.077 91.0529C280.512 90.9785 280.107 90.7573 279.861 90.3892C279.415 89.7291 279.602 88.8446 280.431 87.765C281.483 86.379 284.94 83.9672 285.094 83.8616L285.478 83.6045C288.137 81.8288 290.888 79.9952 292.866 80.4095C293.52 80.5515 294.049 80.9009 294.421 81.4813C294.653 81.8476 294.868 82.4493 294.547 83.2882C293.455 86.1514 286.333 89.9966 283.641 90.747C282.579 91.0408 281.725 91.1381 281.091 91.0547L281.077 91.0529ZM281.026 89.6335C281.026 89.6335 281.526 89.8812 283.256 89.4097C285.86 88.6897 292.397 85.033 293.237 82.8079C293.368 82.4476 293.275 82.3094 293.24 82.249C293.065 81.988 292.86 81.8353 292.573 81.7834C291.13 81.4537 288.433 83.3082 286.235 84.781L285.866 85.0261C284.91 85.6835 282.287 87.6177 281.524 88.6221C280.981 89.3339 280.998 89.6299 281.009 89.6592L281.026 89.6335Z" fill="#602B7A"/>
<path d="M101.304 156.513C101.304 156.513 200.445 175.819 220.783 164.12C241.121 152.42 269.393 116.661 265.491 107.336C261.602 98.0129 253.4 94.8349 248.34 98.9798C243.281 103.125 215.562 135.321 201.28 133.174C185.818 130.844 164.809 121.127 153.369 113.481C135.201 101.355 73.5565 110.048 101.291 156.511L101.304 156.513Z" fill="white"/>
<path d="M147.839 164.738C123.809 161.574 103.03 157.565 101.185 157.21L100.881 157.17L100.723 156.884C88.5949 136.574 94.0683 124.707 100.807 118.35C113.824 106.036 141.693 104.853 153.793 112.921C165.582 120.795 186.623 130.265 201.412 132.492C212.501 134.19 232.805 113.591 242.544 103.713C245.069 101.15 246.897 99.2933 247.919 98.4489C250.087 96.6784 252.856 96.092 255.719 96.8047C260.008 97.873 263.904 101.715 266.156 107.074C270.152 116.649 241.976 152.743 221.152 164.728C210.066 171.1 176.636 168.53 147.853 164.74L147.839 164.738ZM101.75 155.9C107.848 157.067 201.118 174.649 220.44 163.529C240.354 152.068 268.582 116.54 264.851 107.615C262.784 102.658 259.228 99.1129 255.359 98.1559C252.931 97.5424 250.594 98.0459 248.787 99.5282C247.827 100.325 245.92 102.242 243.522 104.695C232.909 115.465 213.217 135.459 201.367 133.899C201.312 133.892 201.257 133.885 201.188 133.875C185.643 131.535 164.746 121.93 152.996 114.075C141.542 106.427 114.104 107.639 101.74 119.354C92.6759 127.936 92.6791 140.58 101.734 155.912L101.75 155.9Z" fill="#602B7A"/>
<path d="M152.067 113.575C155.576 114.177 156.216 119.002 168.237 124.473C180.245 129.943 199.482 140.126 209.495 135.836C219.507 131.546 240.828 111.319 245.376 106.799C249.926 102.265 252.91 96.7422 260.254 104.311C267.596 111.893 260.534 118.361 257.448 123.172C254.361 127.982 238.289 150.187 218.426 160.41C201.916 168.908 127.187 161.361 117.819 156.603C108.451 151.845 99.0535 104.413 152.067 113.575Z" fill="#95C11F"/>
<path d="M95.7641 250.537C62.615 245.837 34.8771 239.429 40.0326 200.276C45.1863 161.137 49.9629 97.8227 117.504 101.402C185.046 104.981 172.753 173.851 170.634 189.949C165.558 228.497 197.208 264.916 95.7641 250.537Z" fill="white"/>
<path d="M100.424 251.878C98.8666 251.673 97.2821 251.465 95.6598 251.223C61.796 246.414 34.1834 239.268 39.3299 200.184C39.5688 198.369 39.8132 196.513 40.0493 194.614C44.9989 155.854 52.4763 97.2587 117.524 100.719C136.498 101.721 150.895 107.994 160.304 119.359C178.118 140.879 173.378 175.066 171.599 187.937C171.498 188.706 171.404 189.421 171.323 190.04C170.204 198.536 170.869 206.791 171.515 214.764C172.574 227.799 173.489 239.052 165.765 246.3C156.663 254.85 136.415 256.603 100.425 251.864L100.424 251.878ZM95.8546 249.85C133.859 255.26 155.765 253.795 164.802 245.307C172.033 238.511 171.149 227.555 170.125 214.889C169.496 207.212 168.79 198.518 169.929 189.87C170.012 189.238 170.105 188.537 170.208 187.753C171.965 175.048 176.647 141.301 159.22 120.251C150.077 109.201 136.022 103.099 117.44 102.107C89.2658 100.607 69.6269 110.51 57.4248 132.385C46.9835 151.108 43.8921 175.33 41.4133 194.794C41.1635 196.691 40.9311 198.562 40.6922 200.377C35.7032 238.265 61.5343 244.995 95.839 249.862L95.8546 249.85Z" fill="#602B7A"/>
<path d="M155.124 249.291C164.444 249.092 169.64 226.559 167.323 195.821C166.122 179.817 178.358 139.485 154.476 116.997C132.874 96.6706 91.0518 101.947 74.9529 116.05C40.6336 146.104 38.9064 202.016 46.4857 221.741C54.0651 241.466 72.6936 251.052 155.124 249.291Z" fill="#95C11F"/>
<path d="M251.284 300.176C206.229 303.069 111.598 313.279 61.0215 283.487C10.4445 253.694 25.717 250.125 30.3441 247.559C34.9713 244.994 223.965 244.174 237.539 246.899C251.114 249.623 292.286 271.855 293.517 281.025C294.763 290.195 285.142 298.005 251.284 300.176Z" fill="#DDF0FB"/>
<path d="M232.036 80.4695L178.561 73.4281L184.17 30.8384L237.644 37.8798L232.036 80.4695ZM180.12 72.2348L230.839 78.9133L236.085 39.0731L185.366 32.3946L180.12 72.2348Z" fill="#FFD631"/>
<path d="M233.35 41.0066L187.233 34.9341L185.725 46.3857L231.842 52.4583L233.35 41.0066Z" fill="#FFD631"/>
<path d="M224.436 48.6579C224.257 48.6343 224.073 48.5402 223.955 48.3708C223.73 48.0614 223.815 47.6251 224.125 47.4002L229.131 43.8775C229.441 43.6526 229.88 43.7244 230.104 44.0476C230.329 44.357 230.244 44.7933 229.934 45.0182L224.928 48.5409C224.774 48.6465 224.602 48.6797 224.436 48.6579Z" fill="#602B7A"/>
<path d="M228.901 49.2457C228.735 49.224 228.577 49.1472 228.456 49.0053L224.533 44.307C224.291 44.0095 224.32 43.5797 224.62 43.3255C224.92 43.0713 225.349 43.1138 225.603 43.4131L229.526 48.1114C229.768 48.4089 229.739 48.8387 229.439 49.0929C229.282 49.226 229.093 49.2711 228.901 49.2457Z" fill="#602B7A"/>
<path d="M219.778 46.352L215.313 45.7642L215.817 41.9424L220.281 42.5302L219.778 46.352ZM216.872 44.5709L218.581 44.7958L218.722 43.7235L217.014 43.4986L216.872 44.5709Z" fill="#602B7A"/>
<path d="M218.015 47.8125L213.551 47.2246L214.054 43.4028L218.519 43.9907L218.015 47.8125ZM215.11 46.0313L216.819 46.2563L216.96 45.184L215.251 44.959L215.11 46.0313Z" fill="#602B7A"/>
<path d="M209.28 46.6621L205.877 46.214C205.491 46.1632 205.227 45.8208 205.278 45.4359C205.329 45.051 205.672 44.7885 206.058 44.8393L209.461 45.2874C209.847 45.3382 210.11 45.6806 210.059 46.0655C210.009 46.4504 209.666 46.7129 209.28 46.6621Z" fill="#602B7A"/>
<path d="M225.343 59.5464L190.429 54.9489C190.043 54.8981 189.779 54.5557 189.83 54.1708C189.881 53.7858 190.224 53.5233 190.61 53.5741L225.524 58.1716C225.91 58.2224 226.174 58.5648 226.123 58.9497C226.072 59.3346 225.729 59.5972 225.343 59.5464Z" fill="#FFD631"/>
<path d="M224.784 63.7944L189.869 59.1969C189.483 59.1461 189.22 58.8037 189.271 58.4188C189.321 58.0339 189.664 57.7714 190.05 57.8222L224.965 62.4197C225.351 62.4705 225.614 62.8128 225.564 63.1977C225.513 63.5827 225.17 63.8452 224.784 63.7944Z" fill="#FFD631"/>
<path d="M224.225 68.0425L189.31 63.445C188.924 63.3942 188.661 63.0518 188.711 62.6669C188.762 62.2819 189.105 62.0194 189.491 62.0702L224.406 66.6677C224.792 66.7185 225.055 67.0609 225.004 67.4458C224.953 67.8307 224.61 68.0933 224.225 68.0425Z" fill="#FFD631"/>
<path d="M118.178 122.791C118.178 122.791 160.843 116.759 167.541 95.4871C171.823 81.9113 166.234 16.6306 130.828 12.9895C95.425 9.33463 75.3712 63.2668 78.9929 97.5055C80.6268 112.881 116.164 122.33 116.164 122.33C116.164 122.33 117.265 123.02 118.18 122.777L118.178 122.791Z" fill="white"/>
<path d="M117.398 123.499C116.723 123.411 116.132 123.109 115.898 122.966C113.448 122.308 79.94 112.987 78.3116 97.5696C75.9787 75.4725 83.3888 42.085 101.757 23.7347C110.443 15.0463 120.242 11.2039 130.907 12.2866C140.561 13.278 148.75 18.7899 155.257 28.6676C169.359 50.0627 171.205 86.1795 168.215 95.6878C165.371 104.726 156.082 112.146 140.596 117.757C129.484 121.776 119.014 123.363 118.327 123.468C118.024 123.54 117.701 123.539 117.412 123.501L117.398 123.499ZM131.566 13.772C131.305 13.7375 131.029 13.7012 130.767 13.6667C120.547 12.6147 111.115 16.3237 102.735 24.7166C85.333 42.1173 77.3533 75.3598 79.6897 97.4294C81.2553 112.153 115.999 121.567 116.351 121.655L116.537 121.736C116.757 121.877 117.508 122.241 118.015 122.112L118.088 122.094C118.516 122.038 160.399 115.875 166.882 95.2744C169.819 85.955 167.982 50.5108 154.09 29.437C148.003 20.202 140.426 14.9386 131.566 13.772Z" fill="#602B7A"/>
<path d="M97.5276 111.316C89.8679 107.105 82.2111 104.894 81.9885 91.788C81.3981 57.9485 101.014 12.2383 129.963 16.0502C158.912 19.8621 162.879 59.3491 163.759 65.5488C164.639 71.7485 177.153 109.032 123.694 120.398C112.892 122.696 100.73 113.081 97.5276 111.316Z" fill="#95C11F"/>
<path d="M98.8615 42.3182C98.8615 42.3182 98.7926 42.3091 98.765 42.3055C98.4002 42.2015 98.1837 41.8234 98.2739 41.4576C99.2598 37.9092 102.844 31.2344 102.992 30.9602C103.177 30.6209 103.598 30.5086 103.94 30.6795C104.281 30.8641 104.407 31.2864 104.222 31.6257C104.186 31.6908 100.549 38.4426 99.6108 41.8435C99.5242 42.1817 99.1885 42.3893 98.8578 42.3457L98.8615 42.3182Z" fill="#602B7A"/>
<path d="M116.022 120.325C115.926 120.313 115.819 120.271 115.728 120.217C85.7561 100.648 94.789 55.3625 94.8918 54.9005C94.9701 54.5192 95.325 54.2722 95.7191 54.3661C96.1013 54.4444 96.3335 54.8106 96.2552 55.1919C96.1679 55.6419 87.3114 100.014 116.497 119.059C116.82 119.27 116.903 119.7 116.693 120.022C116.536 120.253 116.284 120.36 116.022 120.325Z" fill="#602B7A"/>
<path d="M128.844 24.3369L128.83 24.335C117.377 22.827 106.873 30.8677 105.369 42.2945L100.499 79.2752C98.9946 90.7019 107.059 101.188 118.512 102.696L118.525 102.698C129.978 104.206 140.482 96.1649 141.987 84.7381L146.856 47.7574C148.361 36.3306 140.296 25.8449 128.844 24.3369Z" fill="white"/>
<path d="M118.423 103.369C106.601 101.812 98.2608 90.9521 99.8121 79.1705L104.68 42.2035C106.233 30.4082 117.112 22.0926 128.92 23.6474C140.729 25.2023 149.083 36.0645 147.531 47.8461L142.664 84.813C141.11 96.6084 130.231 104.924 118.423 103.369ZM128.741 25.0084C117.677 23.5515 107.511 31.3457 106.06 42.3712L101.192 79.3382C99.7382 90.3774 107.555 100.526 118.606 101.981C129.656 103.436 139.836 95.6433 141.287 84.6179L146.153 47.6646C147.607 36.6254 139.79 26.4773 128.739 25.0222L128.741 25.0084Z" fill="#602B7A"/>
<path d="M125.149 76.7721L117.957 75.825L123.354 61.7667C123.486 61.4064 123.889 61.2217 124.248 61.3669C124.609 61.4984 124.781 61.8986 124.649 62.2589L119.874 74.6789L125.316 75.3955C125.702 75.4463 125.965 75.7887 125.915 76.1736C125.864 76.5586 125.521 76.8211 125.135 76.7703L125.149 76.7721Z" fill="#602B7A"/>
<path d="M120.287 89.3209L120.259 89.3173C115.588 88.7022 112.961 84.3842 112.859 84.2029L111.412 81.7747L113.825 83.2532C117.989 85.8015 129.323 84.0353 129.439 84.0086L131.63 83.6538L130.026 85.1908C126.738 88.3382 123.458 89.7244 120.289 89.3071L120.287 89.3209ZM115.667 85.4399C116.774 86.5087 118.401 87.674 120.468 87.9461C122.659 88.2346 124.973 87.4765 127.341 85.6764C124.412 85.99 119.335 86.3285 115.669 85.4262L115.667 85.4399Z" fill="#602B7A"/>
<path d="M146.898 47.4405C146.898 47.4405 144.235 47.4395 140.403 47.3686C134.572 47.2581 126.074 46.9643 120.218 46.1932C110.725 44.9431 105.426 41.9657 105.426 41.9657C105.426 41.9657 98.6821 13.0221 130.245 17.5278C160.733 21.892 146.9 47.4268 146.9 47.4268L146.898 47.4405Z" fill="#602B7A"/>
<path d="M140.403 47.3688C140.403 47.3688 111.096 57.4536 91.4654 52.9246C71.8381 48.3682 105.41 41.9778 105.41 41.9778C105.41 41.9778 110.709 44.9553 120.203 46.2053C126.059 46.9764 134.557 47.2702 140.387 47.3807L140.403 47.3688Z" fill="#FFD631"/>
<path d="M95.292 54.3098C93.9279 54.1301 92.5986 53.8992 91.3197 53.6049C86.6534 52.5289 84.5875 51.2918 84.6256 49.6186C84.6995 45.5444 100.458 42.221 105.289 41.3046L105.534 41.253L105.755 41.38C105.755 41.38 111.076 44.3043 120.293 45.5181C126.466 46.3309 135.542 46.6029 140.395 46.6826L143.316 47.0672L140.625 48.0274C140.347 48.1167 114.637 56.8571 95.2782 54.3079L95.292 54.3098ZM105.301 42.7047C96.0087 44.5021 86.0361 47.6365 85.9959 49.6451C85.9944 49.8687 86.2372 51.0056 91.611 52.2446C106.558 55.7233 127.474 50.4916 136.149 47.9555C131.233 47.8118 124.84 47.5014 120.1 46.8773C111.571 45.7542 106.416 43.2851 105.289 42.6892L105.301 42.7047Z" fill="#602B7A"/>
<path d="M119.621 120.561C119.456 120.54 119.298 120.463 119.176 120.321C118.935 120.023 118.964 119.594 119.264 119.339C119.485 119.145 142.013 100.293 148.596 82.9785C155.176 65.6913 149.692 39.5289 149.63 39.255C149.553 38.8812 149.784 38.5062 150.159 38.4296C150.535 38.3393 150.909 38.5844 150.986 38.9581C151.05 39.2183 156.608 65.7819 149.893 83.457C143.18 101.118 120.384 120.2 120.15 120.379C119.992 120.512 119.804 120.557 119.611 120.532L119.621 120.561Z" fill="#602B7A"/>
<path d="M132.692 27.2628L123.24 26.0182C122.468 25.9166 121.766 26.4536 121.665 27.2235L120.423 36.6542C120.322 37.4241 120.86 38.1244 121.632 38.226L124.429 38.5943L125.57 40.255C125.894 40.5634 126.362 40.6251 126.755 40.411L128.287 39.1023L131.084 39.4706C131.856 39.5722 132.557 39.0352 132.659 38.2654L133.9 28.8346C134.002 28.0647 133.463 27.3644 132.692 27.2628Z" fill="white"/>
<path d="M138.348 62.4404C138.053 64.6812 136.738 66.3681 135.415 66.1939C134.271 66.0434 133.5 64.5572 133.491 62.7098C133.488 62.4157 133.514 62.1114 133.553 61.809C133.593 61.5066 133.649 61.1922 133.728 60.9089C134.215 59.1269 135.343 57.9048 136.487 58.0554C137.809 58.2296 138.645 60.1858 138.348 62.4404Z" fill="#602B7A"/>
<path d="M135.634 62.0832C135.571 62.5643 134.609 62.8432 133.491 62.71C133.488 62.4159 133.514 62.1116 133.553 61.8092C133.593 61.5067 133.649 61.1924 133.728 60.9091C134.842 61.0698 135.697 61.602 135.634 62.0832Z" fill="white"/>
<path d="M115.572 59.4414C115.277 61.6822 113.962 63.3691 112.639 63.1949C111.495 63.0443 110.724 61.5581 110.715 59.7108C110.712 59.4167 110.738 59.1124 110.777 58.81C110.817 58.5075 110.873 58.1932 110.952 57.9099C111.439 56.1279 112.567 54.9058 113.711 55.0564C115.033 55.2306 115.869 57.1868 115.572 59.4414Z" fill="#602B7A"/>
<path d="M112.858 59.0841C112.795 59.5653 111.833 59.8442 110.715 59.711C110.712 59.4169 110.738 59.1126 110.777 58.8102C110.817 58.5077 110.873 58.1933 110.952 57.9101C112.066 58.0708 112.921 58.603 112.858 59.0841Z" fill="white"/>
<path d="M115.108 154.834C114.984 154.817 114.878 154.775 114.777 154.692C114.471 154.456 114.415 154.029 114.652 153.725C114.687 153.673 118.744 148.305 116.183 142.094C114.643 138.353 115.857 135.1 117.138 131.647C118.245 128.674 119.393 125.594 118.757 122.014C118.503 120.54 118.1 120.193 117.95 120.159C116.326 120.141 112.367 128.389 111.478 132.901C111.033 135.109 108.569 146.266 103.083 148.859C102.739 149.023 102.325 148.871 102.16 148.527C101.995 148.184 102.147 147.77 102.491 147.606C106.272 145.824 108.972 138.417 110.125 132.639C110.791 129.286 114.758 118.746 117.978 118.778C119.055 118.794 119.792 119.8 120.146 121.791C120.844 125.757 119.583 129.157 118.459 132.156C117.223 135.476 116.143 138.355 117.483 141.594C120.364 148.561 115.956 154.358 115.77 154.599C115.617 154.803 115.367 154.896 115.132 154.865L115.108 154.834Z" fill="#602B7A"/>
<path d="M142.6 161.727L138.767 162.522L136.879 166.106L136.042 162.248L132.473 160.393L136.447 159.49L138.21 156.002L139.068 159.919L142.6 161.727Z" fill="#FFD631"/>
<path d="M236.572 175.681L232.753 176.479L230.851 180.061L230.014 176.202L226.459 174.35L230.419 173.444L232.18 169.97L233.053 173.875L236.572 175.681Z" fill="#FFD631"/>
<path d="M212.151 108.424L206.89 109.522L204.265 114.449L203.114 109.136L198.221 106.59L203.671 105.336L206.095 100.55L207.306 105.94L212.151 108.424Z" fill="#FFD631"/>
<path d="M66.8025 275.884C72.8809 282.95 79.8432 288.413 89.9207 285.866C98.8674 283.603 95.4932 278.25 89.8945 272.226C84.4669 266.392 75.4334 262.182 69.1281 262.694C62.3124 263.251 60.9433 269.071 66.8025 275.884Z" fill="#602B7A"/>
<path d="M70.9684 278.419C70.7755 278.394 70.5797 278.284 70.4636 278.101C70.2536 277.78 70.3529 277.345 70.6868 277.151C79.6702 271.523 89.9201 273.628 90.3556 273.727C90.724 273.804 90.9699 274.172 90.8917 274.553C90.8134 274.934 90.4447 275.18 90.0644 275.088C89.9679 275.075 79.9246 272.997 71.4292 278.326C71.2908 278.42 71.1182 278.453 70.9666 278.433L70.9684 278.419Z" fill="white"/>
<path d="M89.012 285.634C88.7227 285.596 88.4724 285.367 88.414 285.066C87.4361 279.399 80.9641 276.281 80.897 276.258C80.5532 276.101 80.399 275.675 80.5701 275.334C80.7274 274.991 81.1404 274.835 81.4961 275.008C81.7865 275.144 88.6832 278.444 89.7892 284.841C89.8524 285.213 89.595 285.571 89.2223 285.634C89.1498 285.652 89.0809 285.643 89.012 285.634Z" fill="white"/>
<path d="M79.3351 274.919C80.6051 276.345 82.4795 277.333 83.5012 277.132C84.523 276.931 84.3019 275.629 83.0402 274.246C81.7785 272.863 79.9592 271.882 78.9273 272.054C77.8955 272.226 78.0632 273.507 79.3213 274.917L79.3351 274.919Z" fill="white"/>
<path d="M89.8889 251.19L237.539 246.899C238.242 246.991 238.885 247.328 239.364 247.838L268.638 290.378L119.75 296.087L87.0236 255.918C85.4978 253.773 87.271 250.846 89.8889 251.19Z" fill="#FFD631"/>
<path d="M119.431 296.8L119.214 296.534L86.4881 256.365C85.5894 255.1 85.5405 253.555 86.3122 252.272C87.0821 251.002 88.4601 250.331 89.9225 250.509L237.518 246.21C237.518 246.21 237.545 246.214 237.559 246.216C238.51 246.341 239.297 246.752 239.874 247.374L269.927 291.023L119.431 296.8ZM89.7984 251.878C88.6823 251.731 87.8855 252.353 87.4954 252.973C87.1174 253.609 86.9439 254.607 87.5949 255.518L120.082 295.375L267.365 289.72L238.796 248.211C238.488 247.891 237.99 247.629 237.453 247.558L89.802 251.85L89.7984 251.878Z" fill="#602B7A"/>
<path d="M104.913 258.343L98.7167 258.241L102.741 262.379L109.127 262.534L104.913 258.343Z" fill="#602B7A"/>
<path d="M112.967 263.922L103.759 263.59L107.782 267.742L117.181 268.113L112.967 263.922Z" fill="#602B7A"/>
<path d="M112.836 258.422L106.642 258.306L110.667 262.444L117.051 262.613L112.836 258.422Z" fill="#602B7A"/>
<path d="M120.756 264.066L114.546 263.961L118.585 268.102L124.968 268.271L120.756 264.066Z" fill="#602B7A"/>
<path d="M128.638 264.251L122.429 264.133L126.466 268.287L132.852 268.442L128.638 264.251Z" fill="#602B7A"/>
<path d="M121.069 275.1L111.86 274.783L115.884 278.921L125.283 279.292L121.069 275.1Z" fill="#602B7A"/>
<path d="M128.856 275.258L122.648 275.14L126.685 279.294L133.07 279.449L128.856 275.258Z" fill="#602B7A"/>
<path d="M136.74 275.429L130.53 275.325L134.568 279.465L140.952 279.634L136.74 275.429Z" fill="#602B7A"/>
<path d="M120.666 258.684L114.47 258.581L118.494 262.719L124.878 262.889L120.666 258.684Z" fill="#602B7A"/>
<path d="M128.41 258.738L122.202 258.62L126.241 262.76L132.624 262.929L128.41 258.738Z" fill="#602B7A"/>
<path d="M114.266 269.281L108.058 269.163L112.095 273.317L118.48 273.472L114.266 269.281Z" fill="#602B7A"/>
<path d="M122.191 269.346L115.981 269.241L120.02 273.381L126.404 273.551L122.191 269.346Z" fill="#602B7A"/>
<path d="M130.019 269.621L123.809 269.517L127.848 273.657L134.231 273.826L130.019 269.621Z" fill="#602B7A"/>
<path d="M137.752 269.661L131.555 269.558L135.58 273.696L141.964 273.866L137.752 269.661Z" fill="#602B7A"/>
<path d="M122.693 280.657L116.484 280.538L120.509 284.677L126.907 284.848L122.693 280.657Z" fill="#602B7A"/>
<path d="M130.618 280.721L124.408 280.617L128.433 284.755L134.816 284.924L130.618 280.721Z" fill="#602B7A"/>
<path d="M138.446 280.996L132.237 280.878L136.26 285.03L142.646 285.186L138.446 280.996Z" fill="#602B7A"/>
<path d="M146.178 281.036L139.968 280.931L144.007 285.071L150.392 285.227L146.178 281.036Z" fill="#602B7A"/>
<path d="M92.1685 246.12C98.1812 249.107 103.944 248.454 110.011 247.84C114.997 247.336 119.648 246.186 124.912 244.641C125.496 244.466 125.944 243.938 125.896 243.344C125.867 243.033 125.697 242.829 125.291 242.929C119.113 242.801 107.259 242.443 101.945 241.491C97.3035 240.656 89.3628 240.282 84.8648 237.927C80.2345 235.514 86.4685 243.313 92.1649 246.147L92.1685 246.12Z" fill="white"/>
<path d="M91.8822 246.698C87.6979 244.622 82.7034 239.545 82.6092 237.812C82.5873 237.446 82.7392 237.144 83.0144 236.971C83.4592 236.68 84.1032 236.792 85.1649 237.352C88.3658 239.018 93.5621 239.688 97.737 240.238C99.3078 240.445 100.81 240.643 102.056 240.863C106.903 241.739 117.324 242.118 125.235 242.292C125.651 242.221 125.93 242.342 126.096 242.462C126.276 242.583 126.495 242.836 126.532 243.302C126.599 244.178 125.999 245.008 125.096 245.267C120.531 246.61 115.548 247.94 110.079 248.492L109.71 248.528C105.334 248.972 101.129 249.398 96.8355 248.469C95.2001 248.114 93.5506 247.547 91.8666 246.71L91.8822 246.698ZM101.823 242.105C100.604 241.888 99.1293 241.694 97.5585 241.487C93.0529 240.894 87.9513 240.25 84.5546 238.474C84.3707 238.38 84.2264 238.305 84.106 238.261C85.0255 239.795 88.6503 243.671 92.4393 245.554C98.1752 248.407 103.703 247.835 109.571 247.237L109.94 247.201C115.296 246.662 120.22 245.352 124.726 244.03C124.945 243.961 125.164 243.793 125.224 243.55C117.256 243.382 106.766 242.993 101.823 242.105Z" fill="#602B7A"/>
<path d="M57.4424 242.75C57.4424 242.75 106.388 266.943 116.433 273.371C125.769 279.327 124.118 271.963 107.906 263.395C107.906 263.395 134.114 280.356 135.145 278.38C136.177 276.404 110.144 260.025 110.144 260.025C110.144 260.025 139.568 276.627 140.681 274.452C141.794 272.277 112.478 256.458 112.478 256.458C112.478 256.458 138.917 271.031 140.439 269.049C141.962 267.068 114.812 252.892 114.812 252.892L66.5762 229.379L57.4286 242.748L57.4424 242.75Z" fill="white"/>
<path d="M121.796 272.776C122.44 273.63 122.767 274.345 122.779 274.892C122.786 275.368 122.565 275.773 122.172 275.987C120.918 276.675 118.178 275.237 116.095 273.914C106.191 267.589 57.6424 243.574 57.1561 243.328C56.9842 243.249 56.8645 243.094 56.8174 242.92C56.7702 242.746 56.8093 242.555 56.9137 242.401L66.0613 229.032C66.2353 228.775 66.5841 228.681 66.8745 228.818L115.138 252.333C121.079 255.437 140.505 265.785 141.138 268.638C141.21 268.941 141.145 269.226 140.974 269.456C140.604 269.924 140.06 270.65 133.457 267.78C142.08 273.195 141.628 274.073 141.286 274.755C141.209 274.913 141.027 275.127 140.676 275.234C138.984 275.739 131.083 271.971 123.608 268.064C136.639 276.94 136.127 277.95 135.75 278.684C135.637 278.906 135.419 279.074 135.156 279.151C134.952 279.208 134.675 279.185 134.307 279.109C132.1 278.623 127.063 275.889 121.834 272.809L121.796 272.776ZM110.47 259.467C123.048 266.564 136.935 273.623 139.886 273.997C138.162 271.868 126.565 264.873 114.824 258.446C113.214 257.576 112.207 257.024 112.182 257.007C111.867 256.84 111.765 256.449 111.932 256.135C112.1 255.821 112.493 255.705 112.792 255.885C112.82 255.888 113.866 256.459 115.525 257.377C126.269 263.184 137.286 268.508 139.713 268.604C138.137 266.522 126.017 259.458 114.541 253.458L66.7918 230.191L58.3731 242.495C64.2552 245.409 107.436 266.858 116.773 272.814C119.786 274.735 121.16 274.944 121.493 274.862C121.533 274.238 120.156 272.351 116.876 269.793C113.013 267.41 109.522 265.174 107.558 263.909C107.275 263.717 107.184 263.342 107.35 263.042C107.529 262.744 107.908 262.64 108.208 262.805C111.995 264.814 115.083 266.802 117.437 268.622C125.219 273.395 132.124 277.269 134.28 277.819C132.366 275.427 120.812 267.472 109.81 260.541C109.511 260.362 109.422 259.972 109.602 259.674C109.746 259.428 110.026 259.325 110.286 259.373C110.341 259.38 110.408 259.403 110.46 259.438L110.47 259.467Z" fill="#602B7A"/>
<path d="M63.3884 122.332C63.3884 122.332 18.87 170.972 12.6123 195.715C6.35279 220.47 83.3436 268.216 89.7756 257.693C96.2076 247.169 100.776 241.855 89.6056 235.671C78.4212 229.485 52.479 207.523 50.7908 198.308C49.1026 189.093 92.0463 149.643 92.0463 149.643" fill="white"/>
<path d="M84.1795 259.739C81.038 259.325 77.273 258.004 73.979 256.62C49.9221 246.529 7.04641 214.883 11.9342 195.541C18.1637 170.907 61.0569 123.857 62.876 121.858C63.1381 121.571 63.5743 121.559 63.8622 121.821C64.1502 122.082 64.1629 122.517 63.9009 122.805C63.4582 123.292 19.4332 171.592 13.2766 195.886C8.74237 213.82 50.296 245.18 74.511 255.347C82.428 258.669 87.9083 259.419 89.178 257.334C89.6778 256.519 90.1585 255.743 90.6373 254.981C93.9789 249.617 96.3821 245.738 95.5254 242.45C94.9564 240.277 92.9709 238.323 89.2605 236.268C77.7617 229.915 51.8369 207.928 50.1023 198.427C49.8239 196.922 48.9858 192.322 70.2833 170.036C80.7047 159.129 91.4697 149.232 91.5807 149.134C91.8667 148.878 92.2992 148.893 92.556 149.179C92.8128 149.465 92.798 149.896 92.512 150.152C80.6478 161.051 50.1356 190.935 51.4674 198.173C53.1156 207.16 78.9105 228.962 89.9387 235.057C94.003 237.299 96.2039 239.532 96.8756 242.096C97.8803 245.963 95.338 250.048 91.8169 255.71C91.3537 256.46 90.8593 257.234 90.3732 258.051C89.3369 259.747 87.0197 260.099 84.1951 259.727L84.1795 259.739Z" fill="#602B7A"/>
<path d="M68.4045 122.88C68.4045 122.88 35.2387 160.569 26.5336 174.835C19.687 186.059 12.9123 196.523 18.5647 206.079C24.2189 215.62 36.8603 229.69 46.3747 236.104C55.8891 242.518 79.3709 259.637 86.0192 257.478C92.6674 255.319 95.2728 245.326 94.3963 242.721C93.5198 240.116 91.753 238.737 84.5046 234.915C77.2561 231.094 49.5086 208.685 48.9036 200.186C48.2985 191.687 51.8209 187.185 55.5064 182.51C59.1919 177.834 79.5631 158.112 83.6415 154.816C87.7199 151.521 94.8554 146.727 94.8554 146.727L68.4027 122.894L68.4045 122.88Z" fill="#95C11F"/>
<path d="M151.11 190.567L289.499 186.245C292.213 186.602 294.114 189.09 293.76 191.785L268.64 290.364L119.751 296.073L145.548 194.8C145.905 192.091 148.397 190.196 151.098 190.552L151.11 190.567Z" fill="#FFD631"/>
<path d="M118.854 296.822L144.88 194.656C145.273 191.673 148.081 189.511 151.144 189.886L289.476 185.57L289.489 185.572C292.686 185.993 294.85 188.823 294.445 191.903L269.192 291.066L268.672 291.081L118.852 296.836L118.854 296.822ZM151.019 191.255C148.691 190.948 146.555 192.583 146.249 194.906L120.657 295.367L268.096 289.705L293.08 191.625C293.375 189.384 291.723 187.237 289.395 186.93L151.006 191.253L151.019 191.255Z" fill="#602B7A"/>
<path d="M208.109 233.009L220.207 233.218C221.158 233.231 221.738 234.049 221.525 235.028L218.718 247.399C218.484 248.431 217.501 249.295 216.517 249.319L212.888 249.415L210.634 251.523C210.08 251.898 209.431 251.925 209.042 251.58L207.752 249.564L203.94 249.663C202.871 249.69 202.24 248.838 202.509 247.754L205.797 234.817C206.058 233.788 207.105 232.975 208.127 232.984L208.109 233.009Z" fill="#602B7A"/>
<path d="M83.6657 231.812C83.6657 231.812 83.6381 231.808 83.6244 231.806C83.2422 231.728 82.9945 231.374 83.0727 230.992L84.0318 225.944L84.7955 226.212C84.8644 226.221 92.0698 228.667 98.2717 224.574C104.259 220.622 101.145 213.932 101 213.647L100.463 212.513L101.706 212.649C101.941 212.68 125.339 215.313 139.756 215.366C140.136 215.36 140.444 215.68 140.45 216.059C140.456 216.437 140.136 216.744 139.756 216.75C127.077 216.703 107.551 214.677 102.686 214.149C103.44 216.514 104.482 222.119 99.0471 225.711C93.4267 229.433 87.2542 228.298 85.1134 227.737L84.4553 231.244C84.3926 231.614 84.0395 231.847 83.6813 231.8L83.6657 231.812Z" fill="#602B7A"/>
<path d="M302.476 129.954C301.856 129.873 301.242 129.638 300.69 129.257L295.939 125.947C295.053 125.326 294.461 124.395 294.264 123.334C294.068 122.274 294.309 121.187 294.93 120.303L298.245 115.565C298.866 114.682 299.799 114.091 300.862 113.896C301.925 113.7 303.001 113.94 303.9 114.561L308.651 117.872C310.487 119.149 310.938 121.684 309.66 123.516L306.345 128.254C305.447 129.534 303.937 130.146 302.476 129.954ZM301.484 128.117C302.691 128.961 304.356 128.663 305.202 127.46L308.517 122.722C309.362 121.518 309.062 119.857 307.856 119.012L303.105 115.702C302.515 115.288 301.806 115.139 301.103 115.256C300.401 115.373 299.788 115.768 299.374 116.357L296.059 121.095C295.645 121.684 295.496 122.392 295.616 123.079C295.747 123.782 296.13 124.391 296.72 124.805L301.471 128.116L301.484 128.117Z" fill="#FFD631"/>
<path d="M300.586 124.824L300.756 117.896C300.763 117.519 301.084 117.212 301.462 117.219C301.853 117.229 302.147 117.547 302.14 117.924L302.03 122.693L313.287 117.895C313.643 117.747 314.042 117.911 314.206 118.268C314.355 118.623 314.19 119.021 313.833 119.184L300.586 124.824Z" fill="#FFD631"/>
<path d="M224.811 81.4759C224.642 81.6915 224.386 81.8256 224.057 81.8801C224.361 82.0181 224.573 82.2139 224.68 82.4658C224.787 82.7176 224.825 83.0722 224.767 83.5121L224.291 87.1277C224.179 87.98 224.534 88.4744 225.347 88.5814L225.76 88.6359L225.588 89.9419L224.858 89.8457C224.031 89.7369 223.438 89.449 223.066 88.9803C222.707 88.5135 222.566 87.8796 222.673 87.0685L223.172 83.2742C223.245 82.7243 223.033 82.4166 222.537 82.3513L221.958 82.2751L222.132 80.9554L222.711 81.0316C223.207 81.0969 223.491 80.8546 223.563 80.3047L224.063 76.5104C224.168 75.713 224.456 75.1216 224.937 74.7654C225.405 74.4074 226.066 74.2847 226.893 74.3935L227.623 74.4897L227.451 75.7957L227.038 75.7413C226.225 75.6342 225.755 76.006 225.641 76.8721L225.165 80.4877C225.105 80.9413 224.991 81.2759 224.811 81.4759Z" fill="#FFD631"/>
<path d="M240.733 83.4048L240.559 84.7246L239.994 84.6502C239.512 84.5867 239.228 84.829 239.155 85.3789L238.656 89.1732C238.551 89.9705 238.263 90.562 237.781 90.9181C237.3 91.2743 236.653 91.3989 235.826 91.29L235.096 91.1939L235.268 89.8879L235.667 89.9405C236.508 90.0511 236.977 89.6794 237.091 88.8133L237.567 85.1977C237.629 84.7303 237.743 84.3957 237.91 84.1939C238.076 83.9921 238.332 83.8579 238.662 83.8034C238.358 83.6655 238.145 83.4697 238.036 83.2316C237.928 82.9935 237.904 82.6407 237.965 82.1733L238.442 78.5577C238.554 77.7053 238.198 77.211 237.358 77.1003L236.958 77.0477L237.13 75.7417L237.861 75.8379C238.687 75.9467 239.28 76.2346 239.653 76.7032C240.026 77.1719 240.153 77.804 240.046 78.6151L239.546 82.4094C239.474 82.9593 239.686 83.2669 240.168 83.3304L240.733 83.4048Z" fill="#FFD631"/>
<path d="M296.212 173.59L292.009 173.037L291.977 169.984C290.814 169.551 289.734 168.919 288.785 168.137L286.121 169.632L283.536 166.271L285.674 164.091C285.164 162.961 284.845 161.758 284.727 160.526L281.794 159.706L282.346 155.513L285.406 155.482C285.839 154.322 286.471 153.245 287.256 152.285L285.754 149.64L289.121 147.062L291.308 149.196C292.44 148.688 293.645 148.371 294.88 148.254L295.7 145.327L299.902 145.881L299.935 148.934C301.097 149.367 302.178 149.998 303.14 150.782L305.804 149.287L308.389 152.648L306.251 154.829C306.761 155.959 307.08 157.161 307.198 158.394L310.132 159.214L309.58 163.407L306.52 163.437C306.087 164.597 305.454 165.674 304.669 166.634L306.169 169.293L302.802 171.871L300.616 169.737C299.484 170.245 298.278 170.562 297.043 170.679L296.224 173.606L296.212 173.59ZM293.389 171.82L295.208 172.059L295.973 169.335L296.466 169.316C297.863 169.248 299.199 168.893 300.43 168.272L300.88 168.051L302.917 170.04L304.367 168.93L302.981 166.468L303.324 166.093C304.26 165.056 304.948 163.874 305.389 162.547L305.549 162.079L308.385 162.046L308.624 160.232L305.893 159.467L305.874 158.975C305.805 157.581 305.448 156.247 304.825 155.018L304.603 154.57L306.595 152.538L305.482 151.091L303.015 152.472L302.64 152.129C301.6 151.195 300.414 150.508 299.085 150.067L298.615 149.907L298.583 147.064L296.764 146.824L295.999 149.549L295.506 149.567C294.109 149.635 292.773 149.991 291.542 150.612L291.092 150.832L289.055 148.844L287.605 149.954L288.991 152.416L288.648 152.79C287.712 153.828 287.024 155.01 286.583 156.336L286.423 156.805L283.587 156.837L283.348 158.652L286.079 159.417L286.096 159.923C286.165 161.316 286.522 162.65 287.145 163.879L287.368 164.314L285.377 166.345L286.49 167.793L288.957 166.411L289.332 166.754C290.372 167.688 291.557 168.376 292.887 168.817L293.357 168.977L293.389 171.82ZM294.921 167.42C290.526 166.842 287.414 162.796 287.992 158.41C288.569 154.025 292.622 150.922 297.018 151.501C301.413 152.08 304.525 156.126 303.947 160.511C303.37 164.897 299.317 167.999 294.921 167.42ZM296.838 152.862C293.201 152.383 289.849 154.948 289.371 158.578C288.893 162.207 291.467 165.553 295.104 166.032C298.742 166.511 302.093 163.945 302.571 160.316C303.049 156.687 300.476 153.341 296.838 152.862Z" fill="#FFD631"/>
<path d="M127.857 204.498C127.664 204.472 127.478 204.392 127.329 204.247L127.305 204.215C126.906 203.841 126.889 203.224 127.264 202.825C127.639 202.427 128.258 202.411 128.657 202.785C129.056 203.159 129.085 203.792 128.71 204.191C128.483 204.426 128.16 204.538 127.871 204.5L127.857 204.498ZM119.274 196.333C119.081 196.307 118.895 196.227 118.746 196.082L118.722 196.05C118.323 195.676 118.306 195.059 118.681 194.66C119.056 194.262 119.675 194.246 120.074 194.62C120.473 194.994 120.502 195.627 120.127 196.026C119.9 196.261 119.577 196.373 119.288 196.335L119.274 196.333ZM110.691 188.168C110.498 188.142 110.313 188.062 110.163 187.916L110.14 187.885C109.74 187.511 109.723 186.894 110.098 186.495C110.473 186.097 111.092 186.081 111.491 186.455C111.891 186.829 111.919 187.462 111.545 187.861C111.317 188.096 110.994 188.208 110.705 188.17L110.691 188.168ZM102.108 180.003C101.915 179.977 101.73 179.897 101.581 179.751L101.557 179.72C101.157 179.346 101.141 178.728 101.515 178.33C101.89 177.932 102.509 177.916 102.908 178.29C103.308 178.664 103.336 179.297 102.962 179.696C102.734 179.931 102.411 180.043 102.122 180.005L102.108 180.003Z" fill="white"/>
<path d="M183.227 186.391C182.773 186.331 182.413 185.976 182.378 185.496L182.383 185.454C182.342 184.917 182.755 184.44 183.291 184.413C183.841 184.388 184.308 184.785 184.334 185.333C184.375 185.87 183.96 186.361 183.408 186.4C183.339 186.391 183.269 186.396 183.213 186.389L183.227 186.391ZM182.498 174.574C182.044 174.515 181.686 174.146 181.649 173.679L181.654 173.638C181.613 173.101 182.024 172.638 182.576 172.599C183.114 172.558 183.591 172.984 183.618 173.519C183.646 174.054 183.231 174.545 182.695 174.572C182.626 174.563 182.569 174.57 182.5 174.561L182.498 174.574ZM181.769 162.758C181.315 162.698 180.957 162.33 180.92 161.863L180.925 161.822C180.884 161.285 181.295 160.822 181.847 160.783C182.384 160.755 182.862 161.168 182.89 161.703C182.917 162.238 182.502 162.729 181.966 162.756C181.897 162.747 181.84 162.754 181.771 162.745L181.769 162.758ZM181.04 150.942C180.586 150.882 180.228 150.514 180.191 150.047L180.197 150.006C180.155 149.469 180.567 149.006 181.118 148.966C181.656 148.925 182.119 149.35 182.161 149.887C182.188 150.422 181.773 150.913 181.237 150.94C181.168 150.931 181.111 150.938 181.042 150.928L181.04 150.942ZM180.312 139.126C179.857 139.066 179.497 138.711 179.462 138.231L179.468 138.19C179.426 137.653 179.839 137.176 180.376 137.149C180.926 137.123 181.39 137.534 181.418 138.069C181.459 138.606 181.044 139.097 180.492 139.136C180.424 139.127 180.353 139.132 180.298 139.124L180.312 139.126ZM179.583 127.31C179.128 127.25 178.768 126.895 178.733 126.415L178.739 126.374C178.697 125.837 179.11 125.36 179.647 125.332C180.197 125.307 180.663 125.704 180.689 126.253C180.715 126.802 180.315 127.281 179.764 127.32C179.695 127.311 179.624 127.315 179.569 127.308L179.583 127.31ZM178.854 115.494C178.399 115.434 178.039 115.079 178.004 114.599L178.01 114.558C177.968 114.021 178.382 113.544 178.918 113.516C179.468 113.491 179.934 113.888 179.96 114.437C179.986 114.986 179.586 115.464 179.035 115.504C178.966 115.495 178.895 115.499 178.84 115.492L178.854 115.494ZM178.125 103.678C177.67 103.618 177.312 103.249 177.275 102.783L177.281 102.741C177.239 102.204 177.651 101.741 178.203 101.702C178.741 101.661 179.217 102.087 179.245 102.622C179.273 103.158 178.857 103.648 178.321 103.676C178.252 103.667 178.195 103.673 178.127 103.664L178.125 103.678ZM177.396 91.8616C176.941 91.8017 176.581 91.4466 176.558 90.9821L176.564 90.9408C176.509 90.4021 176.922 89.9251 177.46 89.884C178.012 89.8448 178.476 90.2556 178.518 90.7925C178.559 91.3295 178.158 91.8221 177.606 91.8613C177.535 91.866 177.465 91.8706 177.396 91.8616Z" fill="white"/>
<path d="M244.275 181.269C244.137 181.251 244.003 181.205 243.874 181.118C243.423 180.821 243.277 180.228 243.574 179.778L243.58 179.737C243.891 179.288 244.497 179.158 244.962 179.457C245.414 179.754 245.544 180.359 245.245 180.823C245.032 181.159 244.647 181.318 244.275 181.269ZM250.688 171.316C250.55 171.298 250.43 171.254 250.299 171.181C249.832 170.896 249.686 170.303 249.985 169.839L249.991 169.798C250.304 169.336 250.91 169.206 251.363 169.489C251.83 169.774 251.961 170.379 251.675 170.845C251.463 171.18 251.062 171.351 250.69 171.302L250.688 171.316ZM257.101 161.363C256.963 161.345 256.829 161.3 256.712 161.228C256.245 160.943 256.099 160.35 256.398 159.886L256.404 159.845C256.715 159.397 257.323 159.253 257.776 159.536C258.227 159.834 258.372 160.44 258.088 160.892C257.876 161.228 257.475 161.399 257.103 161.35L257.101 161.363ZM263.514 151.411C263.376 151.393 263.242 151.347 263.113 151.26C262.662 150.963 262.515 150.37 262.813 149.92L262.818 149.879C263.13 149.43 263.736 149.3 264.201 149.599C264.652 149.896 264.783 150.501 264.484 150.965C264.271 151.301 263.886 151.46 263.514 151.411ZM269.927 141.458C269.789 141.44 269.655 141.394 269.526 141.308C269.074 141.01 268.928 140.418 269.226 139.967L269.231 139.926C269.543 139.478 270.148 139.348 270.614 139.647C271.065 139.944 271.196 140.548 270.896 141.012C270.684 141.348 270.299 141.507 269.927 141.458ZM276.339 131.506C276.202 131.487 276.081 131.444 275.951 131.37C275.484 131.085 275.337 130.493 275.637 130.028L275.642 129.987C275.955 129.525 276.561 129.395 277.015 129.678C277.482 129.964 277.612 130.568 277.327 131.034C277.114 131.37 276.713 131.541 276.341 131.492L276.339 131.506ZM282.752 121.553C282.615 121.535 282.48 121.489 282.364 121.418C281.897 121.133 281.75 120.54 282.05 120.076L282.055 120.035C282.367 119.586 282.974 119.442 283.428 119.726C283.879 120.023 284.023 120.629 283.74 121.082C283.527 121.417 283.126 121.588 282.754 121.539L282.752 121.553ZM289.165 111.6C289.027 111.582 288.893 111.536 288.777 111.465C288.31 111.18 288.163 110.587 288.463 110.123L288.468 110.082C288.779 109.633 289.387 109.49 289.84 109.773C290.292 110.07 290.436 110.677 290.153 111.129C289.94 111.465 289.539 111.636 289.167 111.587L289.165 111.6ZM295.578 101.648C295.44 101.629 295.306 101.584 295.177 101.497C294.726 101.2 294.58 100.607 294.877 100.157L294.883 100.116C295.194 99.667 295.8 99.537 296.265 99.836C296.717 100.133 296.847 100.738 296.548 101.202C296.336 101.538 295.95 101.697 295.578 101.648ZM301.991 91.695C301.853 91.6768 301.719 91.6312 301.59 91.5443C301.139 91.2471 300.993 90.6544 301.29 90.2041L301.296 90.1629C301.607 89.7144 302.213 89.5844 302.678 89.8834C303.13 90.1806 303.26 90.7852 302.961 91.2493C302.748 91.5849 302.363 91.744 301.991 91.695ZM308.404 81.7424C308.266 81.7242 308.132 81.6786 308.003 81.5917C307.552 81.2945 307.406 80.7018 307.703 80.2515L307.709 80.2102C308.02 79.7617 308.626 79.6317 309.091 79.9308C309.543 80.228 309.673 80.8326 309.374 81.2966C309.161 81.6323 308.776 81.7913 308.404 81.7424ZM314.817 71.7897C314.679 71.7716 314.545 71.7259 314.428 71.6546C313.961 71.3693 313.815 70.7767 314.114 70.3126L314.12 70.2713C314.431 69.8228 315.039 69.6791 315.492 69.9626C315.943 70.2598 316.088 70.8662 315.804 71.3183C315.592 71.654 315.191 71.8249 314.819 71.776L314.817 71.7897Z" fill="white"/>
</g>
<defs>
<clipPath id="clip0_320_116960">
<rect width="291" height="288" fill="white" transform="translate(37.5985) rotate(7.50139)"/>
</clipPath>
</defs>
</svg>
