<svg width="178" height="210" viewBox="0 0 178 210" fill="none" xmlns="http://www.w3.org/2000/svg">
<path d="M66.3526 176.473L20.9022 170.746C20.7233 170.746 20.5443 170.746 20.3654 170.925L4.79773 180.948L55.9742 187.391L66.8894 178.084C67.4263 177.547 67.0683 176.652 66.3526 176.473Z" fill="white"/>
<path d="M55.9745 184.706L56.8695 184.169L54.7216 183.812L54.0056 184.527L55.9745 184.706Z" fill="#602B7A"/>
<path d="M57.048 183.811L58.122 182.917L56.3321 182.559L55.4371 183.453L57.048 183.811Z" fill="#602B7A"/>
<path d="M61.3426 180.232L62.4166 179.337L60.6267 179.158L59.5527 180.053L61.3426 180.232Z" fill="#602B7A"/>
<path d="M62.7742 179.158L63.8481 178.263L62.0582 177.905L60.9843 178.8L62.7742 179.158Z" fill="#602B7A"/>
<path d="M58.6581 182.558L59.5528 181.663L57.2266 181.484L55.974 182.2L58.6581 182.558Z" fill="#602B7A"/>
<path d="M59.9106 181.306L60.9842 180.59L57.9423 180.053L56.8687 180.948L59.9106 181.306Z" fill="#602B7A"/>
<path d="M55.0798 183.454L56.1538 182.559L54.3639 182.38L53.2899 183.275L55.0798 183.454Z" fill="#602B7A"/>
<path d="M59.0164 179.874L60.0903 179.158L58.3004 178.8L57.4054 179.695L59.0164 179.874Z" fill="#602B7A"/>
<path d="M60.448 178.8L61.5219 177.906L59.732 177.727L58.6581 178.621L60.448 178.8Z" fill="#602B7A"/>
<path d="M56.8691 179.695L57.9431 178.8L56.1532 178.621L55.0792 179.337L56.8691 179.695Z" fill="#602B7A"/>
<path d="M58.1217 178.442L59.1956 177.726L57.4057 177.368L56.5107 178.263L58.1217 178.442Z" fill="#602B7A"/>
<path d="M56.5107 182.201L57.5844 181.485L55.0793 181.127L54.0056 182.022L56.5107 182.201Z" fill="#602B7A"/>
<path d="M56.3319 180.769L57.4055 180.053L54.3636 179.695L53.111 180.411L56.3319 180.769Z" fill="#602B7A"/>
<path d="M54.7214 153.385L6.40804 147.479C5.51335 147.3 4.79757 148.016 4.79757 148.732L4.61865 180.948L55.7951 187.391L55.974 155.175C56.153 154.28 55.6161 153.564 54.7214 153.385Z" fill="white"/>
<path d="M33.4277 164.124L27.3438 163.408C26.807 163.408 26.4491 163.766 26.2701 164.124L26.4491 170.388C26.4491 170.925 26.807 171.283 27.1648 171.462L28.9542 171.641L29.67 172.715C29.8489 172.894 30.2068 172.894 30.3857 172.894L31.2804 171.999L33.0698 172.178C33.6067 172.178 33.9645 171.82 34.1434 171.462L33.9645 165.198C34.3224 164.482 33.9645 164.124 33.4277 164.124Z" fill="#602B7A"/>
<path d="M86.3936 197.951L86.2147 196.698V195.445C86.9304 195.445 87.4673 195.803 87.6462 196.519C87.8251 197.235 87.1094 197.772 86.3936 197.951ZM101.424 195.803C100.888 195.803 100.172 195.445 100.172 194.729C99.993 194.013 100.53 193.476 101.067 193.297H101.245C101.961 193.297 102.498 193.655 102.677 194.371C102.856 195.087 102.319 195.803 101.424 195.803ZM116.097 192.403C115.561 192.403 115.024 192.045 114.845 191.508C114.666 190.792 115.024 190.076 115.74 189.897H115.918C116.634 189.718 117.35 190.255 117.35 190.971C117.35 191.687 116.992 192.403 116.276 192.403C116.276 192.403 116.276 192.403 116.097 192.403ZM131.128 187.033L130.591 185.959L130.055 184.706C130.77 184.348 131.486 184.706 131.665 185.243C131.844 185.78 131.665 186.675 131.128 187.033ZM144.728 179.516L144.012 178.442L143.296 177.368C143.833 177.01 144.728 177.189 145.085 177.726C145.264 178.442 145.264 179.158 144.728 179.516ZM155.643 170.209C155.285 170.209 154.927 170.03 154.748 169.851C154.211 169.314 154.211 168.598 154.748 168.061C155.285 167.524 156.001 167.524 156.538 168.061C157.074 168.598 157.074 169.314 156.538 169.851C156.359 170.03 156.001 170.209 155.643 170.209ZM165.306 158.397C165.127 158.397 164.769 158.397 164.59 158.218C164.053 157.86 163.874 157.144 164.232 156.428C164.59 155.891 165.484 155.712 166.021 156.07C166.558 156.428 166.737 157.323 166.379 157.86C166.021 158.039 165.663 158.397 165.306 158.397ZM78.1624 147.837C77.2677 147.837 76.7309 147.3 76.7309 146.584C76.7309 145.868 77.4467 145.331 78.1624 145.331C78.8782 145.331 79.415 146.047 79.2361 146.763C79.415 147.3 78.8782 147.837 78.1624 147.837ZM93.5511 147.479L93.3722 146.226V144.973C94.088 144.973 94.6248 145.331 94.8037 146.047C94.9827 146.763 94.2669 147.3 93.5511 147.479ZM62.9526 146.226V144.973L63.1316 143.72C63.8474 143.899 64.2052 144.436 64.2052 145.152C64.2052 145.689 63.6684 146.226 62.9526 146.226ZM108.761 144.794L108.403 143.541L108.045 142.288C108.761 142.109 109.477 142.467 109.656 143.183C109.835 143.899 109.477 144.615 108.761 144.794ZM171.926 144.615C171.747 144.615 171.568 144.615 171.568 144.615C170.853 144.436 170.674 143.72 170.853 143.004V142.825C171.21 142.11 171.926 141.931 172.463 142.109C173.179 142.467 173.358 143.183 173.179 143.72C173 144.436 172.463 144.615 171.926 144.615ZM122.718 139.425C122.181 139.425 121.823 139.246 121.645 138.709C121.287 138.172 121.466 137.277 122.181 137.098C122.181 137.098 122.181 137.098 122.36 137.098C123.076 136.74 123.792 137.098 124.15 137.635C124.508 138.351 124.15 139.067 123.613 139.425C123.076 139.425 122.897 139.425 122.718 139.425ZM51.8585 136.203C51.5006 136.203 51.1427 136.024 50.9638 135.845C50.6059 135.308 50.6059 134.592 50.9638 134.055C51.5006 133.519 52.2164 133.519 52.7532 134.055C52.7532 134.055 52.7531 134.055 52.9321 134.234C53.4689 134.771 53.29 135.487 52.7532 136.024C52.3953 136.024 52.0374 136.203 51.8585 136.203ZM175.684 129.939C174.789 129.939 174.431 129.223 174.431 128.507V128.328C174.61 127.612 175.326 127.254 175.863 127.433C176.579 127.612 176.936 128.328 176.758 128.865C176.936 129.581 176.4 129.939 175.684 129.939ZM135.96 129.939L134.886 129.223L133.991 128.328C134.528 127.791 135.244 127.791 135.781 128.328C136.317 128.686 136.317 129.402 135.96 129.939ZM42.0169 124.391C41.659 124.391 41.3011 124.212 41.1222 124.033L42.0169 123.138L43.0905 122.422C43.4483 122.959 43.4484 123.675 42.9116 124.212C42.5537 124.391 42.1958 124.391 42.0169 124.391ZM144.37 116.873L143.117 116.516L142.043 115.979C142.401 115.442 143.117 115.084 143.654 115.263C144.191 115.442 144.549 116.158 144.37 116.873ZM176.579 114.726C175.863 114.726 175.326 114.189 175.326 113.473C175.326 112.757 175.684 112.22 176.4 112.041C177.115 112.041 177.652 112.578 177.831 113.294V113.473C177.831 114.189 177.294 114.726 176.579 114.726ZM33.0699 111.862C32.7121 111.862 32.1752 111.683 31.9963 111.325L34.1435 109.893C34.5014 110.43 34.3225 111.325 33.7857 111.683C33.6067 111.862 33.4278 111.862 33.0699 111.862ZM146.517 101.66L145.264 101.481C145.264 100.765 145.801 100.228 146.517 100.228C147.233 100.228 147.77 100.765 147.77 101.481L146.517 101.66ZM175.147 99.5126C174.61 99.5126 174.073 99.1546 173.895 98.4387V98.2597C173.895 97.5438 174.252 97.0069 174.968 96.8279C175.684 96.8279 176.221 97.1858 176.4 97.9017C176.4 98.6176 176.042 99.1546 175.326 99.3336C175.147 99.5126 175.147 99.5126 175.147 99.5126ZM25.7335 98.4387C25.1966 98.4387 24.8387 98.2597 24.6598 97.7228L25.7335 97.1858L26.986 96.6489C27.3439 97.3648 26.986 98.0807 26.4492 98.2597C26.2703 98.4387 26.0913 98.4387 25.7335 98.4387ZM145.622 87.6999C144.907 87.6999 144.37 87.163 144.37 86.6261C144.191 85.9101 144.728 85.3732 145.264 85.1943C145.98 85.0153 146.696 85.5522 146.696 86.2681V86.4471C147.054 86.984 146.517 87.521 145.622 87.6999C145.801 87.6999 145.801 87.6999 145.622 87.6999ZM171.568 84.6573C171.032 84.6573 170.495 84.2994 170.316 83.7624V83.5834C170.137 82.8675 170.674 82.1516 171.389 82.1516C172.105 81.9726 172.821 82.5096 172.821 83.2255C173 83.9414 172.642 84.4783 171.926 84.8363C171.926 84.6573 171.747 84.6573 171.568 84.6573ZM20.9021 84.1204C20.3653 84.1204 19.8285 83.7624 19.6495 83.0465C19.4706 82.3306 20.0074 81.6147 20.5442 81.6147C21.26 81.4357 21.9757 81.7937 21.9757 82.5096C22.1547 83.2255 21.6178 83.9414 20.9021 83.9414C21.081 84.1204 21.081 84.1204 20.9021 84.1204ZM142.222 72.8447C141.686 72.8447 141.149 72.4867 140.97 71.9498V71.7708C140.791 71.0549 141.328 70.339 142.043 70.339C142.759 70.16 143.475 70.6969 143.475 71.4129C143.654 72.1288 143.296 72.6657 142.58 73.0237C142.58 72.8447 142.401 72.8447 142.222 72.8447ZM166.2 70.339C165.663 70.339 165.305 69.981 165.127 69.6231C164.769 69.0861 164.948 68.3702 165.484 68.0123C166.021 67.6543 166.916 67.8333 167.274 68.5492C167.274 68.5492 167.274 68.7282 167.453 68.7282C167.811 69.4441 167.453 70.16 166.737 70.339C166.558 70.339 166.379 70.339 166.2 70.339ZM20.1863 68.9072C20.0074 68.9072 20.0074 68.9072 19.8285 68.9072C19.1127 68.7282 18.7548 68.0123 18.9338 67.4753C18.9338 66.7594 19.6495 66.2225 20.3653 66.4015C21.0811 66.4015 21.6179 67.1174 21.4389 67.8333V68.0123C21.26 68.5492 20.7232 68.9072 20.1863 68.9072ZM157.074 56.9156C156.716 56.3787 156.716 55.4838 157.253 55.1258C157.79 54.7678 158.506 54.7678 159.043 55.3048L158.148 56.1997L157.074 56.9156ZM25.5545 54.7679C25.3756 54.7679 25.0177 54.7678 24.8388 54.5889C24.3019 54.2309 24.123 53.336 24.6598 52.7991C25.0177 52.2621 25.9124 52.0832 26.4492 52.4411C26.986 52.7991 27.1649 53.515 26.8071 54.0519V54.2309C26.2703 54.5889 25.9124 54.7679 25.5545 54.7679ZM147.591 46.3558C147.233 46.3558 147.054 46.1769 146.875 45.9979C146.338 45.4609 146.338 44.745 146.696 44.2081C147.233 43.6712 147.948 43.6712 148.485 44.0291C149.022 44.566 149.022 45.282 148.664 45.8189C148.306 46.1769 147.948 46.3558 147.591 46.3558ZM35.754 43.4922C35.3961 43.4922 35.0383 43.3132 34.8593 43.1342C34.3225 42.5973 34.5014 41.8814 35.0382 41.3444L35.9329 42.2393L36.6487 43.3132C36.2908 43.3132 35.933 43.4922 35.754 43.4922ZM134.707 37.0489C134.17 36.691 133.991 35.9751 134.17 35.2591C134.528 34.7222 135.244 34.3643 135.781 34.7222L135.244 35.7961L134.707 37.0489ZM48.1008 34.5432C47.564 34.5432 47.2061 34.1853 47.0271 33.8273C46.6693 33.1114 47.0271 32.3955 47.7429 32.2165C48.2797 31.8586 48.9954 32.0375 49.3533 32.5745C49.7112 33.1114 49.5323 34.0063 48.8165 34.3643C48.8165 34.3643 48.6376 34.3643 48.6376 34.5432C48.2797 34.5432 48.1008 34.5432 48.1008 34.5432ZM121.287 30.4267C120.75 30.0688 120.392 29.3528 120.571 28.8159C120.75 28.1 121.466 27.921 122.181 28.1L121.823 29.3529L121.287 30.4267ZM61.879 28.279C61.3422 28.279 60.8054 27.921 60.6265 27.3841C60.4475 26.6682 60.8054 25.9523 61.5212 25.7733C62.2369 25.5943 62.9527 25.9523 63.1316 26.6682C63.3105 27.3841 62.9527 28.1 62.4159 28.279C62.2369 28.279 62.0579 28.279 61.879 28.279ZM106.972 26.1312C106.256 25.9523 105.898 25.2363 105.898 24.6994C106.077 23.9835 106.793 23.6255 107.329 23.6255L106.972 26.1312ZM76.7309 24.8784C76.1941 24.8784 75.6573 24.5204 75.4783 23.8045C75.2994 23.0886 75.8362 22.3727 76.552 22.3727H76.7309C77.4467 22.1937 77.9835 22.7306 78.1624 23.4465C78.1624 24.1625 77.8045 24.6994 77.0888 24.8784C76.9098 24.8784 76.7309 24.8784 76.7309 24.8784ZM92.1197 24.1625H91.9407C91.225 24.1625 90.6881 23.4465 90.8671 22.7306C90.8671 22.0147 91.5828 21.4778 92.2986 21.6568C93.0143 21.6568 93.5511 22.1937 93.5511 22.9096C93.5511 23.6255 92.8354 24.1625 92.1197 24.1625Z" fill="white"/>
<path d="M73.8678 151.774C86.4186 151.774 96.593 141.597 96.593 129.044C96.593 116.49 86.4186 106.313 73.8678 106.313C61.317 106.313 51.1426 116.49 51.1426 129.044C51.1426 141.597 61.317 151.774 73.8678 151.774Z" fill="#FFD631"/>
<path d="M73.8678 152.669C60.8053 152.669 50.2479 142.109 50.2479 129.044C50.2479 115.978 60.8053 105.598 73.8678 105.598C86.9304 105.598 97.4878 116.157 97.4878 129.223C97.4878 142.288 86.7514 152.669 73.8678 152.669ZM73.8678 107.387C61.879 107.387 52.0373 117.231 52.0373 129.223C52.0373 141.214 61.879 151.058 73.8678 151.058C85.8567 151.058 95.6984 141.214 95.6984 129.223C95.6984 117.231 85.8567 107.387 73.8678 107.387Z" fill="#602B7A"/>
<path d="M114.308 140.499C118.781 140.499 122.36 136.919 122.36 132.445C122.36 103.987 99.0982 80.7197 70.647 80.7197C66.1735 80.7197 62.5947 84.2993 62.5947 88.7738C62.5947 93.2482 66.1735 96.8278 70.647 96.8278C90.3302 96.8278 106.256 112.757 106.256 132.445C106.256 136.919 109.834 140.499 114.308 140.499Z" fill="#FFD631"/>
<path d="M114.308 141.394C109.477 141.394 105.361 137.456 105.361 132.445C105.361 113.294 89.7934 97.7231 70.647 97.7231C65.8157 97.7231 61.7001 93.7855 61.7001 88.7741C61.7001 83.7627 65.6367 79.8252 70.647 79.8252C99.6351 79.8252 123.255 103.45 123.255 132.445C123.076 137.456 119.139 141.394 114.308 141.394ZM70.647 81.615C66.7104 81.615 63.4895 84.8366 63.4895 88.7741C63.4895 92.7117 66.7104 95.9333 70.647 95.9333C90.8671 95.9333 107.15 112.399 107.15 132.445C107.15 136.382 110.371 139.604 114.308 139.604C118.245 139.604 121.466 136.382 121.466 132.445C121.287 104.524 98.5614 81.615 70.647 81.615Z" fill="#602B7A"/>
<path d="M139.002 146.047C143.475 146.047 147.054 142.468 147.054 137.993C147.054 92.8906 110.371 56.3789 65.4578 56.3789C60.9843 56.3789 57.4055 59.9585 57.4055 64.433C57.4055 68.9074 60.9843 72.487 65.4578 72.487C101.603 72.487 131.128 102.018 131.128 138.172C130.949 142.468 134.528 146.047 139.002 146.047Z" fill="#FFD631"/>
<path d="M139.001 146.942C134.17 146.942 130.055 143.004 130.055 137.993C130.055 102.197 101.067 73.2026 65.2788 73.2026C60.4475 73.2026 56.3319 69.265 56.3319 64.2536C56.3319 59.2422 60.2686 55.3047 65.2788 55.3047C110.729 55.3047 147.769 92.3533 147.769 137.814C147.769 143.004 143.833 146.942 139.001 146.942ZM65.2788 57.2735C61.3422 57.2735 58.1213 60.4951 58.1213 64.4326C58.1213 68.3702 61.3422 71.5918 65.2788 71.5918C101.961 71.5918 131.844 101.481 131.844 138.172C131.844 142.109 135.065 145.331 139.001 145.331C142.938 145.331 146.159 142.109 146.159 138.172C145.98 93.6062 109.835 57.2735 65.2788 57.2735Z" fill="#602B7A"/>
<path d="M86.3935 136.383C93.4101 136.383 99.0981 130.693 99.0981 123.675C99.0981 116.657 93.4101 110.968 86.3935 110.968C79.3769 110.968 73.6888 116.657 73.6888 123.675C73.6888 130.693 79.3769 136.383 86.3935 136.383Z" fill="white"/>
<path d="M86.3935 137.098C78.8781 137.098 72.7942 131.013 72.7942 123.496C72.7942 115.979 78.8781 109.894 86.3935 109.894C93.909 109.894 99.9929 115.979 99.9929 123.496C99.8139 131.013 93.73 137.098 86.3935 137.098ZM86.3935 111.862C79.9517 111.862 74.5836 117.053 74.5836 123.675C74.5836 130.118 79.7728 135.488 86.3935 135.488C93.0143 135.488 98.2035 130.297 98.2035 123.675C98.0245 117.053 92.8353 111.862 86.3935 111.862Z" fill="#602B7A"/>
<path d="M59.1948 136.383C66.2114 136.383 71.8995 130.693 71.8995 123.675C71.8995 116.657 66.2114 110.968 59.1948 110.968C52.1783 110.968 46.4902 116.657 46.4902 123.675C46.4902 130.693 52.1783 136.383 59.1948 136.383Z" fill="white"/>
<path d="M59.1949 137.098C51.6794 137.098 45.5956 131.013 45.5956 123.496C45.5956 115.979 51.6794 109.894 59.1949 109.894C66.7103 109.894 72.7942 115.979 72.7942 123.496C72.7942 131.013 66.7103 137.098 59.1949 137.098ZM59.1949 111.862C52.7531 111.862 47.385 117.053 47.385 123.675C47.385 130.118 52.5741 135.488 59.1949 135.488C65.8156 135.488 71.0048 130.297 71.0048 123.675C71.0048 117.053 65.6367 111.862 59.1949 111.862Z" fill="#602B7A"/>
<path d="M54.7214 118.485C54.7214 123.854 59.5528 123.317 59.3738 118.485C59.5528 113.652 54.7214 113.115 54.7214 118.485Z" fill="#602B7A"/>
<path d="M57.4055 118.485C57.4055 119.022 58.3005 119.38 59.3744 119.38C59.3744 118.843 59.3744 118.127 59.3744 117.59C58.3005 117.59 57.4055 118.127 57.4055 118.485Z" fill="white"/>
<path d="M76.731 118.485C76.731 123.854 81.5623 123.317 81.3834 118.485C81.5623 113.652 76.731 113.115 76.731 118.485Z" fill="#602B7A"/>
<path d="M79.415 118.485C79.415 119.022 80.31 119.38 81.384 119.38C81.384 118.843 81.384 118.127 81.384 117.59C80.31 117.59 79.415 118.127 79.415 118.485Z" fill="white"/>
<path d="M85.4989 138.351L64.742 136.203C64.742 136.203 63.8473 146.942 75.4783 147.121C87.1093 147.479 85.4989 138.351 85.4989 138.351Z" fill="#602B7A"/>
<path d="M83.8885 164.84C79.7729 164.84 76.3731 164.661 76.0152 164.661C75.4784 164.661 75.1205 164.124 75.1205 163.766C75.1205 163.229 75.6573 162.871 76.0152 162.871C80.6676 163.229 93.3722 163.587 97.1299 161.44C102.856 158.397 113.234 140.32 113.234 140.141C113.413 139.783 113.95 139.604 114.487 139.783C114.845 139.962 115.024 140.499 114.845 141.036C114.487 141.752 104.109 159.829 98.0246 163.05C95.3405 164.482 89.0777 164.84 83.8885 164.84Z" fill="white"/>
<path d="M33.4277 103.092C25.3754 103.092 8.73415 91.6374 6.58689 90.3845C6.22901 90.0265 6.05009 89.4896 6.40797 89.1317C6.76585 88.7737 7.30266 88.5947 7.66053 88.9527C13.5655 93.0692 29.8489 103.092 34.8592 101.302C39.5116 99.5124 61.7 88.0578 62.0578 87.8788C62.4157 87.6998 62.9526 87.8788 63.3104 88.2368C63.4894 88.5947 63.3104 89.1316 62.9525 89.4896C62.0578 90.0265 40.4063 101.123 35.575 102.913C34.8592 102.913 34.1434 103.092 33.4277 103.092Z" fill="white"/>
<path d="M71.0048 80.0036C64.742 80.0036 45.0587 79.6456 44.8798 74.4553C44.5219 69.0859 55.7951 64.2535 57.0477 63.7165C57.5845 63.5376 57.9423 63.7165 58.3002 64.2534C58.4791 64.7904 58.3002 65.1484 57.7634 65.5063C53.2899 67.2961 46.4902 71.4126 46.6692 74.4553C46.8481 76.782 59.3738 78.3928 71.1838 78.3928C71.1838 78.3928 71.1838 78.3928 71.3627 78.3928C71.8996 78.3928 72.2574 78.7507 72.2574 79.2877C71.8996 79.4667 71.5417 79.8246 71.0048 80.0036Z" fill="white"/>
<path d="M132.918 165.376C132.739 165.376 132.56 165.376 132.381 165.376C128.086 164.66 120.75 154.28 119.855 153.027C119.497 152.669 119.676 152.132 120.034 151.774C120.392 151.416 120.929 151.595 121.287 151.953C123.434 154.996 129.518 163.05 132.56 163.587C132.918 163.587 133.097 163.587 133.276 163.408C135.602 161.797 137.391 151.953 137.928 146.047C137.928 145.51 138.465 145.152 138.823 145.331C139.359 145.331 139.717 145.868 139.538 146.226C139.359 147.836 137.749 162.334 134.17 164.839C133.991 165.197 133.454 165.376 132.918 165.376Z" fill="white"/>
<path d="M65.6367 170.03C65.8156 170.746 66.5314 171.104 67.0682 170.925L75.1204 168.778C75.8362 168.599 76.1941 167.883 76.0151 167.346C75.8362 166.63 75.1204 166.272 74.5836 166.451L66.5314 168.599C65.8156 168.778 65.4577 169.494 65.6367 170.03Z" fill="white"/>
<path d="M64.9208 167.167C65.0998 167.883 65.8155 168.241 66.3523 168.062L74.4046 165.914C75.1203 165.735 75.4782 165.019 75.2993 164.482C75.1203 163.767 74.4046 163.409 73.8678 163.588L65.8155 165.735C65.0998 165.735 64.7419 166.451 64.9208 167.167Z" fill="white"/>
<path d="M64.0262 164.124C64.2051 164.84 64.9209 165.198 65.4577 165.019L73.5099 162.871C74.2257 162.692 74.5835 161.976 74.4046 161.44C74.2257 160.724 73.5099 160.366 72.9731 160.545L64.9209 162.692C64.2051 162.871 63.8473 163.408 64.0262 164.124Z" fill="white"/>
<path d="M68.6786 158.039C68.4997 158.755 68.8576 159.292 69.3944 159.65L75.6572 161.797C76.373 161.976 76.9098 161.618 77.2677 161.081C77.4466 160.366 77.0887 159.829 76.5519 159.471L70.2891 157.323C69.5733 157.144 68.8576 157.502 68.6786 158.039Z" fill="white"/>
<path d="M74.9415 168.419C77.5109 168.419 79.5939 166.336 79.5939 163.766C79.5939 161.196 77.5109 159.112 74.9415 159.112C72.372 159.112 70.2891 161.196 70.2891 163.766C70.2891 166.336 72.372 168.419 74.9415 168.419Z" fill="white"/>
<path d="M8.55522 83.9409C9.09203 83.5829 9.62884 83.4039 9.80778 83.5829L12.4919 86.8045C12.6708 86.9835 12.4919 87.6994 11.955 88.0574C11.4182 88.4153 10.8814 88.5943 10.7025 88.4153L8.0184 85.1937C7.83946 85.0148 8.0184 84.2988 8.55522 83.9409Z" fill="white"/>
<path d="M5.51335 85.0147C6.05016 84.6568 6.58698 84.4778 6.94486 84.8357L10.1657 88.7733C10.3447 89.1313 10.1658 89.6682 9.62894 90.2051C9.09212 90.5631 8.5553 90.7421 8.19742 90.3841L4.97652 86.4466C4.79759 86.0886 4.97653 85.3727 5.51335 85.0147Z" fill="white"/>
<path d="M0.503073 83.7622C1.03989 83.4042 1.75564 83.4042 2.29246 83.9411L7.66062 90.3844C8.01849 90.9213 8.01848 91.6372 7.48167 92.1742C6.94485 92.5321 6.2291 92.5321 5.69228 91.9952L0.324123 85.552C-0.212693 84.836 -0.0337431 84.1201 0.503073 83.7622Z" fill="white"/>
<path d="M0.682196 91.2794C0.861135 90.5635 1.57687 90.2055 2.11368 90.3845L8.37653 92.1743C9.09229 92.3532 9.45016 93.0692 9.27123 93.6061C9.09229 94.322 8.37655 94.68 7.83974 94.501L1.57689 92.7112C0.861135 92.5322 0.503258 91.9953 0.682196 91.2794Z" fill="white"/>
<path d="M9.27104 94.8587C11.8405 94.8587 13.9235 92.7752 13.9235 90.2052C13.9235 87.6352 11.8405 85.5518 9.27104 85.5518C6.70159 85.5518 4.61865 87.6352 4.61865 90.2052C4.61865 92.7752 6.70159 94.8587 9.27104 94.8587Z" fill="white"/>
<path d="M113.234 149.269C112.698 149.627 112.519 150.343 112.876 150.701L116.634 154.997C116.992 155.355 117.529 155.355 118.066 154.818C118.603 154.46 118.781 153.744 118.424 153.386L114.666 149.09C114.308 148.732 113.771 148.732 113.234 149.269Z" fill="white"/>
<path d="M115.561 147.301C115.024 147.658 114.845 148.374 115.203 148.732L118.96 153.028C119.318 153.386 119.855 153.386 120.392 152.849C120.929 152.491 121.108 151.775 120.75 151.417L116.992 147.122C116.634 146.764 116.097 146.764 115.561 147.301Z" fill="white"/>
<path d="M117.887 145.152C117.35 145.51 117.171 146.226 117.529 146.584L121.287 150.88C121.645 151.238 122.181 151.238 122.718 150.701C123.255 150.343 123.434 149.627 123.076 149.269L119.318 144.973C118.96 144.615 118.424 144.794 117.887 145.152Z" fill="white"/>
<path d="M123.255 145.689C122.539 145.689 122.181 146.405 122.181 147.121L122.897 152.133C122.897 152.849 123.613 153.207 124.329 153.207C125.044 153.207 125.402 152.491 125.402 151.775L124.686 146.763C124.507 146.047 123.792 145.689 123.255 145.689Z" fill="white"/>
<path d="M120.571 157.144C123.14 157.144 125.223 155.06 125.223 152.49C125.223 149.92 123.14 147.837 120.571 147.837C118.001 147.837 115.918 149.92 115.918 152.49C115.918 155.06 118.001 157.144 120.571 157.144Z" fill="white"/>
<path d="M96.5249 43.7335L77.3429 83.5625L78.9552 84.3389L98.1372 44.5099L96.5249 43.7335Z" fill="#95C11F"/>
<path d="M61.3422 31.1429C61.3422 31.1429 73.3311 27.7423 76.7309 29.89C80.1307 32.0378 81.2044 35.6174 84.7831 38.1231C88.183 40.6288 97.3088 44.0294 97.3088 44.0294L90.5091 58.5267C90.5091 58.5267 75.8362 51.7255 73.6889 47.9669C71.5417 44.2084 58.837 46.5351 58.837 46.5351L66.3524 38.3021L61.3422 31.1429Z" fill="#95C11F"/>
<path d="M79.4149 86.8054C79.0571 87.3423 78.5202 87.7003 78.1623 87.5213L72.9731 85.0156C72.6153 84.8366 72.4363 84.1207 72.7942 83.5838C73.1521 83.0468 73.6889 82.6889 74.0468 82.8678L79.236 85.3735C79.5939 85.5525 79.7728 86.2684 79.4149 86.8054Z" fill="white"/>
<path d="M80.8464 84.1208C80.4885 84.6577 79.9518 85.0157 79.5939 84.8367L74.4046 82.331C74.0467 82.152 73.8679 81.4361 74.2257 80.8992C74.5836 80.3622 75.1204 80.0043 75.4783 80.1833L80.6675 82.689C81.0253 82.8679 81.0254 83.4049 80.8464 84.1208Z" fill="white"/>
<path d="M82.099 81.2575C81.7411 81.7945 81.2043 82.1524 80.8464 81.9735L75.6572 79.4677C75.2993 79.2888 75.1204 78.5729 75.4783 78.0359C75.8362 77.499 76.373 77.141 76.7309 77.32L81.9201 79.8257C82.2779 80.0047 82.4569 80.7206 82.099 81.2575Z" fill="white"/>
<path d="M80.1307 76.2458C80.3096 76.9617 79.7728 77.4986 79.057 77.6776L74.0468 78.3935C73.331 78.5725 72.7942 78.0355 72.6152 77.3196C72.4363 76.6037 72.9731 76.0668 73.6889 75.8878L78.6992 75.1719C79.5939 75.1719 80.1307 75.5298 80.1307 76.2458Z" fill="white"/>
<path d="M74.4047 85.1946C76.9741 85.1946 79.0571 83.1112 79.0571 80.5412C79.0571 77.9711 76.9741 75.8877 74.4047 75.8877C71.8352 75.8877 69.7523 77.9711 69.7523 80.5412C69.7523 83.1112 71.8352 85.1946 74.4047 85.1946Z" fill="white"/>
<path d="M59.7317 7.87507L54.0057 9.84384L51.8584 15.7501L49.8901 10.0228L43.9851 7.87507L49.8901 5.72732L51.8584 0L54.0057 5.72732L59.7317 7.87507Z" fill="white"/>
<path d="M135.244 50.6514L129.697 52.6202L127.549 58.3475L125.402 52.6202L119.676 50.6514L125.581 48.5037L127.549 42.7764L129.697 48.5037L135.244 50.6514Z" fill="white"/>
<path d="M156.001 201.173L150.275 203.32L148.127 209.048L146.159 203.32L140.433 201.173L146.159 199.025L148.127 193.477L150.275 199.204L156.001 201.173Z" fill="white"/>
</svg>
