<svg width="56" height="56" viewBox="0 0 56 56" fill="none" xmlns="http://www.w3.org/2000/svg">
<path d="M25.6667 45.493C18.3015 45.4487 13.0375 45.199 9.62267 44.9598C6.64767 44.7533 4.32717 42.532 4.067 39.5617C3.78 36.3067 3.5 31.3658 3.5 24.5C3.5 17.6342 3.78 12.6922 4.067 9.43833C4.32717 6.468 6.64767 4.24667 9.62267 4.04017C13.3875 3.77767 19.3993 3.5 28 3.5C36.6007 3.5 42.6125 3.77767 46.3773 4.04017C49.3523 4.24667 51.6728 6.468 51.933 9.43833C52.22 12.6933 52.5 17.6342 52.5 24.5C52.5 31.3658 52.22 36.3078 51.933 39.5617C51.681 42.4352 49.5017 44.6075 46.6667 44.9342" stroke="#602B7A" stroke-width="3" stroke-linecap="round" stroke-linejoin="round"/>
<path d="M25.6667 32.6667C25.6667 34.1332 26.3434 35.4422 27.4015 36.2974C27.3279 36.9898 27.4102 37.6899 27.6424 38.3464C27.8745 39.0029 28.2507 39.5991 28.7432 40.0914C29.4877 40.8387 30.4646 41.3102 31.5129 41.4284C31.4779 44.0674 31.507 47.495 31.7345 51.2225C31.7929 52.2025 32.9677 52.6505 33.677 51.9715L35.5612 50.1632C35.7241 50.007 35.941 49.9198 36.1667 49.9198C36.3923 49.9198 36.6093 50.007 36.7722 50.1632L38.6564 51.9715C39.3657 52.6505 40.5405 52.2025 40.6 51.2225C40.8264 47.4939 40.8567 44.0674 40.8217 41.4284C41.87 41.3102 42.8468 40.8387 43.5914 40.0914C44.0839 39.5991 44.46 39.0029 44.6922 38.3464C44.9243 37.6899 45.0066 36.9898 44.933 36.2974C45.4745 35.8598 45.9112 35.3067 46.2112 34.6784C46.5112 34.0502 46.6668 33.3629 46.6667 32.6667C46.6667 31.2002 45.99 29.8912 44.9319 29.036C45.0056 28.3437 44.9235 27.6436 44.6915 26.9871C44.4596 26.3306 44.0837 25.7344 43.5914 25.242C43.0991 24.7495 42.5029 24.3734 41.8464 24.1412C41.1899 23.9091 40.4898 23.8268 39.7974 23.9004C39.3598 23.3589 38.8067 22.9221 38.1784 22.6222C37.5502 22.3222 36.8629 22.1666 36.1667 22.1667C34.7002 22.1667 33.3912 22.8434 32.536 23.9015C31.8437 23.8278 31.1436 23.9099 30.4871 24.1418C29.8306 24.3738 29.2344 24.7497 28.742 25.242C28.2495 25.7343 27.8734 26.3305 27.6412 26.987C27.4091 27.6435 27.3268 28.3436 27.4004 29.036C26.8589 29.4736 26.4221 30.0267 26.1222 30.6549C25.8222 31.2831 25.6666 31.9705 25.6667 32.6667Z" stroke="#FFD631" stroke-width="3" stroke-linecap="round" stroke-linejoin="round"/>
<path d="M14 14H38.5M14 22.1667H21M32.6667 32.7192C32.6667 33.6474 33.0354 34.5377 33.6918 35.194C34.3482 35.8504 35.2384 36.2192 36.1667 36.2192C37.0949 36.2192 37.9852 35.8504 38.6415 35.194C39.2979 34.5377 39.6667 33.6474 39.6667 32.7192C39.6667 31.7909 39.2979 30.9007 38.6415 30.2443C37.9852 29.5879 37.0949 29.2192 36.1667 29.2192C35.2384 29.2192 34.3482 29.5879 33.6918 30.2443C33.0354 30.9007 32.6667 31.7909 32.6667 32.7192Z" stroke="#602B7A" stroke-width="1.5" stroke-linecap="round" stroke-linejoin="round"/>
</svg>
