<svg width="146" height="132" viewBox="0 0 146 132" fill="none" xmlns="http://www.w3.org/2000/svg">
<g clip-path="url(#clip0_681_19784)">
<path d="M108.908 126.308C109.3 126.308 109.658 126.034 109.743 125.639C109.845 125.176 109.556 124.713 109.096 124.61L97.3564 122.004C97.8505 119.638 99.0943 112.883 98.3446 107.791C97.4586 101.653 89.8085 89.2573 89.4848 88.743C89.2292 88.3486 88.701 88.2115 88.3091 88.4687C87.9173 88.7258 87.781 89.2573 88.0365 89.6517C88.1217 89.7717 95.823 102.253 96.6578 108.048C97.5098 113.878 95.5333 122.382 95.4993 122.467L95.2948 123.307L108.721 126.274C108.721 126.274 108.84 126.291 108.908 126.291V126.308Z" fill="#613182"/>
<path d="M71.0313 132C71.2357 132 71.4402 131.931 71.6106 131.777L79.9252 123.976L79.5503 123.376C79.5503 123.376 76.6539 118.644 75.2397 110.894C73.8426 103.316 81.8164 91.4348 81.9016 91.3148C82.1742 90.9204 82.072 90.3889 81.6801 90.1318C81.2882 89.8746 80.7601 89.9603 80.5045 90.3546C80.1637 90.869 72.0536 102.939 73.57 111.22C74.7797 117.752 76.9094 122.142 77.7613 123.685L70.452 130.526C70.1112 130.851 70.0942 131.383 70.4179 131.743C70.5883 131.931 70.8098 132.017 71.0483 132.017L71.0313 132Z" fill="#613182"/>
<path d="M48.0822 68.4261C49.0534 68.4261 50.0757 67.9803 51.1321 67.0888C55.4086 63.5054 58.1007 58.5677 60.469 54.1957C62.5306 50.4066 64.4729 46.8404 67.0627 44.8859C67.4376 44.5944 67.5228 44.0629 67.2331 43.6857C66.9435 43.3085 66.4153 43.2399 66.0404 43.5143C63.161 45.6917 61.1335 49.4293 58.9866 53.3727C56.5672 57.8133 54.0797 62.391 50.0586 65.7686C48.5252 67.0545 47.7244 66.6773 47.4518 66.5573C44.4531 65.2028 43.0219 54.8472 42.8345 48.6407V48.0234L33.0035 45.2116C32.5605 45.0916 32.0834 45.3488 31.9471 45.7946C31.8108 46.2575 32.0834 46.7204 32.5264 46.8576L41.1477 49.3265C41.301 52.7212 42.17 66.0601 46.7532 68.1346C47.1792 68.3232 47.6392 68.4261 48.0822 68.4261Z" fill="#613182"/>
<path d="M76.4296 32.718L118.636 43.3073C122.635 44.3106 125.069 48.3863 124.072 52.4105L113.548 94.8817C112.551 98.9059 108.501 101.355 104.502 100.351L62.2956 89.7622C58.2965 88.7589 55.8628 84.6832 56.8599 80.659L67.3831 38.1878C68.3802 34.1636 72.4305 31.7147 76.4296 32.718Z" fill="#613182"/>
<path d="M97.7474 93.8179C98.923 93.8179 100.065 93.4921 101.087 92.8749C102.586 91.9662 103.626 90.5432 104.052 88.8458L112.025 56.6473C112.451 54.95 112.179 53.184 111.293 51.6753C110.39 50.1665 108.976 49.1206 107.289 48.692L75.2911 40.6681C73.6043 40.2395 71.8494 40.5138 70.35 41.4054C68.8507 42.3141 67.8114 43.7371 67.3854 45.4345L59.4115 77.6329C58.5426 81.1477 60.6724 84.7138 64.1652 85.5882L96.1628 93.6121C96.691 93.7493 97.2192 93.8007 97.7474 93.8007V93.8179ZM73.7066 42.194C74.0984 42.194 74.4903 42.2455 74.8822 42.3483L106.88 50.3722C108.124 50.6809 109.18 51.4695 109.844 52.584C110.509 53.6984 110.696 55.0014 110.39 56.253L102.416 88.4515C102.109 89.7031 101.325 90.7661 100.218 91.4347C99.1105 92.1034 97.8156 92.292 96.5718 91.9834L64.5741 83.9595C62.0013 83.3079 60.4338 80.6847 61.0642 78.0958L69.0381 45.8974C69.3448 44.6458 70.1285 43.5828 71.236 42.9141C72.0027 42.4512 72.8376 42.2283 73.7066 42.2283V42.194Z" fill="#6553A3"/>
<path d="M101.326 28.0151C96.2658 45.9488 124.396 53.5269 128.911 35.456C133.971 17.5223 105.841 9.94414 101.326 28.0151Z" fill="white"/>
<path d="M115.792 46.6689C117.206 46.6689 118.603 46.4975 119.949 46.1203C124.924 44.7487 128.417 41.0282 129.763 35.6618C131.263 30.3468 130.087 25.3747 126.458 21.6885C122.386 17.5565 115.911 15.8078 110.34 17.3508C105.365 18.7224 101.889 22.4258 100.526 27.7922C99.0263 33.1243 100.202 38.0964 103.831 41.7826C106.915 44.9201 111.379 46.6689 115.792 46.6689ZM114.497 18.4995C118.45 18.4995 122.471 20.0769 125.231 22.8887C128.417 26.1119 129.439 30.5011 128.11 35.216C126.918 39.9995 123.851 43.2742 119.489 44.4743C114.48 45.8459 108.67 44.2857 105.024 40.5824C101.838 37.3591 100.815 32.97 102.144 28.2551C103.337 23.4887 106.387 20.1969 110.749 18.9967C111.958 18.671 113.219 18.4995 114.48 18.4995H114.497Z" fill="#6553A3"/>
<path d="M72.8554 20.334C67.7951 38.2678 95.9251 45.8459 100.44 27.775C105.501 9.84124 77.3706 2.26311 72.8554 20.334Z" fill="white"/>
<path d="M87.3212 38.9879C88.7353 38.9879 90.1325 38.8164 91.4785 38.4392C96.4536 37.0676 99.9465 33.3471 101.292 27.9807C102.792 22.6658 101.616 17.6937 97.9871 14.0075C93.9149 9.87552 87.4404 8.12672 81.869 9.66978C76.8938 11.0414 73.418 14.7447 72.055 20.1111C70.5556 25.4433 71.7313 30.3982 75.3604 34.1015C78.4443 37.2391 82.9083 38.9879 87.3212 38.9879ZM86.0263 10.8185C89.9791 10.8185 94.0001 12.3958 96.7603 15.2076C99.9465 18.4481 100.969 22.8201 99.6398 27.535C98.4471 32.3184 95.3802 35.5931 91.0185 36.7933C86.0092 38.1649 80.1992 36.6047 76.5531 32.9014C73.3669 29.6781 72.3446 25.2889 73.6736 20.5741C74.8663 15.8077 77.9161 12.5159 82.2779 11.3157C83.4876 10.9899 84.7484 10.8185 86.0092 10.8185H86.0263Z" fill="#6553A3"/>
<path d="M83.4028 23.3001C81.4945 30.2096 87.952 31.2383 89.4002 24.9117C91.2915 18.7224 85.1918 16.3392 83.4028 23.3001Z" fill="#613182"/>
<path d="M86.7928 24.2088C86.6394 24.8089 87.6276 25.6319 89.0248 26.0091C89.3144 25.3061 89.5359 24.4832 89.6211 23.7459C88.224 23.3859 86.9461 23.6088 86.7928 24.2088Z" fill="white"/>
<path d="M111.874 30.9639C109.965 37.8734 116.423 38.9021 117.871 32.5756C119.762 26.3862 113.663 24.003 111.874 30.9639Z" fill="#613182"/>
<path d="M115.263 31.8897C115.11 32.4898 116.098 33.3128 117.495 33.69C117.785 32.987 118.007 32.1641 118.092 31.4268C116.695 31.0668 115.417 31.2897 115.263 31.8897Z" fill="white"/>
<path d="M79.6601 50.87L84.6362 52.0481L79.1547 74.7656L93.1711 78.0961L92.1536 82.3404L73.146 77.8239L79.6371 50.8773L79.6601 50.87Z" fill="white"/>
<path d="M137.089 86.7884L145.591 81.5077C146 81.2505 146.119 80.7362 145.864 80.3247C145.608 79.9303 145.097 79.7932 144.688 80.0504L137.038 84.7995C122.01 76.1584 114.411 53.3555 114.343 53.1326C114.19 52.6868 113.713 52.4296 113.27 52.5839C112.827 52.7382 112.588 53.2183 112.725 53.6641C113.048 54.6413 120.75 77.7701 136.646 86.5483L137.089 86.7884Z" fill="#613182"/>
<path d="M41.3015 40.7196C39.7851 39.3137 37.2294 35.1131 37.7576 33.4501C39.1036 29.1466 40.3985 24.8261 41.6763 20.5055C42.1364 18.9453 43.1757 17.8652 44.3684 16.8708C46.0211 15.482 47.6738 14.0761 49.3265 12.6702C49.582 12.4645 49.6161 12.2759 49.4798 11.9844C48.8664 10.5271 47.6908 9.87556 46.1915 9.77269C44.0106 9.61838 42.0512 10.3385 40.177 11.3672C38.2857 12.413 36.9227 13.9904 35.6789 15.722C34.3159 17.6423 32.9017 19.5282 31.4534 21.4999L30.9253 20.9684C27.3643 17.3508 23.7863 13.7332 20.2253 10.0984C19.4075 9.25834 18.4533 8.7097 17.2607 8.65826C15.0627 8.57254 13.3589 10.2699 13.4441 12.4645C13.4782 13.1846 13.5975 13.9218 13.6826 14.6933C13.0863 14.5219 12.5241 14.3676 11.9448 14.2133C10.3432 13.8018 8.98012 14.179 7.94079 15.4991C6.95258 16.7507 6.86738 18.1223 7.5489 19.5625C7.7704 20.0426 8.02598 20.5227 8.31563 21.1056C7.7193 21.1913 7.15704 21.2599 6.61181 21.3456C4.908 21.6199 3.69828 22.803 3.42567 24.4489C3.23825 25.5976 3.57901 26.6092 4.26054 27.535C4.51611 27.8779 4.73762 28.2208 5.02726 28.6323C4.56723 28.7866 4.17536 28.9409 3.7494 29.0266C0.699574 29.7639 -0.203457 33.3643 2.07966 35.6275C6.88442 40.411 11.621 45.2973 16.3917 50.1322C17.7888 51.5553 19.4415 52.4125 21.418 52.6354C21.8098 52.6868 22.2188 52.7554 22.5766 52.9269C22.8321 53.0469 27.9266 58.8762 28.0969 58.7733" fill="white"/>
<path d="M28.1483 59.6649C28.3017 59.6649 28.4209 59.5963 28.5913 59.4934L28.1653 58.7562L28.6083 58.0361C28.3017 57.796 26.649 55.9615 25.5415 54.7614C23.2584 52.241 23.2243 52.2239 22.9858 52.121C22.5939 51.9496 22.1338 51.8296 21.5716 51.761C19.8337 51.5724 18.3514 50.8351 17.0565 49.515L12.9503 45.3316C9.55968 41.8683 6.16908 38.4221 2.74441 34.9931C1.87547 34.1187 1.5347 32.9528 1.82435 31.8898C2.114 30.8611 2.91479 30.1067 4.02227 29.8496C4.32896 29.781 4.61861 29.6781 4.94234 29.5752L6.45873 29.078L5.53867 27.7407C5.35125 27.4835 5.19791 27.2435 5.01049 27.0035C4.41415 26.1977 4.19266 25.4261 4.32896 24.5689C4.53342 23.283 5.47052 22.3914 6.81653 22.1686C7.19137 22.1 7.58325 22.0485 7.97513 21.9971L9.67894 21.7571L8.86112 20.1454C8.69074 19.8025 8.52036 19.4939 8.38405 19.1682C7.82179 18.0023 7.92402 16.9565 8.6737 16.0135C9.47449 15.0019 10.4797 14.6933 11.7917 15.0362C12.1836 15.1391 12.5584 15.2419 12.9503 15.362L14.7222 15.8592L14.4837 13.836C14.4156 13.356 14.3644 12.8931 14.3304 12.413C14.2963 11.59 14.5689 10.8357 15.1141 10.3042C15.6593 9.75552 16.4431 9.46405 17.2609 9.49834C18.1469 9.53263 18.8966 9.90982 19.6633 10.6813L31.59 22.8029L33.4813 20.2312C34.4695 18.8767 35.4577 17.5565 36.4118 16.2192C37.4682 14.7619 38.7801 13.116 40.6203 12.1044C42.7159 10.9557 44.4368 10.4928 46.1577 10.6128C47.3844 10.6985 48.1852 11.1786 48.6452 12.1387C47.8615 12.8073 47.0948 13.4589 46.311 14.1104C45.4932 14.8133 44.6583 15.5163 43.8405 16.2021C42.6819 17.1622 41.4381 18.4138 40.8758 20.2483C39.598 24.5689 38.3031 28.8894 36.957 33.1928C36.2585 35.4389 39.2402 39.9652 40.7395 41.3539L41.8981 40.0852C40.3647 38.6621 38.2349 34.8045 38.5757 33.6901C39.9217 29.3866 41.2166 25.0489 42.4944 20.7284C42.9204 19.3225 43.9086 18.3452 44.9139 17.5051C45.7487 16.8021 46.5666 16.0992 47.4014 15.3962C48.2193 14.6933 49.0541 13.9904 49.872 13.3045C50.2468 12.9959 50.6217 12.4473 50.2638 11.6243C49.5653 9.9784 48.1852 9.03542 46.2599 8.89826C43.5678 8.69252 41.2847 9.77266 39.7854 10.5956C37.6386 11.7786 36.1733 13.596 35.0147 15.2077C34.0606 16.545 33.0894 17.8651 32.1012 19.2025L31.3856 20.1626L20.856 9.46405C19.7996 8.38391 18.641 7.83527 17.312 7.76669C16.0001 7.71525 14.7904 8.17817 13.9044 9.06971C13.0184 9.96126 12.5584 11.1614 12.6266 12.4644C12.6266 12.8073 12.6777 13.1502 12.7117 13.4931C12.5414 13.4417 12.371 13.4074 12.2006 13.356C10.2242 12.8588 8.53739 13.3903 7.32768 14.9333C6.16909 16.4078 5.9987 18.1223 6.83357 19.8883C6.90173 20.0426 6.98692 20.214 7.07211 20.3683C6.88469 20.4026 6.71431 20.4198 6.52689 20.454C4.46527 20.7798 2.96591 22.2543 2.64219 24.2603C2.43773 25.5633 2.76146 26.8149 3.63041 27.9979C3.66448 28.0322 3.69855 28.0836 3.71559 28.1179C3.68151 28.1179 3.64744 28.135 3.61336 28.1522C1.90955 28.5637 0.631691 29.781 0.171661 31.4098C-0.288372 33.09 0.222767 34.8902 1.53471 36.1932C4.95938 39.6051 8.34996 43.0513 11.7406 46.5146L15.8468 50.698C17.4143 52.2753 19.2714 53.2012 21.3842 53.4412C21.7079 53.4755 21.9805 53.5441 22.202 53.6126C22.5087 53.9041 23.4799 54.9842 24.2806 55.8758C27.0238 58.8933 27.6883 59.6306 28.1483 59.6306V59.6649Z" fill="#613182"/>
<path d="M44.7541 36.8103L55.2702 47.4925C55.8728 48.1047 55.8682 49.0926 55.2598 49.699L35.5296 69.3668C34.9212 69.9732 33.9395 69.9685 33.3369 69.3564L22.8209 58.6742C22.2183 58.062 22.2229 57.0742 22.8312 56.4677L42.5615 36.7999C43.1698 36.1935 44.1515 36.1982 44.7541 36.8103Z" fill="#613182"/>
<path d="M109.146 45.0573L86.9458 39.0565C86.9458 39.0565 86.4517 49.5665 94.0166 52.3268C101.582 55.07 109.146 45.0573 109.146 45.0573Z" fill="#FFD441"/>
<path d="M27.073 52.2754C27.073 52.2754 25.7781 49.5322 23.4439 49.0007C21.1097 48.4692 7.13837 36.3991 7.32579 34.8903C7.51321 33.3815 10.5801 33.4672 11.0571 32.4385C11.5342 31.4098 9.08072 28.4952 9.57482 27.3979C10.0689 26.3006 13.8344 26.8664 14.124 26.2149C14.4137 25.5634 12.1476 22.4087 12.9654 21.2428C13.7832 20.0769 17.3783 22.4258 18.1109 21.7229C18.8436 21.0199 16.9353 17.2137 18.0087 16.5279C19.0821 15.8421 21.1948 17.0937 23.2054 19.7169C25.2159 22.3401 29.305 27.8094 30.9407 27.7922C32.5763 27.7751 35.8136 20.7799 37.0744 18.6196C38.0797 16.888 41.3169 13.0646 42.4925 13.4932C43.6682 13.9219 38.7441 19.7512 37.0063 25.4262C35.2684 31.1012 34.0246 34.4102 34.6209 36.279C35.2172 38.1479 37.3641 42.0398 37.3641 42.0398L27.073 52.3097V52.2754Z" fill="#FFD441"/>
<path d="M33.787 8.82976C34.1107 8.82976 34.4174 8.64116 34.5707 8.33255C36.1042 4.88639 42.4594 5.02355 42.5275 5.04069C43.0046 5.0064 43.3965 4.68065 43.3965 4.20059C43.3965 3.72052 43.0387 3.32619 42.5787 3.32619C42.272 3.32619 35.0308 3.15473 33.0203 7.6296C32.8328 8.05823 33.0203 8.57258 33.4462 8.76118C33.5655 8.81261 33.6847 8.82976 33.787 8.82976Z" fill="#613182"/>
<path d="M34.7741 2.41763C35.0296 2.41763 35.2852 2.29762 35.4556 2.07473C35.5919 1.88614 36.3416 1.73183 37.0231 1.69754C37.5002 1.69754 37.875 1.32035 37.875 0.840286C37.875 0.360224 37.5002 -0.0169678 37.0231 -0.0169678C36.6653 -0.0169678 34.8422 0.0173225 34.0925 1.02888C33.8029 1.40607 33.8881 1.93757 34.2629 2.22904C34.4162 2.34905 34.6037 2.40049 34.7741 2.40049V2.41763Z" fill="#613182"/>
<path d="M47.9964 26.472C47.9964 26.472 48.1668 26.472 48.252 26.4377C52.2049 25.1861 53.7212 21.4485 53.7383 20.6084C53.7383 20.1283 53.3805 19.734 52.9205 19.7169C52.4434 19.6826 52.0856 20.0426 52.0515 20.5055C51.9493 21.0199 50.8077 23.8317 47.7579 24.7918C47.3149 24.929 47.0593 25.409 47.1956 25.8719C47.3149 26.232 47.6386 26.472 48.0135 26.472H47.9964Z" fill="#613182"/>
</g>
<defs>
<clipPath id="clip0_681_19784">
<rect width="146" height="132" fill="white" transform="matrix(-1 0 0 1 146 0)"/>
</clipPath>
</defs>
</svg>
