<svg width="115" height="125" viewBox="0 0 115 125" fill="none" xmlns="http://www.w3.org/2000/svg">
<g clip-path="url(#clip0_681_19818)">
<path d="M75.3767 125C75.5264 125 75.6947 124.963 75.8444 124.869L87.5371 118.153L85.3482 117.573C81.6814 116.582 72.4208 113.028 73.4872 108.407C74.9277 102.103 81.9059 88.6337 81.9807 88.484C82.2239 88.0164 82.0369 87.4551 81.5879 87.2307C81.1389 86.9875 80.5589 87.1745 80.3344 87.6235C80.0351 88.1847 73.1878 101.467 71.6912 107.977C70.3816 113.682 78.7629 117.311 82.8226 118.714L74.9277 123.242C74.4787 123.503 74.329 124.065 74.591 124.514C74.7593 124.813 75.0774 124.981 75.3954 124.981L75.3767 125Z" fill="#613182"/>
<path d="M46.4707 124.14C46.6203 124.14 46.7513 124.102 46.8823 124.046L58.3505 118.303L57.677 117.405C55.0204 113.888 51.6716 108.182 52.5509 106.443C54.8894 101.86 64.599 96.1539 64.6926 96.0978C65.1416 95.8359 65.2912 95.256 65.0293 94.8257C64.7674 94.3767 64.2062 94.2271 63.7572 94.489C63.3456 94.7322 53.4863 100.513 50.8858 105.601C49.3705 108.557 53.6172 114.992 55.5255 117.63L46.0591 122.362C45.5914 122.587 45.4043 123.148 45.6475 123.616C45.8159 123.952 46.1339 124.14 46.4894 124.14H46.4707Z" fill="#613182"/>
<path d="M84.7472 29.8733L100.384 75.0003C101.865 79.2762 99.5999 83.9434 95.3237 85.4249L50.1935 101.06C45.9173 102.542 41.2498 100.277 39.7682 96.0007L24.1316 50.8737C22.65 46.5978 24.9155 41.9306 29.1916 40.4491L74.3219 24.8137C78.598 23.3322 83.2656 25.5975 84.7472 29.8733Z" fill="#613182"/>
<path d="M47.0895 96.5466C47.8565 96.5466 48.6423 96.4157 49.428 96.1538L83.6455 84.3123C87.3685 83.0215 89.3516 78.9434 88.0607 75.202L76.2183 40.9869C75.601 39.1724 74.3101 37.7319 72.5889 36.8901C70.8678 36.0483 68.9221 35.936 67.1261 36.5721L32.9086 48.4136C29.1856 49.7044 27.2026 53.7825 28.4934 57.5239L40.3358 91.739C41.3647 94.6947 44.1336 96.5466 47.1082 96.5466H47.0895ZM48.8107 94.3766C46.0605 95.3307 43.0485 93.8715 42.0944 91.1216L30.252 56.9066C29.2979 54.1566 30.7571 51.1448 33.5073 50.1908L67.7248 38.3492C69.053 37.8816 70.4936 37.9751 71.7658 38.5924C73.0379 39.2098 73.992 40.2761 74.4598 41.623L86.3021 75.838C87.2562 78.5879 85.797 81.5998 83.0469 82.5538L48.8294 94.3953L48.8107 94.3766Z" fill="#6553A3"/>
<path d="M49.2961 21.2137C55.3389 40.6503 85.7212 30.7169 79.0984 11.4674C73.0556 -7.96917 42.6734 1.96423 49.2961 21.2137Z" fill="white"/>
<path d="M63.3834 32.6811C68.5469 32.6811 73.7852 30.455 77.2088 26.6013C80.9692 22.3549 81.9607 16.8737 79.9964 11.1494C78.2004 5.40635 74.1594 1.55271 68.6217 0.374172C62.4106 -0.97273 55.4136 1.32823 51.2043 6.0798C47.4439 10.3076 46.4524 15.7887 48.4167 21.5131C50.2127 27.2748 54.2537 31.1097 59.7914 32.307C60.97 32.5689 62.1861 32.6811 63.4021 32.6811H63.3834ZM64.9923 1.87073C66.0774 1.87073 67.1625 1.98297 68.2288 2.20746C73.0743 3.25505 76.6289 6.64101 78.2191 11.748C79.959 16.8363 79.0984 21.6627 75.8057 25.3667C72.0266 29.6319 65.7406 31.6709 60.1843 30.4737C55.3388 29.4261 51.7842 26.0401 50.194 20.9331C48.4542 15.8448 49.3147 11.0184 52.6074 7.31446C55.6756 3.87238 60.3713 1.87073 65.011 1.87073H64.9923Z" fill="#6553A3"/>
<path d="M18.5402 31.278C24.583 50.7146 54.9653 40.7812 48.3426 21.5317C42.2998 2.09516 11.9175 12.0286 18.5402 31.278Z" fill="white"/>
<path d="M32.6275 42.7454C37.791 42.7454 43.0294 40.5193 46.453 36.6657C50.2133 32.4192 51.2049 26.9381 49.2405 21.2137C47.4445 15.4707 43.4035 11.617 37.8659 10.4385C31.6547 9.0916 24.6578 11.3926 20.4484 16.1441C16.688 20.3719 15.6965 25.853 17.6609 31.5774C19.4569 37.3391 23.4979 41.1741 29.0355 42.3713C30.2142 42.6332 31.4302 42.7454 32.6462 42.7454H32.6275ZM34.2364 11.9351C35.3215 11.9351 36.4066 12.0473 37.473 12.2718C42.3184 13.3194 45.873 16.7053 47.4632 21.8123C49.2031 26.9006 48.3425 31.727 45.0499 35.431C41.2708 39.6962 34.9848 41.7353 29.4284 40.538C24.583 39.4904 21.0284 36.1045 19.4382 30.9975C17.6983 25.9092 18.5589 21.0828 21.8515 17.3788C24.9197 13.9367 29.6155 11.9351 34.2552 11.9351H34.2364Z" fill="#6553A3"/>
<path d="M48.4761 53.7765L53.6034 51.4742L64.0224 74.7467L78.4513 68.2732L80.3942 72.6084L60.8252 81.3706L48.4505 53.7493L48.4761 53.7765Z" fill="white"/>
<path d="M72.2699 35.6181L35.3397 47.6841C34.3482 48.0021 33.9553 49.1807 34.5727 50.0225C37.5847 54.2502 46.3402 64.5952 58.1451 61.8266C69.9688 59.0392 73.3924 43.3815 74.2717 37.3017C74.4401 36.1793 73.355 35.2814 72.2699 35.6368V35.6181Z" fill="#FFD441"/>
<path d="M60.746 21.1949C61.1576 21.1949 61.5318 20.933 61.644 20.5215L63.0846 15.5641C63.1594 15.2835 63.3839 15.0591 63.6458 14.9468C63.9265 14.8533 64.2258 14.872 64.469 15.0403L69.2583 18.1831C69.6886 18.4637 70.2686 18.3515 70.5492 17.9212C70.8298 17.491 70.7176 16.911 70.2873 16.6304L65.498 13.4877C64.7496 13.0013 63.8329 12.889 62.991 13.2071C62.1492 13.5251 61.5318 14.1985 61.2699 15.0591L59.8293 19.9977C59.6797 20.5028 59.979 21.0079 60.4654 21.1575C60.559 21.1762 60.6338 21.1949 60.7273 21.1949H60.746Z" fill="#613182"/>
<path d="M29.6152 30.9413C30.0268 30.9413 30.4009 30.6794 30.5132 30.2678L31.9537 25.3105C32.0286 25.0299 32.2531 24.8054 32.515 24.6932C32.7956 24.5809 33.0949 24.6183 33.3381 24.7867L38.1275 27.9295C38.5578 28.2101 39.1377 28.0978 39.4183 27.6676C39.699 27.2373 39.5867 26.6574 39.1564 26.3768L34.3671 23.234C33.6188 22.7476 32.7021 22.6354 31.8602 22.9534C31.0183 23.2714 30.4009 23.9262 30.139 24.7867L28.6985 29.744C28.5488 30.2491 28.8481 30.7542 29.3346 30.9039C29.4281 30.9226 29.5029 30.9413 29.5965 30.9413H29.6152Z" fill="#613182"/>
<path d="M31.356 87.9228L32.9275 76.9418C33.0024 76.4367 32.6469 75.9503 32.1418 75.8755C31.6367 75.8007 31.1503 76.1561 31.0754 76.6612L29.8033 85.6406C22.1328 83.8447 14.0321 80.889 13.6767 78.9996C13.2838 76.8857 20.393 66.4846 27.5021 57.6549C27.8202 57.2621 27.7641 56.6635 27.3525 56.3454C26.9409 56.0274 26.3609 56.0835 26.0429 56.4951C23.536 59.6004 11.0762 75.333 11.8433 79.355C12.6103 83.4518 26.23 86.7817 30.3832 87.6983L31.3748 87.9228H31.356Z" fill="#613182"/>
<path d="M113.654 78.1017C113.654 78.1017 113.803 78.1017 113.878 78.0643C114.383 77.9333 114.683 77.4282 114.552 76.9231L112.381 68.2431C113.074 66.3724 116.666 56.0087 114.028 50.7521C111.24 45.1961 87.1065 37.2831 84.3751 36.4038C83.8887 36.2542 83.3649 36.5161 83.1965 37.0025C83.0468 37.4888 83.3087 38.0126 83.7952 38.181C94.2718 41.5483 110.511 47.9086 112.363 51.5939C114.832 56.5325 110.585 67.738 110.529 67.8503L110.417 68.1309L112.737 77.3721C112.849 77.8024 113.223 78.083 113.635 78.083L113.654 78.1017Z" fill="#613182"/>
<path d="M87.4048 16.7614C87.6854 16.7614 87.9661 16.6305 88.1531 16.3873L99.3594 1.68358C99.6775 1.27203 99.5839 0.692111 99.191 0.374092C98.7795 0.0560737 98.1995 0.149609 97.8815 0.542455L86.6565 15.2648C86.3384 15.6764 86.432 16.2563 86.8248 16.5743C86.9932 16.7053 87.199 16.7614 87.3861 16.7614H87.4048Z" fill="#613182"/>
<path d="M92.3063 25.1795C92.3063 25.1795 92.4747 25.1795 92.5683 25.1421L102.39 22.3361C102.895 22.1864 103.176 21.6813 103.026 21.1762C102.877 20.6711 102.371 20.3905 101.866 20.5402L92.0444 23.3462C91.5393 23.4959 91.2587 24.001 91.4083 24.5061C91.5206 24.9176 91.8948 25.1795 92.3063 25.1795Z" fill="#613182"/>
<path d="M14.9663 44.5787C15.3405 44.5787 15.696 44.3542 15.8269 43.9988C16.014 43.5124 15.7895 42.9699 15.3031 42.7828L1.29056 37.1708C0.822856 36.9837 0.261603 37.2082 0.0745211 37.6945C-0.112562 38.1809 0.111935 38.7234 0.598351 38.9105L14.6109 44.5226C14.7231 44.56 14.8354 44.5974 14.9663 44.5974V44.5787Z" fill="#613182"/>
<path d="M14.9664 50.883C15.4528 50.883 15.8644 50.5089 15.9018 50.0225C15.9392 49.4987 15.5464 49.0684 15.0412 49.031L5.21939 48.3389C4.69555 48.2828 4.26526 48.6943 4.22785 49.1994C4.19043 49.7232 4.5833 50.1535 5.08843 50.1909L14.9103 50.883C14.9103 50.883 14.9477 50.883 14.9851 50.883H14.9664Z" fill="#613182"/>
<path d="M10.5333 59.2637C10.7203 59.2637 10.9074 59.2076 11.0571 59.0953L16.5012 55.3352C16.9315 55.0359 17.025 54.456 16.7444 54.0257C16.4451 53.5955 15.8651 53.5019 15.4348 53.7826L9.99071 57.5427C9.56042 57.842 9.46689 58.4219 9.74751 58.8521C9.93459 59.114 10.2152 59.2637 10.5146 59.2637H10.5333Z" fill="#613182"/>
</g>
<defs>
<clipPath id="clip0_681_19818">
<rect width="115" height="125" fill="white" transform="matrix(-1 0 0 1 115 0)"/>
</clipPath>
</defs>
</svg>
