<svg width="161" height="131" viewBox="0 0 161 131" fill="none" xmlns="http://www.w3.org/2000/svg">
<g clip-path="url(#clip0_2477_19861)">
<path d="M100.444 131C100.249 131 100.037 130.919 99.8746 130.773L90.7637 122.066L91.1053 121.513C91.1541 121.432 96.3767 112.985 98.4917 107.722C101.062 101.289 99.7607 90.5999 99.7444 90.4862C99.6956 90.0476 100.005 89.6415 100.444 89.5765C100.883 89.5115 101.29 89.8364 101.355 90.275C101.42 90.7299 102.738 101.484 100.005 108.323C98.1338 112.985 94.0664 119.808 92.8462 121.806L101.013 129.603C101.339 129.912 101.355 130.431 101.046 130.756C100.883 130.919 100.672 131 100.46 131H100.444Z" fill="#95C11F"/>
<path d="M128.428 128.238C128.281 128.238 128.135 128.206 128.005 128.125L117.771 121.822L117.804 121.335C117.804 121.335 118.227 115.698 117.934 108.745C117.608 101.159 115.591 90.3725 115.558 90.2751C115.477 89.8365 115.77 89.4141 116.209 89.3329C116.632 89.2517 117.072 89.5441 117.153 89.9827C117.169 90.0964 119.219 100.996 119.545 108.696C119.789 114.544 119.545 119.45 119.447 120.977L128.834 126.76C129.225 127.004 129.339 127.491 129.095 127.881C128.948 128.125 128.672 128.271 128.395 128.271L128.428 128.238Z" fill="#95C11F"/>
<path d="M136.353 58.1922C133.457 58.1922 130.935 55.2194 128.69 49.144C128.527 48.7216 128.755 48.2506 129.161 48.1044C129.584 47.9419 130.056 48.1693 130.203 48.5754C132.139 53.8062 134.27 56.5677 136.369 56.5677C136.418 56.5677 136.45 56.5677 136.499 56.5677C142.454 56.2266 148.701 36.0672 150.605 28.3348L150.719 27.88L159.96 25.2483C160.399 25.1184 160.838 25.3783 160.968 25.8007C161.099 26.2393 160.838 26.6779 160.415 26.8078L152.069 29.1795C150.93 33.7117 144.504 57.7373 136.597 58.1922C136.515 58.1922 136.434 58.1922 136.353 58.1922Z" fill="#95C11F"/>
<path d="M128.363 39.1699H86.8272C82.8916 39.1699 79.7012 42.3555 79.7012 46.285V87.7572C79.7012 91.6868 82.8916 94.8723 86.8272 94.8723H128.363C132.299 94.8723 135.489 91.6868 135.489 87.7572V46.285C135.489 42.3555 132.299 39.1699 128.363 39.1699Z" fill="#95C11F"/>
<path d="M127.599 90.6162H96.1173C92.6844 90.6162 89.9023 87.8222 89.9023 84.4108V52.9615C89.9023 49.5339 92.7007 46.7561 96.1173 46.7561H127.599C131.032 46.7561 133.814 49.5502 133.814 52.9615V84.3946C133.814 87.8222 131.015 90.6 127.599 90.6V90.6162ZM96.1173 48.3806C93.5793 48.3806 91.5293 50.4436 91.5293 52.9615V84.3946C91.5293 86.9287 93.5955 88.9755 96.1173 88.9755H127.599C130.137 88.9755 132.187 86.9125 132.187 84.3946V52.9615C132.187 50.4274 130.121 48.3806 127.599 48.3806H96.1173Z" fill="#684B99"/>
<path d="M107.164 27.0678C107.425 44.7418 79.62 44.7418 79.8966 27.0678C79.6363 9.39375 107.441 9.39375 107.164 27.0678Z" fill="white"/>
<path d="M93.5139 41.1355C90.7155 41.1355 87.9334 40.437 85.5418 39.0562C81.2792 36.5708 78.9852 32.3147 79.0665 27.0678C78.9852 21.837 81.2955 17.581 85.5581 15.0956C90.325 12.3178 96.7352 12.3178 101.502 15.0956C105.749 17.581 108.059 21.837 107.977 27.084C108.043 32.331 105.749 36.587 101.486 39.0724C99.1106 40.4532 96.3122 41.1517 93.5139 41.1517V41.1355ZM93.5139 14.6245C91.0084 14.6245 88.5029 15.2418 86.3716 16.4926C82.6458 18.6694 80.6284 22.4218 80.6935 27.0678C80.6284 31.7299 82.6458 35.4824 86.3716 37.6592C90.6504 40.1446 96.3936 40.1608 100.672 37.6592C104.398 35.4824 106.416 31.7299 106.351 27.084C106.416 22.4218 104.398 18.6694 100.672 16.4926C98.5412 15.2418 96.0357 14.6245 93.5139 14.6245Z" fill="#684B99"/>
<path d="M135.295 27.0678C135.555 44.7418 107.751 44.7418 108.027 27.0678C107.767 9.39375 135.572 9.39375 135.295 27.0678Z" fill="white"/>
<path d="M121.66 41.1355C118.862 41.1355 116.08 40.437 113.688 39.0562C109.426 36.5708 107.132 32.3147 107.213 27.0678C107.132 21.837 109.442 17.581 113.688 15.0956C118.455 12.3178 124.865 12.3178 129.632 15.0956C133.879 17.581 136.189 21.837 136.108 27.084C136.173 32.331 133.879 36.587 129.632 39.0724C127.257 40.4532 124.459 41.1517 121.66 41.1517V41.1355ZM121.66 14.6245C119.155 14.6245 116.649 15.2418 114.518 16.4926C110.792 18.6694 108.775 22.4218 108.84 27.0515C108.775 31.7137 110.792 35.4662 114.518 37.6429C118.797 40.1446 124.54 40.1446 128.819 37.6429C132.545 35.4662 134.562 31.7137 134.497 27.0678C134.562 22.4056 132.545 18.6531 128.819 16.4763C126.688 15.2255 124.182 14.6082 121.677 14.6082L121.66 14.6245Z" fill="#684B99"/>
<path d="M119.319 29.7806C119.384 36.5708 113.185 35.9211 113.397 29.7806C113.169 23.6402 119.384 22.9742 119.319 29.7806Z" fill="#602B7A"/>
<path d="M115.967 29.7807C115.967 30.3817 114.845 30.869 113.462 30.8853C113.364 30.1705 113.364 29.3583 113.462 28.6598C114.845 28.676 115.967 29.1796 115.967 29.7807Z" fill="white"/>
<path d="M91.188 29.7806C91.2531 36.5708 85.0544 35.9211 85.2659 29.7806C85.0381 23.6402 91.2531 22.9742 91.188 29.7806Z" fill="#602B7A"/>
<path d="M87.8365 29.7807C87.8365 30.3817 86.7139 30.869 85.331 30.8853C85.2334 30.1705 85.2334 29.3583 85.331 28.6598C86.7139 28.676 87.8365 29.1796 87.8365 29.7807Z" fill="white"/>
<path d="M68.8332 90.1126C68.638 90.1126 68.4427 90.0476 68.28 89.9014L62 84.1184L62.8297 83.5336C66.3114 81.1294 67.8408 76.0611 69.4677 70.6842C71.5665 63.764 73.9256 55.9179 81.1655 52.3929C81.5722 52.198 82.0603 52.3604 82.2555 52.7665C82.4508 53.1726 82.2881 53.66 81.8813 53.8549C75.2759 57.0713 73.1121 64.2351 71.0296 71.1553C69.4352 76.4022 67.9384 81.3893 64.5543 84.2646L69.3864 88.6993C69.7118 89.008 69.7443 89.5116 69.4352 89.8527C69.2725 90.0314 69.061 90.1126 68.8332 90.1126Z" fill="#95C11F"/>
<path d="M108.206 43.6859C105.75 43.7996 98.6236 43.9458 98.7537 46.3987C98.8839 48.8516 102.642 51.6944 107.816 51.4508C112.99 51.2071 119.741 43.1661 108.206 43.6859Z" fill="#602B7A"/>
<path d="M122.115 66.2007V71.399L103.031 78.644V73.6407L116.389 68.7999L103.031 63.9103V58.9395L122.115 66.1845V66.2007Z" fill="#602B7A"/>
</g>
<g clip-path="url(#clip1_2477_19861)">
<path d="M35.5003 117C35.3713 117 35.2261 116.968 35.1132 116.903L24.6777 111.143L25.0487 110.433C25.0971 110.336 30.0487 101.074 30.7906 95.5718C31.6777 89.0207 28.4842 77.2094 28.4519 77.0803C28.339 76.6446 28.581 76.209 29.0164 76.096C29.4519 75.9831 29.8874 76.2251 30.0003 76.6607C30.1293 77.161 33.3229 88.9077 32.3874 95.7977C31.71 100.735 28.0326 108.174 26.839 110.497L35.8874 115.499C36.2745 115.709 36.4197 116.209 36.21 116.597C36.0648 116.871 35.7906 117.016 35.5003 117.016V117Z" fill="#602B7A"/>
<path d="M56.9517 116.564C56.8549 116.564 56.7582 116.564 56.6775 116.516L44.2743 111.949L44.4356 111.256C44.4517 111.159 46.7582 101.139 48.1291 93.6839C49.4517 86.5035 44.242 77.0802 44.1936 76.9834C43.984 76.5962 44.113 76.1121 44.5001 75.8862C44.8872 75.6764 45.3711 75.8055 45.5969 76.1928C45.8227 76.5962 51.1452 86.213 49.7098 93.9743C48.5323 100.316 46.6936 108.513 46.1614 110.917L57.2259 114.999C57.6452 115.144 57.8549 115.612 57.7098 116.032C57.5969 116.355 57.2743 116.564 56.9517 116.564Z" fill="#602B7A"/>
<path d="M9.3544 91.2796C9.0802 91.2796 8.82214 91.1505 8.67698 90.9085C8.43504 90.5374 8.54795 90.0372 8.93504 89.7952L14.4996 86.3098C11.1931 83.1956 -0.952053 70.8357 0.0640757 59.105C0.515689 53.8932 3.51569 49.5527 8.98343 46.1803C9.37053 45.9544 9.8544 46.0674 10.0963 46.4385C10.3221 46.8258 10.2092 47.3098 9.83827 47.5519C4.83827 50.6338 2.09633 54.5709 1.67698 59.2503C0.596334 71.7232 16.1931 85.6967 16.3544 85.8419L17.1609 86.5519L9.78988 91.1667C9.66085 91.2474 9.51569 91.2958 9.3544 91.2958V91.2796Z" fill="#602B7A"/>
<path d="M75.355 75.0311L75.0969 74.6761C74.8389 74.3211 68.7098 65.7853 67.2421 61.5416C65.9356 57.7336 65.8872 54.1837 65.8389 50.7468C65.7743 45.7286 65.726 41.4043 61.855 37.1122C61.5647 36.7733 61.5808 36.2731 61.9195 35.9665C62.2421 35.6761 62.7582 35.6922 63.0647 36.0311C67.3389 40.775 67.3872 45.6157 67.4518 50.7307C67.5002 54.0385 67.5324 57.4593 68.7582 61.0091C69.984 64.559 74.9518 71.691 76.1453 73.3691L84.1453 72.9012C84.5969 72.885 84.9679 73.2077 85.0002 73.6595C85.0324 74.1113 84.6937 74.4825 84.2421 74.5147L75.355 75.0472V75.0311Z" fill="#602B7A"/>
<path d="M56.7908 25.9946H15.6133C11.7117 25.9946 8.54883 29.1588 8.54883 33.0621V74.2565C8.54883 78.1598 11.7117 81.324 15.6133 81.324H56.7908C60.6924 81.324 63.8553 78.1598 63.8553 74.2565V33.0621C63.8553 29.1588 60.6924 25.9946 56.7908 25.9946Z" fill="#602B7A"/>
<path d="M54.6932 78.7745H23.4836C20.0803 78.7745 17.3223 75.9992 17.3223 72.5946V41.372C17.3223 37.9673 20.0965 35.2081 23.4836 35.2081H54.6932C58.0965 35.2081 60.8545 37.9835 60.8545 41.372V72.5946C60.8545 75.9992 58.0803 78.7745 54.6932 78.7745ZM23.4836 36.8217C20.9674 36.8217 18.9352 38.8709 18.9352 41.372V72.5946C18.9352 75.1117 20.9836 77.161 23.4836 77.161H54.6932C57.2094 77.161 59.2416 75.1117 59.2416 72.5946V41.372C59.2416 38.8548 57.1932 36.8217 54.6932 36.8217H23.4836Z" fill="#684B99"/>
<path d="M35.7745 13.9735C36.0326 31.5291 8.46807 31.5291 8.74227 13.9735C8.4842 -3.58215 36.0487 -3.58215 35.7745 13.9735Z" fill="white"/>
<path d="M22.2582 27.947C19.4841 27.947 16.726 27.2532 14.355 25.8817C10.1292 23.4129 7.85502 19.1853 7.93567 13.9735C7.85502 8.77781 10.1453 4.55025 14.355 2.08149C19.0808 -0.677716 25.4357 -0.677716 30.1615 2.08149C34.3712 4.55025 36.6615 8.77781 36.5808 13.9896C36.6453 19.2015 34.3712 23.429 30.1615 25.8978C27.8066 27.2693 25.0324 27.9632 22.2582 27.9632V27.947ZM22.2582 1.61355C19.7744 1.61355 17.2905 2.22671 15.1776 3.46916C11.4841 5.63134 9.48405 9.35869 9.54857 13.9735C9.48405 18.6045 11.4841 22.3318 15.1776 24.494C19.4195 26.9789 25.1131 26.9789 29.355 24.494C33.0486 22.3318 35.0486 18.6045 34.9841 13.9896C35.0486 9.35869 33.0486 5.63134 29.355 3.46916C27.2421 2.22671 24.7582 1.61355 22.2744 1.61355H22.2582Z" fill="#684B99"/>
<path d="M63.6769 13.9735C63.9349 31.5291 36.3704 31.5291 36.6446 13.9735C36.3865 -3.58215 63.9511 -3.58215 63.6769 13.9735Z" fill="white"/>
<path d="M50.1606 27.947C47.3864 27.947 44.6283 27.2532 42.2574 25.8817C38.0316 23.4129 35.7574 19.1853 35.838 13.9735C35.7574 8.77781 38.0477 4.55025 42.2574 2.08149C46.9832 -0.677716 53.338 -0.677716 58.0638 2.08149C62.2735 4.55025 64.5638 8.77781 64.4832 13.9896C64.5477 19.2015 62.2735 23.429 58.0638 25.8978C55.709 27.2693 52.9348 27.9632 50.1606 27.9632V27.947ZM50.1606 1.61355C47.6767 1.61355 45.1928 2.22671 43.0799 3.46916C39.3864 5.63134 37.3864 9.35869 37.4509 13.9735C37.3864 18.6045 39.3864 22.3318 43.0799 24.494C47.3219 26.9789 53.0154 26.9789 57.2574 24.494C60.9509 22.3318 62.9509 18.6045 62.8864 13.9896C62.9509 9.35869 60.9509 5.63134 57.2574 3.46916C55.1445 2.22671 52.6606 1.61355 50.1767 1.61355H50.1606Z" fill="#684B99"/>
<path d="M60.1134 17.6686C60.1779 24.4134 54.0327 23.7679 54.2424 17.6686C54.0166 11.5693 60.1779 10.9078 60.1134 17.6686Z" fill="#602B7A"/>
<path d="M56.7908 17.6687C56.7908 18.2657 55.6779 18.7498 54.307 18.7659C54.2102 18.0559 54.2102 17.2491 54.307 16.5553C55.6779 16.5714 56.7908 17.0716 56.7908 17.6687Z" fill="white"/>
<path d="M32.2266 17.6686C32.2912 24.4134 26.146 23.7679 26.3557 17.6686C26.1299 11.5693 32.2912 10.9078 32.2266 17.6686Z" fill="#602B7A"/>
<path d="M28.9041 17.6687C28.9041 18.2657 27.7912 18.7498 26.4202 18.7659C26.3235 18.0559 26.3235 17.2491 26.4202 16.5553C27.7912 16.5714 28.9041 17.0716 28.9041 17.6687Z" fill="white"/>
<path d="M24.0977 30.9805C24.0977 30.9805 33.2106 33.0297 37.4525 32.7716C41.6944 32.5134 51.0654 29.8187 51.0654 29.8187C51.0654 29.8187 47.4686 36.1117 37.4525 37.0153C27.4364 37.9189 24.0977 30.9805 24.0977 30.9805Z" fill="#FFD631"/>
<path d="M48.2905 52.1022L35.0485 56.959L48.2905 61.7675V66.7373L29.3711 59.5407V54.3773L48.2905 47.1808V52.1183V52.1022Z" fill="white"/>
</g>
<defs>
<clipPath id="clip0_2477_19861">
<rect width="99" height="118" fill="white" transform="translate(62 13)"/>
</clipPath>
<clipPath id="clip1_2477_19861">
<rect width="85" height="117" fill="white"/>
</clipPath>
</defs>
</svg>
